<svg xmlns="http://www.w3.org/2000/svg" viewBox="0 0 620 60" font-family="system-ui, -apple-system, 'Segoe UI', sans-serif">
  <defs>
    <marker id="arrow" viewBox="0 0 10 7" refX="9" refY="3.5" markerWidth="8" markerHeight="6" orient="auto-start-reverse">
      <polygon points="0 0, 10 3.5, 0 7" fill="#aaa"/>
    </marker>
  </defs>

  <!-- Nodes -->
  <rect x="10"  y="16" width="80" height="28" rx="14" fill="#f8f8f8" stroke="#888" stroke-width="1.2"/>
  <text x="50"  y="35" font-size="10" fill="#333" text-anchor="middle">execution</text>

  <line x1="90" y1="30" x2="108" y2="30" stroke="#aaa" stroke-width="1" marker-end="url(#arrow)"/>

  <rect x="108" y="16" width="64" height="28" rx="14" fill="#f8f8f8" stroke="#888" stroke-width="1.2"/>
  <text x="140" y="35" font-size="10" fill="#333" text-anchor="middle">review</text>

  <line x1="172" y1="30" x2="190" y2="30" stroke="#aaa" stroke-width="1" marker-end="url(#arrow)"/>
  <text x="181" y="22" font-size="8" fill="#bbb">fail</text>

  <rect x="190" y="16" width="44" height="28" rx="14" fill="#f8f8f8" stroke="#888" stroke-width="1.2"/>
  <text x="212" y="35" font-size="10" fill="#333" text-anchor="middle">fix</text>

  <line x1="234" y1="30" x2="252" y2="30" stroke="#aaa" stroke-width="1" marker-end="url(#arrow)"/>

  <rect x="252" y="16" width="64" height="28" rx="14" fill="#f8f8f8" stroke="#888" stroke-width="1.2"/>
  <text x="284" y="35" font-size="10" fill="#333" text-anchor="middle">review</text>

  <line x1="316" y1="30" x2="334" y2="30" stroke="#aaa" stroke-width="1" marker-end="url(#arrow)"/>
  <text x="325" y="22" font-size="8" fill="#bbb">fail</text>

  <rect x="334" y="16" width="44" height="28" rx="14" fill="#f8f8f8" stroke="#888" stroke-width="1.2"/>
  <text x="356" y="35" font-size="10" fill="#333" text-anchor="middle">fix</text>

  <line x1="378" y1="30" x2="396" y2="30" stroke="#aaa" stroke-width="1" marker-end="url(#arrow)"/>

  <rect x="396" y="16" width="64" height="28" rx="14" fill="#f8f8f8" stroke="#888" stroke-width="1.2"/>
  <text x="428" y="35" font-size="10" fill="#333" text-anchor="middle">review</text>

  <line x1="460" y1="30" x2="478" y2="30" stroke="#aaa" stroke-width="1" marker-end="url(#arrow)"/>
  <text x="469" y="22" font-size="8" fill="#bbb">fail</text>

  <rect x="478" y="16" width="80" height="28" rx="14" fill="#f8f8f8" stroke="#888" stroke-width="1.3"/>
  <text x="518" y="35" font-size="10" fill="#333" text-anchor="middle" font-weight="500">full retry</text>
</svg>