<svg width="144" height="36" viewBox="0 0 144 36" fill="none" xmlns="http://www.w3.org/2000/svg">
  <!-- P -->
  <path d="M18 18H6V12H18V18Z" fill="#E8688A"/>
  <path d="M0 6H24V24H6V36H0V6ZM6 12V18H18V12H6Z" fill="#3B3E73"/>
  <!-- O -->
  <path d="M48 30H36V18H48V30Z" fill="#E8688A"/>
  <path d="M48 12H36V30H48V12ZM54 36H30V6H54V36Z" fill="#3B3E73"/>
  <!-- L -->
  <path d="M84 30H66V18H84V30Z" fill="#E8688A"/>
  <path d="M66 6V30H84V36H60V6H66Z" fill="#3B3E73"/>
  <!-- P -->
  <path d="M108 18H96V12H108V18Z" fill="#E8688A"/>
  <path d="M90 6H114V24H96V36H90V6ZM96 12V18H108V12H96Z" fill="#3B3E73"/>
  <!-- O -->
  <path d="M138 30H126V18H138V30Z" fill="#E8688A"/>
  <path d="M138 12H126V30H138V12ZM144 36H120V6H144V36Z" fill="#3B3E73"/>
</svg>
