<svg xmlns="http://www.w3.org/2000/svg" height="1024" preserveAspectRatio="none" style="display: block;" version="1.1" viewBox="0 0 2048 2048" width="1024">
<defs>
	<linearGradient gradientUnits="userSpaceOnUse" id="Gradient1" x1="1004.68" x2="1070.81" y1="1086.59" y2="941.766">
		<stop class="stop0" offset="0" stop-color="rgb(23,39,60)" stop-opacity="1"></stop>
		<stop class="stop1" offset="1" stop-color="rgb(38,37,69)" stop-opacity="1"></stop>
	</linearGradient>
</defs>
<path d="M 0 0 L 2048 0 L 2048 2048 L 0 2048 L 0 0 z" fill="rgb(40,40,64)" transform="translate(0,0)"></path>
<path d="M 556.519 258.5 L 1155.73 258.411 L 1541.6 258.554 C 1566.4 258.518 1832.93 256.882 1837.45 259.969 C 1840.55 265.176 1838.82 426.158 1838.8 442.91 L 1838.94 757.492 L 1839.33 1788.04 L 1498.25 1788.3 L 211.107 1788.13 L 210.937 718.229 L 211.112 403.088 L 211.081 311.278 C 211.078 298.509 210.436 272.037 212.084 260.16 C 221.678 257.967 243.34 258.692 254.292 258.722 L 313.976 258.855 L 556.519 258.5 z" fill="rgb(146,232,235)" transform="translate(0,0)"></path>
<path d="M 851.027 271.5 L 1388.19 271.84 C 1399.4 320.779 1412.79 372.11 1425.09 420.908 C 1383.38 436.689 1372.1 486.027 1409.68 514.659 C 1428.59 529.065 1460.78 526.745 1477.53 509.916 C 1490.4 496.992 1493.9 484.066 1494.1 466.105 L 1571.32 445.573 C 1594.57 439.161 1618.49 431.902 1641.75 426.076 C 1664.85 472.569 1723.83 468.655 1743.03 422.048 L 1826.42 422.351 L 1826.14 473.517 C 1802.67 496.203 1773.53 521.16 1748.9 543.174 C 1702.44 585.005 1655.69 626.506 1608.65 667.675 C 1605.69 665.444 1602.56 663.439 1599.3 661.677 C 1569.33 645.752 1537.99 661.065 1523.85 690.239 C 1499.26 683.561 1462.53 672.435 1438.09 668.569 C 1438.11 667.291 1438.11 666.012 1438.08 664.734 C 1437.32 627.287 1407.93 602.011 1371.09 604.415 C 1355.1 605.309 1340.18 612.685 1329.76 624.838 C 1319.25 637.251 1314.16 653.366 1315.64 669.564 C 1318.93 706.31 1349.78 727.345 1385.32 722.935 C 1393.28 734.722 1403.66 753.933 1411.38 766.759 C 1432.69 802.474 1454.31 838.012 1476.21 873.369 C 1470.9 878.655 1466.85 883.999 1463.75 890.891 C 1457.96 903.505 1457.5 917.927 1462.5 930.88 C 1467.87 944.66 1479.21 955.763 1492.88 961.258 C 1506.43 966.785 1521.64 966.605 1535.06 960.759 C 1548.74 954.791 1558.23 943.967 1563.77 930.344 C 1618.59 941.258 1674.45 950.693 1729.44 960.912 C 1761.97 966.956 1794.36 971.614 1826.9 978.37 L 1826.35 1083.91 C 1784.8 1087.15 1739.04 1092.69 1697.43 1097.4 C 1679.5 1037.88 1599.09 1042.14 1589.88 1098.57 C 1587.49 1113.35 1591.26 1128.46 1600.31 1140.38 C 1622.72 1169.72 1656.67 1165.51 1682.79 1144.98 C 1695.82 1152.94 1711.12 1164.16 1723.84 1172.97 L 1791.69 1219.75 C 1802.42 1227.15 1815.92 1236.97 1826.82 1243.51 L 1826.91 1365.85 C 1769.05 1351.2 1711.05 1334.8 1653.1 1320.19 C 1622.34 1312.44 1589.18 1300.63 1558.66 1293.94 C 1559.81 1286.63 1559.84 1282.74 1558.06 1275.45 C 1554.64 1261.33 1545.59 1249.23 1533.02 1241.95 C 1520.14 1234.55 1503.97 1232.93 1489.78 1237.19 C 1475.61 1241.51 1463.85 1251.46 1457.26 1264.72 C 1450.64 1277.95 1449.81 1293.33 1454.98 1307.19 C 1460.02 1320.42 1470.15 1331.09 1483.11 1336.8 C 1512.9 1349.84 1544.52 1336.12 1556.34 1305.35 C 1580.56 1311.72 1606.22 1320.23 1631.01 1326.95 C 1696.46 1343.99 1761.76 1361.59 1826.92 1379.74 L 1826.83 1417.97 L 1591.34 1418.04 L 1066.04 1418.95 C 1019.33 1418.98 972.652 1419.03 925.918 1418.68 C 922.055 1418.65 903.182 1416.73 908.016 1427.86 C 909.21 1430.61 919.22 1431.94 922.303 1431.94 C 952.94 1431.96 983.596 1431.61 1014.25 1431.6 L 1212.48 1431.59 L 1826.66 1432.03 L 1826.69 1774.89 L 224.004 1774.65 L 224.134 824.766 C 224.064 680.734 225.437 534.852 223.74 391.006 C 259.518 352.122 304.752 310.763 342.48 271.822 L 851.027 271.5 z" fill="rgb(40,40,64)" transform="translate(0,0)"></path>
<path d="M 698.439 860.002 C 611.632 821.801 528.874 766.534 487.719 678.176 C 417.104 526.568 528.184 408.965 665.865 365.061 C 919.897 284.054 1025.54 539.757 948.874 742.382 C 971.292 781.355 1006.33 795.391 1049.58 790.753 C 1118.89 783.317 1135.1 712.441 1186.62 681.232 C 1218.9 661.679 1266.51 675.154 1283.41 709.004 C 1289.74 721.68 1292.19 737.478 1287.54 751.272 C 1277.2 785.306 1223.97 800.817 1205.79 765.166 C 1199.89 753.601 1212.6 743.238 1223.83 738.896 L 1225.18 738.388 C 1231.82 744.337 1235.38 757.049 1245.64 748.114 C 1253.95 740.872 1253.41 730.769 1245.53 723.467 C 1240.46 718.785 1233.68 716.421 1226.8 716.943 C 1196.62 719.048 1178.4 772.87 1158.62 794.82 C 1123.95 833.311 1085.74 849.208 1035.05 853.206 C 1039.63 856.331 1046.38 861 1051.46 863.051 C 1091.92 879.406 1137.75 856.805 1177.52 847.351 C 1227.87 835.38 1289.81 835.233 1323.02 881.338 C 1334.73 897.335 1339.41 917.412 1336 936.939 C 1334.09 947.8 1330.57 953.28 1323.1 960.94 C 1299.18 985.461 1246.23 974.193 1252.09 934.295 C 1253.26 926.345 1261.82 921.221 1269.22 923.454 C 1274.61 925.079 1274.66 935.804 1277.15 939.82 C 1283.26 949.98 1297.62 940.77 1298.24 931.525 C 1298.75 923.396 1294.78 912.964 1289.54 906.971 C 1270.63 885.344 1240.17 883.899 1213.62 890.319 C 1184.92 897.257 1157 912.288 1128.2 920.49 C 1109.35 925.89 1089.68 927.894 1070.12 926.408 C 1024.94 922.746 981.066 892.624 952.491 858.736 C 943.41 859.114 932.579 860.627 922.93 861.179 C 975.878 920.279 1018.65 926.726 1087.38 954.997 C 1136.54 975.217 1189.72 1020.84 1198.96 1075.12 C 1204.88 1109.87 1192.68 1147.41 1156.91 1161.03 C 1143.8 1165.98 1124.46 1165.47 1111.87 1158.75 C 1101.43 1153.23 1093.64 1143.76 1090.24 1132.45 C 1077.57 1089.1 1128.32 1076.29 1130.28 1099.65 C 1126.83 1109.61 1109.3 1107.28 1109.75 1117.88 C 1110.9 1129.26 1122.17 1132.63 1131.75 1131.47 C 1150.87 1130.18 1161.13 1109.04 1156.92 1091.56 C 1141.06 1025.66 1065.53 994.006 1005.58 980.571 C 985.845 976.149 967.049 970.024 951.079 958.768 L 946.343 964.04 C 958.192 990.589 973.591 1036.94 984.187 1065.72 L 1006.97 1127.67 C 1018.71 1159.79 1032.38 1192.39 1025.73 1227.22 C 1017.89 1268.33 976.309 1295.04 935.715 1285.77 C 920.382 1282.26 906.411 1273.18 898.369 1259.56 C 892.369 1249.6 889.623 1238.1 892.662 1226.59 C 894.451 1219.96 901.569 1205.05 910.917 1209.4 C 921.722 1214.43 917.686 1225.47 921.912 1234.2 C 925.273 1241.15 931.708 1247.74 939.339 1249.8 C 955.644 1254.22 972.962 1240.51 976.714 1225.03 C 978.194 1219.06 977.846 1212.78 975.717 1207.01 C 972.387 1198.17 964.815 1185.04 960.115 1176.42 L 934.919 1130.26 C 909.178 1083.02 883.25 1032.99 855.803 986.896 C 836.67 1057.95 760.011 1104.74 753.905 1182.69 C 752.683 1200.44 756.128 1219.29 767.955 1233.26 C 776.641 1245.17 802.77 1253.47 813.888 1241.3 C 838.657 1214.2 805.329 1220.14 792.881 1209.21 C 788.853 1205.67 795.675 1196.79 799.648 1195.22 C 805.728 1192.81 818.87 1195.39 825.13 1197.68 C 848.06 1206.23 859.327 1232.88 847.522 1255.21 C 831.314 1285.87 787.426 1292.8 758.209 1277.17 C 734.335 1264.4 717.275 1244.52 708.986 1218.56 C 682.721 1138.93 743.641 1080.42 780.077 1017.44 C 796.478 988.731 804.766 960.288 819.89 930.748 C 816.826 925.139 812.786 919.374 809.218 914.014 C 801.239 922.177 791.19 930.169 782.244 937.322 C 788.066 960.954 780.026 980.632 772.672 1001.57 C 744.099 1082.93 696.848 1100.14 630.47 1142.56 C 616.209 1152.3 604.098 1162.85 594.714 1177.54 C 582.87 1196.08 580.493 1229.87 601.705 1242.43 C 604.443 1244.05 606.597 1244.47 609.795 1243.46 C 615.759 1236.35 605.173 1234.02 609.299 1224.6 C 613.471 1214.41 626.79 1213.01 636.021 1216.81 C 651.582 1223.23 654.646 1244.03 647.936 1257.74 C 637.389 1281.29 601.804 1290.37 579.87 1277.78 C 545.46 1258.02 535.023 1209.03 544.104 1173.22 C 559.063 1114.22 614.097 1088.17 659.917 1056.11 C 675.843 1044.97 692.563 1035.66 704.434 1019.86 C 712.442 1009.11 721.126 995.644 727.168 983.56 L 727.79 982.304 C 716.265 989.106 705.372 998.541 692.257 1006 C 648.648 1030.82 606.088 1032.04 557.77 1023.21 C 538.736 1020.04 520.794 1013.95 501.33 1013.79 C 486.662 1013.68 475.149 1026.97 475.743 1041.33 C 476.082 1049.53 482.795 1057.06 491.617 1055.26 C 503.271 1053.14 492.799 1043.97 499.031 1036.67 C 505.546 1029.05 518.588 1030.12 525.992 1035.94 C 540.358 1047.22 535.673 1069.73 524.376 1081.41 C 515.155 1090.95 501.603 1094.8 488.583 1094.65 C 474.261 1094.57 460.585 1088.68 450.687 1078.33 C 439.671 1066.8 433.688 1051.36 434.054 1035.41 C 434.486 1018.84 442.502 1003.3 454.569 992.27 C 490.678 959.262 528.674 971.387 572.004 973.108 C 608.929 974.575 649.425 967.141 677.126 941.077 C 699.281 920.231 698.096 888.435 698.439 860.002 z" fill="rgb(146,232,235)" transform="translate(0,0)"></path>
<path d="M 937.511 941.296 C 941.782 947.427 945.714 953.562 951.079 958.768 L 946.343 964.04 C 943.258 956.514 940.314 948.932 937.511 941.296 z" fill="rgb(12,46,70)" transform="translate(0,0)"></path>
<path d="M 952.026 1267.19 C 967.161 1264 979.785 1256.9 988.526 1243.82 C 996.317 1232.16 997.431 1219.34 994.411 1205.92 C 992.884 1199.14 990.463 1192.39 987.486 1186.11 C 971.975 1153.38 836.813 902.843 818.422 890.866 C 815.543 888.991 812.405 888.318 809.04 889.073 C 799.664 891.179 788.575 903.728 781.207 910.126 C 741.41 944.689 694.346 991.441 641.869 1004 C 619.829 1009.27 597.291 1008.72 574.92 1006.18 C 543.876 1002.65 487.483 982.257 467.282 1016.47 C 461.652 1026 459.278 1038.72 462.461 1049.46 C 464.671 1056.92 469.589 1063.56 476.615 1067.09 C 483.781 1070.68 491.951 1070.43 499.364 1067.71 C 513.37 1062.58 508.166 1056.82 515.809 1051.53 L 517.532 1052.38 C 518.714 1055.9 517.275 1060.18 515.661 1063.39 C 509.275 1076.11 487.257 1079.18 475.698 1072.9 C 434.701 1050.92 451.733 1000.02 492.69 990.89 C 507.438 987.603 521.616 988.133 537.11 990.089 C 595.876 997.505 667.535 993.499 704.496 940.046 C 716.28 923.002 717.156 898.167 718.655 878.425 C 719.36 866.584 722.971 849.119 710.725 842.46 C 701.49 837.439 692.239 833.619 682.677 829.412 C 671.908 824.703 661.37 819.482 651.1 813.765 C 581.745 775.506 514.315 712.822 493.156 633.933 C 457.042 499.29 579.772 409.063 694.781 379.075 C 811.962 348.52 911.948 406.073 941.273 524.006 C 955.683 581.958 952.981 641.134 940.627 699.346 C 937.225 715.223 931.142 728.741 927.41 743.41 L 927.847 744.785 C 935.636 768.528 959.796 789.021 981.438 800.076 C 1011.05 815.2 1043.91 815.733 1074.88 805.365 C 1118.46 790.777 1141.95 755.673 1169.01 721.606 C 1186.62 699.447 1214.96 679.142 1243.76 694.208 C 1265.77 705.235 1282.85 726.041 1269.76 750.681 C 1262.51 764.336 1244.13 774.507 1229.25 766.61 C 1227.31 765.526 1225.19 764.071 1224.48 761.974 C 1226.81 762.587 1228.75 763.279 1230.89 764.437 C 1244.75 771.933 1259.32 762.36 1264.79 749.101 C 1268.33 740.433 1268.09 730.677 1264.13 722.193 C 1254.24 701.392 1226.51 693.542 1206.44 704.875 C 1180.73 719.268 1168.5 746.638 1152.25 770.351 C 1095.71 852.886 993.33 827.481 908.876 842.745 C 885.801 846.916 895.988 868.815 899.44 884.468 C 911.473 939.041 934.748 990.235 953.591 1042.6 C 969.345 1085.54 986.559 1127.99 1001.78 1171.23 C 1017.68 1216.39 1007.67 1264.05 953.06 1270.27 L 952.026 1267.19 z" fill="rgb(40,40,64)" transform="translate(0,0)"></path>
<path d="M 816.392 586.373 C 836.945 582.631 856.667 596.175 860.553 616.701 C 864.44 637.227 851.034 657.043 830.536 661.074 C 809.833 665.144 789.776 651.576 785.851 630.845 C 781.926 610.114 795.635 590.153 816.392 586.373 z" fill="rgb(146,232,235)" transform="translate(0,0)"></path>
<path d="M 816.286 607.086 C 818.753 606.99 820.885 606.91 823.31 607.497 C 827.586 608.558 831.222 611.36 833.338 615.223 C 835.557 619.269 835.957 624.066 834.439 628.423 C 832.412 634.392 828.904 636.698 823.578 639.285 C 800.421 639.589 797.04 616.044 816.286 607.086 z" fill="rgb(40,40,64)" transform="translate(0,0)"></path>
<path d="M 679.357 651.613 C 699.905 647.936 719.535 661.639 723.165 682.195 C 726.795 702.751 713.047 722.349 692.483 725.933 C 671.985 729.505 652.463 715.811 648.845 695.321 C 645.226 674.831 658.876 655.278 679.357 651.613 z" fill="rgb(146,232,235)" transform="translate(0,0)"></path>
<path d="M 683.519 672.381 C 692.585 670.647 701.327 676.633 702.989 685.712 C 704.651 694.792 698.596 703.486 689.503 705.076 C 680.512 706.648 671.936 700.675 670.292 691.697 C 668.649 682.719 674.554 674.095 683.519 672.381 z" fill="rgb(40,40,64)" transform="translate(0,0)"></path>
<path d="M 812.257 413.736 C 820.293 414.15 825.978 417.838 832.513 422.023 C 881.301 453.267 906.043 499.086 917.167 555.006 C 919.557 567.021 925.785 607.684 919.036 617.765 C 915.159 617.762 915.17 617.645 911.642 616.56 C 906.074 610.422 908.193 585.203 906.829 574.706 C 902.966 544.979 892.564 510.329 876.803 485.115 C 865.039 466.327 849.311 450.336 830.72 438.261 C 825.142 434.662 810.612 427.388 808.928 422.064 C 809.069 418.574 810.51 416.784 812.257 413.736 z" fill="rgb(146,232,235)" transform="translate(0,0)"></path>
<path d="M 733.005 392.027 C 744.456 391.459 782.729 392.381 785.965 405.885 C 785.219 409.441 784.51 409.785 781.957 412.31 C 761.297 407.765 750.567 408.294 733.028 405.095 C 729.287 401.831 730.432 403.752 729.012 399.414 C 729.557 395.44 730.172 395.172 733.005 392.027 z" fill="rgb(146,232,235)" transform="translate(0,0)"></path>
<path d="M 769.786 946.898 C 772.243 960.71 761.855 983.559 757.591 996.209 C 738.492 1052.87 695.777 1082.04 645.523 1108.89 C 627.011 1118.79 606.894 1133.72 592.383 1148.97 C 577.167 1164.59 566.742 1186.72 567.685 1209 C 568.618 1231.06 583.515 1261.89 609.884 1259.51 C 630.164 1257.69 624.51 1242.64 629.533 1236.21 C 635.049 1241.49 632.339 1245.98 629.338 1252.07 C 615.835 1267.95 597.28 1267.17 581.507 1255.16 C 568.442 1245.22 561.946 1226.04 560.033 1210.32 C 552.246 1146.35 615.33 1109.81 660.988 1079.54 C 681.63 1065.85 703.208 1054.48 718.743 1034.31 C 730.429 1019.13 742.196 997.333 739.68 977.631 L 738.461 976.879 C 735.766 978.419 735.505 978.864 732.513 979.585 C 733.424 977.489 765.195 950.824 769.786 946.898 z" fill="rgb(40,40,64)" transform="translate(0,0)"></path>
<path d="M 915.412 868.536 C 920.167 872.431 926.82 883.419 931.3 888.845 C 940.99 900.583 950.681 908.017 962.694 916.942 C 1007.59 950.298 1058.87 954.827 1105.92 984.382 C 1138.02 1003.99 1171.17 1031.69 1180.05 1070.25 C 1188.13 1105.3 1179.44 1139.51 1139.81 1147.98 L 1133.02 1147.5 C 1146.33 1144.88 1158.22 1141.73 1166.42 1129.74 C 1187.4 1099.09 1171.3 1061.49 1149.97 1036 C 1121.38 1001.84 1079.47 980.527 1037.27 968.202 C 997.989 957.068 967.726 953.238 933.921 928.542 C 926.925 908.657 921.346 888.753 915.412 868.536 z" fill="url(#Gradient1)" transform="translate(0,0)"></path>
<path d="M 995.926 855.593 L 1009.9 854.555 C 1020.85 863.145 1032.7 875.202 1045.82 881.014 C 1109.42 909.185 1173.55 853 1239.09 859.06 C 1263.57 860.541 1286 866.926 1303.24 885.683 C 1317.74 901.463 1328.9 932.513 1309.63 949.496 C 1305.31 953.299 1302.51 955.123 1296.68 954.701 L 1297.3 953.601 C 1303.08 953.075 1306.68 948.335 1310.13 944.044 C 1327.52 910.131 1292.52 877.376 1260.76 871.156 C 1199.72 859.199 1154.38 899.275 1096.12 906.072 C 1047.11 911.79 1007.75 886.315 971.047 857.229 C 979.247 856.567 987.696 856.106 995.926 855.593 z" fill="rgb(40,40,64)" transform="translate(0,0)"></path>
<path d="M 827.607 941.547 C 829.962 943.101 844.893 968.405 844.56 971.544 C 843.346 973.348 838.556 976.562 838.858 975.54 C 836.881 982.232 828.139 1001.37 825.444 1006.58 C 800.862 1052.48 767.351 1083.53 746.772 1132.63 C 729.49 1173.88 727.198 1238.8 775.653 1260.55 C 789.343 1266.69 804.053 1266.33 818.141 1260.26 L 818.743 1260.64 C 788.931 1280.75 749.74 1258.72 734.412 1230.42 C 693.704 1155.26 760.809 1083.65 796.178 1021.99 C 811.197 995.8 820.13 970.346 827.607 941.547 z" fill="rgb(40,40,64)" transform="translate(0,0)"></path>
<path d="M 953.06 1270.27 C 939.337 1269.96 924.682 1267.74 916.236 1255.54 L 916.495 1254.3 C 930.628 1265.58 932.195 1266.96 952.026 1267.19 L 953.06 1270.27 z" fill="rgb(1,7,9)" transform="translate(0,0)"></path>
<path d="M 834.361 1242.77 L 834.581 1245.01 C 831.607 1251.58 828.101 1254.39 822.722 1258.95 C 822.907 1255.59 830.732 1248.23 834.361 1242.77 z" fill="rgb(93,168,180)" transform="translate(0,0)"></path>
<path d="M 1246.14 1524.86 C 1287.81 1520.23 1325.39 1550.17 1330.18 1591.83 C 1334.97 1633.48 1305.18 1671.17 1263.54 1676.13 C 1221.68 1681.1 1183.74 1651.11 1178.92 1609.23 C 1174.1 1567.35 1204.24 1529.52 1246.14 1524.86 z" fill="rgb(146,232,235)" transform="translate(0,0)"></path>
<path d="M 1251.52 1551.33 C 1314.88 1548.97 1317.83 1645.28 1258.25 1649.57 C 1211.46 1651.1 1196.95 1602.79 1219.56 1567.94 C 1226.44 1557.33 1239.37 1553.03 1251.52 1551.33 z" fill="rgb(40,40,64)" transform="translate(0,0)"></path>
<path d="M 883.078 1524.6 C 924.869 1520.36 962.19 1550.79 966.446 1592.58 C 970.703 1634.37 940.284 1671.7 898.495 1675.97 C 856.686 1680.25 819.331 1649.81 815.073 1608 C 810.814 1566.19 841.265 1528.84 883.078 1524.6 z" fill="rgb(146,232,235)" transform="translate(0,0)"></path>
<path d="M 883.787 1552.27 C 910.308 1548.52 934.848 1566.98 938.608 1593.5 C 942.367 1620.02 923.924 1644.56 897.406 1648.33 C 870.873 1652.11 846.308 1633.65 842.546 1607.12 C 838.784 1580.58 857.251 1556.02 883.787 1552.27 z" fill="rgb(40,40,64)" transform="translate(0,0)"></path>
<path d="M 1076.07 1526.41 C 1099.98 1525.97 1133.55 1522.76 1153.45 1536.26 C 1184.28 1557.19 1180.93 1613.51 1144.65 1627.17 C 1139.2 1629.21 1135.38 1629.99 1129.8 1631.03 C 1122.22 1632.3 1112.61 1632.23 1104.78 1632.42 L 1104.49 1674.99 L 1075.42 1674.95 C 1074.65 1628.16 1075.42 1573.47 1076.07 1526.41 z" fill="rgb(146,232,235)" transform="translate(0,0)"></path>
<path d="M 1104.76 1552.36 C 1114.2 1552.35 1128.27 1551.42 1135.63 1557.73 C 1148.01 1568.32 1147.61 1587.48 1137.59 1599.41 C 1126.91 1607.03 1117.36 1605.87 1104.65 1605.91 C 1104.52 1588.06 1104.56 1570.21 1104.76 1552.36 z" fill="rgb(40,40,64)" transform="translate(0,0)"></path>
<path d="M 730.996 1527.42 C 761.317 1523.74 795.3 1532.62 801.714 1566.96 C 807.73 1599.17 788.839 1625.61 755.293 1626.27 C 748.595 1626.41 740.12 1625.65 733.741 1626.78 L 732.895 1628.77 L 732.8 1674.93 L 704.114 1675.02 L 704.05 1530.81 C 713.416 1529.34 721.572 1528.37 730.996 1527.42 z" fill="rgb(146,232,235)" transform="translate(0,0)"></path>
<path d="M 732.584 1552.09 C 743.709 1552.03 755.527 1551.47 765.088 1558.09 C 779.11 1567.79 777.817 1583.4 768.179 1595.76 C 756.627 1604.33 746.622 1603.02 732.875 1602.97 L 732.584 1552.09 z" fill="rgb(40,40,64)" transform="translate(0,0)"></path>
<path d="M 982.022 1526.18 C 991.06 1526.03 1000.56 1526.22 1009.64 1526.27 C 1010.98 1564.2 1009.84 1609.99 1009.94 1648.65 L 1059.99 1649.01 C 1060.05 1656.5 1060.46 1667.52 1059.59 1674.67 L 981.553 1674.95 C 980.68 1655.62 981.441 1632.06 981.636 1612.53 L 982.022 1526.18 z" fill="rgb(146,232,235)" transform="translate(0,0)"></path>
<path d="M 287.964 1414.47 C 307.807 1414.34 418.257 1411.98 430.203 1416.32 C 437.309 1423.83 429.588 1430.92 420.25 1431.04 C 402.994 1431.04 281.103 1433.03 276.563 1429.49 C 274.752 1428.08 273.8 1426.23 273.427 1423.98 C 272.901 1420.83 273.808 1418.6 275.545 1416.05 C 278.995 1414.09 283.826 1414.54 287.964 1414.47 z" fill="rgb(141,79,182)" transform="translate(0,0)"></path>
<path d="M 703.365 1414.14 C 744.903 1412.67 787.786 1414.77 829.427 1413.92 C 834.228 1413.82 841.157 1413.84 844.566 1417.43 C 846.722 1423.27 844.529 1427.6 839.885 1431.13 C 795.91 1432.62 749.709 1430.87 705.593 1430.84 C 702.956 1430.83 700.549 1429.23 698.691 1427.5 C 695.525 1421.22 698.324 1417.62 703.365 1414.14 z" fill="rgb(146,232,235)" transform="translate(0,0)"></path>
<path d="M 499.911 1414.52 C 518.399 1414.04 621.134 1411.99 632.393 1415.75 C 639.517 1421.73 636.718 1429.77 627.25 1431.09 L 532.878 1430.9 C 522.065 1430.91 496.351 1434.67 490.459 1425.57 C 489.602 1421.62 490.282 1420.69 491.614 1416.66 C 494.604 1414.11 495.022 1414.94 499.911 1414.52 z" fill="rgb(141,79,182)" transform="translate(0,0)"></path>
<path d="M 1825.36 490.777 C 1827.54 493.09 1826.48 540.075 1826.46 547.099 L 1826.34 647.553 L 1826.7 947.709 C 1814.77 934.236 1795.32 916.153 1782.4 903.595 C 1760.74 882.255 1738.89 861.101 1716.86 840.137 C 1683.18 806.376 1648.34 774.086 1614.19 740.818 C 1631.44 720.252 1630.37 698.069 1616.79 676.266 C 1687.09 615.126 1755.62 552.305 1825.36 490.777 z" fill="rgb(40,40,64)" transform="translate(0,0)"></path>
<path d="M 1435.82 680.641 C 1462.83 687.858 1495.06 697.089 1521.94 703.049 C 1521.83 714.443 1522.64 722.748 1528.54 733.049 C 1535.43 745.12 1546.88 753.919 1560.32 757.469 C 1577.79 761.967 1591.21 757.705 1605.84 748.842 C 1627.62 768.717 1649.15 790.757 1670.28 811.397 L 1776.48 914.748 C 1794.3 932.163 1810.85 950.347 1829.48 966.992 L 1801.75 961.717 C 1724.59 947.47 1643.35 932.29 1566.13 919.677 C 1566.21 910.561 1566.4 904.872 1563.6 895.932 C 1559.43 882.748 1550.11 871.808 1537.75 865.591 C 1520.76 857.199 1503.96 860.069 1487.04 865.982 C 1470.33 842.188 1453.12 810.643 1437.58 785.554 C 1428.86 771.479 1405.35 734.178 1400.04 720.088 C 1420.46 709.482 1427.47 702.301 1435.82 680.641 z" fill="rgb(40,40,64)" transform="translate(0,0)"></path>
<path d="M 1400.52 271.899 C 1444.94 270.779 1493.97 271.742 1538.65 271.791 C 1574.37 304.509 1611 345.82 1647.37 376.896 C 1639.05 390.551 1638.58 397.885 1639.02 413.216 L 1614.6 420.357 C 1573.75 432.076 1532.74 443.244 1491.59 453.856 C 1479.07 429.931 1464.84 419.334 1437.23 418.582 C 1424.24 370.885 1412.46 320.024 1400.52 271.899 z" fill="rgb(40,40,64)" transform="translate(0,0)"></path>
<path d="M 1556.49 272.042 C 1586.5 271.058 1621.05 271.833 1651.37 271.769 C 1709.79 271.383 1768.21 271.45 1826.63 271.97 C 1827.42 317.438 1826.62 365.235 1826.41 410.82 L 1815.25 410.759 L 1745.36 409.951 C 1745.34 360.624 1692.18 336.184 1655.26 367.779 C 1645.19 357.103 1632 345.617 1621.22 335.258 L 1556.49 272.042 z" fill="rgb(40,40,64)" transform="translate(0,0)"></path>
<path d="M 1818.95 1096.42 C 1822.23 1096.03 1823.17 1095.7 1826.38 1096.67 C 1827.45 1104.21 1826.89 1131.28 1826.89 1140.15 L 1826.91 1228.76 C 1804.05 1211.52 1776.3 1193.29 1752.43 1176.88 C 1731.85 1162.58 1711.06 1148.91 1690.69 1134.22 C 1695.81 1123.35 1696.69 1120.38 1697.58 1108.42 C 1735.02 1106.66 1780.43 1099.65 1818.95 1096.42 z" fill="rgb(40,40,64)" transform="translate(0,0)"></path>
<path d="M 1367.63 618.818 C 1392.71 613.871 1417.02 630.314 1421.77 655.437 C 1426.51 680.559 1409.87 704.735 1384.71 709.277 C 1359.84 713.768 1335.99 697.36 1331.3 672.521 C 1326.61 647.683 1342.83 623.708 1367.63 618.818 z" fill="rgb(40,40,64)" transform="translate(0,0)"></path>
<path d="M 223.863 272.434 L 325.495 272.042 L 274.105 323.018 C 257.402 339.842 239.937 356.569 223.713 373.758 C 223.933 340.009 223.328 306.193 223.863 272.434 z" fill="rgb(40,40,64)" transform="translate(0,0)"></path>
<path d="M 1500.65 1249.3 C 1514.7 1247.46 1528.65 1253.33 1537.14 1264.67 C 1545.63 1276.01 1547.36 1291.04 1541.64 1304.01 C 1535.93 1316.97 1523.67 1325.85 1509.57 1327.23 C 1488.26 1329.32 1469.21 1313.93 1466.77 1292.65 C 1464.34 1271.38 1479.42 1252.08 1500.65 1249.3 z" fill="rgb(40,40,64)" transform="translate(0,0)"></path>
<path d="M 1637.57 1069.01 C 1658.98 1065.96 1678.8 1080.85 1681.85 1102.26 C 1684.89 1123.66 1670 1143.48 1648.59 1146.52 C 1627.19 1149.55 1607.39 1134.67 1604.34 1113.27 C 1601.3 1091.88 1616.18 1072.07 1637.57 1069.01 z" fill="rgb(40,40,64)" transform="translate(0,0)"></path>
<path d="M 1511.65 874.047 C 1532.98 873.293 1550.88 889.949 1551.67 911.27 C 1552.46 932.592 1535.84 950.526 1514.52 951.351 C 1493.15 952.179 1475.16 935.506 1474.37 914.133 C 1473.58 892.761 1490.28 874.803 1511.65 874.047 z" fill="rgb(40,40,64)" transform="translate(0,0)"></path>
<path d="M 1689.09 368.389 C 1709.96 367.05 1727.99 382.794 1729.49 403.647 C 1730.98 424.5 1715.37 442.653 1694.53 444.301 C 1673.47 445.966 1655.08 430.156 1653.57 409.083 C 1652.07 388.01 1668.01 369.742 1689.09 368.389 z" fill="rgb(40,40,64)" transform="translate(0,0)"></path>
<path d="M 1434.76 434.123 C 1455.34 430.807 1474.74 444.697 1478.23 465.244 C 1481.73 485.791 1468.01 505.315 1447.49 508.989 C 1426.72 512.708 1406.9 498.78 1403.36 477.978 C 1399.83 457.176 1413.93 437.479 1434.76 434.123 z" fill="rgb(40,40,64)" transform="translate(0,0)"></path>
<path d="M 1568.83 669.964 C 1589.29 666.94 1608.37 680.961 1611.6 701.392 C 1614.82 721.824 1600.99 741.041 1580.59 744.468 C 1559.91 747.943 1540.36 733.874 1537.09 713.156 C 1533.82 692.437 1548.08 673.031 1568.83 669.964 z" fill="rgb(40,40,64)" transform="translate(0,0)"></path>
<path d="M 175.787 191.219 C 193.914 190.282 218.798 191.061 237.586 191.093 L 356.94 191.315 L 726.124 192.04 L 1809.78 191.063 C 1820.36 191.071 1869.56 190.47 1876.2 192.38 C 1882.74 194.247 1888.65 197.85 1893.3 202.807 C 1898.97 208.74 1902.67 217.308 1902.84 225.453 C 1903.28 247.084 1903.05 268.966 1903.05 290.603 L 1903.09 414.88 L 1902.86 835.019 L 1903.03 1489.24 L 1903.14 1714.43 C 1903.14 1748.25 1903.19 1782.06 1903.21 1815.92 C 1903.72 1838.37 1888.82 1854.97 1866.13 1855.99 C 1854.5 1856.51 1842.16 1856.03 1830.34 1856.03 L 1758.54 1856.02 L 1530.53 1856.02 L 1309.5 1856.02 L 1241.41 1855.88 C 1231.51 1855.93 1205.98 1859.22 1199.44 1851.67 C 1197.77 1843.54 1204.24 1840.13 1211.36 1840.14 C 1227.01 1840.17 1242.59 1840.41 1258.26 1840.33 L 1384.38 1840.26 L 1761.42 1840.11 L 1831.85 1840.27 C 1844.6 1840.36 1860.24 1840.99 1872.86 1839.46 C 1879.3 1838.68 1884.68 1831.09 1887.9 1825.96 C 1888.98 1800.69 1888.25 1770.95 1888.27 1745.16 L 1888.06 1582.2 L 1887.87 1096.48 L 1887.24 603.754 L 1887.92 342.64 C 1887.92 303.814 1889.07 259.692 1887.95 221.221 C 1883.12 213.415 1881.57 211.747 1873.66 207.136 C 1855.6 206.21 1832.08 206.959 1813.5 206.967 L 1699.5 206.984 L 756.396 207.539 L 368.193 206.988 L 241.673 207.009 C 219.986 207.015 198.208 206.947 176.519 207.125 C 171.017 207.17 168.436 208.778 164.554 212.888 C 159.422 218.324 160.132 224.783 160.056 231.932 C 158.343 567.252 158.315 902.579 159.972 1237.9 L 160.044 1628.24 L 160.052 1756.73 C 160.049 1776.97 159.719 1797.8 160.014 1818.01 C 160.398 1844.31 180.915 1840.86 200.642 1840.81 L 751.767 1840.88 L 932.552 1840.75 C 957.21 1840.76 982.01 1840.36 1006.68 1840.45 C 1010.94 1840.46 1019.3 1841.72 1022.5 1845.16 C 1024.6 1847.43 1024.08 1848.41 1023.83 1850.85 C 1019.71 1856.78 1015.64 1856.13 1008.9 1856.15 C 990.332 1856.23 971.651 1856.05 953.09 1856 L 810.664 1856.01 L 391.992 1856 L 252.984 1856 C 231.231 1856.01 209.317 1856.66 187.584 1856.12 C 179.067 1855.9 170.763 1854.81 163.107 1850.76 C 155.045 1846.5 149.218 1839.63 146.634 1830.86 C 142.708 1817.53 145.004 1763.85 144.948 1745.28 L 144.724 1523.07 L 144.978 480.971 L 144.926 316.516 C 144.896 287.559 144.755 258.651 145.103 229.697 C 145.36 208.219 154.597 196.426 175.787 191.219 z" fill="rgb(141,79,182)" transform="translate(0,0)"></path>
<path d="M 1057.78 1824.32 C 1069.82 1822.92 1080.7 1831.59 1082.01 1843.64 C 1083.32 1855.69 1074.57 1866.5 1062.52 1867.72 C 1050.59 1868.93 1039.91 1860.29 1038.61 1848.37 C 1037.31 1836.45 1045.87 1825.71 1057.78 1824.32 z" fill="rgb(141,79,182)" transform="translate(0,0)"></path>
<path d="M 1162.66 1824.49 C 1168.87 1823.79 1175.09 1825.8 1179.71 1830.02 C 1184.33 1834.24 1186.9 1840.24 1186.77 1846.5 C 1186.54 1856.96 1178.87 1865.76 1168.54 1867.43 C 1160.78 1868.68 1152.94 1865.63 1148.07 1859.45 C 1143.2 1853.27 1142.06 1844.94 1145.09 1837.68 C 1148.12 1830.42 1154.84 1825.37 1162.66 1824.49 z" fill="rgb(141,79,182)" transform="translate(0,0)"></path>
<path d="M 1112.95 1834.56 C 1117.19 1834.36 1121.2 1836.47 1123.44 1840.07 C 1125.67 1843.68 1125.78 1848.21 1123.72 1851.92 C 1121.65 1855.62 1117.74 1857.92 1113.5 1857.92 C 1107.16 1857.91 1101.98 1852.85 1101.83 1846.51 C 1101.68 1840.17 1106.62 1834.87 1112.95 1834.56 z" fill="rgb(146,232,235)" transform="translate(0,0)"></path>
<metadata><recraft-signature>{"signed_by": "recraft", "signature_b64": "5WkvEOXKt2s/mWsum+yyN+AGAalQgBWoxNkEkvV7NEyZ2Szqr/wXHOt32jM28ZaRUNZ3G7YbTFBEjgrSMYwqCA==", "signing_algo": "Ed25519", "generation_timestamp": 1770819298, "identifier": "c1f0dcaf-9874-47e9-9c97-339175a87003"}</recraft-signature></metadata></svg>