<svg xmlns="http://www.w3.org/2000/svg" height="1024" preserveAspectRatio="none" style="display: block;" version="1.1" viewBox="0 0 2048 2048" width="1024">
<defs>
	<linearGradient gradientUnits="userSpaceOnUse" id="Gradient1" x1="1040.22" x2="1056.49" y1="1514.74" y2="1519.58">
		<stop class="stop0" offset="0" stop-color="rgb(239,135,131)" stop-opacity="1"></stop>
		<stop class="stop1" offset="1" stop-color="rgb(221,122,145)" stop-opacity="1"></stop>
	</linearGradient>
	<linearGradient gradientUnits="userSpaceOnUse" id="Gradient2" x1="1499.67" x2="1524.19" y1="444.635" y2="473.809">
		<stop class="stop0" offset="0" stop-color="rgb(25,6,40)" stop-opacity="1"></stop>
		<stop class="stop1" offset="1" stop-color="rgb(11,28,78)" stop-opacity="1"></stop>
	</linearGradient>
</defs>
<path d="M 0 0 L 2048 0 L 2048 2048 L 0 2048 L 0 0 z" fill="rgb(255,255,255)" transform="translate(0,0)"></path>
<path d="M 1347.39 86.4227 C 1487.11 78.8713 1643.39 147.852 1726.88 262.494 C 1733.55 271.65 1739.31 289.239 1742.78 300.096 C 1732.66 315.954 1718.96 336.086 1713.18 353.535 C 1708.15 368.722 1706.75 391.568 1703.8 408.264 C 1698.73 436.918 1691.34 465.114 1681.71 492.573 C 1633.46 631.716 1504.02 735.451 1351.13 705.864 C 1337.56 703.239 1324.25 698.338 1311.24 693.753 C 1309.71 707.617 1308.85 724.072 1299.48 735.033 C 1277.65 760.588 1241.11 746.94 1217.54 733.248 C 1218.58 739.279 1219.75 745.246 1221.34 751.159 C 1227.29 773.226 1238.18 793.499 1254.22 809.862 C 1308.64 865.367 1453.99 912.726 1527.48 948.39 C 1555.43 961.679 1582.53 976.692 1608.62 993.343 C 1624.11 1003.26 1641 1016.08 1656.44 1025.05 C 1676.27 1025.78 1712.31 1018.57 1731.8 1012.28 C 1775.4 998.186 1812.65 969.919 1833.89 928.775 C 1848.91 899.685 1853.82 870.882 1844.06 839.049 C 1837.47 819.002 1823.55 797.544 1803.61 788.317 C 1744.51 760.966 1678.75 808.791 1622.09 825.071 C 1586.6 835.271 1551.94 844.913 1516.79 827.498 C 1501.06 819.702 1488.62 804.554 1483.42 788.025 C 1479.02 772.987 1479.96 762.111 1487.21 748.592 C 1492.2 765.741 1507.92 783.964 1525.1 789.908 C 1558.83 801.375 1605.75 779.37 1633.99 761.675 C 1664.66 742.454 1689.03 722.398 1723.16 707.827 C 1758.39 692.416 1798.34 691.824 1834.01 706.184 C 1953.76 755.299 1976.52 928.646 1899.25 1023.26 C 1859.35 1072.12 1816.63 1090.65 1760.2 1113.24 C 1779.88 1135.57 1802.76 1156.92 1818.55 1181.82 C 1825.14 1192.12 1830.54 1203.79 1836.69 1214.27 C 1885.77 1297.89 1903.36 1394.54 1882.68 1489.9 C 1867.09 1561.8 1820.16 1639.09 1755.93 1678.98 C 1713.11 1705.45 1662.81 1717.2 1612.69 1712.44 C 1596.62 1710.81 1580.86 1707.01 1565.16 1703.33 C 1555.71 1721.27 1544.95 1738.5 1532.99 1754.88 C 1452.55 1866.31 1322.67 1938.18 1188.17 1959.68 C 1104.84 1972 1021.65 1960.47 951.753 1911.81 C 843.006 1836.1 856.914 1650.88 1000.91 1629.64 C 999.484 1619.69 996.128 1582.53 1000.69 1575.16 C 1000.85 1574.89 1001.04 1574.63 1001.22 1574.37 C 999.163 1570.08 979.763 1570.2 976.908 1558.48 C 980.675 1544.96 1000.36 1545 1011.25 1545.12 C 1024.48 1504.56 1051.55 1476.14 1092.13 1462.5 C 1034.4 1439.52 981.681 1405.53 936.92 1362.42 C 834.574 1262.81 801.894 1132.3 800.058 993.545 C 786.025 1023.39 772.25 1050.4 761.687 1081.44 C 726.432 1185.02 753.9 1291.96 770.045 1395.71 C 780.722 1464.31 769.977 1548.89 726.17 1604.7 C 693.192 1646.71 647.548 1675.83 593.845 1682.92 C 519.839 1696.82 435.466 1661.02 385.146 1606.12 C 355.899 1575.72 339.333 1537.81 299.959 1518.34 C 270.643 1503.85 225.436 1505.25 209.674 1539.35 C 208.496 1541.9 207.871 1543.39 205.323 1544.32 C 198.94 1537.05 198.09 1527.53 200.082 1518.33 C 207.15 1485.71 237.079 1470.42 267.873 1467.32 C 328.368 1461.24 365.081 1511.47 406.264 1546.4 C 437.961 1573.43 472.956 1596.26 514.636 1604.15 C 546.237 1610.13 582.329 1608.15 609.079 1588.28 C 699.73 1520.94 669.59 1395.63 653.687 1301.51 C 648.947 1274.52 645.59 1247.31 643.629 1219.98 C 640.747 1179.82 640.454 1138.74 644.953 1098.66 C 647.676 1074.4 653.094 1049.28 657.62 1025.22 C 641.39 1052.28 626.896 1080.36 609.954 1107.93 C 584.651 1148.4 555.379 1186.25 522.574 1220.91 C 511.401 1232.51 492.783 1251.98 480.453 1261.98 C 430.493 1302.2 368.371 1337.51 302.915 1338.66 C 202.069 1340.31 107.408 1260.65 106.863 1156.48 C 106.449 1077.47 154.119 989.088 242.503 988.681 C 267.665 988.565 289.139 997.01 307.189 1015.38 C 322.574 1030.81 331.051 1051.81 330.686 1073.59 C 330.603 1077.84 330.524 1085.9 327.464 1088.82 C 324.497 1085.94 321.801 1078.88 319.574 1074.88 C 282.605 1008.57 208.27 1033.59 183.787 1095.42 C 171.452 1127.29 172.354 1162.76 186.293 1193.96 C 197.034 1217.97 216.888 1236.71 241.472 1246.05 C 278.028 1260.11 313.612 1252.23 348.694 1237.71 C 399.759 1216.57 424.062 1179.65 453.188 1135.17 C 477.425 1098.25 500.1 1060.33 521.153 1021.5 C 527.303 1010.11 536.943 993.133 541.302 981.466 L 541.835 980.016 C 421.144 1014.69 288.507 988.269 217.159 878.403 C 181.736 823.856 164.063 754.735 178.178 690.544 C 204.851 569.244 325.708 456.639 455.985 496.847 C 478.532 503.781 503.389 510.057 525.66 515.846 C 576.917 529.169 627.489 504.721 589.913 448.497 C 570.138 419.392 530.893 416.084 497.89 411.523 C 501.74 410.159 505.632 408.917 509.56 407.801 C 545.961 397.839 583.23 400.879 615.585 420.812 C 654.969 445.075 669.903 498.897 645.532 538.748 C 613.863 590.532 551.467 585.494 499.45 575.969 C 462.571 569.216 421.899 554.802 384.302 563.519 C 353.318 571.434 331.037 589.43 314.423 616.621 C 292.793 652.021 288.906 703.211 298.192 742.813 C 306.719 779.182 334.859 814.096 367.338 832.795 C 417.274 861.546 477.934 864.451 533.281 849.606 C 631.48 823.267 714.453 748.646 776.682 670.907 C 795.074 647.931 810.643 621.969 825.235 596.689 C 790.037 519.071 854.145 542.513 868.155 495.09 C 872.977 478.768 876.986 452.954 871.21 436.647 C 868.744 429.682 863.809 423.473 860.273 417.004 C 853.557 404.714 851.213 391.975 855.311 378.318 C 860.786 360.073 874.759 340.267 891.943 331.404 C 908.737 322.742 928.996 328.872 945.807 334.167 C 956.755 320.103 968.182 306.418 980.068 293.137 C 1014.56 255.011 1052.74 220.39 1094.05 189.778 C 1170.45 133.007 1250.61 91.5544 1347.39 86.4227 z" fill="rgb(15,33,78)" transform="translate(0,0)"></path>
<path d="M 911.057 475.514 C 908.572 497.145 902.07 510.798 891.269 529.861 C 889.324 533.292 871.382 560.414 871.402 560.774 C 897.202 540.735 923.885 487.079 926.618 454.057 C 927.893 438.639 928.184 410.841 933.091 397.654 C 956.434 334.921 1036.89 259.061 1087.82 218.857 C 1182.12 143.76 1291.15 94.1149 1413.99 110.02 C 1498.89 121.012 1580.34 153.444 1646.87 207.988 C 1667.25 224.695 1712.26 271.73 1723.26 294.918 C 1715.69 304.358 1710.11 313.832 1703.75 324.089 L 1696.88 316.885 C 1697.72 336.841 1690.51 363.081 1687.21 383.322 C 1674.38 463.72 1650.53 543.138 1593.64 603.925 C 1545.64 655.21 1477.11 688.76 1406.39 690.941 C 1333.33 693.194 1272.46 669.281 1222.97 615.429 C 1222.77 648.618 1226.33 681.774 1249.91 707.234 C 1255.06 712.788 1260.7 715.8 1268.39 716.267 C 1279.87 716.963 1285.63 705.774 1291.99 697.27 L 1292.77 697.648 C 1294.48 732.572 1264.51 737.266 1239.36 724.195 C 1219.44 713.842 1212.7 707.931 1199.56 690.003 C 1196.49 739.308 1201.52 781.968 1237.66 819.534 C 1306.69 888.201 1409.6 915.514 1496.26 955.385 C 1552.89 981.44 1598.74 1008.9 1649.16 1045.24 C 1687.77 1073.06 1716.34 1095.88 1748.22 1131.77 C 1770.53 1156.88 1796.22 1180.09 1813.52 1209.74 C 1895.28 1345.12 1896.66 1531.54 1771.6 1642.25 C 1718.9 1688.91 1641.67 1703.11 1574.36 1685.26 L 1577.6 1673.18 C 1614.52 1685.64 1676.72 1682.7 1711.12 1664.26 C 1761.53 1636.82 1805.87 1580.47 1822.95 1525.99 C 1881.8 1338.25 1744.58 1165.33 1593.43 1071.22 C 1523.78 1027.85 1447.73 989.531 1372.68 956.328 C 1298.06 923.317 1218.23 890.666 1161.21 829.962 C 1138.25 805.514 1135.42 789.741 1122.97 762.156 C 1107.4 846.42 1129.39 953.835 1178.75 1023.98 C 1199.7 1053.75 1225.67 1084.05 1253.63 1107.35 C 1317.59 1160.67 1383.83 1206.89 1444.91 1263.86 C 1559.76 1370.98 1616.52 1529.3 1552.89 1679.27 C 1520.91 1753.83 1461.89 1813.21 1394.41 1858.05 C 1318.82 1908.27 1224.35 1940.31 1132.53 1942.94 C 1022.19 1946.1 881.627 1879.3 902.468 1748.39 C 914.093 1675.38 979.598 1636.82 1050.17 1651.38 C 1115.09 1663.25 1172.13 1723.04 1237.73 1681.87 C 1245.88 1676.88 1253.98 1668.19 1260.76 1661.52 L 1260.77 1661.54 L 1261.58 1662.19 L 1259.92 1662.25 L 1259.34 1662.76 L 1260.62 1663.88 C 1252.16 1677.25 1248.37 1682.93 1235.36 1692.47 C 1149.68 1755.24 1086.04 1632.73 993.921 1673.95 C 975.88 1682.06 960.587 1695.24 949.904 1711.89 C 908.404 1775.54 948.083 1852.71 1006.65 1888.04 C 1168.32 1985.55 1404.24 1868.06 1495.72 1722.47 C 1539.66 1652.54 1548.88 1568.6 1529.07 1489.81 C 1496.18 1345.44 1380.02 1261.29 1266.3 1180.77 C 1241.31 1162.98 1216.51 1144.93 1191.9 1126.61 C 1125.68 1077.69 1062.36 1027.81 1030.18 949.477 C 1024.81 936.396 1010.57 902.74 1011.34 890.477 C 1013.83 850.646 1032.44 790.538 1049.41 755.606 L 1047.84 754.946 C 1011.74 818.135 999.589 875.615 988.849 947.129 C 968.23 1084.43 998.983 1227.17 1100.22 1327.08 C 1177.79 1403.63 1335.69 1445.12 1332.01 1575.97 C 1330.8 1607.49 1323.28 1638.45 1307.73 1665.94 C 1305.82 1669.28 1303.83 1672.57 1301.78 1675.83 L 1300.81 1673.81 C 1312.87 1647.82 1315.16 1625.01 1311.99 1596.9 C 1299.7 1488.02 1194.83 1448.26 1111.46 1399.21 C 1094.41 1388.95 1077.93 1377.77 1062.09 1365.71 C 978.232 1301.36 925.366 1202.56 900.116 1101.7 C 879.067 1017.63 867.153 866.222 922.323 794.574 L 920.155 792.815 C 900.309 817.006 877.763 842.987 859.424 867.864 C 801.067 947.023 745.972 1035.72 728.811 1134.01 C 722.657 1171.75 724.557 1210.29 727.914 1248.08 C 738.195 1363.79 789.534 1496.56 706.455 1598.46 C 633.935 1687.4 506.864 1684.59 422.859 1614.36 C 366.348 1567.1 350.304 1498.32 266.567 1491.71 C 260.396 1490.38 258.815 1492.55 254.454 1487.27 C 310.05 1475.59 342.068 1514.15 378.647 1548.71 C 398.844 1567.52 419.377 1584.3 443.167 1598.31 C 510.843 1638.16 597.929 1644.87 650.706 1576.96 C 716.534 1492.25 689.221 1387.21 672.598 1291.53 C 668.634 1268.5 665.614 1245.31 663.544 1222.03 C 657.737 1161.17 661.377 1099.78 674.335 1040.04 C 691.176 961.768 722.184 904.715 760.239 835.542 C 785.734 789.2 817.664 746.885 843.081 701.463 C 835.989 708.444 820.843 730.449 814.216 739.429 C 797.949 761.26 782.182 783.229 766.788 805.69 C 753.051 825.734 745.588 843.262 724.233 856.393 C 640.259 908.028 542.863 949.543 442.589 926.243 C 374.8 910.491 313.163 879.792 275.66 818.42 C 244.439 767.673 232.522 714.866 246.184 656.592 C 256.942 610.424 285.781 570.505 326.233 545.789 C 384.869 509.827 432.291 528.082 494.338 542.358 C 527.019 549.878 573.1 557.696 603.208 538.745 C 616.596 530.16 625.964 516.547 629.197 500.975 C 633.469 480.588 627.585 464.145 616.457 447.309 L 618.09 445.279 C 632.503 461.25 639.115 477.608 638.409 499.192 C 636.829 547.477 585.1 565.751 543.783 562.627 C 467.281 556.841 393.9 512.733 325.755 572.792 C 256.066 634.212 255.701 747.95 316.575 815.819 C 350.506 853.411 402.13 875.013 452.297 877.311 C 556.635 882.933 649.645 827.688 723.514 758.75 C 765.466 719.598 811.65 662.933 839.021 612.552 C 850.428 623.166 859.528 631.828 872.28 640.917 C 914.65 670.629 965.506 685.816 1017.23 684.204 C 1070.11 682.15 1118.58 663.759 1154.64 624.408 L 1159.17 619.426 C 1173.53 634.441 1180.35 644.613 1188.37 663.758 C 1186.51 642.891 1179.44 618.932 1162.89 604.874 C 1143.86 588.714 1116.78 593.635 1094.34 597.398 C 1095.37 599.773 1094.57 598.702 1097.82 599.987 C 1107.34 600.093 1139.65 602.399 1143.69 608.108 C 1153.91 622.576 1094.31 651.608 1086.12 654.8 C 1034.37 675.282 973.211 672.432 922.394 650.34 C 889.736 636.143 851.612 612.104 836.905 578.019 C 830.184 562.445 830.067 553.325 845.761 545.077 C 873.907 530.284 882.871 508.265 886.821 478.026 C 889.16 484.255 890.266 488.37 896.202 491.764 C 903.809 492.295 905.976 487.302 908.609 481.176 C 909.438 479.294 910.254 477.407 911.057 475.514 z" fill="rgb(232,112,124)" transform="translate(0,0)"></path>
<path d="M 920.155 792.815 C 925.141 786.492 929.33 781.233 934.772 775.329 C 931.898 781.613 926.445 788.816 922.323 794.574 L 920.155 792.815 z" fill="rgb(18,6,16)" transform="translate(0,0)"></path>
<path d="M 1097.82 599.987 C 1092.64 600.13 1091.28 600.272 1086.29 599.329 C 1088.79 597.515 1090.91 597.805 1094.34 597.398 C 1095.37 599.773 1094.57 598.702 1097.82 599.987 z" fill="rgb(125,57,73)" transform="translate(0,0)"></path>
<path d="M 1047.84 754.946 C 1049.51 752.075 1050.68 748.994 1053.21 747.507 C 1052.59 750.983 1051.25 752.62 1049.41 755.606 L 1047.84 754.946 z" fill="rgb(125,57,73)" transform="translate(0,0)"></path>
<path d="M 1149.56 322.421 C 1213.85 317.073 1247.73 367.27 1242.6 427.145 C 1236.33 394.697 1224.68 360.7 1192.51 346.099 C 1151.84 328.034 1104.08 344.035 1071.89 371.725 C 1039.33 399.739 1044.63 421.464 1084.05 437.799 C 1089.83 431.274 1095.07 425.44 1102.24 420.376 C 1127.42 402.609 1160.98 398.329 1180.42 427.108 C 1197.27 458.045 1189.41 498.935 1170.01 526.897 C 1146.29 561.106 1093.5 587.174 1066.04 540.8 C 1063.08 535.796 1060.2 525.722 1058.08 519.897 C 1057.09 529.446 1056.26 538.93 1054.45 548.36 C 1042.63 515.676 1058.18 476.335 1075.75 448.77 C 1034.83 434.851 1022.45 404.574 1052.98 371.325 C 1080.57 341.279 1108.53 325.237 1149.56 322.421 z" fill="rgb(15,33,78)" transform="translate(0,0)"></path>
<path d="M 1141 420.421 C 1205.7 422.87 1180 541.39 1106.93 558.201 C 1037.05 559.259 1068.68 426.939 1141 420.421 z" fill="rgb(255,255,255)" transform="translate(0,0)"></path>
<path d="M 1131 442.135 C 1186.87 434.337 1165.04 539.211 1109.01 542.108 C 1081.03 534.371 1090.45 493.831 1099.84 474.86 C 1105.42 479.326 1109.4 481.337 1116.6 478.955 C 1121.65 477.241 1125.75 473.458 1127.85 468.55 C 1132.83 456.933 1125.6 454.257 1117.33 450.716 C 1119.65 446.89 1126.73 444.069 1131 442.135 z" fill="rgb(15,33,78)" transform="translate(0,0)"></path>
<path d="M 1627.5 340.995 C 1601.21 415.494 1535.97 479.129 1465.33 513.047 C 1437.55 526.386 1413.7 534.262 1384.42 543.33 L 1383.76 541.783 C 1489.9 502.745 1570.06 438.614 1627.5 340.995 z" fill="url(#Gradient2)" transform="translate(0,0)"></path>
<path d="M 1384.42 543.33 C 1379.68 544.996 1377.45 546.056 1372.39 546.393 C 1375.14 544.062 1380.04 542.99 1383.76 541.783 L 1384.42 543.33 z" fill="rgb(125,57,73)" transform="translate(0,0)"></path>
<path d="M 941.197 766.493 L 942.439 766.89 L 942.626 768.136 L 938.775 772.343 L 936.98 772.71 C 937.398 769.944 938.997 769.039 941.197 766.493 z" fill="rgb(180,96,117)" transform="translate(0,0)"></path>
<path d="M 1207.45 1028.94 C 1221.37 1031.03 1250.19 1038.92 1264.89 1043.36 C 1396.46 1083.05 1541.62 1146.59 1647.6 1234.74 C 1707.43 1284.72 1748.02 1348.12 1752 1428.01 C 1755.15 1491.3 1742.65 1544.08 1700.97 1592.39 C 1691.53 1602.37 1680.78 1611.03 1669.03 1618.13 C 1641.71 1634.8 1620.78 1641.89 1589.36 1634.38 C 1590.84 1626.63 1592.2 1618.85 1593.43 1611.05 C 1616.14 1467.38 1559.89 1351.77 1459.88 1253.03 C 1430.75 1224.45 1400.06 1197.5 1367.95 1172.3 C 1311.39 1127.6 1251.06 1088.85 1207.45 1028.94 z" fill="rgb(255,255,255)" transform="translate(0,0)"></path>
<path d="M 1355.51 1484.27 C 1355.94 1484.25 1356.36 1484.2 1356.79 1484.2 C 1377.51 1484.03 1444.74 1591.28 1463.61 1610.91 C 1444.09 1681.37 1398.37 1743.58 1344.05 1792.16 C 1282.26 1847.4 1183.75 1904.05 1098.53 1899.36 C 1056.95 1897.08 1007.54 1870.25 980.076 1838.33 C 934.502 1782.77 946.326 1707.53 1020.73 1687.15 C 1032.83 1705.73 1060.22 1727.05 1078.74 1739.39 C 1058.28 1762.81 1077.49 1796.74 1104.78 1803.26 C 1136.08 1810.73 1166 1798.81 1175.49 1766.16 C 1202.06 1763.76 1226.22 1759.36 1250.39 1747.41 C 1323.22 1711.41 1365.85 1624.04 1351.76 1544.36 C 1348.16 1524.03 1341.8 1510.15 1332.7 1492.13 C 1341.5 1487.29 1345.65 1485.9 1355.51 1484.27 z" fill="rgb(255,255,255)" transform="translate(0,0)"></path>
<path d="M 1128.83 808.275 C 1137.75 818.815 1142.08 825.99 1152.59 836.919 C 1218.25 906.251 1305.98 937.812 1390.31 976.818 C 1535.97 1044.18 1690.62 1124.16 1776.04 1266.18 C 1849 1387.49 1846.72 1539.75 1734.8 1636.83 C 1711.93 1656.67 1687.64 1665 1658.4 1669.5 C 1664.45 1654.78 1657.34 1653.66 1645 1653.89 C 1709.54 1622.1 1735.48 1596.48 1760.29 1526.59 C 1769.58 1500.43 1768.88 1485.86 1772.42 1460.01 C 1774.77 1463.92 1777.78 1468.84 1782.67 1469.56 C 1815.53 1474.35 1816.52 1423.4 1788.91 1417.99 C 1782.85 1416.8 1776.88 1421.69 1773.08 1426.01 C 1770.74 1411.01 1768.19 1395.74 1766.45 1380.69 C 1769.81 1384.4 1775.36 1391.47 1780.83 1391.26 C 1810.95 1390.06 1801.39 1340.34 1775.99 1340.93 C 1767.66 1341.12 1762.8 1348.88 1759.3 1355.56 C 1751.83 1336.21 1746.32 1322.57 1735.51 1304.49 C 1741.58 1309.83 1749.66 1316.91 1757.89 1315.92 C 1773.93 1313.99 1772.31 1292.3 1765.8 1282.26 C 1759.7 1272.86 1752.8 1265.78 1741.05 1267.34 C 1726.94 1269.6 1727.3 1280.73 1728.06 1292.29 C 1711.06 1269.45 1695.42 1247.41 1675 1227.37 C 1596.44 1150.24 1497.79 1105.29 1399.09 1060.49 L 1289.66 1009.81 C 1244.84 988.678 1186.68 961.289 1148.76 929.412 C 1138.16 892.913 1129.1 846.408 1128.83 808.275 z" fill="rgb(255,255,255)" transform="translate(0,0)"></path>
<path d="M 1154.75 884.234 C 1172.93 881.998 1192.07 895.219 1202.53 909.536 C 1209.66 919.283 1205.2 927.133 1195.89 932.767 C 1176 934.712 1160.18 925.51 1148.41 910.016 C 1141.03 900.301 1145.42 890.294 1154.75 884.234 z" fill="rgb(15,33,78)" transform="translate(0,0)"></path>
<path d="M 1156.85 891.879 C 1170.32 890.456 1192.42 905.511 1196.76 918.651 C 1197.62 921.274 1195.62 922.97 1194.11 924.753 C 1177.68 927.88 1145.48 910.573 1156.85 891.879 z" fill="rgb(255,255,255)" transform="translate(0,0)"></path>
<path d="M 1233.95 936.197 C 1258.42 932.92 1302.16 963.736 1270 981.821 C 1243.69 984.826 1202.86 953.718 1233.95 936.197 z" fill="rgb(15,33,78)" transform="translate(0,0)"></path>
<path d="M 1236.92 943.981 C 1250.46 943.637 1287.24 960.71 1267.4 973.964 C 1254.82 975.023 1230.72 964.195 1231.3 950.009 C 1232.76 946.305 1233.59 946.113 1236.92 943.981 z" fill="rgb(255,255,255)" transform="translate(0,0)"></path>
<path d="M 1318.9 973.239 C 1346.34 971.24 1387.81 1002.73 1354.03 1017.97 C 1326.8 1019.25 1285.2 988.696 1318.9 973.239 z" fill="rgb(15,33,78)" transform="translate(0,0)"></path>
<path d="M 1323 980.949 C 1333.51 980.932 1359.75 991.683 1356.97 1005.08 C 1354.49 1008.41 1354.21 1008.4 1350.23 1010.03 C 1337.17 1009.65 1299.35 992.609 1323 980.949 z" fill="rgb(255,255,255)" transform="translate(0,0)"></path>
<path d="M 1407.23 1013.2 C 1432.73 1012.41 1467.78 1040.57 1435.48 1055.54 C 1405.55 1058.68 1375.2 1022.85 1407.23 1013.2 z" fill="rgb(15,33,78)" transform="translate(0,0)"></path>
<path d="M 1407.49 1021.06 C 1420.4 1021.51 1451.91 1034.52 1432.32 1047.72 C 1418.98 1047.16 1388.32 1030.78 1407.49 1021.06 z" fill="rgb(255,255,255)" transform="translate(0,0)"></path>
<path d="M 1560.02 1095.17 C 1576.71 1093.93 1590.61 1100.59 1599.77 1114.73 C 1606.76 1125.51 1600.77 1133.67 1590.95 1138.75 C 1566.15 1139.92 1531.3 1112.58 1560.02 1095.17 z" fill="rgb(15,33,78)" transform="translate(0,0)"></path>
<path d="M 1563.56 1102.98 C 1579.37 1102.33 1605.39 1120.28 1587.34 1131.06 C 1575.99 1130.36 1547.43 1116.67 1563.56 1102.98 z" fill="rgb(255,255,255)" transform="translate(0,0)"></path>
<path d="M 1486.93 1052.28 C 1512.23 1049.32 1546.9 1080.17 1515.8 1094.79 C 1488.64 1096.09 1455.25 1066.89 1486.93 1052.28 z" fill="rgb(15,33,78)" transform="translate(0,0)"></path>
<path d="M 1487.44 1061 C 1501.32 1059.53 1529.62 1074.42 1514.65 1087 C 1502.08 1087.45 1472.3 1076.76 1487.44 1061 z" fill="rgb(255,255,255)" transform="translate(0,0)"></path>
<path d="M 1631.12 1143.03 C 1655.25 1142.73 1687.36 1173.33 1656.04 1186.56 C 1631.24 1189.21 1599.62 1157.27 1631.12 1143.03 z" fill="rgb(15,33,78)" transform="translate(0,0)"></path>
<path d="M 1630.66 1150.96 C 1645 1150.03 1668.19 1164.7 1654.91 1178.71 C 1642.01 1179.87 1618.15 1164.75 1630.66 1150.96 z" fill="rgb(255,255,255)" transform="translate(0,0)"></path>
<path d="M 1693.31 1200.1 C 1719.64 1201.17 1742.34 1234.6 1714.7 1247.29 C 1689.65 1247.45 1662.62 1209.61 1693.31 1200.1 z" fill="rgb(15,33,78)" transform="translate(0,0)"></path>
<path d="M 1691.64 1207.88 C 1707.58 1207.43 1725.35 1224.94 1714.84 1239.72 C 1701.35 1240.85 1682.14 1221.48 1691.64 1207.88 z" fill="rgb(255,255,255)" transform="translate(0,0)"></path>
<path d="M 1785.48 1499.3 C 1807.59 1502.65 1806.15 1524.15 1795.96 1539.37 C 1789.82 1542.58 1787.01 1544.29 1780.27 1545.9 C 1753.9 1544.88 1758.56 1504.94 1785.48 1499.3 z" fill="rgb(15,33,78)" transform="translate(0,0)"></path>
<path d="M 1783.94 1506.97 C 1801.03 1511.63 1795.96 1532.43 1780.41 1539.16 C 1762.02 1536.99 1771.99 1513.89 1783.94 1506.97 z" fill="rgb(255,255,255)" transform="translate(0,0)"></path>
<path d="M 1751.33 1569.14 C 1781.95 1567.32 1771.21 1600.61 1750.05 1609.28 C 1722.27 1611.93 1730.49 1580.19 1751.33 1569.14 z" fill="rgb(18,35,68)" transform="translate(0,0)"></path>
<path d="M 1752.02 1576.81 C 1752.8 1576.77 1753.57 1576.75 1754.35 1576.74 C 1771.72 1576.58 1759.55 1595.51 1751.27 1601.43 C 1745.97 1602.53 1744.8 1603.14 1740.99 1599.06 C 1738.64 1589.97 1745 1581.83 1752.02 1576.81 z" fill="rgb(255,255,255)" transform="translate(0,0)"></path>
<path d="M 1704.58 1623.11 C 1714.35 1622.74 1726.71 1625.33 1721.62 1638.81 C 1718.34 1647.51 1710.69 1651.29 1702.66 1654.76 C 1692.43 1656.29 1680.7 1653.78 1685.38 1640.15 C 1688.59 1630.81 1696.05 1626.82 1704.58 1623.11 z" fill="rgb(18,35,68)" transform="translate(0,0)"></path>
<path d="M 1705.23 1630 C 1709.04 1629.81 1710.62 1629.35 1713.84 1631.38 C 1718.21 1639.07 1707.58 1645.03 1701.78 1647.54 C 1697.98 1647.8 1696.29 1648.24 1693.09 1646.21 C 1689.48 1638.59 1699.6 1632.75 1705.23 1630 z" fill="rgb(255,255,255)" transform="translate(0,0)"></path>
<path d="M 1001.74 1055.43 C 1012.82 1059.27 1033.17 1066.22 1044.25 1067.29 C 1058.04 1096.01 1075.9 1122.59 1097.3 1146.19 C 1200.17 1259.87 1431.14 1359.78 1464.35 1519.21 L 1457.05 1511.31 C 1433.33 1487.67 1408.53 1465.46 1375.66 1454.74 C 1351.26 1446.78 1335.76 1456.27 1315.13 1467.62 C 1272.9 1410.06 1183.04 1373.97 1129.35 1328.44 C 1046.69 1258.35 1011 1160.35 1001.74 1055.43 z" fill="rgb(255,255,255)" transform="translate(0,0)"></path>
<path d="M 1091.5 1056.82 C 1104.2 1067.15 1115.15 1079.01 1127.49 1089.04 C 1160.27 1115.68 1194.79 1140.06 1228.72 1165.32 C 1266.98 1193.82 1308.11 1220.14 1345.71 1249.64 C 1441.27 1324.63 1516.79 1413.47 1530.06 1538.49 C 1538.47 1617.76 1514.87 1690.54 1464.4 1751.63 C 1387.66 1844.52 1277.44 1903.48 1157.58 1915.75 C 1147.4 1916.69 1134.12 1916.28 1124.04 1915.36 L 1123.71 1914.7 L 1122 1914.85 C 1130.84 1913.24 1144.44 1912.95 1154.18 1911.78 C 1179.74 1908.99 1203.34 1901.08 1226.59 1890.43 C 1231.15 1889.02 1244.63 1880.71 1248.7 1882.69 C 1250.41 1883.52 1254.45 1890.24 1259.61 1890.27 C 1266.06 1890.3 1272.94 1885.07 1273.95 1878.81 C 1273.12 1875.19 1271.28 1873.48 1268.95 1870.56 L 1269.02 1868.87 C 1274.32 1864.7 1294.8 1851.67 1300.56 1850.36 C 1303.93 1848.63 1306.86 1844.06 1309.72 1840.83 C 1310.44 1841.49 1311.15 1842.15 1311.85 1842.82 L 1313.54 1841.04 C 1321.56 1834.3 1332.48 1827.14 1340.88 1820.35 C 1344.38 1817.51 1353.23 1810.31 1356.42 1808.36 C 1362.25 1803.3 1364.17 1796.06 1370.42 1795.18 C 1375.89 1787.09 1392.6 1771.91 1400.02 1763.64 C 1476.89 1677.86 1515.64 1569.05 1463.39 1459.34 C 1463.56 1456.63 1461.15 1454.21 1459.48 1452.13 C 1458.29 1451.33 1458.83 1451.87 1458.04 1450.49 C 1389.53 1330.14 1263.07 1264 1159.36 1179.02 C 1131.49 1156.18 1110.1 1131.88 1087.73 1103.43 C 1084.96 1100.26 1084.11 1098.69 1081.92 1095.02 C 1076.77 1086.38 1071.27 1077.51 1066.74 1068.56 C 1077.1 1065 1082.29 1062.89 1091.5 1056.82 z" fill="rgb(255,255,255)" transform="translate(0,0)"></path>
<path d="M 1459.48 1452.13 C 1458.23 1446.47 1456.71 1438.4 1460.44 1433.51 C 1473.57 1416.3 1502.14 1445.45 1489.84 1460.54 C 1481.63 1470.61 1471.84 1467.2 1463.39 1459.34 C 1463.56 1456.63 1461.15 1454.21 1459.48 1452.13 z" fill="rgb(15,33,78)" transform="translate(0,0)"></path>
<path d="M 1468.42 1434.72 C 1481.45 1436.37 1490.2 1449.62 1480.19 1459.51 C 1468.97 1456.87 1460.82 1444.84 1468.42 1434.72 z" fill="rgb(255,255,255)" transform="translate(0,0)"></path>
<path d="M 1083.42 1093.99 C 1073.34 1062.03 1118.08 1075.65 1118.15 1093.52 C 1118.23 1111.17 1103.01 1114.28 1089.31 1102.84 L 1087.73 1103.43 C 1084.96 1100.26 1084.11 1098.69 1081.92 1095.02 L 1083.42 1093.99 z" fill="rgb(15,33,78)" transform="translate(0,0)"></path>
<path d="M 1083.42 1093.99 L 1089.31 1102.84 L 1087.73 1103.43 C 1084.96 1100.26 1084.11 1098.69 1081.92 1095.02 L 1083.42 1093.99 z" fill="rgb(171,174,191)" transform="translate(0,0)"></path>
<path d="M 1093.35 1080.85 C 1104.05 1083.34 1117.43 1094.43 1104.98 1103.5 C 1096.18 1100.32 1082.86 1089.96 1093.35 1080.85 z" fill="rgb(255,255,255)" transform="translate(0,0)"></path>
<path d="M 1370.42 1795.18 C 1403.78 1791.64 1386.83 1829.54 1367.18 1829.43 C 1356.12 1829.38 1351.37 1819.04 1356.42 1808.36 C 1362.25 1803.3 1364.17 1796.06 1370.42 1795.18 z" fill="rgb(15,33,78)" transform="translate(0,0)"></path>
<path d="M 1372.82 1801.88 C 1376.82 1801.93 1377.57 1801.89 1380.48 1804.28 C 1383.8 1812.56 1376.65 1818.86 1370.09 1822.71 C 1366.02 1822.46 1365.65 1822.6 1362.25 1820.6 C 1357.1 1812.45 1366.73 1806.08 1372.82 1801.88 z" fill="rgb(255,255,255)" transform="translate(0,0)"></path>
<path d="M 1300.56 1850.36 C 1303.93 1848.63 1306.86 1844.06 1309.72 1840.83 C 1310.44 1841.49 1311.15 1842.15 1311.85 1842.82 L 1313.54 1841.04 C 1321.51 1841.03 1327.06 1845.82 1324.87 1853.98 C 1321.43 1866.79 1295.79 1871.07 1300.56 1850.36 z" fill="rgb(18,35,68)" transform="translate(0,0)"></path>
<path d="M 1310.04 1847 C 1314.91 1846.82 1316.65 1846.12 1318.67 1850.87 C 1317.96 1854.88 1317.24 1855.19 1314.27 1858.29 C 1309.3 1858.27 1306.18 1858.48 1305.11 1853.18 C 1306.13 1849.76 1307.28 1849.26 1310.04 1847 z" fill="rgb(255,255,255)" transform="translate(0,0)"></path>
<path d="M 1262.84 1224.16 C 1271.39 1223.58 1275 1223.83 1282.64 1227.94 C 1296.98 1235.65 1310.7 1249.46 1292.4 1262.04 C 1273.69 1265.89 1239.41 1239.87 1262.84 1224.16 z" fill="rgb(15,33,78)" transform="translate(0,0)"></path>
<path d="M 1266.96 1230.83 C 1275.63 1231.02 1289.25 1238.99 1291.38 1248.11 C 1292.06 1251.04 1290.13 1253.17 1288.69 1255.47 C 1278.1 1252.82 1256.78 1244.53 1266.96 1230.83 z" fill="rgb(255,255,255)" transform="translate(0,0)"></path>
<path d="M 1198.12 1178.09 C 1218.24 1177.28 1251.83 1202.88 1226.69 1217.25 C 1205.23 1219.84 1175.36 1192.62 1198.12 1178.09 z" fill="rgb(15,33,78)" transform="translate(0,0)"></path>
<path d="M 1201.43 1185.72 C 1211.01 1185.98 1223.49 1193.5 1226.67 1203.1 C 1227.55 1205.73 1225.54 1207.79 1224.15 1209.8 C 1212.9 1208.76 1191.95 1199.97 1201.43 1185.72 z" fill="rgb(255,255,255)" transform="translate(0,0)"></path>
<path d="M 1137.86 1128.03 C 1155.43 1127.2 1189.14 1152.84 1166.27 1169.02 C 1146.13 1169.67 1115.8 1144.16 1137.86 1128.03 z" fill="rgb(15,33,78)" transform="translate(0,0)"></path>
<path d="M 1140.81 1135.54 C 1150.96 1136.28 1171.04 1149.26 1163.98 1161.8 C 1154.24 1160.77 1142.39 1154.11 1138.74 1144.42 C 1137.34 1140.71 1139.08 1138.58 1140.81 1135.54 z" fill="rgb(255,255,255)" transform="translate(0,0)"></path>
<path d="M 1493.27 1620.92 C 1518.72 1621.5 1517.36 1656.73 1496.26 1665.09 C 1467.8 1666.08 1474.52 1631.32 1493.27 1620.92 z" fill="rgb(15,33,78)" transform="translate(0,0)"></path>
<path d="M 1493.86 1628.65 C 1511.03 1630.79 1504.08 1649.56 1495.37 1657.48 C 1477.74 1656.28 1485.99 1635.67 1493.86 1628.65 z" fill="rgb(255,255,255)" transform="translate(0,0)"></path>
<path d="M 1424.8 1364.01 C 1447.25 1362.43 1470.54 1389.16 1449.12 1403.48 C 1427.13 1405.32 1404.08 1376.41 1424.8 1364.01 z" fill="rgb(15,33,78)" transform="translate(0,0)"></path>
<path d="M 1426.83 1370.9 C 1440.14 1371.54 1453.88 1381.44 1447.03 1395.58 C 1434.2 1395.8 1419.92 1383.53 1426.83 1370.9 z" fill="rgb(255,255,255)" transform="translate(0,0)"></path>
<path d="M 1327.94 1270.12 C 1348.96 1271.62 1373.06 1299.61 1346.88 1309.07 C 1328.26 1308.54 1300.68 1281.91 1327.94 1270.12 z" fill="rgb(15,33,78)" transform="translate(0,0)"></path>
<path d="M 1327.66 1278.73 C 1338.93 1277.83 1355.44 1289.85 1346.43 1300.85 C 1335.74 1299.68 1320.35 1291.08 1327.66 1278.73 z" fill="rgb(255,255,255)" transform="translate(0,0)"></path>
<path d="M 1502.19 1559.05 C 1526.49 1558 1530.69 1589.57 1510.33 1600.65 C 1484.53 1603.79 1484.52 1569.38 1502.19 1559.05 z" fill="rgb(15,33,78)" transform="translate(0,0)"></path>
<path d="M 1503.17 1566.83 C 1519.25 1566.56 1517.27 1583.52 1509.42 1592.58 C 1493.87 1593.28 1495.58 1575.66 1503.17 1566.83 z" fill="rgb(255,255,255)" transform="translate(0,0)"></path>
<path d="M 1383.43 1315.19 C 1404.86 1318.21 1423.06 1345.31 1396.57 1353.19 C 1373.91 1349.54 1355.33 1321.75 1383.43 1315.19 z" fill="rgb(15,33,78)" transform="translate(0,0)"></path>
<path d="M 1380.32 1323.84 C 1392.43 1323.51 1407.34 1333.71 1397.62 1345.43 C 1387.03 1344.44 1372.66 1336 1380.32 1323.84 z" fill="rgb(255,255,255)" transform="translate(0,0)"></path>
<path d="M 1464.37 1686.89 C 1490.77 1688 1485.4 1718.5 1462.55 1725.98 C 1433.16 1727.69 1444.25 1696.35 1464.37 1686.89 z" fill="rgb(15,33,78)" transform="translate(0,0)"></path>
<path d="M 1463.56 1694.93 C 1468.63 1694.68 1470.3 1694.42 1473.75 1698.65 C 1476.45 1707.57 1469.33 1714.08 1462.25 1718.02 C 1457.6 1718.87 1456.63 1718.79 1453.09 1716.03 C 1450.04 1708.24 1457.7 1699.3 1463.56 1694.93 z" fill="rgb(255,255,255)" transform="translate(0,0)"></path>
<path d="M 1492.77 1493.14 C 1501.27 1492.79 1506.58 1493.58 1511.8 1500.87 C 1519.44 1511.54 1518.81 1523.17 1508.28 1530.94 C 1480.21 1533.83 1475.34 1502.58 1492.77 1493.14 z" fill="rgb(15,33,78)" transform="translate(0,0)"></path>
<path d="M 1494.69 1499.64 C 1507.46 1500.06 1513.38 1514.94 1503.63 1523.5 C 1489.88 1521.66 1485.44 1509.69 1494.69 1499.64 z" fill="rgb(255,255,255)" transform="translate(0,0)"></path>
<path d="M 1423.38 1748.09 C 1450.9 1747.33 1439.24 1775.97 1419.15 1784.77 C 1392.66 1782.42 1402.68 1754.25 1423.38 1748.09 z" fill="rgb(15,33,78)" transform="translate(0,0)"></path>
<path d="M 1424.4 1754.82 C 1427.92 1755.13 1428.23 1754.85 1431.03 1757.07 C 1433.94 1765.5 1424.68 1772.87 1418.3 1776.94 C 1414.43 1776.76 1413.36 1776.53 1410.87 1773.51 C 1409.1 1764.68 1417.38 1758.25 1424.4 1754.82 z" fill="rgb(255,255,255)" transform="translate(0,0)"></path>
<path d="M 859.03 1021.78 C 864.456 1026.6 869.914 1031.86 876.2 1035.4 C 881.001 1056.68 883.441 1077.81 889.128 1098.98 C 895.292 1121.93 902.524 1143.75 910.463 1166.09 C 945.242 1263.95 1006.15 1344.87 1095.5 1399.58 C 1175.89 1448.8 1279.47 1483.5 1302.75 1586.8 C 1310.56 1621.07 1304.24 1657.03 1285.22 1686.58 C 1282.05 1691.52 1274.02 1702.99 1268.28 1704.49 C 1267.78 1704.95 1266.23 1706.3 1265.9 1706.77 C 1252.73 1708.39 1249.28 1702.06 1252.42 1690.25 L 1253.36 1688.92 C 1255.55 1684.88 1262.71 1670.28 1265.12 1667.83 C 1266.36 1669.49 1267.53 1670.82 1268.89 1672.39 C 1280.6 1677.74 1288.92 1655.98 1273.7 1650.24 C 1269.27 1650.79 1270.76 1650.49 1266.8 1653.52 C 1266.19 1652.62 1268.84 1642.84 1269.08 1639.1 C 1268.49 1631.58 1267.59 1617.15 1268.49 1610.01 L 1269.76 1609.33 C 1270.39 1605.66 1270.23 1605.72 1269.28 1602.29 C 1268.01 1600.35 1263.27 1582.08 1261.61 1577.89 C 1252.56 1554.95 1241.76 1539.94 1226.07 1521.81 L 1214.93 1512.14 C 1210.9 1508.76 1208.02 1506.25 1204.23 1502.53 C 1194.88 1493.28 1178.6 1483.25 1167.08 1477.25 C 1162.75 1475.19 1158.09 1472.57 1153.81 1470.29 C 1111.38 1448.74 1068.1 1432.25 1027.2 1407.81 C 939.244 1355.26 877.402 1272.35 846.734 1175.08 C 830.727 1124.31 824.602 1082.38 821.656 1029.29 C 837.682 1045.89 850.162 1043.67 859.03 1021.78 z" fill="rgb(255,255,255)" transform="translate(0,0)"></path>
<path d="M 1153.83 1467.86 C 1133.63 1452.66 1153.11 1437.73 1172.38 1451.25 C 1181.66 1457.77 1197.01 1464.21 1184.05 1478.33 C 1180.12 1482.13 1171.26 1476.86 1167.2 1475 L 1167.08 1477.25 C 1162.75 1475.19 1158.09 1472.57 1153.81 1470.29 L 1153.83 1467.86 z" fill="rgb(15,33,78)" transform="translate(0,0)"></path>
<path d="M 1153.83 1467.86 L 1167.2 1475 L 1167.08 1477.25 C 1162.75 1475.19 1158.09 1472.57 1153.81 1470.29 L 1153.83 1467.86 z" fill="rgb(232,224,226)" transform="translate(0,0)"></path>
<path d="M 1154.17 1452.57 C 1164.43 1454.85 1181.27 1459.15 1179.7 1472.02 C 1170.03 1470.21 1151.79 1464.93 1154.17 1452.57 z" fill="rgb(255,255,255)" transform="translate(0,0)"></path>
<path d="M 1204.84 1501.19 C 1200.14 1474.72 1225.94 1484.97 1236.61 1496.92 C 1248.27 1509.96 1242.83 1524.54 1227.36 1520.13 L 1226.07 1521.81 L 1214.93 1512.14 C 1210.9 1508.76 1208.02 1506.25 1204.23 1502.53 L 1204.84 1501.19 z" fill="rgb(15,33,78)" transform="translate(0,0)"></path>
<path d="M 1215.71 1510.19 L 1227.36 1520.13 L 1226.07 1521.81 L 1214.93 1512.14 L 1215.71 1510.19 z" fill="rgb(171,174,191)" transform="translate(0,0)"></path>
<path d="M 1204.84 1501.19 C 1208.28 1503.97 1212.54 1507.23 1215.71 1510.19 L 1214.93 1512.14 C 1210.9 1508.76 1208.02 1506.25 1204.23 1502.53 L 1204.84 1501.19 z" fill="rgb(94,104,139)" transform="translate(0,0)"></path>
<path d="M 1213.38 1491.32 C 1222.41 1491.95 1237.54 1503.11 1233.65 1513.47 C 1226.69 1511.73 1218.29 1506.66 1214.34 1500.63 C 1211.66 1496.51 1212.53 1495.6 1213.38 1491.32 z" fill="rgb(255,255,255)" transform="translate(0,0)"></path>
<path d="M 1269.28 1602.29 C 1282.14 1576.74 1304.77 1619.63 1293.74 1632.63 C 1286.28 1641.44 1274.95 1636.08 1270.51 1627.25 C 1269.94 1631.03 1269.66 1635.81 1269.08 1639.1 C 1268.49 1631.58 1267.59 1617.15 1268.49 1610.01 L 1269.76 1609.33 C 1270.39 1605.66 1270.23 1605.72 1269.28 1602.29 z" fill="rgb(15,33,78)" transform="translate(0,0)"></path>
<path d="M 1269.08 1639.1 C 1268.49 1631.58 1267.59 1617.15 1268.49 1610.01 L 1269.76 1609.33 C 1269.97 1615.3 1270.22 1621.28 1270.51 1627.25 C 1269.94 1631.03 1269.66 1635.81 1269.08 1639.1 z" fill="rgb(39,54,100)" transform="translate(0,0)"></path>
<path d="M 1277.97 1602.24 C 1289.39 1604.86 1291.81 1620.35 1286.29 1629.49 C 1272.92 1626.63 1272.99 1612.4 1277.97 1602.24 z" fill="rgb(255,255,255)" transform="translate(0,0)"></path>
<path d="M 1253.36 1688.92 C 1268.13 1676.12 1281.62 1689.94 1268.28 1704.49 C 1267.78 1704.95 1266.23 1706.3 1265.9 1706.77 C 1252.73 1708.39 1249.28 1702.06 1252.42 1690.25 L 1253.36 1688.92 z" fill="rgb(15,33,78)" transform="translate(0,0)"></path>
<path d="M 1262.23 1689.37 C 1265.78 1690.14 1267.27 1690.78 1268.62 1693.99 C 1268.02 1697.22 1266.19 1698.23 1263.66 1700.44 C 1259.94 1700.4 1258.81 1700.11 1257.28 1697.02 C 1258.21 1693.04 1259.25 1692.47 1262.23 1689.37 z" fill="rgb(255,255,255)" transform="translate(0,0)"></path>
<path d="M 904.073 1230.17 C 918.327 1231.75 925.046 1240.46 929.757 1253.4 C 935.013 1267.85 933.769 1278.18 918.597 1282.79 C 896.216 1278.57 876.673 1239.54 904.073 1230.17 z" fill="rgb(15,33,78)" transform="translate(0,0)"></path>
<path d="M 904.093 1238.69 C 915.591 1239.41 924.459 1256.57 924.585 1266.99 C 924.626 1270.41 922.379 1272.29 920.125 1274.45 C 906.46 1273.76 892.631 1251.57 904.093 1238.69 z" fill="rgb(255,255,255)" transform="translate(0,0)"></path>
<path d="M 952.133 1304.09 C 976.585 1301.66 1000.43 1337.02 976.768 1352.8 C 955.086 1354.6 927.128 1320.38 952.133 1304.09 z" fill="rgb(15,33,78)" transform="translate(0,0)"></path>
<path d="M 955.825 1310.75 C 970.155 1312.53 989.357 1336.81 972.514 1346.06 C 959.477 1343.31 940.231 1322.81 955.825 1310.75 z" fill="rgb(255,255,255)" transform="translate(0,0)"></path>
<path d="M 849.025 1074.03 C 875.806 1072.94 886.932 1111.02 863.273 1124.72 C 838.311 1127.11 825.093 1085.98 849.025 1074.03 z" fill="rgb(15,33,78)" transform="translate(0,0)"></path>
<path d="M 851.691 1080.91 C 856.252 1081.77 858.377 1082.71 861.418 1086.22 C 866.119 1091.7 868.452 1098.83 867.907 1106.03 C 867.451 1111.85 865.876 1114.06 861.619 1117.64 C 860.742 1117.57 859.866 1117.47 858.992 1117.36 C 846.321 1115.7 838.555 1090.21 851.691 1080.91 z" fill="rgb(255,255,255)" transform="translate(0,0)"></path>
<path d="M 870.168 1154.97 C 890.972 1154.55 899.137 1176.54 894.683 1194.53 C 893.183 1200.58 889.403 1202.9 884.116 1205.67 C 861.083 1205.61 846.538 1166.56 870.168 1154.97 z" fill="rgb(15,33,78)" transform="translate(0,0)"></path>
<path d="M 870.761 1162.68 C 886.413 1162.95 892.439 1185.65 884.098 1196.77 C 867.834 1197.73 861.603 1173.9 870.761 1162.68 z" fill="rgb(255,255,255)" transform="translate(0,0)"></path>
<path d="M 1014.87 1364.09 C 1033.44 1361.44 1069.7 1388.01 1043.49 1403.49 C 1040.86 1404.02 1038.17 1404.14 1035.5 1403.85 C 1019.16 1401.91 991.098 1378.28 1014.87 1364.09 z" fill="rgb(15,33,78)" transform="translate(0,0)"></path>
<path d="M 1017.37 1370.71 C 1028.17 1372.03 1053.33 1383.24 1040.87 1396.77 C 1030.9 1395.78 1004.33 1383.38 1017.37 1370.71 z" fill="rgb(255,255,255)" transform="translate(0,0)"></path>
<path d="M 1086.93 1408.93 C 1103.75 1408.62 1140.52 1426.95 1114.08 1442.87 C 1111.77 1442.92 1109.45 1442.73 1107.18 1442.29 C 1092.81 1439.7 1063.33 1422.8 1086.93 1408.93 z" fill="rgb(15,33,78)" transform="translate(0,0)"></path>
<path d="M 1088.12 1415.59 C 1097.47 1415.92 1116.99 1423 1114.04 1435.2 C 1102.98 1435.28 1084.04 1430.18 1088.12 1415.59 z" fill="rgb(255,255,255)" transform="translate(0,0)"></path>
<path d="M 1259.13 1531.91 C 1276.33 1534.33 1291.7 1559.38 1272.28 1569.28 C 1261.91 1569.2 1256.99 1563.87 1252.47 1554.86 C 1247.34 1544.66 1248.89 1536.56 1259.13 1531.91 z" fill="rgb(15,33,78)" transform="translate(0,0)"></path>
<path d="M 1258.33 1538.44 C 1268.61 1540.14 1277.82 1551.84 1271.9 1562.24 C 1261.62 1559.74 1252.94 1548.63 1258.33 1538.44 z" fill="rgb(255,255,255)" transform="translate(0,0)"></path>
<path d="M 610.389 453.583 C 621.08 462.155 624.083 489.348 620.201 501.562 C 598.57 570.306 501.942 534.432 452.604 523.545 C 404.721 512.979 362.494 512.348 319.353 539.39 C 276.896 566.003 247.588 609.081 236.017 657.504 C 221.745 717.235 233.981 771.089 266.028 822.598 C 304.128 885.541 363.881 918.563 433.502 935.306 C 537.109 960.223 639.433 921.421 726.809 866.409 C 724.334 869.568 717.728 880.589 716.051 881.804 C 690.438 900.375 655.764 918.023 627.535 931.014 C 606.536 940.646 584.467 948.147 562.704 955.922 C 554.881 948.437 544.68 947.664 534.848 952.449 C 526.728 956.401 524.903 961.158 522.378 969.472 C 514.769 970.869 498.44 974.359 491.542 973.648 C 492.498 969.357 493.792 968.916 492.476 964.541 C 485.019 955.004 461.426 957.378 451.348 963.376 L 449.896 975.845 C 442.556 975.853 410.917 976.132 406.622 972.575 C 408.366 967.622 411.347 960.217 406.417 955.976 C 398.024 948.756 373.348 943.853 364.957 952.817 C 361.941 956.038 363.748 959.646 363.143 963.373 C 355.187 963.378 333.929 954.229 325.589 951.004 C 348.648 929.217 317.409 905.552 296.825 915.542 C 292.5 917.64 292.485 923.823 291.729 928.391 L 290.433 928.83 C 277.633 919.798 263.075 904.598 252.468 892.548 C 226.243 862.754 200.819 813.42 195.418 774.385 C 192.904 756.21 195.059 721.602 196.389 702.624 C 199.798 706.118 203.474 709.982 208.888 708.093 C 220.22 704.139 223.546 687.061 218.85 677.153 C 215.678 670.461 211.614 669.616 205.149 667.511 C 207.935 658.576 214.706 635.573 221.615 630.718 C 236.984 631.756 237.398 625.799 242.559 612.503 C 245 606.217 244.63 603.724 241.647 598.046 C 250.114 581.914 277.916 556.461 292.394 545.281 C 310.077 531.436 330.209 521.048 351.738 514.657 C 418.587 494.393 466.366 523.896 531.504 533.52 C 586.327 541.621 636.911 517.395 610.389 453.583 z" fill="rgb(255,255,255)" transform="translate(0,0)"></path>
<path d="M 239.803 838.999 C 251.283 838.238 257.87 842.279 265.258 851.107 C 273.325 860.746 276.731 871.31 265.655 879.657 C 244.65 881.803 221.171 853.049 239.803 838.999 z" fill="rgb(15,33,78)" transform="translate(0,0)"></path>
<path d="M 241.906 848.628 C 252.664 848.445 263.135 858.299 261.292 869.108 C 251.865 868.703 243.048 857.601 241.906 848.628 z" fill="rgb(255,255,255)" transform="translate(0,0)"></path>
<path d="M 207.832 755.062 C 214.872 755.039 220.58 757.18 224.027 763.5 C 230.786 775.894 233.207 790.738 220.285 799.218 C 197.634 800.721 191.384 765.518 207.832 755.062 z" fill="rgb(15,33,78)" transform="translate(0,0)"></path>
<path d="M 207.25 764.381 C 220.27 765.733 219.854 780.68 218.329 790.782 C 208.103 789.268 206.754 772.537 207.25 764.381 z" fill="rgb(255,255,255)" transform="translate(0,0)"></path>
<path d="M 1110.88 1469.14 C 1116.9 1471.84 1122.83 1475.12 1128.74 1478.27 C 1182.59 1506.93 1246.05 1544.78 1250.84 1612.64 C 1253.6 1651.73 1232.44 1672.54 1193.62 1674.35 C 1184.92 1674.39 1180.77 1673.96 1172.25 1672.6 C 1160.64 1653.02 1159.29 1631.28 1143.64 1607.61 C 1120.9 1573.19 1093.08 1558.28 1053.3 1549.29 C 1059.91 1506.77 1073.08 1490.12 1110.88 1469.14 z" fill="rgb(255,255,255)" transform="translate(0,0)"></path>
<path d="M 245.724 1014.22 C 249.988 1013.85 254.27 1013.71 258.549 1013.81 C 278.755 1014.27 293.993 1022.11 307.694 1036.44 C 296.388 1029.33 286.197 1023.24 272.853 1021.09 C 212.595 1011.38 167.321 1063.63 157.899 1118.08 C 151.722 1155.18 160.293 1193.22 181.781 1224.08 C 199.728 1249.42 229.877 1266.07 260.199 1271.3 C 309.823 1279.42 359.517 1254.64 403.188 1233.59 C 451.844 1210.14 504.29 1184.15 548.228 1152.89 C 556.143 1146.55 563.053 1140.98 571.462 1135.24 C 550.984 1161.65 517.962 1198.88 492.161 1219.74 C 409.994 1283.83 306.645 1333.87 208.051 1272.7 C 108.975 1211.24 128.481 1035.75 245.724 1014.22 z" fill="rgb(232,112,124)" transform="translate(0,0)"></path>
<path d="M 1553.29 811.521 C 1558.73 809.039 1571.78 809.432 1577.99 807.73 C 1591.6 804.003 1609.9 796.951 1622.39 790.68 C 1687 758.237 1740.48 693.374 1819.71 723.146 C 1857 737.154 1889.74 769.404 1906.12 805.561 C 1928.2 854.978 1929.93 911.105 1910.93 961.787 C 1904.81 977.958 1894.82 998.756 1884.07 1012.37 C 1890.2 998.252 1896.67 983.815 1901.14 969.148 C 1913.71 927.716 1915.07 881.725 1899.19 840.992 C 1891.72 821.832 1882.74 806.631 1868.18 792.409 C 1842.19 767.02 1811.61 756.934 1775.69 758.299 C 1753.38 759.146 1732.78 762.402 1711.41 769.253 C 1666.71 781.609 1594.67 820.181 1548.87 813.665 L 1553.29 811.521 z" fill="rgb(232,112,124)" transform="translate(0,0)"></path>
<path d="M 1042.83 1685.53 C 1079.73 1689.1 1098.09 1697.65 1131.14 1710.97 C 1136.26 1713.04 1150.94 1716.99 1154.34 1719.32 L 1156.97 1719.55 C 1167.66 1719.93 1176.49 1721.25 1187.17 1720.13 L 1193.54 1719.89 C 1203.26 1718.88 1212.91 1716.02 1222.33 1713.44 C 1225.55 1714.52 1223.33 1714.4 1225.71 1716.11 L 1227.09 1715.8 C 1228.57 1711.37 1229.31 1711.06 1232.9 1707.83 C 1240.74 1701.62 1245.3 1697.33 1252.42 1690.25 C 1249.28 1702.06 1252.73 1708.39 1265.9 1706.77 C 1249.74 1726.52 1215.34 1737.29 1190.79 1739.31 C 1150.71 1742.61 1135.48 1738.69 1099.78 1724.43 C 1096.42 1722.88 1093.06 1721.15 1089.74 1719.49 C 1073.25 1709.71 1056.3 1699.35 1042.83 1685.53 z" fill="rgb(255,255,255)" transform="translate(0,0)"></path>
<path d="M 1092.54 1718.13 C 1082.91 1699.74 1107.88 1700.71 1112.47 1711.37 C 1115.45 1718.28 1109.41 1722.78 1102.2 1722.99 L 1099.78 1724.43 C 1096.42 1722.88 1093.06 1721.15 1089.74 1719.49 L 1092.54 1718.13 z" fill="rgb(18,35,68)" transform="translate(0,0)"></path>
<path d="M 1092.54 1718.13 C 1095.76 1719.64 1099.12 1721.61 1102.2 1722.99 L 1099.78 1724.43 C 1096.42 1722.88 1093.06 1721.15 1089.74 1719.49 L 1092.54 1718.13 z" fill="rgb(232,224,226)" transform="translate(0,0)"></path>
<path d="M 1095.95 1709.72 C 1100.38 1709.45 1102.66 1709.22 1105.92 1712.49 C 1106.05 1716.11 1106.34 1714.32 1104.39 1717.9 C 1100.45 1717.46 1100.58 1717.56 1097.07 1715.82 C 1094.97 1712.33 1095.53 1714.25 1095.95 1709.72 z" fill="rgb(255,255,255)" transform="translate(0,0)"></path>
<path d="M 1227.09 1715.8 C 1228.57 1711.37 1229.31 1711.06 1232.9 1707.83 C 1235.02 1709.72 1237.18 1711.52 1239.13 1713.57 C 1239.65 1715.86 1239.61 1716.12 1239.78 1718.49 C 1235.61 1727.43 1221.79 1731.66 1218.63 1721.14 C 1219.21 1716.91 1219.45 1716.8 1222.33 1713.44 C 1225.55 1714.52 1223.33 1714.4 1225.71 1716.11 L 1227.09 1715.8 z" fill="rgb(18,35,68)" transform="translate(0,0)"></path>
<path d="M 1227.09 1715.8 C 1228.57 1711.37 1229.31 1711.06 1232.9 1707.83 C 1235.02 1709.72 1237.18 1711.52 1239.13 1713.57 C 1236.52 1715.74 1236.23 1715.43 1235.08 1718.35 C 1231.9 1715.69 1231.2 1715.96 1227.09 1715.8 z" fill="rgb(39,54,100)" transform="translate(0,0)"></path>
<path d="M 1227.09 1715.8 C 1231.2 1715.96 1231.9 1715.69 1235.08 1718.35 C 1231.47 1719.63 1228.92 1720.9 1225.12 1720.75 L 1224.23 1719.09 L 1225.71 1716.11 L 1227.09 1715.8 z" fill="rgb(232,224,226)" transform="translate(0,0)"></path>
<path d="M 1187.17 1720.13 L 1193.54 1719.89 C 1197.86 1722.65 1198.3 1723.03 1199.85 1727.84 C 1197.64 1736.02 1180.68 1736.17 1176.8 1728.12 C 1177.76 1724.33 1176.9 1725.99 1179.66 1723.04 C 1182.95 1722.15 1184.23 1721.77 1187.17 1720.13 z" fill="rgb(18,35,68)" transform="translate(0,0)"></path>
<path d="M 1156.97 1719.55 C 1160.87 1723.03 1162.04 1723.36 1160.94 1728.59 C 1156.98 1732.14 1153.24 1732.86 1149.36 1728.8 C 1149.33 1724.29 1151.18 1722.87 1154.34 1719.32 L 1156.97 1719.55 z" fill="rgb(18,35,68)" transform="translate(0,0)"></path>
<path d="M 909.611 345.187 C 921.325 345.08 931.008 347.436 941.045 353.373 C 922.694 393.748 925.402 407.588 919.951 448.581 L 919.3 443.551 C 917.988 432.785 910.804 406.704 904.697 397.207 C 901.669 392.496 898.69 391.184 893.461 390.252 C 890.459 390.399 889.014 390.205 886.379 391.683 C 886.293 394.685 909.534 406.179 903.275 417.028 C 892.293 419.65 892.046 425.713 887.596 435.764 C 877.442 409.815 860.537 395.965 880.988 368.554 C 888.981 357.841 895.664 348.358 909.611 345.187 z" fill="rgb(232,112,124)" transform="translate(0,0)"></path>
<path d="M 989.668 1556.44 C 1061.64 1550.71 1129.04 1583.26 1145.03 1659.11 C 1145.7 1662.31 1146.22 1662.69 1144.47 1665.15 C 1135.69 1661.4 1135.15 1650.85 1131.19 1642.11 C 1116.17 1609.03 1081.47 1580.1 1046.99 1569.57 C 1040.34 1567.57 1033.58 1565.94 1026.74 1564.67 C 1018.69 1563.2 993.468 1561.33 988.699 1557.69 L 989.668 1556.44 z" fill="rgb(232,112,124)" transform="translate(0,0)"></path>
<path d="M 1019.04 1573.65 L 1035.75 1576.42 C 1040.07 1592.34 1046.06 1606.54 1055.74 1619.87 C 1057.87 1622.81 1065.29 1631.69 1065.12 1634.71 C 1048.8 1630.48 1033.83 1628.77 1017.06 1627.84 C 1016.2 1609.72 1014.49 1591.28 1019.04 1573.65 z" fill="rgb(232,112,124)" transform="translate(0,0)"></path>
<path d="M 153.845 1055.16 C 174.916 1025.39 202.512 1007.39 239.458 1004.87 L 240.844 1007.83 C 177.285 1019.11 146.939 1075.99 135.924 1134.25 C 133.167 1133.16 129.413 1132.01 126.527 1131.03 C 128.012 1116.05 136.266 1080.81 145.534 1069.62 C 147.061 1073.36 144.605 1070.15 145.295 1074.7 C 148.566 1073.77 149.205 1072.92 151.745 1070.73 C 153.638 1066.28 153.541 1060.16 153.845 1055.16 z" fill="rgb(255,255,255)" transform="translate(0,0)"></path>
<path d="M 1092.4 1747.31 C 1113.14 1757.35 1135.23 1762.6 1158.12 1764.34 C 1155.14 1771.12 1152.87 1773.85 1147.91 1778.93 C 1132.17 1789.63 1107.64 1791.76 1094.76 1775.01 C 1088.31 1766.6 1090.95 1757.08 1092.4 1747.31 z" fill="rgb(232,112,124)" transform="translate(0,0)"></path>
<path d="M 1055.53 1583.52 C 1057.06 1584.06 1058.01 1584.41 1059.43 1585.26 C 1086.88 1601.82 1116.64 1625.01 1125.2 1657.26 C 1113.14 1653.42 1100.13 1646.91 1089.03 1640.94 C 1075.94 1620.25 1064.88 1606.79 1055.53 1583.52 z" fill="rgb(255,255,255)" transform="translate(0,0)"></path>
<path d="M 827.842 994.137 C 851.066 993.054 860.05 1020.65 842.118 1032.4 C 826.125 1029.13 808.201 1004.02 827.842 994.137 z" fill="rgb(255,255,255)" transform="translate(0,0)"></path>
<path d="M 1641.28 1655.6 C 1642.61 1654.39 1643.07 1654.54 1645 1653.89 C 1657.34 1653.66 1664.45 1654.78 1658.4 1669.5 C 1657.98 1669.65 1655.68 1670.53 1655.32 1670.55 C 1647.9 1672.66 1631.55 1672.24 1623.78 1671.14 C 1607.79 1670.58 1588.79 1668.7 1574.66 1661.1 C 1580.67 1661.04 1589.21 1662.25 1595.58 1662.53 C 1612.86 1663.29 1625.06 1660.6 1641.28 1655.6 z" fill="rgb(255,255,255)" transform="translate(0,0)"></path>
<path d="M 1641.28 1655.6 C 1642.61 1654.39 1643.07 1654.54 1645 1653.89 C 1657.34 1653.66 1664.45 1654.78 1658.4 1669.5 C 1657.98 1669.65 1655.68 1670.53 1655.32 1670.55 C 1650.07 1670.18 1645.66 1669.66 1640.4 1670.21 C 1637.12 1666.74 1636.63 1666.7 1635.89 1662.54 C 1636.93 1659.07 1638.6 1658.05 1641.28 1655.6 z" fill="rgb(18,35,68)" transform="translate(0,0)"></path>
<path d="M 1644.58 1658.88 C 1648.46 1658.86 1650.93 1658.59 1653.71 1661.51 C 1652.91 1665.08 1653.23 1663.92 1650.01 1666.84 C 1645.96 1667.13 1644.32 1667.01 1641.47 1664.65 C 1641.68 1661.04 1641.54 1662.24 1644.58 1658.88 z" fill="rgb(255,255,255)" transform="translate(0,0)"></path>
<path d="M 1640.4 1670.21 C 1645.66 1669.66 1650.07 1670.18 1655.32 1670.55 C 1647.9 1672.66 1631.55 1672.24 1623.78 1671.14 C 1628.57 1671.11 1636.05 1671.47 1640.4 1670.21 z" fill="rgb(94,104,139)" transform="translate(0,0)"></path>
<path d="M 264.305 1316.03 C 257.719 1314.44 236.021 1308.5 233.296 1302.1 C 235.313 1296.91 236.833 1296.5 241.711 1298.14 C 270.517 1307.85 304.126 1311.14 334.161 1306.47 L 333.652 1309.86 C 329.99 1312.86 329.047 1314.97 326.554 1319.01 C 322.326 1319.59 313.938 1320.97 309.914 1320.79 C 302.148 1320.46 296.894 1314.04 290.157 1311.45 C 285.698 1309.73 277.672 1309.34 272.56 1308.99 C 269.522 1311.01 266.979 1313.55 264.305 1316.03 z" fill="rgb(255,255,255)" transform="translate(0,0)"></path>
<path d="M 1784.9 1425.76 C 1803.35 1427.04 1803.77 1451.56 1792.09 1462.11 C 1771.87 1463.89 1774 1435.06 1784.9 1425.76 z" fill="rgb(255,255,255)" transform="translate(0,0)"></path>
<path d="M 1739.8 1275.71 C 1756.22 1275.93 1771.43 1297.31 1757.49 1308.6 C 1742.86 1308.82 1727.69 1287.83 1739.8 1275.71 z" fill="rgb(255,255,255)" transform="translate(0,0)"></path>
<path d="M 142.658 1195.84 L 145.097 1204.74 C 149.098 1213.58 152.507 1220.87 157.524 1229.27 C 160.829 1234.81 165.311 1240.83 168.219 1246.23 C 165.208 1248.7 165.142 1246.9 162.066 1249.55 L 161.138 1251.32 C 152.145 1240.84 146.319 1231.52 140.476 1219.14 C 136.614 1216.31 134.787 1211.71 133.837 1207.17 C 131.012 1204.53 131.896 1205.56 131.139 1200.91 C 131.326 1200.86 139.333 1196.93 142.658 1195.84 z" fill="rgb(255,255,255)" transform="translate(0,0)"></path>
<path d="M 142.658 1195.84 L 145.097 1204.74 C 143.269 1206.62 142.43 1207.24 141.039 1209.48 C 140.382 1209.82 138.83 1210.29 138.072 1210.55 C 136.735 1209.29 135.357 1208.2 133.837 1207.17 C 131.012 1204.53 131.896 1205.56 131.139 1200.91 C 131.326 1200.86 139.333 1196.93 142.658 1195.84 z" fill="rgb(15,33,78)" transform="translate(0,0)"></path>
<path d="M 133.837 1207.17 C 135.357 1208.2 136.735 1209.29 138.072 1210.55 C 138.83 1210.29 140.382 1209.82 141.039 1209.48 C 143.241 1212.31 143.295 1212.07 143.867 1215.55 C 142.541 1218.56 143.545 1217.32 140.476 1219.14 C 136.614 1216.31 134.787 1211.71 133.837 1207.17 z" fill="rgb(18,35,68)" transform="translate(0,0)"></path>
<path d="M 460.591 1255.38 C 452.186 1261.96 426.253 1284.56 417.921 1285.14 C 409.341 1281.15 394.676 1291.24 387.344 1296.27 C 383.582 1306.74 379.901 1306.88 369.933 1310.38 C 365.381 1308.04 362.208 1306.31 357.353 1304.55 L 355.746 1302.48 C 379.777 1295.37 403.07 1285.97 425.301 1274.4 C 436.395 1268.66 449.691 1260.3 460.591 1255.38 z" fill="rgb(255,255,255)" transform="translate(0,0)"></path>
<path d="M 1774.79 1348.97 C 1790.99 1351.61 1797.45 1373.31 1784.61 1383.33 C 1769.07 1379.43 1760.61 1358.25 1774.79 1348.97 z" fill="rgb(255,255,255)" transform="translate(0,0)"></path>
<path d="M 125.746 1150.46 C 129.066 1148.9 132.606 1147.03 135.914 1145.37 C 136.005 1162.43 136.82 1179.72 142.658 1195.84 C 139.333 1196.93 131.326 1200.86 131.139 1200.91 C 126.911 1180.2 125.815 1171.09 125.746 1150.46 z" fill="rgb(255,255,255)" transform="translate(0,0)"></path>
<path d="M 904.353 428.435 C 908.857 430.497 911.255 432.191 910.196 437.217 C 902.234 445.372 906.018 444.472 905.239 454.887 C 904.942 458.871 898.197 461.828 895.158 464.208 C 892.343 469.463 893.612 476.315 894.308 482.225 C 893.808 484.616 894.445 483.746 892.62 484.985 C 889.859 482.732 889.041 479.643 887.616 476.261 C 890.785 458.94 892.411 441.991 904.353 428.435 z" fill="rgb(255,255,255)" transform="translate(0,0)"></path>
<path d="M 1071.21 1484.13 L 1071.99 1486.04 C 1053.77 1501.65 1046.04 1524.27 1038.53 1546.15 L 1036.63 1546.99 C 1032.45 1545.99 1034.03 1547.05 1031.4 1544.22 C 1027.69 1527.84 1058.8 1494.02 1071.21 1484.13 z" fill="url(#Gradient1)" transform="translate(0,0)"></path>
<path d="M 215.739 1287.85 L 212.538 1287.24 C 211.719 1288.59 211.317 1289.61 210.783 1291.07 L 208.654 1291.57 C 201.682 1289.78 184.027 1274.94 179.28 1268.81 C 178.184 1267.39 178.915 1261.94 179.805 1259.61 C 192.103 1270.23 202.532 1280.18 217.404 1287 L 215.739 1287.85 z" fill="rgb(255,255,255)" transform="translate(0,0)"></path>
<path d="M 1451.34 1564.55 C 1455.51 1565.61 1460.75 1572.54 1462.79 1576.26 C 1466.81 1583.56 1468.48 1585.96 1466.66 1593.96 L 1465.7 1593.64 C 1462.15 1587.05 1452.64 1570.91 1451.34 1564.55 z" fill="rgb(255,255,255)" transform="translate(0,0)"></path>
<path d="M 370.848 957.325 C 376.904 956.659 397.904 956.947 399.828 963.453 C 391.564 965.428 376.403 964.493 370.848 957.325 z" fill="rgb(255,255,255)" transform="translate(0,0)"></path>
<path d="M 301.141 920.976 C 307.577 920.907 313.864 922.906 319.079 926.677 C 323.08 929.609 322.836 930.313 323.433 934.414 C 316.035 932.551 303.023 929.038 301.141 920.976 z" fill="rgb(255,255,255)" transform="translate(0,0)"></path>
<path d="M 1548.87 813.665 C 1529.97 809.622 1516.55 804.983 1503.37 790.516 C 1522.19 803.976 1530.51 808.11 1553.29 811.521 L 1548.87 813.665 z" fill="rgb(232,224,226)" transform="translate(0,0)"></path>
<path d="M 207.096 679.359 C 213.722 683.143 210.569 695.028 208.527 700.728 C 203.133 695.296 203.325 685.722 207.096 679.359 z" fill="rgb(255,255,255)" transform="translate(0,0)"></path>
<path d="M 229.097 1497.95 C 238.704 1492.43 243.784 1490.12 254.454 1487.27 C 258.815 1492.55 260.396 1490.38 266.567 1491.71 C 248.099 1492.13 246.972 1492.61 229.097 1497.95 z" fill="rgb(205,131,149)" transform="translate(0,0)"></path>
<path d="M 1260.74 1874.82 C 1264.35 1874.57 1265.14 1874.71 1266.54 1877.65 C 1265.6 1881.53 1264.9 1881.8 1261.95 1884.42 C 1258.1 1883.21 1256.07 1882.76 1254.28 1879.59 C 1256.21 1876.29 1256.64 1876.92 1260.74 1874.82 z" fill="rgb(255,255,255)" transform="translate(0,0)"></path>
<path d="M 1301.78 1675.83 C 1298.91 1683.14 1287.99 1697.84 1281.31 1702.54 C 1282.8 1698.62 1297.1 1680.33 1300.81 1673.81 L 1301.78 1675.83 z" fill="rgb(88,77,110)" transform="translate(0,0)"></path>
<path d="M 355.746 1302.48 L 357.353 1304.55 C 348.584 1305.95 342.215 1307.28 333.652 1309.86 L 334.161 1306.47 C 341.316 1305.32 348.61 1303.84 355.746 1302.48 z" fill="rgb(232,224,226)" transform="translate(0,0)"></path>
<path d="M 462.814 965.352 C 467.777 965.523 475.687 965.435 480.219 966.712 L 478.984 967.779 C 474.07 968.175 466.336 969.227 461.849 968.114 L 461.271 966.728 L 462.814 965.352 z" fill="rgb(255,255,255)" transform="translate(0,0)"></path>
<path d="M 483.463 1235.85 L 484.378 1236.06 C 483.766 1239.32 469.558 1249.52 466.392 1251.91 L 465.79 1251.95 L 465.42 1251.05 C 469.577 1246.53 478.347 1239.93 483.463 1235.85 z" fill="rgb(94,104,139)" transform="translate(0,0)"></path>
<path d="M 234.52 607.563 L 235.743 609.109 C 234.6 614.019 232.271 617.086 229.628 621.402 L 228.301 619.877 C 228.316 614.744 231.384 611.456 234.52 607.563 z" fill="rgb(255,255,255)" transform="translate(0,0)"></path>
<path d="M 239.458 1004.87 C 244.542 1004.87 250.632 1004.67 255.607 1005.21 L 256.323 1006.44 L 258.611 1005.82 L 257.945 1006.26 L 257.885 1005.61 L 257.037 1006.49 L 256.856 1005.49 L 255.587 1006.75 L 240.844 1007.83 L 239.458 1004.87 z" fill="rgb(232,224,226)" transform="translate(0,0)"></path>
<path d="M 543.043 957.028 C 545.805 956.844 544.823 956.652 547.373 957.768 C 545.566 960.232 542.26 961.155 539.293 962.428 C 537.643 962.743 537.379 962.567 535.661 962.446 L 535.295 961.074 C 537.944 957.911 538.775 958.058 543.043 957.028 z" fill="rgb(255,255,255)" transform="translate(0,0)"></path>
<path d="M 162.066 1249.55 C 164.799 1253.82 170.135 1257.23 171.321 1260.36 C 166.784 1258.4 163.776 1255.57 161.138 1251.32 L 162.066 1249.55 z" fill="rgb(128,131,156)" transform="translate(0,0)"></path>
<path d="M 1071.21 1484.13 C 1077.03 1479.39 1081.69 1476.69 1088.56 1473.58 C 1083.34 1477.45 1076.92 1481.97 1071.99 1486.04 L 1071.21 1484.13 z" fill="rgb(88,77,110)" transform="translate(0,0)"></path>
<path d="M 217.404 1287 C 223.079 1289.53 227.622 1291.28 232.609 1295.02 C 226.872 1292.96 220.879 1291.1 215.739 1287.85 L 217.404 1287 z" fill="rgb(171,174,191)" transform="translate(0,0)"></path>
<path d="M 604.823 433.306 C 609.356 436.748 614.554 440.882 618.09 445.279 L 616.457 447.309 L 604.823 433.306 z" fill="rgb(180,96,117)" transform="translate(0,0)"></path>
<metadata><recraft-signature>{"signed_by": "recraft", "signature_b64": "YVVhALfIETC83hLPRku9uayarI0Iq6Z1bsfYldG/BItFEuhx1CgNWcnFkpBbO//NssrRe6n18DIrgE/i6g6cDg==", "signing_algo": "Ed25519", "generation_timestamp": 1770828284, "identifier": "103ff549-2bf4-4220-abcc-74f2e2cc3443"}</recraft-signature></metadata></svg>