<svg xmlns="http://www.w3.org/2000/svg" height="1024" preserveAspectRatio="none" style="display: block;" version="1.1" viewBox="0 0 2048 2048" width="1024">
<path d="M 0 0 L 2048 0 L 2048 2048 L 0 2048 L 0 0 z" fill="rgb(254,254,254)" transform="translate(0,0)"></path>
<path d="M 1016.28 105.276 C 1045.21 103.519 1051.37 114.958 1058.09 141.496 C 1069.08 184.809 1059.33 226.074 1053.31 268.773 C 1051.4 283.106 1049.89 297.488 1048.78 311.905 C 1155.6 317.194 1268.94 341.31 1362.73 394.51 C 1384.89 357.293 1382.23 336.061 1400.02 299.543 C 1413.64 274.693 1431.11 234.448 1456.93 221.824 C 1468.73 216.058 1495.09 228.707 1497.1 242.533 C 1502.51 279.78 1471.46 323.175 1451.55 353.355 C 1443.56 365.461 1430.5 375.496 1422.39 387.799 C 1414.35 399.28 1410.18 406.528 1403.86 418.226 C 1494.85 471.856 1572.85 553.092 1630.24 641.166 C 1647.89 634.578 1662.4 627.334 1676.82 615.086 C 1708.34 588.309 1744.27 564.791 1783.85 551.949 C 1797.49 547.524 1811.67 548.694 1821.03 560.721 C 1842.95 592.178 1817.89 605.502 1797.17 621.332 C 1756.79 652.188 1693.54 659.337 1655.25 686.386 C 1667.78 706.532 1680.31 735.366 1689.19 757.453 C 1720.99 836.633 1735.77 917.423 1737.89 1002.55 C 1791.3 994.074 1847.65 981.312 1902.17 989.195 C 1937.74 994.338 1960.82 1030.59 1923.41 1053.85 C 1909.74 1062.34 1888.16 1063.44 1872.34 1063.6 C 1842.19 1063.92 1811.21 1059.83 1781.43 1055.31 C 1767.59 1053.16 1751.41 1051.18 1737.94 1047.31 C 1735.08 1138.49 1715.15 1228.32 1679.19 1312.15 C 1671.06 1331.01 1661.76 1348.93 1652.49 1367.22 C 1699.94 1381.66 1749.31 1400.25 1791.79 1425.98 C 1810.42 1437.27 1842.01 1458.41 1824.77 1483.48 C 1814.29 1498.72 1796.2 1496.36 1780.51 1492.43 C 1736.31 1480.48 1698.86 1451.91 1663.37 1424.19 C 1653.42 1416.42 1642.74 1409.29 1632.7 1401.79 C 1587.29 1472.78 1536.81 1528.2 1471.53 1581.35 C 1450.21 1598.71 1427.62 1616.39 1403.95 1630.42 C 1420.82 1658.63 1431.37 1674.46 1453.12 1699.93 C 1473.99 1724.38 1498 1769.9 1496.69 1802.81 C 1496.46 1808.46 1491.22 1816.73 1486.29 1819.65 C 1461.44 1835.08 1448.08 1824.32 1432.64 1804.66 C 1414.2 1780.74 1399.81 1753.94 1390.06 1725.35 C 1382.32 1702.72 1375.16 1675.58 1362.6 1655.3 L 1361.8 1654.02 C 1265.14 1704.86 1158.16 1732.98 1049 1736.23 C 1050.72 1759.48 1053.2 1781.19 1057.85 1804 C 1064.03 1834.31 1073.14 1938.98 1029.12 1943.24 C 1003.02 1943.09 998.659 1933.28 991.726 1909.32 C 974.854 1851.01 999.373 1794.12 999.114 1736.15 C 918.892 1734.23 833.22 1716.49 758.057 1688.32 C 732.001 1678.56 707.315 1665.22 682.083 1653.7 C 662.963 1705.24 655.004 1752.45 619.077 1797.39 C 604.232 1815.96 589.108 1839.71 562.242 1820.18 C 541.734 1805.27 551.026 1783.64 558.445 1764.59 C 578.105 1714.83 612.466 1673.67 644.647 1631.23 C 561.449 1582.02 461.696 1484.64 414.179 1399.82 C 370.673 1440.24 329.064 1470.4 273.532 1494.08 C 244.887 1512.25 209.425 1478.29 226.281 1452.7 C 255.494 1408.34 348.513 1380.51 393.054 1366.18 C 337.991 1259.3 316.173 1165.65 309.992 1046.61 C 266.418 1050.87 223.666 1063.47 179.168 1062.2 C 156.725 1063.06 103.25 1056.49 107.419 1023.35 C 114.556 966.619 225.447 988.903 261.051 993.666 C 277.322 995.903 293.645 997.741 310.006 999.178 C 312.5 976.756 312.821 954.436 315.892 930.682 C 327.945 837.449 352.799 765.064 394.928 682.224 C 343.07 666.701 292.148 649.272 246.924 618.753 C 227.515 606.161 211.717 587.398 226.199 564.07 C 238.646 544.019 255.234 548.489 273.522 555.328 C 309.105 568.634 341.276 589.74 371.203 612.764 C 386.497 624.531 399.688 636.664 415.954 646.448 C 485.455 543.789 542.72 483.769 648.082 416.214 C 640.863 404.075 630.553 393.113 621.548 382.098 C 607.914 365.421 590.986 345.482 579.527 327.167 C 568.057 308.835 545.872 265.708 550.825 243.341 C 552.958 234.451 559.675 227.938 567.427 223.729 C 587.086 213.054 599.615 225.801 612.309 239.517 C 652.685 283.141 659.776 343.433 684.405 394.342 C 702.928 385.125 720.119 376.308 739.243 368.212 C 822.287 333.423 911.043 314.272 1001.04 311.724 C 998.001 279.295 993.839 250.897 988.138 219.007 C 983.399 192.496 982.994 115.333 1016.28 105.276 z" fill="rgb(17,17,17)" transform="translate(0,0)"></path>
<path d="M 999.718 632.398 C 999.901 632.369 1000.08 632.341 1000.27 632.312 C 1054.92 627.776 1114.63 643.127 1156.75 679.321 C 1186.8 705.147 1210.06 744.672 1213.34 785.315 C 1218.25 846.266 1187.66 916.264 1157.58 968.416 C 1152.45 977.321 1140.39 991.163 1133.68 999.181 L 1136.38 998.038 C 1150.19 992.292 1154.01 985.472 1162.65 973.674 C 1204.38 1003.67 1233.89 1067.23 1250.1 1114.94 C 1271.74 1178.65 1278.25 1245.02 1332.69 1291.7 C 1367.57 1321.61 1421.35 1332.41 1453.33 1292.38 C 1466.77 1275.37 1472.88 1253.71 1470.32 1232.19 C 1468.25 1213.76 1461.08 1198.7 1446.26 1187.19 C 1433.22 1176.97 1416.58 1172.5 1400.18 1174.8 C 1386.8 1176.63 1372.72 1183.93 1364.2 1194.54 C 1360.31 1199.4 1360.08 1209.96 1353.22 1210.73 C 1349 1207.41 1345.7 1193.13 1347.58 1189.91 C 1363.33 1162.9 1401.23 1152.72 1425.86 1157.37 C 1447.79 1161.59 1467.18 1174.28 1479.83 1192.69 C 1494.83 1214.98 1497.86 1240.19 1492.77 1266.27 C 1486.94 1296.34 1469.39 1322.86 1444 1340 C 1418.62 1356.89 1383.68 1361.63 1354.55 1354.73 C 1234.27 1326.2 1181.29 1161.07 1119.89 1068.99 C 1117.71 1065.72 1115.52 1061.9 1111.66 1061.12 L 1110.29 1062.41 C 1110.6 1066.88 1120.81 1084.75 1123.15 1090.09 C 1158.54 1172.18 1144.8 1257.7 1133.69 1344.03 C 1125.55 1407.35 1122.81 1505.29 1199.11 1530.74 C 1246.82 1546.64 1300.65 1500.46 1270.15 1451.22 C 1258.87 1433.01 1235.74 1420.42 1215.22 1432.93 C 1201.5 1441.56 1199.39 1454.58 1196.42 1469.07 C 1193.55 1470.71 1195.1 1470.22 1191.5 1470.19 C 1183.05 1465.13 1181.96 1441.3 1187 1434.84 C 1244.2 1361.47 1335.41 1458.93 1295.19 1524.66 C 1267.15 1571.24 1188.68 1569.31 1147.35 1540.08 C 1029.11 1456.46 1076.14 1270.87 1041.13 1148.09 C 1038.19 1137.76 1031.12 1101.22 1024.29 1096.89 L 1022.12 1097.75 C 1018.36 1101.77 1017.49 1105.83 1015.67 1111.09 C 1000.65 1161.17 993.942 1211.95 989.026 1264.44 C 979.832 1361.14 986.083 1504.07 876.569 1547.11 C 830.265 1565.3 764.635 1552.23 745.593 1500.41 C 731.705 1462.61 749.023 1417.38 786.831 1401.73 C 799.582 1396.45 820.914 1398.24 832.725 1404.55 C 854.185 1415.37 870.42 1439.72 857.505 1463.56 C 855.43 1467.41 852.947 1470.55 848.64 1471.68 C 845.88 1469.48 847.553 1456.89 846.63 1451.72 C 842.41 1428.1 817.26 1409.43 793.184 1414.71 C 764.657 1420.96 763.649 1460.06 770.352 1482.62 C 775.383 1499.56 785.684 1512.85 801.426 1521.12 C 816.427 1529.18 834.077 1530.75 850.264 1525.45 C 871.834 1518.52 890.873 1499.5 900.467 1479.34 C 936.494 1403.62 902.371 1304.69 899.203 1225.09 C 897.161 1173.76 903.938 1119.44 928.121 1074.22 C 930.411 1069.94 932.717 1066.43 931.358 1062.27 L 930.405 1062.07 C 917.507 1067.29 841.283 1217.99 829.807 1238.95 C 794.716 1303.06 754.202 1360.51 672.864 1362.59 C 646.718 1363.11 621.476 1353.01 602.897 1334.61 C 581.356 1313.31 569.072 1284.39 568.705 1254.1 C 568.348 1229.63 575.934 1205.38 593.357 1187.69 C 606.932 1173.85 625.524 1166.07 644.914 1166.13 C 662.026 1166.09 676.396 1170.75 690.773 1184 C 710.007 1201.73 720.056 1242.19 703.67 1264.57 C 702.103 1266.7 694.653 1270.21 691.659 1269.29 C 673.987 1263.79 678.884 1243.26 677.698 1228.02 C 674.773 1190.45 641.14 1169.34 610.469 1197.99 C 598.145 1209.5 592.844 1232.04 592.922 1249.26 C 592.919 1271.41 601.831 1292.62 617.647 1308.12 C 647.229 1336.9 685.385 1329.19 714.548 1304.89 C 763.915 1263.77 774.519 1211.67 784.2 1152.03 C 791.617 1106.33 808.204 1056.37 835.919 1019.16 C 848.792 1001.87 864.437 986.203 879.486 970.326 C 885.698 977.734 895.687 997.444 906.341 995.912 C 906.857 990.754 897.883 983.562 894.79 979.232 C 862.223 933.639 835.437 877.055 827.829 821.221 C 821.743 776.562 840.422 731.613 868.4 697.774 C 899.234 659.65 951.967 637.069 999.718 632.398 z" fill="rgb(254,254,254)" transform="translate(0,0)"></path>
<path d="M 932.001 870.2 C 971.808 865.505 997.639 937.494 958.333 953.121 C 928.269 958.149 905.442 912.747 914.553 887.285 C 918.044 877.531 923.084 874.151 932.001 870.2 z" fill="rgb(17,17,17)" transform="translate(0,0)"></path>
<path d="M 931.071 877.15 C 964.605 872.835 987.478 930.555 958.027 946.311 C 929.755 950.474 902.369 896.441 931.071 877.15 z" fill="rgb(254,254,254)" transform="translate(0,0)"></path>
<path d="M 935.564 891.801 C 952.935 894.073 968.51 920.212 953.294 932.816 C 938.123 931.451 923.337 904.1 935.564 891.801 z" fill="rgb(17,17,17)" transform="translate(0,0)"></path>
<path d="M 1103.24 869.119 C 1143.27 869.622 1132.22 940.071 1088.9 951.513 C 1048.94 955.408 1054.53 879.343 1103.24 869.119 z" fill="rgb(17,17,17)" transform="translate(0,0)"></path>
<path d="M 1099.4 877.047 C 1137.56 875.578 1120.82 932.259 1090.87 944.454 C 1056.83 948.252 1064.6 891.005 1099.4 877.047 z" fill="rgb(254,254,254)" transform="translate(0,0)"></path>
<path d="M 1099.28 891.806 C 1103.55 891.535 1104.46 891.909 1107.53 894.867 C 1113.09 907.029 1100.92 924.72 1090.28 930.909 C 1069.83 930.851 1085.55 899.254 1099.28 891.806 z" fill="rgb(17,17,17)" transform="translate(0,0)"></path>
<path d="M 1009.55 595.438 C 1052.38 593.083 1100.7 600.218 1141.79 611.93 C 1333.45 666.556 1465.42 868.6 1443.85 1065.8 C 1440.58 1095.68 1434.49 1121.15 1426.23 1149.9 C 1408.93 1147.69 1400.81 1148.18 1384.13 1152.48 C 1397.18 1110.94 1405.13 1079.97 1406.4 1036.34 C 1409.55 930.579 1370.13 827.974 1296.97 751.527 C 1264.73 717.477 1223.53 687.317 1180.7 667.75 C 1160.73 658.625 1143.41 654.967 1124.99 648.109 C 1085.69 633.479 1067.2 625.86 1024.36 624.711 C 963.041 625.329 942.888 639.83 887.458 660.914 C 793.633 696.603 712.185 780.719 672.208 872.153 C 631.412 963.708 628.795 1067.75 664.934 1161.24 C 647.114 1158.34 642.439 1158.7 624.356 1161.7 C 611.122 1128.21 602.882 1081.8 601.176 1045.96 C 595.832 933.67 638.282 819.193 714.389 736.622 C 796.933 647.067 889.434 602.661 1009.55 595.438 z" fill="rgb(254,254,254)" transform="translate(0,0)"></path>
<path d="M 1593.2 729.073 C 1596.08 731.526 1606.01 755.642 1608.54 761.163 C 1644.98 840.67 1657.91 921.162 1662.06 1007.79 C 1608.96 1001.66 1555.81 995.934 1502.62 990.61 C 1485.55 988.724 1468.44 987.093 1451.31 985.717 C 1445.59 933.075 1433.63 890.571 1412.51 842.522 C 1472.61 806.013 1533.17 766.453 1593.2 729.073 z" fill="rgb(254,254,254)" transform="translate(0,0)"></path>
<path d="M 453.832 728.34 C 457.736 730.084 463.22 733.85 467.06 736.184 C 523.685 770.607 579.43 806.394 635.696 841.41 C 612.75 891.446 602.768 932.274 595.366 986.363 C 581.207 987.164 567.055 988.092 552.913 989.148 C 539.739 991.004 520.532 991.584 506.845 992.848 C 466.628 996.565 424.913 998.138 384.857 1002.97 C 385.96 907.641 413.548 814.01 453.832 728.34 z" fill="rgb(254,254,254)" transform="translate(0,0)"></path>
<path d="M 676.868 484.828 C 679.982 485.937 770.605 655.193 777.941 670.192 C 773.526 673.964 768.53 677.862 763.935 681.44 C 730.155 707.74 703.397 738.147 677.066 771.73 C 657.458 762.691 636.466 751.769 616.991 742.073 C 575.197 721.53 524.556 698.432 484.338 676.615 C 534.537 600.039 600.099 534.73 676.868 484.828 z" fill="rgb(254,254,254)" transform="translate(0,0)"></path>
<path d="M 980.553 387.408 C 986.333 386.777 996.872 386.834 1003.02 386.674 C 1002.87 404.126 1000.94 428.34 1000.09 446.401 C 997.74 493.94 995.67 541.493 993.88 589.057 C 933.323 594.862 906.293 603.778 850.579 626.241 C 839.043 608.834 821.081 586.255 808.324 568.343 C 781.559 531.945 754.068 492.709 726.525 457.226 C 814.817 415.88 881.822 395.357 980.553 387.408 z" fill="rgb(254,254,254)" transform="translate(0,0)"></path>
<path d="M 1371.15 484.606 C 1457.8 540.721 1505.78 593.849 1564.73 675.989 C 1521.79 695.559 1475.66 719.156 1433.37 740.322 C 1412.61 750.613 1391.72 760.647 1370.71 770.421 C 1343.23 730.991 1309.48 696.337 1270.78 667.84 C 1274.68 660.536 1279.05 653.14 1283.15 645.912 C 1313.32 592.702 1340.84 537.691 1371.15 484.606 z" fill="rgb(254,254,254)" transform="translate(0,0)"></path>
<path d="M 1045.03 386.642 C 1139.77 387.312 1232.48 415.875 1318.58 453.271 L 1248.43 552.574 C 1230.79 575.546 1214.43 600.558 1196.92 624.132 C 1141.98 602.866 1114.89 594.632 1054.99 589.167 C 1052.26 523.913 1050.3 451.263 1045.03 386.642 z" fill="rgb(254,254,254)" transform="translate(0,0)"></path>
<path d="M 384.97 1046.9 C 409.878 1048.16 444.519 1053.13 469.84 1056.02 C 511.952 1060.84 554.11 1065.24 596.307 1069.24 C 601.154 1108.86 604.916 1126.2 617.344 1163.92 C 610.286 1166.29 603.623 1169.7 597.576 1174.05 C 571.629 1192.91 562.119 1224.54 560.475 1254.58 C 560.3 1257.77 559.141 1257.57 556.555 1259.34 C 522.916 1278.39 487.504 1301.56 453.401 1321.4 C 443.333 1296.7 432.147 1273.41 422.828 1248.29 C 399.366 1183.66 386.579 1115.64 384.97 1046.9 z" fill="rgb(254,254,254)" transform="translate(0,0)"></path>
<path d="M 1645 1047.41 C 1648.38 1046.93 1657.54 1046.66 1661.32 1046.45 C 1659.73 1121.65 1638.12 1212.1 1609.77 1281.43 C 1605.78 1291.19 1596.53 1313.3 1591.37 1321.79 C 1560.36 1304.74 1529.69 1287.08 1499.38 1268.82 C 1508.87 1227.67 1497.45 1186.19 1459.77 1163 C 1451.07 1157.66 1442.69 1154.87 1433.05 1151.58 C 1442.94 1117.82 1447.86 1096.2 1451.24 1061.06 C 1468.79 1058.41 1500.42 1057.27 1518.92 1056.08 L 1645 1047.41 z" fill="rgb(254,254,254)" transform="translate(0,0)"></path>
<path d="M 584.176 1325.82 C 586.763 1326.38 599.47 1342.27 603.204 1345.39 C 652.242 1386.3 715.494 1371.78 764.708 1337.87 L 790.588 1357.57 C 781.993 1372.12 774.903 1386.61 766.755 1401.25 C 761.236 1411.17 750.46 1422.37 744.742 1432.59 C 726.846 1464.55 709.584 1497.01 692.819 1529.55 C 688.42 1538.8 680.456 1552.27 675.335 1561.59 C 620.81 1527.58 569.291 1480.46 527.988 1431.26 C 513.274 1413.73 498.675 1392.8 485.227 1374.07 C 496.853 1367.07 511.733 1360.51 524.101 1354.61 L 584.176 1325.82 z" fill="rgb(254,254,254)" transform="translate(0,0)"></path>
<path d="M 1473.52 1323.87 C 1500.76 1338.56 1532.56 1358.5 1560.02 1374.24 C 1550.79 1388.93 1537.55 1405.11 1526.96 1418.94 C 1480.2 1480.01 1433.42 1519.02 1370.76 1562.44 C 1366.12 1554.55 1358.77 1538.28 1354.48 1529.5 C 1328.19 1477.66 1304.51 1423.92 1278.78 1371.73 C 1274.74 1363.53 1270.79 1355.14 1267.39 1346.67 C 1275.16 1341.45 1280.46 1337.96 1287.19 1331.52 C 1325.24 1356.49 1359.36 1371.01 1405.92 1362.6 C 1436.91 1357 1451.42 1344.66 1473.52 1323.87 z" fill="rgb(254,254,254)" transform="translate(0,0)"></path>
<path d="M 977.167 1428.69 L 988.27 1430.41 C 990.635 1456.78 991.794 1485.86 993.535 1512.47 L 1003.85 1661.66 C 926.938 1658.28 857.439 1645 785.473 1616.93 C 768.467 1610.31 751.617 1603.3 734.937 1595.89 C 744.603 1577.71 753.079 1557.43 763.029 1538.54 C 805.711 1568.63 851.971 1570.32 898.528 1545.06 C 945.124 1519.77 963.308 1477.59 977.167 1428.69 z" fill="rgb(254,254,254)" transform="translate(0,0)"></path>
<path d="M 1066.18 1429.81 C 1069.89 1432.67 1074.81 1453.15 1077.44 1459.67 C 1082.8 1472.98 1088.91 1487.5 1096.55 1499.74 C 1117.08 1532.54 1149.74 1555.89 1187.42 1564.7 C 1222.02 1572.69 1255.15 1567.03 1285.07 1548.22 C 1295.16 1563.23 1305 1578.4 1314.59 1593.74 C 1299.41 1600.41 1283.56 1606.86 1268.25 1613.31 C 1192.04 1642.49 1131.59 1655.79 1049.64 1661.16 L 1063.26 1436.93 C 1063.64 1431.5 1063.14 1432.45 1066.18 1429.81 z" fill="rgb(254,254,254)" transform="translate(0,0)"></path>
<path d="M 1198.65 966.966 C 1202.38 968.539 1236.55 970.734 1243.91 971.333 L 1342.96 979.77 C 1359.27 981.206 1382.3 982.588 1397.69 985.211 C 1401.02 1007.67 1400.77 1039.23 1397.71 1061.35 L 1372.69 1062.85 C 1357.69 1063.1 1338 1065 1322.69 1066 C 1295.43 1067.77 1268.16 1069.33 1240.88 1070.68 C 1222.19 1029.6 1209.5 1009.33 1177.86 977.217 L 1198.65 966.966 z" fill="rgb(254,254,254)" transform="translate(0,0)"></path>
<path d="M 847.443 974.584 C 853.341 974.052 859.862 974.033 865.825 973.874 C 858.762 981.78 850.912 988.999 843.723 997.203 C 821.396 1022.68 809.47 1045.95 796.119 1076.23 C 754.184 1074.33 713.034 1071.3 671.25 1069.06 C 663.224 1069 656.661 1068.56 648.641 1067.91 C 645.308 1045.66 646.182 1009.51 648.218 987.274 L 847.443 974.584 z" fill="rgb(254,254,254)" transform="translate(0,0)"></path>
<path d="M 1642.34 705.933 L 1644.07 706.978 C 1651.17 718.559 1661.55 744.089 1666.71 757.068 C 1697.03 832.383 1714.07 912.387 1717.05 993.523 L 1675.75 993.63 C 1671.84 993.861 1669.41 994.615 1669.01 990.288 C 1668.19 981.477 1667.77 972.638 1667.17 963.807 C 1666.21 948.043 1664.49 932.335 1662 916.74 C 1648.85 837.76 1633.36 796.181 1600.24 724.781 C 1613.28 718.43 1628.68 712.326 1642.34 705.933 z" fill="rgb(254,254,254)" transform="translate(0,0)"></path>
<path d="M 1668.11 1058.92 C 1682.87 1058.53 1700.7 1059.81 1716.13 1059.91 C 1713.96 1150.44 1681.44 1262.78 1640.93 1343.28 C 1640.03 1344.75 1639.78 1344.96 1638.65 1346.28 C 1633.11 1346.4 1604.82 1328.99 1597.68 1324.91 C 1639.66 1243.54 1662.27 1150 1668.11 1058.92 z" fill="rgb(254,254,254)" transform="translate(0,0)"></path>
<path d="M 973.279 333.418 C 977.282 332.924 983.564 333.042 987.778 332.981 C 987.58 348.684 987.736 364.697 987.729 380.426 C 921.096 383.781 855.377 397.367 792.876 420.707 C 781.204 425.005 732.292 447.525 725.06 448.375 L 723.549 446.71 C 716.962 433.517 709.851 420.592 702.233 407.966 C 784.739 364.472 880.679 340.943 973.279 333.418 z" fill="rgb(254,254,254)" transform="translate(0,0)"></path>
<path d="M 407.428 700.536 C 421.454 708.159 434.432 715.742 448.19 723.818 C 419.579 779.777 399.317 839.624 388.048 901.455 C 384.142 923.334 381.305 945.391 379.545 967.547 C 379.154 972.55 378.323 990.965 376.727 993.597 L 373.25 993.948 C 359.122 993.927 344.995 993.641 330.877 993.092 C 340.818 876.043 356.445 807.846 407.428 700.536 z" fill="rgb(254,254,254)" transform="translate(0,0)"></path>
<path d="M 1057.29 332.937 C 1141.61 331.89 1267.51 366.859 1341.6 405.671 C 1337.59 413.802 1331.83 423.439 1327.32 431.477 C 1324.59 435.699 1321.97 440.768 1319.52 445.22 C 1230.85 407.684 1154.64 384.588 1057.16 380.424 C 1057.11 364.595 1057.15 348.766 1057.29 332.937 z" fill="rgb(254,254,254)" transform="translate(0,0)"></path>
<path d="M 726.196 1599.69 C 787.379 1629.86 852.783 1650.57 920.177 1661.13 C 942.183 1664.44 965.363 1666.21 987.599 1668.06 C 988.087 1682.33 987.471 1699.67 987.334 1714.17 C 981.091 1714.14 975.064 1713.86 968.832 1713.58 C 886.115 1708.36 777.741 1681.78 704.832 1641.45 C 713.154 1628.67 719.779 1613.58 726.196 1599.69 z" fill="rgb(254,254,254)" transform="translate(0,0)"></path>
<path d="M 1316.25 1600.83 L 1318.39 1600.86 C 1323.95 1605.52 1338.14 1631.98 1343.18 1640.29 C 1261.92 1680.17 1173.98 1704.68 1083.81 1712.59 C 1075.04 1713.52 1067.66 1713.9 1058.83 1714.23 L 1058.32 1667.17 C 1079.44 1666.62 1099.34 1663.73 1120.09 1661.03 C 1190.71 1651.87 1251.74 1630.06 1316.25 1600.83 z" fill="rgb(254,254,254)" transform="translate(0,0)"></path>
<path d="M 354.298 1060.49 C 361.81 1060.56 370.288 1060.18 377.877 1060.02 C 385.723 1165.93 402.064 1228.12 447.439 1324.49 L 420.55 1339.68 L 407.367 1347.12 C 397.953 1330.88 388.015 1306.9 380.788 1289.47 C 349.523 1214.07 337.305 1141.78 331.308 1060.92 L 354.298 1060.49 z" fill="rgb(254,254,254)" transform="translate(0,0)"></path>
<path d="M 1565.53 1380.47 C 1572 1382.64 1599.52 1399.92 1605.98 1403.96 C 1549.5 1486.91 1491.17 1545.05 1409.14 1602.23 C 1405.52 1604.87 1401 1607.58 1397.16 1610.02 C 1390.32 1596.49 1381.71 1581.68 1374.28 1568.35 C 1397.14 1555.17 1417.57 1538.97 1438.15 1522.55 C 1487.98 1482.8 1528.48 1431.99 1565.53 1380.47 z" fill="rgb(254,254,254)" transform="translate(0,0)"></path>
<path d="M 1402.56 441.443 C 1408.44 444.215 1429.02 458.818 1435.07 463.167 C 1498.54 508.779 1567.67 579.605 1609.55 645.882 C 1601.32 651.717 1588.91 657.905 1579.78 662.804 L 1568.99 669.107 C 1529.9 613.672 1492.58 567.79 1439.19 524.773 C 1418.19 507.849 1398.53 494.617 1377.43 478.65 C 1385.53 467.887 1394.25 453.198 1402.56 441.443 z" fill="rgb(254,254,254)" transform="translate(0,0)"></path>
<path d="M 641.923 444.222 C 645.158 448.033 662.814 477.345 665.968 482.616 C 647.762 495.93 630.309 508.399 612.682 522.468 C 557.377 566.607 520.595 613.202 478.955 669.295 L 470.513 664.099 C 459.863 657.845 450.137 652.25 439.994 645.167 C 484.578 573.134 571.018 489.879 641.923 444.222 z" fill="rgb(254,254,254)" transform="translate(0,0)"></path>
<path d="M 479.715 1381.35 C 483.807 1384.95 493.2 1398.79 497.073 1403.92 C 506.139 1415.93 515.011 1427.9 524.684 1439.51 C 566.108 1489.24 614.932 1532.32 669.443 1567.22 C 661.484 1580.45 653.719 1594.51 646.15 1607.98 L 639.315 1603.1 C 553.743 1543.34 501.429 1491.47 442.506 1405.7 C 454.522 1398.61 467.496 1389.05 479.715 1381.35 z" fill="rgb(254,254,254)" transform="translate(0,0)"></path>
<path d="M 681.713 866.33 C 693.98 871.981 723.075 889.914 736.079 897.424 L 856.285 967.851 C 841.258 968.577 826.243 969.524 811.245 970.691 C 757.65 974.682 701.901 977.196 648.642 982.16 C 654.327 938.292 665.152 907.062 681.713 866.33 z" fill="rgb(254,254,254)" transform="translate(0,0)"></path>
<path d="M 993.217 1431.03 C 1019.95 1433.5 1031.82 1433.24 1058.31 1431.12 C 1058.22 1500.79 1048.47 1579.26 1045.84 1650.25 L 1045.07 1661.52 C 1032.9 1662.24 1020.43 1661.95 1008.22 1661.86 C 1007.53 1633.53 1004.08 1598.13 1002.12 1569.42 L 993.217 1431.03 z" fill="rgb(254,254,254)" transform="translate(0,0)"></path>
<path d="M 1023.46 1113.75 C 1026.26 1118.34 1029.94 1136.77 1031.32 1142.74 C 1049.04 1219.65 1049.42 1297.95 1058.21 1375.82 C 1046.93 1376.95 1035.59 1377.48 1024.25 1377.4 C 1011.24 1377.12 1000.01 1376.65 987.05 1375.63 C 990.215 1359.04 992.229 1322.3 993.781 1303.96 C 998.802 1244.63 1005.71 1170.53 1023.46 1113.75 z" fill="rgb(254,254,254)" transform="translate(0,0)"></path>
<path d="M 1004.06 1736.3 L 1044.63 1736.25 C 1045.86 1767.09 1051.23 1792.02 1055.96 1822 C 1060.85 1852.96 1062.05 1910.76 1039.45 1935.22 C 1014.97 1949.16 1002.17 1929.86 996.341 1908.73 C 980.199 1850.21 1003.02 1795.04 1004.06 1736.3 z" fill="rgb(254,254,254)" transform="translate(0,0)"></path>
<path d="M 592.49 991.419 L 594.076 991.557 C 593.538 990.506 594.64 1056.3 595.125 1063.36 C 576.043 1062.49 549.532 1058.91 530.113 1056.87 L 408.245 1044.14 L 384.898 1041.77 C 384.701 1030.26 384.723 1018.62 384.663 1007.09 C 413.767 1004.43 444.06 1002.77 473.307 1000.64 L 592.49 991.419 z" fill="rgb(254,254,254)" transform="translate(0,0)"></path>
<path d="M 1850.37 991.411 C 1873.5 988.789 1913.59 990.721 1931.53 1007.83 C 1942 1017.81 1938.38 1037.93 1927.84 1045.81 C 1903.27 1064.17 1858.52 1059.02 1829.65 1056.86 C 1799.01 1053.36 1768.48 1048.91 1738.12 1043.51 C 1738.65 1031.45 1738.3 1019.53 1738.09 1007.47 C 1778.02 1000.44 1809.96 994.662 1850.37 991.411 z" fill="rgb(254,254,254)" transform="translate(0,0)"></path>
<path d="M 1022.45 109.302 C 1045.63 110.928 1050.35 126.964 1054.78 146.986 C 1064.33 190.1 1054.12 230.14 1048.16 272.523 C 1046.33 285.492 1045.03 298.53 1044.28 311.605 L 1028.88 311.437 L 1005.49 311.552 C 1002.91 252.084 973.027 176.004 1004.93 119.282 C 1008.55 112.835 1015.47 110.388 1022.45 109.302 z" fill="rgb(254,254,254)" transform="translate(0,0)"></path>
<path d="M 169.592 990.422 C 203.406 987.9 272.209 1000.36 310.048 1003.58 L 309.87 1041.56 C 289.834 1045.62 266.563 1048.82 246.204 1052.09 C 234.834 1053.75 223.431 1055.18 212.002 1056.37 C 183.907 1059.14 142.412 1061.16 118.717 1042.18 C 107.209 1032.96 107.529 1017.92 117.569 1007.42 C 131.3 993.061 150.838 991.353 169.592 990.422 z" fill="rgb(254,254,254)" transform="translate(0,0)"></path>
<path d="M 1366.43 868.876 C 1378.11 877.674 1394.62 962.15 1397.46 979.243 C 1349.85 974.416 1301.56 970.687 1253.82 966.199 C 1238.14 965.29 1222.69 963.517 1206.76 962.751 C 1220.88 953.493 1238.61 944.182 1253.29 935.326 C 1290.59 912.818 1329.32 891.619 1366.43 868.876 z" fill="rgb(254,254,254)" transform="translate(0,0)"></path>
<path d="M 1392.7 1067.49 C 1395.07 1067.54 1393.98 1067.27 1395.98 1068.2 C 1399.21 1080.88 1380.47 1142.87 1374.23 1157.42 C 1364.1 1162.86 1359.42 1166.51 1351.01 1174.35 L 1291.51 1134.8 C 1280.03 1127.91 1268.77 1120.66 1257.74 1113.06 C 1253.08 1100.88 1248.27 1088.76 1243.33 1076.68 C 1263.2 1074.43 1288.8 1073.61 1308.94 1072.49 L 1392.7 1067.49 z" fill="rgb(254,254,254)" transform="translate(0,0)"></path>
<path d="M 1451.98 991.025 C 1467.64 991.22 1511.82 996.287 1528.95 998.294 C 1571.03 1003.23 1621.15 1006.65 1662.52 1013.37 C 1662.56 1022.6 1662.15 1032.56 1661.95 1041.84 L 1650.65 1042.85 C 1643.33 1042.98 1635.82 1043.59 1628.5 1044.05 C 1569.84 1047.7 1510.88 1052.98 1452.17 1055.45 C 1454.02 1038.63 1453.2 1007.9 1451.98 991.025 z" fill="rgb(254,254,254)" transform="translate(0,0)"></path>
<path d="M 650.701 1073.46 C 679.13 1074.97 707.545 1076.74 735.942 1078.77 C 754.846 1080 775.091 1080.76 793.79 1082.71 C 790.363 1094.56 786.814 1108.09 782.494 1119.52 C 774.953 1123.88 761.174 1134.24 753.461 1139.73 C 735.095 1151.96 714.363 1168.13 695.914 1179 C 686.984 1171.01 683.871 1168.81 672.965 1163.92 C 666.951 1147.45 646.803 1089.33 650.701 1073.46 z" fill="rgb(254,254,254)" transform="translate(0,0)"></path>
<path d="M 1142.98 1123.78 C 1147.33 1128.32 1171.12 1175.34 1176.3 1184.52 C 1208.47 1241.55 1234.81 1282.01 1281.9 1327.07 C 1246.62 1357.7 1201.89 1381.25 1158.24 1397.4 C 1150.67 1400.21 1144.56 1401.9 1136.74 1404.03 C 1136.8 1389.6 1137.23 1378.02 1139.31 1363.65 C 1182.38 1348.12 1216.51 1330.08 1252.44 1301.06 C 1244.18 1293.9 1235.65 1284.65 1227.42 1277.82 C 1204.06 1258.45 1178.59 1236.8 1153.95 1219.31 C 1153 1180.1 1150.37 1162.16 1142.98 1123.78 z" fill="rgb(254,254,254)" transform="translate(0,0)"></path>
<path d="M 1007.76 386.021 C 1018.89 385.937 1030.01 385.967 1041.14 386.111 C 1041.81 431.545 1045.72 479.733 1047.14 525.352 C 1047.52 537.432 1050.58 577.405 1049.37 587.61 C 1046.58 589.158 1043.4 588.525 1040.04 588.361 C 1025.87 588.039 1013.19 588.401 998.993 588.897 C 998.827 564.21 1001.08 532.894 1002.22 507.914 L 1007.76 386.021 z" fill="rgb(254,254,254)" transform="translate(0,0)"></path>
<path d="M 1248.17 716.859 C 1271.12 731.76 1310.25 774.25 1326.47 796.623 C 1306.07 806.102 1285.57 816.637 1265.25 826.505 C 1248.62 834.079 1230.45 844.453 1214.23 851.244 C 1220.77 824.47 1223.19 800.038 1218.7 772.858 C 1227.33 753.628 1237.88 735.248 1248.17 716.859 z" fill="rgb(254,254,254)" transform="translate(0,0)"></path>
<path d="M 1174.98 1399.04 C 1177.79 1399.87 1189.63 1413.23 1193.14 1416.74 C 1183.38 1426.98 1176.47 1435.66 1176.72 1451.02 C 1176.88 1461.17 1183.92 1479.36 1196.93 1477.97 C 1197.78 1477.87 1202.18 1475.88 1202.32 1475.18 C 1205.06 1461.7 1205.69 1452.58 1214.79 1441.68 L 1215.71 1440.6 C 1230.83 1462.67 1246.76 1484.19 1262.64 1505.71 C 1262.55 1506.46 1262.46 1507.21 1262.37 1507.96 C 1236.84 1533.58 1197.3 1531.17 1172.2 1506.77 C 1146.71 1481.99 1137.9 1446.08 1136.72 1411.74 C 1149.25 1408.49 1162.66 1403.4 1174.98 1399.04 z" fill="rgb(254,254,254)" transform="translate(0,0)"></path>
<path d="M 800.527 717.765 C 807.794 725.305 820.211 748.996 825.966 759.401 C 817.792 793.253 817.445 815.506 826.29 849.504 C 811.205 843.267 792.169 832.997 777.281 825.429 L 722.799 797.096 C 745.873 768.017 771.924 741.428 800.527 717.765 z" fill="rgb(254,254,254)" transform="translate(0,0)"></path>
<path d="M 851.86 1392.1 C 873.394 1403.6 886.067 1407.27 909.237 1413.73 C 906.511 1462.38 884.85 1518.73 828.919 1521.8 C 813.304 1520.41 806.262 1516.67 794.097 1507.71 C 808.38 1491.21 827.994 1477.25 850.328 1478.08 C 858.164 1478.34 865.3 1467.24 867.204 1460.55 C 874.137 1436.18 862.381 1419.1 844.848 1404.58 L 851.86 1392.1 z" fill="rgb(254,254,254)" transform="translate(0,0)"></path>
<path d="M 796.97 1304.51 C 798.404 1305.18 815.317 1317.96 819.193 1320.38 C 848.259 1338.49 873.921 1353.08 907.156 1362.67 C 909.045 1378.15 909.538 1390.92 909.442 1406.53 C 902.938 1404.59 896.461 1402.57 890.014 1400.45 C 847.483 1387.45 805.75 1360.33 770.477 1333.88 C 779.715 1324.47 788.554 1314.67 796.97 1304.51 z" fill="rgb(254,254,254)" transform="translate(0,0)"></path>
<path d="M 1399.36 1182.23 C 1404.81 1181.74 1410.63 1181.82 1416.13 1181.76 C 1403.73 1212.54 1388.68 1238.82 1371.83 1267.17 C 1390.24 1280.55 1410.32 1290.59 1428.74 1303.63 C 1420.35 1307.52 1413.98 1309.27 1404.99 1310.71 C 1379.02 1313.08 1356.55 1300.31 1336.51 1285.4 C 1346.19 1275.37 1367.1 1238.16 1373.93 1224.33 C 1375.68 1220.78 1378.63 1209.9 1379.22 1205.63 C 1380.41 1197.04 1380.6 1197.95 1376.3 1191.97 C 1379.48 1186.71 1393.46 1183.47 1399.36 1182.23 z" fill="rgb(254,254,254)" transform="translate(0,0)"></path>
<path d="M 900.729 1121.82 C 900.606 1126.3 896.095 1146.39 895.202 1152.83 C 891.679 1177.78 890.629 1203.01 892.067 1228.16 C 861.597 1252.94 832.239 1275.7 801.501 1301.17 L 800.612 1300.09 C 802.938 1295.25 809.654 1286.6 813 1281.29 C 821.452 1267.64 829.659 1253.84 837.617 1239.89 C 859.546 1200.62 877.329 1160.84 900.729 1121.82 z" fill="rgb(254,254,254)" transform="translate(0,0)"></path>
<path d="M 985.788 1382.96 C 1013.33 1383.3 1031.53 1383.78 1059.56 1382.85 C 1061.44 1395.57 1064.59 1410.4 1065.79 1422.81 C 1063.78 1424.62 1063.02 1424.12 1059.74 1424.55 C 1027.36 1425.85 1010.6 1425.79 978.444 1422.78 C 981.691 1410.76 983.904 1395.32 985.788 1382.96 z" fill="rgb(254,254,254)" transform="translate(0,0)"></path>
<path d="M 1010.53 332.469 C 1024.63 332.02 1038.75 332.218 1052.83 333.061 L 1052.7 380.229 L 1036.5 380.033 C 1021.66 379.964 1006.81 380.037 991.971 380.251 L 992.087 333.001 L 1010.53 332.469 z" fill="rgb(254,254,254)" transform="translate(0,0)"></path>
<path d="M 992.001 1668.13 C 1012.55 1669.06 1032.93 1668.46 1053.47 1667.92 L 1054.04 1714.29 C 1036.53 1715.45 1009.42 1715.36 992.056 1714.36 L 992.001 1668.13 z" fill="rgb(254,254,254)" transform="translate(0,0)"></path>
<path d="M 1346.91 408.082 C 1364.23 416.817 1382.89 428.462 1399.64 438.566 C 1391.05 451.454 1383.22 461.873 1374.99 475.376 L 1374.71 475.568 C 1370.96 475.825 1330.93 451.014 1323.95 447.202 C 1330.93 434.103 1339.07 420.675 1346.91 408.082 z" fill="rgb(254,254,254)" transform="translate(0,0)"></path>
<path d="M 1672.76 998.505 C 1687.42 998.171 1702.4 998.179 1717.1 998.03 C 1717.32 1006.72 1717.64 1049.49 1715.38 1055.46 L 1713.23 1055.86 C 1699.7 1054.71 1682.67 1054.78 1668.54 1054.09 C 1668.91 1046.79 1669.27 1001.33 1670.22 999.128 L 1672.76 998.505 z" fill="rgb(254,254,254)" transform="translate(0,0)"></path>
<path d="M 673.364 1569.82 C 689.213 1578.99 705.148 1588.02 721.167 1596.89 C 718.066 1604.23 704.58 1634.1 700.755 1639.02 C 683.148 1628.93 667.931 1622.6 650.254 1610.71 C 658.305 1598 666.071 1583.14 673.364 1569.82 z" fill="rgb(254,254,254)" transform="translate(0,0)"></path>
<path d="M 449.961 1328.85 C 452.127 1330.5 474.822 1370.93 477.997 1376.33 L 439.737 1401.87 C 430.771 1389.58 416.535 1365.3 409.91 1351.74 C 423.195 1344 436.546 1336.37 449.961 1328.85 z" fill="rgb(254,254,254)" transform="translate(0,0)"></path>
<path d="M 1611.49 650.94 L 1612.68 651.219 C 1618.3 656.233 1637.12 692.135 1641 700.502 C 1627.93 707.002 1613.68 713.382 1600.4 719.614 L 1599.85 719.649 C 1597.12 718.459 1574.79 678.678 1571.73 672.822 C 1584.72 665.113 1598.16 658.066 1611.49 650.94 z" fill="rgb(254,254,254)" transform="translate(0,0)"></path>
<path d="M 695.968 410.833 C 699.762 413.286 715.946 445.12 719.094 451.242 C 701.49 460.729 688.001 468.338 671.356 479.368 C 662.784 467.025 654.627 453.698 646.675 440.909 C 664.658 428.4 676.735 421.364 695.968 410.833 z" fill="rgb(254,254,254)" transform="translate(0,0)"></path>
<path d="M 331.003 997.938 L 377.344 998.522 C 377.104 1017.55 377.065 1036.59 377.227 1055.62 C 361.894 1055.91 346.558 1056.04 331.222 1056.02 C 330.829 1036.66 330.756 1017.3 331.003 997.938 z" fill="rgb(254,254,254)" transform="translate(0,0)"></path>
<path d="M 1368.63 1571.92 L 1369.58 1571.99 C 1373.11 1574.9 1391.04 1605.31 1395.04 1611.69 C 1383.72 1619.12 1360.25 1631.7 1348.28 1637.74 L 1347.18 1638.28 C 1343.67 1636.61 1326.69 1603.93 1323.89 1598.04 C 1332.69 1591.6 1358.17 1577.93 1368.63 1571.92 z" fill="rgb(254,254,254)" transform="translate(0,0)"></path>
<path d="M 1594.99 1328.87 C 1608.82 1336.37 1622.59 1343.99 1636.29 1351.72 C 1628.52 1367.41 1617.99 1384.51 1608.99 1399.48 C 1604.96 1398.48 1574.81 1380.06 1568.25 1376.47 C 1577.65 1360.89 1586.57 1345.01 1594.99 1328.87 z" fill="rgb(254,254,254)" transform="translate(0,0)"></path>
<path d="M 435.754 649.483 C 443.716 652.847 469.921 668.916 476.437 674.163 C 467.938 686.304 457.684 706.143 450.264 719.649 C 436.945 712.452 422.116 703.123 408.981 695.264 C 415.581 680.261 426.439 663.002 435.754 649.483 z" fill="rgb(254,254,254)" transform="translate(0,0)"></path>
<path d="M 680.688 1271.96 C 687.065 1273.88 690.655 1275.25 697.328 1275.45 L 712.56 1297.77 C 695.21 1311.06 679.965 1318.24 658.032 1318.96 C 644.526 1317.33 634.894 1313.62 624.689 1304.87 C 646.064 1294.7 661.536 1286.02 680.688 1271.96 z" fill="rgb(254,254,254)" transform="translate(0,0)"></path>
<path d="M 825.612 1429.62 C 840.398 1441.39 842.256 1455.15 837.689 1472.38 C 815.727 1478.2 804.705 1484.35 790.189 1502.21 C 789.417 1502.58 790.021 1502.36 788.287 1501.87 C 782.355 1494.53 779.321 1487.91 775.965 1479.2 C 785.967 1465.23 811.979 1441.23 825.612 1429.62 z" fill="rgb(254,254,254)" transform="translate(0,0)"></path>
<path d="M 1423.9 1183.52 C 1453.87 1195.37 1462.05 1215.35 1464.52 1245.4 L 1454.4 1239.45 C 1439.68 1230.25 1425.15 1220.97 1409.93 1212.6 C 1413.67 1203.8 1419.61 1192.35 1423.9 1183.52 z" fill="rgb(254,254,254)" transform="translate(0,0)"></path>
<path d="M 758.405 1225.96 L 759.769 1226.52 C 755.444 1243.37 732.647 1279.12 719.385 1291.56 L 717.941 1291.46 L 714.552 1287.3 C 710.816 1281.87 708.76 1278.28 705.604 1272.48 C 715.862 1262.06 716.676 1258.98 719.033 1244.49 C 733.534 1239.7 745.187 1233.27 758.405 1225.96 z" fill="rgb(254,254,254)" transform="translate(0,0)"></path>
<path d="M 1314.55 1230.55 C 1325.52 1236.12 1341 1246.1 1350.52 1253.75 C 1345.61 1261.7 1340.17 1269.59 1334.94 1277.36 L 1332.73 1279.86 L 1330.65 1279.76 C 1321.16 1273.22 1310.05 1257.55 1303.8 1247.76 C 1308.75 1241.49 1310.96 1237.57 1314.55 1230.55 z" fill="rgb(254,254,254)" transform="translate(0,0)"></path>
<path d="M 633.105 1191.8 C 638.143 1191.57 644.609 1205.28 647.248 1209.79 C 636.657 1213.21 621.435 1222.7 611.5 1228.55 L 600.651 1234.94 C 601.82 1230.36 603.252 1225.85 604.941 1221.43 C 610.809 1205.74 618.213 1198.54 633.105 1191.8 z" fill="rgb(254,254,254)" transform="translate(0,0)"></path>
<path d="M 645.488 1192.43 C 661.5 1196.47 668.826 1214.38 671.158 1229.23 C 663.547 1223.11 650.764 1201.2 645.488 1192.43 z" fill="rgb(254,254,254)" transform="translate(0,0)"></path>
<path d="M 1290.29 1218.44 C 1296.27 1220.97 1304.86 1225.68 1310.86 1228.73 L 1304.8 1234.82 C 1303.62 1236.54 1303.03 1237.16 1301.65 1238.74 L 1300.04 1238.15 C 1296.28 1233.87 1292.84 1224.22 1290.29 1218.44 z" fill="rgb(254,254,254)" transform="translate(0,0)"></path>
<path d="M 1371.85 1195.79 C 1373.92 1198.61 1374.96 1204.34 1373.13 1207.52 C 1371.74 1209.93 1369.21 1209.59 1366.6 1210.03 L 1365.62 1209.59 C 1364.91 1205.14 1369.25 1199.66 1371.85 1195.79 z" fill="rgb(254,254,254)" transform="translate(0,0)"></path>
<metadata><recraft-signature>{"signed_by": "recraft", "signature_b64": "KGyOSGdHnPt/BXDlq3Upy6jnCB+Y2CywbT4b4FJeOYh0XfVAgKqmlMCBej3S+lcwkabcsizYhaS2lVSayB2mCA==", "signing_algo": "Ed25519", "generation_timestamp": 1770819337, "identifier": "16416cc4-485f-4365-a0f1-da50d94a0b6d"}</recraft-signature></metadata></svg>