<svg xmlns="http://www.w3.org/2000/svg" height="1024" preserveAspectRatio="none" style="display: block;" version="1.1" viewBox="0 0 2048 2048" width="1024">
<path d="M 0 0 L 2048 0 L 2048 2048 L 0 2048 L 0 0 z" fill="rgb(255,255,255)" transform="translate(0,0)"></path>
<path d="M 922.794 74.4238 C 952.109 71.8732 1007.36 77.2691 1035.57 84.7046 C 1207.72 130.09 1372.41 271.143 1462.61 420.547 C 1475.65 415.864 1488.57 414.36 1502.15 416.819 C 1541.69 423.975 1565.12 466.475 1557.08 504.496 C 1550.57 535.327 1534.94 555.294 1509.28 572.579 C 1510.09 574.069 1510.85 575.578 1511.58 577.105 C 1527.49 610.099 1509.32 638.868 1478.59 652.509 C 1510.11 696.513 1531.75 745.529 1528.76 800.498 C 1519.66 815.745 1504.62 820.609 1492.13 831.231 C 1486.89 835.68 1478.32 847.24 1472.46 853.135 C 1458.62 867.068 1445.29 876.638 1429.49 888.013 C 1487.01 903.568 1540.24 932 1585.15 971.158 C 1628.68 1009.63 1668.83 1069.98 1672.5 1129.07 C 1705.34 1151.3 1762.78 1169 1801.38 1152.12 C 1813.49 1146.82 1826.3 1135.5 1830.36 1122.57 C 1847.28 1068.63 1787.42 1043.51 1750.58 1021.79 C 1683.69 983.228 1624.42 936.558 1592.46 864.46 C 1547.39 762.803 1578.62 637.96 1687 594.13 C 1718.03 581.533 1756.72 577.533 1788.19 590.348 C 1812.08 599.896 1831.1 618.684 1840.94 642.452 C 1856.63 680.347 1850.57 715.518 1835.69 751.865 C 1827.17 714.166 1802.75 667.518 1762.06 659.758 C 1717.94 651.345 1680.48 702.334 1673.08 739.747 C 1653.98 828.093 1748.06 864.835 1812.25 898.196 C 1901.38 944.522 1985.91 1021.44 1960.94 1134.1 C 1927.02 1287.05 1765.47 1323.12 1630.61 1293.13 C 1606.1 1327.24 1584.43 1349.83 1556.43 1380.56 C 1518.8 1422.29 1454.29 1473.16 1453.21 1534.2 C 1452.29 1633.44 1609.78 1674.33 1672.5 1610.41 C 1734.99 1546.74 1670.99 1471.29 1615.62 1431.67 C 1606.14 1424.88 1588.35 1412.31 1580.5 1404.61 C 1628.1 1408.98 1666.39 1415.22 1706.83 1444.63 C 1739.9 1468.51 1762 1504.67 1768.17 1544.99 C 1774.76 1589.31 1763.48 1634.42 1736.82 1670.43 C 1708.41 1708.63 1668.5 1731.74 1621.75 1738.73 C 1605.06 1763.15 1574.11 1767.81 1553.12 1745.86 C 1537.31 1746.42 1525.85 1743.83 1511.94 1743.38 C 1489.09 1742.64 1477.18 1752.54 1457.01 1730.92 C 1446.16 1719.28 1453.89 1715.04 1442.48 1706.08 C 1427.83 1705.64 1416.9 1704.6 1404.99 1694.36 C 1393.2 1683.64 1396.75 1672.22 1390.44 1656.63 C 1382 1635.78 1362.77 1622.53 1356.62 1602.23 C 1351.46 1585.22 1361.98 1561.19 1355.16 1543.68 C 1348.05 1525.4 1347.18 1509.13 1361.78 1494.56 C 1362.75 1490.13 1364.34 1483.06 1364.54 1479.01 C 1365.14 1466.68 1363.12 1446.27 1371.81 1436.37 C 1385.05 1421.28 1386.06 1426.96 1395.32 1407.63 C 1390.67 1374.75 1411.67 1370.64 1428.13 1345.66 C 1425.16 1325.9 1426.11 1313.76 1444.79 1302.36 C 1448.35 1295.44 1450.56 1290.55 1453.49 1283.34 C 1448.83 1268.51 1449.66 1261.37 1456.01 1248.14 C 1467.96 1223.27 1460.66 1178.24 1449.78 1153.39 C 1428.68 1105.21 1393.67 1075.61 1346 1055.87 C 1361.83 1110.58 1360.04 1175.42 1345.01 1230.25 C 1337.13 1258.72 1325.77 1286.12 1311.17 1311.81 C 1271.94 1380.15 1202.49 1448.85 1139.61 1495.93 C 1107.19 1520.21 1068.91 1542.57 1033.62 1562.17 C 1018.67 1570.47 1003.59 1578.89 988.835 1587.5 C 939.214 1616.44 888.857 1657.8 872.668 1715.13 C 867.016 1735.1 866.324 1764.35 877.396 1783.41 C 914.715 1838.5 1024.52 1755.67 1064.59 1734.44 C 1089.28 1721.36 1110.88 1708.59 1136.61 1699.17 C 1174.49 1685.56 1211.87 1679.42 1251.59 1688.03 C 1343.71 1707.98 1381.21 1823.96 1293.87 1878.18 C 1300.32 1859.62 1305.89 1845.72 1305.88 1825.84 C 1306.44 1785.25 1265.27 1757.05 1227.32 1758.71 C 1164.56 1761.45 1115.77 1820.25 1069.6 1857.25 C 1061 1864.17 1052.14 1870.75 1043.03 1876.97 C 1037.3 1880.82 1031.55 1881.81 1030.49 1888.36 C 1029.02 1897.4 1021.86 1904.36 1014.74 1909.45 C 992.139 1925.62 963.62 1911.75 941.958 1930.79 C 940.009 1932.5 937.428 1936.24 935.32 1937.73 C 924.1 1945.7 909.077 1948.46 895.539 1946.84 C 885.482 1945.4 881.45 1942.88 875.885 1935.52 C 867.339 1935.39 859.179 1935.43 850.727 1934.07 C 818.853 1928.92 791.441 1933.96 776.06 1898.42 L 774.334 1889.89 C 755.999 1879.31 753.743 1871.2 740.881 1855.55 C 732.188 1845.93 722.637 1838.35 718.744 1825.38 C 714.208 1810.25 718.318 1799.66 724.806 1786.44 C 720.309 1744.56 727.372 1702.24 745.228 1664.09 C 735.399 1668.55 733.887 1669.12 723.234 1669.19 C 714.474 1678.15 707.7 1689.74 697.139 1697.5 C 687.109 1705 674.294 1707.8 665.925 1717.73 C 627.201 1763.67 625.047 1828.26 644.101 1883.04 C 654.922 1914.15 669.157 1937.03 693.307 1959.05 C 608.077 1937.16 536.943 1867.25 538.788 1774.88 C 540.85 1671.59 621.425 1592.03 698.731 1534.29 C 736.183 1506.32 777.755 1482.37 815.783 1454.87 C 840.772 1436.58 864.546 1416.68 886.954 1395.31 C 990.593 1295.93 1051.64 1145.36 1054.69 1002.61 C 1029.62 1010.07 996.435 1029.3 981.511 1051.12 C 965.703 1074.23 962.725 1091.61 933.229 1101.04 C 923.462 1142.39 908.774 1168.61 869.138 1186.76 C 870.868 1220.5 857.285 1250.35 823.656 1261.65 C 819.223 1285.26 802.873 1312.68 784.237 1328.06 C 773.171 1337.19 756.598 1345.75 743.805 1352.75 C 730.521 1392.16 691.854 1416.95 652.498 1424.79 C 646.442 1432.57 643.797 1434.91 636.228 1441.16 C 617.916 1456.29 571.304 1466.64 548.645 1463.36 C 527.268 1478.99 500.079 1482.87 473.843 1482.08 C 468.748 1481.93 456.997 1478.17 453.347 1478.65 C 434.279 1481.17 423.213 1484.93 403.499 1483.82 C 383.675 1482.7 363.145 1477.75 343.746 1481.25 C 330.435 1483.66 314.741 1492.2 307.663 1504.11 C 284.793 1542.57 323.471 1581.19 353.61 1599.44 C 393.809 1624.37 437.912 1629.64 483.576 1634.83 C 521.088 1639.09 536.109 1638.04 572.565 1629.72 C 565.751 1633.89 557.311 1637.29 550.914 1641.46 C 479.378 1688.13 398.534 1704.36 314.693 1683.51 C 269.648 1672.3 230.158 1650.09 205.238 1608.36 C 180.092 1566.24 171.98 1512.85 183.157 1464.84 C 192.288 1427.97 220.932 1387.09 252.308 1365.95 C 262.218 1359.27 276.204 1351.96 286.987 1345.62 C 267.662 1339.19 268.849 1333.86 254.19 1321.67 C 251.578 1319.5 246.396 1319.79 240.128 1314.05 C 207.316 1313.71 186.109 1299.74 174.718 1268.39 C 167.257 1263.98 164.769 1260.79 159.077 1254.43 C 138.353 1253.98 119.962 1224.85 118.128 1206.19 C 117.64 1201.23 118.019 1195.86 118.373 1190.87 C 108.879 1173.41 104.737 1159.1 101.017 1139.76 C 76.7876 1126.2 77.476 1087.83 95.3478 1068.76 C 99.0437 1044.72 103.772 1025.7 113.504 1003.36 L 113.135 1002.36 L 112.542 1000.68 C 104.2 977.582 126.869 954.724 143.827 942.717 C 145.806 941.316 164.528 922.266 165.538 920.506 C 180.998 893.583 185.15 880.674 218.46 874.646 C 230.152 864.102 238.651 852.509 251.384 842.603 C 261.699 834.578 272.133 834.742 281.033 829.481 C 301.2 817.559 321.222 806.693 341.535 795.034 C 394.377 764.705 453.565 727.647 471.39 665.526 C 478.681 639.004 474.935 612.04 461.251 588.5 C 423.772 524.022 334.889 525.568 274.007 551.104 C 257.315 558.105 238.739 569.384 222.87 578.706 C 239.469 557.529 252.692 543.98 274.28 527.599 C 430.218 409.269 609.824 517.368 562.654 711.707 C 559.542 724.527 554.494 737.141 549.455 749.49 C 513.372 837.936 433.773 895.161 360.992 951.494 C 323.429 980.568 282.62 1021.49 278.664 1071 C 270.101 1152.51 332.869 1202.58 408.465 1212.4 C 468.88 1220.24 531.477 1203.42 584.116 1172.66 C 603.605 1161.27 620.558 1147.5 638.327 1133.28 C 603.194 1138.21 569.346 1141.62 535.989 1126.39 C 505.449 1112.28 481.878 1086.47 470.599 1054.78 C 453.944 1008.55 458.94 961.823 479.352 917.742 C 518.483 833.238 592.833 798.925 683.08 796.783 C 723.971 795.501 763.516 800.468 804.475 798.479 C 840.603 796.724 903.529 783.932 933.402 763.134 C 955.979 747.416 974.46 701.348 986.294 675.851 C 962.666 672.653 937.901 671.469 914.237 666.826 C 816.405 647.632 724.926 611.377 658.636 533.888 C 604.309 470.384 578.9 391.286 585.462 308.286 C 589.624 255.65 618.593 189.149 659.545 155.116 C 641.576 137.157 632.489 117.123 634.842 91.2366 C 635.215 87.1388 634.771 82.1891 637.993 79.3623 C 640.103 80.9038 641.732 82.5259 643.753 84.1069 C 699.339 127.601 774.168 104.772 835.149 89.4192 C 865.528 81.7707 893.267 76.5945 922.794 74.4238 z" fill="rgb(37,43,65)" transform="translate(0,0)"></path>
<path d="M 658.134 119.967 C 739.317 155.145 821.575 112.853 904.61 105.537 C 957.261 101.144 1010.25 107.782 1060.19 125.027 C 1209.54 175.18 1366.02 321.089 1452.12 450.495 C 1461.42 445.097 1468.87 440.753 1479.94 439.516 C 1500.7 437.196 1519.13 444.928 1528.93 464 C 1535.86 477.444 1537.02 493.125 1532.16 507.444 C 1525.09 527.876 1510.84 539.415 1493.83 550.929 C 1489.2 545.201 1487.46 543.902 1481.44 539.644 C 1498.6 528.97 1500.94 517.888 1500.57 498.581 C 1495.22 511.792 1490.08 524.198 1476.92 531.503 C 1455.13 543.34 1441.22 550.371 1425.49 569.873 C 1384.19 621.076 1445.53 628.343 1464.5 664.849 C 1484.91 704.142 1496.32 745.533 1502.37 789.195 C 1466.42 814.554 1427.51 823.818 1384.36 827.296 C 1277.16 835.936 1166.96 806.223 1102.12 714.238 C 1099.95 711.164 1097.81 708.074 1095.69 704.97 C 1126.18 822.064 1266.61 865.718 1375.46 859.54 C 1398.05 858.257 1416.84 853.81 1438.81 849.906 C 1402.31 873.116 1360.55 891.735 1316.68 890.883 C 1348.03 897.811 1378.8 902.162 1410.08 911.386 C 1431.79 917.786 1448.35 924.885 1468.84 933.792 C 1529.5 960.156 1577.6 996.893 1613.86 1052.96 C 1641.12 1095.11 1654.77 1150.31 1642.95 1200.11 C 1626.19 1270.73 1567.53 1331.73 1519.05 1383.19 C 1507.04 1395.94 1492.92 1409.25 1481.75 1422.48 C 1470.63 1435.65 1459.12 1454.4 1449.57 1469.19 L 1445.44 1469.69 C 1452.57 1451.46 1463.65 1432.2 1474.11 1415.67 C 1495.3 1384.09 1525.21 1353.97 1550.17 1325.02 C 1578.86 1291.74 1599.12 1269.02 1608.43 1224.35 C 1620.18 1167.97 1605.93 1125.54 1576 1078.51 C 1534.65 1012.26 1474.28 975.145 1403.43 947.228 C 1349.28 925.89 1303.07 915.938 1246.32 903.146 C 1268.37 913.94 1283.02 917.317 1304.89 925.953 C 1293.13 925.459 1254.95 921.037 1248.06 929.35 L 1244.52 928.118 L 1244.33 929.379 C 1257.84 946.36 1271.97 963.88 1283.52 982.238 C 1319.6 1039.37 1334.88 1107.19 1326.79 1174.27 C 1314.28 1282.3 1235.4 1383.33 1152.3 1448.8 C 1135.11 1462.31 1117.25 1474.94 1098.78 1486.64 C 1113.66 1473.12 1129.02 1460.36 1143.62 1446.59 C 1213.57 1380.64 1256.01 1303.97 1260.92 1206.62 C 1264.18 1142.13 1250.9 1069.39 1205.91 1019.84 C 1173.89 984.391 1128.99 963.267 1081.27 961.197 C 1014.42 958.388 942.705 993.988 894.146 1038.37 C 848.062 1080.49 819.311 1122.87 782.683 1172.25 C 719.798 1257.02 652.558 1335.75 550.586 1372.71 C 516.769 1384.97 486.932 1392.03 451.408 1398.17 C 405.655 1406.08 355.61 1407.78 313.819 1429.05 C 267.222 1452.76 233.414 1495.15 231.243 1548.66 C 230.32 1571.43 237.094 1592.87 244.648 1613.92 C 214.362 1574.78 201.088 1539.38 207.434 1489.3 C 212.044 1452.92 229.062 1419.37 258.336 1396.95 C 309.211 1357.98 354.656 1357.14 414.024 1348.53 C 451.651 1343.07 497.32 1329.21 529.064 1309.03 C 558.664 1290.21 585.727 1264.28 609.345 1238.31 C 659.57 1183.08 703.42 1119.52 744.869 1057.42 C 771.054 1018.18 794.183 984.485 822.852 946.463 C 878.31 872.914 946.791 811.711 995.803 733.885 C 1012.94 706.666 1028.64 677.086 1033.27 644.723 C 1038.07 611.151 1029.95 584.329 1009.54 557.613 C 992.181 534.874 951.719 500.238 925.134 488.29 L 924.707 488.766 C 976.213 535.157 1015.18 565.23 1000.71 643.177 C 879.516 634.355 762.626 603.028 678.601 509.06 C 591.88 412.077 589.269 232.798 702.598 154.863 C 683.834 149.394 667.905 136.893 658.134 119.967 z" fill="rgb(234,152,150)" transform="translate(0,0)"></path>
<path d="M 1205.97 438.371 C 1268.43 433.652 1299.1 497.142 1341.58 530.906 C 1357.21 543.323 1383.64 548.128 1396.71 529.783 C 1404.01 519.543 1398.21 500.889 1395.48 489.642 C 1420.7 521.299 1400.68 550.883 1364.09 555.141 C 1360.49 591.295 1345.07 624.345 1310.98 640.511 C 1282.09 654.208 1227.14 653.293 1197.86 643.06 C 1162.98 626.83 1155.5 616.425 1143.26 580.726 C 1167.51 614.443 1183.02 629.903 1224.68 636.861 C 1222.55 635.842 1220.44 634.773 1218.36 633.656 C 1196.84 622.026 1180.4 603.183 1173.02 579.587 C 1159.28 535.648 1179.31 471.48 1227.44 457.78 C 1226.09 457.461 1224.74 457.171 1223.38 456.911 C 1191.38 450.829 1167.84 458.312 1141.29 476.217 C 1142.22 474.939 1143.17 473.674 1144.13 472.423 C 1159.09 453.092 1181.93 441.477 1205.97 438.371 z" fill="rgb(37,43,65)" transform="translate(0,0)"></path>
<path d="M 1244.21 467.009 C 1254.99 466.954 1274.63 491.924 1281.79 500.34 C 1275.23 500.704 1270.56 500.891 1264.16 502.998 C 1249.72 507.739 1237.74 518 1230.84 531.542 C 1223.34 546.633 1222.17 564.092 1227.58 580.052 C 1232.48 594.672 1242.3 606.399 1256.27 613.213 C 1270.17 620.122 1286.31 620.966 1300.85 615.547 C 1323.63 607.317 1338.22 589.48 1344.89 566.38 C 1346.48 560.858 1343.35 556.754 1345.71 551.687 L 1347.19 551.169 C 1350.2 555.025 1348.07 564.449 1347.45 569.88 C 1336.54 626.354 1277.46 652.391 1226.59 627.01 C 1207.35 617.236 1192.77 600.246 1186.03 579.752 C 1171.31 534.345 1198.21 481.173 1244.21 467.009 z" fill="rgb(255,255,255)" transform="translate(0,0)"></path>
<path d="M 1264.12 515.152 C 1305.21 512.375 1304.05 548.912 1269.66 560.797 C 1262.38 562.212 1255.22 562.436 1248.4 558.937 C 1243.58 556.516 1239.95 552.248 1238.33 547.105 C 1232.74 529.136 1249.25 518.929 1264.12 515.152 z" fill="rgb(255,255,255)" transform="translate(0,0)"></path>
<path d="M 1101.3 285.317 C 1138.21 282.588 1219.46 301.232 1252.65 317.512 C 1296.22 338.882 1346.74 374.657 1370.53 417.914 C 1380.09 435.295 1387.32 455.894 1394.18 474.477 C 1390.09 469.812 1380.18 451.578 1376.23 445.162 C 1335.57 379.093 1251.2 342.303 1176.67 374.237 C 1121.07 399.329 1088.96 466.352 1084.3 524.829 C 1079.89 503.867 1076.28 485.675 1078.61 464.222 C 1088.07 377.104 1183.44 334.25 1261.16 343.443 C 1223.48 325.231 1191.1 308.711 1150.71 296.826 C 1132.65 291.514 1118.71 289.603 1101.3 285.317 z" fill="rgb(37,43,65)" transform="translate(0,0)"></path>
<path d="M 1037.39 844.871 L 1038.69 845.548 C 1002.83 870.03 971.516 897.636 938.848 926.109 C 977.332 904.509 1023.05 896.215 1066.96 897.017 C 1052.13 901.759 1036.24 903.583 1021.22 908.359 C 967.408 925.473 919.067 957.653 876.338 993.956 C 846.561 1017.88 821.736 1047.59 795.542 1075.17 C 803.784 1061.84 811.587 1048.23 820.385 1035.26 C 865.174 969.201 922.489 906.871 992.266 866.844 C 1006.85 858.48 1022.06 851.706 1037.39 844.871 z" fill="rgb(37,43,65)" transform="translate(0,0)"></path>
<path d="M 665.547 255.751 C 667.534 258.174 667.687 275.337 668.208 279.635 C 678.206 362.088 748.12 428.713 811.544 475.992 C 820.443 482.626 829.947 488.305 838.363 495.247 L 837.676 495.921 C 742.401 453.826 639.892 373.335 665.547 255.751 z" fill="rgb(37,43,65)" transform="translate(0,0)"></path>
<path d="M 1281.6 745.517 C 1284.38 745.612 1286.67 746.541 1288.8 748.321 C 1294.63 753.203 1297.97 760.808 1298.3 768.337 C 1298.52 773.319 1296.79 776.539 1293.61 780.208 C 1290.12 780.658 1287 780.867 1283.81 778.944 C 1280.43 776.908 1278.45 773.337 1277.45 769.62 C 1275.13 760.89 1277.37 753.126 1281.6 745.517 z" fill="rgb(37,43,65)" transform="translate(0,0)"></path>
<path d="M 1450.95 740.397 C 1452.16 740.567 1453.31 740.674 1454.47 741.121 C 1459.8 743.189 1463.5 749.794 1465.26 754.871 C 1468.08 763.02 1468.63 770.499 1464.72 778.299 C 1461.84 778.095 1458.54 777.712 1456.04 776.14 C 1451.45 773.265 1448.51 767.465 1447.33 762.339 C 1445.61 754.786 1446.7 746.849 1450.95 740.397 z" fill="rgb(37,43,65)" transform="translate(0,0)"></path>
<path d="M 1248.06 929.35 C 1254.95 921.037 1293.13 925.459 1304.89 925.953 C 1387.26 951.561 1460.7 981.359 1520.84 1045.47 C 1576.79 1105.12 1610.99 1173.1 1584.1 1255.49 C 1570.77 1296.32 1533.82 1332.67 1506.58 1365.55 C 1494.07 1380.37 1482.55 1396.01 1472.11 1412.35 C 1436.32 1461.16 1399.7 1539.48 1424.05 1599.97 C 1465.08 1701.84 1597.25 1737.65 1686.51 1675.71 C 1691.5 1672.24 1720.72 1648.4 1722.85 1647.61 C 1721.86 1650.36 1713.04 1658.95 1710.54 1661.62 C 1683.32 1690.68 1650.62 1709.49 1612.53 1719.94 C 1591.98 1708.3 1568.66 1705.37 1556.05 1729.15 C 1544.39 1728.96 1529.96 1727.24 1518.39 1725.81 C 1513.92 1702.63 1488.01 1701.35 1469.14 1703.55 C 1461.2 1704.47 1458.05 1701.92 1452.39 1696.81 C 1479.27 1663.24 1436.5 1635.71 1406.15 1654.96 C 1381.61 1624.12 1370.51 1595.86 1368.83 1556.02 C 1363.75 1436.11 1465.85 1355.21 1483.76 1239.49 C 1498.15 1146.51 1449.5 1066.96 1363.42 1031.09 C 1352.78 1026.66 1344.48 1022.58 1333.2 1020.66 C 1308.11 982.178 1291.29 952.397 1248.06 929.35 z" fill="rgb(255,255,255)" transform="translate(0,0)"></path>
<path d="M 1516.26 1095.11 C 1522.9 1094.68 1528.56 1094.4 1534.64 1097.67 C 1542.13 1101.69 1547.37 1108.62 1549.52 1116.82 C 1551.32 1123.72 1551.14 1131.3 1547.33 1137.51 C 1543.05 1144.5 1537.08 1146.67 1529.56 1148.59 C 1523.99 1148.49 1518.2 1148.14 1512.98 1146.05 C 1505.77 1143.16 1499.64 1137.68 1496.77 1130.38 C 1494.33 1124.21 1494.46 1117.32 1497.11 1111.25 C 1500.85 1102.81 1507.97 1098.3 1516.26 1095.11 z" fill="rgb(37,43,65)" transform="translate(0,0)"></path>
<path d="M 1519.24 1100.19 C 1524.09 1100.03 1528.38 1100.26 1532.76 1102.57 C 1538.78 1105.8 1543.18 1111.4 1544.92 1118.01 C 1546.42 1123.69 1545.94 1129.84 1542.72 1134.85 C 1539.21 1140.32 1534.41 1141.72 1528.4 1143.24 C 1523.84 1143.11 1519.61 1142.95 1515.35 1141.11 C 1509.31 1138.5 1504.12 1133.48 1502.02 1127.15 C 1500.34 1122.16 1500.74 1116.7 1503.13 1112.01 C 1506.51 1105.54 1512.51 1102.22 1519.24 1100.19 z" fill="rgb(255,255,255)" transform="translate(0,0)"></path>
<path d="M 1517.55 1109.49 C 1519.61 1109.77 1521.84 1109.98 1523.66 1111.06 C 1525.62 1112.22 1527.08 1114.32 1527.35 1116.59 C 1527.85 1120.66 1525.7 1123.64 1523.28 1126.61 C 1521.62 1126.45 1519.99 1126.34 1518.46 1125.59 C 1516.43 1124.6 1514.82 1122.65 1514.36 1120.42 C 1513.52 1116.37 1515.5 1112.8 1517.55 1109.49 z" fill="rgb(37,43,65)" transform="translate(0,0)"></path>
<path d="M 1382.23 970.232 C 1388.3 970.314 1393.93 970.616 1399.64 972.992 C 1406.83 975.985 1413.22 981.491 1416.04 988.879 C 1418.13 994.35 1418.35 1000.57 1415.67 1005.88 C 1412.38 1012.36 1406.71 1015.72 1400.11 1018.1 C 1393.51 1018.82 1387.06 1018.09 1381.08 1015.08 C 1373.99 1011.51 1368.17 1005.34 1365.78 997.687 C 1364.05 992.127 1363.98 985.562 1366.97 980.401 C 1370.36 974.568 1375.89 971.7 1382.23 970.232 z" fill="rgb(37,43,65)" transform="translate(0,0)"></path>
<path d="M 1383.03 975.05 C 1386.89 974.81 1391.09 974.672 1394.84 975.708 C 1401.09 977.44 1407.19 981.825 1410.25 987.624 C 1412.31 991.533 1413.15 996.243 1411.62 1000.48 C 1409.42 1006.59 1404.74 1009.75 1399.02 1012.18 C 1395.74 1012.55 1392.58 1012.68 1389.35 1011.93 C 1382.78 1010.4 1376.63 1006.35 1373.32 1000.37 C 1371.09 996.353 1370.28 991.603 1371.62 987.156 C 1373.44 981.127 1377.66 977.831 1383.03 975.05 z" fill="rgb(255,255,255)" transform="translate(0,0)"></path>
<path d="M 1453.07 1027.12 C 1458.44 1026.72 1463.72 1026.39 1468.9 1028.15 C 1476.05 1030.57 1482.26 1035.84 1485.36 1042.76 C 1487.8 1048.21 1488.58 1054.89 1486.36 1060.54 C 1483.81 1067.07 1478.91 1070.88 1472.7 1073.66 C 1467.53 1074.94 1462.93 1075.34 1457.77 1073.68 C 1450.88 1071.45 1445.19 1066.3 1441.92 1059.89 C 1438.85 1053.88 1437.76 1046.58 1440.05 1040.12 C 1442.44 1033.39 1446.89 1030.2 1453.07 1027.12 z" fill="rgb(37,43,65)" transform="translate(0,0)"></path>
<path d="M 1454.87 1033.06 C 1458.61 1032.79 1462.74 1032.54 1466.41 1033.44 C 1472.1 1034.83 1477.73 1039.22 1480.65 1044.28 C 1482.69 1047.8 1483.74 1052.05 1482.62 1056.05 C 1481.01 1061.81 1477.45 1065 1472.4 1067.83 C 1469.18 1068.51 1465.99 1069.22 1462.69 1068.77 C 1456.93 1067.99 1451.43 1064.28 1448.23 1059.48 C 1445.28 1055.07 1444.04 1049.74 1445.33 1044.54 C 1446.72 1038.91 1450.11 1035.99 1454.87 1033.06 z" fill="rgb(255,255,255)" transform="translate(0,0)"></path>
<path d="M 1516.14 1177.62 C 1528.08 1174.22 1540.51 1181.14 1543.92 1193.08 C 1547.32 1205.01 1540.4 1217.45 1528.46 1220.85 C 1516.53 1224.25 1504.09 1217.34 1500.69 1205.4 C 1497.28 1193.46 1504.2 1181.03 1516.14 1177.62 z" fill="rgb(37,43,65)" transform="translate(0,0)"></path>
<path d="M 1519.39 1182.15 C 1528.51 1180.06 1537.64 1185.61 1539.97 1194.67 C 1542.31 1203.73 1537 1213 1528 1215.57 C 1521.97 1217.3 1515.47 1215.61 1511.04 1211.17 C 1506.6 1206.73 1504.93 1200.23 1506.67 1194.2 C 1508.4 1188.17 1513.28 1183.55 1519.39 1182.15 z" fill="rgb(255,255,255)" transform="translate(0,0)"></path>
<path d="M 1521.1 1192.69 C 1522.8 1191.94 1524.78 1192.21 1526.23 1193.38 C 1527.67 1194.55 1528.34 1196.44 1527.95 1198.26 C 1527.57 1200.08 1526.19 1201.54 1524.39 1202.02 C 1521.89 1202.69 1519.29 1201.33 1518.42 1198.88 C 1517.56 1196.44 1518.73 1193.74 1521.1 1192.69 z" fill="rgb(37,43,65)" transform="translate(0,0)"></path>
<path d="M 1505.14 1251.15 C 1508.83 1250.79 1512.76 1250.46 1516.4 1251.4 C 1521.83 1252.86 1526.46 1256.41 1529.28 1261.27 C 1532.22 1266.42 1532.78 1272.95 1530.86 1278.54 C 1528.39 1285.74 1523.49 1289.41 1516.83 1292.46 C 1513.77 1293.15 1510.26 1293.33 1507.18 1292.66 C 1501.85 1291.49 1497.27 1288.1 1494.59 1283.34 C 1491.2 1277.42 1490.62 1270.48 1492.69 1264.02 C 1494.86 1257.25 1499.1 1254.37 1505.14 1251.15 z" fill="rgb(37,43,65)" transform="translate(0,0)"></path>
<path d="M 1505.91 1257.72 C 1513.72 1254.24 1522.86 1257.75 1526.34 1265.56 C 1529.82 1273.36 1526.31 1282.51 1518.51 1285.98 C 1510.7 1289.46 1501.56 1285.95 1498.08 1278.15 C 1494.6 1270.34 1498.11 1261.2 1505.91 1257.72 z" fill="rgb(255,255,255)" transform="translate(0,0)"></path>
<path d="M 1486.18 1318.2 C 1489.96 1317.96 1493.87 1317.93 1497.49 1319.21 C 1502.41 1320.95 1506.54 1324.55 1508.58 1329.39 C 1510.71 1334.44 1510.44 1340.24 1508.38 1345.26 C 1505.34 1352.66 1500.12 1356.37 1493.03 1359.5 C 1489.32 1359.63 1485.24 1359.54 1481.7 1358.34 C 1477 1356.74 1472.89 1352.68 1470.92 1348.17 C 1468.48 1342.46 1468.57 1335.99 1471.18 1330.36 C 1474.34 1323.51 1479.29 1320.54 1486.18 1318.2 z" fill="rgb(37,43,65)" transform="translate(0,0)"></path>
<path d="M 1485.9 1325.05 C 1488.27 1324.9 1490.71 1324.69 1493.07 1324.83 C 1496.87 1325.06 1500.69 1327.43 1502.86 1330.5 C 1504.81 1333.27 1505.53 1336.73 1504.84 1340.05 C 1503.59 1346.32 1499.32 1349.78 1494.14 1352.96 C 1491.33 1353.08 1488.04 1353.23 1485.31 1352.5 C 1481.67 1351.53 1478.34 1348.87 1476.51 1345.59 C 1474.85 1342.68 1474.45 1339.21 1475.41 1335.99 C 1477.13 1330.26 1480.84 1327.73 1485.9 1325.05 z" fill="rgb(255,255,255)" transform="translate(0,0)"></path>
<path d="M 1410.38 1446.07 C 1413.09 1446.05 1416.16 1446.34 1418.69 1447.34 C 1423.49 1449.25 1427.23 1453.15 1428.94 1458.03 C 1430.98 1463.77 1430.36 1470.21 1427.66 1475.62 C 1424.26 1482.44 1419.23 1485.36 1412.2 1487.56 C 1408.75 1487.71 1404.52 1487.63 1401.32 1486.18 C 1397.28 1484.34 1394.18 1480.56 1392.81 1476.38 C 1390.9 1470.52 1392.01 1463.82 1394.83 1458.45 C 1398.32 1451.8 1403.3 1448.19 1410.38 1446.07 z" fill="rgb(30,38,52)" transform="translate(0,0)"></path>
<path d="M 1409.14 1450.95 C 1410.83 1451.08 1412.52 1451.25 1414.19 1451.57 C 1417.92 1452.24 1421.19 1454.48 1423.17 1457.72 C 1425.3 1461.22 1425.48 1465.32 1424.35 1469.19 C 1422.65 1475.07 1418.51 1478.48 1413.35 1481.32 C 1410.63 1481.41 1407.59 1481.54 1404.97 1480.7 C 1401.83 1479.7 1399.18 1476.9 1397.82 1473.97 C 1395.87 1469.77 1396.23 1465.2 1397.97 1461 C 1400.19 1455.64 1403.96 1453.1 1409.14 1450.95 z" fill="rgb(255,255,255)" transform="translate(0,0)"></path>
<path d="M 1447.95 1382.14 C 1450.57 1382.02 1453.26 1381.85 1455.83 1382.46 C 1460.47 1383.57 1464.67 1386.57 1466.97 1390.78 C 1469.53 1395.48 1469.52 1401.07 1467.69 1406.02 C 1465.14 1412.95 1460.03 1417.31 1453.45 1420.24 C 1450.57 1420.62 1447.73 1421.02 1444.85 1420.46 C 1440.69 1419.66 1437.09 1417.48 1434.92 1413.76 C 1432.22 1409.09 1432.19 1403.23 1433.69 1398.17 C 1436.06 1390.14 1440.69 1385.86 1447.95 1382.14 z" fill="rgb(30,38,52)" transform="translate(0,0)"></path>
<path d="M 1452.33 1386.98 C 1453.72 1387.23 1453.94 1387.22 1455.13 1387.55 C 1458.69 1388.52 1461.41 1390.07 1463.18 1393.43 C 1465.08 1397.03 1464.91 1401.16 1463.49 1404.9 C 1461.34 1410.6 1457.73 1413.19 1452.34 1415.58 C 1450.06 1415.41 1447.49 1415.35 1445.33 1414.55 C 1442.37 1413.46 1440.13 1410.81 1439.15 1407.87 C 1437.88 1404.08 1438.57 1400.03 1440.43 1396.55 C 1443.22 1391.34 1446.82 1388.8 1452.33 1386.98 z" fill="rgb(255,255,255)" transform="translate(0,0)"></path>
<path d="M 1399.39 1585.02 C 1402.17 1585.17 1405.01 1585.71 1407.58 1586.8 C 1412.6 1588.94 1416.51 1593.72 1418.49 1598.69 C 1420.49 1603.72 1420.6 1609.6 1418.43 1614.59 C 1416.09 1619.96 1412.21 1622.3 1406.93 1624.3 C 1404.44 1624.25 1402.05 1624.13 1399.66 1623.37 C 1394.63 1621.78 1390.36 1617.78 1388.1 1613.06 C 1385.5 1607.63 1385.31 1601.36 1387.57 1595.78 C 1390.06 1589.68 1393.58 1587.67 1399.39 1585.02 z" fill="rgb(30,38,52)" transform="translate(0,0)"></path>
<path d="M 1396.83 1591.83 C 1397.34 1591.87 1397.85 1591.9 1398.36 1591.94 C 1403.8 1592.36 1407.27 1594.2 1410.67 1598.54 C 1413.01 1601.5 1414.63 1605.79 1413.84 1609.6 C 1412.93 1614.07 1410.92 1615.9 1407.29 1618.44 C 1406.08 1618.57 1406.04 1618.61 1404.64 1618.54 C 1400.13 1618.32 1396.42 1616.17 1393.7 1612.63 C 1390.93 1609.03 1389.83 1604.62 1390.71 1600.16 C 1391.52 1596 1393.49 1594.09 1396.83 1591.83 z" fill="rgb(255,255,255)" transform="translate(0,0)"></path>
<path d="M 1386.86 1514.03 C 1388.8 1514.04 1390.82 1514.22 1392.72 1514.62 C 1397.18 1515.57 1401.07 1519.19 1403.24 1523.08 C 1406.2 1528.39 1406.48 1535 1404.64 1540.72 C 1402.62 1547.02 1398.87 1550.36 1393.2 1553.44 C 1390.15 1553.8 1386.67 1554.36 1383.67 1553.45 C 1380.29 1552.43 1377.65 1549.48 1376.01 1546.46 C 1372.8 1540.55 1372.91 1532.78 1375.08 1526.54 C 1377.3 1520.16 1380.82 1516.78 1386.86 1514.03 z" fill="rgb(30,38,52)" transform="translate(0,0)"></path>
<path d="M 1385.43 1519.88 C 1386.46 1519.75 1386.93 1519.67 1388.04 1519.68 C 1391.39 1519.74 1394.14 1520.67 1396.51 1523.09 C 1399.73 1526.39 1400.97 1531.01 1400.6 1535.53 C 1400.1 1541.71 1398.03 1544.69 1393.29 1548.48 C 1392.1 1548.63 1390.71 1548.88 1389.49 1548.81 C 1385.8 1548.6 1383.08 1547.39 1380.61 1544.55 C 1378.09 1541.65 1377.47 1537.17 1377.85 1533.49 C 1378.47 1527.33 1380.81 1523.82 1385.43 1519.88 z" fill="rgb(255,255,255)" transform="translate(0,0)"></path>
<path d="M 1570.19 1187.03 C 1572.12 1186.87 1574.07 1186.68 1576.01 1186.99 C 1579 1187.49 1581.24 1189.17 1583.03 1191.52 C 1586.7 1196.32 1587.27 1202.77 1586.37 1208.56 C 1585.25 1215.79 1582.83 1219.74 1577.01 1224.05 C 1575.38 1224.12 1573.67 1224.18 1572.04 1223.94 C 1568.99 1223.5 1566.67 1221.91 1564.77 1219.53 C 1561.31 1215.18 1560.43 1209.38 1561.03 1203.98 C 1561.85 1196.68 1564.35 1191.48 1570.19 1187.03 z" fill="rgb(30,38,52)" transform="translate(0,0)"></path>
<path d="M 1571.16 1192.83 C 1573.98 1192.62 1575.35 1192.59 1578.03 1193.77 C 1579.24 1195.32 1579.81 1196.7 1580.23 1198.6 C 1581.62 1205 1580.66 1212.75 1577.21 1218.31 C 1574.72 1218.83 1572.36 1219.06 1570.12 1217.58 C 1567.5 1215.84 1566.29 1212.85 1565.98 1209.83 C 1565.3 1203.38 1567.22 1197.82 1571.16 1192.83 z" fill="rgb(255,255,255)" transform="translate(0,0)"></path>
<path d="M 1549.99 1260.92 C 1554.56 1262.14 1557.96 1264.17 1560.28 1268.39 C 1562.59 1272.6 1562.96 1277.42 1561.67 1282.02 C 1560.03 1287.89 1556.99 1291.08 1551.79 1294.06 C 1547.2 1293.15 1544 1291.81 1541.36 1287.74 C 1538.78 1283.74 1538.25 1279.12 1539.3 1274.53 C 1540.75 1268.18 1544.53 1264.15 1549.99 1260.92 z" fill="rgb(30,38,52)" transform="translate(0,0)"></path>
<path d="M 1549.42 1265.44 C 1551.66 1265.74 1553.37 1266.35 1554.99 1268.04 C 1556.88 1270.02 1557.89 1272.83 1557.97 1275.54 C 1558.15 1281.32 1555.96 1285.13 1551.97 1289.08 C 1550.26 1288.68 1548.39 1288.12 1547.04 1286.95 C 1544.94 1285.12 1543.77 1282.65 1543.5 1279.91 C 1542.95 1274.43 1546.33 1269.57 1549.42 1265.44 z" fill="rgb(255,255,255)" transform="translate(0,0)"></path>
<path d="M 1103.82 987.216 C 1229.25 1002.89 1261.29 1132.79 1246.98 1239.68 C 1230.04 1366.21 1125.9 1464.24 1022.81 1528.6 C 933.42 1584.41 832.952 1620.18 793.869 1729.81 C 767.39 1804.09 792.083 1874.14 876.947 1884.65 C 994.991 1900.3 1063.79 1793.73 1161.04 1752.56 L 1162.16 1754.29 C 1094.43 1788.16 1066.53 1832.83 1007.45 1870.12 C 1035.32 1890.75 993.1 1918.65 974.215 1905.51 C 971.988 1903.97 969.893 1896.16 969.011 1893.3 C 961.389 1897.06 940.455 1909.58 932.916 1906.59 L 933.07 1908.36 C 933.541 1913.46 935.46 1913.8 933.608 1918.95 C 931.416 1930.01 921.102 1936.16 910.427 1937.62 C 898.38 1939.26 891.565 1937.26 882.025 1930.14 C 880.306 1923.43 879.386 1920.09 878.709 1913.19 C 864.499 1912.52 856.164 1911.42 842.309 1908.2 C 833.828 1890.37 812.382 1877.8 793.811 1872.52 C 791.273 1871.8 784.797 1875.62 781.097 1874.16 C 768.775 1869.27 758.564 1853.52 752.064 1842.78 C 774.721 1839.57 778.585 1821.69 766.149 1803.29 C 760.615 1796.84 750.127 1794.17 743.655 1800.16 C 735.303 1807.89 740.538 1829.43 753.153 1828.72 C 753.995 1826.89 746.101 1819.19 744.988 1814.4 C 742.3 1805.76 751.813 1797.95 759.276 1804.48 C 766.519 1809.83 770.445 1825.6 763.291 1832.22 C 739.178 1854.54 719.778 1809.07 738.034 1793.68 C 737.39 1676.46 800.823 1612.91 892.27 1551.15 C 901.016 1545.24 911.097 1540.78 920.191 1535.36 C 932.56 1528 944.661 1518.49 957.682 1512.41 C 959.143 1512.48 958.225 1512.55 960.336 1511.64 C 961.741 1509 961.538 1508.66 964.116 1507.39 L 963.658 1508.39 L 965.431 1508.34 C 980.409 1499.2 1000.81 1489.13 1014.07 1478.65 C 1025.43 1468.58 1034.5 1455.81 1045.99 1445.9 C 1052.97 1439.89 1061.18 1434.86 1068.06 1428.66 C 1120.3 1381.61 1167.99 1337.09 1182.31 1265.16 C 1197.66 1188.08 1192.32 1108.89 1152.45 1039.65 C 1142.06 1021.82 1121.03 997.74 1103.82 987.216 z" fill="rgb(255,255,255)" transform="translate(0,0)"></path>
<path d="M 965.431 1508.34 C 1006.37 1497.12 997.409 1546.31 968.954 1548.48 C 953.432 1549.66 940.176 1530.59 954.296 1515.74 C 955.396 1514.6 956.525 1513.49 957.682 1512.41 C 959.143 1512.48 958.225 1512.55 960.336 1511.64 C 961.741 1509 961.538 1508.66 964.116 1507.39 L 963.658 1508.39 L 965.431 1508.34 z" fill="rgb(30,38,52)" transform="translate(0,0)"></path>
<path d="M 969.068 1512.06 C 972.002 1511.92 975.1 1511.65 977.998 1512.24 C 981.558 1512.96 984.863 1514.98 986.647 1518.22 C 988.415 1521.43 988.223 1525.16 986.985 1528.5 C 984.353 1535.6 978.808 1538.75 972.306 1541.8 C 968.452 1542.46 965.117 1543.02 961.359 1541.51 C 958.387 1540.31 955.981 1538.13 954.815 1535.09 C 953.364 1531.31 953.958 1527.05 955.554 1523.41 C 958.223 1517.33 963.188 1514.51 969.068 1512.06 z" fill="rgb(255,255,255)" transform="translate(0,0)"></path>
<path d="M 933.608 1918.95 C 928.23 1910.48 924.246 1907.21 913.766 1906.12 C 905.83 1905.22 897.879 1907.68 891.838 1912.91 C 883.8 1919.8 891.373 1918.75 890.802 1924.85 L 888.923 1925.4 C 884.883 1922.58 883.798 1911.65 886.942 1908.67 C 897.927 1898.29 921.072 1898.87 932.916 1906.59 L 933.07 1908.36 C 933.541 1913.46 935.46 1913.8 933.608 1918.95 z" fill="rgb(37,43,65)" transform="translate(0,0)"></path>
<path d="M 1213.88 1142.07 C 1216.36 1141.71 1218.99 1141.45 1221.48 1141.97 C 1227.3 1143.2 1232.61 1146.95 1235.53 1152.13 C 1239.27 1158.77 1239.7 1166.92 1237.34 1174.1 C 1234.41 1183.03 1229.21 1188.28 1220.99 1192.46 C 1218.37 1192.9 1215.8 1193.15 1213.17 1192.56 C 1207.81 1191.34 1203.35 1188.37 1200.56 1183.6 C 1196.68 1176.96 1196.14 1168.36 1198.18 1161.05 C 1200.74 1151.9 1205.75 1146.57 1213.88 1142.07 z" fill="rgb(37,43,65)" transform="translate(0,0)"></path>
<path d="M 1217.51 1147.81 C 1219.15 1148.02 1220.93 1148.28 1222.49 1148.91 C 1226.54 1150.56 1230.16 1154.79 1231.65 1158.84 C 1233.8 1164.69 1233.02 1171.37 1230.31 1176.9 C 1227.54 1182.53 1223.49 1184.85 1217.78 1186.88 C 1216.42 1186.64 1215.05 1186.39 1213.72 1186.03 C 1209.67 1184.96 1206.29 1182.15 1204.31 1178.47 C 1201.53 1173.3 1201.75 1167.12 1203.73 1161.7 C 1206.37 1154.47 1210.63 1150.84 1217.51 1147.81 z" fill="rgb(255,255,255)" transform="translate(0,0)"></path>
<path d="M 1096.99 1410.25 C 1101.39 1409.97 1105.8 1409.59 1110.11 1410.76 C 1115.09 1412.12 1119.7 1415.32 1122.03 1420.02 C 1124.46 1424.93 1124.42 1430.68 1122.53 1435.77 C 1119.32 1444.43 1112.74 1448.98 1104.71 1452.71 C 1099.75 1453.13 1095.25 1453.6 1090.46 1451.87 C 1085.41 1450.04 1081.19 1446.41 1079.13 1441.4 C 1077 1436.22 1077.28 1430.34 1079.52 1425.24 C 1083.04 1417.19 1089.23 1413.49 1096.99 1410.25 z" fill="rgb(30,38,52)" transform="translate(0,0)"></path>
<path d="M 1096.88 1416.14 C 1099.79 1415.83 1102.74 1415.47 1105.65 1415.93 C 1109.38 1416.52 1113.22 1418.35 1115.38 1421.56 C 1117.57 1424.82 1117.8 1428.62 1116.75 1432.32 C 1114.68 1439.68 1109.36 1443.2 1102.93 1446.54 C 1099.77 1446.86 1096.61 1447.26 1093.5 1446.38 C 1089.89 1445.36 1086.67 1443.02 1084.95 1439.65 C 1083.12 1436.07 1083.16 1432.12 1084.41 1428.36 C 1086.5 1422.08 1091.2 1418.91 1096.88 1416.14 z" fill="rgb(255,255,255)" transform="translate(0,0)"></path>
<path d="M 1200.9 1070.18 C 1204.23 1070.01 1207.54 1069.82 1210.79 1070.74 C 1216.82 1072.46 1222.06 1076.99 1225.09 1082.43 C 1228.34 1088.26 1229.44 1095.23 1227.25 1101.62 C 1224.86 1108.62 1219.69 1112.31 1213.29 1115.42 C 1209.48 1116.25 1205.34 1116.27 1201.63 1114.98 C 1195.7 1112.91 1191.01 1108.35 1188.31 1102.73 C 1185.36 1096.56 1184.78 1089.29 1187.24 1082.87 C 1189.85 1076.04 1194.4 1072.94 1200.9 1070.18 z" fill="rgb(37,43,65)" transform="translate(0,0)"></path>
<path d="M 1201.93 1074.99 C 1204.26 1074.97 1206.7 1074.9 1209.01 1075.26 C 1214.05 1076.06 1218.81 1080.11 1221.47 1084.31 C 1224.23 1088.66 1224.98 1093.98 1223.54 1098.92 C 1221.74 1104.91 1217.66 1107.6 1212.39 1110.41 C 1210.29 1110.54 1208.07 1110.65 1205.99 1110.26 C 1200.99 1109.33 1196.18 1105.39 1193.67 1101.06 C 1191.07 1096.56 1190.17 1091.16 1191.61 1086.13 C 1193.25 1080.44 1196.88 1077.63 1201.93 1074.99 z" fill="rgb(255,255,255)" transform="translate(0,0)"></path>
<path d="M 842.37 1595.26 C 845.357 1595.59 848.01 1596.01 850.794 1597.2 C 855.119 1599.05 858.729 1602.24 860.357 1606.73 C 862.418 1612.41 861.235 1618.73 858.677 1624.05 C 854.361 1633.02 847.433 1638.26 838.184 1641.35 C 834.395 1641.21 830.573 1641.4 827.122 1639.59 C 822.985 1637.41 819.911 1633.79 818.664 1629.26 C 816.854 1622.69 818.57 1615.3 822.103 1609.6 C 826.81 1602.01 833.842 1597.46 842.37 1595.26 z" fill="rgb(37,43,65)" transform="translate(0,0)"></path>
<path d="M 841.191 1600.88 C 842.615 1600.96 844.085 1601 845.488 1601.3 C 849.049 1602.05 852.026 1604.17 853.841 1607.3 C 855.97 1610.99 855.078 1616.15 853.654 1619.9 C 850.583 1627.98 845.85 1632.22 838.148 1635.63 C 836.256 1635.75 834.272 1635.9 832.404 1635.51 C 829.43 1634.88 826.503 1633.04 825.051 1630.31 C 823.293 1627 823.73 1622.86 824.84 1619.43 C 827.558 1611.02 833.435 1604.85 841.191 1600.88 z" fill="rgb(255,255,255)" transform="translate(0,0)"></path>
<path d="M 1212.5 1223.18 C 1216.12 1223.08 1219.4 1223.13 1222.79 1224.58 C 1227.68 1226.68 1231.22 1230.64 1232.91 1235.68 C 1235.04 1242.06 1234.08 1249.43 1230.85 1255.27 C 1226.88 1262.45 1221.45 1265.66 1213.73 1267.72 C 1209.8 1267.6 1206.36 1267.26 1202.77 1265.54 C 1198.01 1263.25 1194.46 1259.45 1192.84 1254.4 C 1191.03 1248.73 1191.8 1242.36 1194.52 1237.11 C 1198.57 1229.29 1204.41 1225.95 1212.5 1223.18 z" fill="rgb(30,38,52)" transform="translate(0,0)"></path>
<path d="M 1211.15 1230.11 C 1214.15 1229.85 1217.06 1229.56 1220 1230.4 C 1222.95 1231.24 1225.63 1233.96 1226.9 1236.69 C 1228.74 1240.66 1228.34 1245.11 1226.89 1249.13 C 1224.51 1255.79 1220.44 1258.67 1214.22 1261.49 C 1211.6 1261.7 1209.19 1261.83 1206.62 1261.18 C 1203.09 1260.28 1199.87 1257.82 1198.26 1254.54 C 1196.37 1250.73 1196.67 1246.4 1198.06 1242.48 C 1200.41 1235.81 1205.06 1233.05 1211.15 1230.11 z" fill="rgb(255,255,255)" transform="translate(0,0)"></path>
<path d="M 781.202 1669.12 C 784.772 1668.95 788.618 1668.53 792.055 1669.73 C 795.964 1671.09 799.167 1673.75 800.737 1677.64 C 803.001 1683.25 801.673 1690.11 799.394 1695.5 C 795.498 1704.7 789.337 1710.48 780.213 1714.24 C 776.847 1714.79 773.897 1714.87 770.562 1713.97 C 766.729 1712.93 763.511 1710.71 761.77 1707.07 C 759.102 1701.51 760.06 1694.25 762.061 1688.64 C 765.613 1678.68 771.807 1673.31 781.202 1669.12 z" fill="rgb(37,43,65)" transform="translate(0,0)"></path>
<path d="M 781.162 1675.04 C 781.973 1674.97 782.788 1674.92 783.602 1674.89 C 787.402 1674.76 791.001 1674.9 793.693 1678.06 C 795.882 1680.63 796.007 1684 795.409 1687.14 C 793.678 1696.26 787.389 1703.2 779.899 1708.14 C 778.791 1708.34 778.783 1708.38 777.475 1708.43 C 774.134 1708.55 770.17 1707.62 767.953 1704.95 C 765.571 1702.07 765.648 1697.92 766.468 1694.49 C 768.589 1685.61 773.568 1679.77 781.162 1675.04 z" fill="rgb(255,255,255)" transform="translate(0,0)"></path>
<path d="M 1047.02 1463.18 C 1051.67 1463.29 1056.31 1463.91 1060.38 1466.35 C 1063.7 1468.35 1065.99 1471.37 1066.73 1475.21 C 1067.76 1480.49 1065.97 1486.06 1063.05 1490.46 C 1057.96 1498.13 1051.16 1502.08 1042.3 1503.89 C 1037.85 1503.77 1033.9 1503.48 1029.93 1501.27 C 1026.02 1499.09 1023.27 1495.79 1022.34 1491.35 C 1021.23 1486.04 1022.69 1480.37 1025.64 1475.89 C 1030.8 1468.04 1038.15 1465.01 1047.02 1463.18 z" fill="rgb(30,38,52)" transform="translate(0,0)"></path>
<path d="M 1045.35 1469.18 C 1048.03 1469.03 1051.17 1469.01 1053.73 1469.87 C 1056.67 1470.85 1059.33 1472.8 1060.33 1475.86 C 1061.25 1478.65 1060.63 1481.57 1059.55 1484.19 C 1056.49 1491.63 1051.11 1494.83 1043.96 1497.74 C 1040.83 1498 1037.29 1498.01 1034.34 1496.8 C 1031.54 1495.64 1029.39 1493.46 1028.66 1490.45 C 1027.83 1487.04 1028.91 1483.43 1030.51 1480.42 C 1033.92 1473.97 1038.67 1471.44 1045.35 1469.18 z" fill="rgb(255,255,255)" transform="translate(0,0)"></path>
<path d="M 1194.86 1296.97 C 1196.43 1297.08 1198 1297.15 1199.53 1297.52 C 1204.66 1298.75 1210.21 1301.66 1212.65 1306.54 C 1215.1 1311.45 1214.58 1317.34 1212.55 1322.29 C 1208.99 1330.98 1202.57 1336.07 1194.15 1339.65 C 1189.89 1340.02 1185.86 1340.33 1181.83 1338.61 C 1178.12 1337.03 1175.21 1334.23 1173.79 1330.42 C 1171.62 1324.62 1172.79 1317.65 1175.51 1312.23 C 1179.75 1303.76 1186.11 1299.82 1194.86 1296.97 z" fill="rgb(30,38,52)" transform="translate(0,0)"></path>
<path d="M 1190.04 1305.06 C 1192.37 1304.94 1194.73 1304.8 1197.06 1304.89 C 1200.55 1305.02 1204.39 1306.73 1206.52 1309.58 C 1208.48 1312.21 1208.75 1315.5 1207.99 1318.58 C 1206.25 1325.57 1201.18 1329.16 1195.46 1332.81 C 1192.72 1333.74 1189.89 1334.4 1186.96 1334.12 C 1184.43 1333.88 1181.81 1332.63 1180.27 1330.56 C 1177.65 1327.03 1177.77 1322.54 1178.8 1318.46 C 1180.51 1311.66 1184.25 1308.57 1190.04 1305.06 z" fill="rgb(255,255,255)" transform="translate(0,0)"></path>
<path d="M 906.594 1549.09 C 911.106 1548.72 915.587 1548.75 919.925 1550.18 C 923.589 1551.4 926.879 1553.55 928.527 1557.17 C 930.175 1560.78 929.831 1565 928.508 1568.66 C 924.999 1578.37 916.597 1583.72 907.642 1587.68 C 903.167 1588.19 898.777 1588.4 894.473 1586.82 C 890.745 1585.45 887.44 1582.97 885.804 1579.27 C 883.737 1574.59 884.174 1569.29 886.226 1564.68 C 890.17 1555.84 898.025 1552.14 906.594 1549.09 z" fill="rgb(37,43,65)" transform="translate(0,0)"></path>
<path d="M 908.557 1553.08 C 910.134 1553.05 911.647 1553.24 913.198 1553.51 C 916.8 1554.14 920.872 1555.53 922.722 1558.98 C 924.254 1561.84 923.857 1565.05 922.646 1567.91 C 919.512 1575.32 913.267 1579.42 906.009 1582.19 C 902.654 1582.51 899.399 1582.67 896.161 1581.54 C 893.723 1580.68 891.491 1578.94 890.55 1576.46 C 889.157 1572.8 890.423 1568.8 892.228 1565.54 C 895.964 1558.81 901.394 1555.35 908.557 1553.08 z" fill="rgb(255,255,255)" transform="translate(0,0)"></path>
<path d="M 1151.1 1358.16 C 1154.71 1357.83 1158.69 1357.72 1162.18 1358.78 C 1166.76 1360.19 1170.81 1363.17 1172.98 1367.51 C 1175.35 1372.24 1175.19 1377.83 1173.4 1382.73 C 1170.52 1390.64 1164.82 1395.07 1157.39 1398.44 C 1154.27 1398.97 1151.34 1399.21 1148.26 1398.32 C 1143.12 1396.85 1138.85 1393.84 1136.5 1388.95 C 1133.92 1383.58 1133.86 1377.38 1136.04 1371.87 C 1138.95 1364.54 1144.22 1361.36 1151.1 1358.16 z" fill="rgb(37,43,65)" transform="translate(0,0)"></path>
<path d="M 1152.14 1363.1 C 1154.32 1363 1156.8 1362.99 1158.94 1363.47 C 1162.55 1364.29 1166.01 1366.66 1167.73 1369.97 C 1169.58 1373.52 1169.28 1377.73 1167.89 1381.38 C 1165.6 1387.38 1161.41 1390.01 1155.84 1392.69 C 1154.21 1392.59 1152.57 1392.47 1150.96 1392.22 C 1147.15 1391.63 1143.48 1389.18 1141.41 1385.92 C 1139.28 1382.59 1139.05 1378.67 1140.16 1374.93 C 1142.01 1368.67 1146.6 1365.85 1152.14 1363.1 z" fill="rgb(255,255,255)" transform="translate(0,0)"></path>
<path d="M 754.177 1738.85 C 759.273 1740.18 762.421 1742.11 765.596 1746.39 C 770.166 1752.56 771.588 1760.71 770.224 1768.18 C 768.82 1775.87 765.553 1780.37 759.167 1784.63 C 758.073 1784.73 757.048 1784.72 755.957 1784.57 C 752.027 1784.02 748.788 1782.43 746.449 1779.13 C 741.985 1772.84 742.026 1763.64 743.482 1756.39 C 745.044 1748.61 747.599 1743.35 754.177 1738.85 z" fill="rgb(37,43,65)" transform="translate(0,0)"></path>
<path d="M 754.066 1745.39 C 755.792 1746.06 757.538 1746.83 759.044 1747.92 C 762.42 1750.36 764.358 1754.79 764.948 1758.81 C 766.052 1766.33 763.378 1773.38 758.826 1779.22 C 756.571 1779.06 754.275 1778.91 752.382 1777.5 C 750.06 1775.78 748.937 1772.92 748.367 1770.19 C 746.652 1761.98 749.464 1752.2 754.066 1745.39 z" fill="rgb(255,255,255)" transform="translate(0,0)"></path>
<path d="M 1003.41 1874.06 C 1003.52 1874.09 1003.65 1874.08 1003.74 1874.16 C 1005.47 1875.66 1007.48 1878.44 1007.96 1880.7 C 1008.78 1884.47 1007.12 1887.93 1004.83 1890.79 C 999.744 1897.14 994.477 1899 986.57 1899.88 C 984.261 1898.38 982.196 1896.53 981.383 1893.79 C 980.735 1891.6 981.06 1889.43 982.114 1887.43 C 986.034 1880 995.919 1876.52 1003.41 1874.06 z" fill="rgb(30,38,52)" transform="translate(0,0)"></path>
<path d="M 1000.02 1879.66 C 1002.2 1880.78 1002.09 1881.02 1003.34 1882.94 C 1003.3 1883.9 1003.34 1884.59 1002.96 1885.54 C 1001.02 1890.42 993.86 1893.8 989.389 1895.7 C 989.016 1895.48 988.603 1895.32 988.27 1895.05 C 986.434 1893.53 986.705 1892.68 986.794 1890.52 C 989.851 1885.02 994.506 1882.36 1000.02 1879.66 z" fill="rgb(255,255,255)" transform="translate(0,0)"></path>
<path d="M 917.869 1913.38 C 920.112 1915.87 920.518 1916.31 921.159 1919.56 C 920.278 1921.46 919.966 1922.46 918.15 1923.65 C 912.817 1927.14 905.647 1927.17 899.62 1926.18 C 899.403 1924.98 899.408 1923.76 899.349 1922.54 L 900.959 1921.15 C 904.683 1921.57 910.291 1922.45 913.608 1920.47 C 916.742 1918.61 916.97 1916.6 917.869 1913.38 z" fill="rgb(37,43,65)" transform="translate(0,0)"></path>
<path d="M 376.216 512.402 C 458.071 495.835 518.825 540.121 535.493 621.476 C 545.323 669.455 533.987 717.978 511.779 760.841 C 487.347 809.531 452.306 843.073 410.666 876.904 C 351.364 925.084 275.474 968.014 252.79 1046.11 C 234.651 1108.05 257.53 1168.31 310.654 1204.8 C 394.904 1262.69 505.271 1244.83 591.701 1201.92 C 602.192 1196.71 613.27 1190.62 622.604 1183.47 C 595.523 1219.17 563.582 1253.84 527.617 1281.06 C 525.343 1282.78 516.482 1288.67 514.063 1289.43 C 510.248 1289.49 510.065 1289.56 506.334 1290.49 C 498.606 1289.88 477.255 1295.04 467.981 1296.42 C 390.209 1307.97 291.937 1283.6 237.506 1224.51 C 204.67 1189.18 187.296 1142.2 189.24 1094.01 C 190.481 1069.18 196.761 1047.14 206.033 1024.25 C 255.274 902.722 403.7 874.725 472.662 770.538 C 514.034 708.035 525.307 613.368 469.458 555.6 C 442.03 527.229 416.456 516.511 376.916 514.929 L 376.216 512.402 z" fill="rgb(234,152,150)" transform="translate(0,0)"></path>
<path d="M 896.582 1067.05 C 901.916 1076.49 904.777 1079.08 913.644 1084.35 C 908.927 1105.5 903.925 1123.69 892.034 1142.03 C 886.521 1150.53 881.016 1158.34 873.396 1165.07 C 867.16 1170.58 857.97 1174.54 853.825 1182.06 C 849.53 1189.84 848.464 1200.05 845.913 1208.53 C 842.695 1220.02 835.591 1232.85 825.056 1238.96 C 816.815 1243.74 800.406 1242.15 795.929 1232.78 C 788.704 1217.67 805.626 1191.52 823.104 1198.43 C 828.264 1200.47 827.852 1213.73 832.325 1215.93 C 837.36 1211.47 835.265 1202.79 831.968 1197.85 C 829.463 1194.08 825.531 1191.5 821.078 1190.7 C 797.493 1186.45 777.008 1219.95 791.955 1238.94 C 797.56 1246.07 803.971 1246.75 812.233 1247.85 C 796.617 1268.12 791.865 1287.92 776.487 1307.62 C 765.599 1323.03 743.246 1328.12 731.207 1340.24 C 715.732 1355.81 717.074 1379.8 688.812 1382.81 C 691.606 1384.86 691.196 1383.92 692.504 1386.65 C 670.664 1403.14 662.93 1397.96 640.394 1409.74 C 639.154 1403.17 638 1396.73 631.76 1393.32 C 612.957 1383.04 578.793 1399.68 567.749 1416.04 C 562.821 1423.34 565.21 1429.67 567.086 1437.21 C 562.97 1437.74 546.788 1440.48 544.493 1439.38 C 542.783 1431.94 541.515 1422.26 532.649 1419.16 C 513.977 1412.63 479.278 1420.48 469.404 1438.93 C 466.755 1443.88 470.072 1448.73 471.473 1453.25 C 466.524 1454.59 447.45 1454.7 440.178 1455.77 C 448.22 1442.56 440.881 1432.7 426.702 1429.93 C 413.089 1427.27 396.056 1428.68 384.389 1436.53 C 376.519 1441.82 375.444 1446.44 373.851 1455.15 C 340.503 1454.17 309.609 1455.34 285.417 1481.87 C 273.896 1494.62 268.009 1511.48 269.089 1528.64 C 270.771 1558.94 287.79 1583.94 310.058 1603.24 C 358.868 1645.54 425.179 1659.03 487.917 1655.16 C 420.825 1684.67 317.276 1692.39 264.495 1628.72 C 245.911 1606.3 238.171 1566.97 242.283 1538.48 C 256.803 1437.89 361.044 1417.7 445.252 1409.01 C 509.55 1401.36 586.465 1374.03 639.697 1337.69 C 709.835 1289.8 758.499 1215.35 813.113 1151.82 C 839.914 1120.65 863.474 1091.96 896.582 1067.05 z" fill="rgb(255,255,255)" transform="translate(0,0)"></path>
<path d="M 692.504 1386.65 C 675.133 1388.26 663.806 1381.96 666.92 1362.21 C 670.305 1344.6 688.868 1329.53 707.101 1333.91 C 712.09 1335.11 720.707 1344.17 718.153 1350 L 715.42 1350.86 C 714.286 1349.34 709.765 1343.36 708.129 1342.62 C 691.113 1334.95 669.949 1357.28 675.878 1374.05 C 677.447 1378.49 683.363 1380.89 687.553 1382.37 L 688.812 1382.81 C 691.606 1384.86 691.196 1383.92 692.504 1386.65 z" fill="rgb(37,43,65)" transform="translate(0,0)"></path>
<path d="M 860.18 1116.11 C 864.876 1115.67 869.26 1115.6 873.738 1117.31 C 878.26 1119.05 881.858 1122.06 883.781 1126.58 C 886.169 1132.19 885.257 1138.85 882.986 1144.34 C 878.88 1154.26 871.451 1160.95 861.681 1164.97 C 857.222 1165.7 853.152 1166.16 848.763 1164.77 C 844.503 1163.41 840.994 1160.49 839.121 1156.41 C 835.987 1149.58 837.009 1140.98 839.91 1134.26 C 844.023 1124.74 850.824 1119.86 860.18 1116.11 z" fill="rgb(37,43,65)" transform="translate(0,0)"></path>
<path d="M 863.724 1122.09 C 866.98 1122.19 870.031 1122.5 872.996 1123.97 C 875.755 1125.34 877.871 1127.73 878.778 1130.69 C 880.318 1135.71 878.73 1141.38 876.359 1145.88 C 872.372 1153.45 867.161 1157.69 859.083 1160.24 C 856.018 1160.2 853.012 1160.2 850.193 1158.84 C 846.771 1157.19 844.205 1154.18 843.258 1150.5 C 841.906 1145.23 843.565 1139.28 846.277 1134.72 C 850.553 1127.52 855.793 1124.23 863.724 1122.09 z" fill="rgb(255,255,255)" transform="translate(0,0)"></path>
<path d="M 857.794 1141.3 C 860.056 1141.82 861.101 1142.99 862.753 1144.55 C 863.936 1147.91 863.859 1148.47 863.12 1151.98 C 860.101 1151.11 858.134 1150.73 856.195 1148.03 C 855.75 1145.01 856.45 1143.9 857.794 1141.3 z" fill="rgb(37,43,65)" transform="translate(0,0)"></path>
<path d="M 762.742 1262.17 C 766.891 1262.41 770.856 1262.95 774.554 1264.99 C 778.801 1267.33 781.265 1270.66 782.424 1275.35 C 783.663 1280.36 782.662 1284.85 779.942 1289.16 L 778.471 1289.32 C 774.583 1284.16 777.675 1276.1 772.281 1271.44 C 770.573 1269.96 768.171 1269.67 765.993 1269.74 C 760.412 1269.93 754.969 1272.03 751.155 1276.14 C 747.335 1280.26 742.141 1289.77 742.474 1295.55 C 742.816 1301.49 745.332 1305.07 749.562 1309.01 C 756.463 1311.31 762.264 1309.09 768.98 1310.7 L 769.363 1311.91 C 766.492 1314.41 762.66 1316.03 759.032 1317.16 C 754.068 1318.71 748.809 1318.72 744.188 1316.1 C 738.924 1313.11 735.624 1307.44 734.287 1301.68 C 732.319 1293.19 734.915 1284.13 739.619 1276.99 C 745.213 1268.5 752.916 1264.07 762.742 1262.17 z" fill="rgb(37,43,65)" transform="translate(0,0)"></path>
<path d="M 824.164 1212.64 C 825.936 1214.69 827.395 1217.35 827.894 1220 C 827.249 1221.76 826.737 1222.86 825.315 1224.14 C 821.841 1227.29 815.431 1228.22 810.938 1228.04 C 810.051 1226.83 809.251 1225.52 808.425 1224.27 L 808.967 1222.6 C 812.929 1223.03 815.454 1223.02 819.267 1221.79 C 822.228 1219.46 822.963 1216.07 824.164 1212.64 z" fill="rgb(37,43,65)" transform="translate(0,0)"></path>
<path d="M 459.335 722.806 C 473.811 698.547 490.207 683.592 492.562 652.764 C 493.294 643.188 493.011 633.432 493.766 624.075 C 502.93 683.122 495.397 721.077 459.635 770.402 C 419.72 825.456 361.996 854.868 307.504 891.995 C 227.303 947.17 164.553 1030.45 180.48 1132.9 C 188.461 1184.25 215.568 1226.03 257.771 1255.74 C 331.221 1307.43 422.162 1318.08 506.334 1290.49 C 510.065 1289.56 510.248 1289.49 514.063 1289.43 C 483.372 1308.93 453.724 1316.65 418.656 1322.91 C 408.148 1314.21 388.432 1316.14 377.911 1324.53 C 361.618 1326.99 340.912 1329.53 324.705 1329.14 C 340.152 1298.55 289.377 1277.32 273.569 1295.91 C 264.609 1306.44 302.983 1335.48 310.775 1318.87 C 306.806 1317.43 306.156 1318.9 302.345 1318.65 C 295.202 1318.17 286.947 1313.87 282.151 1308.6 C 279.697 1305.91 279.647 1304.18 279.833 1300.84 C 288.897 1284 330.566 1305.54 318.907 1322.55 C 309.25 1336.63 288.667 1330.94 276.816 1323.13 C 274.921 1318.73 273.607 1313.51 272.267 1308.86 C 264.461 1306.05 256.24 1304.59 248.88 1301.12 C 248.437 1301.11 245.209 1298.61 245.313 1298.32 C 247.079 1293.57 249.823 1288.38 250.294 1283.32 C 252.138 1263.53 219.808 1250.47 204.22 1256.46 C 185.024 1263.83 205.324 1279.11 214.719 1283.97 C 219.446 1286.41 226.022 1290.82 230.734 1287.67 C 226.917 1281.23 200.729 1277.37 202.664 1265.43 C 208.715 1258.13 218.013 1260.34 225.758 1263.32 C 259.484 1276.33 243.577 1313.02 210.63 1290.94 C 196.878 1281.72 193.356 1276.04 189.883 1259.96 C 183.745 1253.58 176.624 1247.81 169.855 1242.07 C 171.921 1224.66 181.013 1235.52 187.113 1225.52 C 201.243 1202.37 177.538 1171.44 151.593 1177.32 C 143.777 1179.09 138.747 1188.35 135.166 1194.03 C 130.819 1173.57 122.914 1155.15 119.049 1134.81 C 128.208 1113.86 125.474 1091.22 111.529 1073.21 C 116.271 1056.47 121.006 1023.52 131.589 1006.28 C 133.734 1005.19 136.021 1003.87 138.12 1002.71 C 149.788 996.291 160.671 985.647 161.218 971.546 C 161.445 965.712 159.632 961.053 157.701 955.532 C 164.299 947.389 176.68 937.675 182.587 928.936 C 183.023 925.514 182.671 917.076 184.11 914.209 C 189.178 904.082 205.195 885.559 217.75 890.522 C 224.454 893.172 219.803 901.771 217.497 905.652 C 218.207 907.252 219.096 909.498 219.977 910.934 L 220.752 909.907 C 220.426 905.265 223.252 902.7 226.191 898.843 C 225.52 894.845 225.256 893.364 223.991 889.551 C 237.97 878.621 242.315 874.109 252.541 859.254 C 260.414 847.817 274.463 846.087 287.592 845.032 C 300.84 834.388 318.902 825.884 333.978 817.51 C 384.118 789.66 421.077 770.496 457.04 725.013 L 459.335 722.806 z" fill="rgb(255,255,255)" transform="translate(0,0)"></path>
<path d="M 459.335 722.806 C 465.466 716.287 473.687 700.886 483.401 708.628 C 492.994 722.99 451.69 757.748 457.04 725.013 L 459.335 722.806 z" fill="rgb(30,38,52)" transform="translate(0,0)"></path>
<path d="M 474.217 712.614 C 475.553 712.799 476.449 713.17 477.682 713.685 C 478.945 715.85 479.331 716.311 478.657 718.907 C 477.24 724.366 471.269 729.05 466.827 731.934 C 464.608 731.657 464.494 731.561 462.849 730.035 C 462.704 729.076 462.557 728.542 462.756 727.506 C 463.846 721.85 470.05 716.256 474.217 712.614 z" fill="rgb(255,255,255)" transform="translate(0,0)"></path>
<path d="M 217.497 905.652 C 218.207 907.252 219.096 909.498 219.977 910.934 C 208.462 922.568 202.513 925.92 186.6 928.264 C 202.788 918.411 202.593 922.385 217.497 905.652 z" fill="rgb(30,38,52)" transform="translate(0,0)"></path>
<path d="M 138.833 1084.99 C 141.114 1084.8 143.74 1084.68 145.991 1085.14 C 150.801 1086.13 155.38 1090.63 158.102 1094.49 C 164.413 1103.42 166.978 1116.56 164.928 1127.25 C 163.533 1134.52 160.578 1139.47 154.533 1143.71 C 152.263 1144.19 149.75 1144.57 147.423 1144.36 C 143.26 1143.98 139.696 1141.54 137.045 1138.43 C 130.054 1130.24 128.547 1116.84 129.372 1106.37 C 130.075 1097.46 131.921 1090.81 138.833 1084.99 z" fill="rgb(37,43,65)" transform="translate(0,0)"></path>
<path d="M 140.144 1090.75 C 143.922 1090.85 146.373 1091.12 149.401 1093.71 C 156.468 1099.76 159.475 1110.11 159.744 1119.12 C 159.961 1126.4 158.599 1131.91 153.538 1137.24 C 149.301 1137.97 146.059 1138.64 142.376 1135.83 C 137.037 1131.76 135.159 1123.06 134.436 1116.84 C 133.332 1107.33 134.11 1098.42 140.144 1090.75 z" fill="rgb(255,255,255)" transform="translate(0,0)"></path>
<path d="M 202.122 931.947 C 203.945 932.098 205.745 932.456 207.488 933.013 C 211.323 934.267 215.247 937.198 216.982 940.912 C 219.257 945.779 218.107 951.736 216.21 956.528 C 211.909 967.395 203.491 975.013 192.975 979.592 C 190.503 979.708 187.943 979.613 185.567 978.836 C 182.341 977.781 179.242 975.598 177.704 972.51 C 175.378 967.838 176.553 961.753 178.347 957.109 C 182.423 946.564 191.859 936.573 202.122 931.947 z" fill="rgb(37,43,65)" transform="translate(0,0)"></path>
<path d="M 202.535 937.771 C 203.811 937.906 204.344 937.916 205.638 938.269 C 208.058 938.929 210.169 940.299 211.233 942.665 C 212.389 945.236 211.965 948.319 211.181 950.927 C 208.235 960.729 200.728 968.61 191.795 973.166 C 190.443 973.095 189.078 973.054 187.739 972.839 C 185.546 972.486 183.734 971.238 182.623 969.292 C 181.148 966.708 181.513 963.589 182.331 960.867 C 185.353 950.809 193.523 942.634 202.535 937.771 z" fill="rgb(255,255,255)" transform="translate(0,0)"></path>
<path d="M 152.175 1008.07 C 155.141 1007.87 158.018 1007.68 160.874 1008.67 C 165.303 1010.22 169.013 1013.75 170.996 1017.97 C 174.062 1024.49 173.699 1032.65 170.925 1039.21 C 167.584 1047.11 162.551 1050.91 154.736 1053.89 C 152.983 1053.86 151.234 1053.72 149.499 1053.47 C 144.839 1052.76 140.164 1050.02 137.509 1046.08 C 134.254 1041.25 133.989 1034.61 135.341 1029.1 C 137.69 1019.52 144.101 1013.2 152.175 1008.07 z" fill="rgb(37,43,65)" transform="translate(0,0)"></path>
<path d="M 154.483 1012.87 C 156.25 1013.04 157.76 1013.34 159.371 1014.09 C 162.949 1015.75 165.402 1018.66 166.599 1022.41 C 168.303 1027.75 166.8 1033.96 164.22 1038.77 C 161.207 1044.38 157.606 1046.44 151.714 1048.35 C 147.081 1047.05 143.543 1045.59 141.024 1041.25 C 138.949 1037.68 138.864 1033.52 139.943 1029.61 C 142.224 1021.33 147.223 1016.88 154.483 1012.87 z" fill="rgb(255,255,255)" transform="translate(0,0)"></path>
<path d="M 257.844 877.107 C 259.674 877.107 261.626 877.068 263.428 877.418 C 266.792 878.072 270.661 880.669 272.143 883.768 C 274.1 887.861 272.97 893.093 271.44 897.14 C 267.293 908.11 258.74 914.916 248.354 919.49 C 245.466 919.722 243.039 919.709 240.318 918.566 C 236.855 917.111 234.134 914.665 232.926 911.026 C 231.019 905.283 232.928 897.824 235.813 892.724 C 240.792 883.922 248.409 879.762 257.844 877.107 z" fill="rgb(30,38,52)" transform="translate(0,0)"></path>
<path d="M 256.485 882.936 C 257.459 882.916 258.435 882.873 259.408 882.924 C 262.434 883.081 264.071 884.289 266.032 886.456 C 266.937 889.077 267.082 891.023 266.174 893.654 C 263.025 902.776 255.733 908.651 247.574 913.012 L 243.025 913.213 C 240.305 912.021 239.35 911.339 237.793 908.798 C 237.245 905.512 237.18 903.07 238.438 899.921 C 242.087 890.788 247.837 886.653 256.485 882.936 z" fill="rgb(255,255,255)" transform="translate(0,0)"></path>
<path d="M 314.422 838.063 C 317.467 837.884 320.492 837.677 323.45 838.582 C 326.508 839.518 329.725 841.583 331.074 844.605 C 333.131 849.212 332.295 854.479 330.269 858.959 C 326.334 867.658 319.919 872.155 311.292 875.577 C 308.215 875.699 305.302 875.736 302.341 874.756 C 298.761 873.573 295.493 871.111 294.049 867.546 C 292.315 863.268 293.183 858.051 295.026 853.958 C 298.97 845.197 305.872 841.285 314.422 838.063 z" fill="rgb(37,43,65)" transform="translate(0,0)"></path>
<path d="M 316.842 842.997 C 318.336 843.107 318.819 843.092 320.382 843.457 C 323.077 844.086 324.777 845.803 326.3 848.002 C 327.143 851.376 326.733 853.776 325.116 856.825 C 321.316 863.992 316.273 867.872 308.66 870.279 C 307.316 870.151 305.88 870.073 304.579 869.658 C 302.086 868.861 299.611 866.966 298.585 864.53 C 297.468 861.88 298.31 858.681 299.564 856.228 C 303.427 848.668 308.978 845.433 316.842 842.997 z" fill="rgb(255,255,255)" transform="translate(0,0)"></path>
<path d="M 374.475 802.114 C 377.577 801.593 380.049 801.508 383.073 802.55 C 386.402 803.696 388.514 805.006 390.017 808.352 C 391.626 811.938 390.598 816.78 389.243 820.268 C 385.859 828.988 379.667 833.047 371.621 836.86 C 368.984 837.243 365.918 837.63 363.301 837.023 C 360.365 836.343 357.519 834.906 356.075 832.122 C 354.51 829.104 354.991 825.542 355.892 822.409 C 358.743 812.482 365.951 806.957 374.475 802.114 z" fill="rgb(30,38,52)" transform="translate(0,0)"></path>
<path d="M 373.225 807.044 C 375.213 806.732 377.511 806.46 379.496 806.852 C 382.076 807.361 383.312 808.732 384.726 810.783 C 385.317 813.122 385.484 814.805 384.784 817.164 C 382.714 824.135 378.776 827.157 372.734 830.712 C 371.033 830.912 369.14 831.242 367.432 831.151 C 364.812 831.012 363.581 830.276 361.716 828.535 C 360.898 826.775 360.501 825.745 360.675 823.752 C 361.293 816.646 368.032 811.041 373.225 807.044 z" fill="rgb(255,255,255)" transform="translate(0,0)"></path>
<path d="M 437.973 754.804 C 439.032 754.897 439.963 754.922 440.993 755.291 C 443.28 756.111 444.853 757.743 445.805 759.94 C 447.576 764.022 447.661 768.525 445.926 772.618 C 441.702 782.585 428.87 789.617 419.39 793.8 C 418.901 793.697 418.407 793.619 417.924 793.492 C 414.68 792.641 411.386 790.785 409.853 787.645 C 408.647 785.174 408.855 782.313 409.806 779.81 C 414.164 768.338 427.162 759.598 437.973 754.804 z" fill="rgb(30,38,52)" transform="translate(0,0)"></path>
<path d="M 434.842 761.907 C 435.62 761.788 436.766 761.57 437.532 761.653 C 439.902 761.909 440.588 762.816 442.037 764.47 C 442.098 765.669 442.202 766.472 441.95 767.708 C 440.3 775.818 429.02 782.607 422.377 786.226 C 419.789 786.305 418.444 786.108 416.103 784.989 C 414.875 783.232 414.262 782.641 414.862 780.355 C 417.024 772.121 427.85 765.764 434.842 761.907 z" fill="rgb(255,255,255)" transform="translate(0,0)"></path>
<path d="M 1748.15 606.299 C 1763.09 605.54 1777.28 609.14 1789.99 617.066 C 1812.25 630.947 1822.37 653.075 1828.24 677.704 C 1820.55 667.664 1813.55 657.876 1803.54 649.946 C 1786.77 636.66 1765.31 629.589 1743.93 632.198 C 1716.5 635.545 1692.27 652.577 1675.58 673.978 C 1652.29 704.037 1641.93 742.132 1646.79 779.846 C 1655.19 845.178 1722.22 879.574 1775.33 906.036 C 1847.41 941.95 1926.99 988.785 1938.7 1077.01 C 1950.59 1166.59 1876.75 1235.25 1791.24 1244.42 C 1753.46 1252.47 1699.08 1240.92 1662.24 1230.72 C 1670.71 1204.35 1672.62 1187.94 1673.8 1160.9 C 1737.01 1194.41 1816.2 1199.14 1863.97 1137.02 C 1894.14 1102.17 1892.98 1044.34 1861.85 1009.09 C 1790.06 927.804 1643.65 917.752 1626.1 790.172 C 1619.94 746.623 1631.27 702.406 1657.61 667.184 C 1677.08 641.636 1715.32 610.64 1748.15 606.299 z" fill="rgb(234,152,150)" transform="translate(0,0)"></path>
<path d="M 1079.86 999.527 C 1125.03 1029.59 1163.15 1103.85 1148.71 1157.46 C 1118.68 1268.99 1039.92 1369.17 948.877 1438.15 C 938.854 1445.74 927.959 1455.2 917.534 1461.9 C 916.564 1457.56 916.669 1452.22 913.713 1449.05 C 902.81 1437.36 884.65 1446.62 875.213 1455.46 L 874.195 1456.43 C 862.898 1459.95 847.199 1469.04 836.397 1474.7 C 830.957 1477.56 821.881 1483.96 816.403 1485.19 L 815.471 1484.58 C 819.631 1481.38 824.332 1478.26 828.633 1475.24 C 959.969 1383.24 1057.42 1239.54 1076.74 1078.5 C 1079.96 1051.65 1083.81 1026.78 1079.86 999.527 z" fill="rgb(255,255,255)" transform="translate(0,0)"></path>
<path d="M 1121.98 1105.22 C 1125.96 1105.34 1129.69 1105.75 1133.43 1107.23 C 1138.38 1109.19 1142.35 1112.98 1144.32 1117.95 C 1147.22 1125.3 1145.93 1133.94 1142.85 1141.02 C 1138.69 1150.57 1132.57 1155.74 1123 1159.38 C 1117.27 1159.51 1112.44 1159.29 1107.42 1156.17 C 1101.96 1152.78 1098.46 1147.46 1097.12 1141.21 C 1095.36 1133.06 1097.08 1124.02 1101.87 1117.19 C 1107.08 1109.75 1113.32 1106.94 1121.98 1105.22 z" fill="rgb(37,43,65)" transform="translate(0,0)"></path>
<path d="M 1120.28 1111.16 C 1124.31 1110.87 1128.26 1110.91 1131.96 1112.71 C 1135.62 1114.51 1138.4 1117.69 1139.68 1121.56 C 1141.74 1127.57 1140.6 1134.39 1137.91 1140.01 C 1134.74 1146.62 1130.48 1150.59 1123.65 1153.08 C 1120.82 1153.13 1117.75 1153.19 1114.99 1152.52 C 1110.4 1151.41 1106.16 1147.68 1104.11 1143.48 C 1101.52 1138.18 1101.73 1131.61 1103.85 1126.2 C 1107.08 1117.98 1112.47 1114.56 1120.28 1111.16 z" fill="rgb(255,255,255)" transform="translate(0,0)"></path>
<path d="M 1117.68 1126.41 C 1119.87 1127.75 1120.41 1128.26 1121.07 1130.96 C 1121.78 1133.84 1120.4 1136.43 1118.84 1138.68 C 1116.06 1137.11 1115.4 1136.92 1113.84 1134.01 C 1114.14 1130.67 1115.71 1128.95 1117.68 1126.41 z" fill="rgb(37,43,65)" transform="translate(0,0)"></path>
<path d="M 1088.69 1185.14 C 1091.79 1184.97 1094.86 1184.8 1097.91 1185.49 C 1105.4 1187.17 1109.06 1192.17 1112.86 1198.44 C 1113.27 1206.28 1113.24 1212.59 1109.7 1219.87 C 1105.56 1228.39 1098.14 1232.65 1089.66 1235.83 C 1084.6 1236.12 1080.09 1236.16 1075.45 1233.88 C 1070.59 1231.5 1067.15 1227.35 1065.63 1222.17 C 1063.47 1214.83 1064.88 1206.63 1068.6 1200.02 C 1073.32 1191.63 1079.75 1187.91 1088.69 1185.14 z" fill="rgb(37,43,65)" transform="translate(0,0)"></path>
<path d="M 1087.36 1193.14 C 1090.33 1192.94 1093.51 1192.69 1096.42 1193.47 C 1100.16 1194.48 1103.66 1196.93 1105.53 1200.35 C 1107.69 1204.29 1107.64 1209.06 1106.25 1213.24 C 1103.63 1221.14 1098.33 1225.1 1091.08 1228.58 C 1088.31 1229.09 1085.11 1229.14 1082.39 1228.31 C 1078.71 1227.19 1075.61 1224.92 1073.83 1221.47 C 1071.63 1217.21 1071.79 1212.03 1073.18 1207.56 C 1075.57 1199.84 1080.42 1196.62 1087.36 1193.14 z" fill="rgb(255,255,255)" transform="translate(0,0)"></path>
<path d="M 1085.81 1204.38 C 1088.66 1205.02 1088.85 1204.96 1090.7 1207.18 C 1091.16 1210.55 1090.11 1212.79 1088.9 1215.84 C 1086.14 1214.4 1085.49 1214.09 1083.81 1211.51 C 1083.51 1208.49 1084.44 1206.93 1085.81 1204.38 z" fill="rgb(30,38,52)" transform="translate(0,0)"></path>
<path d="M 1009.58 1331.28 C 1014.12 1330.97 1017.64 1330.94 1021.68 1333.33 C 1025.24 1335.43 1027.53 1338.56 1028.42 1342.59 C 1030.07 1350.15 1027.58 1358.46 1023.26 1364.7 C 1017.63 1372.84 1010.87 1377.02 1001.3 1378.99 C 997.956 1378.65 994.67 1377.85 991.662 1376.33 C 987.476 1374.21 984.098 1371.19 982.721 1366.58 C 980.943 1360.63 982.332 1353.97 985.249 1348.61 C 990.57 1338.83 999.269 1334.12 1009.58 1331.28 z" fill="rgb(37,43,65)" transform="translate(0,0)"></path>
<path d="M 1007.58 1337.06 C 1010.23 1336.89 1013.57 1336.69 1016.1 1337.58 C 1019.2 1338.65 1021.33 1340.92 1022.58 1343.9 C 1024.32 1348.05 1022.76 1353.98 1021 1357.86 C 1017.37 1365.85 1012.56 1370.14 1004.47 1373.24 C 1002.08 1373.26 999.379 1373.28 997.047 1372.65 C 993.502 1371.68 990.022 1369.28 988.491 1365.86 C 986.816 1362.12 987.528 1357.69 988.96 1354 C 992.442 1345.01 999.218 1340.73 1007.58 1337.06 z" fill="rgb(255,255,255)" transform="translate(0,0)"></path>
<path d="M 1012.96 1352.7 C 1013.08 1353 1013.3 1353.28 1013.33 1353.61 C 1013.62 1356.76 1009.57 1361.59 1007.87 1364.27 C 1007.78 1363.95 1007.66 1363.64 1007.61 1363.32 C 1007.14 1360.41 1011.39 1355.17 1012.96 1352.7 z" fill="rgb(201,200,202)" transform="translate(0,0)"></path>
<path d="M 951.683 1387.05 C 955.674 1386.93 959.374 1387.28 963.096 1388.85 C 966.512 1390.29 969.523 1392.56 970.757 1396.22 C 972.323 1400.86 971.133 1406.12 969.1 1410.42 C 964.35 1420.47 955.759 1427.11 945.626 1431.03 C 941.063 1431.83 936.339 1431.89 932.021 1430.01 C 929.025 1428.71 926.744 1426.38 925.688 1423.26 C 923.785 1417.65 925.497 1410.89 928.115 1405.8 C 933.17 1395.97 941.44 1390.4 951.683 1387.05 z" fill="rgb(37,43,65)" transform="translate(0,0)"></path>
<path d="M 949.35 1393.05 C 951.533 1392.89 953.823 1392.7 956.008 1392.86 C 959.179 1393.11 963.036 1394.78 964.732 1397.55 C 966.393 1400.26 966.074 1403.71 965.181 1406.61 C 962.425 1415.56 955.099 1421.41 947.052 1425.41 C 944.067 1426.03 940.573 1426.64 937.562 1426 C 934.95 1425.45 932.74 1424.11 931.51 1421.65 C 929.825 1418.29 930.564 1413.96 931.79 1410.56 C 935.04 1401.54 941.016 1397.01 949.35 1393.05 z" fill="rgb(255,255,255)" transform="translate(0,0)"></path>
<path d="M 1051.38 1259.12 C 1054.85 1258.98 1058.38 1258.73 1061.69 1259.98 C 1066.02 1261.61 1069.24 1264.98 1070.87 1269.28 C 1073.44 1276.04 1072.4 1284.48 1069.23 1290.86 C 1065.37 1298.64 1059.86 1302.19 1051.87 1305.03 C 1048.48 1305.25 1044.83 1305.6 1041.58 1304.41 C 1037.33 1302.85 1033.88 1299.84 1032.09 1295.65 C 1029.51 1289.58 1030.2 1281.73 1032.74 1275.76 C 1036.56 1266.77 1042.63 1262.61 1051.38 1259.12 z" fill="rgb(37,43,65)" transform="translate(0,0)"></path>
<path d="M 1051.36 1265.97 C 1053.45 1265.89 1055.75 1265.71 1057.75 1266.45 C 1061 1267.66 1063.76 1270.74 1064.94 1273.95 C 1066.76 1278.87 1065.79 1284.26 1063.56 1288.87 C 1061.12 1293.95 1057.18 1296.21 1052.05 1298.02 C 1049.44 1298.06 1046.4 1298.11 1043.84 1297.47 C 1041.18 1296.81 1039.13 1294.92 1037.73 1292.62 C 1035.95 1289.72 1036.04 1285.89 1036.87 1282.72 C 1039.07 1274.28 1044.01 1270.01 1051.36 1265.97 z" fill="rgb(255,255,255)" transform="translate(0,0)"></path>
<path d="M 906.999 1609.14 L 907.105 1609.23 C 907.137 1609.65 907.327 1610.08 907.202 1610.48 C 906.9 1611.45 876.444 1645.19 872.591 1650.12 C 849.584 1679.55 830.972 1718.89 835.925 1757.26 C 838.683 1778.61 849.119 1800.38 866.412 1813.67 C 928.573 1861.44 1022.05 1787.03 1075.93 1756.72 C 1113.88 1735.37 1154.28 1714.24 1198.15 1708.96 C 1230.31 1705.09 1264.69 1711.51 1290.55 1731.91 C 1314.4 1750.74 1323.14 1775.4 1326.66 1804.75 C 1320.64 1786.86 1315.04 1773.77 1301.32 1760.41 C 1282.03 1742.16 1257.87 1733.46 1231.56 1732.37 C 1092.51 1726.61 1020.12 1897.29 872.497 1876.77 C 848.713 1873.47 824.921 1863.49 810.219 1843.74 C 793.283 1820.99 790.395 1790.87 794.432 1763.55 C 796.935 1746.61 802.509 1730.26 809.622 1714.72 C 831.797 1666.3 865.696 1639.86 906.999 1609.14 z" fill="rgb(234,152,150)" transform="translate(0,0)"></path>
<path d="M 648.726 874.44 C 704.846 871.366 761.986 896.44 804.621 931.509 C 797.471 941.848 788.916 951.601 781.082 961.457 C 778.771 956.94 776.416 952.506 773.539 948.317 C 756.38 923.33 724.511 906.695 695.14 901.585 C 661.683 896.051 627.399 904.035 599.829 923.78 C 577.246 940.009 559.952 965.638 555.626 993.36 C 552.826 1011.3 556.215 1031.94 567.314 1046.65 C 580.668 1064.34 601.35 1071.64 622.508 1074.67 C 657.186 1078.61 693.052 1064.18 723.028 1048.4 C 717.666 1055.99 712.069 1063.74 706.015 1070.78 C 684.285 1096.06 642.486 1106.25 610.53 1108.59 C 581.844 1110.69 548.03 1107.6 525.443 1087.79 C 508.581 1073 497.524 1050.65 496.247 1028.29 C 494.243 993.213 513.513 950.944 536.508 925.225 C 566.13 892.094 605.099 877.067 648.726 874.44 z" fill="rgb(255,255,255)" transform="translate(0,0)"></path>
<path d="M 1722.4 604.239 L 1723.24 604.308 L 1723.58 605.21 C 1700.2 615.277 1679.2 630.16 1661.95 648.888 C 1628.39 685.95 1614.28 728.332 1616.73 777.995 C 1618.93 861.648 1681.16 907.277 1748.82 944.017 C 1799.87 971.736 1873.17 1005.53 1877.08 1072.67 C 1878.04 1089.26 1868.44 1119.05 1857.09 1131.2 C 1874.06 1060.59 1825.91 1035.35 1772.36 1003.51 C 1694.94 957.484 1619.89 901.384 1599.77 807.513 C 1580.38 717.113 1627.82 624.41 1722.4 604.239 z" fill="rgb(255,255,255)" transform="translate(0,0)"></path>
<path d="M 819.175 1537.43 C 943.545 1461.39 1054.07 1384.81 1122.82 1251.32 C 1136.2 1225.35 1147.15 1199.85 1154.75 1171.45 C 1157.67 1160.54 1158.22 1149.71 1160.64 1139.67 C 1178.04 1215.62 1151.86 1271.88 1112.75 1335.09 C 1072.7 1399.83 1012.67 1445.67 948.793 1485.28 C 919.572 1503.39 876.305 1525.56 849.777 1546.01 C 843.339 1542.92 841.373 1542.31 834.259 1542.33 L 835.199 1541.09 C 832.327 1538.8 823.784 1538.29 819.175 1537.43 z" fill="rgb(234,152,150)" transform="translate(0,0)"></path>
<path d="M 908.99 806.218 L 909.611 807.365 C 891.373 832.331 869.61 855.385 847.588 877.011 C 820.493 880.227 792.725 874.685 766.197 869.487 C 703.324 857.168 639.152 848.771 579.007 877.564 C 537.182 897.587 509.876 928.752 494.481 972.304 C 493.281 976.53 493.052 980.953 489.851 984.027 L 491.221 983.798 L 490.616 984.785 L 489.771 983.198 C 490.842 966.351 498.858 947.799 505.703 932.557 C 535.119 867.061 598.776 830.921 668.878 824.855 C 691.083 822.934 713.504 823.753 735.748 824.426 C 794.95 826.219 852.646 827.844 908.99 806.218 z" fill="rgb(234,152,150)" transform="translate(0,0)"></path>
<path d="M 670.706 932.439 C 679.952 931.793 689.242 932.546 698.263 934.673 C 725.159 941.295 743.182 959.9 757.167 982.862 C 738.934 1008.08 701.567 1029.49 672.802 1040.02 C 665.065 1042.39 657.213 1044.47 649.179 1045.53 C 633.68 1047.58 615.297 1046.89 602.557 1036.76 C 594.708 1030.52 590.084 1021.62 589.15 1011.67 C 587.551 994.641 595.896 975.915 606.922 963.236 C 623.381 944.309 645.962 934.053 670.706 932.439 z" fill="rgb(255,255,255)" transform="translate(0,0)"></path>
<path d="M 819.175 1537.43 C 823.784 1538.29 832.327 1538.8 835.199 1541.09 L 834.259 1542.33 C 827.179 1544.1 820.48 1547.15 814.487 1551.31 C 803.231 1559.27 801.494 1567.99 810.264 1578.46 C 804.393 1584.41 798.93 1592.79 789.616 1589.54 C 778.206 1585.55 768.131 1597.86 762.561 1605.73 C 762.283 1605.58 762.006 1605.44 761.729 1605.29 L 760.325 1604.6 C 752.294 1600.54 746.215 1600.78 737.381 1603.76 C 726.212 1607.54 710.303 1621.5 716.108 1634.83 C 718.438 1640.18 724.175 1641.07 729.336 1642.38 C 721.901 1646.77 712.855 1651.36 705.163 1655.51 C 691.446 1626.38 653.657 1656.72 648.385 1676.69 C 646.568 1683.57 648.332 1686.23 651.952 1691.95 C 589.808 1757.33 593.662 1844.95 643.69 1916.46 C 511.751 1820.76 571.102 1717.22 674.371 1631.73 C 722.837 1591.61 765.583 1569.15 819.175 1537.43 z" fill="rgb(255,255,255)" transform="translate(0,0)"></path>
<path d="M 874.195 1456.43 C 867.05 1471.91 871.199 1478.1 885.866 1484.74 C 782.156 1557.06 651.825 1606.9 584.182 1721.03 C 574.294 1737.71 564.569 1760.82 561.481 1780.04 C 561.211 1783.11 560.841 1786.18 560.372 1789.23 L 559.666 1789.54 C 558.609 1782.28 558.689 1774.9 559.903 1767.67 C 560.05 1763.01 562.21 1750.89 563.376 1746.22 C 583.787 1664.5 647.748 1600.5 713.66 1552.17 C 733.461 1537.66 755.505 1524.97 775.834 1511.45 C 789.298 1502.5 802.144 1493.21 815.471 1484.58 L 816.403 1485.19 C 821.881 1483.96 830.957 1477.56 836.397 1474.7 C 847.199 1469.04 862.898 1459.95 874.195 1456.43 z" fill="rgb(234,152,150)" transform="translate(0,0)"></path>
<path d="M 561.481 1780.04 C 561.211 1783.11 560.841 1786.18 560.372 1789.23 L 559.666 1789.54 C 558.609 1782.28 558.689 1774.9 559.903 1767.67 C 559.89 1772.54 559.123 1776.33 561.481 1780.04 z" fill="rgb(203,150,148)" transform="translate(0,0)"></path>
<path d="M 1655.84 1439.73 C 1656.89 1439.84 1656.79 1439.8 1658.02 1440.1 C 1682.73 1446.08 1717.99 1481.29 1730.7 1502.94 C 1745.81 1528.69 1751.28 1557.78 1743.42 1586.83 C 1732.96 1625.51 1704.8 1655.37 1670.75 1674.97 C 1631.46 1697.13 1585.08 1703.07 1541.48 1691.52 C 1499.38 1680.04 1466.45 1654.03 1444.84 1616.51 C 1437.84 1602.61 1432.77 1588.35 1431.97 1572.73 C 1438.76 1596.16 1449.3 1614.94 1468.36 1630.61 C 1502.85 1658.98 1556.33 1671.55 1600.22 1667 C 1637.39 1663.14 1675.19 1646.79 1698.88 1617.07 C 1716.64 1594.8 1724.06 1568.02 1720.62 1539.78 C 1715.8 1500.21 1686.1 1463.56 1655.84 1439.73 z" fill="rgb(234,152,150)" transform="translate(0,0)"></path>
<path d="M 1899.39 1204.31 L 1901.37 1206.46 C 1891.74 1218.07 1870.69 1233.87 1857.8 1242.01 C 1797.95 1279.78 1709.96 1285.95 1641.32 1270.52 L 1658.46 1238.35 C 1695.26 1248.87 1716.98 1254.59 1756.78 1255.27 C 1811.07 1256.18 1859.62 1242.95 1899.39 1204.31 z" fill="rgb(255,255,255)" transform="translate(0,0)"></path>
<path d="M 1462.61 550.996 C 1470.07 550.61 1484.79 557.907 1484.5 565.467 C 1480.49 569.749 1473.8 567.296 1468.17 572.976 C 1455.14 586.129 1450.17 610.39 1464.28 624.523 C 1468.49 628.735 1475.1 629.807 1479.63 634.015 C 1478.18 637.053 1476.76 637.069 1473.3 639.196 C 1469.89 640.34 1469.66 640.627 1465.98 640.561 C 1458.1 635.866 1450.49 627.23 1442.48 621.577 C 1409.81 598.53 1439.71 564.915 1462.61 550.996 z" fill="rgb(255,255,255)" transform="translate(0,0)"></path>
<path d="M 980.412 1009.39 C 973.618 1018.62 967.484 1027.7 962.672 1038.17 C 958.092 1048.13 955.792 1057.75 949.591 1066.89 C 946.55 1049.17 940.264 1044.89 923.245 1053.16 L 924.676 1055.95 C 966.581 1039.43 933.033 1112.91 899.855 1064.71 C 928.774 1037.14 945 1026.59 980.412 1009.39 z" fill="rgb(255,255,255)" transform="translate(0,0)"></path>
<path d="M 923.245 1053.16 L 924.676 1055.95 C 917.283 1060.48 916.379 1062.47 915.602 1070.86 L 914.273 1070.75 C 909.233 1062.51 917.015 1056.96 923.245 1053.16 z" fill="rgb(30,38,52)" transform="translate(0,0)"></path>
<path d="M 616.319 1398.34 C 620.162 1398.04 626.827 1398.32 630.052 1400.74 C 632.037 1402.23 633.091 1403.76 633.218 1406.29 C 633.418 1410.24 630.584 1414.92 628.239 1417.9 C 619.292 1429.23 603.631 1435.45 589.715 1437.32 L 588.123 1437.23 C 583.152 1436.97 578.34 1435.6 574.178 1432.75 C 572.464 1431.58 571.177 1429.87 570.944 1427.76 C 570.571 1424.41 572.597 1420.8 574.565 1418.22 C 583.907 1405.98 601.594 1400.25 616.319 1398.34 z" fill="rgb(255,255,255)" transform="translate(0,0)"></path>
<path d="M 611.46 1411.79 C 613.12 1412.56 614.056 1413.23 615.311 1414.56 L 614.431 1416.32 C 609.259 1418.63 603.462 1421.88 597.799 1422.54 C 595.549 1422.8 594.236 1424.97 592.647 1426.59 C 590.254 1426.17 589.738 1426.4 587.867 1424.71 C 589.024 1418.06 606.374 1417.45 611.46 1411.79 z" fill="rgb(30,38,52)" transform="translate(0,0)"></path>
<path d="M 511.86 1424.35 C 518.351 1423.67 529.55 1423.92 534.797 1428.14 C 536.758 1429.71 538.071 1431.55 538.245 1434.15 C 538.484 1437.7 536.725 1441.15 534.542 1443.83 C 526.877 1453.25 513.084 1456.3 501.599 1457.66 C 495.373 1458.28 487.694 1458.33 481.835 1455.89 C 479.204 1454.8 476.794 1452.87 476.02 1450.01 C 475.074 1446.5 476.598 1442.64 478.582 1439.79 C 485.633 1429.66 500.306 1426.05 511.86 1424.35 z" fill="rgb(255,255,255)" transform="translate(0,0)"></path>
<path d="M 508.423 1439.59 C 510.574 1439.32 512.729 1439.07 514.887 1438.86 C 517.904 1438.57 521.23 1438.2 523.725 1440.24 L 522.713 1441.79 C 518.571 1443.74 514.235 1444.12 509.753 1444.77 C 503.314 1444.87 498.328 1444.83 492.284 1442.24 L 491.992 1441.01 C 494.489 1440.19 496.552 1439.68 499.203 1439.79 C 502.31 1439.93 505.32 1439.78 508.423 1439.59 z" fill="rgb(37,43,65)" transform="translate(0,0)"></path>
<path d="M 1420.19 1653.14 C 1425.98 1652.56 1431.65 1652.42 1437.13 1654.62 C 1444.32 1657.5 1450.58 1662.87 1453.31 1670.26 C 1454.84 1674.38 1455.22 1679.23 1453.17 1683.24 C 1450.26 1688.94 1445.13 1691.67 1439.28 1693.52 C 1434.27 1693.71 1429.32 1693.71 1424.51 1692.11 C 1417.41 1689.75 1410.29 1684.38 1406.95 1677.59 C 1404.95 1673.53 1404.33 1669.13 1406.06 1664.87 C 1408.57 1658.68 1414.4 1655.64 1420.19 1653.14 z" fill="rgb(255,255,255)" transform="translate(0,0)"></path>
<path d="M 1421.61 1661.05 C 1428.47 1660.65 1436.23 1661.58 1441.56 1666.4 C 1443.49 1668.14 1444.76 1670.38 1444.64 1673.05 C 1444.45 1677.31 1441.66 1680.14 1438.73 1682.87 C 1431.89 1683.53 1426.39 1682.76 1420.88 1678.3 C 1418.36 1676.26 1416.43 1673.59 1416.36 1670.22 C 1416.26 1665.88 1418.62 1663.67 1421.61 1661.05 z" fill="rgb(30,38,52)" transform="translate(0,0)"></path>
<path d="M 1433.02 1665.22 C 1435.54 1666.25 1438.4 1667.3 1439.74 1669.87 C 1441.01 1672.29 1440.53 1673.43 1439.81 1675.83 C 1438.05 1677.57 1437.84 1678.13 1435.37 1678.84 L 1435.57 1676.25 L 1434.44 1675.25 C 1431.98 1676.05 1431.47 1677.9 1430.12 1680.02 C 1427.61 1679.06 1424.15 1678.1 1422.48 1675.89 C 1420.72 1673.56 1420.43 1671.77 1420.62 1668.95 C 1422.24 1666.85 1422.36 1667.03 1425 1666.54 C 1427.92 1667.84 1428.2 1669.01 1429.84 1671.69 L 1431.08 1671.13 L 1433.02 1665.22 z" fill="rgb(255,255,255)" transform="translate(0,0)"></path>
<path d="M 1585.32 1715.36 C 1591.79 1715.78 1599.2 1716.81 1604.82 1720.26 C 1607.95 1722.18 1611.19 1725.37 1611.82 1729.16 C 1612.36 1732.47 1611.64 1735.45 1609.83 1738.23 C 1605.37 1745.08 1597.22 1748.16 1589.64 1749.99 C 1582.9 1750.38 1575.85 1750 1569.97 1746.36 C 1566.08 1743.95 1563.15 1740.41 1562.22 1735.87 C 1561.36 1731.67 1562.36 1727.29 1564.98 1723.89 C 1570.07 1717.16 1577.56 1716.28 1585.32 1715.36 z" fill="rgb(255,255,255)" transform="translate(0,0)"></path>
<path d="M 1580.62 1723.07 C 1585.55 1722.57 1591.61 1721.98 1595.43 1726.01 C 1597.17 1727.84 1597.95 1729.45 1597.52 1732.03 C 1597.02 1735.07 1594.41 1736.97 1592.18 1738.76 C 1586.98 1739.01 1579.45 1739.82 1575.72 1735.15 C 1574.24 1733.29 1573.93 1731.87 1574.56 1729.59 C 1575.35 1726.72 1578.31 1724.63 1580.62 1723.07 z" fill="rgb(30,38,52)" transform="translate(0,0)"></path>
<path d="M 1581.78 1727.91 C 1585.12 1727.92 1588.73 1727.3 1591.55 1729.39 C 1591.8 1732.33 1591.19 1732.64 1589.53 1735.15 C 1586.27 1735.08 1583.88 1735.12 1580.95 1733.47 C 1580.03 1730.61 1580.41 1730.64 1581.78 1727.91 z" fill="rgb(255,255,255)" transform="translate(0,0)"></path>
<path d="M 408.634 1436.37 C 414.494 1435.66 423.116 1435.64 428.62 1437.66 C 431.928 1438.87 435.479 1441.27 436.69 1444.73 C 437.731 1447.71 437.059 1450.78 435.336 1453.32 C 430.79 1460.02 422.27 1461.54 414.893 1463 C 407.168 1463.28 398.986 1463.58 391.631 1460.82 C 387.687 1459.35 383.477 1456.83 382.13 1452.57 C 381.337 1450.07 382.105 1447.93 383.473 1445.8 C 388.097 1438.62 400.882 1437.37 408.634 1436.37 z" fill="rgb(255,255,255)" transform="translate(0,0)"></path>
<path d="M 400.041 1444.86 C 401.962 1445.07 401.276 1444.91 402.851 1445.34 C 408.172 1446.79 413.586 1447.63 419.061 1448.27 L 420.537 1448.44 L 421.383 1450.58 C 416.903 1451.49 408.148 1452.58 404.018 1450.57 C 401.011 1449.11 401.047 1447.75 400.041 1444.86 z" fill="rgb(37,43,65)" transform="translate(0,0)"></path>
<path d="M 788.39 1879.68 C 795.668 1880.36 801.59 1882.61 808.053 1885.87 C 818.092 1890.94 831.566 1899.89 834.955 1911.11 C 836.162 1915.11 835.985 1917.45 833.931 1921.07 C 830.264 1922.07 826.962 1922.63 823.146 1922.16 C 812.339 1920.82 802.332 1915.77 795.672 1907.01 C 789.387 1898.74 787.186 1889.86 788.39 1879.68 z" fill="rgb(255,255,255)" transform="translate(0,0)"></path>
<path d="M 801.216 1893.67 C 802.626 1894.87 803.13 1896.82 803.722 1898.52 L 804.322 1900.28 C 807.664 1903.81 813.246 1904.71 817.638 1906.74 C 819.264 1909.09 819.185 1908.95 818.724 1911.78 C 816.144 1911.15 813.53 1910.49 811.077 1909.46 C 807.073 1907.77 800.327 1904.6 799.158 1899.93 C 798.459 1897.14 799.804 1895.91 801.216 1893.67 z" fill="rgb(37,43,65)" transform="translate(0,0)"></path>
<path d="M 153.733 1183.03 C 159.72 1182.87 164.28 1183.44 169.579 1186.4 C 178.412 1191.35 182.686 1199.79 185.279 1209.16 C 183.609 1216.56 182.415 1220.33 176.279 1224.99 C 174.356 1225.06 172.386 1225.16 170.467 1224.98 C 163.301 1224.32 155.948 1217.1 151.911 1211.68 C 147.97 1206.39 144.617 1199.54 145.796 1192.76 C 146.665 1187.77 149.743 1185.61 153.733 1183.03 z" fill="rgb(255,255,255)" transform="translate(0,0)"></path>
<path d="M 1480.99 1706.4 C 1487.44 1705.38 1497.56 1708.27 1503.01 1711.76 C 1506.61 1714.07 1510.03 1717.65 1510.59 1722.07 C 1510.95 1724.83 1510.12 1727.1 1508.52 1729.31 C 1504.85 1734.33 1497.96 1735.11 1492.31 1735.83 C 1486.49 1735.36 1481.36 1734.6 1476.03 1732.08 C 1470.58 1729.5 1463.66 1724.96 1462 1718.73 C 1461.31 1716.16 1461.92 1714.1 1463.45 1712 C 1467.05 1707.07 1475.51 1707.03 1480.99 1706.4 z" fill="rgb(255,255,255)" transform="translate(0,0)"></path>
<path d="M 1476.17 1710.31 C 1481.15 1713.12 1483.23 1717.24 1486.17 1722.01 C 1488.38 1723.22 1489.35 1723.44 1491.86 1723.18 C 1494.31 1720.65 1494.32 1717.78 1495.55 1714.52 L 1497.41 1715.29 C 1498.79 1717.38 1499.2 1717.89 1498.66 1720.52 C 1498.06 1723.45 1495.71 1725.21 1493.4 1726.75 C 1476.41 1723.8 1486.22 1719.59 1478.23 1714.18 C 1475.98 1715.08 1476.08 1715.31 1474.93 1717.48 C 1475.79 1718.52 1476.64 1719.47 1477.59 1720.43 L 1478.59 1721.42 C 1476.57 1721.62 1475.12 1721.95 1473.19 1721.13 C 1471.73 1720.52 1471.9 1719.75 1471.42 1718.38 C 1472.29 1714.75 1473.69 1713.04 1476.17 1710.31 z" fill="rgb(30,38,52)" transform="translate(0,0)"></path>
<path d="M 685.35 1649.98 C 687.708 1649.81 689.901 1649.53 692.133 1650.47 C 695.091 1651.73 697.687 1653.68 698.524 1656.95 C 699.972 1662.61 696.731 1669.35 693.568 1673.84 C 687.398 1682.6 679.868 1686.23 669.701 1687.98 C 667.08 1688.09 664.063 1688.31 661.468 1687.84 C 658.677 1687.32 656.968 1685.91 655.274 1683.71 C 654.532 1681.25 654.477 1679.69 655.289 1677.29 C 659.393 1665.16 674.175 1655.09 685.35 1649.98 z" fill="rgb(255,255,255)" transform="translate(0,0)"></path>
<path d="M 685.929 1662.82 L 686.715 1664.32 C 684.121 1666.87 678.381 1674.04 675.286 1675.48 C 674.143 1676.01 672.777 1675.72 671.523 1675.84 L 669.849 1673 L 671.09 1671.87 C 671.496 1672.01 673.13 1672.63 673.518 1672.66 C 675.279 1672.78 683.653 1664.32 685.929 1662.82 z" fill="rgb(30,38,52)" transform="translate(0,0)"></path>
<path d="M 143.305 961.047 C 147.787 960.416 150.47 960.343 154.298 963.201 C 155.806 965.518 156.277 967.527 155.968 970.269 C 154.503 983.294 143.146 993.785 133.605 1001.59 C 132.765 1001.79 132.474 1001.92 131.504 1001.79 C 129.086 1001.48 124.93 999.984 123.818 997.692 C 122.031 994.01 122.538 989.708 123.573 985.896 C 126.584 974.796 133.548 966.69 143.305 961.047 z" fill="rgb(255,255,255)" transform="translate(0,0)"></path>
<path d="M 103.999 1080.53 C 105.21 1080.73 106.817 1080.89 107.986 1081.36 C 110.627 1082.42 112.331 1084.62 113.593 1087.09 C 117.806 1095.3 120.663 1117.34 116.518 1125.93 C 115.066 1128.94 113.837 1129.04 110.996 1130.26 C 108.538 1129.16 106.09 1128 104.216 1126.02 C 98.2099 1119.65 95.7148 1109.71 95.8191 1101.16 C 95.921 1092.81 97.9904 1086.4 103.999 1080.53 z" fill="rgb(255,255,255)" transform="translate(0,0)"></path>
<path d="M 746.822 1607.11 C 747.265 1607.12 747.71 1607.11 748.152 1607.15 C 751.808 1607.44 754.115 1608.36 756.563 1611.16 C 757.71 1614.66 756.993 1617.43 755.311 1620.58 C 750.276 1630.01 742.397 1635.39 732.511 1638.58 C 730.615 1638.25 728.732 1637.98 726.96 1637.19 C 724.293 1636 721.639 1633.98 720.944 1630.99 C 720.326 1628.33 721.329 1625.69 722.655 1623.42 C 727.801 1614.64 737.279 1609.53 746.822 1607.11 z" fill="rgb(255,255,255)" transform="translate(0,0)"></path>
<path d="M 741.792 1620.79 C 742.933 1620.71 744.043 1620.98 745.169 1621.15 C 746.564 1625.17 740.197 1626.04 738.153 1628.73 C 737.292 1629.87 736.66 1633.01 736.15 1634.47 C 735.43 1634.14 734.479 1633.74 733.87 1633.25 C 731.809 1631.59 731.763 1630.96 731.791 1628.54 C 734.231 1624.87 738.1 1623.02 741.792 1620.79 z" fill="rgb(30,38,52)" transform="translate(0,0)"></path>
<path d="M 897.677 1450.26 C 901.594 1450.67 906.102 1451.17 908.605 1454.67 C 909.868 1456.44 909.954 1458.48 909.477 1460.54 C 907.359 1469.67 896.744 1476.4 889.127 1480.87 C 886.889 1480.38 884.92 1479.91 882.91 1478.77 C 879.886 1477.06 877.216 1474.41 876.601 1470.85 C 876.031 1467.54 877.204 1464.28 879.005 1461.55 C 883.496 1454.76 889.953 1451.87 897.677 1450.26 z" fill="rgb(255,255,255)" transform="translate(0,0)"></path>
<path d="M 133.644 1194.19 L 137.807 1195.28 C 141.307 1200.75 140.913 1208.2 144.63 1213.52 C 149.047 1219.85 158.484 1225.78 161.273 1232.71 C 162.314 1235.29 161.143 1237.67 160.215 1240.06 C 157.289 1240.1 154.13 1240.14 151.27 1239.48 C 144.663 1237.94 139.011 1232.18 135.867 1226.41 C 129.955 1215.56 130.476 1205.59 133.644 1194.19 z" fill="rgb(255,255,255)" transform="translate(0,0)"></path>
<path d="M 1480.62 577.772 C 1493.15 586.235 1496.54 600.362 1478.08 603.784 C 1458.18 599.744 1467.57 584.178 1480.62 577.772 z" fill="rgb(255,255,255)" transform="translate(0,0)"></path>
<path d="M 833.51 1548.21 C 836.053 1548.01 838.558 1547.71 841.088 1548.17 C 842.77 1548.48 842.2 1548.34 843.291 1549.93 C 840.703 1556.51 828.803 1563.23 822.673 1566.4 L 818.615 1563.14 L 819.445 1564.77 C 819.97 1567.78 819.962 1568.1 818.735 1570.89 C 816.519 1572.18 816.466 1572.24 813.942 1571.88 C 812.563 1570.73 811.618 1569.94 811.053 1568.14 C 810.373 1565.98 810.679 1563.91 811.724 1561.93 C 815.435 1554.9 826.312 1550.59 833.51 1548.21 z" fill="rgb(255,255,255)" transform="translate(0,0)"></path>
<path d="M 786.67 1592.84 C 789.12 1593.15 790.503 1593.57 792.61 1594.87 C 792.531 1595.12 792.48 1595.39 792.373 1595.64 C 791.206 1598.33 786.662 1602.62 784.034 1603.72 L 781.938 1600.68 L 780.496 1601.65 C 780.426 1603.02 780.489 1604.78 780.109 1606.08 C 779.253 1609.03 776.254 1609.95 773.797 1611.41 C 773.246 1611.96 772.234 1613 771.622 1613.41 C 769.852 1614.61 769.11 1614.24 767.216 1613.75 C 766.223 1611.61 766.102 1611.19 766.814 1608.9 C 769.266 1601.01 779.714 1595.8 786.67 1592.84 z" fill="rgb(255,255,255)" transform="translate(0,0)"></path>
<path d="M 1445.44 1469.69 L 1449.57 1469.19 C 1445.96 1476.09 1440.97 1484.97 1438.22 1492.05 L 1436.68 1491.84 C 1439.08 1484.79 1442.6 1476.68 1445.44 1469.69 z" fill="rgb(203,150,148)" transform="translate(0,0)"></path>
<path d="M 395.572 1323.35 C 398.744 1323.17 401.513 1323.45 404.647 1323.94 L 405.192 1324.97 L 402.179 1325.98 C 398.197 1326.05 394.295 1326.39 390.449 1325.19 C 392.288 1323.71 393.293 1323.73 395.572 1323.35 z" fill="rgb(255,255,255)" transform="translate(0,0)"></path>
<path d="M 1161.04 1752.56 C 1165.64 1750.83 1169.43 1748.99 1174.3 1748.76 L 1174.08 1748.78 C 1171.17 1751.36 1165.89 1752.9 1162.16 1754.29 L 1161.04 1752.56 z" fill="rgb(201,200,202)" transform="translate(0,0)"></path>
<path d="M 1899.39 1204.31 L 1910.02 1193.86 C 1907.02 1199.31 1905.63 1201.71 1901.37 1206.46 L 1899.39 1204.31 z" fill="rgb(201,200,202)" transform="translate(0,0)"></path>
<path d="M 1438.22 1492.05 C 1436.97 1495.96 1436.49 1498.46 1434.14 1501.75 L 1433.43 1501.11 C 1434.36 1496.52 1434.58 1496.09 1436.68 1491.84 L 1438.22 1492.05 z" fill="rgb(104,97,104)" transform="translate(0,0)"></path>
<path d="M 376.916 514.929 C 372.849 515.082 371.647 515.206 367.701 514.533 C 370.204 512.89 372.995 512.909 376.216 512.402 L 376.916 514.929 z" fill="rgb(203,150,148)" transform="translate(0,0)"></path>
<metadata><recraft-signature>{"signed_by": "recraft", "signature_b64": "okNGDGB5ZKszxZeKoZC+J3EO28+hiiNvKzIOQUxBmX/qTZ//U46eVK/ZHysbg1bB2xQNGvAqxNmH+sVFzXdaCg==", "signing_algo": "Ed25519", "generation_timestamp": 1770828315, "identifier": "2b40e315-3f67-4ff0-9229-278a46c688db"}</recraft-signature></metadata></svg>