<svg xmlns="http://www.w3.org/2000/svg" height="1024" preserveAspectRatio="none" style="display: block;" version="1.1" viewBox="0 0 2048 2048" width="1024">
<defs>
	<linearGradient gradientUnits="userSpaceOnUse" id="Gradient1" x1="521.692" x2="829.366" y1="1116.3" y2="1362.35">
		<stop class="stop0" offset="0" stop-color="rgb(214,136,145)" stop-opacity="1"></stop>
		<stop class="stop1" offset="1" stop-color="rgb(248,202,199)" stop-opacity="1"></stop>
	</linearGradient>
</defs>
<path d="M 0 0 L 2048 0 L 2048 2048 L 0 2048 L 0 0 z" fill="rgb(255,255,255)" transform="translate(0,0)"></path>
<path d="M 1261.11 71.4872 C 1296.04 70.8974 1330.93 74.16 1365.15 81.216 C 1462.94 101.649 1541.71 152.636 1597 236.72 C 1645.31 310.193 1666.66 410.124 1647.78 496.295 C 1626.42 593.837 1568.96 664.256 1497.8 730.518 C 1444.82 779.852 1403.85 810.365 1343.88 849.437 C 1348.67 875.861 1353.18 891.948 1364.78 917.075 C 1389.6 970.88 1436.33 1019.08 1492.55 1039.58 C 1529.14 1052.93 1575.39 1055.72 1611.39 1038.72 C 1636.08 1027.34 1655.15 1006.49 1664.28 980.873 C 1672.44 957.26 1670.87 931.368 1659.91 908.915 C 1652.73 894.264 1642.18 881.53 1629.11 871.765 C 1576.95 832.049 1542.5 877.241 1487.67 862.028 C 1472.33 857.771 1469.95 841.449 1476.97 828.483 C 1488.47 807.262 1513.09 794.493 1535.06 786.702 C 1633.76 755.74 1744 792.365 1778.44 896.133 C 1795.26 947.159 1790.76 1002.82 1765.96 1050.48 C 1739.04 1103.29 1694.12 1135.93 1638.8 1153.89 C 1744.96 1177.98 1866.76 1238.63 1930.34 1329.57 C 1974.11 1391 1991.59 1467.35 1978.89 1541.71 C 1964.79 1619.96 1922.22 1679.29 1857.59 1724.6 C 1853.38 1727.55 1843.43 1734.3 1838.5 1733.38 C 1837.39 1731.12 1837.5 1728.34 1839.01 1726.23 C 1884.57 1662.42 1903.89 1583.8 1881.7 1507.19 C 1845.73 1382.98 1716.62 1333.93 1604.79 1301.9 C 1613 1332.09 1620.75 1358.64 1625.71 1389.68 C 1633.15 1437.34 1637.56 1489.05 1643.14 1536.55 C 1655 1637.58 1700.32 1732.67 1786.65 1790.4 C 1790.26 1792.82 1796.47 1797.84 1797.04 1802.29 C 1794.76 1803.89 1793.49 1804.19 1790.37 1804.09 C 1783.38 1803.88 1775.38 1802.17 1768.53 1800.76 C 1731.6 1793.16 1699.84 1783.42 1666.62 1765.99 C 1479.55 1667.85 1520 1474.63 1459.03 1308.18 C 1450.91 1286.67 1442.62 1265.01 1430.65 1245.29 C 1427.78 1240.41 1422.2 1238.37 1417.43 1235.78 C 1390.71 1221.32 1363.56 1207.3 1340.9 1186.68 C 1405.35 1301.24 1451.39 1429.04 1397.05 1558.79 C 1388.7 1578.71 1371.1 1606.14 1358.06 1624.11 C 1319.35 1676.35 1280.56 1714.19 1242.97 1768.75 C 1209.25 1817.69 1197.54 1898.38 1285.42 1885.6 C 1297.12 1883.9 1317.1 1872.28 1328.55 1883.02 C 1339.17 1892.99 1329.83 1912.69 1320.86 1920.46 C 1267.48 1965.9 1161.63 1934.1 1140.66 1868.08 C 1122.47 1809.45 1157.59 1748.48 1184.99 1698.51 C 1224.86 1625.78 1263.1 1548.97 1263.76 1464.19 C 1264.33 1390.53 1241.33 1320.42 1200.87 1259.26 C 1192.57 1246.71 1182.95 1230.95 1172.39 1220.33 L 1171.34 1219.29 C 1169.07 1232.23 1167.89 1245.58 1165.46 1258.53 C 1148.07 1351.23 1124.03 1452 1085.62 1538.33 C 1063.7 1587.07 1037.42 1633.73 1007.07 1677.73 C 994.963 1695.5 982.085 1712.73 968.475 1729.37 C 964.012 1734.87 929.029 1774.11 928.581 1776.29 C 930.474 1779.08 931.23 1780.28 932.779 1783.26 C 930.694 1811.26 885.504 1845.62 857.843 1844.68 C 851.811 1840.92 852.349 1841.02 846.726 1845.2 C 833.75 1854.85 818.782 1862.56 806.059 1872.41 C 806.344 1878.48 806.82 1885.03 803.051 1890.09 C 785.233 1914.02 739.067 1934.78 712.699 1914.59 C 690.614 1922.8 674.509 1928.7 651.925 1935.23 C 636.576 1953.88 601.016 1971.14 579.679 1953.99 C 537.427 1964.16 478.571 1965.4 435.239 1964.1 C 420.083 1963.64 354.075 1960.21 345.325 1950.71 C 345.399 1946.2 354.66 1944.26 358.895 1943.29 C 554.722 1898.18 706.332 1811.09 836.359 1653.81 C 824.615 1654.67 817.138 1655.56 812.165 1643.2 C 807.796 1645.64 775.349 1659.46 775.238 1659.69 C 768.387 1673.42 770.584 1677.69 755.308 1686.33 C 737.396 1696.46 669.211 1705.03 682.699 1667.78 C 673.348 1666.67 662.931 1664.68 653.558 1663.11 C 615.425 1683.73 572.699 1669.17 548.095 1635.63 C 543.57 1629.46 534.194 1613.22 544.19 1607.88 C 549.04 1605.28 562.009 1612.33 567.073 1614.61 C 534.337 1590 517.29 1571.88 505.092 1530.09 C 501.959 1519.35 496.594 1489.7 502.284 1479.95 C 504.563 1479.76 504.564 1479.84 506.402 1481.79 C 517.257 1493.67 527.235 1506.05 539.583 1516.49 C 575.281 1546.68 625.819 1571.29 672.985 1575.2 C 723.947 1578.35 772.772 1549.18 809.852 1518.16 C 872.105 1466.07 912.817 1396.48 929.794 1317.43 C 934.826 1294 936.164 1267.42 937.96 1243.24 C 907.313 1275.75 843.403 1306.41 801.125 1321.84 C 794.461 1334.1 784.714 1343.15 772.136 1348.91 C 747.977 1359.98 710.495 1365.57 697.408 1336.23 C 675.775 1337.9 654.162 1339.83 632.574 1342.01 C 632.26 1343.06 631.935 1344.11 631.598 1345.15 C 623.568 1369.77 595.716 1374.16 572.971 1373.64 C 555.246 1373.24 536.036 1371.1 529.916 1351.55 C 522.432 1348.85 472.543 1360.55 463.845 1364.57 C 468.806 1373.2 466.281 1380.25 458.76 1387.16 C 438.885 1405.43 414.483 1417.75 395.024 1436.9 C 364.19 1466.93 336.194 1512.93 327.719 1555.38 C 322.481 1581.62 329.615 1610.22 338.149 1634.55 C 340.341 1640.8 348.259 1652.66 342.846 1656.49 C 338.966 1657 336.133 1655.72 332.803 1653.81 C 250.1 1606.08 230.199 1486.94 271.66 1406.27 C 314.568 1322.79 417.168 1276.28 507.837 1273.24 C 577.893 1270.88 637.155 1281.84 707.169 1260.27 C 692.626 1259.33 676.022 1260.81 661.057 1259.68 C 647.646 1258.67 633.88 1256.12 620.572 1256.07 C 615.444 1256.69 610.434 1258.4 605.413 1259.6 C 570.201 1268.05 507.237 1254.75 509.001 1208.2 C 495.357 1200.55 487.557 1195.08 476.707 1184.05 C 456.282 1188.28 437.328 1186.89 418.584 1176.71 C 402.043 1167.43 388.157 1150.24 383.006 1132.01 C 380.324 1122.51 379.869 1099.99 392.709 1097.78 C 401.931 1096.19 415.817 1108.83 422.707 1114.21 C 409.507 1095.97 397.747 1077.22 384.817 1059.44 C 337.653 1064.16 288.789 1009.97 315.565 968.267 C 285.757 948.056 269.971 939.837 235.66 928.85 C 216.899 952.272 181.738 952.131 155.374 944.496 C 126.879 965.291 117.367 985.792 105.175 1018.35 C 98.5064 1036.15 81.185 1032.99 79.1143 1016.11 C 75.2638 984.718 86.0327 950.071 103.311 923.909 C 129.397 885.22 169.738 858.433 215.517 849.401 C 245.905 843.478 273.462 846.527 302.659 855.774 C 406.989 888.819 438.107 986.85 498.932 1062.8 C 516.875 1085.31 538.089 1105.01 561.867 1121.24 C 627.28 1165.16 707.824 1179.86 774.806 1131.85 C 799.254 1114.33 836.567 1062.99 853.348 1037.6 C 805.524 1017.26 753.147 991.574 726.532 944.13 C 702.917 902.033 719.68 821.097 733.832 775.946 C 708.477 760.391 689.587 735.868 681.386 707.131 C 667.206 657.446 673.699 598.203 691.519 550.135 C 697.467 534.089 705.877 518.736 713.866 503.787 C 706.809 493.677 700.634 487.421 696.182 475.422 C 688.287 454.14 690.101 428.541 699.588 408.089 C 716.6 371.417 746.255 355.621 781.98 342.263 C 796.319 314.016 832 274.124 853.953 249.893 C 870.92 231.165 897.937 208.671 918.08 193.497 C 1022.74 114.658 1131.04 75.6823 1261.11 71.4872 z" fill="rgb(0,0,0)" transform="translate(0,0)"></path>
<path d="M 801.829 338.182 C 848.948 260.13 936.989 187.41 1016.63 145.049 C 1056.78 123.722 1099.36 107.338 1143.44 96.2552 C 1220.35 77.6087 1316.02 77.3616 1392.26 100.101 C 1474.85 124.734 1552.79 182.774 1593.61 259.654 C 1602.99 273.865 1625.19 323.974 1626.67 339.69 C 1650.76 419.869 1641.96 506.34 1602.2 580.017 C 1539.79 694.809 1424.25 784.713 1316.03 854.259 C 1314.9 854.987 1314.51 854.483 1313.37 854.023 C 1312.62 850.747 1312.83 849.445 1312.99 846.153 C 1312.79 835.601 1316.47 812.144 1313.27 804.889 C 1295.48 849.667 1305.28 911.88 1323.99 954.88 C 1360.67 1039.16 1434.61 1097.42 1518.77 1130.02 C 1570.68 1150.13 1624.65 1159.32 1677.15 1176.02 C 1783.92 1209.98 1900.65 1279.2 1947.36 1385.55 C 1976.34 1450.21 1978.19 1523.78 1952.51 1589.82 C 1934.11 1636.97 1908.84 1665.88 1872.86 1699.17 C 1881.83 1682.32 1891.7 1662.47 1897.87 1644.17 C 1917.69 1585.32 1924.24 1516.82 1906.79 1456.77 C 1888.26 1393.02 1831.75 1341.63 1774.77 1310.81 C 1730.96 1287.12 1680.69 1275.99 1632.42 1265.33 L 1557.61 1248.03 C 1535.43 1242.91 1512.49 1238.23 1490.8 1231.17 C 1449.27 1217.59 1409.8 1196.68 1372.28 1174.49 C 1341.11 1156.05 1314.07 1129.33 1289.35 1103.1 C 1275.92 1088.85 1268.47 1069.63 1256.57 1054.81 C 1268.18 1096.59 1299.6 1133.11 1321.24 1172.1 C 1392.92 1301.28 1446.42 1437.58 1373.31 1579.06 C 1334.66 1653.85 1184.86 1776.45 1206.57 1857.04 C 1210.44 1871.27 1220 1883.27 1233 1890.23 C 1261.7 1905.89 1286.52 1895.81 1315.03 1890.18 C 1318.06 1889.58 1320.56 1892.26 1322.18 1894.71 C 1321.47 1899.17 1319.76 1904.07 1316.84 1907.48 C 1286.23 1943.27 1215.95 1931.71 1183.84 1907.06 C 1106.1 1847.43 1171.5 1747.59 1206.39 1683.44 C 1253.66 1596.53 1286.27 1511 1271.91 1410.65 C 1262.25 1347.49 1237.21 1287.67 1198.99 1236.46 C 1192.24 1227.29 1182.2 1213.49 1173.43 1206.95 C 1173.73 1199.67 1174.12 1192.4 1174.62 1185.13 C 1176.17 1157.73 1178.14 1102.62 1172.75 1076.14 C 1168.98 1091.04 1166.26 1138.55 1164.87 1156.27 C 1162.19 1194.28 1157.56 1232.12 1150.99 1269.66 C 1147.3 1290.11 1140.35 1323.52 1134.4 1343.3 C 1086 1504.35 978.857 1699.47 851.068 1809.73 C 757.829 1889.86 641.944 1938.96 519.517 1950.2 C 471.389 1954.49 432.846 1952.72 385.208 1949.16 C 397.477 1944.97 412.487 1941.96 425.414 1938.33 C 625.674 1882.11 823.02 1741.34 913.559 1550.61 C 952.989 1467.55 980.722 1376.1 998.718 1286.43 C 1012.53 1217.61 1016.12 1150.98 992.183 1083.94 C 988.766 1076.94 985.387 1066.62 981.441 1058.3 C 1038.92 1057.43 1097.26 1040.93 1148.84 1015.81 C 1164.42 1008.22 1183.01 996.386 1197.61 987.125 C 1202.39 983.318 1204.15 982.226 1205.48 976.431 L 1204.37 974.936 C 1200.23 974.916 1201.09 975.234 1196.93 977.552 C 1191.52 981.946 1183.95 986.497 1177.74 989.855 C 1054.89 1056.29 899.181 1070.58 781.421 984.823 C 763.202 971.556 738.936 948.43 732.499 926.048 C 716.723 891.982 735.033 818.644 744.119 782.73 C 755.039 788.552 766.608 793.062 778.586 796.169 C 814.989 805.944 858.978 802.486 891.913 783.471 C 876.443 785.7 862.13 788.804 846.284 790.323 C 814.528 793.369 777.065 787.204 749.093 771.459 C 721.224 756.062 700.72 730.102 692.198 699.425 C 672.832 629.874 695.869 556.809 730.749 496.693 C 759.132 447.776 787.385 417.484 844.268 403.59 C 860.765 399.56 879.985 396.287 895.652 391.957 C 873.137 388.356 842.694 390.922 821.068 397.965 C 773.189 413.558 742.433 446.436 719.858 489.896 C 711.731 477.748 708.795 472.023 705.392 457.949 C 699.203 403.143 737.729 370.379 785.487 354.582 C 811.334 346.032 832.325 345.893 859.174 348.079 C 862.31 348.113 871.128 349.321 874.634 349.721 C 851.112 337.403 827.813 335.168 801.829 338.182 z" fill="rgb(218,141,149)" transform="translate(0,0)"></path>
<path d="M 1593.61 259.654 C 1602.99 273.865 1625.19 323.974 1626.67 339.69 C 1650.76 419.869 1641.96 506.34 1602.2 580.017 C 1539.79 694.809 1424.25 784.713 1316.03 854.259 C 1314.9 854.987 1314.51 854.483 1313.37 854.023 C 1312.62 850.747 1312.83 849.445 1312.99 846.153 C 1312.79 835.601 1316.47 812.144 1313.27 804.889 C 1313.67 799.722 1318.73 787.216 1321.11 782.414 C 1357.61 708.664 1430.58 658.208 1481.24 594.744 C 1525.99 538.693 1564.11 480.352 1583.87 411.031 C 1593.81 374.851 1598.15 337.361 1596.74 299.867 C 1596.19 288.337 1592.34 270.192 1593.61 259.654 z" fill="rgb(165,99,113)" transform="translate(0,0)"></path>
<path d="M 1312.99 846.153 C 1361.81 814.79 1406.55 783.014 1450.27 744.676 C 1534.5 670.81 1619.37 573.983 1630.59 457.614 C 1633.64 425.954 1632.64 394.971 1628.1 363.548 C 1627.26 357.606 1625.46 345.029 1626.67 339.69 C 1650.76 419.869 1641.96 506.34 1602.2 580.017 C 1539.79 694.809 1424.25 784.713 1316.03 854.259 C 1314.9 854.987 1314.51 854.483 1313.37 854.023 C 1312.62 850.747 1312.83 849.445 1312.99 846.153 z" fill="rgb(218,141,149)" transform="translate(0,0)"></path>
<path d="M 1173.43 1206.95 C 1173.73 1199.67 1174.12 1192.4 1174.62 1185.13 C 1174.68 1185.59 1175.25 1190.02 1175.25 1190.02 C 1264.17 1278.46 1313.48 1403.08 1288.8 1528.3 C 1278.72 1579.44 1254.02 1628.75 1231.38 1675.3 C 1204.32 1730.95 1160.94 1789.54 1176.04 1855.07 C 1186.19 1899.11 1230.97 1912 1271.08 1907.5 C 1278.32 1906.7 1316.34 1898.31 1322.18 1894.71 C 1321.47 1899.17 1319.76 1904.07 1316.84 1907.48 C 1286.23 1943.27 1215.95 1931.71 1183.84 1907.06 C 1106.1 1847.43 1171.5 1747.59 1206.39 1683.44 C 1253.66 1596.53 1286.27 1511 1271.91 1410.65 C 1262.25 1347.49 1237.21 1287.67 1198.99 1236.46 C 1192.24 1227.29 1182.2 1213.49 1173.43 1206.95 z" fill="rgb(165,99,113)" transform="translate(0,0)"></path>
<path d="M 732.499 926.048 C 733.191 922.434 732.542 921.439 731.292 918.165 C 734.528 917.364 732.953 917.314 736.181 918.427 L 735.634 917.832 C 744.565 923.8 750.636 932.446 758.959 938.653 C 876.4 1026.24 1032.17 1025.87 1167.21 984.519 C 1173.54 982.583 1191.26 977.774 1196.93 977.552 C 1191.52 981.946 1183.95 986.497 1177.74 989.855 C 1054.89 1056.29 899.181 1070.58 781.421 984.823 C 763.202 971.556 738.936 948.43 732.499 926.048 z" fill="rgb(165,99,113)" transform="translate(0,0)"></path>
<path d="M 981.441 1058.3 C 1038.92 1057.43 1097.26 1040.93 1148.84 1015.81 C 1164.42 1008.22 1183.01 996.386 1197.61 987.125 C 1191.91 1002.62 1117.46 1048.31 1096.96 1056.91 C 1075.67 1065.85 1054.44 1075.37 1031.07 1079.93 C 1023.94 1081.32 993.169 1083.51 992.183 1083.94 C 988.766 1076.94 985.387 1066.62 981.441 1058.3 z" fill="rgb(165,99,113)" transform="translate(0,0)"></path>
<path d="M 705.392 457.949 C 699.203 403.143 737.729 370.379 785.487 354.582 C 811.334 346.032 832.325 345.893 859.174 348.079 C 851.786 354.4 815.249 357.968 801.392 362.186 C 782.984 367.973 765.6 376.616 749.875 387.799 C 734.509 398.736 725.034 413.834 717.089 430.715 C 714.315 436.611 709.035 454.888 705.392 457.949 z" fill="rgb(230,157,164)" transform="translate(0,0)"></path>
<path d="M 1125.33 287.416 C 1136.16 286.094 1156.88 287.306 1167.27 288.837 C 1212.85 295.593 1253.89 320.145 1281.4 357.111 C 1321.8 411.6 1327.9 480.267 1318.83 545.731 C 1306.2 636.832 1254.64 733.734 1179.89 788.742 C 1134.55 821.966 1077.79 835.638 1022.3 826.703 C 980.207 820.185 939.585 799.006 914.041 764.309 L 906.425 752.586 C 886.917 769.13 847.846 777.122 822.784 776.884 C 789.035 776.562 759.197 767.76 735.098 743.507 C 708.463 717.088 696.411 679.136 697.19 641.463 C 698.936 556.968 761.899 443.672 857.202 444.226 C 877.965 444.347 895.041 452.6 909.231 467.791 C 926.42 428.284 936.486 402.308 965.861 368.188 C 1008.77 318.35 1060.41 292.899 1125.33 287.416 z" fill="rgb(0,0,0)" transform="translate(0,0)"></path>
<path d="M 1121.58 299.392 C 1163.19 295.187 1204.88 306.57 1238.59 331.338 C 1277.48 360.131 1300.12 406.859 1307.28 454.002 C 1328.68 594.735 1234.04 793.618 1082.25 815.561 C 1081.36 815.694 1080.47 815.813 1079.57 815.918 C 1033.42 821.191 982.488 810.499 945.492 781.146 C 913.443 756.141 900.816 714.931 897.283 675.649 C 883.342 520.638 939.991 318.205 1121.58 299.392 z" fill="rgb(255,255,255)" transform="translate(0,0)"></path>
<path d="M 1179.31 544.353 C 1185.97 544.142 1195.95 547.415 1200.52 552.201 C 1251.97 605.999 1197.55 734.102 1126.92 741.335 C 1118.66 740.856 1108.83 738.904 1102.84 733.393 C 1063.04 696.811 1090.37 620.22 1118.68 585.472 C 1135.27 565.105 1155.06 547.216 1179.31 544.353 z" fill="rgb(0,0,0)" transform="translate(0,0)"></path>
<path d="M 1145.7 572.147 C 1154.25 559.087 1173.68 553.27 1188.64 554.133 C 1229.37 581.393 1210.65 657.171 1186.1 690.265 C 1122.51 775.982 1070.87 724.083 1099.73 636.769 C 1102.64 627.97 1117.46 592.55 1127.96 592.473 C 1132.4 582.327 1137.4 578.595 1145.7 572.147 z" fill="rgb(55,54,62)" transform="translate(0,0)"></path>
<path d="M 1145.7 572.147 C 1149.13 571.241 1159.18 569.102 1162.03 572.291 C 1176.2 588.121 1126.22 630.297 1127.96 592.473 C 1132.4 582.327 1137.4 578.595 1145.7 572.147 z" fill="rgb(255,255,255)" transform="translate(0,0)"></path>
<path d="M 843.664 456.372 C 870.123 451.984 887.209 462.215 905.673 479.418 C 893.427 522.435 886.709 552.716 884.514 596.974 C 860.018 555.814 826.718 601.262 820.948 629.852 C 815.539 656.649 811.641 700.521 846.04 708.907 C 870.418 702.02 873.102 691.659 884.558 672.902 C 888.602 700.697 890.862 716.529 901.308 743.152 L 890.087 749.374 C 810.143 787.696 723.485 759.058 710.122 664.487 C 698.775 584.183 756.652 466.737 843.664 456.372 z" fill="rgb(255,255,255)" transform="translate(0,0)"></path>
<path d="M 845.911 600.592 C 856.123 581.4 878.986 586.081 881.321 608.264 C 882.902 623.285 884.849 647.868 882.221 662.957 C 879.703 677.414 852.685 712.421 835.592 697.724 C 819.804 684.15 821.61 637.43 833.474 620.653 C 835.977 611.354 838.621 606.74 845.911 600.592 z" fill="rgb(55,54,62)" transform="translate(0,0)"></path>
<path d="M 845.911 600.592 C 868.033 603.371 853.739 631.614 839.893 630.188 C 835.031 627.698 834.755 625.613 833.474 620.653 C 835.977 611.354 838.621 606.74 845.911 600.592 z" fill="rgb(255,255,255)" transform="translate(0,0)"></path>
<path d="M 1031.64 856.322 C 1040.68 855.331 1048.78 856.689 1056.41 861.902 C 1062.31 865.937 1073.78 879.535 1067.69 886.568 C 1062.99 887.131 1054.48 878.718 1048.99 874.924 C 1046.63 878.011 1043.67 882.509 1041.78 885.883 C 1013.84 935.761 970.811 959.984 913.493 946.111 C 900.269 941.691 896.037 939.616 886.824 929.247 C 914.518 934.189 928.738 941.489 959.196 936.265 C 998.804 929.471 1017.83 901.382 1039.61 870.543 C 1032.01 869.054 1019.41 868.728 1014.04 863.519 L 1014.19 861.772 C 1019.1 858.033 1025.66 857.222 1031.64 856.322 z" fill="rgb(0,0,0)" transform="translate(0,0)"></path>
<path d="M 1166.71 195.392 C 1203.05 190.265 1237.01 207.196 1247.38 243.658 C 1243.4 241.055 1236.57 234.502 1232.89 231.034 C 1217.84 216.847 1205.15 211.931 1184.94 209.353 C 1163.04 207.992 1148 211.841 1127.71 220.757 C 1120.29 224.02 1105.33 235.043 1098.97 234.943 L 1098.37 233.724 C 1099.01 232.077 1099.57 230.751 1100.73 229.373 C 1118.5 208.122 1140.18 198.512 1166.71 195.392 z" fill="rgb(0,0,0)" transform="translate(0,0)"></path>
<path d="M 777.056 1238.78 C 753.225 1242.13 732.737 1249.48 707.879 1250.51 C 672.317 1251.99 641.902 1248.44 607.862 1240.46 C 478.901 1210.24 434.175 1109.01 368.547 1008.24 C 345.523 974.677 321.253 939.162 284.841 919.423 C 217.826 883.095 136.521 906.908 106.661 978.65 C 103.125 987.146 96.5504 1006.53 92.817 1013.44 C 91.8211 1012.21 91.0324 1011.21 91.0352 1009.48 C 91.5721 903.609 203.805 833.251 300.946 868.648 C 392.167 901.887 421.452 977.873 473.027 1050.23 C 527.121 1124.07 613.279 1186.39 709.162 1171.08 C 780.982 1159.6 814.893 1111.82 854.021 1056.85 C 857.458 1052.11 861.306 1046.5 864.864 1041.94 C 905.315 1054.27 937.204 1059.43 979.731 1058.33 C 976.294 1067.18 973.261 1074.62 968.648 1082.97 C 955.765 1106.68 933.217 1137.23 915.524 1157.36 C 872.059 1207.41 814.425 1243.08 750.246 1259.66 C 737.878 1262.82 722.521 1266.43 709.954 1267.25 C 731.881 1259.71 757.258 1250.56 777.056 1238.78 z" fill="rgb(218,141,149)" transform="translate(0,0)"></path>
<path d="M 864.864 1041.94 C 905.315 1054.27 937.204 1059.43 979.731 1058.33 C 976.294 1067.18 973.261 1074.62 968.648 1082.97 C 941.12 1080.79 916.129 1078.43 889.463 1070.08 C 876.885 1066.14 866.313 1061.05 854.021 1056.85 C 857.458 1052.11 861.306 1046.5 864.864 1041.94 z" fill="rgb(165,99,113)" transform="translate(0,0)"></path>
<path d="M 978.419 1078.52 C 982.492 1095.11 986.275 1111.77 989.766 1128.49 C 970.3 1141.16 938.61 1175.39 962.312 1197.24 C 958.724 1205.29 954.613 1210.35 948.856 1217.02 C 945.144 1212.22 942.073 1208.13 935.569 1207.34 C 913.549 1204.67 886.667 1227.87 882.963 1249.06 C 881.388 1258.06 884.708 1263.68 889.781 1270.42 C 864.955 1287.56 830.905 1304.72 802.121 1314.11 C 800.267 1306.58 798.279 1300.89 790.96 1297.11 C 763.076 1282.72 712.514 1303.53 698.463 1328.89 C 677.813 1332.13 651.804 1332.72 630.323 1335.1 C 622.503 1325.06 613.762 1319.96 600.872 1318.81 C 576.018 1316.58 546.671 1319.04 532.451 1342.24 C 478.796 1346.21 420.965 1362.05 382.688 1401.95 C 319.43 1470.2 294.381 1544.88 325.948 1634.86 C 315.011 1625.59 305.902 1617.73 297.648 1605.5 C 268.971 1563 259.443 1510.37 267.362 1460.28 C 273.868 1419.13 303.655 1370.04 337.589 1346.26 C 345.396 1338.52 357.765 1331.57 367.493 1325.86 C 426.196 1291.42 491.241 1280.95 558.412 1285.34 C 602.559 1288.23 646.459 1284.94 689.976 1278.14 C 773.541 1268.44 846.84 1238.88 906.391 1178.14 C 937.52 1147.13 958.007 1117.78 978.419 1078.52 z" fill="url(#Gradient1)" transform="translate(0,0)"></path>
<path d="M 337.589 1346.26 C 336.736 1348.35 336.499 1349.08 334.759 1350.54 L 335.192 1351.5 C 344.128 1349.4 371.985 1348.55 376.058 1342.22 C 382.311 1332.49 407.871 1315.94 415.578 1332.92 C 413.878 1335.18 411.532 1337.31 409.491 1339.32 L 407.749 1339.17 L 405.38 1335.87 C 403.224 1335.71 402.156 1335.73 399.99 1335.82 C 398.091 1333.91 398.174 1334.08 397.3 1331.55 L 395.148 1332.04 C 393.529 1335.53 391.956 1337.95 392.048 1341.74 C 396.188 1344.17 401.368 1341 404.181 1344.02 C 409.108 1349.33 414.755 1356.68 415.12 1364.17 C 411.772 1369.4 404.657 1376.71 399.913 1380.8 L 399.09 1380.33 C 400.783 1374.14 401.009 1375.71 405.33 1370.95 L 404.49 1369.74 C 394.656 1371.15 390.104 1388.63 383.276 1394.5 L 381.134 1394.12 L 380.538 1392.5 C 382.667 1389.61 385.267 1386.97 385.187 1383.56 L 384.039 1381.95 C 379.434 1384.57 376.308 1396.61 378.986 1401.15 L 382.688 1401.95 C 319.43 1470.2 294.381 1544.88 325.948 1634.86 C 315.011 1625.59 305.902 1617.73 297.648 1605.5 C 268.971 1563 259.443 1510.37 267.362 1460.28 C 273.868 1419.13 303.655 1370.04 337.589 1346.26 z" fill="rgb(218,141,149)" transform="translate(0,0)"></path>
<path d="M 994.658 1173.74 C 995.664 1179.52 995.107 1196.49 994.873 1203.13 C 993.165 1251.51 983.664 1299.92 971.542 1346.74 C 953.974 1414.6 931.286 1484.1 900.557 1547.27 C 897.902 1552.72 888.951 1571.32 884.992 1575.46 C 870.371 1590.78 845.872 1605.46 827.685 1616.55 C 806.165 1629.68 782.354 1640.95 757.8 1646.3 C 749.485 1648.11 737.942 1648.5 729.402 1650 C 700.991 1654.98 689.955 1657.86 661.595 1650.28 C 603.135 1634.67 553.761 1605.36 522.787 1551.97 C 513.822 1534.95 509.989 1517.53 507.408 1498.7 C 548.552 1548.74 613.929 1587.66 679.904 1588.74 C 738.151 1589.69 799.346 1548.05 839.402 1508.17 C 889.909 1457.88 926.011 1390.43 940.835 1320.7 C 946.995 1291.38 949.027 1256.42 949.046 1226.48 C 956.323 1218.33 966.419 1208.13 968.829 1197.35 L 971.993 1195.95 C 984.206 1190.55 987.577 1184.52 994.658 1173.74 z" fill="rgb(165,99,113)" transform="translate(0,0)"></path>
<path d="M 1524.76 1284.33 C 1540.79 1289.29 1574.04 1295.39 1591.23 1298.9 C 1599.29 1329 1609.47 1361.68 1613.62 1392.48 C 1634.83 1550.11 1627.2 1676.6 1763.09 1786.99 C 1711.44 1772.42 1693.15 1758.66 1654.43 1722.15 C 1553.93 1627.38 1568.38 1490.21 1547.95 1366.07 C 1543.43 1338.63 1534.68 1310.47 1524.76 1284.33 z" fill="rgb(165,99,113)" transform="translate(0,0)"></path>
<path d="M 1313.06 867.46 C 1320.07 863.568 1327 859.841 1333.71 855.418 C 1344.08 922.073 1380.36 981.932 1434.66 1021.97 C 1499.31 1069.56 1605.73 1086.54 1660.18 1013.5 C 1675.41 993.073 1679.28 972.885 1680.58 947.968 C 1718.4 963.478 1718.31 1003.11 1705.62 1035.8 C 1692.06 1070.73 1658.15 1097.86 1622.57 1107.8 C 1619.94 1108.98 1617.24 1110 1614.48 1110.86 C 1591 1118.15 1537.56 1122.22 1514.08 1114.49 C 1431.33 1087.24 1352.4 1010.51 1327.54 930.801 C 1319.05 906.922 1316.79 892.115 1313.06 867.46 z" fill="rgb(218,141,149)" transform="translate(0,0)"></path>
<path d="M 1327.54 930.801 C 1338.12 936.796 1366.71 972.882 1377.02 983.404 C 1429.92 1037.41 1482.61 1081.49 1558.45 1098.41 C 1581.44 1103.53 1604.11 1103.8 1622.57 1107.8 C 1619.94 1108.98 1617.24 1110 1614.48 1110.86 C 1591 1118.15 1537.56 1122.22 1514.08 1114.49 C 1431.33 1087.24 1352.4 1010.51 1327.54 930.801 z" fill="rgb(165,99,113)" transform="translate(0,0)"></path>
<path d="M 1583.91 789.379 C 1650.98 782.434 1720.8 812.092 1753.26 872.96 C 1775.98 916.444 1780.49 967.177 1765.78 1013.98 C 1749.82 1064.39 1714.78 1106.56 1668.15 1131.49 C 1649.63 1141.21 1625.28 1151.63 1604.44 1145.03 C 1627.65 1140.44 1637.8 1138.42 1659.58 1128.55 C 1681.49 1118.6 1714.78 1097.94 1725.21 1075.56 C 1743.81 1035.63 1744.29 988.654 1729.22 947.481 C 1719.58 921.136 1702.68 899.114 1681.93 880.487 C 1645.82 848.063 1608.33 837.344 1560.58 845.811 C 1543.99 848.754 1527 853.359 1510.1 853.4 C 1503.92 853.415 1496.5 853.087 1490.94 850.229 C 1488.31 848.88 1486.17 846.699 1485.68 843.691 C 1484.81 838.374 1488.47 832.487 1491.61 828.533 C 1512.05 802.783 1552.98 793.251 1583.91 789.379 z" fill="rgb(218,141,149)" transform="translate(0,0)"></path>
<path d="M 1497.99 1277.44 C 1502.99 1278.4 1507.97 1279.4 1512.95 1280.44 C 1528.3 1322.6 1538.49 1366.46 1543.32 1411.07 C 1548.63 1456.68 1550.71 1504.14 1557.88 1549.74 C 1559.46 1559.73 1563.12 1573.35 1565.58 1583.39 L 1564.71 1584.25 C 1563.11 1575.79 1557.31 1559.97 1552.63 1552.7 C 1544.09 1539.44 1537.22 1537.19 1523.12 1534 C 1519.3 1529.37 1515.47 1501.63 1513.04 1492.51 C 1516.59 1490.83 1520.02 1488.92 1523.32 1486.79 C 1532.91 1480.38 1539.54 1470.4 1541.74 1459.08 C 1547.58 1428.55 1527.28 1408.21 1498.59 1403.67 C 1494.14 1382.46 1489.99 1363.11 1484.96 1341.98 C 1485.89 1341.41 1486.81 1340.83 1487.72 1340.23 C 1511.32 1324.68 1513.57 1299.85 1497.99 1277.44 z" fill="rgb(233,209,198)" transform="translate(0,0)"></path>
<path d="M 1628.33 857.858 C 1646.93 861.064 1682.82 893.962 1694.88 908.014 C 1702.05 916.388 1708.37 925.451 1713.75 935.07 C 1734.14 971.581 1736.83 1013.47 1725.56 1053.61 C 1715.57 1089.14 1702.92 1097.26 1670.88 1116.1 C 1650.42 1128.14 1614.85 1140.91 1590.74 1139.83 C 1582.63 1139.47 1569.45 1135.49 1561.24 1133.14 C 1554.64 1131.35 1548.09 1129.36 1541.6 1127.19 C 1611.82 1127.5 1689.79 1107.09 1714.52 1031.22 C 1725.73 996.797 1720.78 951.873 1679.66 940.739 C 1679.3 938.503 1678.93 936.269 1678.54 934.037 C 1672.43 898.631 1657.51 878.527 1628.33 857.858 z" fill="rgb(233,209,198)" transform="translate(0,0)"></path>
<path d="M 1447.69 1232.42 C 1459.91 1231.21 1493.88 1244.79 1507.81 1248.15 C 1571.25 1263.45 1634.23 1277.32 1697.36 1293.99 C 1700.81 1303.86 1704.49 1310.88 1713.51 1316.88 C 1727.44 1326.14 1750.15 1334.83 1761.59 1318 C 1783.28 1329.96 1796.63 1339.17 1816.56 1353.69 C 1816.14 1354.7 1815.73 1355.72 1815.34 1356.74 C 1810.19 1370.07 1812.74 1376.44 1818.26 1388.65 L 1805.56 1379.59 C 1751.18 1339.27 1716.88 1324.37 1651.64 1302.89 C 1641.38 1282.57 1623.9 1273.78 1604.78 1289.31 C 1600.57 1288.3 1557.62 1280.04 1556.84 1277.86 C 1551.54 1263.02 1547.34 1259.3 1532.01 1257.97 C 1519.34 1256.88 1515.62 1260.26 1507.72 1267.87 C 1496.84 1270.16 1464.16 1258.52 1452.07 1254.34 C 1445.99 1244.6 1442.94 1240.21 1433.64 1233.61 L 1447.69 1232.42 z" fill="rgb(233,209,198)" transform="translate(0,0)"></path>
<path d="M 1108.56 1440.77 C 1108.95 1451.05 1085.18 1508.3 1080.08 1521.07 C 1043.46 1612.68 972.499 1723.21 900.874 1790.27 C 872.66 1816.19 841.922 1839.21 809.121 1859.01 C 794.078 1868.06 773.119 1880.17 757.052 1886.94 C 756.907 1884.94 766.737 1880.22 768.638 1878.97 C 796.684 1860.55 828.164 1841.04 853.243 1818.7 C 965.15 1718.98 1052.5 1578.12 1108.56 1440.77 z" fill="rgb(242,202,196)" transform="translate(0,0)"></path>
<path d="M 764.67 1299.34 C 784.616 1297.76 805.824 1304.74 788.664 1328.33 C 777.871 1343.17 755.009 1348.75 737.213 1350.3 C 725.388 1350.2 693.852 1345.47 708.861 1326.41 C 721.193 1310.76 745.25 1302.01 764.67 1299.34 z" fill="rgb(242,202,196)" transform="translate(0,0)"></path>
<path d="M 579.185 1325.36 C 635.846 1318.34 642.762 1359.51 584.296 1366.67 C 570.875 1367.52 541.587 1368.3 539.001 1351.75 C 535.829 1331.44 566.514 1326.92 579.185 1325.36 z" fill="rgb(242,202,196)" transform="translate(0,0)"></path>
<path d="M 393.26 1103.36 C 415.499 1107 452.389 1158.35 470.595 1177.14 L 470.439 1178.57 L 466.76 1179.4 C 449.523 1181.41 431.287 1177.41 416.879 1167.52 C 398.8 1155.1 378.091 1124.49 393.26 1103.36 z" fill="rgb(233,209,198)" transform="translate(0,0)"></path>
<path d="M 453.023 1367.05 C 457.229 1368.04 457.571 1368.61 459.328 1371.34 C 459.694 1382.05 438.797 1394.56 429.893 1399.98 C 376.805 1432.29 348.641 1472.3 325.987 1529.69 C 325.334 1531.8 325.368 1531.68 324.013 1533.43 C 322.492 1524.1 336.741 1484.52 342.269 1474.57 C 367.662 1428.88 401.736 1383.76 453.023 1367.05 z" fill="rgb(242,202,196)" transform="translate(0,0)"></path>
<path d="M 1866.75 1403.67 C 1870.81 1407.66 1875.1 1413.85 1878.04 1418.69 C 1904.78 1462.72 1909.11 1515.52 1905.45 1565.79 C 1905.02 1571.6 1904.66 1576.75 1903.33 1582.51 C 1903.02 1574.99 1902.63 1567.48 1902.15 1559.98 C 1898.96 1498.21 1878.89 1457.73 1841.11 1410.8 C 1853.41 1414.08 1858.48 1414.69 1866.75 1403.67 z" fill="rgb(233,209,198)" transform="translate(0,0)"></path>
<path d="M 1565.58 1583.39 C 1577.35 1626.33 1597.28 1676.3 1627.88 1709.15 C 1621.02 1704.86 1618.39 1703.01 1610.58 1700.5 C 1607.73 1701.97 1604.87 1703.41 1601.99 1704.84 C 1584.22 1686.17 1559.24 1651.78 1550.74 1627.83 C 1566.54 1613.31 1568.09 1605.13 1564.71 1584.25 L 1565.58 1583.39 z" fill="rgb(242,202,196)" transform="translate(0,0)"></path>
<path d="M 321.761 970.34 C 328.762 973.527 377.945 1045.49 379.366 1052.54 L 376.088 1053.37 C 337.912 1050.88 299.217 1008.06 321.761 970.34 z" fill="rgb(233,209,198)" transform="translate(0,0)"></path>
<path d="M 546.566 1612.32 C 559.133 1614.46 584.443 1632.12 598.609 1637.03 C 607.247 1640.03 617.401 1645.2 627.084 1648.04 C 631.782 1649.42 646.836 1653.88 650.296 1655.76 L 650.031 1657.25 L 645.746 1659.72 C 616.002 1671.02 584.325 1663.75 561.405 1641.75 C 553.083 1633.76 545.025 1624.62 546.566 1612.32 z" fill="rgb(233,209,198)" transform="translate(0,0)"></path>
<path d="M 739.533 1655.35 C 749.731 1654 777.555 1653.41 761.935 1672.12 C 751.796 1684.26 730.362 1686.98 715.03 1687.3 C 707.059 1687.21 687.241 1685.49 686.187 1677.72 C 684.251 1663.44 733.095 1656.17 739.533 1655.35 z" fill="rgb(233,209,198)" transform="translate(0,0)"></path>
<path d="M 1300.21 1123.63 C 1306.45 1127.43 1320.44 1142.72 1326.87 1148.48 C 1357.11 1175.57 1391.38 1195.8 1427.62 1213.76 C 1431.79 1215.82 1446.03 1222.03 1448.06 1224.92 C 1443.32 1225.65 1430.82 1227.96 1426.3 1226.35 C 1394.23 1214.86 1352.54 1185.4 1328 1162.34 C 1320.88 1155.65 1304.72 1130.96 1300.21 1123.63 z" fill="rgb(233,209,198)" transform="translate(0,0)"></path>
<path d="M 1499.45 1409.63 C 1528.37 1419.3 1548.05 1445.63 1527.04 1473.45 C 1521.22 1478.33 1518.83 1479.66 1512.2 1483.14 C 1507.55 1463.27 1503.79 1431.74 1499.45 1409.63 z" fill="rgb(230,157,164)" transform="translate(0,0)"></path>
<path d="M 931.724 1213.29 C 965.321 1217.48 908.258 1260.01 898.389 1264.82 C 896.907 1264.76 896.386 1264.35 895.023 1263.57 C 885.441 1258.1 890.538 1244.73 895.998 1237.4 C 904.903 1225.45 916.547 1216.16 931.724 1213.29 z" fill="rgb(233,209,198)" transform="translate(0,0)"></path>
<path d="M 1458.13 1268.74 C 1463.09 1270.34 1468.92 1272.44 1473.81 1273.84 C 1501.91 1281.86 1506.89 1301.76 1492.68 1325.49 C 1488.73 1329.75 1487.69 1330.29 1482.64 1333.25 C 1475.01 1311.55 1466.84 1290.03 1458.13 1268.74 z" fill="rgb(233,209,198)" transform="translate(0,0)"></path>
<path d="M 1524.19 1542.67 C 1545.1 1542.64 1551.78 1565.61 1557.31 1582.55 C 1560.75 1593.07 1560.19 1604.47 1554.34 1614.13 C 1552.23 1616.24 1549.82 1618.06 1547.5 1619.96 C 1540.94 1602.74 1527.42 1560.68 1524.19 1542.67 z" fill="rgb(233,209,198)" transform="translate(0,0)"></path>
<path d="M 205.459 917.303 C 212.171 916.247 230.332 913.454 230.743 923.194 C 223.028 942.031 190.351 943.17 173.36 941.91 C 166.991 940.918 162.748 939.899 156.535 938.325 C 153.642 939.646 152.066 940.778 149.457 942.511 L 149.836 940.811 C 167 926.402 183.439 920.786 205.459 917.303 z" fill="rgb(233,209,198)" transform="translate(0,0)"></path>
<path d="M 516.656 1214.17 C 518.657 1214.91 535.124 1224.55 537.769 1226.28 C 545.251 1231.16 554.408 1233.34 560.341 1236.39 C 569.228 1240.96 605.819 1249.44 610.732 1252.32 L 609.713 1253.3 C 581.884 1260.44 514.632 1252.98 516.656 1214.17 z" fill="rgb(233,209,198)" transform="translate(0,0)"></path>
<path d="M 799.174 1876.08 C 806.643 1883.24 790.234 1896.23 784.856 1899.84 C 766.319 1912.29 745.488 1919.52 723.099 1915.57 C 720.324 1914.05 721.112 1914.91 719.459 1912.47 C 725.951 1908.03 752.605 1898.01 760.982 1894.37 C 774.524 1888.49 785.905 1882.82 799.174 1876.08 z" fill="rgb(233,209,198)" transform="translate(0,0)"></path>
<path d="M 1821.45 1358.26 C 1828.82 1360.97 1855.89 1389.58 1860.65 1397.69 C 1861.87 1399.75 1858.51 1404.76 1857.27 1406.68 C 1841.4 1410.06 1825.87 1393.81 1820.31 1380.2 C 1816.79 1371.6 1817.73 1366.48 1821.45 1358.26 z" fill="rgb(233,209,198)" transform="translate(0,0)"></path>
<path d="M 989.288 1137.79 C 992.532 1138.86 993.82 1159.65 994.246 1163.73 C 987.792 1172.27 978.04 1187.32 967.932 1189.82 C 947.827 1177.67 977.24 1146.44 989.288 1137.79 z" fill="rgb(233,209,198)" transform="translate(0,0)"></path>
<path d="M 922.856 1780.78 C 929.74 1786.87 924.283 1794.88 919.416 1800.78 C 904.828 1818.46 884.327 1835.38 860.797 1837.91 L 858.827 1836.92 C 860.388 1832.99 869.82 1826.96 873.656 1824.1 C 891.218 1810.98 907.04 1795.9 922.856 1780.78 z" fill="rgb(233,209,198)" transform="translate(0,0)"></path>
<path d="M 874.953 1595.11 C 873.469 1601.24 847.289 1639.52 841.464 1645.18 C 834.096 1647.52 831.113 1648.58 823.644 1646.8 C 821.953 1644.43 820.346 1642.07 820.653 1639 C 821.557 1629.98 865.602 1602.97 874.953 1595.11 z" fill="rgb(242,202,196)" transform="translate(0,0)"></path>
<path d="M 1706.57 1297.23 C 1715.08 1299.27 1747.67 1310.52 1753.53 1315.76 L 1753.39 1318.77 C 1739.36 1326.16 1707.42 1316.31 1706.57 1297.23 z" fill="rgb(233,209,198)" transform="translate(0,0)"></path>
<path d="M 238.776 918.2 C 267.55 922.63 298.398 940.482 319.16 960.782 C 321.91 963.471 322.151 963.242 322.085 965.995 C 305.151 953.663 289.025 943.39 269.984 934.375 C 262.771 930.959 239.972 925.494 237.531 922.283 L 238.776 918.2 z" fill="rgb(233,209,198)" transform="translate(0,0)"></path>
<path d="M 1608.7 1707.96 C 1610.18 1707.87 1609.97 1707.77 1611.79 1707.77 C 1622.02 1707.8 1640.65 1727.75 1640.64 1737.09 C 1634.05 1732.93 1607.41 1715.8 1608.7 1707.96 z" fill="rgb(233,209,198)" transform="translate(0,0)"></path>
<path d="M 639.983 1938.31 L 640.5 1938.87 C 631.867 1950.74 605.329 1955.62 591.237 1954.22 L 589.667 1953.53 L 589.703 1952.31 C 594.805 1949.93 600.687 1950.06 606.072 1948.49 C 617.366 1945.2 628.729 1941.72 639.983 1938.31 z" fill="rgb(233,209,198)" transform="translate(0,0)"></path>
<path d="M 1640.29 1723.71 C 1646.53 1728.13 1654.76 1737.19 1660.86 1742.6 C 1668.57 1749.43 1675.21 1754.13 1683.58 1760.04 C 1673.49 1758.43 1656.63 1747.08 1647.58 1741.43 C 1646.68 1732.57 1645.21 1730.81 1640.29 1723.71 z" fill="rgb(233,209,198)" transform="translate(0,0)"></path>
<path d="M 1619.38 1286.93 C 1626.47 1286.79 1642.13 1292.17 1641.89 1299.51 L 1638.78 1298.95 C 1632.2 1296.81 1617.82 1294.43 1613.69 1290.89 L 1614.19 1289.32 L 1619.38 1286.93 z" fill="rgb(233,209,198)" transform="translate(0,0)"></path>
<path d="M 1525.98 1265.8 C 1532.81 1265.34 1546.84 1268.23 1547.67 1276.31 L 1545.73 1276.72 C 1538.85 1275.29 1527.57 1274.72 1522.63 1270.96 L 1522.4 1269.17 L 1525.98 1265.8 z" fill="rgb(242,202,196)" transform="translate(0,0)"></path>
<metadata><recraft-signature>{"signed_by": "recraft", "signature_b64": "M2yx2JbujARxQZwc+Yaj83wNXVytebp58DS6hkKFBsCUYmU4MQchiQtN2tI6N/Pxm6pKFyFLW0+Lpr3QIiitCA==", "signing_algo": "Ed25519", "generation_timestamp": 1770828931, "identifier": "ea54b0c0-54fb-4330-9ffa-10b26f9e51a7"}</recraft-signature></metadata></svg>