<svg xmlns="http://www.w3.org/2000/svg" height="1024" preserveAspectRatio="none" style="display: block;" version="1.1" viewBox="0 0 2048 2048" width="1024">
<path d="M 0 0 L 2048 0 L 2048 2048 L 0 2048 L 0 0 z" fill="rgb(255,255,255)" transform="translate(0,0)"></path>
<path d="M 647.832 45.4394 C 678.284 44.0382 710.544 47.281 740.442 53.0903 C 880.349 80.2757 981.57 172.865 1058.97 287.858 C 1061.72 284.627 1064.61 281.459 1067.73 278.58 C 1076.44 270.566 1088.71 265.519 1100.62 266.417 C 1110.11 267.133 1118.85 271.515 1124.78 279.003 C 1133.52 290.026 1134.13 302.38 1132.47 315.687 C 1123.97 306.681 1117.17 297.594 1104.98 293.17 C 1091.71 288.352 1078 291.775 1065.72 297.538 C 1077.93 317.33 1089.67 337.426 1102.8 356.634 C 1103.66 356.653 1104.51 356.68 1105.37 356.714 C 1207.49 361.01 1294.03 595.343 1216.58 664.404 C 1227.9 693.635 1237.66 734.984 1245.88 766.16 C 1311.75 806.218 1388.95 827.495 1465.32 836.685 C 1498.03 839.755 1530.91 840.211 1563.68 842.366 C 1585.19 843.779 1606.55 846.55 1628.02 848.336 C 1619.01 798.788 1601.78 764.141 1558.28 736.626 C 1529.1 718.174 1497.84 709.914 1466.44 729.315 C 1457.69 734.725 1455.12 740.298 1453.14 749.959 C 1458.02 762.77 1460.69 774.6 1451.26 786.354 C 1422.04 822.763 1378.02 791.249 1375.8 752.549 C 1372.27 691.031 1437.67 647.367 1493.41 644.804 C 1576.79 639.558 1649.74 692.772 1686.51 764.926 C 1701.07 793.484 1713.27 832.342 1715.32 864.32 C 1728.11 866.339 1751.55 874.239 1764.34 879.021 C 1842.48 908.344 1921.22 961.086 1956.77 1039.29 C 1998.17 1130.34 1992.15 1276.2 1888.43 1322.85 C 1860.31 1335.63 1828.24 1336.6 1799.39 1325.56 C 1767.43 1313.53 1741.68 1289.13 1727.96 1257.86 C 1697.73 1189.18 1741.63 1105.84 1824.99 1127.02 C 1840.28 1130.91 1859.42 1148.12 1865.15 1162.96 C 1870.6 1176.95 1870.04 1192.57 1863.58 1206.13 C 1852.41 1229.58 1812.08 1243.27 1798.64 1212.8 C 1794.68 1203.82 1806.04 1195.54 1810.46 1188.26 C 1797.45 1164.74 1768.17 1211.94 1790.9 1240.01 C 1839.19 1299.64 1902.88 1260.42 1911.75 1194.24 C 1925.5 1091.66 1849.56 1014.87 1755.68 990.885 C 1737.49 986.238 1722.91 983.446 1704.74 980.51 C 1681.97 1053.5 1615.78 1096.19 1543.82 1111.58 C 1491.65 1122.74 1447.14 1116.77 1396.48 1102.93 C 1406.06 1140.87 1417.33 1178.37 1430.26 1215.31 C 1445.3 1256.99 1464.11 1297.17 1483 1337.18 C 1500.03 1373.15 1517.19 1410.62 1539.32 1443.79 C 1561.37 1476.84 1597.71 1503.81 1639.32 1494.99 C 1658.77 1490.87 1675.59 1479.51 1686.55 1462.92 C 1703.19 1437.74 1699.16 1394.44 1672.77 1377.29 C 1666.86 1373.48 1656.68 1370.74 1649.64 1372.59 C 1645.13 1373.79 1641.28 1376.73 1638.92 1380.76 C 1637.16 1383.8 1636.14 1388.96 1637.58 1392.11 C 1643.01 1404.04 1660.83 1389.33 1670.45 1396.18 C 1700.83 1417.78 1678.78 1456.76 1647.48 1464.81 C 1631.84 1468.79 1615.25 1466.42 1601.34 1458.22 C 1562.93 1435.23 1548.6 1375.43 1572.57 1337.6 C 1587.37 1314.25 1612.28 1298.55 1639.2 1293.32 C 1665.25 1289.05 1693.01 1296.02 1714.79 1310.32 C 1745.42 1330.42 1764.66 1362.02 1771.86 1397.5 C 1779.99 1437.51 1772.46 1483.62 1749.74 1517.83 C 1725.16 1554.85 1684.39 1579.81 1641.24 1588.77 C 1606.1 1595.97 1568.14 1585.84 1538.2 1567.19 C 1527.89 1560.77 1518.28 1553.15 1508.11 1546.31 C 1541.08 1668.52 1501.66 1823.44 1406.45 1909.1 C 1356.72 1953.85 1293.67 1983.07 1225.69 1979.32 C 1176.71 1976.95 1130.74 1954.99 1098.13 1918.38 C 1070.8 1887.81 1050.69 1847.32 1053.38 1805.56 C 1056.1 1763.12 1077.29 1720.36 1109.59 1692.61 C 1147.11 1660.41 1187.82 1636.98 1239.06 1640.21 C 1280.33 1642.45 1325.72 1666.62 1321.66 1714.44 C 1318.36 1751.59 1287.98 1786.56 1248.49 1783.36 C 1231.39 1781.97 1212.3 1764.1 1214.5 1745.84 C 1216.42 1729.94 1240 1732.87 1249.47 1725.24 C 1251.41 1723.68 1252.77 1721.5 1252.62 1718.87 C 1251.21 1709.72 1243.58 1706.31 1234.97 1706.68 C 1159.52 1709.91 1137.47 1819.78 1193.37 1862.18 C 1208.36 1872.74 1226.98 1876.47 1245.01 1876 C 1310.45 1874.31 1354.09 1832.05 1377.77 1773.75 C 1395.43 1730.25 1399.53 1696.26 1399.53 1650.63 C 1399.83 1549.08 1351.12 1456.6 1282.01 1384.74 C 1251.69 1353.21 1218.47 1323.64 1186.87 1293.06 C 1121.3 1229.21 1081.05 1169.42 1054.35 1081.87 C 1050.74 1096.91 1048.56 1114.8 1046.77 1130.26 C 1037.9 1206.88 1041.95 1281.27 1051.36 1357.42 C 1108.9 1365.21 1156.53 1377.52 1206.66 1410.04 C 1258.12 1443.41 1286.91 1501.48 1247.48 1556.74 C 1209.06 1610.59 1133.54 1632.74 1070.59 1643.43 C 1060.59 1670.62 1037.41 1703.75 1018.58 1725.86 C 1012.26 1733.29 1002.3 1741.61 997.2 1749.35 C 993.16 1756.35 991.038 1764.21 987.803 1771.63 C 953.847 1849.48 895.689 1921.62 819.089 1960.45 C 779.24 1980.65 738.137 1991.15 694.031 1984.29 C 664.692 1979.99 638.314 1964.07 620.829 1940.12 C 596.258 1905.98 592.233 1854.99 628.753 1826.69 C 647.533 1812.13 681.369 1809.06 695.091 1831.9 C 704.451 1847.48 700.74 1862.64 684.832 1871.72 C 679.261 1875.01 672.275 1875.76 667.489 1878.63 C 664.75 1889.56 678.668 1906.28 687.79 1911.17 C 766.576 1953.36 838.928 1873.34 874.309 1815.37 C 738.922 1847.41 612.295 1774.74 574.117 1640.14 C 548.451 1549.65 568.337 1462.77 609.412 1380.76 C 620.732 1358.16 631.252 1334.47 644.14 1312.54 C 670.704 1269.94 695.992 1228.14 720.457 1184.3 C 700.688 1202.48 680.94 1224.5 661.14 1243.51 C 572.903 1328.19 462.31 1381.17 365.922 1454.16 C 310.969 1495.77 241.536 1567.35 231.014 1638.23 C 224.524 1681.95 254.141 1734.71 303.347 1739.25 C 360.338 1739.54 438.05 1672.88 439.7 1612.58 C 440.279 1591.44 439.615 1580.35 426.808 1563.68 C 408.727 1540.13 365.058 1543.11 359.727 1574.18 C 356.977 1598.33 390.343 1599.6 387.851 1630.25 C 386.983 1641.07 381.776 1651.08 373.415 1658.01 C 364.615 1665.15 353.245 1668.33 342.014 1666.78 C 301.152 1661.42 285.059 1608.68 290.281 1573.24 C 294.373 1543.69 310.296 1517.07 334.397 1499.49 C 358.113 1482.32 387.758 1475.44 416.615 1480.41 C 442.47 1484.77 469.736 1500.95 484.592 1522.58 C 546.802 1613.16 484.086 1726.57 404.458 1781.81 C 358.356 1813.78 300.863 1832.42 245.109 1822.12 C 205.878 1814.99 171.103 1792.53 148.473 1759.7 C 124.164 1723.95 118.592 1674.02 127.029 1632.5 C 152.28 1508.24 278.371 1401.3 377.312 1333.89 C 331.849 1341.42 298.849 1344.31 252.571 1337.83 C 164.331 1325.47 99.465 1258.83 115.346 1166.49 C 121.957 1125.66 145.576 1095.39 177.913 1071.23 C 215.582 1043.1 295.529 1029.04 325.888 1075.47 C 331.157 1083.46 332.82 1093.3 330.47 1102.58 C 328.351 1110.94 320.874 1121.92 313.354 1125.92 C 296.972 1137.1 280.017 1121.41 267.639 1120.01 C 218.237 1114.42 193.028 1176.2 217.303 1213.7 C 230.354 1233.86 252.394 1246.46 272.467 1250.22 C 340.516 1262.96 412.276 1231.8 469.399 1197.03 C 543.237 1149.53 627.26 1068.1 650.489 980.588 C 655.473 961.813 653.604 940.508 643.084 924.025 C 633.301 921.864 620.373 921.154 610.171 920.118 C 595.572 918.681 581.043 916.601 566.627 913.884 C 435.286 888.483 307.662 825.073 229.439 713.507 C 192.999 661.534 169.871 597.274 166.788 533.778 C 161.687 415.649 203.963 300.374 284.227 213.551 C 378.092 111.173 509.034 50.6325 647.832 45.4394 z" fill="rgb(29,61,113)" transform="translate(0,0)"></path>
<path d="M 476.801 106.392 C 497.177 97.0087 519.722 90.3245 541.261 84.5514 C 625.04 62.0962 712.265 62.7865 793.966 93.172 C 889.238 128.605 965.917 200.289 1026.62 280.013 C 1045.35 304.613 1068.22 334.837 1084.54 361.162 L 1075.5 366.387 C 1041.21 395.281 1039.61 438.213 1044.37 479.634 C 1030.58 463.084 1020.5 450.812 1003.75 437.103 C 962.322 403.188 909.316 398.2 862.015 422.858 C 702.26 506.141 762.924 810.889 944.129 823.409 C 979.968 825.907 1015.3 813.879 1042.18 790.037 C 1076.76 759.355 1098.69 708.352 1101.03 662.544 C 1101.63 650.77 1101.24 638.389 1100.79 626.567 L 1102.19 628.043 C 1137.71 665.958 1136.14 667.692 1188.41 675.178 L 1199.56 673.565 C 1212.95 719.414 1222.49 765.133 1235.85 810.248 C 1260.74 895.843 1316.97 962.834 1395.58 1004.35 C 1443.08 1029.44 1494.94 1044.39 1548.5 1029.99 C 1577.09 1022.31 1614.12 994.815 1627.52 968.301 L 1654.02 970.074 C 1659.85 970.037 1672.62 971.643 1678.93 972.247 C 1658.07 1024.98 1620.68 1059.44 1565.99 1075.9 C 1408.7 1123.26 1263.57 991.967 1158.09 892.953 C 1148.99 884.418 1129.89 866.663 1119.26 861.535 C 1116.4 862.464 1117.68 861.733 1115.72 864.299 C 1094.69 875.438 1066.04 949.112 1057.36 973.485 C 1012.31 1100.04 1010.09 1223.1 1024.26 1355.08 C 1002.85 1354.71 981.641 1354.05 960.268 1355.92 C 940.243 1286.98 937.966 1197.08 941.855 1125.64 C 943.599 1093.62 949.205 1059.19 954.782 1027.53 C 960.824 993.238 978.322 957.8 966.645 922.886 C 945.095 1006.25 919.74 1063.19 874.119 1137.67 C 844.365 1186.24 814.691 1226.26 781.167 1272.3 C 711.755 1368.48 625.163 1468.39 640.349 1595.76 C 653.228 1703.8 746.45 1771.69 852.478 1756.31 C 917.788 1746.84 979.369 1698.89 1018.58 1647.26 L 1042.03 1646.74 C 1008.07 1714.6 934.567 1776.28 861.029 1794.11 C 804.66 1807.27 745.376 1797.71 696.004 1767.49 C 648.451 1738.25 613.1 1693.24 597.217 1639.85 C 529.154 1411.08 763.389 1248.96 789.868 1036.93 C 793.213 1010.14 793.597 981.417 787.429 955.277 C 787.061 986.338 780.816 1034.62 767.643 1062.59 C 761.512 1075.61 740.917 1099.46 730.304 1110.81 C 654.47 1191.88 547.824 1256.49 443.181 1291.8 C 372.276 1315.73 269.519 1331.03 200.389 1296.18 C 172.023 1281.89 150.547 1260.77 140.642 1230.02 C 130.889 1199.73 134.423 1163.98 149.083 1135.75 C 166.066 1103.04 193.52 1081.42 228.51 1070.4 C 250.455 1063.89 271.353 1063.43 291.869 1074.78 C 301.071 1079.87 314.021 1089.89 305.82 1101.7 C 298.505 1112.23 278.729 1100.87 269.015 1099.53 C 261.964 1098.56 254.722 1097.84 247.592 1099.66 C 201.122 1112.17 177.75 1156.37 188.768 1202.53 C 194.365 1225.96 209.085 1246.19 229.662 1258.73 C 374.197 1345.08 690.93 1109.04 665.505 938.131 C 664.787 933.301 663.007 926.888 661.818 922.105 C 696.059 922.077 742.703 914.578 775.551 903.92 C 752.007 904.261 731.84 907.285 706.689 906.558 C 607.79 903.7 507.701 882.539 419.145 837.928 C 323.007 789.498 245.366 715.097 211.743 610.951 C 180.442 513.996 196.952 404.646 242.739 315.027 C 284.288 233.702 350.169 170.81 430.59 128.362 C 442.819 121.908 463.96 110.498 476.801 106.392 z" fill="rgb(237,127,124)" transform="translate(0,0)"></path>
<path d="M 476.801 106.392 C 497.177 97.0087 519.722 90.3245 541.261 84.5514 C 625.04 62.0962 712.265 62.7865 793.966 93.172 C 889.238 128.605 965.917 200.289 1026.62 280.013 C 1045.35 304.613 1068.22 334.837 1084.54 361.162 L 1075.5 366.387 C 1063.67 350.909 1052.71 333.718 1041.08 318.062 C 1016.36 284.76 993.096 255.717 963.455 227.002 C 894.963 160.65 826.875 113.167 732.193 93.9131 C 679.579 83.2141 634.808 81.205 580.772 86.4775 C 560.007 88.4979 539.398 91.8764 519.075 96.5913 C 510.375 98.55 483.228 106.629 476.801 106.392 z" fill="rgb(255,255,255)" transform="translate(0,0)"></path>
<path d="M 1188.41 675.178 L 1199.56 673.565 C 1212.95 719.414 1222.49 765.133 1235.85 810.248 C 1260.74 895.843 1316.97 962.834 1395.58 1004.35 C 1443.08 1029.44 1494.94 1044.39 1548.5 1029.99 C 1577.09 1022.31 1614.12 994.815 1627.52 968.301 L 1654.02 970.074 C 1652.35 974.289 1650.37 978.381 1648.12 982.318 C 1632.99 1009.05 1597.91 1034.47 1568.33 1041.51 C 1468.69 1065.2 1365.54 1013.2 1297.81 942.524 C 1238.76 880.921 1219.98 814.471 1203.84 733.101 C 1200.13 714.37 1193.44 693.767 1188.41 675.178 z" fill="rgb(255,255,255)" transform="translate(0,0)"></path>
<path d="M 795.285 351.249 C 804.083 350.683 812.861 349.879 821.501 352.174 C 832.15 355.002 838.236 361.31 843.739 370.366 C 836.784 374.879 829.539 376.411 821.563 378.07 C 795.044 383.585 777.955 390.023 759.701 410.866 C 752.221 420.549 747.278 430.316 742.245 441.453 C 738.17 419.684 738.481 399.034 750.805 379.817 C 761.082 363.793 777.03 355.147 795.285 351.249 z" fill="rgb(29,61,113)" transform="translate(0,0)"></path>
<path d="M 839.009 164.06 C 842.242 163.826 845.441 163.775 848.662 164.212 C 867.846 166.815 888.465 180.274 900.126 195.453 C 905.468 202.407 911.428 211.471 909.877 220.61 C 909.013 225.701 906.378 228.214 902.273 231.029 C 899.237 231.306 896.007 231.361 892.98 230.97 C 873.512 228.455 848.688 208.884 837.272 193.623 C 833.226 188.214 829.494 181.69 830.799 174.673 C 831.769 169.456 834.758 166.852 839.009 164.06 z" fill="rgb(255,255,255)" transform="translate(0,0)"></path>
<path d="M 733.969 115.332 C 749.371 114.828 764.465 119.789 777.36 128.08 C 785.29 133.178 797.496 143.37 798.799 153.084 C 799.179 155.917 798.681 157.779 796.949 160.063 C 793.62 164.455 787.217 165.941 782.137 166.64 C 771.941 166.128 762.922 164.122 753.38 160.526 C 739.58 155.326 722.695 145.922 716.723 131.598 C 715.655 129.036 715.194 126.022 716.722 123.512 C 720.011 118.107 728.277 116.153 733.969 115.332 z" fill="rgb(255,255,255)" transform="translate(0,0)"></path>
<path d="M 1179.75 726.581 C 1184.19 730.156 1187.28 738.438 1188.21 743.948 C 1190.08 754.905 1186.95 766.172 1180.55 775.125 C 1172.09 786.97 1158.85 794.354 1144.58 796.555 C 1125.91 799.431 1109.7 794.428 1094.59 783.541 C 1090.14 779.828 1086.71 775.352 1083.1 770.856 C 1101.22 775.475 1116.5 782.53 1135.77 780.884 C 1149.3 779.729 1163.8 774.902 1172.52 763.973 C 1181.53 752.686 1181.55 740.11 1179.75 726.581 z" fill="rgb(29,61,113)" transform="translate(0,0)"></path>
<path d="M 916.628 423.413 C 945.003 423.081 969.921 433.001 991.849 450.882 C 1046.03 495.062 1072.41 572.59 1079.09 640.496 C 1083.33 683.544 1074.28 728.507 1046.24 762.48 C 1024.96 788.262 997.344 800.73 964.517 803.956 C 932.544 804.737 904.279 793.707 879.693 773.424 C 833.526 735.339 805.188 669.71 799.5 611.076 C 794.676 561.348 803.133 507.693 835.83 468.162 C 856.399 443.293 884.245 426.416 916.628 423.413 z" fill="rgb(255,255,255)" transform="translate(0,0)"></path>
<path d="M 962.58 560.201 C 972.109 559.389 980.435 560.28 989.202 564.374 C 1007.66 572.992 1020.71 590.266 1027.7 609.012 C 1034.57 627.448 1036.74 649.073 1027.89 667.246 C 1021.62 680.119 1011.39 687.687 998.112 692.142 C 988.605 693.931 979.16 692.683 970.382 688.583 C 951.684 679.849 937.756 659.346 931.372 640.265 C 925.267 622.018 924.179 600.474 933.254 582.988 C 939.748 570.475 949.656 564.443 962.58 560.201 z" fill="rgb(29,61,113)" transform="translate(0,0)"></path>
<path d="M 944.514 585.999 C 946.143 585.849 947.862 585.67 949.493 585.841 C 953.857 586.299 958.459 589.989 961.111 593.28 C 966.117 599.492 968.323 608.487 967.381 616.344 C 966.499 623.701 963.382 628.218 957.562 632.616 C 955.918 632.711 954.192 632.824 952.554 632.601 C 947.489 631.91 942.382 627.199 939.609 623.165 C 934.813 616.187 932.558 606.384 934.486 598.078 C 935.949 591.778 939.215 589.28 944.514 585.999 z" fill="rgb(255,255,255)" transform="translate(0,0)"></path>
<path d="M 1115.72 864.299 C 1117.68 861.733 1116.4 862.464 1119.26 861.535 C 1143.48 887.46 1161.02 912.901 1182.04 941.379 C 1157.89 943.449 1144.31 957.573 1147.09 982.691 C 1148.52 995.37 1154.94 1006.96 1164.93 1014.89 C 1182.6 1028.8 1207 1025.89 1220.43 1007.82 C 1222.89 1004.51 1224.88 1000.19 1226.89 996.571 C 1233.44 1001.89 1240.14 1007.51 1246.97 1012.42 C 1253.88 1029.32 1257.22 1046.64 1261.15 1064.39 C 1274.21 1123.35 1295.02 1178.81 1318.78 1234.24 C 1339.06 1282.74 1362.01 1330.08 1387.5 1376.05 C 1398.06 1395.41 1408.55 1414.91 1419.36 1434.12 C 1432.76 1457.69 1447.88 1481.7 1457.8 1507.03 C 1491.84 1593.92 1491.9 1697.72 1456.05 1784.05 C 1436.85 1830.28 1402.56 1878.26 1363.26 1909.54 C 1360.9 1898.63 1356.39 1888.05 1342.6 1891.23 C 1337.37 1892.48 1332.92 1895.9 1330.36 1900.62 C 1325.04 1910.44 1329.68 1920.17 1339.38 1924.66 C 1340.21 1925.04 1341.05 1925.41 1341.9 1925.77 C 1327.1 1933.62 1312.24 1940.12 1296.96 1945.83 C 1222.74 1973.59 1143.28 1950.04 1105.13 1878.39 C 1104.08 1876.41 1103.52 1875.29 1103.18 1873.02 C 1118.17 1880.15 1151.98 1877.68 1145.95 1855.28 L 1147.1 1853.58 C 1149.89 1859.01 1152.96 1864.29 1156.31 1869.39 C 1194.36 1927.84 1269.3 1928.16 1320.49 1891.55 C 1443.81 1803.36 1454.88 1635.2 1405.79 1503.3 C 1404.88 1500.85 1404.65 1498.33 1405.14 1495.76 C 1432.26 1499.32 1431.69 1449.79 1394.42 1464.54 C 1389.22 1450.14 1381.41 1436.27 1374.58 1422.58 C 1304.48 1282.23 1155.26 1196.53 1103.67 1044.92 C 1089.5 1003.3 1085.29 951.29 1097 908.506 C 1101.24 893.035 1108.59 878.584 1115.72 864.299 z" fill="rgb(255,255,255)" transform="translate(0,0)"></path>
<path d="M 1406.56 1810.63 C 1412.8 1809.46 1419.19 1811.75 1423.28 1816.62 C 1427.36 1821.48 1428.5 1828.17 1426.27 1834.12 C 1424.03 1840.07 1418.76 1844.35 1412.48 1845.32 C 1402.99 1846.79 1394.07 1840.37 1392.45 1830.89 C 1390.83 1821.42 1397.11 1812.4 1406.56 1810.63 z" fill="rgb(29,61,113)" transform="translate(0,0)"></path>
<path d="M 1405.66 1817.72 C 1409.41 1816.21 1413.69 1816.9 1416.78 1819.5 C 1419.88 1822.1 1421.29 1826.2 1420.46 1830.16 C 1419.63 1834.11 1416.69 1837.29 1412.8 1838.43 C 1407.19 1840.07 1401.27 1837.01 1399.36 1831.48 C 1397.45 1825.95 1400.22 1819.89 1405.66 1817.72 z" fill="rgb(237,127,124)" transform="translate(0,0)"></path>
<path d="M 1445.03 1691.5 C 1451.09 1689.64 1457.69 1691.21 1462.26 1695.6 C 1466.84 1700 1468.67 1706.52 1467.06 1712.66 C 1465.45 1718.79 1460.63 1723.57 1454.49 1725.15 C 1445.29 1727.5 1435.89 1722.08 1433.32 1712.94 C 1430.75 1703.8 1435.95 1694.28 1445.03 1691.5 z" fill="rgb(29,61,113)" transform="translate(0,0)"></path>
<path d="M 1448.76 1697.52 C 1454.59 1696.72 1460 1700.68 1461 1706.48 C 1462 1712.27 1458.23 1717.82 1452.47 1719.02 C 1448.56 1719.83 1444.53 1718.45 1441.94 1715.41 C 1439.35 1712.38 1438.63 1708.17 1440.05 1704.44 C 1441.47 1700.72 1444.81 1698.06 1448.76 1697.52 z" fill="rgb(237,127,124)" transform="translate(0,0)"></path>
<path d="M 1449.03 1579.7 C 1458.34 1578.01 1467.28 1584.14 1469.04 1593.45 C 1470.8 1602.75 1464.73 1611.73 1455.44 1613.56 C 1446.06 1615.41 1436.96 1609.26 1435.18 1599.86 C 1433.4 1590.46 1439.62 1581.41 1449.03 1579.7 z" fill="rgb(29,61,113)" transform="translate(0,0)"></path>
<path d="M 1448.06 1586.89 C 1453.54 1584.86 1459.63 1587.66 1461.65 1593.14 C 1463.68 1598.62 1460.88 1604.71 1455.4 1606.74 C 1449.92 1608.77 1443.83 1605.97 1441.8 1600.49 C 1439.78 1595.01 1442.57 1588.92 1448.06 1586.89 z" fill="rgb(237,127,124)" transform="translate(0,0)"></path>
<path d="M 1170.04 1903.13 C 1179.08 1901.27 1187.95 1906.98 1190 1915.98 C 1192.04 1924.98 1186.51 1933.97 1177.56 1936.2 C 1171.6 1937.68 1165.3 1935.83 1161.09 1931.35 C 1156.89 1926.87 1155.44 1920.47 1157.29 1914.62 C 1159.15 1908.76 1164.03 1904.37 1170.04 1903.13 z" fill="rgb(29,61,113)" transform="translate(0,0)"></path>
<path d="M 1173.4 1908.58 C 1179.14 1908.53 1183.89 1913 1184.18 1918.73 C 1184.47 1924.45 1180.2 1929.39 1174.49 1929.92 C 1170.58 1930.28 1166.79 1928.47 1164.61 1925.21 C 1162.43 1921.94 1162.22 1917.74 1164.05 1914.27 C 1165.89 1910.8 1169.48 1908.62 1173.4 1908.58 z" fill="rgb(237,127,124)" transform="translate(0,0)"></path>
<path d="M 1252.45 1922.13 C 1255.45 1922.3 1258.7 1922.51 1261.48 1923.71 C 1265.77 1925.59 1269.09 1929.16 1270.68 1933.56 C 1272.13 1937.61 1271.82 1942.09 1269.82 1945.91 C 1266.97 1951.24 1262.86 1952.62 1257.3 1954.07 C 1253.65 1954.14 1249.54 1954.25 1246.2 1952.6 C 1242.29 1950.67 1239.36 1946.81 1238.19 1942.65 C 1237 1938.38 1237.62 1933.82 1239.89 1930.02 C 1242.9 1924.94 1246.97 1923.48 1252.45 1922.13 z" fill="rgb(29,61,113)" transform="translate(0,0)"></path>
<path d="M 1252.09 1928.39 C 1257.48 1927.06 1262.95 1930.26 1264.43 1935.61 C 1265.91 1940.96 1262.86 1946.52 1257.56 1948.15 C 1253.99 1949.25 1250.11 1948.32 1247.42 1945.72 C 1244.74 1943.13 1243.68 1939.29 1244.65 1935.68 C 1245.62 1932.08 1248.47 1929.29 1252.09 1928.39 z" fill="rgb(237,127,124)" transform="translate(0,0)"></path>
<path d="M 919.62 1105.69 C 920.947 1111.91 915.407 1167.64 915.237 1179.74 C 914.399 1239.37 920.123 1300.51 933.731 1358.61 C 891.269 1362.93 846.875 1376.28 810.217 1398.15 C 779.089 1416.73 747.023 1444.93 737.983 1481.51 C 732.321 1504.42 735.628 1527.88 747.869 1548.07 C 784.774 1608.97 864.456 1626.3 928.588 1641.66 C 927.926 1662.76 926.915 1683.62 922.447 1704.32 C 906.205 1713.17 890.021 1719.07 872.177 1723.67 C 832.384 1731.89 791.914 1728.05 755.27 1710.03 C 717.482 1691.45 686.547 1659.31 673.122 1618.98 C 666.872 1600.21 664.864 1580.02 664.814 1560.31 C 664.534 1448.82 745.849 1360.61 808.22 1276.64 C 848.789 1222.02 889.273 1166.83 919.62 1105.69 z" fill="rgb(255,255,255)" transform="translate(0,0)"></path>
<path d="M 1265.56 1029.38 C 1268.87 1032.63 1271.95 1035.9 1275.13 1039.26 C 1285.9 1046.35 1296.1 1054.17 1306.86 1061.15 C 1325.79 1073.38 1345.81 1083.83 1366.66 1092.35 C 1368.64 1102.62 1371.37 1112.91 1374.02 1123.04 C 1391.21 1189.09 1411.72 1252.98 1439.98 1315.26 C 1455.63 1349.73 1470.17 1381.76 1488.8 1415.14 C 1520.41 1471.77 1567.99 1529.4 1640.43 1516.17 C 1664.89 1511.7 1689.19 1495.62 1702.99 1474.66 C 1716.06 1454.57 1720.48 1430.05 1715.26 1406.66 C 1709.49 1380.4 1688.64 1353.43 1659.83 1351.96 C 1643.68 1351.13 1629.5 1355.98 1620.73 1370.47 C 1615.83 1378.5 1614.5 1388.21 1617.05 1397.27 C 1622.71 1417.18 1641.7 1419.58 1658.95 1414.76 C 1676.56 1430.15 1636.29 1469.72 1600.36 1430.26 C 1587.33 1415.68 1580.65 1396.51 1581.77 1376.99 C 1582.83 1359.05 1591.21 1342.33 1604.96 1330.74 C 1620.89 1317.08 1641.67 1310.44 1662.57 1312.32 C 1727.24 1317.92 1758.04 1390.32 1752.24 1448.21 C 1748.58 1483.11 1731.26 1515.15 1704.07 1537.32 C 1676.96 1559.54 1637.88 1571.96 1602.76 1568.27 C 1570.47 1564.88 1527.52 1541.06 1509.33 1513.85 C 1490.61 1495.58 1465.2 1450.06 1452.42 1426.15 C 1418.45 1362.51 1385.3 1297.81 1355.32 1232.18 C 1338.8 1196.01 1324.18 1158.24 1308.06 1121.7 C 1299.24 1101.62 1290.24 1081.62 1281.07 1061.69 C 1275.96 1050.76 1270.37 1040.47 1265.56 1029.38 z" fill="rgb(237,127,124)" transform="translate(0,0)"></path>
<path d="M 1265.56 1029.38 C 1268.87 1032.63 1271.95 1035.9 1275.13 1039.26 C 1278.65 1049.91 1289.53 1070.62 1294.89 1081.42 C 1305.44 1102.44 1315.57 1123.66 1325.27 1145.08 C 1362.8 1227.8 1396.95 1312.88 1439.56 1393.02 C 1455.21 1422.46 1471.28 1451.61 1487.85 1480.55 C 1492.79 1489.18 1506.57 1505.93 1509.33 1513.85 C 1490.61 1495.58 1465.2 1450.06 1452.42 1426.15 C 1418.45 1362.51 1385.3 1297.81 1355.32 1232.18 C 1338.8 1196.01 1324.18 1158.24 1308.06 1121.7 C 1299.24 1101.62 1290.24 1081.62 1281.07 1061.69 C 1275.96 1050.76 1270.37 1040.47 1265.56 1029.38 z" fill="rgb(255,255,255)" transform="translate(0,0)"></path>
<path d="M 1650.95 873.587 C 1654.48 793.843 1593.86 703.394 1509.73 697.854 C 1479.9 695.89 1439.79 709.72 1434.02 742.99 C 1431.52 757.41 1444.97 782.886 1417.7 781.433 C 1400.28 778.442 1395.2 753.016 1397.37 738.575 C 1400.65 716.72 1414.44 701.115 1431.93 688.34 C 1458.66 668.807 1492.15 660.917 1524.79 666.463 C 1594.77 677.916 1654.46 738.543 1675.94 804.416 C 1689.98 847.486 1692.19 896.645 1684.9 941.342 C 1652.58 935.376 1604.85 932.207 1571.83 929.535 C 1482.72 922.322 1388.83 917.038 1306.01 880.306 C 1302.36 878.686 1294.45 875.113 1292.02 872.348 C 1278.62 857.103 1266.58 827.075 1259.25 808.508 C 1255.97 800.744 1252.84 792.914 1249.88 785.024 C 1317.13 830.019 1398.75 850.826 1478.64 857.455 C 1535.02 862.132 1594.78 863.526 1650.95 873.587 z" fill="rgb(237,127,124)" transform="translate(0,0)"></path>
<path d="M 1249.88 785.024 C 1317.13 830.019 1398.75 850.826 1478.64 857.455 C 1535.02 862.132 1594.78 863.526 1650.95 873.587 C 1650.37 878.298 1650.34 887.293 1650.18 892.301 C 1626.83 889.676 1603.43 887.472 1580 885.691 C 1551.96 883.69 1523.73 882.909 1495.75 880.344 C 1407.4 872.245 1336.32 852.119 1259.25 808.508 C 1255.97 800.744 1252.84 792.914 1249.88 785.024 z" fill="rgb(255,255,255)" transform="translate(0,0)"></path>
<path d="M 1096.92 373.282 C 1106.93 372.496 1116.12 374.87 1125 379.362 C 1167.18 400.697 1195.8 462.456 1210.27 506.064 C 1222.15 541.846 1234.57 601.568 1216.4 636.012 C 1210.84 646.543 1202.8 652.527 1191.52 655.838 C 1183 656.884 1176.33 656.369 1168.24 653.012 C 1133.81 638.743 1105.96 589.322 1092.71 556.6 C 1075.37 513.757 1052.75 443.312 1072.05 398.632 C 1077.12 386.899 1084.98 378.082 1096.92 373.282 z" fill="rgb(255,255,255)" transform="translate(0,0)"></path>
<path d="M 1142.99 475.222 C 1149.38 475.051 1155.92 477.284 1161.45 480.335 C 1179.21 490.134 1191.38 510.701 1196.86 529.691 C 1201.36 545.256 1203.12 564.3 1194.63 578.851 C 1189.73 587.268 1183.03 590.951 1173.97 593.528 C 1165.24 593.441 1158.58 592.565 1150.85 587.986 C 1132.09 576.882 1120.68 553.181 1115.96 532.645 C 1112.74 518.644 1112.37 502.074 1120.51 489.621 C 1126.02 481.187 1133.32 477.111 1142.99 475.222 z" fill="rgb(29,61,113)" transform="translate(0,0)"></path>
<path d="M 1126.24 500.081 C 1126.61 500.056 1126.98 500.027 1127.35 500.007 C 1133.44 499.665 1137.47 500.868 1141.99 505.107 C 1147.82 510.524 1151.15 518.122 1151.18 526.087 C 1151.16 532.21 1149.21 535.632 1144.87 539.772 C 1143.57 539.857 1142.27 539.935 1140.97 539.909 C 1135.79 539.804 1131.21 536.377 1127.81 532.718 C 1122.63 527.153 1119.24 519.223 1119.89 511.541 C 1120.34 506.201 1122.32 503.547 1126.24 500.081 z" fill="rgb(255,255,255)" transform="translate(0,0)"></path>
<path d="M 171.044 1602.69 C 202.61 1507.04 279.572 1434.2 356.027 1372.57 C 386.675 1347.86 411.879 1327.82 449.83 1315.29 C 556.792 1279.95 665.671 1212.53 743.407 1132.2 C 719.415 1177.32 652.168 1233.09 613.427 1266.21 C 610.571 1260.54 609.499 1256.79 603.223 1254.71 C 598.726 1253.19 593.802 1253.59 589.611 1255.82 C 585.069 1258.27 581.726 1262.48 580.358 1267.45 C 578.882 1272.75 579.584 1277.52 582.566 1282.14 C 583.205 1283.13 585.836 1287.62 584.879 1288.43 C 572.6 1298.78 558.356 1306.98 545.497 1316.73 C 542.243 1310.58 540.058 1305.84 532.707 1303.69 C 517.876 1299.34 502.691 1315.89 510.083 1330.03 C 511.07 1331.92 513.994 1334.39 515.64 1335.92 C 504.033 1343.78 491.518 1351.93 480.118 1360.01 C 465.476 1327.62 425.21 1351.94 447.326 1381.22 C 432.67 1390.21 417.748 1400.15 403.025 1408.68 C 399.929 1396.85 393.491 1387.58 379.453 1391.28 C 373.816 1392.73 369.04 1396.47 366.28 1401.59 C 360.4 1412.7 365.568 1422.38 373.468 1430.5 C 362.67 1438.83 347.359 1450.28 337.522 1459.57 C 327.491 1448.95 314.004 1443.71 302.652 1456.35 C 298.613 1460.86 296.593 1466.82 297.059 1472.85 C 297.65 1480.55 300.959 1484.79 306.214 1490.04 C 297.065 1499.61 281.827 1515.38 274.092 1525.68 C 265.69 1516.42 253.874 1513.33 244.263 1522.95 C 240.276 1526.88 238.061 1532.26 238.129 1537.85 C 238.264 1546.48 242.201 1550.77 248.068 1556.41 C 234.188 1573.97 222.835 1593.39 214.34 1614.11 C 188.196 1614.51 179.557 1637.83 203.272 1649.39 C 197.93 1683.38 202.032 1704.2 220.833 1733.43 C 212.255 1730.3 202.118 1722.6 196.193 1715.66 C 167.216 1681.7 169.055 1643.33 171.044 1602.69 z" fill="rgb(255,255,255)" transform="translate(0,0)"></path>
<path d="M 1715.95 886.098 C 1803.76 914.031 1884.72 958.1 1929.1 1043.51 C 1947.94 1079.75 1960.95 1128.8 1958.83 1169.87 C 1958.98 1171.53 1959.05 1173.2 1959.03 1174.87 C 1958.2 1241.26 1911.83 1314.91 1839.01 1313.27 C 1785.62 1312.07 1735.65 1264.13 1737.96 1209.65 C 1738.8 1190.06 1746.02 1171.89 1760.6 1158.54 C 1772.29 1147.65 1787.9 1141.98 1803.85 1142.84 C 1828.44 1144.33 1847.26 1160.7 1847.93 1186.62 C 1848.35 1202.72 1828.99 1220.36 1818.9 1206.49 C 1819.62 1201.69 1827.38 1196.61 1828.83 1191.45 C 1832.28 1179.17 1825.2 1168.59 1813.69 1164.59 C 1792.17 1157.1 1768.94 1177.51 1763.98 1197.53 C 1753.76 1238.74 1783.91 1276.48 1823.14 1286.53 C 1843.94 1291.93 1866.04 1288.85 1884.58 1277.98 C 1910.08 1262.75 1925.48 1233.58 1931.69 1205.47 C 1942.94 1154.57 1935.55 1110.72 1908.29 1066.9 C 1861.41 991.527 1795.28 966.383 1713.8 947.36 C 1716.15 932.266 1716.24 916.855 1716.52 901.607 L 1715.95 886.098 z" fill="rgb(237,127,124)" transform="translate(0,0)"></path>
<path d="M 1715.95 886.098 C 1803.76 914.031 1884.72 958.1 1929.1 1043.51 C 1947.94 1079.75 1960.95 1128.8 1958.83 1169.87 C 1956.88 1166.51 1950.56 1120.74 1947.96 1111.49 C 1917.54 1003.29 1821.78 931.784 1716.52 901.607 L 1715.95 886.098 z" fill="rgb(255,255,255)" transform="translate(0,0)"></path>
<path d="M 220.833 1733.43 C 234.364 1747.19 244.161 1754.18 263.36 1758.48 C 302.768 1767.32 344.959 1749.86 377.512 1728.72 C 413.054 1705.64 447.327 1670.94 455.653 1627.89 C 460.135 1604.72 458.949 1577.8 445.437 1557.64 C 435.454 1542.64 419.804 1532.35 402.083 1529.13 C 387.035 1526.38 372.51 1529.46 360.071 1538.4 C 348.814 1546.53 341.313 1558.87 339.261 1572.6 C 337.561 1584.36 340.835 1599.91 351.363 1606.83 C 361.986 1613.82 372.019 1616.52 368.523 1631.72 C 365.261 1645.89 351.433 1652.38 338.253 1646.71 C 308.36 1632.17 303.902 1587.13 312.576 1559.09 C 319.572 1536.48 338.234 1516.28 358.303 1506.02 C 379.233 1495.2 403.629 1493.22 426.028 1500.54 C 449.265 1508.25 468.457 1524.92 479.332 1546.86 C 494.488 1577.28 491.065 1616.71 480.453 1648.33 C 448.648 1743.12 332.801 1814.54 234.462 1781.42 C 159.42 1756.15 146.111 1670.04 171.044 1602.69 C 169.055 1643.33 167.216 1681.7 196.193 1715.66 C 202.118 1722.6 212.255 1730.3 220.833 1733.43 z" fill="rgb(237,127,124)" transform="translate(0,0)"></path>
<path d="M 1099.45 1863.63 L 1098.6 1865.42 L 1097.18 1864.15 C 1090.23 1843.16 1087.66 1833.82 1087.63 1810.37 C 1087.59 1769.46 1106.59 1733.06 1135.24 1704.72 C 1163.04 1677.62 1201.67 1662.72 1240.35 1662.85 C 1271.23 1662.95 1302.69 1675.61 1301.4 1711.96 C 1300.48 1737.65 1278.74 1764.38 1251.34 1762.13 C 1246.11 1761.69 1240.75 1759.54 1237.55 1755.19 C 1235.44 1752.26 1233.77 1748.61 1234.38 1744.91 C 1237.97 1739.66 1250.65 1740.22 1257.28 1738.39 C 1270.99 1734.6 1279.85 1724.58 1274.52 1709.67 C 1265.9 1685.59 1230.93 1684.49 1210.32 1691.62 C 1171.97 1704.88 1144.74 1742.08 1139.7 1781.85 C 1136.29 1808.16 1138.74 1828.74 1147.1 1853.58 L 1145.95 1855.28 C 1131.9 1844.79 1106.43 1845.68 1099.45 1863.63 z" fill="rgb(237,127,124)" transform="translate(0,0)"></path>
<path d="M 1044.29 1412.93 C 1048.82 1412.88 1052.94 1413.28 1056.3 1416.71 C 1072.72 1433.5 1034.91 1482.32 1027.63 1499.09 C 1025.48 1504.04 1024.24 1509.11 1024.08 1514.52 C 1023.93 1520.04 1024.75 1525.95 1028.86 1530.01 C 1034.55 1535.64 1041.82 1535.38 1049.21 1535.27 C 1053.16 1520.03 1056.47 1503.99 1058.97 1488.44 C 1060.36 1479.85 1060.78 1471.1 1063.08 1462.69 C 1064.24 1461.21 1065.02 1460.33 1066.79 1459.53 C 1073.04 1456.71 1080.76 1460.48 1087.22 1460.05 C 1102.02 1459.05 1107.57 1450.19 1126.24 1456.93 C 1133.07 1459.4 1138.24 1464.26 1141.32 1470.82 C 1148.78 1486.77 1145.06 1506.31 1139.29 1522.11 C 1136.7 1527.77 1133.06 1532.89 1128.55 1537.18 C 1119.62 1545.83 1107.48 1551.24 1094.91 1550.53 C 1084.6 1549.96 1078.87 1545.5 1072.38 1538.15 C 1068.8 1554.27 1066.59 1566.91 1073.65 1582.55 C 1068.13 1585.74 1061.26 1588.74 1054.72 1587.76 C 1050.94 1587.19 1047.9 1585.16 1045.87 1581.94 C 1040.79 1573.87 1042.86 1563.09 1044.68 1554.33 C 1037.89 1554.95 1030.7 1555.92 1024.03 1554.11 C 1016.39 1552.02 1010.82 1547.25 1007.16 1540.27 C 995.478 1518 1003.52 1482.28 1010.89 1459.92 C 1016.77 1442.1 1026.69 1421.7 1044.29 1412.93 z" fill="rgb(255,255,255)" transform="translate(0,0)"></path>
<path d="M 1100.55 1475.12 C 1104.36 1474.99 1107.9 1474.58 1111.41 1476.3 C 1115.44 1478.28 1118.41 1482.76 1119.77 1486.92 C 1122.79 1496.13 1121.39 1508 1116.71 1516.42 C 1112.47 1524.07 1107.73 1527.37 1099.5 1529.87 C 1096.06 1529.88 1092.94 1529.82 1089.74 1528.44 C 1084.88 1526.37 1081.35 1522.33 1079.66 1517.36 C 1076.74 1508.77 1078.3 1497.6 1082.41 1489.64 C 1086.63 1481.46 1091.92 1477.74 1100.55 1475.12 z" fill="rgb(29,61,113)" transform="translate(0,0)"></path>
<path d="M 1047.57 1433.79 C 1048.48 1443 1034.86 1465.55 1030.38 1474.13 C 1030.79 1462.15 1040.46 1443.23 1047.57 1433.79 z" fill="rgb(29,61,113)" transform="translate(0,0)"></path>
<path d="M 846.662 1418.37 C 850.901 1417.92 855.07 1417.71 859.33 1417.81 C 875.541 1418.2 894.268 1423.89 905.466 1436.07 C 913.442 1444.74 916.794 1455.91 916.022 1467.58 C 914.961 1483.62 906.41 1497.21 894.519 1507.48 C 876.941 1522.67 854.734 1530.21 831.649 1528.46 C 823.721 1543.19 819.021 1553.5 821.139 1570.64 C 815.5 1572.27 809.616 1574.42 803.7 1573.09 C 800.141 1572.28 796.998 1570.36 795.154 1567.13 C 791.816 1561.27 792.925 1553.85 794.608 1547.67 C 799.886 1528.3 826.855 1473.01 838.81 1458.2 C 841.221 1455.21 843.667 1453.29 846.974 1451.38 C 847.607 1451.5 848.237 1451.64 848.864 1451.78 C 857.95 1453.84 861.658 1457.28 866.621 1465.07 C 858.777 1478.99 849.011 1491.68 841.488 1505.83 C 854.536 1504.66 867.749 1501.67 878.205 1493.28 C 885.788 1487.12 890.559 1478.16 891.432 1468.43 C 892.077 1461.88 890.537 1455.37 886.034 1450.43 C 880.783 1444.67 872.716 1442.05 865.094 1441.81 C 848.821 1441.29 827.857 1449.5 816.051 1460.69 C 804.074 1472.04 800.78 1485.7 800.61 1501.54 C 796.933 1500.11 793.318 1498.69 790.103 1496.36 C 784.188 1492.06 779.618 1485.9 778.744 1478.51 C 777.484 1467.85 783.162 1456.18 789.57 1447.88 C 803.639 1429.68 824.457 1421.25 846.662 1418.37 z" fill="rgb(255,255,255)" transform="translate(0,0)"></path>
<path d="M 1330.16 933.726 C 1337.29 935.573 1344.43 938.615 1351.49 940.875 C 1365.37 945.33 1379.49 949.011 1393.78 951.904 C 1432.03 959.338 1471.59 963.169 1510.5 964.568 C 1542.45 965.717 1574.47 965.181 1606.37 967.494 C 1598.81 976.595 1591.22 984.818 1582 992.27 C 1559.79 1008.64 1533.36 1015.16 1506 1014.91 C 1448.09 1014.37 1370.54 974.749 1330.16 933.726 z" fill="rgb(255,255,255)" transform="translate(0,0)"></path>
<path d="M 1195.53 1455.4 C 1204.41 1454.68 1213.45 1456.6 1220.7 1461.93 C 1229.9 1468.67 1234.33 1479.46 1235.71 1490.48 C 1237.76 1506.74 1234.97 1524.6 1224.41 1537.59 C 1215.05 1549.11 1202.99 1554.32 1188.55 1555.66 C 1179.27 1556.16 1169.83 1554.05 1162.51 1548.08 C 1154.06 1541.18 1149.93 1530.65 1148.72 1520.03 C 1146.89 1503.81 1150.29 1483.75 1160.98 1470.98 C 1170.25 1459.92 1181.76 1456.64 1195.53 1455.4 z" fill="rgb(255,255,255)" transform="translate(0,0)"></path>
<path d="M 1191.82 1475.28 C 1194.86 1475.39 1198.36 1475.69 1201.12 1477.04 C 1205.56 1479.22 1208.29 1483.77 1209.52 1488.42 C 1212.38 1499.25 1209.74 1515.67 1203.85 1525.07 C 1199.52 1531.97 1195.18 1534.34 1187.35 1535.96 C 1184.63 1535.48 1181.81 1535.06 1179.42 1533.58 C 1174.27 1530.38 1171.19 1524.53 1169.95 1518.75 C 1167.65 1507.97 1169.26 1494.3 1175.51 1485.07 C 1179.83 1478.69 1184.43 1476.66 1191.82 1475.28 z" fill="rgb(29,61,113)" transform="translate(0,0)"></path>
<path d="M 952.798 1464.35 C 961.89 1463.12 972.985 1464.77 980.968 1469.29 C 988.566 1473.59 993.743 1480.68 995.76 1489.15 C 999.426 1504.55 994.93 1524.92 986.257 1538.05 C 977.468 1551.36 965.511 1557.92 950.242 1560.95 C 939.282 1561.46 928.509 1561.03 919.222 1554.39 C 911.159 1548.61 906.987 1539.63 905.525 1530.03 C 903.048 1513.76 908.266 1496.23 918.293 1483.26 C 927.083 1471.9 938.842 1466.32 952.798 1464.35 z" fill="rgb(255,255,255)" transform="translate(0,0)"></path>
<path d="M 949.294 1483.14 C 952.847 1482.87 956.722 1482.32 960.179 1483.44 C 964.503 1484.83 967.941 1488.19 969.839 1492.27 C 973.901 1501 971.901 1513.02 968.638 1521.78 C 965.167 1531.09 960.189 1537.57 951.131 1541.73 C 947.754 1541.94 944.478 1542.15 941.204 1541.12 C 936.7 1539.67 932.977 1536.45 930.889 1532.2 C 926.669 1523.81 927.6 1511.81 930.624 1503.19 C 934.127 1493.21 940.005 1487.58 949.294 1483.14 z" fill="rgb(29,61,113)" transform="translate(0,0)"></path>
<path d="M 1099.08 1085.91 C 1107.74 1096.97 1113.31 1111.08 1120.95 1122.98 C 1137.48 1148.74 1156.33 1173.59 1175.78 1197.22 C 1205.73 1233.6 1239.4 1267.04 1271.57 1301.45 C 1292.54 1323.88 1313.86 1346.77 1331.09 1372.29 C 1350.09 1400.41 1364.15 1431.56 1377.89 1462.47 C 1372.48 1458.42 1365.46 1442.82 1361.42 1436.42 C 1350.41 1418.98 1337.46 1402.26 1324.45 1386.29 C 1275.13 1325.77 1215.55 1274 1168.51 1211.62 C 1148.18 1184.66 1130.72 1155.65 1116.4 1125.07 C 1110.52 1112.73 1102.22 1099.19 1099.08 1085.91 z" fill="rgb(255,255,255)" transform="translate(0,0)"></path>
<path d="M 799.965 1936.72 C 797.136 1938.73 794.766 1940.1 791.57 1941.59 C 741.415 1964.98 658.906 1975.36 629.533 1915.48 C 622.553 1901.25 620.434 1878.16 626.625 1863.27 C 634.185 1845.1 653.535 1823.87 675.283 1834.63 C 678.351 1836.16 682.265 1839.44 682.881 1843.1 C 686.119 1862.36 659.045 1856.34 651.767 1870.52 C 648.325 1876.25 647.209 1881.92 648.676 1887.98 C 653.435 1907.63 662.24 1918.49 678.192 1929.61 C 680.296 1934.06 687.306 1936.49 691.486 1938.67 C 717.158 1952.07 747.577 1951.53 774.884 1943.79 C 782.313 1941.68 792.403 1937.92 799.965 1936.72 z" fill="rgb(237,127,124)" transform="translate(0,0)"></path>
<path d="M 943.657 1785.79 C 936.527 1798.85 928.853 1812.93 920.711 1825.31 C 893.11 1867.29 845.712 1915.8 799.965 1936.72 C 792.403 1937.92 782.313 1941.68 774.884 1943.79 C 747.577 1951.53 717.158 1952.07 691.486 1938.67 C 687.306 1936.49 680.296 1934.06 678.192 1929.61 C 742.453 1960.95 805.023 1927.86 849.992 1879.52 C 870.145 1857.86 884.889 1833.5 899.048 1807.72 C 913.64 1799.81 928.887 1794.21 943.657 1785.79 z" fill="rgb(255,255,255)" transform="translate(0,0)"></path>
<path d="M 1183.54 945.055 C 1183.98 945.153 1184.47 945.103 1184.84 945.349 C 1188.51 947.79 1193.35 956.613 1196.36 960.535 C 1204.63 971.294 1213.88 981.293 1222.97 991.35 C 1221.14 995.557 1219.34 999.688 1216.54 1003.37 C 1210.1 1011.83 1201.93 1014.44 1191.82 1015.64 C 1186.18 1015.85 1180.39 1014.95 1175.23 1012.61 C 1166.08 1008.47 1159.28 1000.9 1155.81 991.503 C 1152.54 982.638 1152.28 972.311 1156.62 963.748 C 1162.28 952.554 1172.34 948.607 1183.54 945.055 z" fill="rgb(255,255,255)" transform="translate(0,0)"></path>
<path d="M 955.848 1644.83 C 966.426 1645.11 977.119 1646.25 987.681 1647.02 C 980.897 1654.81 973.279 1661.81 965.81 1668.92 C 960.085 1674.57 954.343 1680.04 948.183 1685.21 C 951.292 1671.8 953.735 1658.42 955.848 1644.83 z" fill="rgb(255,255,255)" transform="translate(0,0)"></path>
<path d="M 384.358 1396.92 C 386.375 1397.12 388.52 1397.66 390.208 1398.84 C 393.161 1400.9 396.838 1407.12 397.01 1410.6 C 394.601 1415.29 386.498 1419.98 382.186 1423.23 L 379.589 1423.85 C 376.436 1422.64 374.389 1421.25 372.796 1418.16 C 370.938 1414.56 371.212 1409.59 372.751 1405.91 C 374.821 1400.96 379.586 1398.58 384.358 1396.92 z" fill="rgb(237,127,124)" transform="translate(0,0)"></path>
<path d="M 313.916 1457.13 C 316.675 1456.89 320.182 1456.28 322.888 1456.97 C 327.535 1458.16 329.197 1461.08 331.687 1464.86 C 327.223 1469.73 322.533 1474.32 317.787 1478.92 C 315.947 1480.07 313.889 1481.14 311.616 1480.89 C 309.235 1480.63 307.303 1479.24 306.059 1477.23 C 304.229 1474.29 304.196 1469.89 304.993 1466.62 C 306.216 1461.59 309.82 1459.6 313.916 1457.13 z" fill="rgb(237,127,124)" transform="translate(0,0)"></path>
<path d="M 458.237 1350.98 C 460.114 1350.93 460.325 1350.89 462.201 1351.01 C 465.662 1351.24 469.843 1353.92 471.799 1356.77 C 473.409 1359.12 473.087 1360.77 472.696 1363.44 C 469.368 1367.66 463.947 1370.46 459.483 1373.39 C 457.603 1374.64 456.272 1375.16 454.063 1375.62 C 451.482 1374.78 450.273 1374.58 448.926 1371.96 C 447.326 1368.85 447.833 1364.3 448.716 1361.05 C 450.146 1355.8 453.789 1353.63 458.237 1350.98 z" fill="rgb(237,127,124)" transform="translate(0,0)"></path>
<path d="M 253.304 1524.07 C 256.764 1523.9 261.105 1523.5 264.237 1525.31 C 266.413 1526.56 266.396 1527.63 266.703 1529.84 C 265.724 1532.79 264.661 1534.9 262.705 1537.32 L 255.778 1545.99 C 254.773 1547.27 254.413 1547.41 252.983 1548.06 C 250.381 1547.19 248.645 1546.06 247.067 1543.81 C 245.199 1541.15 244.538 1537.25 245.107 1534.08 C 245.967 1529.27 249.606 1526.73 253.304 1524.07 z" fill="rgb(237,127,124)" transform="translate(0,0)"></path>
<path d="M 1344.02 1896.07 C 1344.51 1896.15 1345 1896.21 1345.48 1896.3 C 1349.22 1896.95 1352.68 1898.33 1354.62 1901.82 C 1355.79 1903.95 1355.88 1906.31 1355.29 1908.62 C 1353.92 1914.02 1350.5 1916.12 1346.07 1918.94 C 1344.65 1918.89 1343.35 1918.81 1342 1918.33 C 1338.99 1917.27 1336.49 1915.39 1335.28 1912.3 C 1334.24 1909.63 1334.47 1906.41 1335.48 1903.77 C 1337.15 1899.42 1339.91 1897.84 1344.02 1896.07 z" fill="rgb(237,127,124)" transform="translate(0,0)"></path>
<path d="M 1116.84 1856.21 C 1123.92 1855.7 1132.49 1854.37 1138.34 1859.5 C 1139.54 1860.54 1139.29 1861.09 1139.47 1862.54 C 1137.48 1866.43 1132.26 1868.15 1128.38 1869.46 C 1123.76 1869.55 1118.29 1869.73 1113.79 1868.65 C 1110.65 1867.89 1108.45 1866.88 1106.83 1864.14 C 1108.68 1859.58 1112.56 1858.17 1116.84 1856.21 z" fill="rgb(237,127,124)" transform="translate(0,0)"></path>
<path d="M 525.078 1308.87 C 529.632 1309.01 534.071 1310.44 537.461 1313.56 C 537.991 1315.12 538.462 1315.68 538.024 1317.37 C 536.498 1323.25 530.272 1326.24 525.539 1329.36 C 524.22 1330.08 523.035 1330.38 521.595 1330.78 C 519.264 1330.19 517.739 1330.15 516.37 1327.93 C 514.667 1325.16 514.984 1321.68 515.789 1318.69 C 517.144 1313.67 520.858 1311.42 525.078 1308.87 z" fill="rgb(237,127,124)" transform="translate(0,0)"></path>
<path d="M 1403.91 1468.03 C 1405.2 1467.98 1406.74 1467.84 1408.04 1468.02 C 1411.31 1468.47 1414.31 1470.31 1415.99 1473.2 C 1417.4 1475.62 1417.58 1478.45 1416.99 1481.13 C 1415.96 1485.79 1413.4 1487.88 1409.62 1490.51 C 1405.42 1489.72 1402.78 1488.34 1400.15 1484.87 C 1397.93 1481.93 1396.83 1477.86 1397.83 1474.22 C 1398.72 1470.98 1401.25 1469.69 1403.91 1468.03 z" fill="rgb(237,127,124)" transform="translate(0,0)"></path>
<path d="M 594.01 1259.95 C 598.925 1259.74 601.927 1260.24 605.718 1263.49 C 606.47 1265.36 606.908 1265.83 606.641 1267.92 C 605.97 1273.17 601.399 1275.71 597.52 1278.65 L 592.942 1280.93 C 590.305 1280.77 589.954 1280.65 587.792 1279.13 C 585.822 1275.72 585.566 1272.86 586.439 1269.05 C 587.525 1264.31 590.069 1262.48 594.01 1259.95 z" fill="rgb(237,127,124)" transform="translate(0,0)"></path>
<path d="M 206.749 1619.64 C 208.68 1619.98 209.107 1619.62 210.367 1621.23 C 209.29 1626.31 206.532 1638.61 202.977 1642.08 C 201.457 1640.77 199.827 1639.43 198.524 1637.9 C 196.857 1635.95 196.003 1633.11 196.434 1630.57 C 197.342 1625.23 202.593 1622.25 206.749 1619.64 z" fill="rgb(237,127,124)" transform="translate(0,0)"></path>
<metadata><recraft-signature>{"signed_by": "recraft", "signature_b64": "bqXa+wyZHWR3Nn4mlAhMWM9MF10svsYDkG5Hz7AVXrOL5YrO+O6XYt15Bh2KssRXDQ89mNEXQRYb6oaFxATgCg==", "signing_algo": "Ed25519", "generation_timestamp": 1770828137, "identifier": "9f7ad196-69dd-4343-8e83-380efee0a5bf"}</recraft-signature></metadata></svg>