<svg xmlns="http://www.w3.org/2000/svg" height="1024" preserveAspectRatio="none" style="display: block;" version="1.1" viewBox="0 0 2048 2048" width="1024">
<defs>
	<linearGradient gradientUnits="userSpaceOnUse" id="Gradient1" x1="1684" x2="1646" y1="1570.49" y2="1570.51">
		<stop class="stop0" offset="0" stop-color="rgb(255,172,173)" stop-opacity="1"></stop>
		<stop class="stop1" offset="1" stop-color="rgb(255,197,181)" stop-opacity="1"></stop>
	</linearGradient>
	<linearGradient gradientUnits="userSpaceOnUse" id="Gradient2" x1="713.032" x2="698.769" y1="1672.99" y2="1701.4">
		<stop class="stop0" offset="0" stop-color="rgb(235,192,187)" stop-opacity="1"></stop>
		<stop class="stop1" offset="1" stop-color="rgb(247,221,212)" stop-opacity="1"></stop>
	</linearGradient>
	<linearGradient gradientUnits="userSpaceOnUse" id="Gradient3" x1="1675.39" x2="1695.33" y1="951.838" y2="999.863">
		<stop class="stop0" offset="0" stop-color="rgb(25,3,29)" stop-opacity="1"></stop>
		<stop class="stop1" offset="1" stop-color="rgb(9,18,74)" stop-opacity="1"></stop>
	</linearGradient>
	<linearGradient gradientUnits="userSpaceOnUse" id="Gradient4" x1="1198.44" x2="1188.48" y1="288.436" y2="278.507">
		<stop class="stop0" offset="0" stop-color="rgb(41,20,46)" stop-opacity="1"></stop>
		<stop class="stop1" offset="1" stop-color="rgb(16,31,76)" stop-opacity="1"></stop>
	</linearGradient>
	<linearGradient gradientUnits="userSpaceOnUse" id="Gradient5" x1="1181.55" x2="1155.8" y1="615.086" y2="634.397">
		<stop class="stop0" offset="0" stop-color="rgb(40,15,49)" stop-opacity="1"></stop>
		<stop class="stop1" offset="1" stop-color="rgb(24,28,76)" stop-opacity="1"></stop>
	</linearGradient>
	<linearGradient gradientUnits="userSpaceOnUse" id="Gradient6" x1="1784.27" x2="1818.93" y1="1364.31" y2="1341.99">
		<stop class="stop0" offset="0" stop-color="rgb(13,14,31)" stop-opacity="1"></stop>
		<stop class="stop1" offset="1" stop-color="rgb(7,22,71)" stop-opacity="1"></stop>
	</linearGradient>
</defs>
<path d="M 0 0 L 2048 0 L 2048 2048 L 0 2048 L 0 0 z" fill="rgb(255,255,255)" transform="translate(0,0)"></path>
<path d="M 958.515 83.4171 C 971.297 82.172 999.114 82.9512 1012 83.8978 C 1124.85 92.1903 1240.02 144.757 1329.45 212.499 C 1343.33 223.227 1356.62 234.689 1369.28 246.835 C 1377.71 255.046 1388.94 267.284 1397.8 274.275 L 1398.94 275.159 C 1440.03 274.053 1481.48 272.686 1509.77 309.077 C 1530.45 335.686 1530.21 364.598 1526.33 396.579 C 1574.54 428.09 1608.57 478.241 1609.27 537.726 C 1609.56 561.535 1602.58 587.659 1585.29 604.876 C 1601.19 630.76 1599.45 656.809 1573.36 675.179 C 1590.17 739.562 1590.03 798.852 1558.92 859.628 C 1553.04 871.123 1545.23 877.492 1538.76 887.832 C 1536 892.246 1534.36 910.13 1533.65 916.1 C 1557.15 943.86 1570.34 958.551 1608.6 967.114 C 1643.62 974.832 1680.27 968.335 1710.5 949.051 C 1740.01 930.15 1763.29 899.834 1771.09 865.385 C 1774.72 849.383 1775.02 825.293 1765.23 811.659 C 1745.56 784.234 1710.09 788.619 1681.41 783.528 C 1662.55 780.181 1643.43 770.802 1633.06 754.401 C 1627.67 745.88 1622.74 730.036 1624.89 719.899 C 1625.68 716.17 1628.18 710.322 1631.92 708.564 C 1644.17 702.804 1651.17 717.502 1661.67 721.572 C 1697.1 735.3 1739.65 724.064 1775.66 737.233 C 1800.29 746.241 1823.06 767.421 1833.61 791.454 C 1834.69 793.578 1841.63 811.703 1842.54 811.983 C 1856.96 816.421 1861.77 834.384 1856.36 847.27 C 1854.14 852.557 1850.9 853.851 1845.36 855.988 C 1845.08 876.358 1844.22 890.203 1840.1 910.155 C 1849.57 916.8 1849.39 931.336 1844.22 940.771 C 1838.7 950.849 1832.51 953.02 1822.28 956.197 C 1812.61 974.58 1805.54 985.416 1791.18 1000.31 C 1794.61 1018.97 1779.01 1031.22 1763.05 1036.61 C 1757.65 1035.47 1755.38 1034.81 1750.2 1032.89 C 1737.23 1043.77 1729.05 1046.91 1714 1054.72 C 1699.83 1078.27 1669.4 1089.09 1649.5 1064.63 C 1633.14 1066.75 1622.45 1067.43 1606.27 1065.05 C 1670.09 1126.22 1750.43 1168.05 1813.84 1234.84 C 1894.5 1319.79 1909.78 1433.79 1837.26 1529.92 C 1831.35 1537.74 1816.2 1546.56 1808.12 1554.06 L 1807.12 1555 C 1803.7 1640.29 1784.38 1705.58 1727.03 1772.73 C 1636.53 1879.28 1468.06 1906.94 1358.72 1811.51 C 1305.4 1764.97 1278.61 1668.84 1359.35 1632.25 C 1373.95 1625.63 1382.17 1626.18 1397.75 1616.79 C 1415.87 1605.88 1418.48 1583.25 1437.06 1579.77 C 1450.2 1580.1 1453.44 1602 1452.47 1612.97 C 1448.72 1655.2 1411.99 1663.12 1382.48 1681.8 C 1360.96 1700.23 1375.23 1739.56 1390.98 1755.25 C 1452.88 1816.89 1564.7 1816.34 1628.15 1757.44 C 1675.8 1713.21 1685.64 1665.13 1688.49 1603.82 C 1668.84 1598.83 1650.62 1592.47 1634.68 1579.58 C 1625.99 1572.56 1611.62 1558.61 1615.83 1546.34 C 1620.02 1542.27 1631.79 1544.28 1637.76 1544.79 C 1652.42 1546.07 1666.04 1545.72 1680.65 1544.72 C 1649.38 1430.77 1582.71 1381.24 1494.65 1309.36 C 1460.94 1281.84 1422.04 1245.36 1393.05 1212.51 C 1377.95 1195.39 1363.22 1176.91 1351.23 1157.43 C 1338.17 1136.21 1331.09 1115.56 1322.52 1092.51 C 1325.01 1109.48 1329.47 1126.81 1314.82 1139.68 C 1316.19 1144.89 1317.73 1149.25 1319.5 1154.31 C 1316.85 1161.65 1315.71 1163.67 1311.69 1169.98 L 1311.77 1170.93 C 1313.09 1188.33 1313.77 1198.3 1301.95 1212.02 C 1302.12 1217.5 1302.85 1224.35 1303.3 1229.94 C 1322.24 1246.43 1317.06 1252.16 1314.96 1274.26 C 1314.6 1278.06 1317.21 1292.75 1317.99 1297.45 C 1350.99 1312.11 1337.92 1331.81 1346.28 1359.43 C 1372.5 1367.06 1388.68 1385.16 1374.6 1412.4 C 1380.9 1418.96 1386.42 1424.49 1393.42 1430.84 C 1401.55 1438.21 1426.7 1454.85 1414.32 1467.07 C 1409.34 1471.99 1398.36 1472.94 1391.57 1472.03 C 1342.07 1465.43 1295.33 1435.32 1261.58 1399.44 C 1248.06 1384.82 1237.58 1367.94 1225.05 1353 C 1225.23 1378.58 1224.96 1405.13 1220.68 1430.29 C 1207.89 1504.93 1166.24 1570.42 1112.6 1622.47 C 1065.43 1668.24 1006.03 1706.41 964.878 1757.5 C 922.757 1808.82 909.185 1867.73 909.282 1932.58 C 909.291 1938.75 911.011 1967.15 910.04 1969.92 C 904.519 1971.16 894.61 1964.13 890.235 1960.67 C 859.643 1936.48 841.279 1896.67 835.541 1858.73 C 820.57 1844.91 822.65 1829.87 832.899 1813.67 C 833.348 1782.11 838.821 1763.17 849.418 1734.27 C 885.07 1634.93 978.508 1583.09 1043.08 1505.65 C 1067.4 1476.49 1083 1448.31 1059.54 1412.41 C 1036.06 1412.72 1008.28 1420.69 988.449 1433.4 C 984.992 1442.03 982.174 1452.61 978.691 1461.73 C 969.193 1486.61 958.746 1504.89 943.414 1526.14 C 945.355 1551.4 932.572 1565.1 908.243 1568.44 C 898.797 1580.04 892.884 1595.02 886.687 1608.42 C 876.481 1630.48 865.544 1636.34 844.659 1645.65 C 835.051 1649.93 829.429 1653.25 818.552 1657.05 C 800.166 1681.67 767.596 1689.13 739.33 1695.11 L 738.398 1696.14 C 721.267 1714.74 695.651 1722.55 675.638 1703.36 C 656.843 1704.86 632.065 1703.31 613.865 1699.03 C 589.22 1712.9 565.824 1706.73 560.394 1677.27 C 545.303 1670.76 536.959 1666.95 523.087 1657.95 C 514.936 1662.58 505.589 1663.51 497.022 1659.26 C 490.559 1656.04 485.637 1650.39 483.335 1643.55 C 480.251 1634.33 481.913 1628.46 485.784 1620.17 C 474.323 1605.37 469.979 1596.89 465.803 1578.95 C 488.179 1593.14 508.394 1602.84 533.783 1610.93 C 613.427 1636.31 716.061 1612.46 762.527 1539.28 C 773.228 1522.43 778.298 1504.62 783.777 1485.51 L 772.146 1483.38 C 657.23 1461.38 579.652 1338.62 616.815 1225.62 C 637.823 1161.75 683.939 1133.16 736.211 1098.21 C 673.735 1100.77 615.967 1088.21 554.943 1077.83 C 471.108 1064.72 375.452 1069.33 311.088 1132.15 C 263.819 1178.27 236.171 1257.18 267.409 1319.92 C 284.904 1355.28 320.832 1374.85 360.581 1376.41 C 432.951 1379.26 527.666 1349.74 559.657 1440.58 C 565.573 1457.38 565.249 1483.97 551.69 1496.75 C 549.385 1498.92 548.617 1498.98 545.633 1498.93 C 538.604 1494.02 532.206 1474.87 526.142 1466.23 C 493.968 1419.72 422.652 1432.04 372.781 1436.56 C 240.332 1448.57 148.055 1353.19 168.948 1219.99 C 182.019 1136.66 229.272 1060.36 298.351 1009.42 C 277.738 984.664 265.799 968.622 253.696 937.954 C 226.52 868.563 227.702 791.004 256.681 722.402 C 302.742 613.364 426.228 524.723 545.373 575.092 C 551.309 572.256 557.499 569.936 564.016 569.007 C 657.821 555.647 704.542 649.729 752.318 710.691 C 801.402 773.323 877.85 828.256 960.328 812.715 C 986.824 807.722 1008.77 795.043 1024.01 772.492 C 1018.05 742.289 999.403 727.845 975.193 711.967 C 969.392 708.162 968.587 706.584 967.614 700.017 C 766.689 651.446 663.581 467.683 661.832 269.254 C 661.688 252.911 662.203 233.151 664.925 217.136 C 668.389 212.798 671.983 208.566 675.703 204.445 C 743.375 128.325 859.037 89.2897 958.515 83.4171 z" fill="rgb(34,44,88)" transform="translate(0,0)"></path>
<path d="M 793.28 149.588 C 910.58 93.7688 1025.24 96.3478 1145.88 139.127 C 1215.38 163.83 1279.94 200.671 1336.56 247.936 C 1346.14 255.987 1360.55 268.464 1369 277.537 C 1372.01 280.21 1373.94 281.963 1376.66 284.91 C 1384.3 291.906 1409.28 319.275 1416.22 320.493 L 1417.37 319.449 C 1417.46 313.098 1413.74 304.205 1410.39 298.868 L 1409.53 296.051 C 1412.96 292.862 1427.59 293.183 1432.57 293.555 C 1507.39 299.138 1520.33 359.791 1497.36 418.978 C 1482.45 462.602 1488.86 492.32 1508.09 534.088 C 1524.45 569.627 1554.51 590.699 1573.02 623.63 C 1578.89 634.087 1573.76 647.326 1567.59 656.911 C 1552.8 626.489 1542.47 613.899 1516.14 591.339 C 1560.77 655.392 1576.54 741.842 1555.42 817.249 C 1551.15 832.47 1545.41 847.223 1536.92 860.626 C 1480.39 835.574 1437.14 804.173 1391.02 762.91 C 1379.13 752.279 1360.58 735.373 1350.68 723.001 C 1369.4 703.1 1378.04 683.663 1384.22 657.151 C 1373.84 676.319 1366 689.258 1350.22 704.616 C 1290.05 763.193 1188.82 733.928 1135.77 680.16 C 1165.76 729.065 1271.2 776.809 1327.55 744.79 C 1331.81 742.366 1336.56 738.508 1340.38 735.358 C 1374.87 783.477 1435.83 830.337 1486.38 860.381 C 1497.76 867.141 1510.05 872.766 1521.84 878.729 C 1492.19 957.959 1531.72 1023.04 1588.16 1076.99 C 1606.7 1094.65 1626.21 1111.25 1646.61 1126.71 C 1726.89 1188.09 1837.98 1255.34 1858.69 1361.33 C 1865.43 1394.97 1862.57 1429.83 1850.44 1461.92 C 1842.12 1484.52 1826.55 1515.76 1805.6 1529.28 C 1804.51 1521.97 1803.1 1513.77 1802.42 1506.49 C 1804.71 1504.18 1808.23 1500.86 1810.07 1498.33 C 1807.36 1498.89 1805.03 1501.18 1802.75 1502.98 C 1802.39 1500.44 1803.32 1498.99 1804.33 1496.61 C 1802.91 1497.14 1802.01 1497.35 1800.54 1497.74 C 1798.22 1494.25 1786.38 1454.29 1784.07 1447.57 C 1782.58 1443.21 1783.23 1441.87 1785.22 1438.46 C 1788.36 1432.95 1788.29 1430.28 1789.07 1424.1 C 1790.25 1379.24 1778.54 1348.35 1747.21 1314.76 C 1772.91 1310.58 1776.22 1295.62 1764.44 1273.69 C 1758.4 1262.45 1736.23 1246.11 1723.9 1255.99 C 1709.28 1267.71 1717.82 1283.1 1726.8 1294.66 C 1714.61 1285.09 1703.04 1276.27 1689.95 1267.92 C 1679.72 1261.4 1665.59 1254.97 1656.63 1247.38 L 1652.54 1242.97 L 1647.69 1244.62 C 1646.59 1243.56 1645.47 1242.51 1644.35 1241.47 C 1638.32 1239.76 1588.48 1206.63 1581.08 1201.14 C 1574.4 1195.86 1570.73 1192.18 1564.71 1186.04 C 1533.04 1150.72 1514.06 1132.06 1489.23 1089.3 C 1521.89 1119.83 1559.49 1127.36 1599.32 1145.16 C 1621.6 1155.11 1644.87 1166.62 1666.4 1178.07 L 1666.21 1174.23 C 1663.22 1171.65 1655.74 1167.54 1652.15 1165.68 C 1634.12 1156.34 1613.99 1144.95 1595.74 1136.84 C 1528.18 1106.84 1464.65 1080.68 1455.46 997.614 C 1451.53 962.146 1453.27 948.179 1460.37 912.262 C 1407.01 1028.07 1488.23 1150.35 1574.63 1222.34 C 1582.39 1228.81 1611 1251.44 1615.31 1257.23 C 1626.93 1266.66 1636.78 1277.5 1647.52 1287.78 C 1679.27 1318.17 1710.07 1354.74 1733.12 1392.38 C 1778.2 1470.59 1795.74 1553.26 1771.99 1641.77 C 1757.96 1695.75 1728.39 1744.43 1686.96 1781.77 C 1681.6 1786.52 1669.03 1797.23 1663.35 1800.62 C 1657.99 1804.94 1654.36 1807.17 1648.52 1810.79 C 1646.62 1812.59 1639.14 1816.73 1636.7 1818.07 C 1569.95 1854.66 1481.95 1859.85 1413.92 1823.72 C 1378.98 1805.17 1346.44 1773.81 1334.64 1735.32 C 1322.96 1702.16 1335.8 1662.8 1369.64 1648.73 C 1407.79 1632.86 1416 1632.96 1436.23 1594.81 C 1436.1 1657.94 1376.55 1645.82 1356.31 1683.65 C 1331.2 1730.55 1381.4 1782.78 1418.3 1801.5 C 1467.84 1826.17 1525.16 1830.13 1577.62 1812.53 C 1626.61 1796.09 1667.64 1757.26 1689.57 1710.99 C 1743.16 1597.97 1696.4 1468.48 1614.15 1383.1 C 1568.83 1336.05 1515.73 1299.89 1469.07 1255.51 C 1439.88 1227.73 1414.05 1196.63 1392.09 1162.84 C 1364.04 1119.42 1328.94 1044.48 1353.82 994.266 C 1339.4 1008.3 1337.23 1019.05 1336.09 1038 C 1329.44 1043.08 1311.63 1057.31 1303.33 1054.59 C 1302.87 1051.71 1306.53 1042.91 1307.68 1039.67 C 1314.83 1019.15 1323.98 999.394 1335 980.677 C 1352.23 951.557 1372.49 932.618 1379.05 897.129 L 1378.12 897.057 C 1377 893.686 1379.12 891.938 1378.78 886.935 L 1377.21 886.709 C 1375.98 890.721 1375.22 892.408 1373.43 896.241 L 1371.45 896.636 C 1364.59 906.344 1358.09 919.907 1351.18 930.582 C 1303.48 1004.24 1257.93 1097.59 1258.32 1186.26 C 1258.77 1286.99 1294.47 1381.46 1376.79 1442.48 C 1381.61 1446.06 1387.01 1450.09 1391.24 1454.27 C 1316.14 1428.6 1256.82 1371.3 1223.43 1300.35 C 1210.34 1272.55 1199.9 1248.37 1193.18 1217.93 C 1178.29 1150.53 1185.31 1069.47 1207.08 1004.48 C 1233.76 924.888 1265.86 904.355 1252.92 813.915 C 1248.12 838.634 1244.68 867.257 1233.88 890.144 C 1200.69 960.531 1147.99 1025.2 1083.6 1069.15 C 1015.88 1115.37 942.657 1134.27 865.893 1158.57 C 822.329 1172.36 766.972 1201 733.207 1231.86 C 751.05 1197.49 763.969 1193.24 786.531 1167.8 C 752.383 1190.55 733.381 1210.28 718.72 1247.85 C 713.915 1260.16 705.502 1271.39 704.028 1285.62 C 695.477 1329.14 713.748 1362.89 740.868 1395.07 C 719.935 1383.48 707.855 1372.06 695.183 1351.37 C 692.962 1347.74 688.415 1338.64 686.564 1335.99 L 683.627 1336.29 C 709.753 1396.16 752.414 1416.55 816.069 1422.69 C 867.416 1427.64 911.008 1398.45 955.02 1377.03 C 1007.95 1351.22 1099.75 1329.54 1112.14 1412.19 C 1101.2 1404.22 1091.27 1397.91 1077.91 1394.79 C 1037 1385.25 993.306 1400.5 956.1 1417.28 C 896.922 1443.97 844.256 1463.18 778.323 1448.5 L 777.948 1451.76 C 824.36 1466.24 875.751 1459.12 919.674 1440.1 C 940.365 1431.14 962.129 1419.93 983.349 1412.98 C 969.915 1421.67 956.689 1428.18 943.081 1435.87 C 906.824 1457.11 876.753 1468.85 834.423 1470.97 C 724.477 1476.46 633.787 1398.08 630.097 1286.09 C 626.816 1186.54 719.999 1125.19 803.668 1094.97 C 849.895 1079.95 893.718 1065.02 937.284 1043.01 C 1013.21 1004.66 1082.86 935.971 1080.87 844.108 C 1076.16 854.033 1074.23 865.924 1070.52 876.352 C 1062.23 899.604 1048.31 921.755 1033.15 941.151 C 1000.09 983.457 953.346 1012.6 904.929 1034.41 C 792.013 1085.29 718.24 1084.35 598.041 1063.25 C 544.297 1053.82 490.65 1046.36 436.023 1053.14 C 375.097 1060.7 315.674 1088.7 277.607 1137.9 C 246.086 1178.65 226.865 1231.75 233.617 1283.56 C 237.06 1309.97 247.183 1334.99 264.95 1355.04 C 338.124 1437.58 453.961 1362.94 515.46 1410.69 C 534.198 1425.24 541.969 1444.53 544.953 1467.48 C 502.832 1388.18 426.203 1418.32 354.513 1416.89 C 161 1413.03 151.242 1212.12 249.831 1088.05 C 340.249 974.262 457.592 953.241 595.346 965.37 C 673.429 972.245 752.067 988.505 830.746 979.099 C 897.077 971.765 966.482 944.783 1009.07 890.852 C 1036.44 856.528 1049.08 812.739 1044.19 769.105 C 1039.61 730.781 1023.58 719.747 995.967 697.792 C 1002.27 691.077 1009.57 684.644 1015.48 677.439 C 1032.1 657.158 1043.79 631.083 1047.72 605.224 C 1046.44 608.455 1045.09 611.656 1043.66 614.824 C 1033.94 635.954 1009.57 670.278 986.834 678.768 C 914.498 665.081 848.479 628.499 798.524 574.422 C 730.456 500.295 697.042 403.491 685.669 304.195 C 683.043 281.264 684.339 252.88 685.295 229.799 C 704.554 202.086 760.939 162.731 793.28 149.588 z" fill="rgb(234,148,157)" transform="translate(0,0)"></path>
<path d="M 1489.23 1089.3 C 1521.89 1119.83 1559.49 1127.36 1599.32 1145.16 C 1621.6 1155.11 1644.87 1166.62 1666.4 1178.07 C 1710.39 1202.05 1750.58 1232.43 1785.66 1268.21 C 1807.53 1292.91 1830.24 1324.72 1839.63 1356.17 C 1851.57 1396.2 1840.57 1443.01 1817.53 1476.98 C 1814.33 1481.7 1806.12 1492.53 1804.33 1496.61 C 1802.91 1497.14 1802.01 1497.35 1800.54 1497.74 C 1798.22 1494.25 1786.38 1454.29 1784.07 1447.57 C 1782.58 1443.21 1783.23 1441.87 1785.22 1438.46 C 1788.36 1432.95 1788.29 1430.28 1789.07 1424.1 C 1790.25 1379.24 1778.54 1348.35 1747.21 1314.76 C 1772.91 1310.58 1776.22 1295.62 1764.44 1273.69 C 1758.4 1262.45 1736.23 1246.11 1723.9 1255.99 C 1709.28 1267.71 1717.82 1283.1 1726.8 1294.66 C 1714.61 1285.09 1703.04 1276.27 1689.95 1267.92 C 1679.72 1261.4 1665.59 1254.97 1656.63 1247.38 L 1652.54 1242.97 L 1647.69 1244.62 C 1646.59 1243.56 1645.47 1242.51 1644.35 1241.47 C 1638.32 1239.76 1588.48 1206.63 1581.08 1201.14 C 1574.4 1195.86 1570.73 1192.18 1564.71 1186.04 C 1533.04 1150.72 1514.06 1132.06 1489.23 1089.3 z" fill="rgb(247,235,223)" transform="translate(0,0)"></path>
<path d="M 1644.35 1241.47 C 1640.3 1233.23 1636.01 1221.75 1639.44 1213.42 C 1649.87 1188.12 1683.26 1203 1690.46 1223.02 C 1691.99 1227.27 1692.86 1230.31 1693.76 1234.28 C 1686.77 1249.01 1674.03 1256.71 1659.1 1246.29 L 1656.63 1247.38 L 1652.54 1242.97 L 1647.69 1244.62 C 1646.59 1243.56 1645.47 1242.51 1644.35 1241.47 z" fill="rgb(14,20,61)" transform="translate(0,0)"></path>
<path d="M 1653.28 1235.88 C 1644.55 1218.58 1655.97 1205.13 1669.79 1216.8 L 1671.11 1216.86 C 1677.82 1223.65 1685.48 1232.2 1678.36 1241.82 C 1669.19 1249.97 1660.1 1242.82 1653.28 1235.88 z" fill="rgb(238,198,188)" transform="translate(0,0)"></path>
<path d="M 1669.79 1216.8 L 1671.11 1216.86 C 1677.82 1223.65 1685.48 1232.2 1678.36 1241.82 C 1676.27 1237.32 1677.59 1229.77 1672.84 1226.71 C 1671.02 1222.86 1670.86 1221.84 1667.66 1219.28 L 1669.79 1216.8 z" fill="rgb(246,220,206)" transform="translate(0,0)"></path>
<path d="M 1667.66 1219.28 C 1670.86 1221.84 1671.02 1222.86 1672.84 1226.71 C 1670.12 1224.48 1668.16 1222.54 1667.66 1219.28 z" fill="rgb(163,140,137)" transform="translate(0,0)"></path>
<path d="M 1652.54 1242.97 C 1638.14 1223.84 1651.53 1192.56 1673.12 1215.04 L 1672.29 1215.68 L 1671.11 1216.86 L 1669.79 1216.8 C 1655.97 1205.13 1644.55 1218.58 1653.28 1235.88 L 1651.84 1238.26 C 1654.37 1241.33 1656.14 1243.66 1659.1 1246.29 L 1656.63 1247.38 L 1652.54 1242.97 z" fill="rgb(207,203,205)" transform="translate(0,0)"></path>
<path d="M 1651.84 1238.26 C 1642.84 1219.48 1650.65 1203.65 1672.29 1215.68 L 1671.11 1216.86 L 1669.79 1216.8 C 1655.97 1205.13 1644.55 1218.58 1653.28 1235.88 L 1651.84 1238.26 z" fill="rgb(41,39,43)" transform="translate(0,0)"></path>
<path d="M 1567.75 1184.88 C 1564.63 1176.43 1564.56 1164.35 1574.57 1160.73 C 1592.89 1154.09 1620.86 1180.15 1609.41 1198.69 C 1603.59 1208.11 1595.89 1209.51 1587.15 1203.2 C 1585.33 1201.87 1583.54 1200.51 1581.77 1199.11 L 1581.08 1201.14 C 1574.4 1195.86 1570.73 1192.18 1564.71 1186.04 L 1567.75 1184.88 z" fill="rgb(14,20,61)" transform="translate(0,0)"></path>
<path d="M 1564.71 1186.04 L 1567.75 1184.88 C 1573.37 1191.49 1575.3 1193.52 1581.77 1199.11 L 1581.08 1201.14 C 1574.4 1195.86 1570.73 1192.18 1564.71 1186.04 z" fill="rgb(255,255,255)" transform="translate(0,0)"></path>
<path d="M 1580.01 1164.56 C 1590.1 1166.74 1603.27 1174.85 1603.89 1186.29 C 1604.35 1194.89 1601.17 1196.14 1595.29 1200.95 C 1577.48 1202.09 1560.12 1177.91 1580.01 1164.56 z" fill="rgb(238,198,188)" transform="translate(0,0)"></path>
<path d="M 1790.82 1424.04 C 1793.09 1414.31 1800.94 1407.64 1810.63 1410.58 C 1835.74 1418.22 1826.54 1468.73 1798.67 1460.82 C 1791.05 1458.65 1786.47 1448 1787.05 1440.06 L 1785.22 1438.46 C 1788.36 1432.95 1788.29 1430.28 1789.07 1424.1 L 1790.82 1424.04 z" fill="rgb(14,20,61)" transform="translate(0,0)"></path>
<path d="M 1789.07 1424.1 L 1790.82 1424.04 C 1790.6 1430 1789.41 1434.57 1787.05 1440.06 L 1785.22 1438.46 C 1788.36 1432.95 1788.29 1430.28 1789.07 1424.1 z" fill="rgb(207,203,205)" transform="translate(0,0)"></path>
<path d="M 1794.33 1424.75 C 1794.55 1422.79 1794.91 1420.53 1796.96 1419.62 C 1820.39 1409.22 1828.64 1434.78 1813.4 1450.81 C 1808.12 1459.35 1798.04 1456.91 1793.53 1449.02 C 1788.86 1440.83 1792.23 1433.14 1794.33 1424.75 z" fill="rgb(238,198,188)" transform="translate(0,0)"></path>
<path d="M 1794.33 1424.75 C 1794.55 1422.79 1794.91 1420.53 1796.96 1419.62 C 1820.39 1409.22 1828.64 1434.78 1813.4 1450.81 L 1811.85 1448.77 L 1813.58 1447.69 C 1818.26 1433.27 1817.98 1421.07 1800.23 1420.5 C 1797.61 1422.82 1797.2 1423.03 1794.33 1424.75 z" fill="rgb(207,203,205)" transform="translate(0,0)"></path>
<path d="M 1800.23 1420.5 C 1805.96 1420 1810.29 1418.94 1814.82 1423 C 1817.26 1425.21 1818.7 1428.32 1818.82 1431.62 C 1818.98 1437.88 1816.94 1442.62 1813.58 1447.69 C 1818.26 1433.27 1817.98 1421.07 1800.23 1420.5 z" fill="rgb(10,8,15)" transform="translate(0,0)"></path>
<path d="M 1787.81 1323.11 C 1799.27 1321.42 1809.07 1325.15 1816 1334.38 C 1828.41 1350.91 1834.39 1370.33 1816.46 1384.48 C 1803.3 1386.77 1792.84 1380.66 1786.55 1369.26 C 1778.05 1353.88 1768.41 1333.83 1787.81 1323.11 z" fill="url(#Gradient6)" transform="translate(0,0)"></path>
<path d="M 1819.74 1366.11 C 1818.54 1378.28 1810.04 1382.34 1799.73 1376.38 C 1788.23 1369.73 1770.36 1336.28 1791.87 1331.43 C 1799.53 1329.71 1812.05 1335.63 1813.33 1343.93 C 1813.9 1351.73 1819.59 1354.76 1819.74 1366.11 z" fill="rgb(238,198,188)" transform="translate(0,0)"></path>
<path d="M 1819.74 1366.11 C 1818.54 1378.28 1810.04 1382.34 1799.73 1376.38 C 1788.23 1369.73 1770.36 1336.28 1791.87 1331.43 C 1799.53 1329.71 1812.05 1335.63 1813.33 1343.93 C 1804.51 1338.88 1799.25 1330.05 1788.6 1339.61 L 1789.26 1340.92 C 1784.47 1351.5 1789.36 1355.27 1792.41 1365.2 C 1794.49 1369.24 1796.53 1370.78 1800.7 1372.92 C 1810.93 1377.77 1814.78 1375.6 1819.74 1366.11 z" fill="rgb(255,255,255)" transform="translate(0,0)"></path>
<path d="M 1792.41 1365.2 C 1786.24 1356.93 1782.95 1348.86 1788.6 1339.61 L 1789.26 1340.92 C 1784.47 1351.5 1789.36 1355.27 1792.41 1365.2 z" fill="rgb(123,107,105)" transform="translate(0,0)"></path>
<path d="M 1788.6 1339.61 C 1799.25 1330.05 1804.51 1338.88 1813.33 1343.93 C 1813.9 1351.73 1819.59 1354.76 1819.74 1366.11 C 1814.78 1375.6 1810.93 1377.77 1800.7 1372.92 C 1804 1373.52 1809.38 1374.83 1812.12 1372.94 C 1827.13 1362.56 1807.66 1329.76 1789.26 1340.92 L 1788.6 1339.61 z" fill="rgb(41,39,43)" transform="translate(0,0)"></path>
<path d="M 793.28 149.588 C 910.58 93.7688 1025.24 96.3478 1145.88 139.127 C 1215.38 163.83 1279.94 200.671 1336.56 247.936 C 1346.14 255.987 1360.55 268.464 1369 277.537 L 1362 274.551 C 1355.98 270.747 1341.3 258.604 1334.76 253.673 C 1316.73 239.939 1298.12 226.997 1278.97 214.882 C 1140.55 128.458 981.087 86.1009 822.451 140.457 C 817.107 142.288 796.907 150.569 793.28 149.588 z" fill="rgb(255,255,255)" transform="translate(0,0)"></path>
<path d="M 1614.56 1264.24 C 1620.6 1265.63 1673.36 1318.94 1680.55 1327.63 C 1695.98 1346.26 1714.62 1369.52 1727.27 1390.45 C 1727.97 1391.59 1731.89 1392.24 1733.12 1392.38 C 1778.2 1470.59 1795.74 1553.26 1771.99 1641.77 C 1757.96 1695.75 1728.39 1744.43 1686.96 1781.77 C 1681.6 1786.52 1669.03 1797.23 1663.35 1800.62 C 1663.69 1797.67 1663.94 1798.09 1665.91 1795.36 C 1738.57 1736.4 1769.26 1666.44 1772.03 1574.66 C 1775.08 1473.39 1730.97 1393.72 1665.57 1319.59 C 1651.68 1303.84 1624.29 1280.69 1614.56 1264.24 z" fill="rgb(255,255,255)" transform="translate(0,0)"></path>
<path d="M 1410.39 298.868 L 1409.53 296.051 C 1412.96 292.862 1427.59 293.183 1432.57 293.555 C 1507.39 299.138 1520.33 359.791 1497.36 418.978 C 1495.1 415.413 1496.92 407.947 1497.77 403.986 C 1505.58 367.478 1499.16 330.41 1463.95 311.104 C 1446.1 301.317 1430.56 300.307 1410.39 298.868 z" fill="rgb(255,255,255)" transform="translate(0,0)"></path>
<path d="M 1786.98 1266.47 C 1818.03 1300.59 1844.99 1342.03 1848.04 1389.27 C 1850.23 1423.12 1836.11 1475.44 1810.07 1498.33 C 1807.36 1498.89 1805.03 1501.18 1802.75 1502.98 C 1802.39 1500.44 1803.32 1498.99 1804.33 1496.61 C 1806.12 1492.53 1814.33 1481.7 1817.53 1476.98 C 1840.57 1443.01 1851.57 1396.2 1839.63 1356.17 C 1830.24 1324.72 1807.53 1292.91 1785.66 1268.21 L 1786.98 1266.47 z" fill="rgb(14,20,61)" transform="translate(0,0)"></path>
<path d="M 1666.21 1174.23 C 1704.29 1194.43 1758.67 1234.46 1786.98 1266.47 L 1785.66 1268.21 C 1750.58 1232.43 1710.39 1202.05 1666.4 1178.07 L 1666.21 1174.23 z" fill="rgb(10,8,15)" transform="translate(0,0)"></path>
<path d="M 683.627 1336.29 C 683.489 1335.92 683.351 1335.55 683.213 1335.18 L 682.557 1333.32 C 678.619 1322.43 673.799 1304.06 675.166 1292.58 C 679.338 1295.65 676.035 1297.34 676.707 1303.53 C 677.838 1313.97 682.842 1326.22 686.564 1335.99 L 683.627 1336.29 z" fill="rgb(39,15,47)" transform="translate(0,0)"></path>
<path d="M 1371.45 896.636 C 1374.31 889.291 1377.9 878.772 1380.83 871.919 C 1381.05 881.535 1381.37 887.627 1379.05 897.129 L 1378.12 897.057 C 1377 893.686 1379.12 891.938 1378.78 886.935 L 1377.21 886.709 C 1375.98 890.721 1375.22 892.408 1373.43 896.241 L 1371.45 896.636 z" fill="rgb(39,15,47)" transform="translate(0,0)"></path>
<path d="M 1665.91 1795.36 C 1663.94 1798.09 1663.69 1797.67 1663.35 1800.62 C 1657.99 1804.94 1654.36 1807.17 1648.52 1810.79 C 1650.36 1804.9 1660.36 1799.25 1665.91 1795.36 z" fill="rgb(238,198,188)" transform="translate(0,0)"></path>
<path d="M 755.9 1441.94 C 763.658 1444.44 770.39 1446.67 778.323 1448.5 L 777.948 1451.76 C 768.829 1449.12 763.949 1446.61 755.9 1441.94 z" fill="rgb(25,17,31)" transform="translate(0,0)"></path>
<path d="M 1362 274.551 L 1369 277.537 C 1372.01 280.21 1373.94 281.963 1376.66 284.91 C 1372.17 285.015 1365.48 277.77 1362 274.551 z" fill="rgb(246,220,206)" transform="translate(0,0)"></path>
<path d="M 1186.11 457.398 C 1213.07 453.868 1251.66 463.916 1276 475.245 C 1313.13 492.427 1345.77 521.288 1359.33 560.904 C 1375.59 608.388 1367.33 655.447 1315.96 673.224 C 1235.1 690.68 1171.98 612.49 1171.78 537.003 C 1171.72 512.169 1177.57 493.577 1190.09 472.311 C 1177.46 470.265 1162.46 469.197 1150.54 465.925 C 1162.94 460.551 1172.84 458.774 1186.11 457.398 z" fill="rgb(34,44,88)" transform="translate(0,0)"></path>
<path d="M 1217.22 476.443 C 1227.8 477.708 1243.98 482.961 1253.82 486.908 C 1250.6 491.482 1247.13 496.288 1244.69 501.304 C 1219.96 552.235 1254.17 629.743 1314.53 632.495 C 1320.29 632.757 1325.93 631.402 1331.13 629.067 C 1339.64 625.245 1342.69 620.234 1347.47 612.794 C 1345.83 619.902 1345.16 622.622 1342.41 629.357 C 1324.5 659.712 1285.37 653.496 1259.37 638.55 C 1231.78 622.507 1211.73 596.112 1203.68 565.225 C 1195.19 532.875 1200.45 504.796 1217.22 476.443 z" fill="rgb(255,255,255)" transform="translate(0,0)"></path>
<path d="M 1268.56 513.083 C 1296.23 515.412 1308.89 552.904 1280.74 560.711 C 1252.62 559.199 1239.23 523.194 1268.56 513.083 z" fill="rgb(255,255,255)" transform="translate(0,0)"></path>
<path d="M 1138.35 475.147 C 1117.13 469.375 1102.1 460.442 1090.78 441.283 C 1070.64 407.183 1084.24 368.082 1118.19 349.501 C 1147.71 333.339 1181.94 337.377 1213.38 345.866 C 1272.19 362.527 1338.67 412.504 1367.94 466.78 C 1369.17 469.009 1370.29 471.296 1371.3 473.631 C 1367.89 470.383 1362.43 464.709 1358.59 462.47 C 1354.5 462.451 1344.14 453.914 1340.51 451.18 C 1330.98 443.771 1321.37 436.355 1312.03 428.741 C 1268.21 393.013 1175.12 343.913 1121.23 378.534 C 1117.59 382.201 1117.2 382.762 1112.8 385.24 L 1111.4 384.702 C 1103.22 395.633 1100.06 412.77 1102.43 426.099 C 1107.12 452.39 1120.44 460.098 1138.35 475.147 z" fill="rgb(34,44,88)" transform="translate(0,0)"></path>
<path d="M 1123.79 372.263 C 1173.04 333.153 1269.79 381.672 1309.04 417.375 C 1320.82 428.094 1332.83 439.039 1344.82 449.436 L 1340.51 451.18 C 1330.98 443.771 1321.37 436.355 1312.03 428.741 C 1268.21 393.013 1175.12 343.913 1121.23 378.534 C 1121.6 377.015 1123.1 373.848 1123.79 372.263 z" fill="rgb(255,255,255)" transform="translate(0,0)"></path>
<path d="M 1344.82 449.436 C 1348.2 452.532 1355.9 459.261 1358.59 462.47 C 1354.5 462.451 1344.14 453.914 1340.51 451.18 L 1344.82 449.436 z" fill="rgb(255,255,255)" transform="translate(0,0)"></path>
<path d="M 1111.4 384.702 C 1115.19 378.723 1118.28 376.276 1123.79 372.263 C 1123.1 373.848 1121.6 377.015 1121.23 378.534 C 1117.59 382.201 1117.2 382.762 1112.8 385.24 L 1111.4 384.702 z" fill="rgb(246,220,206)" transform="translate(0,0)"></path>
<path d="M 573.495 984.817 C 563.131 985.783 545.532 984.797 534.573 984.75 C 409.979 984.212 299.856 1035.97 231.565 1142.95 L 231.445 1141.44 C 247.814 1105.25 288.094 1064.81 319.687 1041.52 C 379.602 997.353 456.945 978.785 530.574 979.024 C 547.224 979.078 565.327 979.157 581.891 981.822 C 578.293 984.933 578.753 983.07 573.495 984.817 z" fill="rgb(14,20,61)" transform="translate(0,0)"></path>
<path d="M 1117.43 539.771 L 1118.3 536.124 C 1119.25 540.577 1119 547.59 1118.86 552.294 C 1119.63 597.117 1130.36 633.979 1163.47 666.435 C 1184.04 686.597 1214.31 702.995 1242.73 708.425 L 1242.05 712.175 C 1238.06 712.102 1234.63 711.306 1230.77 710.77 C 1157 700.538 1108.08 637.934 1113.88 564.048 C 1114.52 555.914 1115.96 547.961 1117.43 539.771 z" fill="rgb(34,44,88)" transform="translate(0,0)"></path>
<path d="M 1117.43 539.771 L 1118.3 536.124 C 1119.25 540.577 1119 547.59 1118.86 552.294 C 1118.12 549.046 1117.76 543.27 1117.43 539.771 z" fill="rgb(100,58,72)" transform="translate(0,0)"></path>
<path d="M 1126.95 546.391 L 1129.83 543.482 C 1137.31 612.152 1170.48 669.462 1240.87 687.331 C 1170.02 684.067 1128.22 611.14 1126.95 546.391 z" fill="url(#Gradient5)" transform="translate(0,0)"></path>
<path d="M 1245.61 242.065 L 1247.15 242.23 L 1246.42 243.41 C 1210.27 259.247 1173.17 298.256 1156.22 333.563 L 1155.51 334.432 C 1154.31 328.307 1163.5 310.452 1166.7 304.905 C 1183.33 276.146 1213.1 250.541 1245.61 242.065 z" fill="url(#Gradient4)" transform="translate(0,0)"></path>
<path d="M 1075.88 478.038 C 1083.15 510.12 1084.66 539.814 1078.19 572.411 C 1077.95 570.084 1077.7 568.048 1077.35 565.735 L 1075.4 565.03 C 1077.93 533.207 1077.26 510.658 1073.1 478.766 L 1075.88 478.038 z" fill="rgb(14,20,61)" transform="translate(0,0)"></path>
<path d="M 581.891 981.822 C 594.014 983.05 614.077 985.261 625.252 989.489 L 627.1 990.175 C 609.11 987.509 591.632 986.081 573.495 984.817 C 578.753 983.07 578.293 984.933 581.891 981.822 z" fill="rgb(39,15,47)" transform="translate(0,0)"></path>
<path d="M 1075.4 565.03 L 1077.35 565.735 C 1077.7 568.048 1077.95 570.084 1078.19 572.411 C 1076.11 584.499 1074.32 591.804 1071.52 603.69 C 1070.61 597.392 1074.69 573.779 1075.4 565.03 z" fill="rgb(25,17,31)" transform="translate(0,0)"></path>
<path d="M 1126.95 546.391 C 1126.83 532.908 1126.82 527.691 1130.04 514.812 C 1129.79 524.367 1129.72 533.925 1129.83 543.482 L 1126.95 546.391 z" fill="rgb(39,15,47)" transform="translate(0,0)"></path>
<path d="M 1242.73 708.425 C 1246.3 709.052 1250.63 709.947 1254.14 710.397 L 1270.81 711.222 C 1262.44 712.452 1251.04 714.198 1242.75 712.171 L 1242.05 712.175 L 1242.73 708.425 z" fill="rgb(100,58,72)" transform="translate(0,0)"></path>
<path d="M 1242.73 708.425 C 1246.3 709.052 1250.63 709.947 1254.14 710.397 L 1254.42 711.545 C 1249.96 712.18 1247.29 712.144 1242.75 712.171 L 1242.05 712.175 L 1242.73 708.425 z" fill="rgb(39,15,47)" transform="translate(0,0)"></path>
<path d="M 1073.1 478.766 C 1072.48 474.449 1072 472.874 1072.68 468.664 C 1074.66 470.959 1075.11 474.801 1075.88 478.038 L 1073.1 478.766 z" fill="rgb(25,17,31)" transform="translate(0,0)"></path>
<path d="M 628.814 684.439 C 631.752 686.195 638.357 692.782 641.278 695.589 C 672.457 725.556 692.843 762.463 717.297 797.612 C 729.147 814.934 741.992 831.554 755.767 847.388 C 799.729 897.526 848.539 927.896 916.057 932.242 C 815.827 982.693 675.429 946.703 569.161 940.483 C 518.028 937.49 484.645 939.636 434.798 948.68 C 432.05 949.247 429.298 949.677 426.53 950.136 C 395.318 918.786 376.246 886.563 374.642 842.084 C 400.621 839.607 398.794 812.823 384.174 797.285 C 391.478 776.835 400.048 760.709 415.026 744.437 C 423.683 735.033 428.826 735.346 437.575 729.082 C 454.391 717.042 478.162 704.051 498.838 702.166 C 507.755 701.352 520.534 708.437 526.613 714.884 C 533.201 721.872 538.159 733.676 537.059 743.41 C 531.691 782.439 487.414 801.345 461.052 824.184 C 434.654 847.053 470.03 851.745 487.274 850.059 C 530.139 845.87 568.049 827.669 595.349 793.972 C 622.504 760.454 632.461 726.794 628.814 684.439 z" fill="rgb(255,255,255)" transform="translate(0,0)"></path>
<path d="M 1100.5 1086.56 C 1117.41 1072.05 1136.5 1058.24 1154.37 1043.12 C 1138.15 1129.11 1153.62 1211.82 1161.65 1298.09 C 1168.22 1368.72 1174.73 1409.95 1150 1479.29 C 1100.87 1617.04 943.333 1666.5 896.9 1806.06 C 880.125 1856.11 878.833 1886.47 890.816 1937.88 C 876.022 1920.76 859.365 1882.55 853.872 1860.21 C 875.562 1849.17 876.007 1817.62 851.502 1810.11 L 850.237 1809.71 C 849.982 1809.64 849.727 1809.57 849.472 1809.49 C 853.029 1781.73 859.343 1770.77 863.6 1748.59 C 866.53 1738.63 868.719 1734.52 875.808 1727.16 C 875.331 1723.13 875.187 1725.16 877.047 1720.93 C 878.259 1707.95 907.503 1670.62 916.702 1660.19 C 918.169 1658.11 923.501 1652.55 925.467 1650.39 C 929.5 1645.62 933.855 1640.58 938.339 1636.21 C 974.537 1600.95 1016.91 1567.59 1049.31 1529.07 L 1054.55 1522.54 C 1062.26 1513.41 1069.86 1504.62 1076.47 1494.58 C 1079.87 1489.43 1082.77 1478.57 1086.2 1475.61 C 1086.74 1474.64 1086.4 1475.36 1086.68 1473.26 C 1086.96 1470.36 1088.85 1464.01 1089.55 1460.25 C 1093.85 1453.06 1094.75 1450.47 1095.82 1442.18 L 1096.74 1442.11 C 1109.83 1446.25 1112.83 1449.21 1121.04 1436.64 L 1124.76 1435.55 C 1133.58 1432.98 1139.3 1429.64 1144.68 1421.69 C 1149.37 1414.67 1150.99 1406.03 1149.15 1397.78 C 1146.81 1387.63 1138.53 1378.32 1127.64 1377.94 C 1117.26 1377.58 1116.88 1366.85 1110.33 1360.17 C 1105.08 1354.82 1100.57 1351.85 1094.36 1347.78 C 1094.14 1340.01 1094.19 1335.06 1092.58 1327.51 C 1091.39 1321.95 1089.29 1309.99 1089.01 1304.75 C 1079.58 1253.82 1068.02 1192.1 1078.61 1140.33 C 1116.55 1176.99 1151.37 1090.4 1100.5 1086.56 z" fill="rgb(255,255,255)" transform="translate(0,0)"></path>
<path d="M 1090.83 1302.25 C 1093.98 1279.31 1119.28 1269.05 1134.78 1286.78 C 1147.95 1301.84 1147.21 1330.11 1128.98 1340.82 C 1116.75 1348 1103.91 1343.87 1097.26 1331.91 C 1095.71 1329.07 1094.5 1326.06 1093.63 1322.95 L 1092.58 1327.51 C 1091.39 1321.95 1089.29 1309.99 1089.01 1304.75 L 1090.83 1302.25 z" fill="rgb(14,20,61)" transform="translate(0,0)"></path>
<path d="M 1090.83 1302.25 C 1091.24 1311.15 1093.17 1316.66 1093.63 1322.95 L 1092.58 1327.51 C 1091.39 1321.95 1089.29 1309.99 1089.01 1304.75 L 1090.83 1302.25 z" fill="rgb(106,104,130)" transform="translate(0,0)"></path>
<path d="M 1104.5 1290.09 C 1132.61 1272.46 1148.6 1318.95 1123.4 1333.07 C 1122.37 1333.64 1121.33 1334.17 1120.27 1334.66 C 1097.12 1337.83 1089.34 1306.26 1104.5 1290.09 z" fill="rgb(238,198,188)" transform="translate(0,0)"></path>
<path d="M 1104.5 1290.09 C 1104.56 1292.28 1104.92 1291.54 1104.08 1293.17 C 1102.99 1307.8 1102.92 1312.99 1111.34 1326.41 C 1112.12 1327.66 1111.95 1327.48 1112.53 1329.12 C 1115.44 1329.84 1117 1329.57 1118.16 1331.42 L 1115.84 1333.42 C 1117.59 1333.98 1118.46 1334.25 1120.27 1334.66 C 1097.12 1337.83 1089.34 1306.26 1104.5 1290.09 z" fill="rgb(238,198,188)" transform="translate(0,0)"></path>
<path d="M 1112.53 1329.12 C 1103.36 1324.28 1097.91 1300.48 1104.08 1293.17 C 1102.99 1307.8 1102.92 1312.99 1111.34 1326.41 C 1112.12 1327.66 1111.95 1327.48 1112.53 1329.12 z" fill="rgb(163,140,137)" transform="translate(0,0)"></path>
<path d="M 1056.45 1524.43 C 1063.31 1518.84 1070.98 1514.06 1080.35 1514.95 C 1085.62 1515.41 1090.45 1518.08 1093.63 1522.31 C 1109.5 1543.38 1081.01 1577.16 1058.5 1573.01 C 1040.26 1569.64 1041.78 1545.42 1050.48 1531.28 L 1049.31 1529.07 L 1054.55 1522.54 L 1056.45 1524.43 z" fill="rgb(14,20,61)" transform="translate(0,0)"></path>
<path d="M 1049.31 1529.07 L 1054.55 1522.54 L 1056.45 1524.43 L 1050.48 1531.28 L 1049.31 1529.07 z" fill="rgb(255,255,255)" transform="translate(0,0)"></path>
<path d="M 1075.26 1522.7 C 1079.33 1522.87 1084.8 1523.6 1087.01 1527.31 C 1098.38 1546.41 1079.09 1555.3 1069.88 1563.07 C 1043.62 1572.95 1045.81 1527.02 1075.26 1522.7 z" fill="rgb(238,198,188)" transform="translate(0,0)"></path>
<path d="M 1069.88 1563.07 C 1043.62 1572.95 1045.81 1527.02 1075.26 1522.7 C 1063.77 1533.59 1053.96 1529.09 1055.77 1551.77 C 1060.9 1559.51 1061.06 1560.26 1069.88 1563.07 z" fill="rgb(255,255,255)" transform="translate(0,0)"></path>
<path d="M 1086.68 1473.26 C 1094.4 1458.94 1108.49 1447.44 1125.05 1456.46 C 1130.54 1459.4 1134.58 1464.46 1136.23 1470.46 C 1144.89 1501.77 1090.46 1533.4 1085.49 1486.45 C 1085.03 1482.13 1085.53 1479.8 1086.2 1475.61 C 1086.74 1474.64 1086.4 1475.36 1086.68 1473.26 z" fill="rgb(14,20,61)" transform="translate(0,0)"></path>
<path d="M 1110.52 1460.11 C 1137.79 1460.4 1133.23 1492.66 1109.16 1502.08 C 1086.62 1506.59 1082.07 1468.92 1110.52 1460.11 z" fill="rgb(238,198,188)" transform="translate(0,0)"></path>
<path d="M 1101.6 1465.86 L 1102.33 1466.44 C 1096.73 1475.94 1090.87 1489.96 1103.77 1496.16 C 1099.85 1496.9 1101.78 1497.03 1097.81 1495.31 C 1091.6 1488.04 1094.9 1472.37 1101.6 1465.86 z" fill="rgb(123,107,105)" transform="translate(0,0)"></path>
<path d="M 926.921 1651.98 C 932.769 1647.72 943.376 1641.34 950.943 1643.62 C 976.338 1651.25 970.04 1677.55 949.882 1688.55 C 925.168 1702.03 906.969 1687.68 919.268 1661.13 L 916.702 1660.19 C 918.169 1658.11 923.501 1652.55 925.467 1650.39 L 926.921 1651.98 z" fill="rgb(14,20,61)" transform="translate(0,0)"></path>
<path d="M 925.467 1650.39 L 926.921 1651.98 C 924.156 1655.08 921.677 1657.72 919.268 1661.13 L 916.702 1660.19 C 918.169 1658.11 923.501 1652.55 925.467 1650.39 z" fill="rgb(247,235,223)" transform="translate(0,0)"></path>
<path d="M 926.971 1662.8 C 950.031 1623.54 981.001 1677.07 938.21 1686.92 C 936.61 1687.98 934.616 1687.8 932.452 1687.97 C 922.136 1684.28 923.592 1671 926.971 1662.8 z" fill="rgb(238,198,188)" transform="translate(0,0)"></path>
<path d="M 926.971 1662.8 L 927.933 1663.83 C 926.394 1670.86 925.899 1672.88 930.119 1678.96 C 934.018 1684.73 932.922 1685.61 938.21 1686.92 C 936.61 1687.98 934.616 1687.8 932.452 1687.97 C 922.136 1684.28 923.592 1671 926.971 1662.8 z" fill="rgb(246,220,206)" transform="translate(0,0)"></path>
<path d="M 927.933 1663.83 L 930.66 1660.93 C 931.303 1666.24 927.125 1668.19 930.119 1678.96 C 925.899 1672.88 926.394 1670.86 927.933 1663.83 z" fill="rgb(123,107,105)" transform="translate(0,0)"></path>
<path d="M 877.476 1726.94 C 883.619 1722.3 895.52 1719.89 900.357 1727.53 C 906.001 1736.45 899.179 1752.94 891.306 1758.55 C 875.379 1769.89 867.301 1752.99 870.083 1738.62 L 869.405 1737.68 C 868.332 1740.54 867.091 1743.44 866.506 1746.41 L 863.6 1748.59 C 866.53 1738.63 868.719 1734.52 875.808 1727.16 L 877.476 1726.94 z" fill="rgb(238,198,188)" transform="translate(0,0)"></path>
<path d="M 877.476 1726.94 L 877.89 1728.1 C 874.709 1731.36 872.301 1734.2 869.405 1737.68 C 868.332 1740.54 867.091 1743.44 866.506 1746.41 L 863.6 1748.59 C 866.53 1738.63 868.719 1734.52 875.808 1727.16 L 877.476 1726.94 z" fill="rgb(207,203,205)" transform="translate(0,0)"></path>
<path d="M 869.405 1737.68 C 872.301 1734.2 874.709 1731.36 877.89 1728.1 C 874.405 1737.5 873.738 1740.39 872.153 1750.36 C 871.557 1746.13 871.713 1742.62 871.742 1738.38 L 870.973 1737.86 L 870.083 1738.62 L 869.405 1737.68 z" fill="rgb(41,39,43)" transform="translate(0,0)"></path>
<path d="M 877.047 1720.93 C 882.356 1718.56 891.802 1714.19 897.457 1717.18 C 925.575 1732.05 899.323 1776.62 873.301 1766.83 C 865.653 1763.95 865.016 1753.44 866.506 1746.41 C 867.091 1743.44 868.332 1740.54 869.405 1737.68 L 870.083 1738.62 C 867.301 1752.99 875.379 1769.89 891.306 1758.55 C 899.179 1752.94 906.001 1736.45 900.357 1727.53 C 895.52 1719.89 883.619 1722.3 877.476 1726.94 L 875.808 1727.16 C 875.331 1723.13 875.187 1725.16 877.047 1720.93 z" fill="rgb(14,20,61)" transform="translate(0,0)"></path>
<path d="M 1107.48 1186.18 C 1143 1187.16 1145.96 1247.27 1108.56 1251.69 C 1095.99 1250.57 1086.82 1244.74 1082.46 1232.48 C 1079.12 1223.28 1079.72 1213.12 1084.13 1204.38 C 1089.36 1194.21 1096.94 1189.44 1107.48 1186.18 z" fill="rgb(14,20,61)" transform="translate(0,0)"></path>
<path d="M 1100.12 1197 C 1124.29 1191.17 1132.84 1215.81 1121.71 1233.99 C 1117.51 1240.86 1111.1 1241.86 1103.56 1241.97 L 1101.09 1242.03 C 1082.62 1232.64 1081.15 1207.49 1100.12 1197 z" fill="rgb(238,198,188)" transform="translate(0,0)"></path>
<path d="M 1101.09 1242.03 C 1082.62 1232.64 1081.15 1207.49 1100.12 1197 L 1100.91 1198.92 C 1088.61 1214.34 1092.71 1223.9 1104.11 1237.57 L 1105.81 1238.58 C 1104.35 1241.12 1104.26 1240.51 1101.09 1242.03 z" fill="rgb(246,220,206)" transform="translate(0,0)"></path>
<path d="M 1104.11 1237.57 C 1090.17 1230.21 1085.69 1206.11 1100.91 1198.92 C 1088.61 1214.34 1092.71 1223.9 1104.11 1237.57 z" fill="rgb(163,140,137)" transform="translate(0,0)"></path>
<path d="M 1019.78 1575.34 C 1054.86 1575.9 1049.36 1619.8 1009.77 1631.1 C 969.782 1632.26 980.934 1580.88 1019.78 1575.34 z" fill="rgb(14,20,61)" transform="translate(0,0)"></path>
<path d="M 1006.66 1623.41 C 974.247 1617.6 1002.21 1576.93 1024.22 1582.32 C 1033.42 1584.57 1035.38 1598.01 1032.52 1605.34 C 1029.07 1614.17 1021 1618.88 1012.84 1622.38 C 1010.84 1622.83 1008.61 1623.53 1006.66 1623.41 z" fill="rgb(238,198,188)" transform="translate(0,0)"></path>
<path d="M 1006.66 1623.41 L 1006.34 1622.31 C 1002.64 1619.02 1000.15 1616.81 998.284 1612.07 C 996.351 1607.17 999.666 1594.03 1004.82 1592.75 C 996.774 1605.86 996.209 1616.87 1012.84 1622.38 C 1010.84 1622.83 1008.61 1623.53 1006.66 1623.41 z" fill="rgb(123,107,105)" transform="translate(0,0)"></path>
<path d="M 380.455 964.095 C 377.608 955.348 374.48 946.747 367.682 939.917 C 358.469 930.661 344.248 929.234 334.864 939.386 C 317.305 958.381 340.002 971.137 341.112 982.447 L 339.653 982.22 C 326.702 971.354 313.18 946.294 306.027 930.611 C 280.049 873.285 278.175 807.928 300.826 749.208 C 330.968 669.94 419.742 598.363 509.291 628.376 C 568.925 648.364 586.433 716.815 551.251 766.597 C 532.572 793.028 507.826 816.652 476.857 829.385 C 502.088 811.198 527.946 792.829 545.55 766.66 C 553.928 758.762 554.61 741.499 557.783 734.706 C 566.922 715.138 556.663 719.155 554.28 706.899 C 555.65 703.947 558.382 698.47 558.213 695.317 C 557.558 683.117 549.681 669.275 535.851 670.062 C 527.689 670.526 524.321 674.984 519.284 680.464 C 505.209 669.762 485.396 671.915 483.45 692.322 C 475.511 695.343 461.158 700.475 455 705.578 L 456.824 705.747 C 453.259 706.966 451.349 707.113 448.704 709.478 L 448.093 709.524 C 443.13 712.565 435.288 717.786 431.547 722.249 C 430.377 725.751 430.455 725.512 427.949 728.254 C 422.005 730.064 415.103 724.596 413.027 727.126 C 409.866 730.977 407.49 737.583 400.944 738.601 C 388.645 749.77 377.213 776.629 372.072 792.165 C 371.63 793.502 360.683 798.004 359.481 806.388 C 357.621 819.361 359.681 825.654 360.778 838.394 C 359.71 888.671 376.974 915.155 403.721 955.863 L 380.455 964.095 z" fill="rgb(247,235,223)" transform="translate(0,0)"></path>
<path d="M 442.347 693.526 C 446.804 696.773 451.094 701.567 455 705.578 L 456.824 705.747 C 453.259 706.966 451.349 707.113 448.704 709.478 L 448.093 709.524 C 443.13 712.565 435.288 717.786 431.547 722.249 C 430.377 725.751 430.455 725.512 427.949 728.254 C 422.005 730.064 415.103 724.596 413.027 727.126 C 409.866 730.977 407.49 737.583 400.944 738.601 C 403.757 734.569 406.588 732.024 410.055 728.577 C 415.095 707.908 423.063 701.404 442.347 693.526 z" fill="rgb(14,20,61)" transform="translate(0,0)"></path>
<path d="M 431.547 722.249 C 427.531 725.597 425.823 728.171 420.853 725.714 L 420.207 723.213 C 422.293 714.262 430.871 701.94 441.734 703.126 C 444.556 703.434 446.599 707.238 448.093 709.524 C 443.13 712.565 435.288 717.786 431.547 722.249 z" fill="rgb(246,220,206)" transform="translate(0,0)"></path>
<path d="M 320.283 829.018 C 352.138 827.508 348.451 885.523 324.656 892.362 C 291.067 890.614 292.908 842.642 320.283 829.018 z" fill="rgb(14,20,61)" transform="translate(0,0)"></path>
<path d="M 321.313 837.763 C 338.655 839.984 339.78 878.197 320.638 887.059 C 300.014 878.323 303.722 848.053 321.313 837.763 z" fill="rgb(246,220,206)" transform="translate(0,0)"></path>
<path d="M 348.335 726.007 C 378.648 726.047 371.015 773.48 343.993 785.372 C 312.404 789.381 319.904 735.891 348.335 726.007 z" fill="rgb(14,20,61)" transform="translate(0,0)"></path>
<path d="M 349.423 733.703 C 369.008 740.05 355.751 773.665 340.736 779.402 C 320.204 771.997 334.165 741.928 349.423 733.703 z" fill="rgb(246,220,206)" transform="translate(0,0)"></path>
<path d="M 408.745 665.054 C 435.877 664.21 425.753 689.146 412.718 700.473 C 406.205 706.133 403.092 708.556 394.883 712.18 C 362.583 719.098 378.606 675.18 408.745 665.054 z" fill="rgb(14,20,61)" transform="translate(0,0)"></path>
<path d="M 405.453 674.95 C 409.559 674.243 411.814 674.649 415.378 676.434 C 421.138 686.032 402.298 700.47 394.999 705.338 C 390.417 706.555 388.253 707.832 384.908 704.005 C 382.839 692.715 396.604 680.117 405.453 674.95 z" fill="rgb(246,220,206)" transform="translate(0,0)"></path>
<path d="M 477.833 638.215 C 483.451 638.025 489.029 639.224 494.073 641.706 C 501.284 645.267 502.9 653.052 498.788 659.785 C 493.208 668.924 483.72 672.244 473.928 674.929 C 435.074 682.071 447.265 644.423 477.833 638.215 z" fill="rgb(14,20,61)" transform="translate(0,0)"></path>
<path d="M 474.296 647.111 C 480.6 646.649 486.577 645.835 490.533 651.647 C 491.489 662.211 481.73 665.285 473.51 667.863 C 467.785 669.279 462.853 670.901 458.285 666.591 C 456.886 657.018 466.83 650.803 474.296 647.111 z" fill="rgb(246,220,206)" transform="translate(0,0)"></path>
<path d="M 844.647 1190.97 C 856.634 1196.07 873.047 1234.42 876.208 1247.14 C 889.403 1300.25 883.033 1350.51 856.142 1397.85 C 825.555 1406.73 803.261 1405.67 774.446 1391.2 C 754.548 1379.34 738.994 1361.39 730.08 1340.01 C 695.596 1258.42 783.101 1217.1 844.647 1190.97 z" fill="rgb(255,255,255)" transform="translate(0,0)"></path>
<path d="M 1641.84 730.565 C 1650.72 734.583 1656.3 739.51 1667.65 742.316 C 1700.19 750.855 1738.36 743.118 1770.06 754.879 C 1827.88 776.479 1839.78 850.054 1826.23 903.236 C 1822.24 918.88 1812.37 932.747 1810.8 950.353 C 1810.48 954.037 1790.31 985.951 1786 987.52 C 1766.69 978.081 1750.67 1010.26 1744.31 1024.06 C 1734.74 1030.26 1720.5 1036.93 1709.94 1041.06 C 1685.76 1015.94 1674.45 1046.33 1652.03 1053.01 C 1638.98 1056.9 1608.21 1054.6 1593.6 1053.29 C 1585.17 1045.18 1577.4 1035.45 1569.9 1026.43 C 1549.42 998.82 1538.87 979.009 1533.11 945.303 C 1546.29 959.451 1557.63 969.438 1575.46 977.799 C 1608.95 993.497 1653.47 994.197 1688.1 982.287 C 1728.11 967.373 1763.5 937.193 1780.47 898.138 C 1806.18 838.987 1796.6 778.657 1724.16 769.255 C 1706.04 766.902 1684.62 766.219 1667.79 758.81 C 1655.68 753.477 1646.93 744.292 1642.32 731.897 L 1641.84 730.565 z" fill="rgb(234,148,157)" transform="translate(0,0)"></path>
<path d="M 1784.54 908.613 L 1786.54 909.542 C 1771.74 948.013 1743.01 979.511 1706.06 997.787 C 1669.26 1016.05 1624.4 1018.11 1585.29 1005.56 C 1579.41 1003.67 1568.2 999.717 1565.44 994.11 L 1565.95 993.296 C 1598.8 1015.11 1654.54 1009.35 1689.81 996.102 C 1733.37 979.735 1765.2 951.07 1784.54 908.613 z" fill="url(#Gradient3)" transform="translate(0,0)"></path>
<path d="M 1784.54 908.613 L 1790.38 891.637 C 1789.93 898.257 1788.66 903.234 1786.54 909.542 L 1784.54 908.613 z" fill="rgb(100,58,72)" transform="translate(0,0)"></path>
<path d="M 910.026 1475.72 C 932.194 1465.24 945.538 1456.97 966.6 1444.96 C 959.489 1464.42 941.464 1502.49 930.259 1519.64 C 919.153 1517.87 911.833 1517.73 900.502 1522.21 C 889.388 1526.6 872.637 1541.47 878.676 1555.12 C 881.407 1561.29 885.241 1562.96 891.392 1565.28 C 869.485 1594.65 878.486 1609.9 845.946 1630.67 C 844.664 1631.03 843.797 1631 842.45 1631.11 C 840.418 1628.48 841.203 1627.59 841.177 1623.37 C 837.927 1638.46 826.315 1645.08 811.298 1643.66 C 809.139 1645.49 808.066 1646.73 805.325 1647.48 L 802.408 1646.89 L 801.381 1648.84 C 801.783 1651.09 801.144 1651.97 799.233 1654.22 C 786.345 1669.44 756.516 1675.92 738.476 1679.17 C 720.595 1659.66 685.972 1665.34 675.492 1688.66 C 663.847 1688.83 630.749 1688.81 621.62 1684.16 C 620.629 1680.43 620.972 1679.29 621.369 1675.52 C 624.243 1674.06 641.709 1672.81 646.11 1672.29 C 722.504 1663.29 798.281 1624.06 850.431 1567.53 C 868.616 1547.82 897.111 1500.21 910.026 1475.72 z" fill="rgb(255,255,255)" transform="translate(0,0)"></path>
<path d="M 801.381 1648.84 C 766.332 1626.79 856.198 1584.76 845.946 1630.67 C 844.664 1631.03 843.797 1631 842.45 1631.11 C 840.418 1628.48 841.203 1627.59 841.177 1623.37 C 837.927 1638.46 826.315 1645.08 811.298 1643.66 C 809.139 1645.49 808.066 1646.73 805.325 1647.48 L 802.408 1646.89 L 801.381 1648.84 z" fill="rgb(14,20,61)" transform="translate(0,0)"></path>
<path d="M 834.379 1617.04 C 838.13 1619.65 838.43 1619.81 841.177 1623.37 C 837.927 1638.46 826.315 1645.08 811.298 1643.66 C 804.412 1637.99 804.753 1635.61 808.445 1628.01 C 815.202 1620.93 825.271 1618.94 834.379 1617.04 z" fill="rgb(238,198,188)" transform="translate(0,0)"></path>
<path d="M 802.408 1646.89 C 794.503 1627.55 817.013 1613.15 834.379 1617.04 C 825.271 1618.94 815.202 1620.93 808.445 1628.01 C 804.753 1635.61 804.412 1637.99 811.298 1643.66 C 809.139 1645.49 808.066 1646.73 805.325 1647.48 L 802.408 1646.89 z" fill="rgb(207,203,205)" transform="translate(0,0)"></path>
<path d="M 808.445 1628.01 C 804.753 1635.61 804.412 1637.99 811.298 1643.66 C 809.139 1645.49 808.066 1646.73 805.325 1647.48 C 800.085 1638 801.405 1635.59 808.445 1628.01 z" fill="rgb(14,20,61)" transform="translate(0,0)"></path>
<path d="M 1060.87 1108.87 C 1061.36 1113.22 1055.65 1137 1054.58 1143.47 C 1046.27 1193.79 1056.35 1245.01 1066.33 1294.34 C 1069.37 1309.39 1073.36 1324.72 1075.59 1339.82 C 1054.85 1334.78 1041.8 1333.31 1020.52 1336.21 C 1019.81 1324.26 1021.58 1307.05 1020.97 1293.66 C 1018.34 1236.01 1013.07 1193.64 992.674 1139.92 C 1016.07 1131.1 1038.86 1120.73 1060.87 1108.87 z" fill="rgb(255,255,255)" transform="translate(0,0)"></path>
<path d="M 1294.86 1078.18 C 1301.73 1079.65 1308.4 1077.41 1312.82 1082.93 C 1313.47 1086.56 1313.54 1086.34 1312.77 1089.92 C 1299.34 1097.78 1297.34 1082.28 1291.34 1112.98 L 1293.02 1115.15 L 1292.54 1117.8 C 1291.84 1122.43 1291.85 1123.08 1292.2 1127.78 L 1289.81 1129.72 L 1291.07 1135.02 L 1292.96 1136.31 C 1298.55 1139.17 1300.34 1139.43 1306.27 1140.72 C 1307.28 1146.51 1309.39 1154.64 1306.84 1159.79 L 1304.96 1160.98 C 1302.33 1160.06 1302.39 1160.05 1300.12 1158.43 L 1298.4 1159.19 L 1295.31 1158.18 C 1295.05 1160.09 1295.02 1159.04 1295.67 1161.32 C 1298.25 1166.71 1301.97 1172.62 1302.19 1178.67 C 1302.48 1186.62 1302.39 1198.5 1294.37 1202.66 C 1289.28 1202.6 1288.94 1201.82 1285.61 1198.07 C 1285.18 1201.49 1285.07 1201.28 1286.24 1204.49 C 1288.83 1206.6 1289.36 1206.84 1292.19 1208.39 C 1295.56 1213.95 1294.36 1227.75 1296.41 1234 C 1298.73 1241.08 1305.87 1239.3 1308.9 1247.39 C 1313.77 1260.36 1308.46 1264.2 1305.43 1275.69 C 1304.17 1280.46 1311.25 1292.66 1311.15 1299.54 L 1310.16 1299.83 L 1308.93 1297.95 L 1306.16 1299.08 L 1306.11 1301.97 L 1307.38 1301.68 L 1308.97 1300.81 C 1314.97 1303.66 1314 1305.42 1321.54 1306.29 C 1330.55 1307.34 1338.62 1326.13 1337.17 1334.32 C 1336.08 1340.53 1329.24 1339.14 1327.5 1340.63 C 1332.84 1346.68 1334.13 1343.63 1335.1 1354.95 C 1335.31 1357.44 1335.73 1359.46 1335.68 1362.6 C 1336.13 1363.2 1337.74 1365.46 1338.21 1365.88 C 1340.65 1369.56 1341.08 1370.03 1342.41 1374.15 L 1343.62 1377.2 L 1342.25 1380.07 C 1330.53 1365.57 1320.32 1349.92 1311.75 1333.36 C 1269.18 1250.97 1267.42 1165.27 1294.86 1078.18 z" fill="rgb(255,255,255)" transform="translate(0,0)"></path>
<path d="M 1284.5 1195.42 L 1285.61 1198.07 C 1285.18 1201.49 1285.07 1201.28 1286.24 1204.49 C 1288.83 1206.6 1289.36 1206.84 1292.19 1208.39 C 1295.56 1213.95 1294.36 1227.75 1296.41 1234 C 1298.73 1241.08 1305.87 1239.3 1308.9 1247.39 C 1313.77 1260.36 1308.46 1264.2 1305.43 1275.69 C 1304.17 1280.46 1311.25 1292.66 1311.15 1299.54 L 1310.16 1299.83 L 1308.93 1297.95 L 1306.16 1299.08 C 1299.95 1295.4 1295.98 1277.7 1294.26 1270.71 L 1292.21 1271.97 C 1286.95 1258.74 1284.1 1244.23 1285.74 1230.04 L 1286.66 1229.4 C 1287.97 1233.84 1287.32 1234.36 1290.21 1236.9 L 1293.81 1236.84 C 1294.87 1233.66 1292.37 1215.71 1291.87 1211.13 C 1290.76 1210.43 1289.66 1209.7 1288.59 1208.94 C 1284.96 1206.32 1284.56 1205.34 1283.87 1201.2 L 1284.5 1195.42 z" fill="rgb(14,20,61)" transform="translate(0,0)"></path>
<path d="M 1290.21 1236.9 L 1293.81 1236.84 C 1296.71 1240.36 1302.07 1241.09 1305.53 1246.27 C 1309.31 1251.95 1312.52 1272.5 1300.74 1269.34 C 1293.91 1262.81 1291.87 1251.26 1290.26 1242.17 L 1289.99 1243.65 L 1288.7 1241.88 C 1288.4 1238.47 1288.09 1240.12 1290.21 1236.9 z" fill="rgb(238,198,188)" transform="translate(0,0)"></path>
<path d="M 1294.26 1270.71 C 1297.16 1272.36 1300.56 1274.18 1303.36 1275.91 C 1304.88 1283.23 1307.83 1292.15 1308.93 1297.95 L 1306.16 1299.08 C 1299.95 1295.4 1295.98 1277.7 1294.26 1270.71 z" fill="rgb(247,235,223)" transform="translate(0,0)"></path>
<path d="M 1307.38 1301.68 L 1308.97 1300.81 C 1314.97 1303.66 1314 1305.42 1321.54 1306.29 C 1330.55 1307.34 1338.62 1326.13 1337.17 1334.32 C 1336.08 1340.53 1329.24 1339.14 1327.5 1340.63 C 1332.84 1346.68 1334.13 1343.63 1335.1 1354.95 C 1335.31 1357.44 1335.73 1359.46 1335.68 1362.6 C 1336.13 1363.2 1337.74 1365.46 1338.21 1365.88 C 1340.65 1369.56 1341.08 1370.03 1342.41 1374.15 C 1332.58 1362.72 1322.91 1345.93 1316.27 1332.53 C 1313.12 1330.32 1307.86 1315.41 1307.09 1311.21 C 1306.68 1308.1 1306.4 1305.09 1306.11 1301.97 L 1307.38 1301.68 z" fill="rgb(238,198,188)" transform="translate(0,0)"></path>
<path d="M 1307.38 1301.68 L 1308.97 1300.81 C 1314.97 1303.66 1314 1305.42 1321.54 1306.29 C 1330.55 1307.34 1338.62 1326.13 1337.17 1334.32 C 1336.08 1340.53 1329.24 1339.14 1327.5 1340.63 C 1332.84 1346.68 1334.13 1343.63 1335.1 1354.95 C 1335.31 1357.44 1335.73 1359.46 1335.68 1362.6 C 1336.13 1363.2 1337.74 1365.46 1338.21 1365.88 C 1340.65 1369.56 1341.08 1370.03 1342.41 1374.15 C 1332.58 1362.72 1322.91 1345.93 1316.27 1332.53 C 1342.21 1353.92 1342.71 1312.32 1311.9 1305.36 C 1309.87 1303.25 1309.87 1303.2 1307.38 1301.68 z" fill="rgb(41,39,43)" transform="translate(0,0)"></path>
<path d="M 1284.5 1195.42 C 1282.07 1188.15 1280.87 1167.44 1288.03 1161.74 C 1290.32 1159.92 1292.99 1160.89 1295.67 1161.32 C 1298.25 1166.71 1301.97 1172.62 1302.19 1178.67 C 1302.48 1186.62 1302.39 1198.5 1294.37 1202.66 C 1289.28 1202.6 1288.94 1201.82 1285.61 1198.07 L 1284.5 1195.42 z" fill="rgb(238,198,188)" transform="translate(0,0)"></path>
<path d="M 1292.96 1136.31 C 1298.55 1139.17 1300.34 1139.43 1306.27 1140.72 C 1307.28 1146.51 1309.39 1154.64 1306.84 1159.79 L 1304.96 1160.98 C 1302.33 1160.06 1302.39 1160.05 1300.12 1158.43 C 1299.19 1157.14 1291.54 1151.5 1289.76 1150.14 L 1290.99 1150.11 C 1292.48 1144.47 1293.31 1142.29 1292.96 1136.31 z" fill="rgb(247,235,223)" transform="translate(0,0)"></path>
<path d="M 1289.76 1150.14 C 1291.54 1151.5 1299.19 1157.14 1300.12 1158.43 L 1298.4 1159.19 L 1295.31 1158.18 C 1295.05 1160.09 1295.02 1159.04 1295.67 1161.32 C 1292.99 1160.89 1290.32 1159.92 1288.03 1161.74 C 1280.87 1167.44 1282.07 1188.15 1284.5 1195.42 L 1283.87 1201.2 C 1281.74 1189.69 1276.11 1155.68 1289.76 1150.14 z" fill="rgb(44,44,59)" transform="translate(0,0)"></path>
<path d="M 1292.21 1271.97 L 1294.26 1270.71 C 1295.98 1277.7 1299.95 1295.4 1306.16 1299.08 L 1306.11 1301.97 C 1306.4 1305.09 1306.68 1308.1 1307.09 1311.21 C 1300.21 1296.21 1296.76 1287.7 1292.21 1271.97 z" fill="rgb(41,39,43)" transform="translate(0,0)"></path>
<path d="M 1291.34 1112.98 L 1293.02 1115.15 L 1292.54 1117.8 C 1291.84 1122.43 1291.85 1123.08 1292.2 1127.78 L 1289.81 1129.72 C 1289.93 1122.62 1290.11 1120 1291.34 1112.98 z" fill="rgb(44,44,59)" transform="translate(0,0)"></path>
<path d="M 1291.07 1135.02 L 1292.96 1136.31 C 1293.31 1142.29 1292.48 1144.47 1290.99 1150.11 L 1291.07 1135.02 z" fill="rgb(163,140,137)" transform="translate(0,0)"></path>
<path d="M 1640.47 1255.85 C 1666.5 1257.81 1724.22 1306.87 1742.06 1327.36 C 1772.37 1362.17 1779.85 1388.69 1777.82 1433.3 C 1775.6 1431.07 1773.33 1424.76 1771.9 1421.51 C 1761.89 1398.56 1749.74 1376.61 1735.59 1355.96 C 1717.8 1329.9 1695.07 1305.91 1672.24 1284.14 C 1662.12 1274.49 1650.64 1265.71 1640.47 1255.85 z" fill="rgb(255,255,255)" transform="translate(0,0)"></path>
<path d="M 1519.03 417.471 C 1525.15 419.884 1531.56 424.378 1536.65 428.551 C 1579.39 463.599 1611.09 543.45 1570.58 591.344 L 1562.5 584.367 C 1556.87 579.472 1552 574.446 1546.75 569.143 L 1547.8 569.071 L 1549.53 568.931 C 1581.21 566.678 1579.41 530.621 1573.95 507.671 C 1565.82 473.483 1543.57 446.723 1513.9 428.582 C 1515.3 424.951 1517.32 421.013 1519.03 417.471 z" fill="rgb(255,255,255)" transform="translate(0,0)"></path>
<path d="M 1099.27 1095.06 C 1128.37 1096.92 1121.41 1145.44 1092.1 1140.62 L 1087.05 1136.09 L 1088.49 1139.42 L 1087.53 1139.77 C 1072.67 1129.15 1082.05 1101.71 1099.27 1095.06 z" fill="rgb(238,198,188)" transform="translate(0,0)"></path>
<path d="M 903.867 1561.01 C 865.824 1558.31 898.734 1518.86 922.553 1525.53 L 925.08 1528.12 C 927.248 1528.45 930.811 1528.8 932.102 1530.81 C 940.358 1543.65 928.952 1550.15 919.444 1556.06 C 912.461 1560.4 909.609 1558.85 903.867 1561.01 z" fill="rgb(238,198,188)" transform="translate(0,0)"></path>
<path d="M 903.867 1561.01 C 865.824 1558.31 898.734 1518.86 922.553 1525.53 L 925.08 1528.12 C 906.443 1529.82 874.705 1542.76 903.471 1559.41 L 903.867 1561.01 z" fill="rgb(255,255,255)" transform="translate(0,0)"></path>
<path d="M 903.471 1559.41 C 880.508 1552.84 889.642 1538.06 905.239 1530.1 C 911.123 1527.1 916.135 1526.32 922.553 1525.53 L 925.08 1528.12 C 906.443 1529.82 874.705 1542.76 903.471 1559.41 z" fill="rgb(41,39,43)" transform="translate(0,0)"></path>
<path d="M 1726.25 1265.03 C 1727.27 1262.39 1726.91 1261.29 1730.01 1260.16 C 1737.03 1257.62 1756.95 1269.25 1757.64 1275.85 L 1758.48 1279.11 C 1756.35 1278.81 1757.37 1279.17 1755.45 1277.99 L 1758.85 1283.87 C 1763.56 1297.52 1761.71 1299.83 1747.84 1302 L 1738.02 1298.79 C 1734.4 1297.7 1732.92 1293.68 1727.67 1293.16 L 1727.72 1291.97 C 1720.76 1281.21 1718.09 1276.1 1728.08 1266.72 L 1726.25 1265.03 z" fill="rgb(238,198,188)" transform="translate(0,0)"></path>
<path d="M 1726.25 1265.03 C 1727.27 1262.39 1726.91 1261.29 1730.01 1260.16 C 1737.03 1257.62 1756.95 1269.25 1757.64 1275.85 L 1758.48 1279.11 C 1756.35 1278.81 1757.37 1279.17 1755.45 1277.99 C 1751.76 1274.05 1750.13 1272.53 1745.89 1269.2 C 1738.55 1265.11 1736.23 1265.2 1728.08 1266.72 L 1726.25 1265.03 z" fill="rgb(207,203,205)" transform="translate(0,0)"></path>
<path d="M 1726.25 1265.03 C 1743.19 1262.35 1744.72 1265.75 1757.64 1275.85 L 1758.48 1279.11 C 1756.35 1278.81 1757.37 1279.17 1755.45 1277.99 C 1751.76 1274.05 1750.13 1272.53 1745.89 1269.2 C 1738.55 1265.11 1736.23 1265.2 1728.08 1266.72 L 1726.25 1265.03 z" fill="rgb(44,44,59)" transform="translate(0,0)"></path>
<path d="M 1745.89 1269.2 C 1750.13 1272.53 1751.76 1274.05 1755.45 1277.99 L 1758.85 1283.87 C 1747.75 1284.19 1750.54 1276.47 1745.89 1269.2 z" fill="rgb(204,172,171)" transform="translate(0,0)"></path>
<path d="M 1516.26 469.092 C 1524.47 468.135 1530.4 469.999 1535.75 476.682 C 1540.1 482.126 1541.99 489.136 1540.96 496.029 C 1539.89 503.161 1536.66 506.206 1531.14 510.133 C 1510.13 514.751 1496.8 483.597 1516.26 469.092 z" fill="rgb(255,255,255)" transform="translate(0,0)"></path>
<path d="M 343.668 940.881 C 356.924 939.689 373.216 951.039 369.638 965.88 C 368.649 969.98 362.464 972.153 358.794 973.854 L 348.966 978.184 C 340.763 971.176 338.318 966.235 335.694 956.265 C 337.359 947.99 337.266 946.269 343.668 940.881 z" fill="rgb(255,255,255)" transform="translate(0,0)"></path>
<path d="M 707.429 1675.17 C 739.586 1673.4 732.309 1692.72 707.783 1700.6 C 676.867 1703.92 678.683 1681.6 707.429 1675.17 z" fill="url(#Gradient2)" transform="translate(0,0)"></path>
<path d="M 691.567 1682.75 C 690.391 1698.45 699.758 1690.55 709.108 1693.19 C 702.609 1695.67 694.235 1697.17 689.873 1690.59 C 689.416 1686.63 689.667 1686.45 691.567 1682.75 z" fill="rgb(79,73,71)" transform="translate(0,0)"></path>
<path d="M 843.551 1819.18 C 863.093 1809.51 870.047 1843.36 853.088 1851.2 L 853.445 1852.2 C 847.382 1862.98 821.627 1837.48 843.551 1819.18 z" fill="rgb(246,220,206)" transform="translate(0,0)"></path>
<path d="M 843.551 1819.18 L 842.616 1822.67 C 842.776 1832.43 834.947 1850.26 853.088 1851.2 L 853.445 1852.2 C 847.382 1862.98 821.627 1837.48 843.551 1819.18 z" fill="rgb(255,255,255)" transform="translate(0,0)"></path>
<path d="M 842.616 1822.67 C 842.776 1832.43 834.947 1850.26 853.088 1851.2 L 853.445 1852.2 C 836.863 1852.55 834.448 1830.98 842.616 1822.67 z" fill="rgb(41,39,43)" transform="translate(0,0)"></path>
<path d="M 1688.26 1038.09 C 1702.76 1036.88 1701.15 1044.2 1701.49 1055.65 C 1693.03 1062.25 1684.61 1064.51 1674.47 1066.98 C 1669.13 1067.2 1666.68 1067.19 1662.52 1063.85 C 1658.93 1053.39 1680.23 1041.78 1688.26 1038.09 z" fill="rgb(238,198,188)" transform="translate(0,0)"></path>
<path d="M 575.375 1672.75 C 578.52 1672.53 610.566 1675.84 612.525 1677.15 C 615.905 1683.93 605.877 1691.4 600.14 1693.62 C 598.696 1694.06 597.476 1694.45 595.982 1694.69 C 589.008 1695.75 581.903 1693.89 576.35 1689.54 C 569.829 1684.44 569.861 1678.65 575.375 1672.75 z" fill="rgb(246,220,206)" transform="translate(0,0)"></path>
<path d="M 575.375 1672.75 C 582.724 1695.71 590.755 1685.17 600.14 1693.62 C 598.696 1694.06 597.476 1694.45 595.982 1694.69 C 589.008 1695.75 581.903 1693.89 576.35 1689.54 C 569.829 1684.44 569.861 1678.65 575.375 1672.75 z" fill="rgb(247,235,223)" transform="translate(0,0)"></path>
<path d="M 1338.21 1365.88 C 1349.49 1370.06 1362.93 1371.75 1369.77 1383.96 C 1373.02 1389.78 1373.44 1394.34 1371.68 1400.67 L 1367.87 1405.36 L 1366.54 1405.75 C 1360.79 1401.6 1347.63 1386.23 1342.25 1380.07 L 1343.62 1377.2 L 1342.41 1374.15 C 1341.08 1370.03 1340.65 1369.56 1338.21 1365.88 z" fill="rgb(238,198,188)" transform="translate(0,0)"></path>
<path d="M 1343.62 1377.2 C 1345.62 1379.64 1348.57 1383.67 1351.06 1385.33 C 1357.49 1390.25 1365.03 1396.33 1371.68 1400.67 L 1367.87 1405.36 L 1366.54 1405.75 C 1360.79 1401.6 1347.63 1386.23 1342.25 1380.07 L 1343.62 1377.2 z" fill="rgb(247,235,223)" transform="translate(0,0)"></path>
<path d="M 1351.06 1385.33 C 1357.49 1390.25 1365.03 1396.33 1371.68 1400.67 L 1367.87 1405.36 C 1364.56 1399.57 1355.92 1391.84 1351.06 1385.33 z" fill="rgb(25,17,31)" transform="translate(0,0)"></path>
<path d="M 1293.02 1115.15 C 1296.54 1107.49 1298.82 1097.88 1308.96 1099.86 C 1321.37 1108.99 1316.73 1138.94 1294.84 1131.08 L 1292.2 1127.78 C 1291.85 1123.08 1291.84 1122.43 1292.54 1117.8 L 1293.02 1115.15 z" fill="rgb(238,198,188)" transform="translate(0,0)"></path>
<path d="M 1292.54 1117.8 C 1294.19 1125.77 1297.79 1122.41 1300.16 1128.91 C 1297.68 1131.44 1299.19 1130.41 1294.84 1131.08 L 1292.2 1127.78 C 1291.85 1123.08 1291.84 1122.43 1292.54 1117.8 z" fill="rgb(204,172,171)" transform="translate(0,0)"></path>
<path d="M 1775.48 989.595 C 1794.74 1002.75 1777.22 1018.97 1763.17 1026.57 C 1759.13 1027.65 1758.02 1028.43 1755.42 1025.41 C 1754.41 1016.16 1769.59 997.839 1775.48 989.595 z" fill="rgb(238,198,188)" transform="translate(0,0)"></path>
<path d="M 525.349 691.815 C 530.893 662.17 559.657 686.025 548.163 703.037 C 538.531 706.307 525.96 703.354 525.349 691.815 z" fill="rgb(247,235,223)" transform="translate(0,0)"></path>
<path d="M 525.349 691.815 C 533.401 691.292 541.756 698.205 548.163 703.037 C 538.531 706.307 525.96 703.354 525.349 691.815 z" fill="rgb(255,255,255)" transform="translate(0,0)"></path>
<path d="M 370.658 800.77 C 385.859 806.002 392.624 820.521 381.422 833.639 C 361.393 833.466 364.766 813.534 370.658 800.77 z" fill="rgb(255,255,255)" transform="translate(0,0)"></path>
<path d="M 1642.12 1561.22 C 1656.55 1563.85 1670.09 1562.92 1684.53 1561.84 C 1685.73 1567.74 1686.53 1573.83 1687.42 1579.8 C 1676.39 1581.77 1649.85 1569.52 1642.12 1561.22 z" fill="url(#Gradient1)" transform="translate(0,0)"></path>
<path d="M 1124.38 1385.74 C 1144.35 1385.4 1145.41 1407.68 1135.23 1421.28 C 1132.32 1423.77 1129.76 1425.17 1126.47 1427.17 C 1128.61 1409.12 1128.92 1403.2 1124.38 1385.74 z" fill="rgb(246,220,206)" transform="translate(0,0)"></path>
<path d="M 1834.96 914.588 C 1844.75 922.667 1838.75 942.352 1827.54 947.883 L 1824.58 946.794 C 1818.68 937.721 1828.77 921.63 1834.96 914.588 z" fill="rgb(238,198,188)" transform="translate(0,0)"></path>
<path d="M 509.247 1651.47 C 500.086 1650.3 488.026 1640.42 494.574 1631.72 C 499.468 1631.94 501.441 1635.23 505.198 1639.09 C 509.547 1642.17 513.22 1644.28 516.311 1648.59 L 515.753 1650.66 C 512.989 1651.25 512.086 1651.3 509.247 1651.47 z" fill="rgb(246,220,206)" transform="translate(0,0)"></path>
<path d="M 505.198 1639.09 C 509.547 1642.17 513.22 1644.28 516.311 1648.59 L 515.753 1650.66 C 512.989 1651.25 512.086 1651.3 509.247 1651.47 C 505.107 1645.75 505.257 1646.28 505.198 1639.09 z" fill="rgb(255,255,255)" transform="translate(0,0)"></path>
<path d="M 1838.94 819.269 C 1848.76 822.63 1853.01 840.582 1849.86 849.414 L 1846.05 849.708 C 1841.06 844.992 1837.37 825.825 1838.94 819.269 z" fill="rgb(238,198,188)" transform="translate(0,0)"></path>
<path d="M 493.679 681.211 C 500.68 680.782 511.389 679.728 513.824 687.999 C 513.091 690.588 513.213 690.8 511.666 692.936 C 504.11 690.998 497.29 692.74 492.756 687.792 C 492.375 684.426 492.095 684.292 493.679 681.211 z" fill="rgb(246,220,206)" transform="translate(0,0)"></path>
<path d="M 1091.31 1422.04 C 1093.26 1423.98 1094.56 1425.58 1097.03 1426.78 C 1098.45 1433.02 1097.32 1435.89 1096.74 1442.11 L 1095.82 1442.18 C 1094.75 1450.47 1093.85 1453.06 1089.55 1460.25 C 1089.7 1446.73 1091.89 1451.36 1089.35 1434.33 L 1090 1432.76 C 1089.86 1427.73 1090.02 1426.92 1091.31 1422.04 z" fill="rgb(14,20,61)" transform="translate(0,0)"></path>
<path d="M 1091.31 1422.04 C 1093.26 1423.98 1094.56 1425.58 1097.03 1426.78 C 1098.45 1433.02 1097.32 1435.89 1096.74 1442.11 L 1095.82 1442.18 C 1095.29 1440.06 1095.12 1437.75 1094.86 1435.55 C 1091.72 1432.82 1093.36 1433.34 1090 1432.76 C 1089.86 1427.73 1090.02 1426.92 1091.31 1422.04 z" fill="rgb(44,44,59)" transform="translate(0,0)"></path>
<path d="M 1094.86 1435.55 L 1097.03 1426.78 C 1098.45 1433.02 1097.32 1435.89 1096.74 1442.11 L 1095.82 1442.18 C 1095.29 1440.06 1095.12 1437.75 1094.86 1435.55 z" fill="rgb(207,203,205)" transform="translate(0,0)"></path>
<path d="M 548.261 711.527 C 555.318 716.526 555.913 722.602 551.177 729.749 C 545.045 723.422 541.404 718.844 548.261 711.527 z" fill="rgb(246,220,206)" transform="translate(0,0)"></path>
<path d="M 1727.67 1293.16 C 1732.92 1293.68 1734.4 1297.7 1738.02 1298.79 C 1744.6 1303.72 1753.02 1303.07 1755.33 1305.41 C 1745.88 1311.97 1733.6 1299.71 1727.67 1293.16 z" fill="rgb(255,255,255)" transform="translate(0,0)"></path>
<path d="M 1089.35 1434.33 L 1088.73 1435.35 C 1088.18 1433.52 1083.26 1416.96 1083.26 1416.53 C 1086.63 1417.65 1088.57 1419.73 1091.31 1422.04 C 1090.02 1426.92 1089.86 1427.73 1090 1432.76 L 1089.35 1434.33 z" fill="rgb(247,235,223)" transform="translate(0,0)"></path>
<metadata><recraft-signature>{"signed_by": "recraft", "signature_b64": "6SeQo8RkuakEW0Jbv4evDl1R5uMxcbbhStkPUxtnAzYtvCVXbzCXBmvTSvZ5EKu8qzURuk63W8O5aW5UmdloAQ==", "signing_algo": "Ed25519", "generation_timestamp": 1770828186, "identifier": "f654d8af-0b09-4abd-be70-8cd2d96408ab"}</recraft-signature></metadata></svg>