<svg xmlns="http://www.w3.org/2000/svg" height="1024" preserveAspectRatio="none" style="display: block;" version="1.1" viewBox="0 0 2048 2048" width="1024">
<defs>
	<linearGradient gradientUnits="userSpaceOnUse" id="Gradient1" x1="312.413" x2="337.121" y1="1189.56" y2="1213.99">
		<stop class="stop0" offset="0" stop-color="rgb(7,6,6)" stop-opacity="1"></stop>
		<stop class="stop1" offset="1" stop-color="rgb(39,26,29)" stop-opacity="1"></stop>
	</linearGradient>
	<linearGradient gradientUnits="userSpaceOnUse" id="Gradient2" x1="437.295" x2="438.129" y1="1173.9" y2="1192.94">
		<stop class="stop0" offset="0" stop-color="rgb(11,11,11)" stop-opacity="1"></stop>
		<stop class="stop1" offset="1" stop-color="rgb(46,30,31)" stop-opacity="1"></stop>
	</linearGradient>
	<linearGradient gradientUnits="userSpaceOnUse" id="Gradient3" x1="1329.23" x2="1323.97" y1="1029.47" y2="1036.57">
		<stop class="stop0" offset="0" stop-color="rgb(15,17,11)" stop-opacity="1"></stop>
		<stop class="stop1" offset="1" stop-color="rgb(54,34,40)" stop-opacity="1"></stop>
	</linearGradient>
	<linearGradient gradientUnits="userSpaceOnUse" id="Gradient4" x1="1460.81" x2="1400.3" y1="1369.85" y2="1641.18">
		<stop class="stop0" offset="0" stop-color="rgb(251,207,205)" stop-opacity="1"></stop>
		<stop class="stop1" offset="1" stop-color="rgb(251,231,225)" stop-opacity="1"></stop>
	</linearGradient>
	<linearGradient gradientUnits="userSpaceOnUse" id="Gradient5" x1="1095.54" x2="1209.25" y1="499.618" y2="597.358">
		<stop class="stop0" offset="0" stop-color="rgb(121,70,110)" stop-opacity="1"></stop>
		<stop class="stop1" offset="1" stop-color="rgb(158,125,168)" stop-opacity="1"></stop>
	</linearGradient>
	<linearGradient gradientUnits="userSpaceOnUse" id="Gradient6" x1="601.708" x2="586.881" y1="831.686" y2="864.678">
		<stop class="stop0" offset="0" stop-color="rgb(20,0,6)" stop-opacity="1"></stop>
		<stop class="stop1" offset="1" stop-color="rgb(53,19,31)" stop-opacity="1"></stop>
	</linearGradient>
	<linearGradient gradientUnits="userSpaceOnUse" id="Gradient7" x1="865.957" x2="882.955" y1="1444.65" y2="1455.29">
		<stop class="stop0" offset="0" stop-color="rgb(8,4,0)" stop-opacity="1"></stop>
		<stop class="stop1" offset="1" stop-color="rgb(47,29,40)" stop-opacity="1"></stop>
	</linearGradient>
	<linearGradient gradientUnits="userSpaceOnUse" id="Gradient8" x1="436.412" x2="346.475" y1="592.041" y2="630.826">
		<stop class="stop0" offset="0" stop-color="rgb(18,0,10)" stop-opacity="1"></stop>
		<stop class="stop1" offset="1" stop-color="rgb(67,21,42)" stop-opacity="1"></stop>
	</linearGradient>
	<linearGradient gradientUnits="userSpaceOnUse" id="Gradient9" x1="975.584" x2="942.736" y1="1375.97" y2="1390.74">
		<stop class="stop0" offset="0" stop-color="rgb(248,232,237)" stop-opacity="1"></stop>
		<stop class="stop1" offset="1" stop-color="rgb(255,253,252)" stop-opacity="1"></stop>
	</linearGradient>
	<linearGradient gradientUnits="userSpaceOnUse" id="Gradient10" x1="1530.88" x2="1569.87" y1="1285.41" y2="1297.11">
		<stop class="stop0" offset="0" stop-color="rgb(201,135,160)" stop-opacity="1"></stop>
		<stop class="stop1" offset="1" stop-color="rgb(224,178,186)" stop-opacity="1"></stop>
	</linearGradient>
	<linearGradient gradientUnits="userSpaceOnUse" id="Gradient11" x1="826.795" x2="865.73" y1="1775.51" y2="1784.54">
		<stop class="stop0" offset="0" stop-color="rgb(5,6,5)" stop-opacity="1"></stop>
		<stop class="stop1" offset="1" stop-color="rgb(37,24,24)" stop-opacity="1"></stop>
	</linearGradient>
	<linearGradient gradientUnits="userSpaceOnUse" id="Gradient12" x1="393.354" x2="445.756" y1="1353.73" y2="1348.33">
		<stop class="stop0" offset="0" stop-color="rgb(1,0,1)" stop-opacity="1"></stop>
		<stop class="stop1" offset="1" stop-color="rgb(37,25,27)" stop-opacity="1"></stop>
	</linearGradient>
	<linearGradient gradientUnits="userSpaceOnUse" id="Gradient13" x1="505.413" x2="533.471" y1="1272.78" y2="1324.75">
		<stop class="stop0" offset="0" stop-color="rgb(9,10,7)" stop-opacity="1"></stop>
		<stop class="stop1" offset="1" stop-color="rgb(62,21,40)" stop-opacity="1"></stop>
	</linearGradient>
	<linearGradient gradientUnits="userSpaceOnUse" id="Gradient14" x1="719.719" x2="701.298" y1="372.402" y2="349.363">
		<stop class="stop0" offset="0" stop-color="rgb(41,8,13)" stop-opacity="1"></stop>
		<stop class="stop1" offset="1" stop-color="rgb(74,23,49)" stop-opacity="1"></stop>
	</linearGradient>
	<linearGradient gradientUnits="userSpaceOnUse" id="Gradient15" x1="815.32" x2="923.458" y1="631.721" y2="748.379">
		<stop class="stop0" offset="0" stop-color="rgb(129,77,121)" stop-opacity="1"></stop>
		<stop class="stop1" offset="1" stop-color="rgb(169,134,171)" stop-opacity="1"></stop>
	</linearGradient>
</defs>
<path d="M 0 0 L 2048 0 L 2048 2048 L 0 2048 L 0 0 z" fill="rgb(255,255,255)" transform="translate(0,0)"></path>
<path d="M 743.974 946.041 C 719.856 939.721 696.376 933.632 672.918 925.166 C 536.262 875.863 412.102 787.576 335.269 662.633 C 321.671 640.521 322.443 631.826 322.733 606.602 C 325.881 333.15 558.31 -4.38885 865.872 76.0013 C 957.463 99.9413 1058.14 162.733 1116.58 239.015 C 1157.45 246.878 1188.03 253.601 1213.11 290.336 C 1231.82 317.752 1239.79 364.584 1221.77 393.838 C 1287.56 455.212 1318.15 563.354 1288.48 649.127 C 1330.29 721.478 1339.44 772.604 1290.54 844.912 C 1346.86 972.624 1506.16 970.794 1517.07 820.259 C 1521.61 757.699 1490.64 712.599 1469.16 658.356 C 1442.96 592.192 1455.25 500.285 1527.03 468.875 C 1552.89 457.131 1583.33 455.55 1609.89 465.963 C 1693.46 498.725 1683.91 605.631 1742.79 660.928 C 1753.11 670.622 1764.71 675.885 1779.44 676.386 C 1796.4 676.963 1809.03 662.98 1818.84 650.718 C 1823.48 644.904 1827.89 638.732 1835.8 638.563 C 1848.83 644.974 1843.29 674.967 1837.08 685.991 C 1813.49 727.868 1756.95 740.74 1715.86 716.814 C 1682.34 699.147 1650.99 660.283 1635.54 626.257 C 1621.02 594.264 1583.75 524.164 1548.94 581.911 C 1529.31 614.482 1573.97 696.658 1588.54 726.866 C 1616.17 784.138 1650.68 838.628 1645.32 905.042 C 1641.44 985.874 1575.53 1040.48 1505.16 1068.96 C 1449.78 1091.36 1371.77 1085.61 1322.58 1049.49 C 1342.95 1095.03 1374.43 1140.16 1422.81 1158.39 C 1508.22 1190.57 1582.23 1128.76 1654.15 1093.26 C 1710.8 1065.29 1781.65 1054.29 1841.69 1077.5 C 1880.44 1092.55 1918.17 1120.29 1935.08 1159.51 C 1951.83 1198.36 1954.5 1250.35 1939.14 1290.13 C 1925.42 1325.65 1901.25 1343.1 1867.98 1358.56 C 1842.83 1370.24 1824.05 1365.09 1813.58 1390.79 C 1809.52 1400.9 1808.18 1411.9 1809.71 1422.7 C 1811.5 1435.8 1821.49 1452.34 1814.39 1460.27 C 1809.27 1462.32 1804.99 1462.62 1799.93 1460.11 C 1760.87 1440.79 1760.45 1373.45 1776.93 1339.68 C 1792.58 1307.63 1826.83 1284.41 1862.42 1285.89 C 1868.5 1275.85 1870.89 1260.94 1867.45 1249.85 C 1852.62 1202.18 1808.81 1184.96 1763.03 1196.82 C 1712.45 1209.92 1690.54 1239.63 1652.94 1271.28 C 1632.04 1288.78 1587.33 1314.58 1560.83 1320.35 C 1492.62 1335.21 1416.7 1318.28 1357.46 1282.7 C 1308.14 1253.08 1285.43 1226.68 1258.84 1177.76 C 1251.02 1163.37 1242.46 1150.83 1234.37 1134.95 C 1241.03 1181.23 1259.03 1246.49 1280.81 1288.07 C 1292.13 1309.67 1312.25 1333.29 1331.53 1347.74 C 1392.75 1393.66 1451.33 1390.43 1523 1391.04 C 1555.98 1391.32 1597.92 1400.06 1628.34 1412.71 C 1658.4 1425.24 1685.56 1443.82 1708.13 1467.29 C 1738.25 1497.93 1757.96 1537.27 1764.47 1579.73 C 1773.33 1640.73 1758.1 1702.96 1721.31 1753.65 C 1711.78 1766.78 1669.48 1814.48 1644.27 1800.6 C 1641.9 1798.66 1640.51 1795.13 1640.67 1792.11 C 1641.6 1774.52 1652.85 1759.04 1659.5 1742.71 C 1672.48 1712.28 1670.37 1676.21 1658.58 1645.48 C 1632.79 1578.28 1561.24 1546.77 1494.56 1536.11 C 1469.47 1532.1 1461.03 1531.05 1436.8 1535.57 C 1428.35 1537.15 1393.07 1526.8 1382.55 1527.31 C 1363.93 1524.36 1340.64 1522.02 1322.84 1517.34 C 1277.95 1505.54 1243.8 1472 1211.34 1440.83 C 1189.95 1420.27 1175.66 1399.7 1162.69 1373.3 C 1154.77 1420.51 1144.97 1493.33 1174.2 1534.66 C 1204.95 1578.14 1261.69 1597.91 1306.7 1623 C 1349.98 1647.32 1388.5 1680.34 1407.52 1727.38 C 1418.92 1753.78 1423.27 1782.17 1418.3 1810.79 C 1410.2 1857.46 1375.62 1926.54 1446.74 1942.07 C 1460.09 1946.12 1504.77 1938.71 1503.33 1960.96 C 1503.13 1964.06 1498.37 1970.14 1495.55 1971.54 C 1450.79 1993.83 1372.87 1977.72 1346.66 1933.78 C 1315.91 1882.23 1356.23 1813.19 1317.3 1763.4 C 1293.92 1733.39 1252.57 1720.14 1218.9 1705.92 C 1196.44 1696.38 1174.69 1685.25 1153.81 1672.62 C 1078.3 1627.71 1034.34 1571.94 1024.52 1482.94 C 1020.49 1446.51 1021.07 1412.89 1025.4 1376.41 C 1026.49 1367.26 1027.69 1352.21 1030.27 1343.8 C 1029.28 1344.01 1028.29 1344.22 1027.3 1344.42 C 1014.41 1356.27 1002.29 1368.59 988.999 1380.02 C 987.198 1392.79 984.562 1399.47 974.464 1408.19 C 963.567 1417.6 952.317 1413.87 947.611 1415.68 C 940.893 1423.07 926.554 1435.21 918.662 1441.39 C 920.627 1462.86 905.904 1474.57 887.249 1481.25 C 878.291 1499.19 869.941 1513.8 862.122 1532.88 C 818.932 1638.25 848.707 1806.68 957.573 1862.13 C 992.319 1879.82 1033.79 1890.4 1072.48 1876.95 C 1091.7 1870.29 1107.47 1856.22 1116.29 1837.89 C 1120.31 1829.5 1123.38 1817 1120.8 1807.73 C 1119.23 1802.05 1111.59 1792.74 1110.65 1787.13 L 1111.84 1785.25 C 1113.22 1785.06 1114.93 1784.79 1116.28 1784.71 C 1117.87 1782.8 1117.83 1781.64 1118.35 1779.17 C 1118.68 1779.2 1115.72 1778.85 1115.97 1778.92 C 1107.92 1776.54 1088.68 1787.61 1088.35 1795.96 C 1089.69 1798.95 1089 1797.83 1091.86 1800 C 1097.16 1797.56 1093.81 1790.58 1103.05 1790.95 C 1106.4 1793.22 1105.19 1791.77 1106.84 1795.42 C 1106.7 1799.27 1106.47 1802.15 1104.16 1805.47 C 1102.17 1808.37 1099.08 1810.34 1095.6 1810.93 C 1091.71 1811.61 1087.72 1810.54 1084.69 1808.01 C 1074.86 1799.65 1082.15 1783.94 1089.34 1776.48 C 1098.44 1766.79 1115.52 1765.61 1127.4 1770.44 C 1158.73 1783.85 1162.16 1814.99 1161.71 1844.07 C 1160.8 1916.34 1090.53 1962.39 1023.24 1937.18 C 992.328 1925.6 976.774 1914.44 954.791 1890.01 C 905.002 1888.9 878.997 1888.44 830.615 1869.05 C 743.644 1834.21 687.238 1762.87 666.493 1673.12 C 635.749 1540.12 707.656 1422 785.098 1320.99 C 798.219 1303.86 812.842 1284.63 824.539 1266.47 C 783.783 1295.12 733.603 1311.2 684.647 1318.4 C 679.495 1339.84 628.291 1337.25 622.922 1318.47 C 607.702 1311.69 585.768 1309.24 569.29 1311.9 C 561.261 1313.19 555.161 1315.59 546.647 1316.24 C 540.071 1324.39 532.443 1330.55 521.668 1332.01 C 513.207 1333.16 502.857 1327.15 499.913 1327.96 L 498.271 1329.12 C 490.515 1334.5 480.914 1338.39 472.983 1343.8 C 428.898 1373.72 396.422 1434.01 428.827 1483.92 C 451.075 1518.19 487.951 1515.6 524.978 1519.42 C 589.504 1525.91 631.217 1596.9 593.06 1653.22 C 580.071 1672.4 542.713 1708.85 515.728 1704.44 C 500.245 1701.91 515.566 1688.56 521.753 1684.63 C 551.016 1666.01 535.224 1616.69 506.057 1605.44 C 478.792 1593.44 454.829 1599.07 426.115 1595.88 C 396.765 1592.47 381.127 1587.2 355.244 1574.26 C 340.027 1581.93 326.908 1588.05 309.939 1590.67 C 232.741 1602.58 152.527 1560.45 118.305 1490.29 C 86.7754 1425.64 91.6607 1342.65 114.635 1276.26 C 140.964 1199.65 196.793 1136.72 269.723 1101.45 C 344.412 1065.18 426.829 1073.38 505.596 1086.48 C 575.505 1098.12 663.394 1111.49 711.644 1046.04 C 722.286 1031.79 729.172 1020.95 735.096 1003.85 C 741.465 985.262 744.471 965.685 743.974 946.041 z" fill="rgb(78,23,49)" transform="translate(0,0)"></path>
<path d="M 663.949 105.953 C 684.619 99.4137 705.275 92.9862 726.819 89.963 C 846.095 73.2248 975.353 143.861 1060.93 221.516 L 1063.78 218.808 C 1069.61 224.411 1088.93 244.402 1093.61 247.142 C 1105.84 254.304 1149.59 253.183 1159.66 265.597 L 1159.4 268.478 C 1204.63 295.968 1222.11 332.334 1208.24 384.05 C 1186.35 365.769 1178.9 359.692 1152.6 348.064 C 1164 349.069 1175.24 349.899 1186.37 352.858 C 1190.49 353.956 1194.43 356.232 1196.98 354.457 C 1196.16 351.36 1193.65 349.498 1190.91 348.023 C 1144.26 322.925 1097.72 353.881 1075.72 396.485 C 1048.04 450.099 1049.79 519.794 1066.59 576.677 C 1086.74 642.82 1149.36 737.01 1231.08 711.931 C 1254.36 704.785 1267.69 686.524 1280.26 666.7 C 1301.83 702.221 1311.93 740.476 1302.26 781.618 C 1288.08 841.915 1241.11 878.506 1199.32 919.046 C 1224.83 909.126 1245.92 890.845 1265.96 872.602 C 1275.32 968.457 1293.33 1081.14 1371.8 1146.89 C 1406.6 1175.83 1447.02 1185.92 1491.65 1180.48 C 1603.9 1166.82 1677.51 1062.91 1798.45 1081.88 C 1868.28 1092.84 1925.36 1141.5 1933.3 1214.34 C 1940.23 1277.86 1903.2 1327.83 1845.32 1349.9 C 1834.33 1354.22 1819.6 1362.65 1811.21 1371.34 C 1819.92 1352.01 1836.95 1327.74 1855.04 1316.43 C 1857.64 1309.3 1858.37 1312.88 1863.47 1307.66 C 1912.55 1282.35 1912.21 1229.28 1889.01 1185.49 C 1870.58 1155.11 1847.28 1138.38 1811.96 1133.28 C 1745.27 1123.65 1699.5 1156.81 1653.25 1199.53 C 1606.58 1242.66 1545.12 1281.04 1479.85 1283.2 L 1479.88 1278.96 C 1476.48 1273.23 1474.81 1278.83 1468.28 1275.38 C 1453.78 1275.15 1441.94 1273.55 1427.66 1271.62 C 1424.73 1270.03 1407.49 1266.98 1402.76 1265.59 C 1309.53 1238.35 1240.89 1147.62 1222.4 1054.59 C 1214.45 1014.64 1198.2 979.567 1163.75 956.003 C 1183.09 978.396 1195.76 1003.45 1203.19 1032.08 C 1224.32 1113.49 1192.97 1184.18 1171.81 1261.42 C 1153.99 1326.43 1136.07 1401.02 1139.62 1468.73 C 1141.51 1504.74 1149.51 1544.79 1174.4 1572.42 C 1187.73 1587.21 1205.83 1596.63 1223.64 1604.93 C 1282.85 1632.54 1346.04 1648.73 1382.11 1708.66 C 1441.86 1807.98 1365.91 1860.48 1397.94 1921.3 C 1411.37 1946.8 1435.43 1952.7 1461.9 1953.47 C 1470.8 1953.73 1480.99 1953.48 1489.45 1956.58 C 1491.99 1957.51 1493.26 1958.19 1494.45 1960.62 C 1494.31 1960.9 1494.17 1961.18 1494.03 1961.46 C 1466.44 1980.93 1404.96 1968.83 1383.52 1954.33 C 1339.09 1924.28 1347.88 1897.05 1353.04 1851.5 C 1357.13 1815.52 1352.75 1774.39 1326.06 1747.62 C 1282.63 1708.23 1220.9 1691.34 1169.9 1661.66 C 1069.86 1607.67 1034.19 1482.01 1048.05 1374.17 C 1063.39 1254.95 1104.78 1160.68 1072.81 1035.72 C 1072.88 1048.05 1074.74 1062.33 1075.49 1075.02 C 1075.76 1101.23 1078.32 1137.87 1072.53 1163.45 C 1058.02 1227.6 1006.1 1285.91 959.226 1328.24 C 896.938 1384.49 819.746 1429.83 783.888 1507.91 C 755.381 1569.98 745.752 1639.98 769.709 1704.7 C 802.865 1796.95 856.35 1834.47 939.518 1874.11 C 935.098 1874.06 930.679 1873.91 926.266 1873.65 C 857.768 1869.51 793.661 1838.54 747.846 1787.45 C 716.261 1751.66 694.374 1708.38 684.276 1661.73 C 676.213 1623.78 678.494 1596.27 684.636 1559.4 C 704.117 1442.48 785.113 1359.53 848.249 1264.89 C 880.27 1215.62 910.003 1162.86 926.668 1106.17 C 931.863 1088.5 939.949 1059.72 940.718 1041.53 C 938.257 1039.75 938.352 1039.9 935.369 1039.16 C 925.317 1071.62 913.426 1103.09 899.305 1133.97 C 894.597 1144.27 888.076 1160.89 881.304 1169.62 C 861.452 1195.2 831.621 1217.57 803.111 1232.51 C 771.818 1248.91 737.584 1257.75 702.32 1258.43 C 691.172 1258.64 677.423 1256.79 667.35 1257.29 C 587.008 1247.16 502.236 1213.27 424.531 1264.84 C 424.36 1264.99 424.189 1265.15 424.018 1265.3 C 394.096 1281.57 372.385 1313.47 362.558 1344.74 C 339.192 1419.09 382.855 1500 458.224 1520 C 506.11 1532.71 556.737 1516.83 586.607 1568.96 C 606.072 1602.94 595.134 1647.93 562.723 1669.77 C 570.446 1648.95 561.225 1621.18 546.226 1605.6 C 524.751 1583.29 489.997 1576.48 460.296 1575.86 C 454.508 1574.69 429.468 1574.16 421.006 1573.2 C 381.215 1568.71 352.287 1555.13 327.009 1523.77 C 291.979 1480.3 288.15 1430.47 293.792 1377.05 C 296.023 1362.15 298.849 1350.99 302.987 1336.71 C 315.99 1311.67 316.581 1299.45 337.586 1273.67 C 413.745 1180.2 527.557 1206.33 626.971 1186.54 C 649.991 1181.94 672.254 1174.15 693.116 1163.38 C 749.227 1134.11 795.662 1077.26 814.43 1016.87 C 802.05 1033.76 772.585 1075.07 758.287 1087.96 C 753.423 1089.16 745.836 1089.96 740.633 1090.66 C 722.818 1091.95 704.866 1093.59 687.011 1092.88 C 687.997 1089.87 704.101 1078.48 708.475 1074.17 C 746.716 1036.42 757.888 1000.25 758.794 948.316 C 794.554 958.604 867.925 962.6 904.795 957.912 C 897.729 956.541 888.883 955.317 881.709 954.673 C 849.406 951.773 818.65 942.343 787.105 936.417 L 787.333 937.352 L 789.183 938.303 L 788.928 939.4 C 783.085 939.217 740.794 925.958 734.003 923.486 C 733.641 921.467 733.831 922.216 732.553 920.398 C 714.196 913.168 694.53 907.375 676.002 899.794 C 593.253 865.935 528.281 828.667 462.864 768.35 L 455.15 761.535 C 420.11 728.211 382.329 685.57 357.308 643.737 C 348.556 629.106 350.545 605.846 351.346 588.481 C 353.163 540.512 361.206 492.982 375.272 447.085 C 395.742 373.625 438.037 295.471 485.83 236.354 C 495.847 227.229 512.093 207.23 524.214 195.697 C 568.721 153.355 608.039 129.367 663.949 105.953 z" fill="rgb(241,142,142)" transform="translate(0,0)"></path>
<path d="M 1468.28 1275.38 C 1537.63 1274.97 1590.45 1243.59 1640.93 1199.05 C 1663.3 1179.71 1684.25 1159.41 1710.64 1145.39 C 1775.04 1111.16 1859.22 1115.95 1896.54 1185.51 C 1909.09 1211.62 1916.01 1240.86 1906.17 1269.04 C 1899.47 1288.21 1885.36 1303.89 1867 1312.58 C 1864.21 1313.87 1858.01 1316.02 1855.04 1316.43 C 1857.64 1309.3 1858.37 1312.88 1863.47 1307.66 C 1912.55 1282.35 1912.21 1229.28 1889.01 1185.49 C 1870.58 1155.11 1847.28 1138.38 1811.96 1133.28 C 1745.27 1123.65 1699.5 1156.81 1653.25 1199.53 C 1606.58 1242.66 1545.12 1281.04 1479.85 1283.2 L 1479.88 1278.96 C 1476.48 1273.23 1474.81 1278.83 1468.28 1275.38 z" fill="rgb(56,16,34)" transform="translate(0,0)"></path>
<path d="M 732.553 920.398 C 729.952 914.943 723.429 910.439 719.956 905.537 C 696.158 871.952 717.416 836.999 748.487 818.434 C 733.907 838.792 721.698 853.817 725.792 881.22 C 727.879 895.188 738.311 914.014 749.323 922.405 C 755.641 927.218 778.271 933.555 787.105 936.417 L 787.333 937.352 L 789.183 938.303 L 788.928 939.4 C 783.085 939.217 740.794 925.958 734.003 923.486 C 733.641 921.467 733.831 922.216 732.553 920.398 z" fill="rgb(56,16,34)" transform="translate(0,0)"></path>
<path d="M 1063.78 218.808 C 1069.61 224.411 1088.93 244.402 1093.61 247.142 C 1105.84 254.304 1149.59 253.183 1159.66 265.597 L 1159.4 268.478 C 1117.45 247.546 1075.26 251.938 1037.75 278.881 C 1052.83 259.994 1065.12 254.565 1088.2 248.166 C 1079.1 238.668 1070.54 230.518 1060.93 221.516 L 1063.78 218.808 z" fill="rgb(56,16,34)" transform="translate(0,0)"></path>
<path d="M 943.038 1008.56 C 943.274 1021.25 942.372 1028.97 940.718 1041.53 C 938.257 1039.75 938.352 1039.9 935.369 1039.16 C 938.679 1027.91 940.618 1019.99 943.038 1008.56 z" fill="rgb(56,16,34)" transform="translate(0,0)"></path>
<path d="M 798.66 429.294 C 894.854 421.198 976.306 509.173 1002.39 594.624 C 1032.36 692.79 1002.84 831.138 885.256 848.586 C 847.157 853.485 809.783 841.805 778.396 819.962 C 721.945 780.752 687.294 719.741 674.616 653.053 C 656.723 558.927 693.568 447.32 798.66 429.294 z" fill="rgb(56,16,34)" transform="translate(0,0)"></path>
<path d="M 806.045 440.414 C 843.013 437.577 880.278 454.185 908.886 476.448 C 960.768 517.509 994.13 577.566 1001.58 643.309 C 1012.07 730.215 974.064 827.736 877.238 838.768 C 837.12 840.635 802.472 826.501 771.546 801.213 C 682.13 728.164 644.686 575.423 723.463 481.497 C 745.37 455.377 772.64 443.128 806.045 440.414 z" fill="rgb(255,255,255)" transform="translate(0,0)"></path>
<path d="M 823.773 512.39 C 851.282 509.385 877.452 522.128 899.099 538.556 C 961.806 586.104 983.823 691.974 934.387 756.179 C 918.081 777.356 896.421 788.763 870.242 791.87 C 784.235 795.986 725.665 701.846 734.044 622.569 C 739.351 572.354 768.238 518.257 823.773 512.39 z" fill="rgb(78,23,49)" transform="translate(0,0)"></path>
<path d="M 857.907 530.194 C 884.052 525.049 909.463 541.921 914.866 568.014 C 920.27 594.106 903.65 619.683 877.612 625.345 C 851.207 631.086 825.191 614.181 819.711 587.72 C 814.231 561.26 831.393 535.412 857.907 530.194 z" fill="rgb(255,255,255)" transform="translate(0,0)"></path>
<path d="M 932.255 613.828 C 973.383 683.561 934.844 799.629 838.938 776.192 C 806.451 768.253 780.767 741.11 764.712 712.459 C 759.976 703.998 755.965 695.151 752.721 686.013 C 755.472 687.482 754.053 687.288 757.124 686.564 C 760.121 683.421 761.503 682.059 765.12 679.712 C 776.952 717.158 799.905 752.219 838.718 765.405 C 874.94 777.711 904.691 750.825 920.037 720.693 C 929.674 701.852 932.113 686.044 932.07 664.878 C 948.305 646.844 936.041 633.879 932.255 613.828 z" fill="url(#Gradient15)" transform="translate(0,0)"></path>
<path d="M 752.721 686.013 C 736.45 633.99 745.173 567.76 793.947 535.408 C 809.622 525.011 828.998 520.843 847.482 524.866 C 819.442 545.489 795.795 545.623 776.756 576.909 C 755.301 612.166 756.62 641.38 765.12 679.712 C 761.503 682.059 760.121 683.421 757.124 686.564 C 754.053 687.288 755.472 687.482 752.721 686.013 z" fill="rgb(124,66,106)" transform="translate(0,0)"></path>
<path d="M 909.152 627.209 C 913.51 626.843 918.334 626.089 922.548 627.547 C 927.822 629.372 932.403 633.824 934.675 638.879 C 936.631 643.231 937.075 648.175 935.289 652.657 C 933.138 658.056 929.544 661.154 924.374 663.516 C 897.52 665.004 886.255 638.535 909.152 627.209 z" fill="rgb(255,255,255)" transform="translate(0,0)"></path>
<path d="M 584.664 213.421 C 673.146 210.92 587.481 407.191 499.258 413.755 C 411.858 409.493 489.495 221.453 584.664 213.421 z" fill="rgb(56,16,34)" transform="translate(0,0)"></path>
<path d="M 581.357 221.222 C 601.27 220.088 611.907 226.208 614.13 247.84 C 619.415 299.25 557.665 399.267 505.043 405.082 C 486.63 407.34 474.421 400.335 470.485 381.452 C 464.047 350.565 477.079 317.743 493.479 292.109 C 513.951 260.109 542.962 229.608 581.357 221.222 z" fill="rgb(201,101,127)" transform="translate(0,0)"></path>
<path d="M 438.373 474.253 C 507.141 465.999 494.571 623.143 433.412 636.871 C 370.405 642.064 369.027 498.005 438.373 474.253 z" fill="rgb(56,16,34)" transform="translate(0,0)"></path>
<path d="M 439.431 482.203 C 455.946 481.272 467.433 489.256 472.855 505.119 C 485.459 541.99 473.981 616.37 432.498 630.876 C 376.865 629.316 383.074 501.795 439.431 482.203 z" fill="rgb(201,101,127)" transform="translate(0,0)"></path>
<path d="M 531.027 686.449 C 540.711 686.23 549.266 689.471 557.049 695.164 C 575.571 708.712 588.047 732.818 591.129 755.276 C 592.99 768.835 591.699 784.6 582.877 795.647 C 576.641 803.455 568.835 806.312 559.195 807.363 C 547.694 805.919 538.083 801.171 529.287 793.822 C 512.119 779.478 499.338 756.507 497.639 734.076 C 496.681 721.432 498.747 707.218 507.401 697.433 C 513.718 690.291 521.711 687.04 531.027 686.449 z" fill="rgb(56,16,34)" transform="translate(0,0)"></path>
<path d="M 525.452 693.126 C 532.738 692.73 538.681 693.452 545.323 696.702 C 562.87 705.287 575.476 724.386 581.202 742.584 C 585.433 756.029 587.74 773.86 580.653 786.665 C 576.834 793.566 571.154 797.829 563.622 799.843 C 559.267 800.185 554.886 799.709 550.706 798.441 C 534.155 793.382 520.694 777.728 512.983 762.785 C 505.435 748.159 500.867 729.023 506.509 713 C 510.026 703.013 516.122 697.489 525.452 693.126 z" fill="rgb(201,101,127)" transform="translate(0,0)"></path>
<path d="M 556.419 519.034 C 596.22 518.405 599.464 600.886 560.892 613.005 C 522.419 614.291 514.048 536.141 556.419 519.034 z" fill="rgb(56,16,34)" transform="translate(0,0)"></path>
<path d="M 556.15 526.934 C 583.176 527.551 583.184 566.393 577.425 585.244 C 574.09 596.162 569.533 600.98 559.69 605.818 C 530.615 607.462 526.824 545.343 556.15 526.934 z" fill="rgb(201,101,127)" transform="translate(0,0)"></path>
<path d="M 1182.29 784.017 C 1182.76 783.966 1183.22 783.905 1183.68 783.865 C 1194.39 782.926 1220.21 789.756 1227.92 796.865 C 1229.51 798.337 1229.91 798.486 1230.05 800.722 C 1229.77 800.86 1229.5 801.036 1229.2 801.135 C 1224.02 802.828 1214.89 798.329 1209.92 796.563 C 1210.23 823.563 1204.94 846.759 1186.37 867.257 C 1170.64 884.614 1149.48 892.864 1126.35 893.832 C 1090.34 895.34 1056.49 879.663 1030.5 855.572 C 1025.88 862.108 1020.84 866.42 1014.28 870.794 C 1010.78 872.885 1006.71 874.324 1002.96 875.947 C 1009.42 867.244 1017.27 858.996 1022.83 849.697 C 1026.84 843.003 1031.6 824.161 1038.19 821.275 L 1039.21 822.156 C 1041.99 830.335 1037.94 839.803 1035 847.421 C 1060.67 863.473 1085.27 877.05 1116.32 878.475 C 1138.12 879.476 1159.38 872.793 1175.44 857.737 C 1193.12 841.168 1200.22 818.567 1201 794.885 C 1193.99 792.215 1186.9 790.299 1182.29 784.017 z" fill="rgb(56,16,34)" transform="translate(0,0)"></path>
<path d="M 756.538 327.323 C 763.337 326.362 776.302 327.18 783.151 327.597 C 773.789 330.631 764.417 331.97 754.48 335.459 C 718.163 348.212 694.065 368.056 667.798 394.67 C 662.913 399.807 657.915 405.507 653.118 410.783 C 674.971 363.182 703.59 335.394 756.538 327.323 z" fill="url(#Gradient14)" transform="translate(0,0)"></path>
<path d="M 332.544 1558.35 C 303.239 1572.92 263.4 1574.81 232.457 1564.25 C 184.937 1548.04 155.217 1514.51 132.966 1471.28 C 105.597 1418.11 103.459 1345.83 122.858 1290.01 C 146.485 1222.03 204.323 1150.45 269.924 1119.07 C 348.919 1081.28 424.437 1087.05 507.924 1101.22 C 540.406 1106.74 573.625 1111.81 606.597 1111.23 C 625.996 1110.88 644.193 1108.79 662.802 1102.86 C 670.182 1100.5 676.764 1095.74 684.164 1094.61 L 687.011 1092.88 C 704.866 1093.59 722.818 1091.95 740.633 1090.66 L 741.899 1094.05 L 755.107 1092.68 C 703.293 1146.93 646.856 1174.73 571.035 1177.16 C 536.474 1178.26 496.189 1165.57 461.363 1158.43 C 388.086 1143.4 316.498 1144.39 260.453 1200.85 C 229.786 1233.59 213.216 1275.33 202.254 1318.01 C 194.966 1346.39 187.391 1372.43 188.926 1401.94 C 192.449 1469.65 227.763 1512.08 295.939 1513.86 C 306.118 1529.93 317.482 1546.35 332.544 1558.35 z" fill="rgb(201,101,127)" transform="translate(0,0)"></path>
<path d="M 687.011 1092.88 C 704.866 1093.59 722.818 1091.95 740.633 1090.66 L 741.899 1094.05 C 724.305 1095.49 701.297 1097.88 684.164 1094.61 L 687.011 1092.88 z" fill="rgb(14,6,7)" transform="translate(0,0)"></path>
<path d="M 669.767 1264.08 C 742.857 1277.87 817.448 1239.55 870.698 1192.5 C 868.034 1197.94 844.924 1239.4 841.945 1241.62 C 794.599 1276.78 743.813 1295.58 686.33 1306.73 L 684.647 1318.4 C 679.495 1339.84 628.291 1337.25 622.922 1318.47 C 607.702 1311.69 585.768 1309.24 569.29 1311.9 C 561.261 1313.19 555.161 1315.59 546.647 1316.24 C 540.071 1324.39 532.443 1330.55 521.668 1332.01 C 513.207 1333.16 502.857 1327.15 499.913 1327.96 L 497.676 1327.2 C 497.488 1321.36 497.759 1321.12 494.378 1317.14 C 480.561 1322.04 457.57 1334.47 448.549 1346.05 L 447.898 1347.75 C 445.705 1348.69 445.571 1349.01 443.301 1349.28 C 441.107 1351.7 439.817 1353.98 437.178 1354.86 C 436.581 1359.25 437.343 1360.11 434.814 1362.05 L 431.624 1361.52 C 431.265 1362.04 430.008 1363.79 429.795 1364.28 C 429.084 1370.71 424.923 1371.39 422.966 1374.79 C 421.707 1377.89 421.501 1378.81 419.31 1381.45 C 402.824 1404.42 397.502 1442.97 406.039 1469.75 C 408.335 1476.96 412.579 1485.42 415.87 1492.35 C 340.591 1434.6 349.348 1323.82 421.462 1274.45 C 421.74 1274.15 422.018 1273.86 422.296 1273.57 C 437.25 1265.72 441.56 1260.98 459.932 1253.94 C 530.987 1226.74 601.21 1257.36 669.767 1264.08 z" fill="rgb(250,218,213)" transform="translate(0,0)"></path>
<path d="M 494.378 1317.14 C 462.446 1268.94 556.179 1242.69 551.7 1299.05 C 550.703 1302.97 548.367 1313.31 546.647 1316.24 C 540.071 1324.39 532.443 1330.55 521.668 1332.01 C 513.207 1333.16 502.857 1327.15 499.913 1327.96 L 497.676 1327.2 C 497.488 1321.36 497.759 1321.12 494.378 1317.14 z" fill="url(#Gradient13)" transform="translate(0,0)"></path>
<path d="M 515.636 1273.06 C 521.802 1272.01 529.074 1272.76 534.56 1275.94 C 541.575 1280 543.571 1285.46 545.306 1292.9 C 544.603 1295.95 543.855 1299.09 542.77 1302.02 C 539.493 1310.86 533.197 1315.22 524.841 1318.75 C 520.355 1318.96 515.444 1319.48 511.03 1318.52 C 505.294 1317.28 499.842 1314.15 496.911 1308.93 C 494.352 1304.37 494.094 1298.61 495.514 1293.65 C 498.529 1283.11 506.773 1278.15 515.636 1273.06 z" fill="rgb(255,255,255)" transform="translate(0,0)"></path>
<path d="M 519.502 1281.1 C 523.225 1280.76 526.97 1280.56 530.537 1281.91 C 534.103 1283.26 537.056 1285.93 538.449 1289.51 C 540.077 1293.7 539.508 1298.47 537.777 1302.53 C 534.626 1309.92 529.516 1312.79 522.335 1315.6 C 518.257 1315.99 514.109 1316.07 510.342 1314.2 C 506.925 1312.52 504.325 1309.54 503.126 1305.93 C 501.616 1301.25 502.468 1296.36 504.673 1292.06 C 507.949 1285.67 512.98 1283.34 519.502 1281.1 z" fill="rgb(14,6,7)" transform="translate(0,0)"></path>
<path d="M 517.996 1284.29 C 520.668 1283.86 524.053 1283.23 526.708 1283.83 C 529.765 1284.52 532.879 1286.85 534.424 1289.57 C 536.418 1293.07 536.189 1297.32 534.868 1301.01 C 532.772 1306.86 528.263 1309.58 522.991 1312.28 C 520.803 1312.79 518.267 1313.07 516.026 1312.85 C 512.796 1312.53 509.438 1310.85 507.603 1308.12 C 505.4 1304.84 505.504 1300.81 506.46 1297.12 C 508.158 1290.58 512.416 1287.56 517.996 1284.29 z" fill="rgb(241,142,142)" transform="translate(0,0)"></path>
<path d="M 619.67 1301.23 C 620.157 1294.51 622.2 1286.9 628.055 1283.13 C 652.693 1267.3 683.632 1275.83 686.33 1306.73 L 684.647 1318.4 C 679.495 1339.84 628.291 1337.25 622.922 1318.47 C 623.64 1315 621.018 1304.73 619.67 1301.23 z" fill="rgb(56,16,34)" transform="translate(0,0)"></path>
<path d="M 647.964 1282.25 C 654.866 1281.76 661.434 1283.24 668.131 1284.67 C 671.899 1288.04 675.422 1291.04 676.939 1296.02 C 678.484 1301.1 678.036 1306.7 675.282 1311.28 C 671.488 1317.58 665.923 1319.85 659.062 1321.45 C 651.47 1321.37 644.709 1320.98 638.072 1316.86 C 632.85 1313.62 628.563 1308.64 627.299 1302.5 C 626.481 1298.53 627.166 1294.59 629.534 1291.27 C 633.812 1285.27 641.156 1283.61 647.964 1282.25 z" fill="rgb(255,255,255)" transform="translate(0,0)"></path>
<path d="M 644.759 1291.19 C 648.032 1291 651.329 1290.81 654.597 1291.15 C 660.196 1291.74 666.576 1294.45 669.991 1299.11 C 671.803 1301.58 672.526 1304.32 671.717 1307.33 C 670.285 1312.65 665.303 1315.41 660.806 1317.79 C 657.386 1318.13 653.886 1318.56 650.466 1318.03 C 644.872 1317.17 638.785 1313.97 635.59 1309.18 C 633.96 1306.74 633.246 1303.87 634.146 1300.99 C 635.667 1296.13 640.371 1293.13 644.759 1291.19 z" fill="rgb(14,6,7)" transform="translate(0,0)"></path>
<path d="M 648.373 1295.42 C 654.032 1294.85 660.53 1295.24 664.985 1299.27 C 667.396 1301.46 667.57 1303.37 667.623 1306.48 C 665.23 1311.87 661.571 1313.12 656.43 1315.24 C 652.389 1315.35 648.627 1314.85 644.877 1313.23 C 640.723 1311.43 638.448 1308.74 636.784 1304.63 C 636.978 1302.27 636.898 1301.3 638.458 1299.4 C 640.974 1296.32 644.663 1295.84 648.373 1295.42 z" fill="rgb(241,142,142)" transform="translate(0,0)"></path>
<path d="M 419.31 1381.45 C 380.967 1382.97 387.301 1331.37 414.528 1323.39 C 433.758 1317.75 443.957 1329.53 448.549 1346.05 L 447.898 1347.75 C 445.705 1348.69 445.571 1349.01 443.301 1349.28 C 441.107 1351.7 439.817 1353.98 437.178 1354.86 C 436.581 1359.25 437.343 1360.11 434.814 1362.05 L 431.624 1361.52 C 431.265 1362.04 430.008 1363.79 429.795 1364.28 C 429.084 1370.71 424.923 1371.39 422.966 1374.79 C 421.707 1377.89 421.501 1378.81 419.31 1381.45 z" fill="url(#Gradient12)" transform="translate(0,0)"></path>
<path d="M 423.782 1335.1 C 436.418 1337.3 439.114 1341.89 437.178 1354.86 C 436.581 1359.25 437.343 1360.11 434.814 1362.05 L 431.624 1361.52 C 431.265 1362.04 430.008 1363.79 429.795 1364.28 C 417.034 1374.04 401.665 1370.75 405.745 1351.97 C 407.565 1343.59 416.672 1338.94 423.782 1335.1 z" fill="rgb(14,6,7)" transform="translate(0,0)"></path>
<path d="M 427.176 1338.74 C 427.708 1338.96 428.292 1339.09 428.774 1339.4 C 430.485 1340.52 432.575 1343.82 433.056 1345.9 C 434.116 1350.47 432.718 1353.98 430.202 1357.68 C 426.424 1363.25 422.021 1364.98 415.593 1366.24 C 412.62 1364.78 409.868 1362.86 408.513 1359.7 C 407.48 1357.29 407.777 1355.13 408.756 1352.78 C 411.628 1345.87 420.741 1341.62 427.176 1338.74 z" fill="rgb(241,142,142)" transform="translate(0,0)"></path>
<path d="M 422.966 1374.79 C 418.022 1375.15 412.151 1375.88 407.687 1373.6 C 383.159 1361.08 408.809 1317.46 432.031 1330.31 C 439.061 1334.2 441.319 1342.01 443.301 1349.28 C 441.107 1351.7 439.817 1353.98 437.178 1354.86 C 439.114 1341.89 436.418 1337.3 423.782 1335.1 C 416.672 1338.94 407.565 1343.59 405.745 1351.97 C 401.665 1370.75 417.034 1374.04 429.795 1364.28 C 429.084 1370.71 424.923 1371.39 422.966 1374.79 z" fill="rgb(255,255,255)" transform="translate(0,0)"></path>
<path d="M 546.647 1316.24 C 548.367 1313.31 550.703 1302.97 551.7 1299.05 C 556.87 1299.67 574.395 1297.88 582.221 1298.06 C 596.01 1298.39 606.225 1300.02 619.67 1301.23 C 621.018 1304.73 623.64 1315 622.922 1318.47 C 607.702 1311.69 585.768 1309.24 569.29 1311.9 C 561.261 1313.19 555.161 1315.59 546.647 1316.24 z" fill="rgb(78,23,49)" transform="translate(0,0)"></path>
<path d="M 917.79 1856.63 C 903.254 1848.82 889.157 1840.21 875.565 1830.85 C 859.797 1819.89 840.043 1804.65 827.191 1790.64 C 797.074 1757.79 774.267 1707.7 766.374 1664.21 C 759.131 1624.31 764.046 1591.33 774.272 1553.55 C 805.7 1437.45 904.94 1392.92 984.266 1315.4 C 1003.21 1296.89 1026.1 1269.82 1041.84 1247.93 C 1050.55 1235.81 1057.72 1219.9 1065.6 1208.68 C 1061.89 1228.23 1054.04 1267.39 1048.11 1285.94 C 1045.72 1287.11 1045.06 1286.09 1041.56 1284.89 C 1016.99 1283.46 1001.59 1315.01 1011.74 1337 C 1003.17 1345.89 991.904 1358.12 981.94 1364.96 C 957.849 1349.48 928.737 1378.19 938.964 1403.73 C 930.754 1410.83 921.802 1418.97 913.416 1425.7 C 903.519 1419.16 891.704 1415.93 881.62 1424.34 C 873.092 1429.77 867.103 1438.4 864.998 1448.29 C 862.55 1459.76 865.487 1467.96 874.107 1475.54 C 867.707 1483.18 861.716 1494.26 857.209 1503.3 C 813.521 1590.94 821.371 1690.76 860.217 1778.01 C 860.829 1779.87 862.456 1785.17 863.179 1786.67 C 864.465 1789.02 865.511 1790.58 866.086 1793.22 C 870.99 1799.75 876.799 1810.51 882.545 1818.26 C 893.953 1833.64 904.172 1843.51 917.79 1856.63 z" fill="rgb(250,218,213)" transform="translate(0,0)"></path>
<path d="M 866.086 1793.22 L 865.275 1794.63 C 845.951 1828.76 815.379 1767.75 833.896 1756.18 C 845.493 1754.56 853.493 1768.85 856.838 1778.06 L 860.217 1778.01 C 860.829 1779.87 862.456 1785.17 863.179 1786.67 C 864.465 1789.02 865.511 1790.58 866.086 1793.22 z" fill="url(#Gradient11)" transform="translate(0,0)"></path>
<path d="M 834.584 1780.23 C 832.001 1774.43 829.014 1765.22 836.491 1761.9 C 844.836 1762.85 856.964 1778.16 850.825 1785.29 C 846.634 1786.58 844.165 1785.36 839.96 1783.82 C 838.298 1783.06 837.07 1781.42 835.706 1780 L 834.584 1780.23 z" fill="rgb(241,142,142)" transform="translate(0,0)"></path>
<path d="M 856.838 1778.06 L 860.217 1778.01 C 860.829 1779.87 862.456 1785.17 863.179 1786.67 C 855.094 1807.28 840.697 1793.3 834.584 1780.23 L 835.706 1780 C 837.07 1781.42 838.298 1783.06 839.96 1783.82 C 845.205 1787.91 849.896 1791.72 855.966 1787.1 C 857.757 1783.79 857.164 1781.84 856.838 1778.06 z" fill="rgb(255,255,255)" transform="translate(0,0)"></path>
<path d="M 815.191 1502.19 C 819.172 1501.81 822.629 1501.54 826.421 1503.03 C 831.384 1504.93 835.362 1508.77 837.446 1513.66 C 841.764 1523.67 839.888 1537.93 835.476 1547.7 C 831.186 1557.21 825.133 1562.29 815.522 1565.88 C 812.029 1566.1 808.52 1566.1 805.193 1564.85 C 800.015 1562.89 796.057 1559.04 793.799 1554.01 C 789.918 1545.37 790.577 1534.59 793.881 1525.9 C 798.053 1514.93 804.64 1507.17 815.191 1502.19 z" fill="rgb(14,6,7)" transform="translate(0,0)"></path>
<path d="M 820.47 1507.2 C 822.888 1507.52 824.828 1507.98 827.097 1508.88 C 829.921 1511.78 831.652 1514.47 832.649 1518.45 C 835.026 1527.95 831.754 1540.22 826.571 1548.28 C 822.546 1554.54 818.677 1557.27 811.476 1558.87 C 809.53 1558.49 807.785 1558.08 806.029 1557.12 C 801.829 1554.83 798.997 1550.31 797.887 1545.74 C 795.713 1536.79 798.956 1526.31 803.871 1518.8 C 808.283 1512.07 812.626 1508.82 820.47 1507.2 z" fill="rgb(255,255,255)" transform="translate(0,0)"></path>
<path d="M 816.119 1514.94 C 817.488 1514.86 818.898 1514.84 820.269 1514.92 C 823.12 1515.08 825.261 1516.23 826.94 1518.61 C 829.214 1521.85 829.415 1526.18 828.791 1529.95 C 827.335 1538.74 823.206 1546.06 816.044 1551.32 C 814.678 1551.57 813.365 1551.69 811.968 1551.57 C 809.269 1551.32 807.097 1550.18 805.548 1547.91 C 803.308 1544.63 803.182 1540.16 803.721 1536.36 C 805.049 1527 808.646 1520.6 816.119 1514.94 z" fill="rgb(14,6,7)" transform="translate(0,0)"></path>
<path d="M 816.47 1517.49 C 819.072 1517.68 821.192 1517.66 823.077 1519.78 C 825.494 1522.5 825.782 1526.19 825.298 1529.63 C 824.231 1537.21 820.573 1543.46 814.582 1548.09 C 811.985 1547.87 810.805 1547.35 808.644 1545.9 C 806.47 1542.66 805.723 1540.04 806.131 1536.1 C 806.957 1528.11 810.552 1522.57 816.47 1517.49 z" fill="rgb(241,142,142)" transform="translate(0,0)"></path>
<path d="M 804.094 1626.13 C 806.247 1626.45 808.543 1626.76 810.581 1627.55 C 815.7 1629.54 819.757 1635.55 821.951 1640.32 C 826.396 1649.98 829.457 1664.81 825.122 1674.78 C 822.466 1680.9 817.784 1684.21 811.705 1686.43 C 808.835 1685.86 805.788 1685.36 803.158 1684.03 C 795.726 1680.27 790.373 1672.2 788.075 1664.39 C 785.507 1655.65 785.78 1644.75 790.321 1636.68 C 793.642 1630.79 797.678 1627.9 804.094 1626.13 z" fill="rgb(14,6,7)" transform="translate(0,0)"></path>
<path d="M 821.88 1667.08 C 808.28 1697.82 787.615 1663.26 793.118 1644.61 C 797.973 1628.16 811.784 1626.69 818.534 1644.08 C 822.037 1647.9 822.284 1659.64 822.043 1664.55 C 822 1665.4 821.946 1666.24 821.88 1667.08 z" fill="rgb(14,6,7)" transform="translate(0,0)"></path>
<path d="M 821.88 1667.08 C 808.28 1697.82 787.615 1663.26 793.118 1644.61 C 797.973 1628.16 811.784 1626.69 818.534 1644.08 C 813.887 1639.04 810.179 1635.01 803.105 1638.11 C 795.554 1646.61 798.273 1669.64 811.598 1670.15 C 816.169 1668.01 817.363 1666.69 819.531 1662.08 L 821.88 1667.08 z" fill="rgb(255,255,255)" transform="translate(0,0)"></path>
<path d="M 818.534 1644.08 C 822.037 1647.9 822.284 1659.64 822.043 1664.55 C 822 1665.4 821.946 1666.24 821.88 1667.08 L 819.531 1662.08 C 820.46 1654.18 819.967 1651.65 818.534 1644.08 z" fill="rgb(250,218,213)" transform="translate(0,0)"></path>
<path d="M 806.84 1638.46 C 809.67 1638.74 812.006 1639.81 813.853 1642.02 C 817.344 1646.18 818.083 1651.88 817.381 1657.1 C 816.71 1662.09 815.457 1664.27 811.448 1667.31 C 810.048 1666.49 808.725 1665.7 807.521 1664.6 C 803.719 1661.15 801.048 1655.93 800.999 1650.74 C 800.947 1645.31 803.152 1642.19 806.84 1638.46 z" fill="rgb(241,142,142)" transform="translate(0,0)"></path>
<path d="M 1479.85 1283.2 C 1545.12 1281.04 1606.58 1242.66 1653.25 1199.53 C 1699.5 1156.81 1745.27 1123.65 1811.96 1133.28 C 1847.28 1138.38 1870.58 1155.11 1889.01 1185.49 C 1912.21 1229.28 1912.55 1282.35 1863.47 1307.66 C 1864.34 1304.87 1876.11 1295.83 1880.33 1290.93 C 1878.68 1289.64 1878.84 1289.63 1877.48 1287.99 L 1877.85 1284.81 C 1881.26 1274.55 1882.2 1270.46 1882.69 1259.45 C 1882.91 1254.34 1881.31 1244.98 1882.41 1241.75 L 1885.84 1240.35 L 1885.14 1240.18 L 1881.99 1240.08 C 1877.48 1234.65 1875.18 1224.51 1871.32 1219.2 C 1831.07 1163.7 1737.76 1179.56 1693.42 1220.42 C 1639.16 1270.43 1571.38 1323.67 1492.66 1313.88 C 1407.59 1305.61 1324.4 1263.09 1277.37 1191.02 C 1312.79 1227.68 1343.97 1256.72 1393.98 1272.99 C 1395.91 1273.62 1412.1 1278.86 1412.23 1278.99 L 1416.62 1279.23 L 1417.16 1280.43 L 1416.88 1281.15 C 1431.94 1282.58 1444.09 1282.25 1456.74 1291.12 L 1458.11 1286.63 L 1453.06 1283.46 C 1462.44 1282.8 1470.49 1283.02 1479.85 1283.2 z" fill="rgb(250,218,213)" transform="translate(0,0)"></path>
<path d="M 1885.14 1240.18 C 1898.3 1228.58 1899.49 1246.6 1898.06 1255.8 C 1895.84 1270.07 1889.95 1280.46 1880.33 1290.93 C 1878.68 1289.64 1878.84 1289.63 1877.48 1287.99 L 1877.85 1284.81 C 1881.26 1274.55 1882.2 1270.46 1882.69 1259.45 C 1882.91 1254.34 1881.31 1244.98 1882.41 1241.75 L 1885.84 1240.35 L 1885.14 1240.18 z" fill="rgb(14,6,7)" transform="translate(0,0)"></path>
<path d="M 1885.84 1240.35 C 1898.61 1247.79 1889.83 1266.7 1883.8 1276.27 C 1881.95 1279.2 1879.97 1282.05 1877.85 1284.81 C 1881.26 1274.55 1882.2 1270.46 1882.69 1259.45 C 1882.91 1254.34 1881.31 1244.98 1882.41 1241.75 L 1885.84 1240.35 z" fill="rgb(250,218,213)" transform="translate(0,0)"></path>
<path d="M 1416.88 1281.15 C 1431.94 1282.58 1444.09 1282.25 1456.74 1291.12 C 1459.66 1294.39 1459.65 1293.36 1459.99 1296.9 C 1451.55 1306.19 1417.94 1293.16 1416.88 1281.15 z" fill="rgb(216,156,173)" transform="translate(0,0)"></path>
<path d="M 1412.23 1278.99 L 1416.62 1279.23 L 1417.16 1280.43 L 1416.88 1281.15 C 1417.94 1293.16 1451.55 1306.19 1459.99 1296.9 C 1459.65 1293.36 1459.66 1294.39 1456.74 1291.12 L 1458.11 1286.63 C 1467.13 1293.15 1470.03 1301.04 1456.36 1303.8 C 1446.32 1305.82 1410.4 1293.36 1409.59 1281.75 L 1412.23 1278.99 z" fill="rgb(14,6,7)" transform="translate(0,0)"></path>
<path d="M 1748.26 1154.27 C 1752.29 1153.97 1756.99 1154.04 1760.94 1154.86 C 1765.86 1155.88 1773.6 1159.77 1775.93 1164.55 C 1777.17 1167.09 1777.32 1169.01 1776.26 1171.64 C 1771.89 1182.53 1747.77 1187.79 1737.23 1191.38 C 1736.22 1191.71 1735.22 1192.04 1734.2 1192.33 C 1729.07 1193.77 1721.52 1195.15 1716.74 1191.95 C 1714.45 1190.41 1713.01 1188.39 1712.51 1185.67 C 1711.53 1180.4 1713.81 1174.76 1716.87 1170.57 C 1724.35 1160.34 1736.23 1156.1 1748.26 1154.27 z" fill="rgb(14,6,7)" transform="translate(0,0)"></path>
<path d="M 1729.68 1167.07 C 1741.46 1159.97 1758.5 1154.63 1769.28 1166.44 C 1772.31 1178.61 1737.8 1185.14 1728.51 1188.69 C 1724.49 1188 1723.58 1187.73 1720.5 1185.32 C 1716.67 1177.24 1723.42 1171.37 1729.68 1167.07 z" fill="rgb(216,156,173)" transform="translate(0,0)"></path>
<path d="M 1729.68 1167.07 C 1732.72 1172.39 1730.77 1183.24 1728.51 1188.69 C 1724.49 1188 1723.58 1187.73 1720.5 1185.32 C 1716.67 1177.24 1723.42 1171.37 1729.68 1167.07 z" fill="rgb(237,178,184)" transform="translate(0,0)"></path>
<path d="M 1551.19 1274.17 C 1557.97 1273.44 1564.85 1273.19 1571.4 1275.44 C 1574.91 1276.65 1578.54 1278.92 1579.93 1282.56 C 1581.13 1285.69 1580.41 1289.02 1578.87 1291.87 C 1573.92 1300.98 1561.93 1303.83 1552.75 1306.53 C 1545.23 1308.16 1534.46 1309.85 1527.19 1306.85 C 1524.38 1305.69 1521.99 1303.64 1521.02 1300.67 C 1519.81 1296.97 1521.12 1292.93 1523.09 1289.75 C 1529.18 1279.93 1540.65 1276.69 1551.19 1274.17 z" fill="rgb(14,6,7)" transform="translate(0,0)"></path>
<path d="M 1551.85 1279.17 C 1554.53 1278.98 1557.3 1278.71 1559.99 1278.81 C 1565.21 1278.99 1570.56 1279.66 1574.26 1283.65 C 1574.9 1286.05 1575.03 1287.43 1573.88 1289.74 C 1569.68 1298.23 1555.87 1300.74 1547.67 1302.88 C 1543.46 1303.28 1538.23 1304.27 1534.08 1303.43 C 1530.9 1302.79 1528.99 1301.36 1527.23 1298.63 C 1526.95 1296.41 1526.93 1294.89 1528.07 1292.87 C 1532.77 1284.55 1543.17 1281.28 1551.85 1279.17 z" fill="url(#Gradient10)" transform="translate(0,0)"></path>
<path d="M 1834.62 1158.1 C 1837.42 1158.08 1840.31 1158.01 1843.08 1158.52 C 1854.27 1160.55 1866.37 1169.52 1872.31 1179.1 C 1874.93 1183.34 1876.51 1188.24 1875.07 1193.18 C 1873.53 1198.51 1869.98 1200.41 1865.46 1203.07 C 1857.15 1200.85 1836.57 1188.81 1830.74 1182.94 C 1827.64 1179.83 1825.19 1175.89 1825.48 1171.33 C 1825.84 1165.49 1830.39 1161.5 1834.62 1158.1 z" fill="rgb(14,6,7)" transform="translate(0,0)"></path>
<path d="M 1836.04 1163.04 C 1838.02 1162.98 1840.06 1162.9 1842.03 1163.12 C 1850.46 1164.06 1859.31 1171.69 1864.35 1178.16 C 1867.37 1182.03 1869.98 1186.67 1869.32 1191.71 C 1868.02 1194.17 1867.2 1194.84 1864.73 1196.09 C 1856.28 1193.84 1845.22 1188.95 1838.09 1183.8 C 1834.62 1181.29 1830.83 1177.64 1830.64 1173.07 C 1830.45 1168.73 1833.29 1165.94 1836.04 1163.04 z" fill="rgb(216,156,173)" transform="translate(0,0)"></path>
<path d="M 1656.76 1219.18 C 1659.45 1219.06 1661.89 1219.06 1664.55 1219.51 C 1668.32 1220.14 1671.22 1221.06 1673.52 1224.33 C 1674.11 1226.44 1674.29 1227.95 1673.59 1230.08 C 1669.58 1242.27 1650.03 1254.29 1639.21 1259.73 C 1635 1260.76 1631.17 1260.62 1627.03 1259.17 C 1624.77 1258.37 1623.04 1256.88 1622.2 1254.58 C 1620.61 1250.2 1623.37 1243.98 1625.67 1240.32 C 1632.28 1229.79 1644.96 1222.12 1656.76 1219.18 z" fill="rgb(14,6,7)" transform="translate(0,0)"></path>
<path d="M 1657.21 1224.23 C 1660.98 1224.13 1664.59 1224.29 1667.54 1226.87 C 1667.99 1228.37 1668.56 1229.17 1668.04 1230.74 C 1664.76 1240.56 1647.72 1250.08 1639.03 1254.89 C 1637.83 1255.01 1636.61 1255.14 1635.39 1255.16 C 1632.19 1255.22 1630.23 1254.23 1628.06 1251.98 C 1627.31 1249.03 1627.6 1247.2 1629.15 1244.54 C 1634.56 1235.24 1647.08 1227.16 1657.21 1224.23 z" fill="rgb(216,156,173)" transform="translate(0,0)"></path>
<path d="M 1118.35 1779.17 C 1143.22 1785.13 1145.06 1823.33 1145.18 1843.66 C 1141.26 1871.83 1135.73 1885.97 1115.79 1906.34 C 1059.47 1952.79 1010.86 1924.72 962.231 1883.93 C 1016 1905.03 1085.35 1909.62 1121.25 1854.13 C 1134.95 1832.96 1141.79 1800.44 1116.28 1784.71 C 1117.87 1782.8 1117.83 1781.64 1118.35 1779.17 z" fill="rgb(241,142,142)" transform="translate(0,0)"></path>
<path d="M 1011.74 1337 C 1001.59 1315.01 1016.99 1283.46 1041.56 1284.89 C 1037.91 1285.74 1032.97 1286.85 1029.79 1288.9 C 1018.76 1296 1004.36 1314.29 1010.9 1327.97 C 1011.74 1329.74 1012.12 1331.87 1012.57 1333.77 L 1014.7 1333.74 L 1016.53 1331.72 C 1015.71 1325.4 1012.32 1328.44 1013.59 1316.98 C 1014.61 1307.71 1029.51 1283.94 1040.46 1288.86 C 1044.3 1290.45 1043.88 1289.55 1045.13 1292.37 L 1045.01 1293.56 L 1045.25 1295.77 L 1044.6 1296.5 C 1035.74 1299.3 1020.53 1312.71 1022.75 1322.16 C 1025.08 1323.45 1025.18 1322.75 1028.63 1321.99 L 1029.41 1323.17 L 1033.62 1323.89 C 1030.81 1332.4 1028.14 1333.93 1032.92 1341.36 C 1031.79 1343.65 1032.67 1342.83 1030.27 1343.8 C 1029.28 1344.01 1028.29 1344.22 1027.3 1344.42 C 1014.41 1356.27 1002.29 1368.59 988.999 1380.02 C 987.198 1392.79 984.562 1399.47 974.464 1408.19 C 963.567 1417.6 952.317 1413.87 947.611 1415.68 C 945.615 1413.96 942.852 1407.97 938.964 1403.73 C 928.737 1378.19 957.849 1349.48 981.94 1364.96 C 991.904 1358.12 1003.17 1345.89 1011.74 1337 z" fill="rgb(56,16,34)" transform="translate(0,0)"></path>
<path d="M 1040.46 1288.86 C 1044.3 1290.45 1043.88 1289.55 1045.13 1292.37 L 1045.01 1293.56 L 1045.25 1295.77 L 1044.6 1296.5 C 1035.74 1299.3 1020.53 1312.71 1022.75 1322.16 C 1025.08 1323.45 1025.18 1322.75 1028.63 1321.99 L 1029.41 1323.17 C 1027.01 1325.3 1026 1326.5 1022.97 1327.63 C 1020.93 1329.49 1022.16 1329.02 1019.33 1329.37 C 1012.96 1324.84 1015.17 1315.57 1017.86 1309.17 C 1022.46 1298.24 1029.67 1292.94 1040.46 1288.86 z" fill="rgb(255,255,255)" transform="translate(0,0)"></path>
<path d="M 1022.97 1327.63 C 1020.85 1326.44 1021 1326.38 1019.58 1324.35 C 1018.56 1311.6 1032.42 1295.85 1045.01 1293.56 L 1045.25 1295.77 L 1044.6 1296.5 C 1035.74 1299.3 1020.53 1312.71 1022.75 1322.16 C 1025.08 1323.45 1025.18 1322.75 1028.63 1321.99 L 1029.41 1323.17 C 1027.01 1325.3 1026 1326.5 1022.97 1327.63 z" fill="rgb(14,6,7)" transform="translate(0,0)"></path>
<path d="M 960.033 1401.97 C 934.297 1411.86 943.101 1375.57 957.746 1369.31 C 961.806 1367.57 970.874 1364.14 973.46 1369.41 C 970.714 1371.84 970.571 1371 965.793 1371.21 L 968.207 1372.07 C 973.068 1373 972.196 1372.07 975.002 1375.03 C 975.809 1378.54 974.036 1382.67 972.791 1386.19 C 972.274 1389.26 972.561 1389.26 971.214 1391.91 C 968.016 1397.63 966.015 1399.16 960.033 1401.97 z" fill="rgb(241,142,142)" transform="translate(0,0)"></path>
<path d="M 960.033 1401.97 C 934.297 1411.86 943.101 1375.57 957.746 1369.31 C 961.806 1367.57 970.874 1364.14 973.46 1369.41 C 970.714 1371.84 970.571 1371 965.793 1371.21 C 956.421 1375.85 946.92 1386.52 949.836 1397.58 C 952.857 1400.66 953.762 1400.98 958.279 1400.27 L 960.033 1401.97 z" fill="url(#Gradient9)" transform="translate(0,0)"></path>
<path d="M 958.279 1400.27 C 953.762 1400.98 952.857 1400.66 949.836 1397.58 C 946.92 1386.52 956.421 1375.85 965.793 1371.21 L 968.207 1372.07 C 960.763 1376.36 951.556 1383.01 953.638 1392.96 C 959.556 1399.09 968.017 1390.63 972.791 1386.19 C 972.274 1389.26 972.561 1389.26 971.214 1391.91 C 968.016 1397.63 966.015 1399.16 960.033 1401.97 L 958.279 1400.27 z" fill="rgb(14,6,7)" transform="translate(0,0)"></path>
<path d="M 971.214 1391.91 C 968.016 1397.63 966.015 1399.16 960.033 1401.97 L 958.279 1400.27 C 962.441 1397.85 967.133 1394.59 971.214 1391.91 z" fill="rgb(216,156,173)" transform="translate(0,0)"></path>
<path d="M 663.949 105.953 L 663.969 104.399 C 682.613 96.8311 701.65 93.3249 721.114 88.9768 C 781.611 75.4621 845.72 90.4494 902.177 114.321 C 961.947 139.04 1016.71 174.448 1063.78 218.808 L 1060.93 221.516 C 975.353 143.861 846.095 73.2248 726.819 89.963 C 705.275 92.9862 684.619 99.4137 663.949 105.953 z" fill="rgb(56,16,34)" transform="translate(0,0)"></path>
<path d="M 372.051 444.607 L 375.272 447.085 C 361.206 492.982 353.163 540.512 351.346 588.481 C 350.545 605.846 348.556 629.106 357.308 643.737 C 382.329 685.57 420.11 728.211 455.15 761.535 L 450.015 761.355 C 446.367 759.267 435.657 747.795 432.069 744.194 C 401.949 713.967 374.782 681.189 352.782 644.559 C 343.517 629.131 345.887 608.91 346.512 591.35 C 348.31 540.838 357.65 493.019 372.051 444.607 z" fill="url(#Gradient8)" transform="translate(0,0)"></path>
<path d="M 881.62 1424.34 C 880.672 1426.49 879.633 1428.55 878.491 1430.59 L 878.561 1431.52 C 885.683 1425.8 894.847 1420.79 903.755 1425.89 L 905.092 1428.1 C 906.448 1434.3 906.149 1435.13 903.385 1440.93 C 902.094 1442.83 900.904 1444.51 899.752 1446.51 L 901.149 1447.43 C 896.834 1457.82 893.661 1456.87 888.516 1462.99 L 889.189 1464.34 L 881.532 1467.23 C 879.546 1469.35 875.769 1474.05 874.107 1475.54 C 865.487 1467.96 862.55 1459.76 864.998 1448.29 C 867.103 1438.4 873.092 1429.77 881.62 1424.34 z" fill="rgb(255,255,255)" transform="translate(0,0)"></path>
<path d="M 888.516 1462.99 C 865.367 1464.45 880.887 1427.11 899.848 1434.03 C 900.333 1437.46 901.283 1438.21 903.385 1440.93 C 902.094 1442.83 900.904 1444.51 899.752 1446.51 L 901.149 1447.43 C 896.834 1457.82 893.661 1456.87 888.516 1462.99 z" fill="rgb(237,178,184)" transform="translate(0,0)"></path>
<path d="M 888.516 1462.99 C 865.367 1464.45 880.887 1427.11 899.848 1434.03 C 898.322 1435.33 896.063 1436.58 894.069 1436.85 C 886.009 1437.95 874.617 1452.41 884.468 1458.13 C 892.474 1458.12 895.464 1452.58 899.752 1446.51 L 901.149 1447.43 C 896.834 1457.82 893.661 1456.87 888.516 1462.99 z" fill="rgb(14,6,7)" transform="translate(0,0)"></path>
<path d="M 881.62 1424.34 C 880.672 1426.49 879.633 1428.55 878.491 1430.59 L 878.561 1431.52 C 885.683 1425.8 894.847 1420.79 903.755 1425.89 L 905.092 1428.1 C 897.046 1425.96 896.184 1423.32 887.267 1427.65 C 873.94 1434.13 860.043 1461.79 881.532 1467.23 C 879.546 1469.35 875.769 1474.05 874.107 1475.54 C 865.487 1467.96 862.55 1459.76 864.998 1448.29 C 867.103 1438.4 873.092 1429.77 881.62 1424.34 z" fill="url(#Gradient7)" transform="translate(0,0)"></path>
<path d="M 458.308 768.498 L 462.864 768.35 C 528.281 828.667 593.253 865.935 676.002 899.794 C 694.53 907.375 714.196 913.168 732.553 920.398 C 733.831 922.216 733.641 921.467 734.003 923.486 C 711.569 916.139 692.051 910.728 669.368 901.925 C 591.032 871.549 519.349 826.232 458.308 768.498 z" fill="url(#Gradient6)" transform="translate(0,0)"></path>
<path d="M 424.018 1265.3 C 424.189 1265.15 424.36 1264.99 424.531 1264.84 C 502.236 1213.27 587.008 1247.16 667.35 1257.29 C 660.506 1259.37 639.599 1254.99 631.666 1253.24 C 602.441 1246.8 575.789 1242.49 545.956 1239.95 L 545.559 1240.86 C 551.39 1245.05 586.876 1245.38 595.131 1249.04 C 603.211 1252.62 675.248 1262.88 676.059 1263.4 L 669.767 1264.08 C 601.21 1257.36 530.987 1226.74 459.932 1253.94 C 441.56 1260.98 437.25 1265.72 422.296 1273.57 L 421.709 1272.27 C 425.473 1269.6 433.755 1263.37 437.562 1261.48 C 443.234 1258.67 467.052 1250.44 470.293 1246.88 C 462.374 1245.24 433.504 1261.6 425.691 1266.1 L 424.018 1265.3 z" fill="rgb(14,6,7)" transform="translate(0,0)"></path>
<path d="M 372.051 444.607 C 393.059 377.285 418.77 323.506 459.026 265.429 C 464.09 258.122 477.983 237.705 485.83 236.354 C 438.037 295.471 395.742 373.625 375.272 447.085 L 372.051 444.607 z" fill="rgb(14,6,7)" transform="translate(0,0)"></path>
<path d="M 562.723 1669.77 C 562.732 1673.69 563.159 1671.77 560.636 1675.49 L 557.878 1675.52 C 557.135 1671.12 560.059 1669.51 561.075 1665.93 C 564.464 1654.01 560.888 1637.57 556.165 1626.91 C 541.687 1594.24 506.036 1582.01 472.817 1579.61 C 465.624 1579.1 447.733 1579.23 441.857 1576.94 L 442.48 1575.71 C 449.485 1576.57 453.257 1576.25 460.296 1575.86 C 489.997 1576.48 524.751 1583.29 546.226 1605.6 C 561.225 1621.18 570.446 1648.95 562.723 1669.77 z" fill="rgb(56,16,34)" transform="translate(0,0)"></path>
<path d="M 1044.6 1296.5 C 1040.85 1307.59 1039.92 1312.3 1028.23 1315.56 L 1026.88 1317.1 C 1029.72 1317.77 1030.49 1317.18 1033.56 1316.52 C 1031.9 1318.43 1030.4 1320.17 1028.63 1321.99 C 1025.18 1322.75 1025.08 1323.45 1022.75 1322.16 C 1020.53 1312.71 1035.74 1299.3 1044.6 1296.5 z" fill="rgb(237,178,184)" transform="translate(0,0)"></path>
<path d="M 1145.18 1843.66 C 1150.44 1855.34 1139.15 1878.28 1133.87 1888.92 C 1129.84 1897.05 1124.61 1903.42 1116.61 1907.9 L 1115.79 1906.34 C 1135.73 1885.97 1141.26 1871.83 1145.18 1843.66 z" fill="rgb(56,16,34)" transform="translate(0,0)"></path>
<path d="M 1427.66 1271.62 C 1441.94 1273.55 1453.78 1275.15 1468.28 1275.38 C 1474.81 1278.83 1476.48 1273.23 1479.88 1278.96 L 1479.85 1283.2 C 1470.49 1283.02 1462.44 1282.8 1453.06 1283.46 L 1452.73 1284.38 L 1451.45 1284.47 L 1450.45 1283.08 C 1453.44 1281.05 1459.3 1282.67 1464.89 1281.44 L 1464.83 1278.86 C 1460.83 1275.47 1435.7 1275.84 1426.34 1272.56 L 1427.66 1271.62 z" fill="rgb(14,6,7)" transform="translate(0,0)"></path>
<path d="M 293.792 1377.05 C 292.104 1366.02 293.721 1355.61 297.335 1345.14 C 298.27 1342.44 300.363 1339.9 301.447 1336.9 L 302.987 1336.71 C 298.849 1350.99 296.023 1362.15 293.792 1377.05 z" fill="rgb(56,16,34)" transform="translate(0,0)"></path>
<path d="M 901.149 1447.43 L 902.969 1445.71 C 903.997 1452.96 894.897 1460.88 889.189 1464.34 L 888.516 1462.99 C 893.661 1456.87 896.834 1457.82 901.149 1447.43 z" fill="rgb(191,184,182)" transform="translate(0,0)"></path>
<path d="M 450.015 761.355 L 455.15 761.535 L 462.864 768.35 L 458.308 768.498 C 455.483 766.908 452.481 763.68 450.015 761.355 z" fill="rgb(56,16,34)" transform="translate(0,0)"></path>
<path d="M 1561.22 477.344 C 1673.42 464.681 1672.76 608.715 1732.47 665.709 C 1745.67 678.3 1761.16 686.614 1780.08 685.678 C 1809.11 684.243 1815.81 665.705 1831.86 647.859 L 1833.36 647.799 C 1835.33 651.368 1834.98 656.971 1834.81 661.003 C 1833.45 693.943 1809.53 702.815 1782.67 710.131 C 1728.26 724.952 1683.06 677.274 1657.17 635.557 C 1639.49 607.079 1630.03 570.022 1599.85 551.762 C 1558.79 527.696 1527.5 571.722 1528.75 609.234 C 1530.27 655.08 1550.87 696.843 1564.02 739.899 C 1582.92 801.802 1593.26 863.384 1561.68 923.32 C 1557.17 931.388 1551.98 939.055 1546.16 946.238 C 1487.94 1018.19 1373.76 1046.99 1297.95 984.969 C 1294.19 970.597 1270.99 864.749 1281.06 856.276 C 1285.17 862.111 1288.33 871.056 1292.09 877.55 C 1319.09 924.197 1374.81 960.455 1430.01 952.656 C 1456.39 948.799 1480.16 934.605 1496.07 913.203 C 1538.93 856.188 1532.45 776.468 1505.66 714.626 C 1491.83 683.144 1478.38 657.683 1472.9 623.225 C 1462.63 558.619 1488.72 487.297 1561.22 477.344 z" fill="rgb(201,101,127)" transform="translate(0,0)"></path>
<path d="M 1130.92 354.84 C 1139.76 354.523 1155.85 361.357 1163.76 365.514 C 1261.41 416.875 1323.41 563.802 1270.05 665.454 C 1260.06 684.497 1244.01 697.706 1223.61 703.888 C 1210.25 706.84 1196.37 706.52 1183.16 702.957 C 1149.08 693.466 1120.28 659.332 1102.28 630.491 C 1054.75 554.319 1039.45 404.78 1130.92 354.84 z" fill="rgb(255,255,255)" transform="translate(0,0)"></path>
<path d="M 1153.06 440.307 C 1239.35 433.723 1276.25 574.851 1242.27 636.887 C 1230.18 658.953 1218.69 667.559 1193.81 671.567 C 1089.01 667.919 1046.23 456.222 1153.06 440.307 z" fill="rgb(78,23,49)" transform="translate(0,0)"></path>
<path d="M 1172.44 448.297 C 1191.58 449.457 1211.31 461.287 1216.25 480.712 C 1218.44 489.19 1217.15 498.192 1212.66 505.712 C 1206.52 515.837 1197.38 519.878 1186.6 522.811 C 1136.29 529.915 1121.63 459.554 1172.44 448.297 z" fill="rgb(255,255,255)" transform="translate(0,0)"></path>
<path d="M 1225.6 560.422 C 1234.38 556.043 1235.58 553.991 1240.16 545.326 C 1246.87 575.989 1247.33 609.917 1230.13 637.448 C 1223.11 648.683 1207.89 660.477 1194.11 659.726 C 1186.41 658.749 1168.96 656.339 1164.88 649.358 L 1165.43 647.352 C 1169.23 644.68 1167.93 645.496 1173.17 645.112 C 1176.5 645.799 1183.11 647.356 1186.23 646.816 C 1224.01 640.274 1226.27 589.001 1225.6 560.422 z" fill="rgb(163,124,165)" transform="translate(0,0)"></path>
<path d="M 1154.49 448.653 C 1144.22 459.162 1123.49 487.332 1115.69 499.873 C 1103.12 520.055 1108.73 556.266 1116.02 577.792 C 1125.85 606.837 1144.93 631.249 1173.17 645.112 C 1167.93 645.496 1169.23 644.68 1165.43 647.352 L 1164.88 649.358 C 1168.96 656.339 1186.41 658.749 1194.11 659.726 C 1110.95 667.272 1055.03 469.837 1154.49 448.653 z" fill="url(#Gradient5)" transform="translate(0,0)"></path>
<path d="M 1211.21 524.173 C 1234.54 521.791 1244.1 544.743 1225.02 554.478 C 1203.92 556.031 1191.08 536.688 1211.21 524.173 z" fill="rgb(255,255,255)" transform="translate(0,0)"></path>
<path d="M 1222.99 497.582 C 1227.04 505.173 1235.43 518.805 1236.31 526.715 L 1235.5 525.87 C 1228.91 519.796 1224.64 517.459 1216.86 513.516 C 1219.01 508.245 1221.05 502.932 1222.99 497.582 z" fill="rgb(124,66,106)" transform="translate(0,0)"></path>
<path d="M 1224.4 1117.64 C 1228.64 1129.14 1230.08 1153.15 1232.44 1166.41 C 1241.19 1215.53 1255.13 1270.56 1282.96 1312.52 C 1324.49 1375.12 1389.07 1398.82 1461.73 1402.2 C 1500.95 1404.03 1536.53 1402.22 1575.55 1410.35 C 1634.46 1422.63 1688.82 1458.05 1721.49 1508.82 C 1750.6 1554.07 1757.95 1608.39 1746.6 1660.66 C 1734.98 1714.15 1705.45 1757.66 1659.56 1787.28 C 1657.78 1787.85 1657.43 1787.84 1655.68 1787.57 C 1654.64 1785.24 1654.77 1783.89 1655.67 1781.46 C 1658.95 1772.62 1665.07 1763.84 1669.76 1755.61 C 1679.24 1738.94 1688.43 1721.31 1694.38 1703.05 C 1708.75 1658.99 1707.73 1606.43 1686.43 1564.78 C 1674.91 1542.25 1657.64 1522.88 1638.01 1507.1 C 1567.25 1450.19 1475.77 1455.38 1390.84 1442.39 C 1372.04 1439.52 1353.62 1436.64 1335.48 1430.65 C 1284.38 1413.75 1235.32 1378.73 1203.91 1334.78 C 1194.97 1322.29 1187.98 1308.87 1181.12 1295.18 C 1194.37 1250.33 1208.36 1204.91 1217.98 1159.13 C 1220.87 1145.34 1221.87 1131.43 1224.4 1117.64 z" fill="rgb(201,101,127)" transform="translate(0,0)"></path>
<path d="M 1178.11 1302.95 C 1207.64 1366.11 1260.48 1411.6 1325.89 1434.88 C 1425.3 1470.25 1547.18 1441.3 1633 1511.88 C 1653.35 1528.47 1669.79 1549.33 1681.16 1573 C 1701.32 1615.01 1698.72 1665.12 1683.29 1708.17 C 1682.08 1711.54 1680.85 1714.9 1679.58 1718.24 C 1683.95 1673.9 1673.62 1632.1 1644.76 1596.03 C 1613.13 1556.51 1553.95 1533.04 1504.91 1523.26 C 1495.06 1521.3 1473.55 1520.97 1463.26 1518.16 C 1460.11 1517.3 1464.23 1511.69 1458.54 1504.3 L 1458.12 1505.76 C 1453.12 1501.26 1451.65 1498.27 1445.95 1497.57 L 1445.21 1498.39 C 1448.77 1500.79 1448.79 1499.92 1449.47 1502.99 L 1449.04 1503.6 C 1454.18 1507.22 1456.84 1510.19 1454.57 1516.61 C 1443.29 1527.81 1391.98 1514.56 1376.88 1512.11 C 1358.37 1509.11 1337.73 1505.94 1319.63 1500.81 C 1280.29 1487.91 1243.44 1450.91 1213.54 1423.12 C 1193.6 1404.58 1179.81 1377.03 1166.5 1353.84 C 1170.09 1335.29 1173.27 1321.17 1178.11 1302.95 z" fill="url(#Gradient4)" transform="translate(0,0)"></path>
<path d="M 1447.22 1512.16 L 1445.27 1511.55 C 1435.44 1514.17 1405.53 1516.25 1403.25 1503.74 C 1411.17 1492.12 1438.45 1497.85 1449.47 1502.99 L 1449.04 1503.6 C 1446.63 1507.35 1447.44 1506.96 1447.22 1512.16 z" fill="rgb(216,156,173)" transform="translate(0,0)"></path>
<path d="M 1447.22 1512.16 L 1445.59 1514.3 C 1437.56 1516.93 1393.71 1516.09 1397.49 1503.7 C 1403.22 1484.98 1449 1487.35 1458.54 1504.3 L 1458.12 1505.76 C 1453.12 1501.26 1451.65 1498.27 1445.95 1497.57 L 1445.21 1498.39 C 1448.77 1500.79 1448.79 1499.92 1449.47 1502.99 C 1438.45 1497.85 1411.17 1492.12 1403.25 1503.74 C 1405.53 1516.25 1435.44 1514.17 1445.27 1511.55 L 1447.22 1512.16 z" fill="rgb(14,6,7)" transform="translate(0,0)"></path>
<path d="M 1555.34 1500.15 C 1563.46 1499.21 1571 1500.79 1578.59 1503.54 C 1588.68 1507.19 1602.9 1514.28 1607.27 1524.62 C 1608.66 1527.91 1608.74 1531.16 1607.22 1534.44 C 1604.63 1540.04 1598.69 1542.66 1593.37 1544.87 C 1581.26 1542.84 1567.87 1537.25 1556.25 1533 C 1550.27 1530.82 1542.98 1527.48 1540.41 1521.17 C 1539.06 1517.83 1539.61 1514.73 1541.02 1511.54 C 1544.12 1504.52 1548.5 1502.67 1555.34 1500.15 z" fill="rgb(14,6,7)" transform="translate(0,0)"></path>
<path d="M 1555.06 1505.2 C 1560.9 1504.61 1566.26 1504.94 1571.93 1506.58 C 1580.94 1509.18 1597.69 1515.81 1601.61 1524.88 C 1602.64 1527.27 1602.95 1529.65 1601.73 1532.05 C 1599.72 1535.99 1595.61 1537.83 1591.76 1539.43 C 1582.85 1537.27 1551.12 1527.62 1546.72 1520.46 C 1545.39 1518.3 1544.88 1516.37 1545.76 1513.9 C 1547.31 1509.59 1551.32 1507.35 1555.06 1505.2 z" fill="rgb(216,156,173)" transform="translate(0,0)"></path>
<path d="M 1667.25 1578.94 C 1669.3 1579.01 1671.56 1579.03 1673.51 1579.71 C 1679.3 1581.74 1683.19 1588.38 1685.46 1593.67 C 1689.86 1603.96 1693.45 1620.16 1688.82 1630.69 C 1686.98 1634.88 1684.73 1636.5 1680.58 1638.23 C 1674.5 1636.2 1671.16 1632.82 1667.64 1627.53 C 1661.27 1617.97 1654.35 1601.95 1657.04 1590.42 C 1658.4 1584.6 1662.36 1581.8 1667.25 1578.94 z" fill="rgb(14,6,7)" transform="translate(0,0)"></path>
<path d="M 1666.82 1584.57 C 1669.75 1584.78 1672.18 1585.12 1674.6 1586.94 C 1680.74 1591.57 1683.66 1602.76 1684.81 1610.12 C 1686.1 1618.36 1686.29 1625.32 1681.19 1632.23 C 1679.57 1631.62 1678.17 1630.91 1676.82 1629.82 C 1668.68 1623.19 1662.79 1608.15 1662.08 1597.76 C 1661.69 1592.01 1663.21 1588.92 1666.82 1584.57 z" fill="rgb(216,156,173)" transform="translate(0,0)"></path>
<path d="M 1301.14 1460.64 C 1302.92 1460.42 1304.71 1460.21 1306.5 1460.2 C 1317.01 1460.14 1329.31 1466.82 1336.27 1474.4 C 1339.91 1478.36 1344.03 1485.08 1343.28 1490.74 C 1342.98 1493.03 1342.38 1495.32 1340.35 1496.7 C 1337.77 1498.45 1335.5 1498.06 1332.62 1497.71 C 1323.3 1495.54 1313.81 1493.39 1305.02 1489.51 C 1299.78 1487.19 1291.34 1482.88 1289.63 1476.84 C 1288.59 1473.18 1289.45 1469.74 1291.33 1466.52 C 1293.61 1462.6 1297.08 1461.82 1301.14 1460.64 z" fill="rgb(14,6,7)" transform="translate(0,0)"></path>
<path d="M 1304.16 1464.88 C 1310.06 1466.02 1315.33 1468.01 1320.52 1471.03 C 1327.53 1475.13 1335.63 1481.25 1337.7 1489.38 C 1334.68 1491.69 1334.49 1491.7 1330.76 1491.65 C 1320.32 1490.39 1303.92 1487.64 1297.03 1478.86 C 1295.86 1477.36 1295.08 1475.2 1295.49 1473.31 C 1296.51 1468.72 1300.4 1466.97 1304.16 1464.88 z" fill="rgb(241,142,142)" transform="translate(0,0)"></path>
<path d="M 1212.89 1392.95 C 1216.47 1392.85 1220.07 1393.06 1223.51 1394.11 C 1234.66 1397.51 1245.05 1407.44 1250.46 1417.65 C 1252.6 1421.7 1253.87 1426.54 1252.36 1431.02 C 1251.12 1434.67 1248.39 1436.14 1245.22 1437.89 C 1243.58 1437.86 1241.9 1437.81 1240.28 1437.51 C 1229.25 1435.43 1214.01 1420.37 1208.5 1410.87 C 1206.46 1407.36 1204.62 1402.65 1206.23 1398.63 C 1207.41 1395.67 1210.27 1394.36 1212.89 1392.95 z" fill="rgb(14,6,7)" transform="translate(0,0)"></path>
<path d="M 1212.09 1399.08 C 1216.45 1398.89 1220.26 1398.78 1224.35 1400.51 C 1233.35 1404.33 1242.49 1412.02 1245.81 1421.44 C 1247.35 1425.8 1246.85 1428.14 1245.01 1432.18 C 1242.39 1432.24 1239.97 1431.98 1237.49 1431.12 C 1227.91 1427.8 1217.14 1418.19 1212.8 1409.13 C 1211.04 1405.45 1210.61 1403.03 1212.09 1399.08 z" fill="rgb(241,142,142)" transform="translate(0,0)"></path>
<path d="M 1301.72 1001.09 C 1341.95 1032.46 1394.13 1035.17 1442.04 1023.38 C 1494.9 1009.82 1540.38 976.173 1568.82 929.603 C 1602.48 873.307 1597.34 810.954 1577.4 751.354 C 1573.71 740.352 1569.55 728.65 1566.78 717.431 C 1574.4 734.947 1616.73 814.519 1617.75 826.922 C 1618.36 828.399 1619.48 830.78 1619.75 832.242 C 1625.7 846.106 1625.3 863.291 1628.9 873.95 L 1629.3 870.755 L 1630.11 871.371 C 1630.57 876.257 1631 877.667 1628.92 882.176 C 1633.19 889.141 1628.4 922.387 1626.17 930.622 C 1599.07 1031.03 1481.79 1088.88 1385.05 1064.64 C 1378.35 1062.95 1371.75 1060.85 1365.3 1058.36 C 1360.8 1056.63 1343.01 1048.6 1340.46 1048.39 C 1338.61 1049.46 1339.37 1049.11 1337.04 1049.25 C 1332.36 1047 1334.23 1048.57 1331.2 1044.37 L 1332.95 1043.03 C 1328.3 1041.54 1316.42 1034.07 1315.19 1029.19 L 1313.44 1029.2 C 1311.05 1027.01 1311.78 1028.34 1311.31 1025.02 L 1312.77 1023.36 L 1311.07 1023.1 C 1306.85 1020.18 1303.25 1006.16 1301.72 1001.09 z" fill="rgb(250,218,213)" transform="translate(0,0)"></path>
<path d="M 1619.75 832.242 C 1625.7 846.106 1625.3 863.291 1628.9 873.95 C 1621.75 883.185 1598.54 858.519 1619.75 832.242 z" fill="rgb(250,218,213)" transform="translate(0,0)"></path>
<path d="M 1617.75 826.922 C 1618.36 828.399 1619.48 830.78 1619.75 832.242 C 1598.54 858.519 1621.75 883.185 1628.9 873.95 L 1629.3 870.755 L 1630.11 871.371 C 1630.57 876.257 1631 877.667 1628.92 882.176 C 1604.4 886.828 1593.99 842.255 1617.75 826.922 z" fill="rgb(14,6,7)" transform="translate(0,0)"></path>
<path d="M 1312.77 1023.36 C 1328.54 1027.55 1340.67 1029.37 1340.46 1048.39 C 1338.61 1049.46 1339.37 1049.11 1337.04 1049.25 C 1332.36 1047 1334.23 1048.57 1331.2 1044.37 L 1332.95 1043.03 C 1328.3 1041.54 1316.42 1034.07 1315.19 1029.19 L 1313.44 1029.2 C 1311.05 1027.01 1311.78 1028.34 1311.31 1025.02 L 1312.77 1023.36 z" fill="url(#Gradient3)" transform="translate(0,0)"></path>
<path d="M 1332.95 1043.03 C 1328.3 1041.54 1316.42 1034.07 1315.19 1029.19 C 1322.35 1031.54 1328.82 1032.69 1333.45 1038.48 C 1333.96 1041.58 1334.13 1040.12 1332.95 1043.03 z" fill="rgb(255,255,255)" transform="translate(0,0)"></path>
<path d="M 1522.09 1006.37 C 1526.09 1006.36 1530.13 1007.24 1534.07 1007.88 C 1537.83 1011.03 1541.6 1014.58 1542.7 1019.55 C 1543.57 1023.45 1542.7 1027.31 1540.47 1030.6 C 1532.91 1041.79 1513.83 1048.33 1501.19 1051.01 C 1495.67 1051.57 1489.27 1050.22 1484.71 1046.97 C 1481.97 1045.01 1480.34 1042.09 1479.95 1038.77 C 1479.33 1033.44 1481.44 1027.98 1484.66 1023.81 C 1492.99 1013.04 1509.1 1008.13 1522.09 1006.37 z" fill="rgb(14,6,7)" transform="translate(0,0)"></path>
<path d="M 1522.79 1011.3 C 1525.01 1011.43 1526.89 1011.56 1528.99 1012.35 C 1533.21 1013.93 1535.93 1015.16 1537.86 1019.32 C 1537.81 1021.64 1537.45 1023.3 1536.24 1025.33 C 1529.1 1037.35 1513.85 1042.57 1501.04 1045.65 C 1496.71 1045.44 1493.5 1044.59 1489.62 1042.57 C 1486.4 1040.89 1485.52 1039.79 1484.42 1036.37 C 1484.85 1033.63 1485.44 1031.74 1487.07 1029.47 C 1494.91 1018.56 1509.98 1013.21 1522.79 1011.3 z" fill="rgb(216,156,173)" transform="translate(0,0)"></path>
<path d="M 1595.25 930.076 C 1598.23 930.046 1601.03 930.044 1603.8 931.285 C 1607.35 932.874 1610.34 935.64 1611.68 939.352 C 1614.27 946.587 1612.11 955.243 1608.87 961.913 C 1604.39 971.16 1598.32 977.617 1588.57 980.954 C 1585.73 980.764 1583.18 980.543 1580.56 979.361 C 1574.68 976.717 1572.78 970.597 1570.84 964.971 C 1571.36 962.197 1571.91 959.431 1572.77 956.74 C 1576.48 945.201 1584.43 935.534 1595.25 930.076 z" fill="rgb(14,6,7)" transform="translate(0,0)"></path>
<path d="M 1594.44 937.057 C 1596.21 936.784 1597.9 936.474 1599.69 936.826 C 1602.01 937.283 1604.47 938.665 1605.71 940.738 C 1607.61 943.903 1607.17 948.109 1606.37 951.524 C 1604.06 961.324 1598.77 968.544 1590.44 973.962 C 1589.43 974.071 1589.07 974.134 1587.95 974.118 C 1584.63 974.07 1581.26 973.131 1579.22 970.293 C 1577.48 967.865 1577.32 964.622 1577.74 961.771 C 1579.29 951.196 1586.03 943.033 1594.44 937.057 z" fill="rgb(216,156,173)" transform="translate(0,0)"></path>
<path d="M 1393.59 1035.43 C 1401.66 1034.91 1411.54 1035.98 1417.74 1041.62 C 1420.55 1044.17 1422.63 1047.99 1422.64 1051.84 C 1422.64 1054.68 1421.49 1057.4 1419.45 1059.38 C 1413.96 1064.81 1406.81 1064.01 1399.73 1063.85 C 1390.97 1062.8 1378.79 1062.24 1371.64 1056.64 C 1369.61 1055.06 1368.14 1052.94 1368.05 1050.29 C 1367.88 1044.9 1372.51 1040.88 1376 1037.47 C 1381.8 1036.22 1387.68 1035.88 1393.59 1035.43 z" fill="rgb(14,6,7)" transform="translate(0,0)"></path>
<path d="M 1381.4 1041.35 C 1384.31 1041.1 1387.24 1040.94 1390.16 1040.87 C 1396.89 1040.76 1410.6 1040.74 1414.99 1046.5 C 1416.73 1048.77 1416.41 1050.38 1416.25 1053.03 C 1414.36 1055.73 1413.59 1055.73 1410.58 1056.85 C 1405.61 1056.96 1400.6 1057.1 1395.65 1056.72 C 1389.91 1056.28 1378.49 1055.57 1374.94 1050.68 C 1374 1049.39 1374.51 1048.65 1374.74 1047.19 C 1376.64 1044.55 1378.7 1043.14 1381.4 1041.35 z" fill="rgb(216,156,173)" transform="translate(0,0)"></path>
<path d="M 380.622 1215.43 C 380.264 1217.23 376.026 1218.91 374.399 1219.9 C 364.799 1225.75 355.778 1233.33 347.318 1240.71 C 324.54 1260.58 307.816 1282.03 295.336 1309.69 C 268.754 1369.29 266.66 1436.94 289.504 1498.07 C 269.226 1497.93 254.284 1493.21 238.232 1480.68 C 221.926 1465.65 210.75 1447.08 205.718 1425.42 C 197.141 1388.49 205.567 1342.51 225.744 1310.54 C 259.135 1257.64 321.507 1228.85 380.622 1215.43 z" fill="rgb(255,255,255)" transform="translate(0,0)"></path>
<path d="M 213.545 1301.02 C 227.623 1257.03 246.621 1216.98 284.718 1188.76 C 357.157 1135.11 449.278 1161.3 529.485 1179.99 C 516.26 1181.36 478.184 1182.49 468.024 1187.64 L 467.843 1189.55 C 463.308 1191.56 457.47 1192.86 453.311 1189.48 C 446.344 1188.7 434.943 1191.66 427.899 1193.36 C 423.867 1194.29 420.608 1195.27 416.444 1195.29 C 415.685 1199.32 416.675 1197.91 414.286 1200.26 C 411.293 1199.15 410.836 1197.72 409.124 1194.98 C 394.86 1195.48 379.497 1199.43 365.677 1202.86 C 362.158 1203.74 350.572 1207.03 347.557 1207.1 L 345.148 1207.47 C 342.07 1209.25 341.376 1209.5 338.174 1210.72 C 332.09 1214.91 322.88 1217.32 316.626 1221.01 L 312.592 1222.84 C 306.847 1224.98 281.03 1239.74 280.061 1239.8 C 277.249 1242.41 278.725 1242.04 275.711 1242.36 C 274.711 1243.37 274.003 1243.83 272.874 1244.69 C 270.565 1243.69 270.002 1242.57 268.372 1240.6 L 267.55 1241.47 C 270.502 1250.16 260.68 1251.45 254.782 1257.22 C 253.536 1259.82 253.005 1259.43 250.013 1261.19 C 239.744 1265.76 220.594 1291.64 213.545 1301.02 z" fill="rgb(250,218,213)" transform="translate(0,0)"></path>
<path d="M 409.124 1194.98 C 410.958 1192.06 411.763 1188.06 413.831 1185.11 C 424.451 1169.79 442.031 1169.59 457.059 1178.44 C 461.1 1180.83 463.593 1184.92 468.024 1187.64 L 467.843 1189.55 C 463.308 1191.56 457.47 1192.86 453.311 1189.48 C 446.344 1188.7 434.943 1191.66 427.899 1193.36 C 423.867 1194.29 420.608 1195.27 416.444 1195.29 C 415.685 1199.32 416.675 1197.91 414.286 1200.26 C 411.293 1199.15 410.836 1197.72 409.124 1194.98 z" fill="url(#Gradient2)" transform="translate(0,0)"></path>
<path d="M 426.989 1181.23 C 435.209 1178.71 449.712 1178.49 455.789 1185.6 L 455.723 1187.62 L 453.311 1189.48 C 446.344 1188.7 434.943 1191.66 427.899 1193.36 C 427.915 1189.16 428.286 1185.15 426.989 1181.23 z" fill="rgb(237,178,184)" transform="translate(0,0)"></path>
<path d="M 426.989 1181.23 C 428.286 1185.15 427.915 1189.16 427.899 1193.36 C 423.867 1194.29 420.608 1195.27 416.444 1195.29 C 417.333 1187.13 420.044 1185.07 426.989 1181.23 z" fill="rgb(250,218,213)" transform="translate(0,0)"></path>
<path d="M 313.409 1217.72 C 297.461 1192.18 344.204 1167.56 345.148 1207.47 C 342.07 1209.25 341.376 1209.5 338.174 1210.72 C 332.09 1214.91 322.88 1217.32 316.626 1221.01 L 313.409 1217.72 z" fill="rgb(250,218,213)" transform="translate(0,0)"></path>
<path d="M 315.02 1215.39 C 319.777 1208.34 324.212 1190.03 336.38 1201.15 C 337.132 1203.79 337.639 1204.96 338.995 1207.35 C 337.622 1209.38 337.903 1208.26 338.174 1210.72 C 332.09 1214.91 322.88 1217.32 316.626 1221.01 L 313.409 1217.72 L 315.02 1215.39 z" fill="rgb(241,142,142)" transform="translate(0,0)"></path>
<path d="M 315.02 1215.39 C 315.143 1201 331.177 1188.31 340.082 1199.31 C 340.835 1204.29 340.854 1202.38 338.995 1207.35 C 337.639 1204.96 337.132 1203.79 336.38 1201.15 C 324.212 1190.03 319.777 1208.34 315.02 1215.39 z" fill="rgb(14,6,7)" transform="translate(0,0)"></path>
<path d="M 250.013 1261.19 C 236.69 1238.77 259.329 1216.65 280.061 1239.8 C 277.249 1242.41 278.725 1242.04 275.711 1242.36 C 274.711 1243.37 274.003 1243.83 272.874 1244.69 C 270.565 1243.69 270.002 1242.57 268.372 1240.6 L 267.55 1241.47 C 270.502 1250.16 260.68 1251.45 254.782 1257.22 C 253.536 1259.82 253.005 1259.43 250.013 1261.19 z" fill="rgb(14,6,7)" transform="translate(0,0)"></path>
<path d="M 256.18 1244.44 C 257.66 1244.25 264.767 1242.06 267.55 1241.47 C 270.502 1250.16 260.68 1251.45 254.782 1257.22 C 254.498 1256.81 254.219 1256.4 253.945 1255.98 C 250.757 1251.06 250.71 1249.65 251.97 1244.01 L 254.705 1245.25 L 256.18 1244.44 z" fill="rgb(237,178,184)" transform="translate(0,0)"></path>
<path d="M 251.97 1244.01 C 252.335 1243.32 252.713 1242.64 253.105 1241.97 C 260.196 1229.93 268.026 1235.79 275.711 1242.36 C 274.711 1243.37 274.003 1243.83 272.874 1244.69 C 270.565 1243.69 270.002 1242.57 268.372 1240.6 L 267.55 1241.47 C 264.767 1242.06 257.66 1244.25 256.18 1244.44 L 254.705 1245.25 L 251.97 1244.01 z" fill="rgb(250,218,213)" transform="translate(0,0)"></path>
<path d="M 256.18 1244.44 C 260.552 1239.01 262.273 1238.22 268.372 1240.6 L 267.55 1241.47 C 264.767 1242.06 257.66 1244.25 256.18 1244.44 z" fill="rgb(56,16,34)" transform="translate(0,0)"></path>
<path d="M 312.592 1222.84 C 289.136 1204.12 314.195 1176.12 337.424 1181.58 C 349.77 1184.48 351.494 1196.13 347.557 1207.1 L 345.148 1207.47 C 344.204 1167.56 297.461 1192.18 313.409 1217.72 L 316.626 1221.01 L 312.592 1222.84 z" fill="url(#Gradient1)" transform="translate(0,0)"></path>
<path d="M 1848.36 1298.97 C 1849.32 1299.02 1850.27 1299.33 1851.2 1299.55 C 1845.2 1306.37 1836.68 1312.09 1830.13 1318.61 C 1803.77 1344.84 1789.58 1378.58 1793.06 1415.91 C 1793.82 1424.03 1798.44 1434.38 1798.41 1441.16 L 1796.27 1439.44 C 1791.27 1433.27 1787.62 1426.03 1785.13 1418.52 C 1777.47 1395.39 1778.84 1367.47 1790.01 1345.72 C 1802.82 1320.79 1822.4 1307.46 1848.36 1298.97 z" fill="rgb(241,142,142)" transform="translate(0,0)"></path>
<metadata><recraft-signature>{"signed_by": "recraft", "signature_b64": "roe+LibyLQfV5qZZ2TKQKQ+d0TWfZHu0KrlVAvBcvB0HUdLDnPxvsTeesXTz+0NsxmuF2gSbeLwDOOKUDdk8AA==", "signing_algo": "Ed25519", "generation_timestamp": 1770828957, "identifier": "3bb1f461-53ac-49a9-8fe8-6d432009241b"}</recraft-signature></metadata></svg>