<svg xmlns="http://www.w3.org/2000/svg" height="1024" preserveAspectRatio="none" style="display: block;" version="1.1" viewBox="0 0 2048 2048" width="1024">
<path d="M 0 0 L 2048 0 L 2048 2048 L 0 2048 L 0 0 z" fill="rgb(255,255,255)" transform="translate(0,0)"></path>
<path d="M 818.253 341.573 C 905.866 227.678 1028.97 135.049 1174.5 115.945 C 1295.7 99.8013 1418.35 132.411 1515.53 206.616 C 1597.26 269.442 1660.05 363.691 1672.92 466.543 C 1693.45 630.648 1587.93 772.656 1461.63 864.384 C 1424.16 891.598 1376 922.865 1345.82 957.882 C 1427.25 1006.66 1487.93 1066.28 1521.91 1156.39 C 1534.3 1153.48 1546 1150.62 1557.04 1144 C 1591.42 1123.38 1603.46 1079.78 1617.38 1044.44 C 1643.05 979.266 1681.7 926.777 1753.52 909.787 C 1797.99 899.709 1844.64 907.657 1883.26 931.891 C 1922.76 956.667 1950.84 996.087 1961.34 1041.52 C 1980.22 1126.36 1941.56 1253.47 1846.16 1277.85 C 1823.98 1283.52 1793.49 1279.33 1774.29 1266.87 C 1751.26 1251.6 1763.76 1241.1 1784.11 1237.22 C 1838.62 1226.82 1867.07 1160.6 1859.62 1110.14 C 1855.8 1082.94 1837.73 1048.63 1804.16 1055.26 C 1748.93 1067.99 1728.13 1134.52 1706.16 1179.48 C 1679.69 1235.06 1640.32 1276.61 1583 1299.31 C 1571.07 1304.03 1556.5 1307.42 1543.88 1310.51 C 1540.38 1340.45 1537.3 1361.83 1525.44 1390.5 C 1538.02 1399.99 1551.62 1409.85 1566.22 1415.99 C 1675.22 1461.81 1811.13 1442.36 1893.81 1543.18 C 1919.56 1574.58 1933.05 1601.81 1938.84 1642.5 C 1946.26 1694.78 1932.41 1747.85 1900.39 1789.84 C 1870.12 1830.08 1823.66 1860.57 1773.22 1867.23 C 1744.54 1871.01 1709.1 1871.1 1684.46 1853.5 C 1675.3 1846.97 1669.09 1833.82 1676.96 1823.29 C 1680.71 1818.27 1687.94 1817.13 1694.03 1816.82 C 1706.67 1816.19 1719.56 1816.21 1731.9 1812.69 C 1777.69 1801.51 1801.22 1754.75 1797.67 1709.45 C 1795.02 1678.58 1780.13 1650.05 1756.33 1630.21 C 1712.49 1593.03 1630.77 1584.88 1576.27 1567.6 C 1528.95 1552.6 1480.54 1536.45 1435.99 1514.21 C 1395.91 1550.84 1349.69 1583.76 1322.48 1631.01 C 1295.62 1677.66 1321.75 1718.01 1374.06 1717 C 1403.25 1716.44 1425.82 1709.91 1453.83 1702.98 C 1505.49 1692.5 1557.93 1689.61 1596.68 1730.82 C 1645.14 1782.34 1637.05 1852.65 1587 1899.4 C 1574.56 1911.5 1547.64 1928 1532.83 1911.41 C 1514.17 1890.52 1548.07 1866.77 1530.17 1844.19 C 1518.18 1828.78 1497.49 1823.55 1478.88 1827.62 C 1462.79 1831.13 1447.17 1839.01 1431.57 1844.84 C 1278.83 1901.84 1149.97 1807.1 1167.82 1640.34 C 1169.38 1625.83 1172.26 1611.5 1176.42 1597.52 L 1174.6 1597.28 C 1132.8 1719.91 1059.86 1850.2 940.525 1912.02 C 897.643 1933.01 846.562 1943.1 800.146 1928.36 C 787.16 1924.23 772.107 1915.19 778.067 1899.5 C 782.066 1888.98 804.327 1886.86 814.835 1884.35 C 828.051 1881.15 840.873 1876.49 853.067 1870.47 C 939.868 1827.96 1001.17 1729.41 1038.18 1643.59 C 1086.1 1531.49 1105.35 1409.22 1094.2 1287.82 C 1072.58 1370.64 1039.85 1422.63 981.503 1485.71 C 942.48 1527.9 895.168 1555.96 851.911 1593.58 C 832.975 1610.05 813.928 1624.81 798.697 1645.72 C 783.147 1667.06 768.874 1709.43 783.478 1734.27 C 790.76 1746.4 801.744 1751.42 815.119 1754.47 C 834.075 1758.78 850.931 1759.68 862.953 1777.43 C 869.962 1787.79 869.51 1804.09 858.866 1812.34 C 854.704 1815.57 845.739 1815.43 841.051 1814.15 C 834.799 1812.81 821.943 1804.34 816.886 1803.53 C 808.083 1802.13 793.644 1805.76 784.121 1805.21 C 747.166 1803.1 713.896 1782.35 696.259 1749.98 C 677.123 1714.87 677.3 1668.35 688.086 1631.03 C 709.108 1558.29 768.328 1511.14 821.441 1461.57 C 885.847 1401.47 936.587 1342.95 954.568 1253.96 C 896.265 1338.81 846.935 1366.95 756.209 1410.85 C 771.767 1444.07 778.026 1447.48 738.502 1464.74 C 717.245 1474.02 686.353 1490.5 662.934 1488.41 C 657.548 1487.47 648.506 1463.1 644.918 1456.66 C 545.984 1489.9 408.203 1533.51 410.336 1659.19 C 411.947 1754.11 544.5 1779.75 613.84 1746.96 C 624.52 1741.91 643.964 1736.53 647.715 1751.7 C 650.549 1760.37 645.951 1769.25 642.104 1776.82 C 586.168 1868.93 459.27 1857.79 376.669 1811.75 C 254.883 1743.88 225.409 1599.27 294.691 1482.05 C 362.097 1368.01 468.673 1331.1 591.868 1308.38 L 584.059 1292.22 C 450.675 1283.42 331.532 1174.61 329.413 1039.53 C 328.293 968.13 346.303 917.874 394.834 866.675 C 364.868 806.537 336.253 746.219 307.254 685.599 C 304.338 679.503 301.307 673.505 298.005 667.607 C 247.872 678.654 201.707 672.845 157.654 645.895 C 68.9477 591.629 63.5528 476.28 117.83 395.403 C 123.866 386.41 133.541 368.312 146.046 378.246 C 150.826 387.511 155.025 408.736 158.295 419.506 C 167.609 450.18 175.566 483.327 185.932 513.521 C 201.578 515.979 220.438 520.916 236.129 524.464 C 259.888 529.747 283.719 534.703 307.614 539.332 C 324.037 512.756 342.666 485.301 359.995 459.149 C 337.17 415.731 312.562 373.023 290.102 329.405 C 281.533 312.466 306.99 313.372 316.489 312.742 C 383.06 308.329 452.485 346.535 476.346 410.58 C 505.939 490.015 475.941 565.998 409.6 614.012 L 503.779 808.532 C 553.809 799.799 603.895 807.987 646.759 835.761 C 670.101 850.885 679.063 872.31 645.617 880.421 C 604.713 890.34 569.741 897.802 537.771 927.886 C 576.354 1003.9 612.29 1082.21 650.948 1157.73 C 667.604 1154.79 683.089 1152.33 699.324 1147.44 C 749 1131.94 792.001 1100.15 821.385 1057.2 C 834.38 1038.54 843.65 1017.06 851.68 995.831 C 762.167 927.37 708.299 861.628 685.582 748.901 C 595.201 719.862 575.844 609.697 602.841 529.407 C 610.417 506.877 625.718 468.24 648.857 456.214 C 676.777 443.803 719.432 446.621 748.168 453.641 C 762.587 423.071 787.536 383.858 807.863 356.702 C 785.023 358.345 764.109 365.866 744.498 377.516 C 758.428 350.104 788.963 339.393 818.253 341.573 z" fill="rgb(32,41,97)" transform="translate(0,0)"></path>
<path d="M 1223.05 1282.26 C 1248.65 1342.31 1283.75 1392.16 1332.99 1435.08 C 1323.93 1445.79 1309.25 1463.61 1297.4 1470.5 C 1252.03 1496.86 1205.02 1513.62 1186.01 1568.99 L 1184.32 1567.39 C 1209.25 1502.46 1221.57 1419.01 1223.64 1349.64 C 1224.3 1327.35 1222.87 1304.58 1223.05 1282.26 z" fill="rgb(255,255,255)" transform="translate(0,0)"></path>
<path d="M 1184.32 1567.39 L 1186.01 1568.99 C 1182.76 1578.34 1179.21 1588.06 1176.42 1597.52 L 1174.6 1597.28 C 1176.98 1587.94 1181.15 1576.67 1184.32 1567.39 z" fill="rgb(200,197,206)" transform="translate(0,0)"></path>
<path d="M 1226.62 134.45 C 1303.89 131.676 1381.83 154.491 1450.08 189.407 C 1434.49 187.011 1414.64 185.218 1408.54 203.879 C 1402.27 223.051 1413.19 253.585 1422.16 270.595 C 1444.03 312.047 1482.12 352.699 1526.99 368.933 C 1536.88 372.195 1554.75 375.001 1563.78 369.116 C 1597.95 346.841 1563.72 291.711 1549.89 268.395 C 1585.27 302.743 1618.88 358.363 1635.53 405.35 C 1690.58 560.709 1607.88 714.152 1492.27 816.203 C 1426.68 874.1 1341.28 912.105 1302.55 996.52 C 1300.88 1000.15 1298.67 1003.97 1300.08 1007.96 L 1301.92 1008.74 C 1306.62 1006.87 1328.69 976.157 1335.51 968.885 C 1370.38 994.311 1409.77 1025 1437.33 1056.45 C 1546.09 1180.53 1557.52 1370.44 1432.93 1489.41 C 1386.32 1533.91 1298.66 1594.78 1291.75 1661.62 C 1285.21 1724.9 1361.06 1748 1411.26 1733.72 C 1429.24 1728.92 1450.98 1724.61 1469.35 1719.91 C 1540.75 1702.93 1611.03 1737.05 1607.1 1817.77 C 1605.48 1851.22 1583.99 1877.49 1559.54 1899.19 C 1567.46 1888.39 1575.31 1880.99 1579.45 1867.85 C 1600.5 1801.01 1557.3 1746.68 1489.23 1742.91 C 1427.31 1739.47 1374.85 1777.06 1314.6 1756.61 C 1292.59 1749.14 1276.23 1732.05 1266.87 1711.15 C 1255.77 1686.51 1252.52 1659.05 1257.58 1632.5 C 1272.72 1552.45 1336.9 1522.7 1386.42 1467.77 C 1407.44 1444.45 1425.12 1415.82 1436.25 1386.43 C 1460.77 1321.69 1454.2 1234.22 1425.58 1171.56 C 1397.98 1111.16 1343.6 1053.4 1280.78 1030.17 C 1265.07 1024.36 1237.89 1017.27 1221.97 1025.19 C 1217.27 1027.53 1214.2 1031.49 1212.21 1036.27 C 1195.19 1077.11 1204.06 1228.22 1204.08 1280.26 C 1204.1 1318.75 1203.24 1356.94 1199.84 1395.31 C 1194.05 1454.47 1181.84 1512.83 1163.44 1569.36 C 1156.38 1590.61 1147.71 1610.47 1139.23 1631.21 C 1098 1732.05 1031.45 1842 930.968 1892.91 C 893.332 1911.99 843.933 1922.08 802.821 1908.24 C 838.044 1899.92 871.464 1888.38 901 1865.84 C 1020.08 1774.95 1093.01 1608.46 1111.45 1463.07 C 1125.02 1356.07 1113.95 1235.32 1076.55 1134.61 C 1069.19 1114.79 1036.45 1053.38 1016.6 1044.77 L 1015.14 1045.5 C 1015.35 1048.02 1028.49 1070.04 1031.35 1076.02 C 1054.75 1124.86 1083.45 1198.98 1077.17 1253.38 C 1071.68 1287.42 1054.88 1347.94 1034.53 1376.81 C 995.08 1432.78 924.663 1490.19 871.458 1531.33 C 823.927 1569.51 778.267 1600.86 747.099 1655.52 C 721.663 1700.12 722.185 1755.75 771.605 1783.19 L 767.799 1782.24 C 734.799 1774.19 710.518 1744.62 704.635 1711.7 C 692.33 1641.28 729.651 1574.35 779.866 1527.79 C 831.255 1480.13 885.053 1435.45 924.792 1377.06 C 949.289 1341.52 965.212 1300.78 971.309 1258.04 C 972.702 1248.02 973.981 1234.34 972.099 1224.36 C 977.708 1211.97 984.696 1199.4 990.395 1186.74 C 1003.55 1157.51 1017.66 1108.55 1013.6 1076.61 C 1010.47 1085.68 1008.05 1098.14 1005.45 1108.01 C 977.858 1212.87 906.668 1309.69 811.262 1362.43 C 796.95 1370.34 780.4 1374.23 765.302 1379.86 C 722.289 1395.88 678.348 1410.56 633.126 1419.07 C 557.594 1433.29 485.495 1440.28 417.481 1480.01 C 371.303 1506.03 330.524 1554.09 317.685 1606.04 C 307.037 1649.12 312.5 1699.58 335.13 1738.09 C 343.504 1752.34 353.365 1764.57 361.653 1778.46 C 354.102 1772.88 346.966 1766.75 340.303 1760.13 C 298.989 1719.2 279.581 1672.9 279.71 1614.85 C 279.963 1561.4 297.645 1509.5 330.073 1467.02 C 382.09 1399.18 461.162 1355.7 543.565 1340 C 669.446 1316.01 792.532 1280.7 866.415 1166.35 C 894.001 1123.66 913.28 1082.39 913.098 1029.37 C 920.179 1033.52 943.216 1049.33 949.471 1045.09 C 947.735 1035.73 878.686 987.447 866.796 978.382 C 853.867 968.665 841.297 958.479 829.111 947.845 C 763.746 889.953 728.186 839.282 709.355 752.853 C 713.681 753.508 718.03 754.006 722.392 754.348 C 784.854 758.846 826.863 708.245 852.094 657.445 C 871.306 618.764 857.269 618.146 903.482 626.533 C 896.889 679.598 889.085 712.745 906.426 767.898 C 934.466 857.079 1031.55 894.45 1117.03 866.661 C 1175.71 847.588 1215.38 790.617 1241.62 736.533 C 1308.33 751.585 1339.21 765.758 1398.85 800.959 C 1408.82 832.358 1429.97 847.3 1461.63 829.883 C 1508.59 804.047 1475.23 735.198 1428.61 756.438 C 1368.61 711.992 1323.91 687.044 1253.31 661.042 C 1250.88 634.516 1238.16 608.153 1216.43 592.198 C 1173.29 560.535 1119.11 540.953 1066.82 531.207 C 1118.97 516.339 1215.37 481.356 1242.9 433.284 C 1232.04 437.626 1208.56 452.335 1195.24 459.088 C 1141.71 486.207 1087.22 507.453 1029.07 522.393 C 1018.18 525.192 992.044 524.139 975.1 527.327 C 981.929 510.383 984.24 503.957 987.744 485.611 C 974.34 498.564 965.844 513.481 960.612 531.206 C 939.772 539.256 930.97 550.237 917.645 567.452 C 904.019 558.631 895.774 555.747 880.154 551.633 C 889.801 521.249 886.584 456.367 880.131 423.95 C 873.613 391.213 866.393 366.678 838.478 347.391 C 843.145 341.118 849.966 333.822 855.328 327.976 C 961.029 212.72 1068.06 141.456 1226.62 134.45 z" fill="rgb(96,111,144)" transform="translate(0,0)"></path>
<path d="M 1331.71 208.231 C 1388.89 211.638 1457.84 315.689 1408.8 331.183 C 1392.98 332.142 1382.16 328.586 1368.79 320.274 C 1342.96 304.224 1321.3 274.885 1314.42 245.215 C 1312.34 236.264 1310.98 224.453 1316.57 216.719 C 1320.85 210.803 1324.93 209.498 1331.71 208.231 z" fill="rgb(32,41,97)" transform="translate(0,0)"></path>
<path d="M 1326.9 213.141 C 1374.54 209.747 1445.6 302.592 1410.42 325.944 C 1362.3 336.436 1293.71 239.046 1326.9 213.141 z" fill="rgb(249,165,169)" transform="translate(0,0)"></path>
<path d="M 1442.28 370.101 C 1492.65 367.055 1541.83 464.52 1498.04 480.677 C 1448.35 483.81 1395.7 385.871 1442.28 370.101 z" fill="rgb(32,41,97)" transform="translate(0,0)"></path>
<path d="M 1442.06 375.053 C 1488.27 372.647 1531.8 459.417 1498.47 475.029 C 1452.57 477.659 1405.87 392.276 1442.06 375.053 z" fill="rgb(249,165,169)" transform="translate(0,0)"></path>
<path d="M 1554.26 413.081 C 1567.72 411.866 1577.1 417.021 1584.63 428.171 C 1594.55 442.847 1601.11 463.474 1583.75 474.818 C 1552.11 481.918 1528.9 429.085 1554.26 413.081 z" fill="rgb(18,22,74)" transform="translate(0,0)"></path>
<path d="M 1557.1 415.939 C 1581.01 417.451 1602.9 457.378 1581.65 471.348 C 1553.69 471.308 1536.54 429.296 1557.1 415.939 z" fill="rgb(249,165,169)" transform="translate(0,0)"></path>
<path d="M 885.382 886.162 C 891.846 885.767 898.14 885.51 904.571 886.465 C 924.214 889.383 940.423 900.819 952.111 916.581 C 955.982 921.8 961.442 929.26 960.455 935.993 C 959.449 937.003 959.192 937.723 957.678 937.852 C 948.151 938.664 936.321 923.47 928.966 917.82 C 915.215 908.403 898.604 900.511 881.831 906.848 C 876.069 909.025 870.55 912.664 865.134 915.618 C 860.939 917.906 856.579 920.269 851.694 920.284 C 850.504 919.394 849.838 919.343 849.586 917.739 C 848.955 913.713 851.236 908.864 853.437 905.595 C 860.603 894.953 873.179 888.734 885.382 886.162 z" fill="rgb(32,41,97)" transform="translate(0,0)"></path>
<path d="M 679.702 470.403 C 718.522 466.397 777.752 481.347 811.592 502.188 C 835.886 517.15 844.833 545.621 850.177 572.141 C 873.94 568.694 884.655 571.774 906.45 582.999 C 911.76 585.734 918.122 590.347 923.72 591.676 C 928.503 587.694 937.797 572.767 943.621 566.618 C 960.409 548.889 979.541 544.893 1003.21 544.359 C 1055.35 543.184 1109.03 560.555 1155.97 582.122 C 1172.69 589.804 1194.36 600.944 1207.47 613.68 C 1226.72 632.392 1230.64 653.423 1231.2 678.943 C 1241.75 683.786 1258.09 686.486 1270.48 691.321 C 1313.47 708.09 1377.38 740.219 1412.5 769.898 L 1406.05 781.271 C 1392.56 772.934 1378.78 765.059 1364.75 757.66 C 1335.65 742.519 1267.21 708.531 1232.47 717.297 C 1223.1 719.662 1218.88 731.223 1215 739.434 C 1184.18 796.492 1145.13 849.407 1074.5 853.954 C 1036.65 856.391 994.836 847.509 965.771 821.952 C 910.593 773.434 911.764 691.128 922.077 624.416 C 923.917 611.91 859.503 598.694 849.03 613.451 C 840.789 625.063 838.023 636.554 831.42 650.605 C 825.795 662.3 819.035 673.415 811.236 683.788 C 794.791 705.601 770.062 729.354 741.824 732.617 C 713.187 735.927 680.7 728.104 658.018 710.157 C 632.333 689.833 617.771 656.527 614.318 624.611 C 609.986 585.719 616.416 547.278 632.701 511.708 C 644.794 485.293 648.964 473.569 679.702 470.403 z" fill="rgb(255,255,255)" transform="translate(0,0)"></path>
<path d="M 996.406 563.349 C 1017.88 560.869 1052.88 567.523 1073.79 573.052 C 1136.95 589.752 1233.76 622.269 1209.44 706.411 C 1195.06 756.17 1168.63 797.498 1123.58 824.035 C 1110.58 831.522 1096.37 836.671 1081.6 839.248 C 1043.53 845.741 1004.47 837.286 972.438 815.029 C 945.493 796.307 931.677 764.029 926.857 731.725 C 920.648 690.106 924.139 622.437 949.257 586.8 C 960.197 571.278 978.458 565.549 996.406 563.349 z" fill="rgb(32,41,97)" transform="translate(0,0)"></path>
<path d="M 997.878 587.334 C 1014.79 584.922 1035.4 588.893 1051.87 592.652 C 1033.09 602.125 1008.46 615.174 993.233 629.533 C 976.804 645.03 969.795 667.369 969.147 689.518 C 968.375 715.921 977.156 745.407 995.717 764.721 C 1010.13 779.72 1030.05 786.325 1050.54 786.648 C 1073.23 787.215 1095.17 778.541 1111.33 762.616 C 1146.14 728.385 1156.31 675.837 1156.63 628.971 C 1164.03 634.319 1170.55 639.911 1176.88 646.492 C 1182.74 654.154 1187.47 660.407 1189.41 670.406 C 1194.76 698.018 1176.3 737.048 1161.72 759.3 C 1142.26 789.002 1112.61 811.678 1077.25 818.446 C 1045.01 824.618 1014.63 817.952 987.151 800.24 C 964.853 785.867 952.539 755.699 948.422 730.013 C 943.278 697.92 946.133 631.779 964.87 604.354 C 972.897 592.605 984.944 589.449 997.878 587.334 z" fill="rgb(96,111,144)" transform="translate(0,0)"></path>
<path d="M 1066.7 595.873 C 1095.83 602.851 1121.93 612.279 1149.03 625.179 C 1149.33 642.215 1148.96 659.007 1145.96 675.826 C 1140.19 708.207 1125.84 744.225 1097.65 763.431 C 1078.15 776.719 1055.33 777.979 1032.69 773.853 C 1013.8 767.91 1000.29 759.166 989.025 742.691 C 991.738 743.725 994.598 744.739 997.441 745.332 C 1007.06 747.338 1017.57 744.329 1025.56 738.915 C 1040.48 728.812 1049.97 710.483 1052.87 693.008 C 1055.45 677.441 1053.32 660.015 1043.68 647.098 C 1036.12 636.957 1026.28 632.36 1014.12 630.458 C 1031.45 618.38 1051.91 611.432 1066.7 595.873 z" fill="rgb(255,255,255)" transform="translate(0,0)"></path>
<path d="M 1005.31 635.005 C 1009.71 634.458 1014.02 634.789 1018.03 636.778 C 1023.4 639.434 1026.86 644.142 1028.42 649.864 C 1030.59 657.767 1028.89 666.843 1024.5 673.688 C 1019.97 680.767 1014.33 684.09 1006.25 685.873 C 1003.38 685.928 1000.39 685.879 997.623 684.988 C 992.492 683.335 988.031 679.891 985.667 674.998 C 982.721 668.902 982.912 661.228 985.258 654.983 C 988.981 645.07 996.114 639.41 1005.31 635.005 z" fill="rgb(255,255,255)" transform="translate(0,0)"></path>
<path d="M 678.135 480.294 C 718.408 475.894 756.431 488.387 792.885 504.129 C 831.851 520.957 850.528 543.817 842.886 587.861 C 834.613 635.547 814.812 682.679 774.413 712.07 C 762.927 718.819 754.399 722.78 741.041 724.627 C 607.72 743.075 594.989 578.821 651.813 495.807 C 658.568 485.94 666.725 481.926 678.135 480.294 z" fill="rgb(32,41,97)" transform="translate(0,0)"></path>
<path d="M 749.667 520.986 C 757.943 521.156 766.066 521.279 774.047 523.292 C 815.591 533.773 823.841 573.399 812.627 609.79 C 805.359 633.374 800.983 660.841 778.065 674.176 C 776.309 674.959 774.422 675.782 772.601 676.384 C 762.485 679.664 751.482 678.811 741.992 674.011 C 685.428 645.865 729.91 559.354 749.667 520.986 z" fill="rgb(255,255,255)" transform="translate(0,0)"></path>
<path d="M 753.931 554.831 C 779.262 531.422 822.274 610.399 768.463 641.497 C 723.148 657.107 708.659 579.778 753.931 554.831 z" fill="rgb(32,41,97)" transform="translate(0,0)"></path>
<path d="M 753.931 554.831 C 765.182 552.86 776.095 553.29 779.427 568.162 C 781.072 575.501 775.29 582.741 769.393 586.96 C 754.571 592.857 747.716 586.63 744.592 572.005 C 747.014 564.261 748.262 561.109 753.931 554.831 z" fill="rgb(255,255,255)" transform="translate(0,0)"></path>
<path d="M 675.559 503.123 C 682.469 502.952 690.249 503.19 697.23 503.249 C 689.177 512.434 686.268 516.078 681.217 527.071 L 681.797 526.89 C 694.19 522.888 709.267 521.303 722.336 519.776 C 695.99 577.646 684.402 604.331 682.109 671.066 C 682.124 679.757 682.394 688.682 682.551 697.392 C 646.995 671.755 641.379 644.637 641.398 602.017 C 641.411 572.473 653.809 523.932 675.559 503.123 z" fill="rgb(255,255,255)" transform="translate(0,0)"></path>
<path d="M 708.54 638.585 C 709.837 642.795 711.09 647.101 712.819 651.156 C 718.519 664.528 728.835 676.525 742.603 681.873 C 756.924 687.435 770.103 684.031 783.549 678.238 C 779.109 682.688 774.285 686.729 769.54 690.844 C 749.385 705.69 730.568 706.531 706.414 704.257 C 701.031 684.746 704.228 658.223 708.54 638.585 z" fill="rgb(96,111,144)" transform="translate(0,0)"></path>
<path d="M 315.495 333.763 C 330.738 333.904 344.012 334.55 359.013 337.351 C 436.583 351.83 479.367 426.794 463.194 502.555 C 456.337 535.58 438.215 565.194 411.93 586.329 C 403.681 592.902 393.023 599.257 383.985 605.097 C 386.132 610.628 391.478 620.692 394.256 626.452 L 415.995 671.568 C 439.42 718.751 462.261 766.221 484.512 813.968 C 471.589 818.287 460.155 822.44 447.827 828.277 C 438.101 810.388 426.363 783.416 417.472 764.461 C 400.4 727.808 383.076 691.274 365.499 654.861 C 360.049 643.445 345.825 608.659 338.529 601.895 L 336.97 602.38 C 337.42 611.888 353.389 639.89 358.221 649.979 C 366.652 667.584 442.604 825.545 442.553 830.842 L 440.601 832.503 C 428.953 839.235 420.424 845.692 409.957 853.857 C 397.021 830.697 385.517 804.942 373.973 780.911 C 351.97 735.107 330.834 688.363 308.14 642.898 C 303.033 644.72 297.859 646.345 292.628 647.772 C 254.941 658.187 208.631 652.282 174.767 632.922 C 142.339 614.309 118.575 583.64 108.648 547.591 C 99.8758 515.17 104.371 475.101 115.985 443.796 C 120.497 431.633 127.333 419.805 133.81 408.557 L 152.715 473.42 C 156.543 486.855 163.848 515.865 169.825 527.485 C 172.606 532.892 215.105 540.593 224.037 542.523 C 254.062 549.206 284.153 555.585 314.307 561.66 C 323.329 552.421 379.004 468.844 382.102 459.438 C 380.336 449.387 355.407 407.75 349.189 395.965 C 338.653 375.995 326.588 353.489 315.495 333.763 z" fill="rgb(255,255,255)" transform="translate(0,0)"></path>
<path d="M 1218.27 1030.21 C 1235.71 1021.6 1253.93 1025.98 1271.95 1032.2 C 1334.42 1053.79 1380.8 1105.04 1410.25 1162.41 C 1441.09 1222.47 1445.75 1308.08 1424.9 1371.81 C 1405.26 1429.98 1360.22 1471.37 1315.6 1510.83 C 1301.34 1523.44 1283.53 1539.99 1272.5 1555.11 C 1238.19 1602.15 1229.06 1669.67 1255.12 1722.37 C 1266.7 1745.5 1287.02 1763.07 1311.59 1771.18 C 1385.9 1796.04 1455.8 1728.15 1529.17 1763.57 C 1545.39 1771.27 1558.53 1784.25 1566.43 1800.37 C 1577.7 1822.97 1577.6 1845.54 1569.37 1869.04 C 1566.05 1878.53 1559.55 1891.86 1549.55 1895.34 L 1547.95 1894.58 C 1544.77 1880.13 1574.91 1859.5 1549.28 1824.15 L 1548.43 1825.11 C 1546.14 1823.92 1547.29 1823.98 1545.03 1824.28 L 1550.36 1837.64 L 1549.1 1839.62 C 1548.49 1838.44 1548.5 1838.41 1547.52 1836.82 C 1541.13 1826.56 1531.95 1818.32 1521.06 1813.09 C 1478.62 1792.3 1443.09 1824.48 1401.55 1834.37 C 1369.62 1841.97 1337.25 1844.81 1305.02 1837.03 C 1266 1827.69 1232.27 1803.27 1211.2 1769.12 C 1204.04 1757.49 1198.34 1745.03 1194.22 1732 C 1184.34 1699.87 1180.58 1642.5 1189.23 1609.45 C 1205.97 1545.44 1229.21 1530.24 1282.91 1497.75 C 1283.93 1505.8 1288.03 1515.63 1297.5 1513.79 C 1311.03 1511.16 1325.04 1491.79 1308.87 1482.05 L 1307.67 1481.34 C 1308.58 1478.91 1323.07 1470.3 1326.33 1467.32 C 1334.17 1460.18 1339.55 1451.82 1347.47 1444.86 C 1360.59 1458.8 1381.94 1434.96 1367.09 1421.09 C 1372.22 1410.89 1379.75 1395.57 1385.72 1386.09 L 1388 1378.98 L 1389.03 1378.81 C 1390.76 1375.5 1394.98 1361.09 1397.3 1355.3 C 1396.45 1352.11 1397.04 1351.25 1398.09 1348.14 C 1397.77 1345.88 1399.99 1332.56 1400.41 1329.08 C 1401.54 1319.8 1402 1311.32 1402.33 1301.98 C 1401.55 1296.14 1399.6 1273.2 1400.1 1268.13 C 1397.19 1250.52 1395.12 1238.28 1389.92 1221.03 C 1403.6 1215.42 1405.49 1203.88 1399.67 1190.96 C 1394.51 1179.51 1387.05 1178.48 1375.91 1182 C 1371.45 1175.38 1369.09 1168.94 1365.46 1162.13 C 1337.93 1110.46 1279.45 1044.18 1217.33 1041.48 L 1218.27 1030.21 z" fill="rgb(249,165,169)" transform="translate(0,0)"></path>
<path d="M 1400.1 1268.13 C 1431.52 1249.45 1432.55 1328.52 1402.33 1301.98 C 1401.55 1296.14 1399.6 1273.2 1400.1 1268.13 z" fill="rgb(18,22,74)" transform="translate(0,0)"></path>
<path d="M 1406.92 1270.29 C 1408.8 1270.86 1410.76 1271.48 1412.38 1272.67 C 1415.86 1275.22 1417.89 1280.38 1418.34 1284.54 C 1419.04 1290.88 1417.71 1296.34 1413.82 1301.31 C 1412.26 1300.51 1410.65 1299.69 1409.23 1298.66 C 1405.38 1295.87 1402.7 1289.68 1402.33 1285.06 C 1401.84 1278.91 1403.12 1275.02 1406.92 1270.29 z" fill="rgb(249,165,169)" transform="translate(0,0)"></path>
<path d="M 1545.03 1824.28 C 1541.86 1822.13 1534.68 1818.09 1532.66 1815.35 C 1513.02 1788.77 1569.81 1785.05 1560.09 1816.04 C 1558.9 1819.84 1552.78 1822.44 1549.28 1824.15 L 1548.43 1825.11 C 1546.14 1823.92 1547.29 1823.98 1545.03 1824.28 z" fill="rgb(18,22,74)" transform="translate(0,0)"></path>
<path d="M 1538.54 1799.72 C 1543.47 1799.39 1548.38 1799.85 1552.21 1803.4 C 1554.2 1805.25 1555.18 1807.2 1555.16 1809.96 C 1555.13 1812.97 1553.18 1814.91 1551.31 1816.99 C 1546.4 1817.31 1542.83 1816.66 1538.83 1813.61 C 1536.81 1812.07 1535.06 1809.62 1535.02 1807 C 1534.97 1803.58 1536.59 1802.17 1538.54 1799.72 z" fill="rgb(249,165,169)" transform="translate(0,0)"></path>
<path d="M 1398.09 1348.14 C 1403.21 1350.26 1407.76 1352.01 1409.75 1357.5 C 1415.91 1374.56 1405.13 1393.33 1385.72 1386.09 L 1388 1378.98 L 1389.03 1378.81 C 1390.76 1375.5 1394.98 1361.09 1397.3 1355.3 C 1396.45 1352.11 1397.04 1351.25 1398.09 1348.14 z" fill="rgb(18,22,74)" transform="translate(0,0)"></path>
<path d="M 1397.3 1355.3 C 1413.18 1362.57 1401.33 1387.96 1389.03 1378.81 C 1390.76 1375.5 1394.98 1361.09 1397.3 1355.3 z" fill="rgb(249,165,169)" transform="translate(0,0)"></path>
<path d="M 1228.06 1731.02 C 1231.17 1730.77 1234.76 1730.6 1237.79 1731.44 C 1243.81 1733.12 1249.28 1737.98 1252.35 1743.32 C 1255.44 1748.68 1256.63 1755.03 1254.87 1761.03 C 1252.92 1767.67 1248.72 1770.56 1242.91 1773.73 C 1239.64 1774.14 1236.21 1774.54 1232.95 1773.87 C 1227.13 1772.67 1221.8 1768.28 1218.79 1763.26 C 1215.36 1757.56 1214.04 1750.51 1216.04 1744.07 C 1218.1 1737.44 1222.09 1734.13 1228.06 1731.02 z" fill="rgb(18,22,74)" transform="translate(0,0)"></path>
<path d="M 1228.78 1736.99 C 1230.84 1736.9 1232.98 1736.76 1235.03 1736.96 C 1238.61 1737.31 1242.67 1740.55 1244.91 1743.25 C 1247.93 1746.83 1249.31 1751.53 1248.69 1756.18 C 1248.03 1761.39 1245.14 1763.98 1241.12 1766.97 C 1240 1767.04 1238.88 1767.11 1237.76 1767.11 C 1233.13 1767.13 1228.99 1765.12 1225.78 1761.81 C 1222.5 1758.49 1220.85 1753.89 1221.29 1749.25 C 1221.77 1743.59 1224.69 1740.58 1228.78 1736.99 z" fill="rgb(249,165,169)" transform="translate(0,0)"></path>
<path d="M 1329.56 1790.24 C 1333.16 1790.22 1337.28 1790.66 1340.64 1792.01 C 1346.14 1794.23 1350.69 1798.61 1352.74 1804.23 C 1354.54 1809.16 1354.21 1814.61 1351.84 1819.29 C 1348.56 1825.88 1343.48 1828.23 1336.8 1830.44 C 1331.63 1830.31 1326.9 1830.21 1322.2 1827.72 C 1317.03 1824.99 1312.92 1820.34 1311.39 1814.64 C 1310.01 1809.73 1310.74 1804.46 1313.39 1800.11 C 1317.13 1794.09 1322.91 1791.63 1329.56 1790.24 z" fill="rgb(18,22,74)" transform="translate(0,0)"></path>
<path d="M 1330.44 1796.06 C 1337.82 1795.19 1344.61 1800.19 1345.95 1807.5 C 1347.3 1814.81 1342.75 1821.91 1335.54 1823.72 C 1330.45 1825.01 1325.06 1823.35 1321.57 1819.43 C 1318.07 1815.51 1317.05 1809.97 1318.92 1805.06 C 1320.78 1800.14 1325.22 1796.68 1330.44 1796.06 z" fill="rgb(249,165,169)" transform="translate(0,0)"></path>
<path d="M 1203.16 1629.03 C 1205.8 1628.89 1208.7 1628.66 1211.29 1629.26 C 1216.28 1630.42 1220.67 1634.34 1223.1 1638.75 C 1226.42 1644.76 1226.9 1652.45 1224.97 1658.97 C 1222.85 1666.11 1219.18 1669.29 1212.91 1672.91 C 1211.12 1672.94 1209.28 1672.98 1207.51 1672.74 C 1202.13 1671.99 1197.11 1668.47 1194.09 1664.04 C 1190.24 1658.4 1189.27 1650.97 1190.84 1644.39 C 1192.68 1636.72 1196.57 1632.91 1203.16 1629.03 z" fill="rgb(18,22,74)" transform="translate(0,0)"></path>
<path d="M 1204.36 1635.9 C 1205.24 1635.86 1206.11 1635.81 1206.98 1635.83 C 1210.56 1635.91 1213.79 1637.49 1216.13 1640.18 C 1219.08 1643.58 1219.93 1648.15 1219.34 1652.52 C 1218.56 1658.34 1215.99 1661.49 1211.41 1664.93 C 1210.31 1665.01 1209.64 1665.09 1208.49 1665.02 C 1205.24 1664.83 1202.51 1663.57 1200.33 1661.18 C 1197.31 1657.88 1196.37 1653.3 1196.85 1648.96 C 1197.53 1642.81 1199.76 1639.81 1204.36 1635.9 z" fill="rgb(249,165,169)" transform="translate(0,0)"></path>
<path d="M 1412.42 1784.09 C 1415.91 1783.93 1419.15 1783.98 1422.51 1785.07 C 1426.86 1786.48 1430.64 1789.32 1432.59 1793.54 C 1434.51 1797.68 1434.33 1802.37 1432.78 1806.59 C 1429.98 1814.23 1424.59 1817.55 1417.55 1820.9 C 1413.55 1821.06 1409.82 1821.24 1406.09 1819.54 C 1401.93 1817.6 1398.72 1814.07 1397.17 1809.76 C 1395.42 1804.79 1395.94 1799.4 1398.31 1794.73 C 1401.39 1788.65 1406.22 1786.17 1412.42 1784.09 z" fill="rgb(18,22,74)" transform="translate(0,0)"></path>
<path d="M 1413.12 1789.97 C 1414.55 1789.94 1415.99 1789.91 1417.43 1790 C 1420.88 1790.2 1424 1791.78 1426.01 1794.65 C 1427.59 1796.93 1427.85 1799.86 1427.36 1802.53 C 1426.26 1808.66 1422.71 1811.51 1417.83 1814.89 C 1415.51 1815.05 1412.82 1815.17 1410.55 1814.57 C 1407.88 1813.85 1405.3 1811.87 1403.91 1809.47 C 1402.23 1806.58 1402.18 1803.14 1403.16 1800 C 1404.81 1794.72 1408.5 1792.5 1413.12 1789.97 z" fill="rgb(249,165,169)" transform="translate(0,0)"></path>
<path d="M 1480.88 1770.2 C 1484.6 1769.76 1488.37 1769.27 1492.05 1770.24 C 1497.07 1771.56 1501.83 1775 1504.26 1779.64 C 1506.32 1783.58 1506.66 1788.07 1505.02 1792.21 C 1502.6 1798.34 1497.9 1800.78 1492.11 1803.15 C 1487.77 1803.59 1483.4 1803.79 1479.17 1802.46 C 1474.55 1801.02 1470.14 1797.43 1468.16 1792.97 C 1466.6 1789.49 1466.51 1785.54 1467.89 1781.99 C 1470.29 1775.84 1475.2 1772.92 1480.88 1770.2 z" fill="rgb(18,22,74)" transform="translate(0,0)"></path>
<path d="M 1485.3 1775.01 C 1487.57 1775.29 1490.07 1775.5 1492.2 1776.39 C 1494.95 1777.55 1497.76 1780.09 1498.58 1783.05 C 1499.33 1785.78 1499.15 1788.23 1497.75 1790.71 C 1495.5 1794.71 1491.95 1795.88 1487.78 1797.13 C 1485.74 1796.97 1483.64 1796.82 1481.7 1796.16 C 1478.7 1795.13 1475.99 1793.26 1474.74 1790.23 C 1473.86 1788.08 1473.94 1785.85 1474.75 1783.7 C 1476.61 1778.78 1480.77 1776.99 1485.3 1775.01 z" fill="rgb(249,165,169)" transform="translate(0,0)"></path>
<path d="M 1236.21 1538.99 C 1238.71 1538.82 1241.52 1538.78 1243.98 1539.36 C 1247.56 1540.2 1251 1542.61 1252.83 1545.82 C 1255.15 1549.89 1254.96 1555.02 1253.59 1559.37 C 1251.04 1567.52 1246 1571.75 1238.63 1575.53 C 1235.6 1575.97 1232.65 1576.25 1229.63 1575.53 C 1226.3 1574.74 1223.29 1572.77 1221.58 1569.76 C 1219.4 1565.93 1219.53 1560.81 1220.68 1556.67 C 1223.14 1547.89 1228.4 1543.14 1236.21 1538.99 z" fill="rgb(18,22,74)" transform="translate(0,0)"></path>
<path d="M 1238.3 1544.67 C 1239.29 1544.82 1239.98 1544.89 1240.91 1545.11 C 1243.71 1545.79 1246.29 1547.76 1247.49 1550.41 C 1248.67 1553 1248.32 1555.92 1247.37 1558.5 C 1245.21 1564.37 1241.78 1567.03 1236.36 1569.76 C 1235.78 1569.67 1235.21 1569.59 1234.63 1569.49 C 1231.44 1568.95 1228.32 1567.58 1226.75 1564.56 C 1225.7 1562.54 1225.65 1560.23 1226.24 1558.07 C 1228.02 1551.58 1232.78 1547.94 1238.3 1544.67 z" fill="rgb(249,165,169)" transform="translate(0,0)"></path>
<path d="M 527.7 827.406 C 569.159 822.967 609.083 834.801 642.591 859.256 C 586.119 872.964 548.929 882.219 507.542 927.038 C 471.014 966.595 434.068 1039.82 436.653 1094.08 C 438.063 1123.65 449.1 1154.17 471.611 1174.17 C 488.566 1189.23 515.594 1202.09 538.676 1200.78 L 548.593 1220.74 C 551.626 1227.27 555.048 1233.62 558.395 1239.99 C 523.569 1240.38 463.054 1231.65 435.6 1210 C 387.774 1172.28 358.836 1117.08 352.037 1056.85 C 345.787 1001.49 358.525 942.455 393.978 898.605 C 428.155 856.332 473.996 832.96 527.7 827.406 z" fill="rgb(96,111,144)" transform="translate(0,0)"></path>
<path d="M 1516.93 1409.74 C 1543.01 1427.2 1561.77 1437.91 1592.19 1447.57 C 1689.47 1478.47 1806.64 1471.1 1877.75 1555.31 C 1897.63 1578.75 1911.19 1606.88 1917.14 1637.03 C 1926.33 1684.3 1913.61 1733.24 1886.76 1772.7 C 1860.1 1811.89 1819.01 1838.94 1772.47 1847.95 C 1769.56 1848.48 1766.63 1848.97 1763.71 1849.43 L 1757.99 1848.73 L 1757.21 1847.46 C 1797.21 1834.15 1830.36 1805.62 1849.48 1768.06 C 1868.17 1730.81 1871.63 1696.91 1858.32 1657 C 1845.12 1617.26 1816.56 1584.46 1779.01 1565.92 C 1724 1538.66 1670.48 1537.81 1612.39 1524.17 C 1562.9 1512.55 1520.85 1493.54 1475.34 1472.55 C 1494.34 1448.27 1502.54 1437.23 1516.93 1409.74 z" fill="rgb(96,111,144)" transform="translate(0,0)"></path>
<path d="M 627.379 1761.4 C 620.057 1787.76 583.346 1811.87 558.579 1819.9 C 509.539 1835.44 451.919 1824.95 406.443 1802.82 C 375.024 1787.67 355.166 1762.71 340.523 1731.72 C 299.819 1645.59 330.569 1553.1 407.182 1500.31 C 487.519 1444.95 575.767 1443.5 665.866 1420.35 C 688.463 1414.36 710.706 1407.1 732.488 1398.61 C 750.979 1391.39 768.312 1383.61 787.305 1377.79 C 745.865 1401.17 700.886 1419.77 656.043 1435.6 C 649.036 1438.07 641.546 1440.42 634.824 1443.52 C 631.273 1444.4 630.933 1445.2 628.493 1443.93 C 623.055 1447.77 608.653 1453.63 602.023 1452.74 C 600.705 1455.06 600.753 1454.86 598.306 1456.01 C 592.266 1456.52 563.417 1467.52 556.652 1470.01 C 556.376 1469.33 556.101 1468.66 555.825 1467.99 C 553.927 1461.02 548.281 1458.12 541.2 1457.76 C 531.187 1457.25 514.833 1464.67 515.291 1476.64 C 515.449 1480.76 519.875 1483.3 523.041 1485.54 C 482.866 1505.26 448.331 1526.24 422.582 1564.28 C 373.403 1636.95 381.1 1723.98 466.355 1762.5 C 507.301 1780.57 553.214 1784.02 596.402 1772.28 C 606.58 1769.57 617.472 1765.19 627.379 1761.4 z" fill="rgb(249,165,169)" transform="translate(0,0)"></path>
<path d="M 598.306 1456.01 C 592.041 1438.55 615.925 1431.39 628.88 1435.49 C 632.631 1436.67 633.675 1440.14 634.824 1443.52 C 631.273 1444.4 630.933 1445.2 628.493 1443.93 C 623.055 1447.77 608.653 1453.63 602.023 1452.74 C 600.705 1455.06 600.753 1454.86 598.306 1456.01 z" fill="rgb(18,22,74)" transform="translate(0,0)"></path>
<path d="M 602.023 1452.74 C 603.864 1443.29 620.403 1437.37 628.493 1443.93 C 623.055 1447.77 608.653 1453.63 602.023 1452.74 z" fill="rgb(249,165,169)" transform="translate(0,0)"></path>
<path d="M 360.824 1641.14 C 363.816 1641.53 366.498 1642.1 369.216 1643.47 C 374.081 1645.92 377.679 1650.52 379.325 1655.67 C 381.604 1663.02 380.736 1670.98 376.929 1677.67 C 372.815 1684.77 367.765 1687.24 360.04 1689.16 C 356.816 1688.57 353.683 1687.93 350.76 1686.38 C 345.945 1683.83 342.224 1678.95 340.713 1673.74 C 338.829 1667.03 339.658 1659.84 343.021 1653.73 C 347.174 1646.26 352.805 1643.2 360.824 1641.14 z" fill="rgb(18,22,74)" transform="translate(0,0)"></path>
<path d="M 358.195 1647.83 C 359.853 1647.79 361.576 1647.71 363.206 1648.09 C 366.756 1648.91 369.729 1651.71 371.396 1654.87 C 374.005 1659.81 373.821 1665.8 372.141 1671.01 C 370.256 1676.86 367.187 1679.48 361.912 1682.29 C 360.406 1682.25 358.974 1682.11 357.484 1681.85 C 353.695 1681.18 350.486 1678.63 348.567 1675.35 C 346.166 1671.25 346.115 1666.26 347.246 1661.75 C 348.958 1654.93 352.389 1651.46 358.195 1647.83 z" fill="rgb(249,165,169)" transform="translate(0,0)"></path>
<path d="M 389.055 1549.2 C 392.251 1549.34 395.607 1549.82 398.475 1551.3 C 402.036 1553.13 404.549 1556.2 405.562 1560.09 C 407.391 1567.11 404.498 1576 400.63 1581.87 C 395.329 1589.91 389.545 1593.13 380.308 1595.03 C 377.144 1594.44 373.998 1593.88 371.159 1592.29 C 367.341 1590.14 364.368 1586.59 363.335 1582.29 C 361.9 1576.32 363.92 1569.49 367.041 1564.38 C 372.352 1555.68 379.279 1551.32 389.055 1549.2 z" fill="rgb(18,22,74)" transform="translate(0,0)"></path>
<path d="M 387.429 1555.95 C 389.802 1555.99 392.196 1556.22 394.339 1557.34 C 396.793 1558.61 398.486 1560.79 399.127 1563.49 C 400.079 1567.51 398.604 1571.84 396.744 1575.36 C 393.129 1582.21 388.778 1585.63 381.487 1587.96 C 379.499 1587.82 377.411 1587.64 375.536 1586.89 C 373.101 1585.92 370.927 1583.91 370.073 1581.41 C 368.927 1578.05 369.72 1574.42 371.078 1571.26 C 374.502 1563.31 379.562 1559.12 387.429 1555.95 z" fill="rgb(249,165,169)" transform="translate(0,0)"></path>
<path d="M 386.786 1730.11 C 390.414 1729.65 393.972 1729.38 397.595 1730.09 C 403.387 1731.22 408.835 1735.51 412.099 1740.32 C 415.77 1745.72 417.647 1752.92 416.083 1759.36 C 414.538 1765.73 410.939 1769.66 405.457 1772.94 C 402.082 1773.32 398.544 1773.64 395.214 1772.77 C 388.628 1771.06 382.56 1765.76 379.163 1759.97 C 376.117 1754.78 374.586 1748.39 376.216 1742.48 C 377.91 1736.33 381.519 1733.31 386.786 1730.11 z" fill="rgb(18,22,74)" transform="translate(0,0)"></path>
<path d="M 389.769 1736.08 C 391.994 1735.95 394.331 1735.75 396.55 1735.99 C 400.167 1736.39 403.846 1739.66 405.914 1742.49 C 408.78 1746.42 409.936 1751.02 409.137 1755.83 C 408.279 1761 406.012 1763.87 401.772 1766.77 C 396.777 1766.65 392.701 1765.02 389.073 1761.54 C 385.267 1757.89 383.001 1753.03 383.212 1747.7 C 383.424 1742.32 385.894 1739.5 389.769 1736.08 z" fill="rgb(249,165,169)" transform="translate(0,0)"></path>
<path d="M 452.331 1490.2 C 454.775 1490.05 457.338 1489.81 459.775 1490.1 C 463.565 1490.56 467.75 1492.61 469.728 1495.98 C 471.901 1499.68 471.34 1504.62 469.929 1508.48 C 466.355 1518.27 458.649 1522.83 449.719 1526.87 C 446.584 1527.09 443.088 1527.56 440.009 1526.78 C 436.586 1525.92 433.317 1523.71 431.764 1520.48 C 429.6 1515.97 430.797 1510.27 432.874 1505.97 C 437.009 1497.4 443.709 1493.3 452.331 1490.2 z" fill="rgb(18,22,74)" transform="translate(0,0)"></path>
<path d="M 452.342 1496.07 C 454.508 1495.89 456.833 1495.79 458.95 1496.37 C 461.53 1497.09 462.677 1499.02 463.906 1501.16 C 464.138 1503.57 464.136 1505.19 463.236 1507.48 C 460.382 1514.73 455.588 1518.11 448.665 1521.07 C 446.799 1521.01 444.821 1521 442.987 1520.63 C 440.43 1520.12 438.933 1518.65 437.57 1516.52 C 437.207 1514.47 437.049 1513.16 437.631 1511.11 C 439.643 1504.04 446.253 1499.31 452.342 1496.07 z" fill="rgb(249,165,169)" transform="translate(0,0)"></path>
<path d="M 458.459 1773.6 C 464.88 1771.86 471.739 1773.72 476.401 1778.46 C 481.064 1783.21 482.804 1790.1 480.953 1796.49 C 479.102 1802.88 473.949 1807.77 467.472 1809.29 C 457.694 1811.58 447.883 1805.61 445.423 1795.87 C 442.964 1786.13 448.765 1776.22 458.459 1773.6 z" fill="rgb(18,22,74)" transform="translate(0,0)"></path>
<path d="M 459.997 1779.74 C 466.203 1777.74 472.864 1781.12 474.897 1787.32 C 476.929 1793.52 473.569 1800.19 467.38 1802.25 C 461.154 1804.32 454.431 1800.94 452.386 1794.7 C 450.341 1788.47 453.754 1781.76 459.997 1779.74 z" fill="rgb(249,165,169)" transform="translate(0,0)"></path>
<path d="M 533.588 1783.15 C 537.156 1783.1 540.804 1782.97 544.162 1784.35 C 547.586 1785.76 550.358 1788.42 551.626 1791.93 C 552.907 1795.48 552.329 1799.43 550.698 1802.76 C 547.78 1808.73 542.918 1810.98 536.947 1813.07 C 533.545 1813.14 530.171 1813.21 526.992 1811.81 C 523.317 1810.19 520.2 1807.24 518.835 1803.41 C 517.5 1799.67 518.04 1795.51 519.947 1792.07 C 522.946 1786.65 527.995 1784.9 533.588 1783.15 z" fill="rgb(18,22,74)" transform="translate(0,0)"></path>
<path d="M 534.415 1787.91 C 534.908 1787.93 535.403 1787.94 535.895 1787.98 C 539.276 1788.25 542.607 1788.92 544.617 1792.01 C 546.038 1794.19 545.942 1796.68 545.166 1799.05 C 543.655 1803.68 540.52 1805.62 536.425 1807.84 C 535.149 1807.74 533.743 1807.68 532.483 1807.4 C 529.312 1806.7 526.161 1805.05 524.683 1802 C 523.662 1799.89 523.814 1797.51 524.719 1795.39 C 526.563 1791.07 530.407 1789.65 534.415 1787.91 z" fill="rgb(249,165,169)" transform="translate(0,0)"></path>
<path d="M 1776.09 927.391 C 1794.02 924.995 1814.69 927.693 1832.05 932.395 C 1871.29 943.015 1904.71 968.807 1924.92 1004.09 C 1945.26 1040.38 1952.79 1092.04 1941.23 1132.25 C 1940.24 1112.46 1937.8 1094.62 1931.28 1075.81 C 1919.05 1040.52 1894.79 1009.56 1860.65 993.192 C 1832.06 979.297 1799.03 977.677 1769.22 988.705 C 1727.68 1003.85 1705.74 1039.73 1687.95 1078 C 1670.48 1114.62 1658.47 1151.91 1632.01 1183.57 C 1608.18 1212.1 1578.47 1235.97 1540.31 1239.47 C 1537.61 1218.19 1533.37 1197.13 1527.63 1176.46 C 1541.13 1172.57 1554.22 1169.37 1566.55 1162.36 C 1626.07 1128.55 1630.74 1037.69 1673.26 984.635 C 1698.85 952.704 1735.35 931.799 1776.09 927.391 z" fill="rgb(96,111,144)" transform="translate(0,0)"></path>
<path d="M 1541.74 1250.45 C 1596.87 1240.72 1635.69 1204.27 1663.59 1157.16 C 1692.83 1107.8 1702.59 1041 1754.46 1008.08 C 1805.35 975.785 1871.13 995.827 1900.71 1046.6 C 1939.92 1111.32 1935.49 1203.4 1867.95 1247.36 C 1846.34 1261.42 1816.3 1260.41 1792.38 1254.61 C 1801.3 1252.26 1808.61 1250.21 1816.91 1246.12 C 1841.65 1233.92 1863.32 1204.91 1871.6 1178.98 C 1880.45 1151.25 1884.13 1117.17 1874.22 1089.13 C 1870.49 1078.59 1865.01 1069.57 1860 1059.72 L 1859.54 1059.36 C 1842.81 1043.98 1835.52 1036.61 1810.43 1036.99 C 1773.61 1037.55 1731.69 1074.58 1718.91 1107.46 C 1717.34 1110.6 1715.1 1115.46 1713.15 1118.22 C 1703.02 1137.76 1696.29 1152.17 1688.02 1172.53 C 1685.11 1178.97 1683.4 1181.42 1679.48 1187.25 C 1673.66 1196.43 1654.92 1226.83 1645.86 1230.93 L 1641.79 1233.4 L 1640.54 1233.08 L 1640.32 1228.34 C 1638.54 1234.85 1637.92 1236 1632.77 1240.33 C 1633.57 1244.96 1633.97 1242.9 1631.88 1246.8 C 1609.6 1268.4 1573.17 1284.5 1543.24 1292.36 C 1543.17 1277.36 1542.76 1265.41 1541.74 1250.45 z" fill="rgb(249,165,169)" transform="translate(0,0)"></path>
<path d="M 1631.88 1246.8 C 1601.95 1257.39 1610.24 1225.4 1629.1 1219.27 C 1638.71 1216.15 1643.34 1222.63 1645.86 1230.93 L 1641.79 1233.4 L 1640.54 1233.08 L 1640.32 1228.34 C 1638.54 1234.85 1637.92 1236 1632.77 1240.33 C 1633.57 1244.96 1633.97 1242.9 1631.88 1246.8 z" fill="rgb(18,22,74)" transform="translate(0,0)"></path>
<path d="M 1632.77 1240.33 C 1627.22 1242.61 1622.07 1245.67 1618.47 1239.37 C 1618.46 1228.49 1630.84 1220.79 1640.32 1228.34 C 1638.54 1234.85 1637.92 1236 1632.77 1240.33 z" fill="rgb(249,165,169)" transform="translate(0,0)"></path>
<path d="M 1859.54 1059.36 C 1840.35 1024.45 1896.22 1033.6 1880.77 1062.6 C 1876.3 1071 1864.96 1064.53 1860 1059.72 L 1859.54 1059.36 z" fill="rgb(18,22,74)" transform="translate(0,0)"></path>
<path d="M 1864.95 1041.64 C 1867.7 1042 1870.12 1042.37 1872.37 1044.07 C 1874.95 1046.04 1876.67 1048.67 1876.95 1051.95 C 1877.28 1055.73 1875.87 1057.74 1873.65 1060.48 C 1871.86 1059.93 1870.09 1059.43 1868.5 1058.41 C 1865.16 1056.27 1861.87 1052.66 1861.69 1048.5 C 1861.54 1045.21 1863.07 1043.98 1864.95 1041.64 z" fill="rgb(255,204,181)" transform="translate(0,0)"></path>
<path d="M 1712.08 1116.6 C 1711.56 1117.2 1711.04 1117.79 1710.5 1118.37 C 1707.42 1121.67 1705.71 1122.83 1701.19 1122.96 C 1686.6 1116.02 1697.28 1084.61 1713.69 1090 C 1720.4 1092.19 1719.05 1100.71 1717.83 1105.75 L 1718.91 1107.46 C 1717.34 1110.6 1715.1 1115.46 1713.15 1118.22 L 1712.08 1116.6 z" fill="rgb(18,22,74)" transform="translate(0,0)"></path>
<path d="M 1712.08 1116.6 L 1717.83 1105.75 L 1718.91 1107.46 C 1717.34 1110.6 1715.1 1115.46 1713.15 1118.22 L 1712.08 1116.6 z" fill="rgb(158,121,145)" transform="translate(0,0)"></path>
<path d="M 1707.07 1096.55 L 1709.35 1097.22 C 1711.33 1099.34 1711.99 1099.94 1712.15 1103 C 1712.41 1108.07 1707.58 1113.84 1704.17 1117.05 L 1702.37 1116.37 C 1700.81 1114.31 1700.11 1113.14 1700.14 1110.47 C 1700.21 1105.12 1703.54 1100.25 1707.07 1096.55 z" fill="rgb(249,165,169)" transform="translate(0,0)"></path>
<path d="M 1678.07 1185.33 C 1648.92 1198.33 1669.41 1141.78 1685.31 1159.81 C 1688.1 1162.98 1687.54 1167.08 1686.93 1170.94 L 1688.02 1172.53 C 1685.11 1178.97 1683.4 1181.42 1679.48 1187.25 L 1678.07 1185.33 z" fill="rgb(18,22,74)" transform="translate(0,0)"></path>
<path d="M 1686.93 1170.94 L 1688.02 1172.53 C 1685.11 1178.97 1683.4 1181.42 1679.48 1187.25 L 1678.07 1185.33 C 1683 1178.16 1683.23 1179.14 1686.93 1170.94 z" fill="rgb(158,121,145)" transform="translate(0,0)"></path>
<path d="M 1676 1163.57 L 1678.16 1163.78 C 1680.17 1165.26 1681.14 1165.76 1681.31 1168.51 C 1681.61 1173.5 1677.02 1178.56 1673.67 1181.64 C 1671.33 1180.21 1670.95 1179.9 1669.66 1177.5 C 1669.7 1171.62 1672.58 1168.14 1676 1163.57 z" fill="rgb(249,165,169)" transform="translate(0,0)"></path>
<path d="M 1891.21 1162.94 C 1892.77 1163.19 1892.91 1163.18 1894.59 1163.63 C 1898.36 1164.62 1901.41 1166.94 1903.3 1170.35 C 1905.98 1175.18 1905.77 1180.98 1903.95 1186.07 C 1901.5 1192.91 1897.92 1196.07 1891.49 1199.08 C 1889.96 1199.01 1889.64 1199.04 1888.01 1198.75 C 1884.37 1198.09 1881.28 1195.49 1879.59 1192.27 C 1876.82 1187 1877.34 1180.76 1879.26 1175.3 C 1881.55 1168.78 1885.06 1165.73 1891.21 1162.94 z" fill="rgb(18,22,74)" transform="translate(0,0)"></path>
<path d="M 1891.26 1169.41 C 1892.73 1169.92 1894.75 1170.55 1895.95 1171.59 C 1897.96 1173.34 1898.99 1175.85 1899 1178.49 C 1899.02 1184.23 1895.37 1188.47 1891.39 1192.1 C 1888.91 1192.01 1887.86 1191.6 1885.79 1190.24 C 1884.11 1187.87 1883.14 1185.96 1883.43 1182.93 C 1884.02 1176.81 1886.55 1173.1 1891.26 1169.41 z" fill="rgb(249,165,169)" transform="translate(0,0)"></path>
<path d="M 1896.21 1095.98 C 1897.21 1096.04 1898.22 1096.06 1899.21 1096.21 C 1903.72 1096.86 1907.08 1099.12 1909.62 1102.91 C 1912.67 1107.48 1913.31 1113.24 1912.15 1118.53 C 1910.81 1124.62 1907.92 1127.65 1902.8 1130.95 C 1901.29 1130.82 1900.1 1130.71 1898.66 1130.33 C 1894.14 1129.15 1890.46 1126.04 1888.2 1121.97 C 1885.64 1117.36 1885.2 1111.75 1886.68 1106.72 C 1888.31 1101.18 1891.35 1098.78 1896.21 1095.98 z" fill="rgb(18,22,74)" transform="translate(0,0)"></path>
<path d="M 1897.04 1102.39 C 1899.1 1102.76 1901.12 1103.1 1902.76 1104.51 C 1905.06 1106.48 1906.35 1109.17 1906.5 1112.19 C 1906.76 1117.36 1905.04 1120.63 1901.77 1124.46 C 1900.54 1124.05 1898.72 1123.58 1897.59 1122.84 C 1895.02 1121.2 1893.31 1118.5 1892.94 1115.47 C 1892.26 1110.39 1894.22 1106.43 1897.04 1102.39 z" fill="rgb(249,165,169)" transform="translate(0,0)"></path>
<path d="M 1859.41 1219.79 C 1860.77 1219.95 1860.98 1219.93 1862.45 1220.31 C 1865.7 1221.14 1868.88 1223.44 1870.27 1226.54 C 1871.5 1229.3 1871.28 1232.32 1870.44 1235.14 C 1868.28 1242.28 1863.69 1245.97 1857.28 1249.22 C 1853.49 1249.12 1849.98 1248.76 1847.25 1245.77 C 1845.22 1243.53 1844.72 1240.7 1845.29 1237.81 C 1846.93 1229.54 1852.78 1224.3 1859.41 1219.79 z" fill="rgb(18,22,74)" transform="translate(0,0)"></path>
<path d="M 1859.62 1227.33 L 1862.53 1228.97 C 1863.24 1230.27 1864.09 1231.13 1863.9 1232.68 C 1863.39 1236.93 1859.64 1239.95 1856.61 1242.56 L 1853.48 1241.45 C 1852.63 1240.14 1851.75 1239.46 1851.91 1237.8 C 1852.36 1233.24 1856.39 1230.11 1859.62 1227.33 z" fill="rgb(255,204,181)" transform="translate(0,0)"></path>
<path d="M 1743.18 1035.07 C 1744.81 1034.88 1746.42 1034.68 1748.06 1034.72 C 1751.03 1034.79 1753.72 1035.66 1755.54 1038.15 C 1757.23 1040.45 1757.36 1043.12 1756.87 1045.82 C 1755.55 1053.19 1751.01 1058.16 1745.15 1062.39 C 1744.06 1062.56 1743.12 1062.75 1741.99 1062.74 C 1738.91 1062.73 1735.52 1061.18 1733.77 1058.58 C 1731.79 1055.65 1731.9 1052.16 1732.58 1048.85 C 1734 1042.01 1737.48 1038.71 1743.18 1035.07 z" fill="rgb(18,22,74)" transform="translate(0,0)"></path>
<path d="M 1743.29 1040.89 C 1745.38 1040.7 1746.95 1040.83 1749 1041.25 C 1749.86 1042.23 1750.68 1042.69 1750.73 1044.08 C 1750.89 1048.31 1747.26 1052.39 1744.77 1055.47 L 1741.99 1055.93 C 1739.12 1054.93 1739.14 1055.12 1737.78 1052.42 C 1737.96 1046.94 1739.65 1044.69 1743.29 1040.89 z" fill="rgb(249,165,169)" transform="translate(0,0)"></path>
<path d="M 1805.93 1006.03 C 1806.96 1006.01 1808 1006.01 1809.03 1006.05 C 1812.68 1006.2 1815.94 1007.16 1818.2 1010.22 C 1820.37 1013.15 1820.6 1016.89 1819.61 1020.28 C 1817.87 1026.23 1814.32 1029.36 1809.07 1032.28 C 1807.35 1032.27 1805.62 1032.3 1803.94 1031.88 C 1800.81 1031.12 1798.18 1029.24 1796.54 1026.46 C 1794.65 1023.24 1794.6 1019.52 1795.75 1016.05 C 1797.5 1010.79 1801.14 1008.32 1805.93 1006.03 z" fill="rgb(18,22,74)" transform="translate(0,0)"></path>
<path d="M 1807.08 1011.55 C 1809.19 1011.78 1810.52 1012.3 1812.41 1013.26 C 1813.19 1014.53 1813.91 1015.18 1813.85 1016.74 C 1813.68 1021.03 1810.65 1023.75 1807.63 1026.38 C 1805.86 1025.81 1804.41 1025.01 1802.76 1024.16 C 1801.49 1022.12 1800.51 1021.14 1801.17 1018.6 C 1801.98 1015.42 1804.65 1013.47 1807.08 1011.55 z" fill="rgb(249,165,169)" transform="translate(0,0)"></path>
<path d="M 1557.1 1258.97 C 1559.23 1258.89 1561.45 1258.74 1563.57 1258.97 C 1566.16 1259.26 1568.66 1260.89 1570.13 1263 C 1571.63 1265.15 1571.97 1267.86 1571.44 1270.38 C 1570.26 1275.96 1566.82 1278.79 1562.25 1281.74 C 1560.36 1281.96 1558.37 1282.23 1556.46 1282.14 C 1553.87 1282.02 1551.14 1280.67 1549.53 1278.65 C 1547.83 1276.52 1547.57 1273.7 1547.99 1271.1 C 1548.92 1265.32 1552.49 1262.12 1557.1 1258.97 z" fill="rgb(18,22,74)" transform="translate(0,0)"></path>
<path d="M 1557.55 1264.69 C 1558.54 1264.72 1560.53 1264.63 1561.53 1265 C 1563.98 1265.9 1564.22 1266.71 1565.13 1268.92 C 1564.76 1272.4 1563.51 1274.01 1561.4 1276.72 C 1559.94 1276.94 1558.45 1276.89 1556.98 1276.93 C 1554.67 1275.56 1554.69 1275.6 1553.85 1273.05 C 1554.2 1269.47 1555.5 1267.61 1557.55 1264.69 z" fill="rgb(249,165,169)" transform="translate(0,0)"></path>
<path d="M 1222.66 1062.56 L 1223.22 1057.95 C 1229.76 1053.37 1252.45 1067.03 1258.99 1071.13 C 1343.55 1124.13 1403.04 1253.04 1376.81 1351.47 C 1373.99 1361.9 1370.46 1372.12 1366.25 1382.07 C 1351.2 1364.21 1332.22 1343.02 1318.95 1324.12 C 1280.25 1268.98 1252.68 1204.12 1236.92 1138.76 C 1232.74 1121.45 1229.45 1102.2 1226.14 1084.66 L 1223.17 1087.85 C 1222.2 1080.77 1221.3 1072.71 1219.62 1065.86 L 1220.62 1061.72 L 1222.66 1062.56 z" fill="rgb(96,111,144)" transform="translate(0,0)"></path>
<path d="M 1219.62 1065.86 L 1220.62 1061.72 L 1222.66 1062.56 C 1223.6 1069.53 1224.51 1077.96 1226.14 1084.66 L 1223.17 1087.85 C 1222.2 1080.77 1221.3 1072.71 1219.62 1065.86 z" fill="rgb(18,22,74)" transform="translate(0,0)"></path>
<path d="M 1471.05 1477.2 C 1509.99 1496.96 1549.78 1515.26 1592.16 1526.09 C 1655.09 1542.16 1720.43 1549.96 1777.17 1584.38 C 1839.06 1621.92 1871.29 1701.6 1835.62 1768.06 C 1814.64 1808.3 1771.82 1838.62 1726.1 1844.17 C 1712.89 1845.78 1704.23 1842.48 1692.63 1836.7 C 1755.03 1833.7 1792.15 1815.88 1812.25 1753.74 C 1819.19 1754.26 1823.45 1755.25 1829.14 1750.43 C 1833.27 1746.97 1835.84 1742.01 1836.29 1736.64 C 1837.14 1726.06 1830.79 1719.49 1820.43 1719.08 C 1819.58 1719.05 1818.73 1719.03 1817.88 1719.02 C 1816.41 1699.61 1814.2 1695.59 1811.19 1678.65 L 1812.31 1678.1 C 1810.28 1676.44 1809 1675.03 1808.54 1672.53 L 1810.28 1672.15 C 1805.73 1669.37 1800.37 1657.18 1799.76 1651.75 C 1798.87 1649.72 1795.8 1647.62 1794.03 1645.57 C 1787.1 1634.25 1778.76 1625.77 1768.78 1617.23 C 1798.96 1603.26 1770.02 1582.53 1762.49 1584.48 L 1764.09 1587.2 C 1767.45 1589.02 1771.14 1590.39 1771.92 1594.44 C 1781.38 1606.6 1770.47 1612.93 1757.76 1605.98 C 1752.91 1606.15 1752.11 1604.91 1747.94 1602.03 C 1744.07 1600.43 1734.32 1594.9 1729.54 1592.66 C 1719.34 1587.88 1714 1586.51 1703.98 1583.01 L 1703.97 1581.72 C 1701.14 1579.27 1687.07 1576.87 1681.56 1575.18 C 1674.28 1574.53 1618.99 1560.63 1613 1557.62 C 1612.27 1556.79 1612.8 1557.23 1611.09 1556.8 C 1602.38 1557.12 1570.62 1546.71 1560.96 1543.08 L 1560.84 1541.88 C 1557.51 1539.57 1558.33 1541.05 1557.61 1537.74 C 1549.31 1540.96 1543.25 1537 1536.94 1531.75 C 1534.37 1531.36 1533.52 1531.1 1530.99 1530.45 C 1524.9 1531.15 1461.47 1502.08 1451.81 1497.52 C 1458.27 1490.85 1464.91 1484.16 1471.05 1477.2 z" fill="rgb(249,165,169)" transform="translate(0,0)"></path>
<path d="M 1681.56 1575.18 C 1655.43 1550.61 1711.16 1548.54 1711.32 1570.12 C 1711.36 1574.13 1707.11 1579.24 1703.97 1581.72 C 1701.14 1579.27 1687.07 1576.87 1681.56 1575.18 z" fill="rgb(18,22,74)" transform="translate(0,0)"></path>
<path d="M 1686.23 1559.91 C 1692.07 1559.96 1697.65 1560.61 1702.13 1564.82 C 1704.03 1566.6 1704.19 1568.07 1704.33 1570.53 C 1703.23 1573.54 1701.88 1574.47 1699.36 1576.19 C 1696.13 1575.57 1693.05 1574.91 1690.08 1573.46 C 1686.38 1571.65 1683.91 1569.98 1682.55 1565.96 C 1683.24 1562.68 1683.96 1562.25 1686.23 1559.91 z" fill="rgb(249,165,169)" transform="translate(0,0)"></path>
<path d="M 1794.03 1645.57 C 1815.85 1631.86 1837.32 1667.53 1812.31 1678.1 C 1810.28 1676.44 1809 1675.03 1808.54 1672.53 L 1810.28 1672.15 C 1805.73 1669.37 1800.37 1657.18 1799.76 1651.75 C 1798.87 1649.72 1795.8 1647.62 1794.03 1645.57 z" fill="rgb(18,22,74)" transform="translate(0,0)"></path>
<path d="M 1799.76 1651.75 C 1802.12 1650.56 1804.75 1648.61 1807.38 1649.58 C 1817.75 1653.4 1822.49 1666.83 1810.28 1672.15 C 1805.73 1669.37 1800.37 1657.18 1799.76 1651.75 z" fill="rgb(249,165,169)" transform="translate(0,0)"></path>
<path d="M 1747.94 1602.03 C 1744.09 1588.45 1750.28 1580.68 1764.09 1587.2 C 1767.45 1589.02 1771.14 1590.39 1771.92 1594.44 C 1781.38 1606.6 1770.47 1612.93 1757.76 1605.98 C 1752.91 1606.15 1752.11 1604.91 1747.94 1602.03 z" fill="rgb(249,165,169)" transform="translate(0,0)"></path>
<path d="M 1747.94 1602.03 C 1744.09 1588.45 1750.28 1580.68 1764.09 1587.2 C 1767.45 1589.02 1771.14 1590.39 1771.92 1594.44 C 1766.22 1590.69 1761.1 1586.77 1754.62 1591.79 C 1751.65 1597.57 1754.46 1601.23 1757.76 1605.98 C 1752.91 1606.15 1752.11 1604.91 1747.94 1602.03 z" fill="rgb(18,22,74)" transform="translate(0,0)"></path>
<path d="M 1611.09 1556.8 C 1605.69 1553.97 1601.65 1551.57 1603.42 1544.95 C 1614.38 1531.58 1642.88 1543.61 1630.32 1557.77 C 1624.49 1560.85 1619.55 1558.97 1613 1557.62 C 1612.27 1556.79 1612.8 1557.23 1611.09 1556.8 z" fill="rgb(18,22,74)" transform="translate(0,0)"></path>
<path d="M 1609.57 1545.19 C 1614.07 1544.78 1621.42 1543.58 1624.98 1547.15 C 1627.29 1549.46 1626.99 1551.28 1627.13 1554.24 C 1622.7 1554.31 1615.56 1553.59 1612.02 1550.71 C 1609.64 1548.77 1609.84 1548.09 1609.57 1545.19 z" fill="rgb(249,165,169)" transform="translate(0,0)"></path>
<path d="M 1530.99 1530.45 C 1532.2 1526.65 1533.29 1522.65 1537.19 1520.99 C 1549.18 1515.88 1569.76 1527.82 1560.84 1541.88 C 1557.51 1539.57 1558.33 1541.05 1557.61 1537.74 C 1549.31 1540.96 1543.25 1537 1536.94 1531.75 C 1534.37 1531.36 1533.52 1531.1 1530.99 1530.45 z" fill="rgb(18,22,74)" transform="translate(0,0)"></path>
<path d="M 1536.94 1531.75 C 1538.59 1529.42 1539.45 1527.04 1542.57 1526.6 C 1549.45 1525.64 1555.92 1531.26 1557.61 1537.74 C 1549.31 1540.96 1543.25 1537 1536.94 1531.75 z" fill="rgb(249,165,169)" transform="translate(0,0)"></path>
<path d="M 1426.94 193.162 C 1464.15 191.404 1508.9 229.406 1532.34 255.317 C 1550.67 275.582 1597.04 347.701 1557.24 366.681 L 1555.85 366.851 C 1479.98 376.608 1372.9 216.248 1426.94 193.162 z" fill="rgb(249,165,169)" transform="translate(0,0)"></path>
<path d="M 495.684 978.609 C 498.506 981.181 633.519 1259.96 650.163 1293.88 L 622.784 1301.91 L 612.058 1305.14 C 564.462 1212.94 517.702 1120.31 471.782 1027.26 C 478.237 1010.34 486.238 994.055 495.684 978.609 z" fill="rgb(255,255,255)" transform="translate(0,0)"></path>
<path d="M 523.472 940.824 C 529.807 949.359 533.893 961.882 538.68 971.614 C 553.334 1000.74 567.562 1030.08 581.36 1059.62 L 689.505 1280.37 C 680.975 1283.27 672.474 1286.25 664.004 1289.32 L 654.985 1292.3 L 499.274 973.503 C 506.544 962.109 515.09 951.41 523.472 940.824 z" fill="rgb(255,255,255)" transform="translate(0,0)"></path>
<path d="M 870.344 1004.51 C 880.95 1010.8 891.323 1017.58 901.774 1024.13 C 897.06 1044.33 896.142 1071.82 886.066 1089.94 C 881.026 1099 871.655 1107.6 864.353 1115.01 C 816.809 1163.24 753.345 1195.77 689.199 1215.84 L 679.494 1218.74 C 672.594 1205.09 666.281 1191.18 659.911 1177.28 C 691.075 1173.11 720.416 1165.55 748.446 1150.81 C 806.683 1119.91 850.456 1067.37 870.344 1004.51 z" fill="rgb(96,111,144)" transform="translate(0,0)"></path>
<path d="M 1345.68 1420.23 C 1315.89 1391.69 1289.76 1359.56 1267.89 1324.58 C 1257.16 1307.24 1225.86 1247.01 1222.63 1229.68 C 1217.42 1201.71 1213.78 1090.62 1219.62 1065.86 C 1221.3 1072.71 1222.2 1080.77 1223.17 1087.85 C 1238.17 1182.45 1268.35 1266.71 1325.94 1344.32 C 1335.06 1356.61 1352.23 1377.59 1363.48 1387.44 C 1358.52 1398.95 1352.16 1409.55 1345.68 1420.23 z" fill="rgb(249,165,169)" transform="translate(0,0)"></path>
<path d="M 826.277 363.846 C 834.076 367.539 841.036 371.998 845.311 380.342 C 865.755 420.246 866.461 477.963 868.722 522.254 C 869.045 528.57 869.428 546.78 868.499 550.794 L 867.427 550.893 C 863.161 544.041 857.033 525.084 852.13 515.223 L 851.25 513.471 C 833.503 485.349 797.595 471.115 767.32 459.681 C 784.294 425.907 804.948 394.959 826.277 363.846 z" fill="rgb(96,111,144)" transform="translate(0,0)"></path>
<path d="M 877.941 1109.95 C 877.723 1112.64 876.387 1115.07 875.174 1117.46 C 869.661 1128.34 846.219 1170.69 837.475 1173.53 C 831.92 1171.97 829.199 1171.51 823.665 1173.52 C 816.24 1176.22 809.732 1181.64 806.464 1188.91 C 802.987 1196.65 804.513 1201.67 807.569 1209.16 C 774.037 1237.85 748.192 1255.53 707.283 1273.03 L 700.91 1259.87 C 694.559 1248.18 688.498 1236.33 682.734 1224.33 C 762.948 1195.95 818.167 1173.22 877.941 1109.95 z" fill="rgb(249,165,169)" transform="translate(0,0)"></path>
<path d="M 745.015 1215.17 C 748.455 1214.68 752.49 1214.16 755.876 1215.15 C 759.461 1216.2 762.834 1218.63 764.449 1222.06 C 766.182 1225.73 765.839 1229.93 764.371 1233.63 C 761.469 1240.94 755.751 1243.98 748.889 1247.01 C 746.022 1247.75 742.766 1248.18 739.826 1247.59 C 736.104 1246.84 732.732 1244.75 730.867 1241.39 C 728.686 1237.45 728.88 1232.56 730.35 1228.42 C 732.964 1221.06 738.306 1218.25 745.015 1215.17 z" fill="rgb(18,22,74)" transform="translate(0,0)"></path>
<path d="M 749.39 1220.96 C 752.33 1221.56 755.554 1222.42 757.455 1224.95 C 758.897 1226.87 758.764 1228.83 758.114 1231.03 C 756.505 1236.47 750.257 1239.14 745.56 1241.03 C 741.927 1240.6 739.733 1239.98 737.024 1237.35 C 736.154 1234.73 735.738 1233.92 736.743 1231.19 C 738.79 1225.63 744.363 1223.07 749.39 1220.96 z" fill="rgb(249,165,169)" transform="translate(0,0)"></path>
<path d="M 1008.3 1417.61 L 1009.02 1420.18 C 991.797 1442.24 974.783 1464.48 954.538 1484.04 C 925.956 1511.66 893.44 1535.55 862.486 1560.43 C 856.68 1565.1 849.152 1572.22 842.553 1575.34 C 838.363 1573.26 835.572 1573.36 833.612 1570.34 C 836.067 1567.08 845.002 1561.25 848.568 1558.44 C 863.76 1546.49 879.451 1534.37 894.2 1521.93 C 932.546 1489.57 976.703 1456.81 1008.3 1417.61 z" fill="rgb(249,165,169)" transform="translate(0,0)"></path>
<path d="M 739.452 1418.88 L 740.232 1419.07 C 744.541 1423.34 747.52 1434.02 749.981 1439.77 C 724.649 1450.92 699.225 1462.93 672.387 1470.02 C 668.358 1463.67 665.435 1455.75 662.181 1448.92 C 688.648 1440.11 714.263 1431.01 739.452 1418.88 z" fill="rgb(255,255,255)" transform="translate(0,0)"></path>
<path d="M 460.882 1114.66 C 464.222 1118.32 466.646 1122.79 470.166 1126.43 C 482.953 1139.64 499.874 1147.99 515.994 1156.38 C 523.386 1168.42 529.614 1181.8 535.544 1194.62 C 516.695 1191.86 496.687 1180.24 483.424 1166.83 C 469.08 1152.32 460.764 1135.23 460.882 1114.66 z" fill="rgb(96,111,144)" transform="translate(0,0)"></path>
<path d="M 465.386 1233.04 C 495.968 1239.93 530.045 1249.57 561.543 1246.25 C 566.21 1254.63 570.682 1262.96 574.642 1271.71 C 551.619 1275.1 485.198 1247.48 465.386 1233.04 z" fill="rgb(249,165,169)" transform="translate(0,0)"></path>
<path d="M 1444.79 773.09 C 1448.8 772.99 1452.29 773.19 1455.84 775.265 C 1459.7 777.52 1462.33 781.091 1463.43 785.413 C 1465.06 791.78 1463.5 798.81 1459.95 804.256 C 1455.53 811.043 1450.1 813.879 1442.33 815.363 C 1437.65 815.357 1432.97 815.355 1428.92 812.676 C 1423.22 808.898 1422.09 801.792 1420.78 795.589 C 1421.52 792.809 1422.43 789.922 1423.81 787.381 C 1428.31 779.073 1436.21 775.668 1444.79 773.09 z" fill="rgb(255,255,255)" transform="translate(0,0)"></path>
<path d="M 1440.06 778.113 C 1442.67 778.013 1445.71 777.666 1448.24 778.39 C 1451.13 779.216 1453.71 781.57 1454.94 784.284 C 1456.46 787.666 1456.07 791.511 1454.68 794.858 C 1452.36 800.393 1448.64 802.863 1443.32 805.209 C 1441.08 805.465 1438.57 805.882 1436.32 805.523 C 1433.72 805.085 1431.42 803.597 1429.95 801.409 C 1427.81 798.161 1427.83 794.468 1428.78 790.829 C 1430.58 783.987 1434.08 781.377 1440.06 778.113 z" fill="rgb(32,41,97)" transform="translate(0,0)"></path>
<path d="M 462.704 1049.43 C 467.65 1055.77 500.03 1120.31 500.397 1125.81 L 498.145 1125.11 C 480.5 1113.42 465.942 1100.35 456.552 1081.06 C 458.168 1070.4 460.121 1059.9 462.704 1049.43 z" fill="rgb(255,255,255)" transform="translate(0,0)"></path>
<path d="M 739.356 1696.32 C 739.427 1687.09 751.654 1653.59 758.53 1648.65 C 763.011 1651.99 761.708 1652.71 766.411 1653.49 C 769.568 1652.16 771.794 1650.67 774.94 1651.53 C 774.427 1654.46 773.777 1655.11 771.955 1657.71 C 765.309 1667.19 762.692 1679.88 759.253 1691.26 C 758.326 1694.49 758.315 1695.32 755.979 1697.81 C 754.658 1702 753.748 1704.98 751.967 1709.03 L 752.285 1709.59 L 751.804 1711.11 C 747.654 1713.33 749.409 1712.78 744.559 1712.67 C 737.455 1709.41 737.833 1702.75 739.356 1696.32 z" fill="rgb(249,165,169)" transform="translate(0,0)"></path>
<path d="M 739.356 1696.32 C 745.223 1687.02 749.595 1685.22 759.253 1691.26 C 758.326 1694.49 758.315 1695.32 755.979 1697.81 C 754.658 1702 753.748 1704.98 751.967 1709.03 L 752.285 1709.59 L 751.804 1711.11 C 747.654 1713.33 749.409 1712.78 744.559 1712.67 C 737.455 1709.41 737.833 1702.75 739.356 1696.32 z" fill="rgb(18,22,74)" transform="translate(0,0)"></path>
<path d="M 751.967 1709.03 C 749.074 1710.62 749.246 1710.81 746.017 1710.63 C 738.725 1705.97 742.832 1695.52 750.036 1693.81 C 754.14 1694.87 752.721 1694.31 755.979 1697.81 C 754.658 1702 753.748 1704.98 751.967 1709.03 z" fill="rgb(249,165,169)" transform="translate(0,0)"></path>
<path d="M 757.86 1710.07 C 759.124 1711.79 760.554 1728.36 761.402 1732.15 C 762.489 1737 764.205 1741.38 766.175 1745.93 L 765.221 1746.52 L 763.791 1747.43 C 761.951 1748.58 760.026 1749.54 758.852 1751.47 C 755.289 1757.3 759.3 1762.99 761.159 1768.35 L 755.247 1762.59 C 745.261 1750.3 738.126 1734.35 736.157 1718.52 C 735.844 1716.01 736.153 1714.8 737.622 1712.81 L 740.113 1712.72 C 742.234 1714.17 745.684 1717.01 748.318 1716.81 C 752.476 1716.49 754.557 1713.95 757.093 1710.98 L 757.86 1710.07 z" fill="rgb(249,165,169)" transform="translate(0,0)"></path>
<path d="M 784.962 1764.1 C 791.053 1767.87 797.186 1770.69 804.088 1772.55 C 816.283 1775.84 836.613 1775.26 844.656 1786.4 C 846.43 1788.86 847.176 1790.94 846.759 1793.92 L 845.037 1794.82 C 840.854 1794.46 837.828 1791.3 834.643 1788.78 C 820.228 1782.04 804.872 1785.06 789.752 1781.72 C 783.49 1780.34 770.787 1777.58 767.348 1772.14 C 771.96 1772.62 777.226 1773.91 781.469 1771.71 C 783.625 1769.67 784.01 1767.93 784.706 1765.17 L 784.962 1764.1 z" fill="rgb(249,165,169)" transform="translate(0,0)"></path>
<path d="M 812.2 1588.58 L 820.998 1592.96 C 820.999 1594.78 790.65 1626.41 787.026 1629.48 C 784.456 1627.13 782.345 1626.61 779.054 1625.62 L 777.358 1625.12 L 777.334 1623.3 C 782.737 1616.05 804.964 1593.53 812.2 1588.58 z" fill="rgb(249,165,169)" transform="translate(0,0)"></path>
<path d="M 1384.24 1185.39 C 1386.21 1186.15 1388.23 1186.99 1389.82 1188.42 C 1394.03 1192.2 1396.39 1197.63 1396.3 1203.29 C 1396.22 1208.31 1394.76 1210.7 1391.19 1214.12 C 1389.77 1213.71 1388.79 1213.04 1387.53 1212.27 C 1383.83 1206.45 1380.29 1199.1 1380.3 1192 C 1380.31 1188.51 1381.98 1187.65 1384.24 1185.39 z" fill="rgb(249,165,169)" transform="translate(0,0)"></path>
<path d="M 1817.57 1724.27 C 1819.81 1724.39 1822.72 1724.32 1824.76 1725.3 C 1827.23 1726.5 1828.82 1729.51 1829.33 1732.12 C 1830.41 1737.7 1827.67 1744.08 1824.54 1748.54 C 1821.52 1748.91 1819.35 1749.26 1816.42 1748.08 C 1812.67 1742.39 1816.72 1731.13 1817.57 1724.27 z" fill="rgb(249,165,169)" transform="translate(0,0)"></path>
<path d="M 537.589 1464.03 C 541.264 1464.03 543.764 1464.25 547.1 1465.87 C 548.515 1467.87 548.524 1467.74 548.148 1470.15 C 543.906 1475.74 539.55 1476.94 533.214 1479.18 C 529.977 1479.94 527.848 1479.95 524.828 1478.54 C 523.8 1476.23 523.488 1475.81 524.592 1473.31 C 527 1467.87 532.367 1465.77 537.589 1464.03 z" fill="rgb(249,165,169)" transform="translate(0,0)"></path>
<path d="M 828.63 1177.78 C 830.709 1178 831.947 1178.53 833.779 1179.52 L 834.149 1181.69 C 830.911 1189.28 821.849 1195.6 815.679 1201 L 813.962 1201.92 L 812.264 1200.89 C 811.25 1197.83 810.976 1195.72 812.23 1192.65 C 815.398 1184.89 821.269 1181.1 828.63 1177.78 z" fill="rgb(249,165,169)" transform="translate(0,0)"></path>
<path d="M 1302.37 1486.83 C 1305.03 1487.33 1306.26 1487.92 1308.36 1489.62 C 1309.34 1492.06 1309.86 1493.47 1308.97 1496.08 C 1307.06 1501.68 1302.13 1504.75 1297.15 1507.24 C 1295.08 1506.62 1292.93 1505.76 1291.53 1503.99 C 1289.94 1501.97 1289.7 1499.95 1290.28 1497.51 C 1291.54 1492.26 1298.07 1488.96 1302.37 1486.83 z" fill="rgb(249,165,169)" transform="translate(0,0)"></path>
<path d="M 812.2 1588.58 C 813.402 1582.21 825.961 1572.65 833.514 1574.41 L 830.882 1574.94 C 835.073 1576.8 833.918 1575.36 835.585 1578.52 C 834.683 1583.22 829.747 1585.91 825.813 1588.67 C 823.722 1590.34 822.755 1590.92 820.998 1592.96 L 812.2 1588.58 z" fill="rgb(249,165,169)" transform="translate(0,0)"></path>
<path d="M 812.2 1588.58 C 813.402 1582.21 825.961 1572.65 833.514 1574.41 L 830.882 1574.94 C 826.846 1577.16 822.095 1579.23 819.33 1582.7 C 819.092 1587.14 821.843 1587.16 825.813 1588.67 C 823.722 1590.34 822.755 1590.92 820.998 1592.96 L 812.2 1588.58 z" fill="rgb(18,22,74)" transform="translate(0,0)"></path>
<path d="M 771.825 1630.89 C 774.217 1630.89 776.585 1630.66 778.762 1631.82 C 780.148 1632.55 780.141 1633.51 780.668 1634.87 C 779.329 1640.25 775.308 1643 771.082 1646.17 C 768.483 1647.03 767.191 1647.04 764.822 1646.01 L 764.163 1643.95 C 765.258 1638.14 767.679 1635.03 771.825 1630.89 z" fill="rgb(249,165,169)" transform="translate(0,0)"></path>
<path d="M 765.62 1753.29 L 769.4 1753.94 C 772.922 1756.61 776.126 1758.96 777.229 1763.45 C 777.683 1765.3 776.113 1766.79 775.145 1768.33 C 773.321 1768.11 771.537 1767.64 769.843 1766.93 C 767.141 1765.79 764.029 1763.3 763.396 1760.3 C 762.67 1756.86 763.841 1755.87 765.62 1753.29 z" fill="rgb(249,165,169)" transform="translate(0,0)"></path>
<path d="M 1362.87 1428.56 C 1365.05 1430.08 1364.54 1430.03 1365.02 1432.45 C 1363.54 1437.82 1360.58 1441.19 1355.79 1443.93 L 1353.72 1441.78 C 1354.14 1437.15 1359.86 1432 1362.87 1428.56 z" fill="rgb(249,165,169)" transform="translate(0,0)"></path>
<path d="M 1763.71 1849.43 C 1755.93 1850.56 1749.56 1850.43 1741.84 1849.22 C 1743.44 1848.31 1754.61 1847.67 1757.21 1847.46 L 1757.99 1848.73 L 1763.71 1849.43 z" fill="rgb(58,69,119)" transform="translate(0,0)"></path>
<path d="M 1008.3 1417.61 C 1010.65 1414.6 1013.44 1410.75 1016.02 1408.06 L 1017.46 1408.44 L 1017.85 1407.34 C 1015.82 1412.37 1012.41 1415.99 1009.02 1420.18 L 1008.3 1417.61 z" fill="rgb(96,111,144)" transform="translate(0,0)"></path>
<path d="M 1550.36 1837.64 C 1551.35 1840.67 1553.11 1844.83 1552.6 1847.74 C 1550.38 1844.41 1550.29 1843.54 1549.1 1839.62 L 1550.36 1837.64 z" fill="rgb(140,132,172)" transform="translate(0,0)"></path>
<metadata><recraft-signature>{"signed_by": "recraft", "signature_b64": "7JzV4pxvWLmVp9EC1+j/AfbBq4penrBxTKfvIGLim9YMeoq7q3+5mimO0P7uZBcj/ew4tHi2YOxFhk5WY5i0AA==", "signing_algo": "Ed25519", "generation_timestamp": 1770824171, "identifier": "eb30f1a6-befc-4047-8820-6ccf6f43a9a2"}</recraft-signature></metadata></svg>