<svg xmlns="http://www.w3.org/2000/svg" height="1024" preserveAspectRatio="none" style="display: block;" version="1.1" viewBox="0 0 2048 2048" width="1024">
<path d="M 0 0 L 2048 0 L 2048 2048 L 0 2048 L 0 0 z" fill="rgb(255,255,255)" transform="translate(0,0)"></path>
<path d="M 788.778 670.839 C 789.773 634.508 788.188 601.344 792.948 565.009 C 809.42 439.284 866.288 294.625 959.197 206.216 C 1041.04 128.333 1158.7 85.8088 1271.02 89.0845 C 1402.55 92.3631 1527.35 147.935 1617.8 243.498 C 1690.94 321.256 1741.92 424.245 1737.83 532.624 C 1734.36 624.434 1684.77 697.586 1620.03 758.648 C 1531.91 841.776 1422.63 889.457 1324.54 960.269 C 1435.41 983.279 1519.38 1029.56 1582.37 1126.3 C 1618.85 1181.59 1646.92 1257.14 1719.62 1271.84 C 1747.96 1277.56 1781.29 1272.39 1805.06 1256.36 C 1859.2 1219.87 1865.08 1136.87 1828.94 1085.82 C 1784.43 1022.94 1702.6 1008.65 1630.85 1020.4 C 1625.9 1021.24 1599.69 1027.46 1598.12 1026.63 C 1568.28 1010.98 1597.39 983.309 1611.31 976.09 C 1753.76 902.227 1970.63 996.681 1961.9 1171.96 C 1961.41 1181.89 1959.36 1191.16 1959.09 1200.99 C 1962.23 1218.83 1968.75 1235.91 1972.49 1254.46 C 1983.36 1311.16 1980.19 1369.66 1963.26 1424.86 C 1942.19 1494.31 1896.54 1564.42 1834.81 1604.05 C 1838.06 1630.12 1819.55 1631.66 1800.43 1641.94 C 1760.72 1849.66 1574.79 1988.02 1364.2 1951.64 C 1227.11 1927.96 1126.68 1823.42 1068.57 1702.42 C 1063.9 1692.7 1052.92 1659.83 1044.53 1657.19 L 1042.94 1657.68 L 1043.51 1659.06 C 1052.9 1682.28 1036.66 1713.91 1016.08 1726.28 C 1011.1 1744.84 997.895 1765.82 988.546 1782.81 C 990.006 1796.02 983.665 1808.92 975.575 1819.07 C 965.381 1831.86 954.967 1836.39 939.401 1839.15 C 924.966 1852.24 911.525 1866.49 895.426 1877.68 C 878.244 1889.61 866.619 1906.54 847.746 1916.46 C 837.306 1921.95 827.457 1920.94 816.491 1923.59 C 803.968 1927.66 791.558 1933.11 778.506 1937.26 C 738.53 1950.09 696.599 1955.73 654.656 1953.92 C 497.473 1946.21 368.684 1824.9 395.764 1660.65 C 361.452 1639.42 333.093 1622.99 291.203 1621.95 C 282.37 1621.73 267.913 1621.52 259.435 1624.01 C 215.724 1636.85 177.494 1675.63 154.798 1713 C 149.805 1721.26 145.28 1729.79 141.244 1738.56 C 138.884 1743.65 135.843 1753.88 130.779 1755.94 C 127.747 1753.59 127.36 1748.67 126.88 1744.92 C 119.882 1690.13 130.837 1642.49 165.216 1598.55 C 203.405 1549.66 259.671 1518.2 321.321 1511.28 C 370.988 1505.26 420.599 1516.73 467.976 1530.03 C 515.958 1543.49 571.765 1545.01 616.337 1520.04 C 628.756 1513.1 640.22 1503.19 651.141 1493.9 C 623.164 1505.67 612.027 1514.65 580.436 1517.58 C 511.035 1524 436.082 1495.13 407.519 1427.63 C 401.205 1412.36 399.394 1398.52 398.244 1382.04 C 329.895 1421.38 262.255 1369.28 240.188 1302.89 C 222.91 1296.11 196.658 1286.44 180.797 1278.6 C 175.314 1268.16 163.488 1225.24 159.468 1211.87 C 142.75 1156.57 126.567 1101.12 110.919 1045.51 L 85.9298 959.294 C 81.8026 944.834 73.951 919.035 72.8439 905.028 C 81.1933 895.934 84.6076 891.855 96.7806 888.286 C 171.742 914.009 249.283 944.604 324.012 971.982 L 433.692 1012.23 C 458.81 1021.26 483.997 1030.2 508.95 1039.67 C 514.749 1041.87 522.295 1044.94 524.848 1050.75 L 525.59 1052.39 C 530.084 1062.5 541.234 1102.33 544.826 1115.75 C 550.499 1136.95 560.861 1164.17 565.939 1184.2 C 581.294 1189.44 596.234 1195.45 611.231 1200.57 C 612.21 1175.06 616.698 1152.9 636.415 1135.24 C 662.158 1112.19 692.77 1112.84 723.305 1123.64 C 724.92 1115.66 726.62 1105.96 728.758 1098.23 C 614.909 1097.13 547.732 1046.62 522.13 934.476 C 518.116 916.893 515.613 898.919 511.94 881.342 C 509.383 882.299 504.684 883.222 503.839 886.07 C 500.886 896.022 482.152 898.386 473.88 895.346 C 471.274 893.074 471.195 892.26 469.962 889.092 C 465.751 889.066 445.4 888.137 443.153 888.464 L 442.151 890.048 C 440.993 891.84 440.875 892.078 438.958 893.117 C 434.789 893.487 409.962 886.603 408.246 880.042 C 407.97 878.989 409.881 876.521 410.617 875.458 C 407.342 871.839 398.423 866.648 393.987 864.579 C 390.169 867.45 391.531 867.209 387.266 867.839 C 371.546 863.089 378.988 848.709 368.528 840.13 C 360.087 838.059 359.48 837.463 358.319 828.48 C 359.935 826.077 359.973 826.06 362.141 824.128 L 362.121 823.356 L 361.687 822.129 C 358.485 812.945 348.646 811.55 350.908 799.775 C 353.475 797.556 351.93 798.294 356.05 798.348 C 355.839 786.847 356.44 775.345 357.85 763.929 C 353.86 764.062 332.213 763.718 335.305 755.453 C 346.452 725.66 398.113 720.127 424.985 720.5 C 427.408 714.698 431.774 706.654 434.719 700.833 C 431.102 698.669 425.806 695.851 423.967 691.891 C 418.716 680.586 434.793 668.438 443.365 665.169 C 447.263 666.586 456.995 674.586 461.014 677.549 C 469.873 672.166 473.884 669.412 484.036 666.713 C 482.435 662.784 479.048 655.844 479.264 651.992 C 486.768 644.022 505.391 634.033 515.268 643.351 C 518.126 646.047 519.439 652.86 520.434 656.7 C 529.451 657.129 539.49 657.935 548.279 660.075 C 549.836 653.645 550.418 647.088 555.694 643.276 C 563.007 643.317 577.497 651.172 583.42 655.737 C 587.665 659.008 581.881 669.94 580.146 673.771 C 586.152 678.211 593.976 684.28 600.144 688.254 C 604.45 684.498 605.747 683.464 610.682 680.635 C 615.887 686.528 633.565 706.126 623.106 713.758 C 621.73 714.762 618.344 716.447 616.685 717.309 C 618.316 725.262 619.895 733.225 621.421 741.198 C 624.634 741.693 629.275 741.995 631.439 744.621 C 636.899 751.247 633.731 774.553 628.688 780.761 C 624.518 782.11 618.912 781.029 614.463 780.355 C 611.422 787.656 608.015 796.808 602.723 802.7 C 612.108 808.022 624.332 813.932 614.305 824.979 C 609.622 830.139 606.149 835.655 598.986 837.817 C 593.537 836.225 586.995 829.073 581.965 825.142 C 576.097 829.496 572.845 831.475 566.45 835.072 C 583.027 873.065 598.766 910.562 630.975 938.579 C 674.961 976.839 729.634 976.547 782.907 961.181 C 734.198 907.221 671.775 820.836 709.885 745.883 C 725.872 714.44 758.284 687.632 788.778 670.839 z" fill="rgb(59,62,115)" transform="translate(0,0)"></path>
<path d="M 365.37 763.824 C 371.935 764.211 378.497 764.64 385.057 765.11 C 381.75 792.746 381.467 813.756 399.951 836.541 C 429.527 873.001 465.38 871.442 505.56 856.428 L 510.811 873.613 C 504.62 875.93 501.434 876.499 497.133 881.498 C 490.064 889.714 489.662 889.167 479.835 891.101 C 478.454 886.8 478.272 884.418 474.891 881.831 C 466.935 879.391 455.356 883.679 439.976 879.752 C 436.419 881.044 436.473 881.363 433.999 884.102 C 429.722 884.843 423.819 882.526 419.754 880.068 C 416.655 878.196 419.385 874.181 417.485 872.437 C 412.259 867.64 397.875 856.161 391.241 854.836 C 390.232 854.634 384.652 855.323 383.788 855.438 C 377.109 847.388 375.632 832.113 369.833 830.996 L 367.387 831.872 C 364.698 826.531 370.786 829.134 362.141 824.128 L 362.121 823.356 C 369.241 819.655 361.394 811.591 361.172 803.566 C 363.379 795.609 363.518 775.036 365.37 763.824 z" fill="rgb(137,212,234)" transform="translate(0,0)"></path>
<path d="M 1237.48 120.58 C 1353.66 112.427 1465.9 149.809 1556.19 223.792 C 1634.49 287.943 1696.12 386.023 1708.91 488.107 C 1711.04 505.162 1710.07 523.079 1708.81 539.931 C 1701.79 633.705 1645.52 699.479 1575.6 755.63 C 1525.94 795.507 1478.71 826.254 1423.55 858.281 C 1365.47 892.002 1272.26 945.384 1229.77 997.648 C 1287.38 972.985 1333.27 980.84 1390.09 1002.31 C 1410.12 1009.93 1429.45 1019.28 1447.86 1030.26 C 1515.1 1069.45 1551.82 1121.57 1590.21 1186.99 C 1628.26 1251.82 1677.8 1306.8 1760.75 1295.54 C 1793.86 1291.1 1823.84 1273.63 1844.02 1247 C 1849.97 1239.03 1854.79 1230.96 1858.52 1221.82 C 1905.74 1105.97 1817.18 1010.08 1703.03 998.557 C 1668.79 995.1 1646.09 997.624 1612.53 1002.84 C 1635.48 984.53 1666.51 975.771 1695.21 972.434 C 1777.5 962.862 1861.24 994.85 1906.79 1066.11 C 1927.75 1098.91 1933.11 1122.48 1937.35 1160.85 C 1929.86 1149.99 1908.93 1114.92 1894.13 1112.81 C 1885.72 1111.62 1880.35 1124.68 1881.53 1132.83 C 1883.97 1149.59 1889.86 1167.26 1893 1184.1 C 1897.78 1208.74 1898.7 1233.35 1899.08 1258.35 C 1888.81 1276.23 1880.25 1290.22 1863.82 1303.13 C 1815.55 1341.08 1771.2 1347.37 1712.72 1341.75 C 1678.16 1315.1 1648.96 1294.04 1603.52 1288.57 C 1583.88 1267.5 1565.55 1238.61 1548.35 1215.22 C 1498.84 1147.88 1461.56 1116.61 1378.56 1103.15 C 1353.16 1079.39 1327.36 1052.99 1294.95 1037.89 C 1300.17 1044.78 1312.31 1056.73 1318.66 1063.11 C 1330.24 1074.73 1339.19 1084.77 1349.47 1097.49 C 1394.36 1152.97 1426.85 1215.42 1456.45 1280.01 C 1462.3 1292.78 1470.66 1305.15 1476.06 1318.21 C 1468.12 1323.17 1439.25 1342.45 1455.22 1354.89 C 1463.33 1361.2 1484.76 1354.79 1495.06 1352.12 C 1525.67 1410.51 1589.91 1463.96 1653.93 1479.22 C 1667.83 1482.53 1683.82 1483.46 1698.08 1484.1 C 1706.43 1516.96 1707.23 1541.73 1700.43 1575.09 C 1606.82 1606.17 1506.19 1529.92 1455.72 1455.65 C 1422.64 1405.92 1402.96 1348.93 1367.57 1300.6 C 1321.68 1237.94 1258.86 1195.86 1178.97 1199.04 C 1179.88 1167.22 1179.21 1135.78 1183.33 1104.15 C 1183.68 1101.53 1183.91 1101.16 1182.49 1099.17 C 1178.58 1101.07 1174.76 1112.54 1173.37 1116.63 C 1156.7 1165.66 1151.66 1232.28 1156.94 1283.99 C 1171.77 1429.43 1217.16 1624.68 1332.13 1724.27 C 1376.21 1762.41 1433.78 1781.22 1491.87 1776.46 C 1563.27 1771.25 1624.94 1742.63 1672.13 1688.09 C 1712.51 1640.29 1735.37 1580.46 1730.96 1517.95 C 1723.21 1408.24 1631.67 1310.06 1516.39 1333.03 C 1498.64 1336.56 1483.04 1343.04 1464.65 1344.65 C 1463.71 1337.57 1482.11 1327.71 1487.39 1324.73 C 1622.39 1248.54 1750.59 1380.03 1775.26 1509.48 C 1793.29 1604.09 1770.56 1691.62 1718.66 1772.67 C 1640.73 1894.4 1505.37 1904.2 1381.41 1850.4 C 1335.45 1830.7 1293.39 1802.9 1257.25 1768.34 C 1179.52 1693.65 1124.06 1575.99 1088.35 1475.54 C 1070.85 1426.3 1036.74 1301.94 995.534 1274.96 C 995.259 1274.78 994.98 1274.61 994.703 1274.43 C 988.464 1204.17 997.953 1132.75 1029.67 1069.29 C 1028.2 1070.18 1026.79 1071.14 1025.42 1072.17 C 1011.4 1082.85 999.073 1104.4 992.439 1120.8 C 955.932 1211.04 982.354 1320.91 996.076 1413.65 C 998.908 1432.79 1003.95 1452.14 1005.72 1471.2 C 1008.3 1498.9 1008.37 1531.82 1004.81 1559.28 C 991.024 1665.3 936.082 1761.64 851.853 1827.49 C 740.137 1913.24 559.552 1965.82 460.294 1833.73 C 405.84 1761.27 399.789 1626.49 478.117 1568.54 C 449.541 1661.53 466.104 1748.22 552.95 1802.23 C 595.797 1828.53 647.365 1836.64 696.214 1824.76 C 804.331 1799.45 861.554 1698.86 870.374 1594.65 C 876.441 1522.99 865.13 1461.87 848.699 1392.85 C 861.062 1386.17 916.719 1364.75 921.082 1356.4 C 924.49 1349.88 924.847 1321.25 921.992 1314.28 C 920.758 1311.27 918.538 1309.83 915.734 1308.46 C 906.174 1303.78 895.279 1301.25 885.11 1298.19 C 866.645 1292.64 847.838 1287.35 829.881 1280.33 C 827.457 1214.6 841.544 1153.06 867.986 1092.94 C 875.048 1076.89 884.318 1061.54 891.899 1045.4 C 832.691 1094.56 799.485 1197.38 807.961 1272.56 C 792.567 1266.16 767.208 1259.18 750.649 1254.19 C 729.698 1156.55 743.153 1062.64 812.081 986.033 C 816.105 988.918 820.205 991.695 824.377 994.36 C 828.198 996.777 837.217 1002.59 841.476 1001.64 C 842.291 995.234 818.61 974.086 812.923 967.727 C 777.355 927.613 741.818 883.621 726.516 831.392 C 708.574 770.15 739.125 714.351 801.291 698.178 C 810.932 714.43 827.034 730.96 847.401 724.256 C 882.478 712.71 913.122 669.566 930.917 638.399 C 966.359 576.32 1000.33 494.944 987.334 422.495 C 985.446 413.335 979.457 402.734 971.071 398.395 C 962.379 393.899 952.311 394.35 943.186 397.617 C 900.546 412.884 866.385 453.312 843.41 490.917 C 834.064 506.214 826.07 523.612 818.077 539.419 C 823.169 510.542 833.149 480.092 842.57 452.401 C 869.229 374.04 899.927 309.192 956.85 248.078 C 1030.19 170.613 1130.89 124.862 1237.48 120.58 z" fill="rgb(247,139,151)" transform="translate(0,0)"></path>
<path d="M 1186 412.348 C 1243.88 404.347 1274.97 451.432 1272.79 504.499 C 1270.11 569.783 1238.72 630.44 1195.63 678.359 C 1187.31 687.612 1177.4 696.428 1168.31 704.951 C 1201.9 698.182 1239.76 691.08 1267.28 716.613 C 1257.34 715.666 1247.34 713.763 1237.24 713.213 C 1206.47 711.538 1177.97 717.321 1149.73 729.023 C 1121.17 740.709 1097.38 758.31 1066.11 764.046 C 1024.83 771.616 1002.05 734.299 996.771 698.457 C 981.577 595.28 1079.54 427.721 1186 412.348 z" fill="rgb(59,62,115)" transform="translate(0,0)"></path>
<path d="M 1193.46 432.302 C 1201.85 430.85 1213.37 432.186 1220.67 436.037 C 1272.45 463.346 1253.25 545.572 1234.75 585.052 C 1202.55 653.747 1143.88 718.538 1073.16 745.379 C 1037.76 754.508 1020.74 732.813 1015.74 700.3 C 1000.79 603.009 1094.13 448.89 1193.46 432.302 z" fill="rgb(255,255,255)" transform="translate(0,0)"></path>
<path d="M 1103.19 569.25 C 1107.07 568.923 1110.97 569.166 1114.78 569.969 C 1125.13 572.127 1131.32 578.503 1136.92 586.933 C 1090.29 603.257 1098.24 673.671 1150.93 651.64 C 1146.27 680.268 1127.92 702.339 1105.51 719.474 C 1090.18 729.454 1065.67 739.405 1051.04 726.895 C 1018.04 698.685 1034.74 631.27 1056.1 601.12 C 1069.41 582.325 1082.63 573.021 1103.19 569.25 z" fill="rgb(59,62,115)" transform="translate(0,0)"></path>
<path d="M 1106.36 769.174 C 1110.2 769.592 1114.04 770.103 1117.86 770.706 C 1180.77 780.724 1203.42 825.058 1195.7 887.185 C 1189.37 923.554 1165.05 959.723 1135.02 980.166 C 1046.62 1040.33 916.834 1024 854.644 935.514 C 835.378 903.208 826.377 868.112 833.661 830.751 C 813.43 818.446 795.286 798.134 786.166 776.207 C 793.351 780.799 810.038 795.066 817.127 801.191 C 849.796 829.419 883.646 844.133 926.791 849.603 C 992.905 857.985 1085.38 829.734 1137.51 788.78 C 1128.33 784.166 1117.46 778.935 1108.75 773.497 C 1106.32 771.985 1106.69 771.387 1106.36 769.174 z" fill="rgb(59,62,115)" transform="translate(0,0)"></path>
<path d="M 1149.79 800.753 C 1151.18 801.163 1152.02 801.722 1153.16 802.529 C 1169.2 814.192 1172.82 828.49 1165.96 846.497 C 1145.87 900.098 1078.31 920.42 1026.62 925.113 C 986.369 928.767 940.26 927.53 905.784 903.904 C 885.136 889.798 879.622 871.577 874.181 848.947 C 943.803 877.27 1029.82 861.55 1096.66 831.645 C 1115.06 823.416 1132.99 811.839 1149.79 800.753 z" fill="rgb(255,255,255)" transform="translate(0,0)"></path>
<path d="M 1170.87 893.088 L 1171.57 894.41 C 1143.59 975.024 1058.54 1006.14 979.175 992.874 C 976.824 992.449 976.94 992.366 974.679 991.464 L 974.391 989.769 C 998.75 941.807 1051.97 936.996 1097.69 924.083 C 1120.4 917.671 1150.05 904.146 1170.87 893.088 z" fill="rgb(137,212,234)" transform="translate(0,0)"></path>
<path d="M 1674.22 461.04 C 1703.64 460.797 1702.67 538.23 1672.3 555.669 C 1646.95 558.129 1650.04 525.161 1651.25 508.354 C 1652.41 492.197 1659.34 469.2 1674.22 461.04 z" fill="rgb(59,62,115)" transform="translate(0,0)"></path>
<path d="M 1244.03 284.379 C 1287.65 279.881 1333.38 312.986 1301.19 358.685 C 1300.24 328.856 1283.17 313.28 1255.92 306.185 C 1218.44 300.603 1192.4 314.574 1160.06 331.283 C 1161.23 329.578 1162.46 327.911 1163.74 326.287 C 1183.89 301.045 1212.52 288.146 1244.03 284.379 z" fill="rgb(59,62,115)" transform="translate(0,0)"></path>
<path d="M 1666.63 590.857 L 1670.59 591.658 C 1686.13 602.94 1661.5 650.67 1651.15 661.424 C 1643.52 669.355 1641.13 672.637 1630.26 674.982 C 1613.92 669.293 1626.87 643.046 1631.66 632.021 C 1638.28 616.802 1650.33 596.87 1666.63 590.857 z" fill="rgb(59,62,115)" transform="translate(0,0)"></path>
<path d="M 1618.36 569.01 C 1639.69 567.987 1633.97 593.256 1629.62 606.275 C 1624.33 622.13 1615.54 638.326 1599.96 645.976 C 1580.7 648.573 1583.61 627.413 1587.14 615.374 C 1592.44 597.264 1601.59 578.715 1618.36 569.01 z" fill="rgb(59,62,115)" transform="translate(0,0)"></path>
<path d="M 984.556 269.243 C 1025.62 269.252 1022.81 303.05 1007 330.294 C 1010.83 292.992 995.19 279.616 960.558 296.644 C 939.804 308.332 933.355 318.476 919.278 336.373 C 921.79 324.3 926.809 312.888 934.009 302.877 C 947.212 284.24 961.966 273.072 984.556 269.243 z" fill="rgb(59,62,115)" transform="translate(0,0)"></path>
<path d="M 1588.5 683.107 C 1622.85 679.474 1590.33 727.39 1568.38 737.007 C 1557.23 739.353 1551.45 735.053 1555.35 723.59 C 1561.01 706.937 1573.13 691.787 1588.5 683.107 z" fill="rgb(59,62,115)" transform="translate(0,0)"></path>
<path d="M 95.6417 931.387 C 137.343 948.909 189.148 967.03 232.088 982.925 L 487.601 1077.3 C 490.414 1084.57 493.798 1099.46 496.071 1107.77 L 511.773 1163.15 L 561.748 1338.45 C 570.989 1371.14 582.047 1413.83 592.898 1445.31 C 561.46 1430.02 529.584 1421.52 500.475 1401.74 C 461.842 1371.39 480.033 1339.01 459.385 1301.67 C 445.477 1277.91 421.398 1260.25 395.3 1252.67 C 370.975 1245.6 346.192 1251.18 376.731 1274.77 C 380.828 1278.36 384.636 1282.43 388.039 1286.61 C 404.397 1306.7 403.325 1324.05 400.421 1348.09 C 384.976 1343.54 359.173 1331.97 343.604 1325.62 L 236.343 1282.5 C 226.023 1278.44 201.515 1267.24 191.71 1265.64 C 181.435 1236.95 171.816 1198.14 163.743 1168.04 C 142.967 1090.58 113.317 1008.93 95.6417 931.387 z" fill="rgb(137,212,234)" transform="translate(0,0)"></path>
<path d="M 311.121 1091.74 C 312.197 1091.97 312.752 1092.04 313.821 1092.56 C 320.295 1095.68 374.9 1176.08 378.634 1185.94 C 378.238 1189.82 378.227 1189.61 376.028 1192.91 C 370.483 1195.17 356.971 1190.43 350.618 1188.68 C 353.683 1201.04 355.587 1215.28 357.601 1227.96 C 359.105 1237.43 364.283 1257.81 356.827 1264.26 C 353.012 1265.25 350.568 1263.84 346.754 1262.5 C 335.59 1257.83 305.981 1246.11 297.767 1240.07 C 295.369 1217.4 292.122 1193.32 290.554 1170.74 C 270.377 1161.3 245.699 1154.14 271.298 1130.07 C 283.98 1118.15 297.082 1102.03 311.121 1091.74 z" fill="rgb(59,62,115)" transform="translate(0,0)"></path>
<path d="M 310.67 1108.62 C 316.455 1112.31 354.312 1169.72 360.317 1179.48 C 352.053 1176.32 343.557 1173.79 334.906 1171.92 C 337.526 1186.07 346.296 1233.04 346.636 1246.79 L 344.642 1247.02 C 334.957 1242.36 320.402 1236.23 310.371 1232.34 C 308.115 1208.49 304.248 1184.87 301.839 1160.99 C 293.131 1156.12 282.384 1151.32 273.257 1146.98 C 285.447 1135.61 299.314 1120.97 310.67 1108.62 z" fill="rgb(255,255,255)" transform="translate(0,0)"></path>
<path d="M 1239.33 1320.65 C 1258.68 1332 1321.9 1436.85 1335.11 1458.84 C 1346.88 1478.42 1362.62 1499.81 1377.5 1518.88 C 1404.6 1553.6 1427.48 1568.6 1461.18 1594.41 C 1467.43 1611.51 1484.02 1624.75 1501.13 1630.76 C 1505.2 1632.19 1513.61 1631.87 1516.87 1633.46 C 1534.13 1641.88 1549.94 1649.84 1568.25 1655.84 C 1574.63 1657.93 1589.76 1659.36 1593.8 1661.83 C 1603.51 1679.79 1624.23 1680.06 1642.45 1679.03 C 1620.71 1701.23 1601.1 1713.86 1573.25 1726.39 C 1550.66 1736.08 1526.86 1742.65 1502.49 1745.91 C 1443.21 1753.59 1384.8 1740.76 1337.21 1703.7 C 1267.03 1649.05 1204.23 1459.46 1193.1 1372.76 C 1208.26 1357.8 1223.43 1336.9 1239.33 1320.65 z" fill="rgb(255,255,255)" transform="translate(0,0)"></path>
<path d="M 994.957 1279.53 L 996.027 1280.78 C 1029.96 1320.67 1058.58 1420.16 1075.85 1469.01 C 1132.53 1629.32 1213.79 1791.88 1379.93 1860.62 C 1415.54 1875.36 1451.91 1886.67 1490.64 1889.85 C 1522.52 1892.47 1557.2 1890.79 1588.23 1882.4 C 1601.51 1878.81 1614.47 1873.58 1627.44 1869.09 C 1550.01 1917.93 1451.56 1940.82 1362.34 1920.45 C 1193.94 1882 1075.76 1721.13 1036.94 1560.06 C 1035.17 1552.72 1029.48 1533.68 1030.42 1526.81 C 1040.02 1547.62 1062.83 1566.67 1077.74 1534.27 C 1081.47 1520.92 1076.62 1499.47 1069.4 1488.4 C 1054.61 1465.71 1031.14 1459.25 1024.66 1490.87 C 1023.28 1492.43 1023.88 1492.37 1022.43 1492.65 C 1013.76 1446.44 1006.79 1399.94 1001.51 1353.22 C 999.225 1334.3 994.822 1297.88 994.957 1279.53 z" fill="rgb(137,212,234)" transform="translate(0,0)"></path>
<path d="M 1074.94 1590.11 C 1110.21 1588.96 1143.01 1651.01 1110.05 1669.82 C 1091.05 1671.22 1079.56 1661.74 1070.38 1646.12 C 1060.15 1628.71 1053.39 1601.63 1074.94 1590.11 z" fill="rgb(59,62,115)" transform="translate(0,0)"></path>
<path d="M 1078.19 1600.58 C 1096.89 1602.94 1122.19 1641.51 1107.75 1658.54 C 1083.46 1662.25 1064.13 1619.08 1078.19 1600.58 z" fill="rgb(137,212,234)" transform="translate(0,0)"></path>
<path d="M 1135.04 1706.06 C 1157.2 1704.93 1173.15 1722.55 1183.76 1739.99 C 1193.24 1755.59 1195.11 1771.64 1177.77 1781.69 C 1144.67 1787.26 1100.15 1723.25 1135.04 1706.06 z" fill="rgb(59,62,115)" transform="translate(0,0)"></path>
<path d="M 1139.58 1715.88 C 1157.82 1718.08 1189.41 1753.47 1174.69 1769.88 C 1164.1 1768.22 1158.5 1765.45 1150.98 1757.22 C 1142.19 1747.6 1126.58 1727.4 1139.58 1715.88 z" fill="rgb(137,212,234)" transform="translate(0,0)"></path>
<path d="M 1229.24 1808.12 C 1254 1806.86 1280.57 1824.13 1291.96 1845.72 C 1298.42 1857.96 1291.3 1867.72 1279.91 1872.74 C 1271.29 1873.55 1264.8 1872.65 1255.67 1869.4 C 1238.1 1863.12 1206.43 1838.22 1216.87 1816.95 C 1219.03 1812.54 1224.46 1809.81 1229.24 1808.12 z" fill="rgb(59,62,115)" transform="translate(0,0)"></path>
<path d="M 1231.4 1818.16 C 1248.49 1818.47 1262.19 1827.41 1274 1839 C 1280.95 1845.82 1283.81 1852.57 1276.3 1859.97 C 1256.13 1860.8 1211.18 1832.1 1231.4 1818.16 z" fill="rgb(137,212,234)" transform="translate(0,0)"></path>
<path d="M 1343.35 1868.2 C 1358.36 1867.1 1364.95 1868.85 1378.88 1873.79 C 1400.2 1881.34 1424.36 1908.7 1391.77 1921.11 C 1346.47 1928.03 1300.5 1880.28 1343.35 1868.2 z" fill="rgb(59,62,115)" transform="translate(0,0)"></path>
<path d="M 1345.62 1878.07 C 1361.94 1876.36 1384.12 1883.81 1394.27 1897.2 C 1398.35 1902.58 1392.25 1907.06 1387.86 1909.07 C 1374.62 1911.53 1340.45 1900.6 1339.71 1885.14 C 1340.84 1881.39 1342.55 1880.56 1345.62 1878.07 z" fill="rgb(137,212,234)" transform="translate(0,0)"></path>
<path d="M 1180.94 1259.8 C 1180.7 1252.5 1178.92 1213.25 1180.78 1209.52 C 1202.83 1205.56 1244.58 1218.07 1265.02 1227.1 C 1341.26 1260.76 1380.06 1336.86 1414.94 1407.44 C 1467.52 1513.86 1567.76 1614.79 1696.17 1588.8 C 1690.08 1611.05 1675.22 1638.93 1660.99 1657.03 C 1651.86 1632.88 1629.79 1628.6 1606.95 1635.11 C 1602.93 1636.25 1595.63 1646.23 1593.94 1646.14 C 1584.3 1645.64 1573.63 1640.78 1564.57 1637.38 C 1554.96 1633.34 1536.9 1626.51 1529.66 1620.34 C 1530.48 1606.22 1532.34 1601.87 1521.8 1590.26 C 1513.31 1580.9 1498.55 1570.49 1485.73 1569.45 C 1477.24 1568.77 1474.06 1571.58 1468.15 1576.97 C 1455.29 1569.84 1428.95 1547.43 1418.85 1535.98 C 1421 1535.37 1420.58 1535.62 1422.72 1535.58 C 1434.16 1535.4 1442.79 1524.76 1442.1 1513.63 C 1441.25 1499.89 1431.2 1489.19 1421.62 1480.34 C 1412.53 1472.35 1405.01 1468.08 1393.64 1464.43 C 1380.91 1468.46 1376.3 1472.01 1376.62 1486.07 C 1363.6 1465.88 1343.64 1437.87 1332.39 1418.11 C 1330.9 1416.69 1326.99 1410.5 1325.62 1408.44 L 1327.09 1408 C 1329.86 1411.11 1332.65 1414.2 1335.46 1417.27 C 1354.69 1430.59 1376.97 1424.57 1374.07 1397.63 C 1372.69 1384.77 1357.11 1366.91 1346.11 1359.96 C 1324.47 1346.3 1304.1 1354.3 1312.3 1382.66 L 1311.58 1385.9 C 1300 1362.88 1278.11 1334.2 1259.09 1317.15 C 1252.65 1311.4 1245.87 1304.29 1239.72 1298.12 C 1222.96 1282.23 1202.73 1267.81 1180.94 1259.8 z" fill="rgb(137,212,234)" transform="translate(0,0)"></path>
<path d="M 1240.78 1296.16 C 1228.73 1282.89 1216.95 1257 1248.21 1256.48 C 1260.99 1256.26 1281.23 1272.87 1288.27 1282.55 C 1306.35 1307.52 1290.61 1335.36 1260.04 1314.36 C 1253.57 1308.34 1247.15 1302.28 1240.78 1296.16 z" fill="rgb(59,62,115)" transform="translate(0,0)"></path>
<path d="M 1243.66 1265.06 C 1261.67 1267.07 1304.39 1301.14 1278.92 1312.28 C 1266.52 1308.98 1237.26 1284.66 1237.91 1270.85 C 1239.31 1267.36 1240.46 1267.05 1243.66 1265.06 z" fill="rgb(137,212,234)" transform="translate(0,0)"></path>
<path d="M 817.885 1411.93 L 819.54 1412.14 C 822.813 1416.5 832.487 1465.73 834.907 1475.03 C 824.308 1500.25 819.399 1523.78 806.646 1550.53 C 775.257 1616.37 736.593 1659.55 666.571 1685.06 C 622.859 1700.99 576.567 1698.92 531.966 1689.57 C 526.1 1688.34 512.248 1685.72 507.495 1683.45 L 508.294 1682.46 C 526.718 1662.42 506.425 1648.1 486.696 1643.46 C 486.87 1636.14 487.113 1628.82 487.426 1621.5 C 488.907 1621.91 490.396 1622.28 491.89 1622.63 C 643.229 1658.21 742.673 1576.22 775.942 1431.68 C 789.412 1424.62 803.985 1418.25 817.885 1411.93 z" fill="rgb(137,212,234)" transform="translate(0,0)"></path>
<path d="M 744.385 1590.2 C 747.544 1589.99 750.315 1590.38 753.26 1591.4 C 780.77 1600.99 753.736 1629.52 739.836 1638.4 C 729.374 1645.09 725.085 1648.3 712.928 1651.51 C 661.808 1652.4 709.208 1596.06 744.385 1590.2 z" fill="rgb(59,62,115)" transform="translate(0,0)"></path>
<path d="M 742.763 1600.97 C 747.988 1601.02 750.55 1600.98 753.16 1605.78 C 753.074 1619.36 724.789 1635.46 713.393 1640 C 708.634 1640.58 703.824 1640.43 701.756 1635.67 C 703.583 1621.42 730.422 1605.59 742.763 1600.97 z" fill="rgb(137,212,234)" transform="translate(0,0)"></path>
<path d="M 800.123 1482.03 C 826.218 1480.28 820.784 1511.76 813.795 1527.34 C 807.24 1541.95 801.926 1551.82 786.299 1558.5 C 749.243 1563.46 773.369 1495.23 800.123 1482.03 z" fill="rgb(59,62,115)" transform="translate(0,0)"></path>
<path d="M 802.33 1493.6 C 813.87 1500.57 805.346 1519.23 800.94 1528.66 C 796.899 1537.31 793.001 1542.17 784.743 1547.13 C 783.299 1546.39 782.029 1545.49 780.659 1544.6 C 774.236 1533.06 791.878 1499.86 802.33 1493.6 z" fill="rgb(137,212,234)" transform="translate(0,0)"></path>
<path d="M 613.603 1645.36 C 623.252 1644.71 634.638 1644.27 642.953 1650.12 C 651.22 1655.92 650.485 1667.15 644.583 1674.45 C 635.768 1685.36 621.51 1687.74 608.355 1689.21 C 597.419 1689.92 585.808 1689.77 576.575 1683.06 C 568.87 1677.47 569.102 1667.52 574.748 1660.59 C 583.66 1649.65 600.491 1646.99 613.603 1645.36 z" fill="rgb(59,62,115)" transform="translate(0,0)"></path>
<path d="M 617.053 1655.4 C 623.733 1654.38 635.751 1655.11 637.647 1662.98 C 634.786 1675.78 616.138 1677.39 605.394 1678.08 C 599.025 1678.17 583.946 1677.98 581.886 1670.59 C 584.437 1659.17 607.61 1656.52 617.053 1655.4 z" fill="rgb(137,212,234)" transform="translate(0,0)"></path>
<path d="M 842.499 1519.68 C 843.719 1524.62 845.071 1539.69 845.18 1544.76 C 846.763 1619 833.136 1694.74 779.715 1750.25 C 746.663 1784.59 706.153 1803.87 658.529 1804.72 C 611.598 1805.26 566.353 1787.24 532.639 1754.59 C 514.312 1735.99 506.674 1724.36 496.773 1700.14 C 500.294 1702.09 504.661 1704.46 508.43 1705.72 C 567.976 1725.55 639.704 1725.62 696.552 1698.18 C 775.493 1660.07 814.41 1599.01 842.499 1519.68 z" fill="rgb(255,255,255)" transform="translate(0,0)"></path>
<path d="M 949.152 414.142 C 1024.43 409.555 912.959 706.682 833.35 708.121 C 753.393 684.422 856.195 439.849 949.152 414.142 z" fill="rgb(255,255,255)" transform="translate(0,0)"></path>
<path d="M 857.441 556.162 C 874.362 553.852 879.943 561.292 884.226 576.41 L 883.167 576.771 C 874.378 579.846 866.979 585.058 863.532 593.806 C 856.1 612.667 863.24 623.946 879.922 630.746 C 894.921 627.374 896.707 623.855 907.534 612.65 C 904.171 627.313 888.097 654.837 878.25 666.403 C 862.772 685.214 830.097 708.779 817.784 671.633 C 808.73 644.32 815.532 608.501 827.944 583.335 C 834.906 569.22 841.987 561.15 857.441 556.162 z" fill="rgb(59,62,115)" transform="translate(0,0)"></path>
<path d="M 399.608 732.41 C 403.887 731.776 410.74 731.885 415.139 731.958 C 461.158 732.713 502.368 758.985 527.862 796.466 C 546.448 824.798 555.887 857.898 570.413 888.228 C 588.085 925.128 613.959 959.154 652.211 976.439 C 696.11 996.276 749.501 995.061 794.183 978.448 C 771.015 1005.06 752.259 1035.21 738.628 1067.75 L 733.948 1079.88 C 697.352 1083.44 660.535 1075.88 628.298 1058.2 C 546.178 1013.37 549 938.951 527.345 861.113 C 506.194 785.084 452.648 748.942 375.601 750.772 C 370.389 750.896 350.748 753.788 349.136 752.913 C 353.802 740.243 387.767 733.549 399.608 732.41 z" fill="rgb(247,139,151)" transform="translate(0,0)"></path>
<path d="M 1893.75 1127.57 C 1899.1 1131 1907.81 1145.5 1911.14 1151.14 C 1946.49 1210.96 1961.95 1297.31 1944.56 1365.09 C 1927.72 1430.75 1875.24 1505.71 1816.52 1539.93 C 1813.24 1542.06 1808.76 1543.99 1805.15 1545.69 C 1804.43 1518.97 1794.63 1481.79 1785.77 1456.82 C 1893.09 1403.2 1932.97 1296.31 1907.9 1182.53 C 1904.93 1169.06 1894.44 1139.03 1893.75 1127.57 z" fill="rgb(247,139,151)" transform="translate(0,0)"></path>
<path d="M 570.619 1202.99 C 578.989 1205.51 593.908 1211.97 602.437 1215.34 C 622.731 1223.47 643.123 1231.35 663.606 1238.99 C 743.489 1268.37 814.913 1293.88 896.779 1318.57 C 882.913 1326.41 855.73 1338.43 840.236 1345.87 L 708.302 1408.38 C 685.942 1417.67 661.862 1430.3 638.915 1440.18 C 635.852 1427.41 632.071 1414.81 628.421 1402.19 C 661.472 1384.71 693.697 1368.82 727.227 1352.35 C 744.866 1343.69 768.947 1331.93 784.958 1321.4 C 769.491 1314.32 746.984 1306.62 730.59 1300.37 C 700.209 1288.54 669.754 1276.9 639.229 1265.44 C 623.811 1259.7 597.742 1250.87 583.852 1244.15 C 578.382 1230.69 575.167 1216.89 570.619 1202.99 z" fill="rgb(137,212,234)" transform="translate(0,0)"></path>
<path d="M 763.133 1438.06 C 763.295 1444.11 756.305 1464 754.005 1470.18 C 735.545 1519.78 707.93 1561.56 663.5 1591.59 C 611.589 1626.67 553.064 1624.34 494.21 1612.95 C 491.943 1612.51 492.253 1612.43 490.11 1611.35 C 487.988 1602.08 498.038 1571.16 501.686 1561.94 C 529.082 1563.46 548.885 1566.27 576.918 1560.19 C 634.336 1547.74 666.67 1516.24 697.928 1469.62 C 719.843 1459.1 741.039 1448.4 763.133 1438.06 z" fill="rgb(247,139,151)" transform="translate(0,0)"></path>
<path d="M 329.031 1529.41 C 372.858 1525.42 426.415 1540.85 468.293 1553.11 C 444.889 1567.48 437.142 1577.2 422.269 1600.48 C 347.076 1588.55 281.059 1586.83 212.524 1626.58 C 180.272 1648.71 161.048 1671.03 140.803 1703.43 C 142.622 1691.8 144.679 1680.15 148.333 1668.94 C 174.336 1589.16 247.764 1538.24 329.031 1529.41 z" fill="rgb(247,139,151)" transform="translate(0,0)"></path>
<path d="M 1020.64 1570.85 C 1022.16 1572.55 1026.02 1590.57 1026.64 1594.1 C 1029.84 1612.33 1040.04 1634.15 1040.18 1652.36 L 1039.23 1653.16 C 1028.72 1647.31 1020.87 1647.5 1012.17 1656.61 C 997.775 1671.71 981.562 1706.45 999.145 1723.71 C 991.508 1739.28 983.621 1754.73 975.487 1770.05 C 965.44 1768.42 959.38 1769.76 952.679 1776.25 C 937.523 1790.94 925.913 1806.67 924.887 1827.07 C 924.729 1830.22 883.872 1864.42 878.628 1868.45 C 875.497 1866.03 872.097 1864.1 868.709 1862.03 C 850.384 1865.39 824.927 1877.35 811.875 1890.96 L 810.585 1892.32 C 806.529 1896.5 805.927 1900.01 804.105 1905.62 C 796.409 1911.44 783.207 1915.38 773.94 1918.22 C 727.032 1932.85 677.586 1937.51 628.77 1931.92 C 614.53 1929.63 600.406 1926.66 586.447 1923.03 C 604.084 1922.67 620.485 1926 640.493 1924.87 C 703.733 1921.33 766.455 1898.76 819.528 1865.05 C 925.929 1797.47 994.226 1693.68 1020.64 1570.85 z" fill="rgb(137,212,234)" transform="translate(0,0)"></path>
<path d="M 93.6449 904.891 C 100.779 906.769 112.404 911.516 119.865 914.297 L 168.172 932.299 L 331.984 993.129 C 367.737 1006.66 403.69 1019.67 439.829 1032.14 C 459.57 1039.14 490.411 1049.24 508.548 1058.06 C 511.981 1065.44 515.643 1079.92 518.021 1088.24 C 523.354 1107.21 528.836 1126.13 534.468 1145.01 C 565.053 1244.82 594.449 1344.98 622.652 1445.49 C 620.755 1448.02 619.8 1447.58 616.068 1448.77 L 607.085 1452.91 C 592.873 1400.79 575.375 1347.41 561.058 1294.94 C 546.898 1241.51 531.763 1188.35 515.663 1135.48 C 509.612 1114.98 503.499 1089.84 496.666 1070.33 C 483.851 1063.78 465.706 1057.42 452.054 1052.43 L 389.252 1029.48 L 185.503 954.015 L 127.699 933.119 C 116.55 929.092 104.17 925.275 93.7428 919.833 C 87.6336 916.645 90.2216 909.198 93.6449 904.891 z" fill="rgb(137,212,234)" transform="translate(0,0)"></path>
<path d="M 394.988 1269.82 C 451.095 1299.34 445.46 1325.51 459.635 1377.65 C 469.07 1412.36 515.096 1434.92 544.831 1446.69 C 553.896 1450.28 564.518 1455.37 573.779 1459 C 588.816 1464.65 602.576 1475.12 618.813 1468.85 C 622.565 1473.23 625.304 1475.71 626.635 1481.47 C 598.301 1495.35 581.174 1497.03 549.027 1495.06 C 509.578 1492.64 468.608 1475.91 442.653 1445.1 C 424.24 1423.23 414.784 1395.2 416.185 1366.65 C 418.174 1319.31 429.377 1310.1 394.988 1269.82 z" fill="rgb(247,139,151)" transform="translate(0,0)"></path>
<path d="M 1387.59 1114.44 C 1409.07 1120.33 1423.99 1124.05 1444.17 1133.53 C 1498.74 1159.15 1529.38 1209.18 1564.36 1255.36 C 1572.5 1266.1 1582.7 1276.9 1591.75 1287.13 C 1564.3 1285.94 1538.62 1285.83 1512.71 1297.04 C 1504.18 1285.69 1489.32 1269.71 1478.6 1260.37 C 1460.13 1244.28 1457.92 1234.46 1446.84 1213.39 C 1444.6 1209.6 1442.12 1203.89 1440.18 1199.77 C 1422.45 1162.79 1412.23 1146.56 1387.59 1114.44 z" fill="rgb(137,212,234)" transform="translate(0,0)"></path>
<path d="M 1441.24 1197.71 C 1450.55 1168.17 1477.82 1187.6 1491.9 1201.44 C 1503.04 1212.39 1524.86 1240.55 1502.93 1252.04 C 1483.02 1261.22 1455.37 1225.42 1447.66 1210.99 C 1445.43 1206.6 1443.29 1202.18 1441.24 1197.71 z" fill="rgb(59,62,115)" transform="translate(0,0)"></path>
<path d="M 1454.56 1191.49 C 1470.86 1191.88 1511.4 1226.88 1498.66 1243.57 C 1482.48 1245.92 1458.36 1216.34 1453 1202.42 C 1451.34 1198.13 1452.55 1195.29 1454.56 1191.49 z" fill="rgb(137,212,234)" transform="translate(0,0)"></path>
<path d="M 487.47 652.946 C 494.724 650.826 501.995 648.765 509.282 646.763 C 511.278 653.263 512.667 657.976 514.037 664.622 C 527.096 663.541 539.889 666.054 552.877 667.82 C 554.947 662.662 556.96 657.483 558.917 652.281 C 565.868 655.017 571.318 657.08 577.884 660.594 C 575.117 666.927 573.246 670.717 569.84 676.724 C 583.801 684.203 587.602 687.331 597.641 699.766 C 601.671 696.562 605.67 693.32 609.639 690.042 C 613.195 695.629 616.478 700.816 619.742 706.578 C 615.001 709.666 612.183 711.336 608.05 715.334 C 613.535 735.575 615.13 747.672 611.091 769.09 C 608.86 780.924 599.499 792.727 596.137 804.001 C 596.578 805.03 597.02 806.058 597.462 807.087 C 599.886 808.578 607.888 815.651 610.501 817.878 C 606.668 821.824 603.302 825.892 599.748 830.078 C 594.681 823.155 590.208 820.488 583.149 816.078 C 575.205 822.43 573.014 825.195 563.802 829.677 L 555.646 814.829 C 585.318 797.676 606.219 772.644 599.368 736.52 C 586.884 670.696 485.469 661.322 467.039 729.815 C 455.028 726.26 444.889 723.903 432.67 721.323 C 436.915 711.933 437.737 709.458 445.335 702.552 C 440.284 695.717 437.292 693.19 430.927 687.423 C 434.473 682.312 437.061 678.871 441.045 674.101 C 449.122 679.74 452.993 683.334 460.432 690.094 C 465.931 682.961 468.57 681.486 475.965 676.697 C 481.248 675.127 487.697 671.924 492.636 669.335 C 491.153 664.512 489.205 657.541 487.47 652.946 z" fill="rgb(137,212,234)" transform="translate(0,0)"></path>
<path d="M 539.498 691.221 C 558.259 691.25 574.669 702.274 584.159 718.079 C 592.58 731.972 595.054 748.67 591.024 764.408 C 585.996 783.498 574.127 796.468 557.556 806.373 L 553.498 807.553 C 547.49 803.473 542.015 790.229 537.403 784.032 C 533.158 778.727 528.215 772.863 523.332 768.08 C 497.938 743.208 496.13 699.112 539.498 691.221 z" fill="rgb(255,255,255)" transform="translate(0,0)"></path>
<path d="M 1542.58 1349.43 C 1545.13 1348.95 1552.05 1349.03 1554.98 1348.99 C 1563.51 1371.23 1591.42 1393.14 1615.01 1397.69 C 1618.53 1398.37 1626.87 1393.47 1627.74 1394.04 C 1639.75 1401.87 1648.07 1406.78 1662.04 1410.04 C 1672.29 1422.49 1685.86 1448.9 1692.31 1463.83 L 1678.85 1462.63 C 1665.53 1461.05 1652.42 1457.98 1639.78 1453.49 C 1592.57 1436.95 1540.81 1396.23 1519.04 1351.2 C 1526.85 1350.7 1534.77 1350.02 1542.58 1349.43 z" fill="rgb(255,255,255)" transform="translate(0,0)"></path>
<path d="M 618.813 1468.85 C 622.703 1466.85 628.675 1463.93 631.987 1461.36 C 636.998 1457.47 640.747 1452.89 646.698 1450.04 C 662.675 1442.39 678.965 1435.05 695.044 1427.62 C 717.295 1417.21 739.437 1406.57 761.465 1395.69 L 851.507 1352.32 C 867.374 1344.64 891.234 1332.28 907.096 1325.84 C 906.874 1333.22 906.394 1341.86 906.502 1349.15 C 859.779 1370.03 812.84 1393.41 766.404 1415.29 L 669.323 1461.49 C 655.398 1468.13 640.256 1474.58 626.635 1481.47 C 625.304 1475.71 622.565 1473.23 618.813 1468.85 z" fill="rgb(137,212,234)" transform="translate(0,0)"></path>
<path d="M 1943.62 1402.76 C 1943.77 1405.35 1943 1409.95 1942.32 1412.63 C 1928.47 1467.76 1901.6 1520.65 1860.89 1560.72 C 1842.43 1578.88 1826.46 1590.06 1805.47 1603.55 C 1804.65 1599.54 1806.05 1561.97 1806.21 1555.85 C 1862.76 1535.7 1921.36 1457.89 1943.62 1402.76 z" fill="rgb(137,212,234)" transform="translate(0,0)"></path>
<path d="M 1893.53 1288.85 C 1893.89 1293.82 1888.15 1312.06 1885.25 1316.02 C 1857.54 1353.88 1787.92 1374.19 1745.11 1383.78 L 1737.8 1373.48 C 1733.56 1367.48 1728.15 1360.72 1723.65 1354.78 C 1792.68 1358.42 1847.11 1340.98 1893.53 1288.85 z" fill="rgb(137,212,234)" transform="translate(0,0)"></path>
<path d="M 393.523 766.175 C 399.494 766.971 405.826 767.716 411.74 768.66 C 400.41 772.906 396.077 772.933 392.841 785.246 C 393.372 790.292 392.49 789.125 395.351 792.201 C 400.126 794.143 406.247 792.727 411.548 792.028 C 423.22 808.616 431.809 818.321 450.795 827.25 C 458.561 830.902 471.334 833.016 476.699 838.016 C 479.779 840.886 480.614 851.011 482.738 855.102 L 485.078 856.608 C 450.257 864.426 416.312 854.508 397.822 822.276 C 390.794 810.025 390.735 799.406 391.191 785.774 L 393.523 766.175 z" fill="rgb(255,255,255)" transform="translate(0,0)"></path>
<path d="M 686.8 1129.33 C 695.254 1128.76 714.832 1129.21 720.257 1136.09 C 720.709 1139.62 720.475 1139.79 719.685 1143.16 C 715.185 1144.77 703.497 1141.88 697.556 1143.01 C 667.37 1148.78 648.196 1176.44 653.192 1206.37 L 656.163 1217.67 C 645.943 1214.24 638.167 1210.95 628.309 1206.71 C 624.735 1163.98 644.207 1136.68 686.8 1129.33 z" fill="rgb(137,212,234)" transform="translate(0,0)"></path>
<path d="M 264.807 1312.65 C 268.029 1313.64 297.426 1326.47 300.626 1327.9 C 314.524 1334.13 377.201 1357.06 385.488 1364.24 C 384.218 1366.22 381.51 1366.98 378.982 1368.23 C 327.818 1387.52 290.975 1354.12 264.807 1312.65 z" fill="rgb(247,139,151)" transform="translate(0,0)"></path>
<path d="M 1808.65 1383.02 C 1818.53 1385.96 1809.28 1401.35 1841.21 1393.11 C 1829.17 1409 1806.22 1427.12 1788.21 1435.96 C 1785.28 1437.34 1781.61 1438.72 1778.57 1439.95 C 1771.47 1426.24 1763.49 1412.91 1756.25 1399.17 C 1776.43 1393.89 1788.94 1390.64 1808.65 1383.02 z" fill="rgb(255,255,255)" transform="translate(0,0)"></path>
<path d="M 703.83 1148.29 C 707.733 1147.89 713.895 1147.42 717.144 1149.59 C 719.291 1152.69 719.161 1156.19 719.5 1160.01 C 715.553 1163.12 703.327 1160.24 693.292 1168.08 C 677.997 1180.03 679.464 1199.43 683.86 1216.42 C 684.903 1220.45 688.085 1225.58 687.431 1229.24 L 685.6 1229.14 C 677.632 1225.5 667.238 1222.07 658.852 1219.05 C 656.775 1199.82 655.709 1188.53 667.396 1171.4 C 676.749 1157.7 687.621 1151.32 703.83 1148.29 z" fill="rgb(137,212,234)" transform="translate(0,0)"></path>
<path d="M 343.789 1603.44 C 366.224 1601.94 396.173 1605.47 419.142 1607.6 C 412.143 1620.68 408.404 1629.75 402.995 1643.43 L 394.608 1638.62 C 366.62 1622.01 342.551 1608.91 309.298 1607.3 C 320.783 1604.62 332.05 1604.24 343.789 1603.44 z" fill="rgb(137,212,234)" transform="translate(0,0)"></path>
<path d="M 712.787 1172.09 C 716.126 1171.87 716.137 1171.68 719.267 1172.65 C 720.35 1175.63 721.477 1190.92 721.919 1195.22 C 723.774 1213.28 725.727 1229.07 732.087 1246.23 L 718.234 1240.95 C 714.95 1239.65 711.459 1238.59 708.081 1237.51 C 698.608 1218.17 681.785 1181.11 712.787 1172.09 z" fill="rgb(255,255,255)" transform="translate(0,0)"></path>
<path d="M 1182.14 1274.62 C 1197.21 1282.38 1211.62 1293.67 1224.79 1304.33 C 1218.87 1310.73 1212.3 1318.87 1206.58 1325.6 C 1200.67 1332.76 1195.49 1338.84 1189.18 1345.65 C 1184.98 1325.19 1182.41 1295.14 1182.14 1274.62 z" fill="rgb(255,255,255)" transform="translate(0,0)"></path>
<path d="M 1324.76 1362.87 C 1343.05 1362.87 1375.33 1395.37 1358.97 1413.91 C 1348.5 1414.27 1342.95 1409.83 1335.8 1402.29 C 1326.98 1392.99 1312.45 1374.18 1324.76 1362.87 z" fill="rgb(137,212,234)" transform="translate(0,0)"></path>
<path d="M 1042.54 1480.43 C 1061.33 1481.52 1076.24 1523.69 1061.73 1538.86 C 1048.67 1540.3 1043.38 1530.09 1040.06 1518.98 C 1036.21 1506.09 1032.25 1490.84 1042.54 1480.43 z" fill="rgb(137,212,234)" transform="translate(0,0)"></path>
<path d="M 1390.69 1474.92 C 1400.5 1478.11 1407.96 1482.14 1415.18 1489.56 C 1424.83 1499.49 1439.83 1511.87 1426.61 1525 C 1411.87 1525.09 1386.77 1498.71 1385.53 1484.12 C 1385.14 1479.61 1387.77 1477.62 1390.69 1474.92 z" fill="rgb(137,212,234)" transform="translate(0,0)"></path>
<path d="M 1478.87 1578.71 C 1494.06 1578.46 1533.34 1601.49 1516.95 1617.88 C 1509.22 1618.5 1500.49 1615.51 1494.09 1611.28 C 1481.74 1603.12 1469.06 1593.78 1478.87 1578.71 z" fill="rgb(137,212,234)" transform="translate(0,0)"></path>
<path d="M 1022.44 1661.71 C 1035.79 1663.81 1032.95 1677.28 1029.51 1686.45 C 1025.36 1697.51 1021.05 1706.09 1010.71 1712.33 C 988.395 1709.81 1009.47 1669.8 1022.44 1661.71 z" fill="rgb(137,212,234)" transform="translate(0,0)"></path>
<path d="M 967.558 1778.77 C 983.645 1787.45 968.764 1804.79 961.05 1814.17 C 955.828 1820.52 951.879 1822.85 944.015 1824.81 C 939.9 1823.54 938.824 1823.29 936.633 1819.77 C 934.444 1806.7 956.848 1785.05 967.558 1778.77 z" fill="rgb(137,212,234)" transform="translate(0,0)"></path>
<path d="M 862.141 1872.97 C 866.014 1873.37 866.786 1874.01 869.104 1876.38 C 870.781 1890.9 837.302 1906.54 824.956 1908.7 C 820.544 1907.81 819.354 1907.14 817.132 1903.8 C 816.648 1890.76 851.58 1876.32 862.141 1872.97 z" fill="rgb(137,212,234)" transform="translate(0,0)"></path>
<path d="M 1615.86 1645.11 C 1625.33 1644.71 1649.84 1646.89 1647.05 1660.51 C 1644.33 1664.16 1643.87 1664.46 1639.75 1666.42 C 1629.82 1666.62 1614.74 1665.9 1607.83 1658.07 C 1605.73 1651.05 1610.53 1648.56 1615.86 1645.11 z" fill="rgb(137,212,234)" transform="translate(0,0)"></path>
<path d="M 1472.9 1265.66 C 1477.39 1267.69 1506.24 1294.15 1506.44 1299.33 L 1504.15 1300.82 L 1494.49 1306.75 C 1486.93 1293.37 1478.94 1279.77 1472.9 1265.66 z" fill="rgb(255,255,255)" transform="translate(0,0)"></path>
<path d="M 1565.58 1350.06 C 1571.22 1351.08 1606.73 1377.3 1616.23 1383.33 L 1616.58 1385.52 C 1610.96 1388 1607.01 1386.02 1601.94 1382.88 C 1590.99 1376.09 1569.38 1363.02 1565.58 1350.06 z" fill="rgb(255,255,255)" transform="translate(0,0)"></path>
<path d="M 509.341 690.91 C 509.982 691.143 509.641 690.927 510.113 691.841 L 509.274 692.445 C 499.988 699.198 488.109 709.871 488.467 722.505 C 488.654 729.12 490.29 731.993 489.15 739.186 C 486.707 738.674 484.822 737.168 482.566 735.795 L 473.935 731.259 C 482.22 709.866 489.692 702.473 509.341 690.91 z" fill="rgb(255,255,255)" transform="translate(0,0)"></path>
<path d="M 485.478 1652.32 C 497.655 1655.37 508.961 1662.15 503.215 1676.07 C 484.474 1683.92 486.026 1664.59 485.478 1652.32 z" fill="rgb(137,212,234)" transform="translate(0,0)"></path>
<path d="M 1586.32 1352.9 C 1604.82 1356.08 1638.84 1383.75 1652.08 1397.29 C 1640.4 1394.93 1631.45 1384.6 1621.93 1378.05 C 1609.92 1369.78 1598 1361.66 1586.32 1352.9 z" fill="rgb(255,255,255)" transform="translate(0,0)"></path>
<path d="M 482.738 855.102 C 488.65 850.065 484.262 841.073 490.802 831.805 L 492.964 830.964 C 498.473 833.824 501.131 844.182 503.367 850.25 C 497.59 853.196 491.436 855.335 485.078 856.608 L 482.738 855.102 z" fill="rgb(137,212,234)" transform="translate(0,0)"></path>
<path d="M 618.103 748.081 L 628.698 750.554 C 627.847 756.39 626.805 771.079 623.997 774.527 C 620.42 774.298 617.01 774.634 614.395 772.506 C 614.396 770.456 614.948 767.226 615.75 765.44 C 618.285 759.792 617.991 754.328 618.103 748.081 z" fill="rgb(137,212,234)" transform="translate(0,0)"></path>
<path d="M 1845.23 1363.76 L 1846.85 1364.26 C 1847.81 1367.61 1847.14 1373.57 1846.94 1377.29 C 1841.79 1379.93 1836.76 1382.76 1830.95 1382.81 C 1827.63 1379.29 1826.37 1378.98 1827.71 1374.27 C 1831.35 1370.14 1839.8 1366.63 1845.23 1363.76 z" fill="rgb(137,212,234)" transform="translate(0,0)"></path>
<path d="M 431.421 774.398 C 435.294 775.483 440.245 777.728 444.08 779.302 C 446.694 796.872 454.815 800.198 468.62 809.026 C 451.309 807.746 438.367 788.524 431.421 774.398 z" fill="rgb(255,255,255)" transform="translate(0,0)"></path>
<path d="M 1874.71 1343.91 C 1874.93 1352.69 1861.37 1369.48 1855.81 1376.21 C 1856.41 1368.89 1856.68 1366.3 1855.91 1358.95 C 1862.58 1354.27 1868.5 1349.15 1874.71 1343.91 z" fill="rgb(137,212,234)" transform="translate(0,0)"></path>
<path d="M 1824.71 1607.98 C 1832.94 1617.3 1809.18 1625.19 1803.41 1626.98 C 1801.94 1624.89 1803.15 1622.12 1803.68 1618.68 C 1810.26 1616.05 1818.31 1611.43 1824.71 1607.98 z" fill="rgb(137,212,234)" transform="translate(0,0)"></path>
<path d="M 452.976 785.846 C 456.93 787.841 461.729 794.619 464.635 798.305 C 458.723 796.634 455.641 790.904 452.976 785.846 z" fill="rgb(133,156,176)" transform="translate(0,0)"></path>
<path d="M 1024.66 1490.87 C 1025.03 1496.75 1025.42 1503.05 1026.21 1508.88 C 1023.76 1503.55 1023.37 1498.47 1022.43 1492.65 C 1023.88 1492.37 1023.28 1492.43 1024.66 1490.87 z" fill="rgb(133,156,176)" transform="translate(0,0)"></path>
<path d="M 523.144 301.472 C 530.867 304.229 534.853 319.494 537.982 327.115 C 548.17 326.799 554.87 327.121 564.995 328.046 C 567.816 320.842 570.505 312.361 575.645 306.743 C 583.199 302.921 596.653 310.457 603.87 313.403 C 622.204 320.886 615.824 330.207 608.979 344.456 C 613.755 350.673 625.148 361.034 631.221 366.852 C 635.611 364.663 645.965 360.55 650.397 360.274 C 661.557 359.578 671.265 390.965 670.477 399.23 C 667.395 405.006 657.177 408.362 650.659 411.707 C 653.209 423.249 653.115 431.678 653.405 443.323 C 661.025 444.396 678.769 446.122 677.137 457.279 C 675.975 465.228 671.422 485.861 665.078 491.424 C 661.75 494.342 646.252 489.9 641.528 488.578 C 635.903 497.924 632.998 503.455 625.523 511.473 C 629.445 517.558 636.377 525.267 637.728 532.027 C 635.179 540.558 616.198 555.343 607.559 556.238 C 599.308 553.671 593.46 545.611 587.48 539.04 C 579.382 542.237 571.337 543.06 564.231 547 C 561.542 548.491 561.944 552.356 561.611 555.754 C 560.73 562.858 560.353 572.772 551.443 573.118 C 542.033 573.483 525.564 574.119 518.012 567.897 C 515.672 565.968 515.207 548.781 514.978 544.809 C 507.745 541.3 497.96 538.425 490.16 535.875 C 484.797 541.883 479.346 548.303 471.397 549.912 C 463.091 548.225 456.666 541.175 450.724 535.623 C 434.053 520.045 436.848 515.414 452.682 501.78 C 447.554 494.062 442.661 486.192 438.008 478.179 C 417.491 477.385 410.665 485.012 406.967 458.589 C 405.884 450.851 404.22 443.255 407.843 435.832 C 412.249 431.411 426.711 430.997 433.708 430.243 C 435.206 418.293 436.227 411.926 439.852 400.475 C 435.467 398.274 420.075 391.19 419.143 386.877 C 417.362 378.637 431.9 350.884 440.285 348.865 C 446.37 347.399 458.344 355.657 463.393 359.474 C 472.003 351.836 479.321 345.87 489.089 339.803 C 487.13 333.858 479.676 320.184 482.654 315.945 C 488.2 308.048 514.57 302.425 523.144 301.472 z" fill="rgb(59,62,115)" transform="translate(0,0)"></path>
<path d="M 520.048 310.178 C 522.137 312.242 531.048 329.399 533.205 333.295 C 538.374 333.2 543.315 332.904 548.521 333.117 C 554.753 333.373 563.54 336.882 569.24 334.075 C 575.242 331.12 577.769 319.997 579.802 313.898 C 589.071 317.233 599.229 320.821 607.507 326.231 C 605.144 332.791 600.691 341.554 597.743 348.394 C 610.463 360.007 618.039 364.046 629.009 378.616 C 635.19 376.214 644.656 370.943 650.87 367.762 C 654.826 378.246 658.554 385.7 663.522 395.709 C 656.196 399.954 648.094 404.179 640.615 408.265 C 644.973 422.39 645.05 433.984 644.974 448.607 C 653.017 450.987 660.989 453.602 668.879 456.448 L 661.14 483.824 C 653.177 482.521 645.201 481.304 637.212 480.174 C 629.566 492.761 624.454 499.897 615.491 511.346 C 619.112 518.002 624.216 525.729 628.193 532.655 C 621.044 538.457 615.158 542.88 607.612 548.159 C 601.003 541.846 594.943 534.984 589.498 527.644 C 581.137 531.396 575.487 534.049 566.755 536.622 L 554.13 538.798 C 552.812 548.48 552.925 555.148 550.376 565.101 C 541.431 564.661 533.82 564.146 524.93 563.143 L 524.737 538.191 C 512.518 534.432 501.124 530.266 489.926 524.078 C 483.997 528.443 477.195 535.099 471.659 540.208 C 461.621 533.711 456.286 528.247 448.867 519.101 C 454.983 513.448 458.742 509.217 463.385 502.399 C 456.124 488.487 451.442 485.811 444.318 468.43 C 434.437 470.136 427.071 469.987 417.144 470.003 C 416.351 460.22 415.882 452.062 413.729 442.419 C 422.457 440.783 432.92 439.62 441.765 438.794 C 442.346 422.069 444.021 413.657 449.178 398.03 C 442.379 391.843 434.9 387.574 427.109 382.797 C 429.856 376.456 437.419 363.866 441.082 356.959 C 449.02 361.436 457.107 366.363 464.982 371.009 C 476.536 358.687 484.211 352.698 498.535 343.998 C 496.528 335.922 493.739 327.357 491.299 319.349 C 500.836 316.15 510.42 313.093 520.048 310.178 z" fill="rgb(137,212,234)" transform="translate(0,0)"></path>
<path d="M 537.169 390.254 C 562.833 387.04 586.281 405.141 589.668 430.782 C 593.056 456.424 575.114 479.994 549.496 483.555 C 523.631 487.15 499.786 468.998 496.365 443.11 C 492.945 417.221 511.258 393.499 537.169 390.254 z" fill="rgb(59,62,115)" transform="translate(0,0)"></path>
<path d="M 538.259 397.695 C 559.562 395.324 578.846 410.433 581.641 431.684 C 584.436 452.936 569.713 472.517 548.522 475.734 C 534.433 477.873 520.289 472.23 511.541 460.982 C 502.793 449.733 500.807 434.635 506.35 421.507 C 511.892 408.379 524.097 399.271 538.259 397.695 z" fill="rgb(255,255,255)" transform="translate(0,0)"></path>
<path d="M 296.153 515.902 C 303.77 517.653 310.102 526.962 317.075 533.434 C 322.191 531.905 325.095 530.684 330.117 532.241 C 336.752 537.687 406.167 636.545 410.445 646.478 C 404.949 653.435 392.068 664.794 384.959 671.606 L 336.012 718.248 C 298.877 753.005 262.45 788.706 224.298 822.392 C 212.806 832.539 211.718 833.015 200.342 823.639 L 144.382 768.618 C 130.276 754.965 112.595 739.422 100.486 723.994 C 99.0877 722.212 98.8338 715.314 98.6738 712.727 C 109.675 700.957 123.585 685.141 138.805 681.089 C 143.797 685.621 145.872 687.201 151.452 690.919 C 163.027 681.314 180.505 662.512 192.461 651.24 C 215.955 629.087 239.727 606.672 262.796 584.109 C 249.237 564.925 245.033 557.168 265.857 540.839 C 274.57 534.006 286.419 520.227 296.153 515.902 z" fill="rgb(59,62,115)" transform="translate(0,0)"></path>
<path d="M 307.348 537.348 C 313.018 542.701 314.24 541.188 322.066 542.372 C 329.404 550.814 337.996 565.729 344.964 575.585 C 360.926 598.163 376.571 621.046 391.923 644.043 C 386.308 650.059 350.819 683.947 346.441 687.924 C 323.275 708.964 231.415 804.711 210.391 814.378 C 184.89 792.955 161.844 765.157 136.901 742.746 C 128.31 735.027 119.134 726.562 111.176 718.289 L 136.542 694.204 C 141.78 700.185 146.641 704.046 152.866 708.901 C 168.018 695.49 183.148 679.511 198.15 665.622 C 225.781 640.038 253.12 614.623 279.61 587.845 C 283.263 587.985 287.484 588.036 291.074 588.314 L 298.04 598.361 C 248.61 645.525 198.446 691.913 147.565 737.507 C 166.273 756.276 190.515 781.705 210.207 800.438 C 210.912 800.487 211.616 800.535 212.321 800.583 C 214.467 797.522 213.715 799.263 213.794 794.874 C 212.561 791.864 167.015 745.94 161.4 740.324 C 167.502 733.947 177.432 725.329 184.128 718.871 C 212.529 691.826 241.264 665.134 270.327 638.801 C 281.08 628.903 303.487 610.216 311.638 599.536 C 305.389 586.316 292.999 573.821 284.214 561.296 C 293.672 552.817 299.773 547.506 307.348 537.348 z" fill="rgb(255,255,255)" transform="translate(0,0)"></path>
<path d="M 324.71 558.585 C 328.517 561.1 330.234 562.121 330.429 566.868 C 327.739 572.813 322.866 575.712 317.634 579.643 C 314.083 579.254 313.338 578.552 312.375 575.607 C 313.688 567.532 319.336 564.262 324.71 558.585 z" fill="rgb(59,62,115)" transform="translate(0,0)"></path>
<path d="M 282.786 671.731 C 285.396 674.228 286.392 674.883 287.979 678.197 C 287.631 683.446 286.133 684.885 282.575 689.278 C 278.797 686.61 277.381 685.216 274.01 681.966 C 278.26 677.945 279.361 676.515 282.786 671.731 z" fill="rgb(59,62,115)" transform="translate(0,0)"></path>
<path d="M 202.584 740.432 C 205.746 742.272 206.857 742.656 209.149 745.585 C 209.411 749.987 209.185 748.774 206.365 753.335 C 203.318 751.224 201.571 750.318 199.359 747.294 C 199.443 743.459 199.819 744.239 202.584 740.432 z" fill="rgb(59,62,115)" transform="translate(0,0)"></path>
<path d="M 230.245 719.45 C 233.783 720.325 234.902 721.23 236.599 724.334 C 235.802 728.788 236.07 727.384 232.427 731.239 L 231.523 731.534 C 225.046 728.483 226.919 723.906 230.245 719.45 z" fill="rgb(59,62,115)" transform="translate(0,0)"></path>
<path d="M 263.514 718.921 C 266.715 720.019 266.692 719.788 268.964 722.211 C 268.493 728.77 262.152 731.137 256.336 730.943 C 254.96 722.932 262.589 725.739 266.266 723.481 L 263.574 721.432 L 263.514 718.921 z" fill="rgb(24,26,36)" transform="translate(0,0)"></path>
<path d="M 214.764 761.463 C 217.949 762.562 218.533 762.416 220.584 765.082 C 220.253 769.25 220.028 768.282 217.047 772.253 C 214.734 770.707 214.579 770.171 212.844 767.928 C 212.559 764.022 212.513 765.397 214.764 761.463 z" fill="rgb(59,62,115)" transform="translate(0,0)"></path>
<path d="M 223.508 754.189 C 226.554 754.891 227.467 755.359 229.316 757.568 C 228.972 761.208 229.158 759.999 225.757 763.255 C 224.041 764.186 224.923 763.814 222.533 763.614 L 221.222 761.8 C 220.871 756.683 220.395 758.734 223.508 754.189 z" fill="rgb(59,62,115)" transform="translate(0,0)"></path>
<path d="M 344.261 641.485 C 347.808 642.413 348.751 642.776 350.477 646.064 C 349.496 653.264 344.662 652.316 339.173 651.091 L 340.412 648.143 L 341.892 647.685 L 345.756 650.561 C 347.796 646.875 344.071 649.761 344.261 641.485 z" fill="rgb(59,62,115)" transform="translate(0,0)"></path>
<path d="M 289.785 660.596 C 295.385 661.092 294.557 663.388 299.147 666.159 C 300.69 667.091 301.816 664.421 305.775 663.12 L 306.615 664.904 C 303.303 667.132 302.051 668.156 299.063 670.826 C 295.646 667.34 292.941 664.266 289.785 660.596 z" fill="rgb(24,26,36)" transform="translate(0,0)"></path>
<path d="M 312.069 673.322 C 314.895 674.476 314.059 674.102 316.535 676.073 C 317.385 679.327 317.624 677.836 316.53 680.693 L 314.799 680.328 L 313.47 676.031 C 310.62 679.255 311.426 677.829 311.767 683.517 C 309.148 682.436 310.328 683.288 308.822 679.924 C 309.171 676.601 310.035 675.95 312.069 673.322 z" fill="rgb(24,26,36)" transform="translate(0,0)"></path>
<path d="M 247.84 731.27 C 249.838 731.808 249.362 731.667 251.187 732.656 C 250.567 734.237 250.035 735.464 249.348 737.005 C 252.095 738.045 250.83 737.613 254.573 736.651 C 253.633 738.991 253.584 738.826 251.657 740.518 C 245.791 739.967 245.878 735.727 247.84 731.27 z" fill="rgb(24,26,36)" transform="translate(0,0)"></path>
<path d="M 260.489 559.492 C 266.774 552.016 287.601 532.35 295.869 528.025 L 297.846 528.17 C 299.071 529.763 300.319 530.593 299.921 532.063 C 297.856 539.692 276.574 554.46 270.315 559.337 C 276.379 569.244 283.935 579.1 291.074 588.314 C 287.484 588.036 283.263 587.985 279.61 587.845 C 274.019 577.105 264.811 568.377 260.489 559.492 z" fill="rgb(137,212,234)" transform="translate(0,0)"></path>
<metadata><recraft-signature>{"signed_by": "recraft", "signature_b64": "KjYJyyhWrLwDbAJROdao7MgdSmVaoi/Q2vtdtpzZlcXQva3/hqDmKey7kLlZD+9gzqpQnu9EoI0EoZBzjdoADg==", "signing_algo": "Ed25519", "generation_timestamp": 1771191968, "identifier": "006cfa8f-24c5-4135-8ed8-635bd1d18680"}</recraft-signature></metadata></svg>