<svg xmlns="http://www.w3.org/2000/svg" height="1024" preserveAspectRatio="none" style="display: block;" version="1.1" viewBox="0 0 2048 2048" width="1024">
<path d="M 0 0 L 2048 0 L 2048 2048 L 0 2048 L 0 0 z" fill="rgb(255,255,255)" transform="translate(0,0)"></path>
<path d="M 1302.14 101.435 C 1407.7 97.4478 1507.8 132.901 1591.66 195.976 C 1673.83 259.065 1727.92 351.905 1742.29 454.495 C 1766.69 630.608 1687.61 791.603 1569.13 917.254 C 1551.91 935.639 1533.9 953.277 1515.17 970.117 C 1501.98 981.879 1485.26 993.672 1473.47 1006.1 C 1469.07 1010.72 1467.99 1022.66 1469.48 1029.36 C 1479.94 1071.96 1510.49 1135.91 1546.4 1160.93 C 1597.23 1196.35 1670.73 1174.86 1673.34 1106.79 C 1673.8 1094.91 1669.52 1079.61 1668.4 1067.54 C 1664.76 1028.59 1669.95 986.365 1692.47 953.412 C 1741.19 880.674 1854.9 865.982 1927.67 908.438 C 1930.69 910.198 1934.43 913.661 1935.01 917.307 C 1933.54 919.705 1931.72 921.151 1928.85 921.436 C 1878.26 926.104 1813.46 931.302 1789.23 984.342 C 1752.66 1064.38 1825.86 1130.51 1864.95 1190.65 C 1887.78 1225.58 1906.64 1262.96 1921.18 1302.08 C 1950.34 1380.26 1952.81 1466.63 1917.37 1543.3 C 1885.55 1612.57 1827.46 1666.31 1755.94 1692.67 C 1655.07 1729 1537.4 1708.82 1459.04 1634.83 C 1411.16 1589.62 1388.74 1538.88 1367.13 1478.51 C 1357.62 1474.29 1348 1470.3 1338.29 1466.54 C 1363.18 1562.58 1355.54 1688.24 1306.8 1775.49 C 1265.93 1848.64 1203.31 1906.5 1121.96 1930.77 C 1037.54 1955.97 905.656 1952.5 873.193 1852.26 C 864.714 1825.59 865.91 1778.43 899.618 1769.19 L 900.942 1768.84 C 938.344 1775.87 919.425 1821.33 953.708 1841.24 C 1018.5 1878.85 1098.07 1838.09 1136.54 1782.54 C 1172.65 1730.39 1187.1 1656.2 1176.63 1595.49 C 1060.53 1668.74 938.408 1664.12 818.659 1603.98 C 784.776 1586.96 755.052 1567.89 722.692 1548.4 C 703.193 1561.71 684.163 1578.67 665.58 1593.43 L 582.488 1658.38 C 565.846 1671.62 539.94 1694.66 522.247 1703.28 C 504.735 1701.07 481.263 1695.08 463.947 1690.87 L 404.732 1676.82 L 329.191 1658.58 C 315.882 1655.34 302.027 1652.6 288.972 1648.49 C 285.466 1647.39 279.075 1645.32 276.734 1642.37 C 271.408 1635.66 270.87 1545.18 270.873 1533.74 C 277.129 1526.89 291.329 1516.73 299.079 1510.89 C 316.295 1497.79 333.673 1484.92 351.212 1472.26 C 366.869 1460.9 398.96 1435.96 414.987 1427.91 C 404.524 1428.58 388.35 1429.13 382.374 1419.53 C 368.543 1397.31 389.952 1379.5 404.383 1368.97 C 402.476 1365.49 400.232 1361.92 398.173 1358.51 C 368.936 1375.05 330.44 1399.67 302.507 1418.33 C 278.432 1434.36 251.81 1449.95 231.614 1418.55 C 208.545 1382.69 189.414 1343.05 169.074 1305.59 C 147.998 1266.77 124.996 1228.57 107.994 1187.84 C 101.02 1171.14 102.211 1147.3 120.052 1138.09 C 143.506 1123.94 167.332 1111.7 191.497 1098.96 L 302.145 1040.29 L 399.96 988.391 C 418.84 978.389 439.094 967.501 458.638 958.719 C 464.438 956.112 473.415 955.77 479.545 957.511 C 494.349 961.715 500.171 975.099 506.971 987.535 C 532.56 1035.34 557.437 1083.51 581.594 1132.05 C 588.273 1145.5 595.587 1160.48 602.287 1173.75 C 626.146 1221.01 613.761 1228.96 574.47 1252.8 C 559.383 1262.03 544.185 1271.08 528.879 1279.95 C 505.206 1293.67 481.154 1308.84 457.308 1321.79 C 461.215 1329.99 464.245 1337.36 467.621 1345.74 C 487.934 1342.54 500.455 1340.67 511.716 1360.11 C 516.505 1356.28 521.718 1352.69 526.94 1349.43 C 569.436 1322.98 612.453 1297.16 657.38 1275.01 C 673.774 1266.93 690.105 1265.55 704.843 1254.02 C 710.71 1250.56 716.814 1246.75 723.058 1244.01 C 796.013 1211.91 881.094 1216.8 957.213 1233.97 C 974.742 1237.93 993.223 1241.4 1009.88 1247.21 C 1014.01 1236.13 1017.23 1226.12 1020.76 1214.84 C 996.295 1211.14 978.171 1209.95 953.28 1204.47 C 910.518 1195.42 869.408 1179.83 831.4 1158.25 C 701.504 1085.84 638.09 957.416 589.533 822.644 C 565.585 756.177 550.928 700.996 512.469 640.99 C 500.534 664.623 485.129 691.094 474.404 714.368 C 486.639 739.868 498.793 765.558 507.175 792.587 C 503.595 803.405 477.54 883.734 472.115 887.405 C 441.788 907.927 401.086 928.607 368.04 946.483 C 363.265 949.065 358.922 950.526 353.769 948.642 C 342.685 937.382 365.431 908.105 372.28 896.998 L 412.673 832.015 C 406.07 821.269 399.176 806.343 387.708 800.178 C 378.627 795.295 351.379 794.577 343.223 801.423 C 336.761 806.848 331.554 817.514 326.914 824.73 C 316.796 840.467 274.537 912.478 259.413 914.048 C 257.8 914.216 256.484 914.212 255.221 913.138 C 252.285 910.641 251.856 905.911 251.438 902.296 C 250.182 891.438 250.855 880.002 251.953 869.163 C 254.81 840.975 260.663 812.919 265.907 785.091 C 269.014 768.603 271.281 750.632 276.545 734.721 C 277.98 730.385 279.821 726.285 282.77 722.755 C 303.435 698.019 365.213 684.728 396.985 681.363 C 404.898 667.234 412.733 653.061 420.49 638.845 C 413.05 630.295 405.569 621.307 399.98 611.492 C 351.362 526.113 418.005 449.407 509.815 473.547 C 518.221 458.362 526.133 444.163 535.297 429.377 C 508.352 378.891 516.129 324.239 566.951 292.284 C 577.372 285.732 614.341 268.778 622.781 283.896 C 626.577 290.695 618.734 319.886 616.026 328.212 C 607.042 331.428 593.64 335.319 588.677 343.703 C 573.386 369.532 595.74 400.654 625.389 391.132 C 652.233 382.511 643.507 355.843 655.213 336.898 C 659.788 329.366 667.735 313.151 676.879 310.897 C 689.688 307.739 697.689 336.491 699.983 345.206 C 712.409 392.427 680.972 440.108 636.158 455.234 C 625.402 458.865 613.813 459.503 602.564 460.788 C 595.222 476.536 582.834 496.281 574.153 514.22 C 581.574 522.426 588.91 530.782 596.144 539.025 C 666.309 618.981 705.17 717.624 755.688 809.691 C 761.292 819.904 769.299 834.499 776.583 843.61 C 765.21 795.049 768.861 759.42 792.015 715.251 C 772.906 660.203 770.379 600.757 784.746 544.286 C 799.021 487.882 826.918 445.54 877.075 415.817 C 905.235 349.347 932.054 293.376 981.746 240.119 C 1067.92 147.765 1178.63 107.467 1302.14 101.435 z" fill="rgb(59,62,115)" transform="translate(0,0)"></path>
<path d="M 943.519 331.049 C 951.193 316.51 960.268 305.009 969.517 291.718 C 1017.92 222.171 1096.38 172.151 1176.98 146.594 C 1200.41 139.124 1224.48 133.799 1248.88 130.686 C 1316.78 122.405 1422.25 129.28 1484.01 161.63 C 1504.41 182.48 1522.06 205.848 1536.54 231.169 C 1577.84 304.355 1596.66 408.803 1594.91 492.016 C 1592.87 583.454 1570.96 673.354 1530.7 755.48 C 1522.24 772.523 1512.06 789.377 1502.34 805.779 C 1469.32 862.248 1428.6 913.842 1381.34 959.076 C 1337.92 1000.54 1298.37 1023.3 1245.26 1049.02 C 1299.74 1046.88 1349.03 1042.51 1392.69 1082.35 C 1394.43 1083.94 1395.74 1085.38 1397.26 1087.21 C 1406.66 1108.4 1415.75 1122.83 1424.19 1146.36 C 1453.37 1227.72 1476.73 1320.4 1518.38 1395.97 C 1545.51 1445.19 1594.79 1505.74 1650.63 1520.54 C 1681.43 1528.7 1716.48 1528.78 1744.84 1512.67 C 1766.82 1500.19 1788.97 1472.74 1797.9 1449.57 C 1858.61 1291.93 1649.22 1158.38 1694.17 999.34 C 1703.88 965.002 1721.97 943.621 1752.39 925.746 C 1789.82 903.751 1850.3 897.473 1891.87 909.416 C 1858.04 911.254 1832.65 919.743 1803.28 935.651 C 1781.52 945.341 1757.64 970.779 1749.13 993.256 C 1734.84 1031 1747.64 1056.51 1761.58 1091.31 C 1767 1109.08 1775.44 1128.05 1783.44 1144.73 C 1826.54 1244.59 1877.48 1347.84 1835.64 1459.84 C 1792.45 1575.46 1652.07 1606.03 1545.01 1566.33 C 1475.5 1540.55 1417.75 1454.75 1389.91 1387.17 C 1385.67 1377 1381.76 1366.7 1378.18 1356.29 C 1376.43 1351.16 1372.49 1338.2 1370.35 1333.75 C 1368.09 1322.56 1363.94 1309.08 1361.31 1296.98 C 1366.44 1287.12 1376.17 1211.81 1377.96 1196.49 C 1374.43 1204.55 1370.37 1217.5 1367.32 1226.1 C 1360.61 1244.69 1354.1 1263.35 1347.78 1282.08 C 1343.37 1276.46 1341.51 1276.39 1334.43 1275.7 C 1339.73 1249.67 1346.35 1214.02 1347.21 1187.46 C 1347.19 1183.09 1347.14 1180.32 1346.63 1176 L 1345.34 1175.4 C 1343.43 1193.07 1339.71 1211.26 1336.56 1228.8 C 1317.07 1337.16 1267.89 1457.23 1179.59 1527.98 C 1113.48 1581.35 1028.54 1605.6 944.211 1595.2 C 869.963 1586.72 809.428 1549.9 746.545 1512.65 C 717.072 1495.19 681.038 1481.79 647.88 1473.88 C 623.994 1468.18 599.124 1470.04 575.168 1473.92 C 606.67 1446.17 628.403 1424.19 673.022 1426.37 C 814.535 1433.29 942.975 1580.89 1076.79 1461.11 C 1141.93 1402.8 1174.44 1324.21 1182.3 1238.39 C 1183.69 1221.48 1181.72 1167.62 1177 1151.58 C 1174.4 1164.5 1174.17 1180.05 1172.97 1193.36 C 1170.55 1220.27 1165.47 1260.74 1155.63 1285.32 C 1139.95 1283.35 1125.99 1279.54 1111.64 1277.55 C 1121.37 1228.28 1119.92 1171.42 1109.22 1122.49 L 1104.63 1104.59 C 995.559 1078.54 892.076 1014.56 832.144 918.121 C 792.167 853.79 784.984 806.258 801.915 733.401 C 816.733 759.939 833.509 776.795 866.338 775.539 C 886.102 774.782 907.383 764.712 920.282 749.65 C 935.722 731.62 946.172 707.705 954.857 685.758 C 976.693 628.684 990.802 565.373 987.317 504.028 C 985.737 476.222 975.923 441.117 953.963 422.45 C 938.028 408.904 923.806 407.296 903.761 408.898 C 911.997 388.875 921.133 369.235 931.142 350.038 C 933.44 350.422 935.725 350.881 937.994 351.414 C 978.335 360.553 996.279 388.817 1016.48 421.084 C 1009.53 388.415 990.146 352.399 959.085 337.222 C 954.262 334.866 948.587 332.902 943.519 331.049 z" fill="rgb(247,139,151)" transform="translate(0,0)"></path>
<path d="M 1345.34 1175.4 C 1345.79 1172.1 1345.58 1169.32 1347.27 1167.03 C 1348.42 1172.91 1347.92 1181.5 1347.21 1187.46 C 1347.19 1183.09 1347.14 1180.32 1346.63 1176 L 1345.34 1175.4 z" fill="rgb(129,71,79)" transform="translate(0,0)"></path>
<path d="M 1313.7 436.441 C 1369.32 433.869 1393.32 453.065 1441.24 474.288 C 1460.5 482.819 1480.35 477.193 1498.79 468.157 C 1483.9 490.957 1469.01 494.786 1443.44 490.098 C 1453.56 499.662 1463.53 510.72 1473.62 520.753 C 1483.62 530.695 1497.43 539.977 1506.59 549.219 L 1505.94 550.219 C 1496.76 550.342 1476.82 538.962 1468.42 534.112 C 1472.88 542.736 1475.58 552.478 1477.5 562.14 C 1490.29 626.439 1469.06 693.025 1430.25 744.418 C 1402.7 780.908 1374.18 804.162 1333.67 824.549 C 1304.51 839.395 1272.69 848.304 1240.05 850.759 C 1191.57 854.023 1144.89 840.129 1108.11 807.922 C 1090.07 792.121 1071.48 765.109 1071.01 740.811 C 1069.93 685.836 1105.28 595.535 1133.19 548.86 C 1142.08 534.092 1152.41 520.238 1164.02 507.498 C 1202.54 464.929 1256.37 439.375 1313.7 436.441 z" fill="rgb(59,62,115)" transform="translate(0,0)"></path>
<path d="M 1093.73 699.873 C 1094.69 695.255 1095.7 690.65 1096.77 686.057 C 1108.22 636.336 1129.15 578.489 1161 537.823 C 1177.94 517.769 1198.51 500.426 1220.95 486.759 C 1346.25 410.459 1493.04 493.811 1454.88 646.134 C 1422.96 759.557 1303.39 854.31 1181.36 822.538 C 1146.24 813.396 1115.02 791.077 1096.23 760.136 C 1084.72 741.246 1090 720.755 1093.73 699.873 z" fill="rgb(59,62,115)" transform="translate(0,0)"></path>
<path d="M 1093.73 699.873 C 1094.69 695.255 1095.7 690.65 1096.77 686.057 C 1108.22 636.336 1129.15 578.489 1161 537.823 C 1177.94 517.769 1198.51 500.426 1220.95 486.759 C 1346.25 410.459 1493.04 493.811 1454.88 646.134 C 1425.95 662.239 1399.87 678.263 1368.11 688.897 C 1362.87 690.652 1354.55 694.406 1349.44 695.118 C 1368.84 653.447 1375.55 608.114 1343.7 568.629 C 1331.36 554.544 1310.04 544.657 1291.6 544.157 C 1222.53 542.284 1157.37 610.945 1154.77 677.997 C 1152.02 681.705 1101.81 697.937 1093.73 699.873 z" fill="rgb(255,255,255)" transform="translate(0,0)"></path>
<path d="M 1349.44 695.118 C 1354.55 694.406 1362.87 690.652 1368.11 688.897 C 1399.87 678.263 1425.95 662.239 1454.88 646.134 C 1422.96 759.557 1303.39 854.31 1181.36 822.538 C 1146.24 813.396 1115.02 791.077 1096.23 760.136 C 1084.72 741.246 1090 720.755 1093.73 699.873 C 1101.81 697.937 1152.02 681.705 1154.77 677.997 C 1156.01 777.165 1264.04 793.467 1323.53 729.372 C 1333.99 718.099 1341.21 708.177 1349.44 695.118 z" fill="rgb(137,212,234)" transform="translate(0,0)"></path>
<path d="M 1238.1 585.123 C 1290.35 582.14 1271.53 655.429 1223.53 667.613 C 1174.02 674.168 1184.7 599.497 1238.1 585.123 z" fill="rgb(255,255,255)" transform="translate(0,0)"></path>
<path d="M 1309.25 679.083 C 1335.63 678.325 1332.61 703.597 1312.84 712.326 C 1290.95 714.107 1286.19 688.221 1309.25 679.083 z" fill="rgb(255,255,255)" transform="translate(0,0)"></path>
<path d="M 926.319 777.314 C 937.184 776.144 948.606 777.461 959.434 778.709 C 978.668 780.927 1064.56 795.305 1073.85 808.171 C 1076.69 812.104 1077.27 816.944 1076.58 821.649 C 1073.16 844.964 1052.85 868.33 1034.47 881.689 C 974.424 923.464 920.017 888.724 903.871 822.414 C 901.147 811.227 900.484 795.544 907.02 785.754 C 911.389 779.209 919.081 778.487 926.319 777.314 z" fill="rgb(59,62,115)" transform="translate(0,0)"></path>
<path d="M 1029.12 828.41 C 1034.66 827.798 1055.29 827.415 1059.89 830.576 C 1062.92 835.147 1051.5 850.349 1049.34 852.951 C 1031.46 874.44 1007.2 890.377 978.452 890.009 C 966.665 888.082 934.998 880.783 950.17 863.355 C 970.209 840.335 999.515 830.815 1029.12 828.41 z" fill="rgb(247,139,151)" transform="translate(0,0)"></path>
<path d="M 1321.1 136.423 C 1330.77 136.122 1346.23 136.967 1353.99 142.96 C 1357.5 145.722 1359.71 149.821 1360.09 154.277 C 1361.39 169.125 1337.62 181.837 1326.41 187.592 C 1303.72 199.231 1280.46 204.276 1255.39 206.826 C 1244.67 206.655 1230.55 206.54 1221.61 199.934 C 1211.6 192.536 1214.23 178.996 1222.03 170.863 C 1246.12 145.764 1288.1 138.616 1321.1 136.423 z" fill="rgb(59,62,115)" transform="translate(0,0)"></path>
<path d="M 1315.86 144.418 C 1323.15 143.916 1338.54 143.478 1344.13 146.696 C 1371.34 162.345 1313.14 184.264 1305.11 187.373 C 1290.21 193.137 1276.35 195.814 1261.93 198.003 C 1252.45 198.283 1228.2 200.395 1224.58 187.445 C 1223.66 184.129 1226.41 178.772 1228.91 176.365 C 1250.37 155.704 1287.29 146.65 1315.86 144.418 z" fill="rgb(247,139,151)" transform="translate(0,0)"></path>
<path d="M 1151.27 171.26 C 1172.89 169.47 1177.64 181.269 1166.16 198.198 C 1150.74 220.936 1125.98 236.879 1099.24 242.764 C 1074.47 245.884 1071.41 230.508 1084.39 212.937 C 1099.01 193.155 1127.02 175.663 1151.27 171.26 z" fill="rgb(59,62,115)" transform="translate(0,0)"></path>
<path d="M 1149.16 180.141 C 1159.42 179.515 1168.43 181.796 1160.52 193.655 C 1147.47 213.203 1123.08 230.037 1100.09 234.795 C 1089.42 235.675 1080.77 233.316 1088.34 221.356 C 1100.74 201.765 1126.92 185.164 1149.16 180.141 z" fill="rgb(247,139,151)" transform="translate(0,0)"></path>
<path d="M 1353.32 333.416 C 1403.9 329.106 1454.02 353.799 1473.72 401.968 C 1445.62 374.679 1416.5 359.753 1378.23 353.194 C 1323.48 346.432 1286.47 362.624 1238.35 382.513 C 1272.34 351.085 1307.83 336.952 1353.32 333.416 z" fill="rgb(59,62,115)" transform="translate(0,0)"></path>
<path d="M 1218.51 224.291 C 1231.36 223.983 1242.33 232.997 1234.1 245.554 C 1221.43 264.886 1197.37 276.306 1175.27 281.096 C 1155.34 281.608 1147.19 271.945 1160.34 254.649 C 1172.93 238.076 1198.5 227.007 1218.51 224.291 z" fill="rgb(59,62,115)" transform="translate(0,0)"></path>
<path d="M 1218.21 232.357 C 1221.55 232.09 1227.39 232.887 1229.63 235.624 C 1230.21 238.757 1229.15 240.787 1227.13 243.338 C 1214.06 259.886 1195.59 268.867 1175.5 272.516 C 1170.38 272.811 1169.75 272.767 1165 270.881 C 1161.35 266.704 1163.96 263.239 1167.24 259.324 C 1179.54 244.656 1199.31 234.534 1218.21 232.357 z" fill="rgb(247,139,151)" transform="translate(0,0)"></path>
<path d="M 1113.15 273.239 C 1127.43 273.531 1133.93 283.899 1126.07 295.872 C 1114.82 312.987 1091.43 329.8 1071.46 335.083 C 1065.83 335.243 1054.56 332.963 1054.47 327.058 C 1054.05 299.794 1093.06 276.777 1113.15 273.239 z" fill="rgb(59,62,115)" transform="translate(0,0)"></path>
<path d="M 1111.74 281.15 C 1116.82 280.901 1118.3 280.332 1121.71 284.333 C 1124.34 299.476 1086.9 321.208 1074.68 325.949 C 1064.59 328.938 1060.59 323.165 1065.98 314.133 C 1076.01 297.338 1093.52 286.941 1111.74 281.15 z" fill="rgb(247,139,151)" transform="translate(0,0)"></path>
<path d="M 469.164 974.272 C 482.218 975.679 488.376 990.015 494.089 1000.56 C 514.46 1038.18 534.012 1076.36 553.581 1114.41 C 561.121 1129.35 568.554 1144.35 575.88 1159.4 C 582.175 1172.12 588.193 1183.67 592.999 1197.1 C 602.334 1223.2 579.107 1229.75 560.649 1240.4 C 543.857 1250.28 526.993 1260.04 510.059 1269.68 C 493.132 1279.49 476.631 1290.02 459.854 1300.12 C 436.364 1314.26 412.257 1327.74 388.801 1341.85 C 365.756 1355.78 342.875 1369.97 320.163 1384.43 C 302.83 1395.47 284.318 1407.19 266.09 1416.73 C 261.956 1418.89 257.723 1418.02 253.613 1416.38 C 237.77 1399.89 213.733 1347.23 201.509 1325.89 C 178.249 1285.3 156.225 1242.43 134.161 1201.09 C 129.928 1193.15 126.4 1183.34 124.005 1174.64 C 121.582 1164.32 125.425 1156.49 134.448 1151.31 C 147.249 1143.95 160.15 1137.06 173.07 1130.05 L 265.605 1080.67 L 373.15 1022.4 C 393.196 1011.52 452.04 977.123 469.164 974.272 z" fill="rgb(215,213,226)" transform="translate(0,0)"></path>
<path d="M 459.858 990.959 C 474.401 991.033 478.926 1001.1 484.988 1012.68 C 515.257 1070.47 548.317 1127 575.039 1186.58 C 577.594 1192.27 584.351 1208.16 578.847 1212.68 C 563.034 1225.67 544.449 1235.25 526.69 1245.49 C 504.757 1258.05 482.921 1270.79 461.185 1283.69 C 427.618 1303.03 394.252 1322.71 361.09 1342.73 C 332.681 1360 304.64 1377.95 275.937 1394.73 C 271.858 1397.11 270.337 1397.96 265.718 1397.75 C 261.596 1395.88 260.347 1395.12 257.833 1391.23 C 248.955 1377.51 240.97 1362.8 233.211 1348.44 L 200.525 1287.99 L 162.929 1218.84 C 156.89 1207.58 150.253 1195.69 144.908 1184.17 C 141.87 1177.63 141.156 1172.16 144.275 1165.62 C 145.968 1162.07 147.682 1159.85 151.264 1157.89 C 169.862 1147.72 188.956 1137.96 207.561 1127.84 L 334.073 1058.61 C 357.626 1045.54 381.103 1032.33 404.503 1018.98 C 419.941 1010.28 443.355 996.867 459.858 990.959 z" fill="rgb(59,62,115)" transform="translate(0,0)"></path>
<path d="M 463.244 997.01 C 468.58 997.981 473.278 1005.38 475.625 1010.04 C 502.407 1063.13 533.862 1115.5 558.96 1169.3 C 564.74 1181.52 569.609 1194.14 573.527 1207.07 C 564.334 1215.96 513.892 1243.91 500.013 1252.02 L 352.126 1339.29 C 327.868 1353.77 296.051 1375.07 270.555 1389.21 C 268.321 1390.45 265.984 1388.38 264.037 1387.1 C 250.543 1367.87 230.099 1326.98 218.286 1305.44 C 201.972 1276.26 185.929 1246.92 170.161 1217.44 C 164.739 1207.36 158.923 1197.38 153.67 1187.24 C 152.125 1184.26 147.631 1174.63 149.017 1171.72 C 150.625 1168.35 154.121 1164.75 157.383 1162.91 C 173.775 1153.65 190.82 1144.97 207.289 1135.87 L 331.262 1067.87 C 360.911 1051.61 389.852 1034.29 419.343 1017.76 C 433.493 1009.83 447.689 1001.85 463.244 997.01 z" fill="rgb(137,212,234)" transform="translate(0,0)"></path>
<path d="M 318.721 1134.32 C 347.767 1134.37 362.953 1161.42 368.342 1186.48 C 372.326 1205 371.37 1225.75 348.754 1229.51 C 320.557 1228.1 304.716 1195.84 297.885 1171.85 C 292.544 1153.09 298.371 1138.01 318.721 1134.32 z" fill="rgb(59,62,115)" transform="translate(0,0)"></path>
<path d="M 317.112 1142.08 C 335.699 1141.15 345.917 1151.84 353.632 1167.65 C 361.574 1183.92 369.849 1212.48 349.275 1222.46 C 333.201 1221.29 318.025 1200.1 311.995 1186.5 C 304.958 1170.63 296.219 1150.48 317.112 1142.08 z" fill="rgb(137,212,234)" transform="translate(0,0)"></path>
<path d="M 366.825 1082.29 C 367.792 1082.56 369.964 1083.18 370.371 1084.04 C 375.022 1093.8 378.272 1108.9 382.273 1119.17 C 387.766 1134.26 395.084 1148.57 400.12 1163.84 C 407.877 1187.35 404.539 1198.79 387.382 1216.05 L 385.097 1217.29 L 383.565 1216.75 C 382.75 1207.06 400.49 1198.07 394.7 1173.77 C 389.028 1149.96 361.783 1105.23 366.825 1082.29 z" fill="rgb(59,62,115)" transform="translate(0,0)"></path>
<path d="M 394.484 1100.34 C 412.357 1100.94 438.406 1104.56 455.935 1108.3 C 462.986 1109.8 441.128 1169.63 437.148 1176 L 434.733 1173.72 C 433.236 1165.05 445.94 1125.09 449.761 1115.37 C 439.718 1113.38 392.784 1110.05 389.539 1103.31 C 391.346 1100.48 390.257 1101.76 394.484 1100.34 z" fill="rgb(59,62,115)" transform="translate(0,0)"></path>
<path d="M 264.172 1171.3 C 267.691 1172.26 266.441 1171.29 268.431 1173.72 C 269.042 1182.38 256.498 1211.42 253.395 1222.93 L 253.025 1224.32 C 261.989 1226.58 304.586 1233.34 307.891 1236.84 C 307.544 1239.83 307.351 1239.14 304.858 1241.83 C 288.96 1242.22 257.563 1234.4 243.214 1227.56 C 248.004 1212.36 257.71 1185.93 264.172 1171.3 z" fill="rgb(59,62,115)" transform="translate(0,0)"></path>
<path d="M 539.529 594.757 C 574.259 616.684 603.575 671.259 622.092 706.878 C 694.544 846.238 747.988 973.798 890.34 1054.65 C 936.017 1080.19 985.575 1098.05 1037.04 1107.54 C 1037.09 1133.27 1032.87 1169.31 1025.36 1194.24 C 918.751 1189.04 815.937 1145.07 744.932 1064.82 C 686.632 998.927 645.074 919.527 614.275 837.398 C 602.089 804.904 592.689 771.418 580.262 738.998 C 574.386 723.672 567.445 708.297 560.858 693.274 L 561.724 691.153 C 570.72 704.678 579.265 689.805 577.609 679.07 C 573.072 649.659 550.475 631.155 528.727 613.602 C 532.289 606.774 535.111 601.054 539.529 594.757 z" fill="rgb(137,212,234)" transform="translate(0,0)"></path>
<path d="M 937.576 1102.42 C 961.457 1102.46 998.29 1110.73 1004.95 1137.93 C 1009.27 1155.57 992.487 1163.45 977.901 1166.13 C 910.334 1167.45 877.111 1106.9 937.576 1102.42 z" fill="rgb(59,62,115)" transform="translate(0,0)"></path>
<path d="M 932.194 1111.13 C 952.496 1109.77 984.16 1116.71 995.354 1136.11 C 1000.99 1145.87 988.778 1153.33 980.641 1155.93 C 965.719 1157.14 953.392 1154.65 939.514 1149.24 C 919.481 1141.44 898.491 1118.85 932.194 1111.13 z" fill="rgb(137,212,234)" transform="translate(0,0)"></path>
<path d="M 808.681 1043.17 C 845.337 1042.02 902.332 1098.34 852.283 1113.06 C 842.966 1113.45 836.741 1112.53 827.393 1107.93 C 810.722 1099.71 779.844 1078.12 789.472 1055.96 C 792.437 1049.13 801.643 1045.3 808.681 1043.17 z" fill="rgb(59,62,115)" transform="translate(0,0)"></path>
<path d="M 810.491 1051.04 C 833.255 1053.71 889.019 1090.63 851.267 1105.69 C 831.31 1104.41 806.728 1088.5 797.969 1070 C 793.151 1059.83 801.84 1053.94 810.491 1051.04 z" fill="rgb(137,212,234)" transform="translate(0,0)"></path>
<path d="M 713.503 943.015 C 745.692 941.705 790.701 1004.21 746.868 1020.43 C 730.968 1020.45 719.374 1008.55 710.349 996.732 C 696.429 978.512 684.253 953.763 713.503 943.015 z" fill="rgb(59,62,115)" transform="translate(0,0)"></path>
<path d="M 712.74 952.099 C 735.766 951.171 773.695 995.863 747.851 1012.08 C 745.809 1012.12 743.77 1011.94 741.767 1011.54 C 727.58 1008.69 702.117 976.728 704.908 960.857 C 705.618 956.824 709.497 954.151 712.74 952.099 z" fill="rgb(137,212,234)" transform="translate(0,0)"></path>
<path d="M 643.698 830.117 C 659.197 829.214 669.376 837.89 676.484 851.023 C 685.579 867.825 703.245 898.695 680.517 911.641 C 664.898 913.385 654.44 900.541 647.697 887.975 C 639.619 872.918 621.986 841.13 643.698 830.117 z" fill="rgb(59,62,115)" transform="translate(0,0)"></path>
<path d="M 645.836 837.864 C 665.176 837.679 680.472 875.104 682.847 891.643 C 683.55 896.539 681.664 899.801 678.555 903.321 C 673.472 903.135 670.253 902.421 666.494 898.674 C 655.6 887.814 632.781 851.644 645.836 837.864 z" fill="rgb(137,212,234)" transform="translate(0,0)"></path>
<path d="M 597.977 724.95 C 609.043 723.782 616.403 730.395 621.541 739.771 C 629.764 754.776 644.906 782.388 627.956 795.967 C 617.462 796.745 610.536 791.304 605.866 782.085 C 597.957 766.471 580.944 738.906 597.977 724.95 z" fill="rgb(59,62,115)" transform="translate(0,0)"></path>
<path d="M 599.762 731.512 C 616.928 733.52 635.106 774.05 624.846 789.048 C 619.177 788.089 616.188 786.005 612.935 781.139 C 605.287 769.699 599.249 755.539 596.406 742.086 C 595.437 737.498 597.095 734.912 599.762 731.512 z" fill="rgb(137,212,234)" transform="translate(0,0)"></path>
<path d="M 1778.51 1119.47 L 1783.46 1120.77 C 1786.93 1126.29 1790.71 1131.28 1795.05 1136.15 C 1823.86 1168.54 1847.59 1202.23 1869.35 1239.73 C 1866.51 1242.67 1863.24 1245.98 1861.33 1249.67 C 1849.34 1273 1862.49 1319.4 1892.59 1320.79 C 1896.3 1320.96 1902.26 1318.63 1905.77 1317.19 C 1912.73 1344.08 1917.15 1364.09 1919.76 1391.84 C 1892.98 1387.22 1881.33 1410.26 1877.96 1433.13 C 1874.05 1459.63 1883.89 1482.55 1911.48 1490.02 C 1905.28 1517.09 1892.56 1540.05 1879.49 1564.11 C 1874.69 1572.7 1870.29 1578.96 1863.98 1586.52 C 1840.92 1613.58 1825.67 1628.8 1794.94 1647.43 C 1734.3 1684.92 1661.14 1696.49 1591.89 1679.53 C 1526.75 1663.57 1467.19 1627.1 1432.38 1568.64 C 1394.98 1505.82 1373.73 1435.58 1362.44 1363.57 C 1359.99 1347.92 1356.24 1325.81 1359.97 1310.62 C 1361.51 1318.84 1362.78 1326.59 1365.34 1334.58 C 1366.72 1342.87 1370.76 1353.9 1373.35 1362.05 C 1406.33 1466.11 1476.14 1563.52 1585.69 1594.76 C 1647.37 1612.41 1713.56 1604.52 1769.37 1572.88 C 1811.5 1549.42 1847.21 1499.55 1860.24 1453.68 C 1868.13 1425.16 1870.4 1395.38 1866.93 1365.99 C 1860.39 1310.4 1815.05 1193.11 1787.87 1144.69 C 1786.73 1142.35 1786.23 1140.78 1785.37 1138.34 C 1786.55 1129.93 1783.24 1126.93 1778.51 1119.47 z" fill="rgb(137,212,234)" transform="translate(0,0)"></path>
<path d="M 1861.75 1584.9 C 1825.35 1630.23 1778.57 1585.83 1827.81 1546.52 C 1846.79 1531.37 1886.01 1522.77 1879.14 1558.78 L 1879.49 1564.11 C 1874.69 1572.7 1870.29 1578.96 1863.98 1586.52 L 1861.75 1584.9 z" fill="rgb(59,62,115)" transform="translate(0,0)"></path>
<path d="M 1879.14 1558.78 L 1879.49 1564.11 C 1874.69 1572.7 1870.29 1578.96 1863.98 1586.52 L 1861.75 1584.9 C 1869.18 1575.72 1874.51 1569.82 1879.14 1558.78 z" fill="rgb(81,162,221)" transform="translate(0,0)"></path>
<path d="M 1853.82 1543.15 C 1885.34 1540.86 1857.57 1587.44 1829.27 1594.06 C 1813.88 1593.07 1812.16 1582.31 1819.04 1570.4 C 1827.72 1555.35 1837.49 1548.23 1853.82 1543.15 z" fill="rgb(137,212,234)" transform="translate(0,0)"></path>
<path d="M 1724.3 1605.22 C 1745.06 1603.15 1779.78 1608.26 1764.22 1639.26 C 1756.07 1655.49 1734.77 1664.04 1717.77 1668.47 C 1652.74 1677.51 1661.52 1617.94 1724.3 1605.22 z" fill="rgb(59,62,115)" transform="translate(0,0)"></path>
<path d="M 1725.05 1614.3 C 1783.17 1608.44 1755.96 1648.43 1717.79 1658.72 C 1665.23 1669.67 1676.81 1622.61 1725.05 1614.3 z" fill="rgb(137,212,234)" transform="translate(0,0)"></path>
<path d="M 1458.26 1546.96 C 1478.73 1548.26 1540.7 1597.02 1503.42 1616.44 C 1476.77 1620.29 1422.68 1563.72 1458.26 1546.96 z" fill="rgb(59,62,115)" transform="translate(0,0)"></path>
<path d="M 1458.51 1554.77 C 1473.45 1559.47 1500.03 1581.26 1504.76 1597.31 C 1505.9 1601.17 1503.82 1604.7 1501.7 1607.75 C 1483.29 1607.6 1446.91 1576.13 1458.51 1554.77 z" fill="rgb(137,212,234)" transform="translate(0,0)"></path>
<path d="M 1575.1 1617.17 C 1620.35 1612.89 1637.45 1652.76 1591.25 1664.85 C 1581.93 1666.15 1572.43 1664.65 1563.97 1660.53 C 1553.47 1655.38 1542.39 1643.81 1549.35 1631.24 C 1554.22 1622.45 1565.88 1619.33 1575.1 1617.17 z" fill="rgb(59,62,115)" transform="translate(0,0)"></path>
<path d="M 1577.87 1624.21 C 1608.79 1621.69 1623.8 1648.29 1587.72 1656.58 C 1581.04 1656.81 1574.39 1655.49 1568.3 1652.71 C 1545.77 1642.31 1558.45 1628.41 1577.87 1624.21 z" fill="rgb(81,162,221)" transform="translate(0,0)"></path>
<path d="M 1278.5 1486.48 C 1279.4 1487.16 1280.28 1487.94 1280.57 1489.09 C 1302.07 1575.76 1300.02 1678.08 1262.73 1759.85 C 1232.56 1826 1169.26 1885.75 1102.31 1912.06 C 1055.96 1930.27 987.647 1923.93 943.343 1902.98 C 915.014 1889.13 901.064 1870.45 890.717 1841.11 C 887.362 1827.17 882.349 1792.51 899.221 1785.79 C 911.017 1787.29 912.211 1817.48 918.665 1829.38 C 948.725 1885.62 1024.63 1885.41 1076.04 1861.75 C 1180.33 1813.75 1216.03 1683.61 1196.85 1578.22 C 1233.23 1544.32 1250.61 1527.69 1278.5 1486.48 z" fill="rgb(247,139,151)" transform="translate(0,0)"></path>
<path d="M 798.701 658.127 C 791.748 593.277 803.575 522.978 844.572 471.058 C 894.987 407.212 963.64 415.194 968.775 504.627 C 972.178 563.9 960.221 608.6 944.103 664.162 C 932.152 699.182 912.35 750.089 870.841 757.324 C 859.119 759.464 847.037 756.562 837.566 749.33 C 813.948 731.564 802.477 685.73 798.701 658.127 z" fill="rgb(59,62,115)" transform="translate(0,0)"></path>
<path d="M 798.701 658.127 C 791.748 593.277 803.575 522.978 844.572 471.058 C 894.987 407.212 963.64 415.194 968.775 504.627 C 972.178 563.9 960.221 608.6 944.103 664.162 C 937.231 662.546 935.685 661.466 929.639 657.885 C 945.832 629.132 954.464 591.682 948.793 558.47 C 937.139 490.224 877.511 486.29 842.67 541.333 C 823.663 571.363 814.495 614.896 822.422 650.579 C 814.672 654.507 807.193 656.281 798.701 658.127 z" fill="rgb(255,255,255)" transform="translate(0,0)"></path>
<path d="M 822.422 650.579 C 842.669 715.632 897.423 706.699 929.639 657.885 C 935.685 661.466 937.231 662.546 944.103 664.162 C 932.152 699.182 912.35 750.089 870.841 757.324 C 859.119 759.464 847.037 756.562 837.566 749.33 C 813.948 731.564 802.477 685.73 798.701 658.127 C 807.193 656.281 814.672 654.507 822.422 650.579 z" fill="rgb(137,212,234)" transform="translate(0,0)"></path>
<path d="M 876.417 533.15 C 915.392 530.145 914.3 585.465 876.661 599.827 C 837.142 603.867 839.888 547.766 876.417 533.15 z" fill="rgb(255,255,255)" transform="translate(0,0)"></path>
<path d="M 901.885 633.483 C 908.51 632.073 915.071 636.126 916.776 642.681 C 918.481 649.235 914.726 655.971 908.254 657.968 C 903.802 659.342 898.955 658.16 895.636 654.89 C 892.316 651.621 891.06 646.792 892.366 642.32 C 893.672 637.847 897.328 634.453 901.885 633.483 z" fill="rgb(255,255,255)" transform="translate(0,0)"></path>
<path d="M 1738.26 1247.63 C 1751.89 1266.92 1773.62 1315.24 1779.93 1337.69 C 1811.13 1448.58 1735.24 1548.45 1621.56 1483.34 C 1591.82 1464.12 1573.67 1441.55 1554.83 1411.8 C 1609.01 1392.14 1603.67 1374.84 1597.94 1324.03 C 1649.66 1315.36 1706.34 1290.65 1738.26 1247.63 z" fill="rgb(255,255,255)" transform="translate(0,0)"></path>
<path d="M 468.729 486.394 C 524.365 480.588 572.589 533.765 601.387 574.311 C 614.061 591.04 626.727 607.807 637.278 626.018 C 675.28 691.608 705.196 762.036 741.591 828.388 C 751.807 846.724 763.104 864.437 775.42 881.434 C 783.652 892.602 794.355 905.417 801.973 916.63 C 814.928 935.696 823.765 953.066 838.686 971.57 C 865.671 1005.04 900.29 1032.24 934.778 1057.62 C 942.748 1063.48 959.967 1073 968.961 1078.38 C 935.02 1070.73 898.624 1050.16 869.5 1031.81 C 849.603 1018.16 825.281 1000.01 807.937 983.077 C 719.54 896.748 674.992 782.188 616.385 676.121 C 592.704 633.262 550.368 576.257 501.582 561.204 C 486.782 557.475 469.63 555.127 456.023 563.634 C 449.723 567.572 436.162 579.029 442.071 586.898 C 445.079 587.643 446.558 586.599 449.534 585.405 L 450.766 584.9 C 443.03 597.333 435.908 610.138 429.426 623.269 C 397.564 582.969 381.616 528.555 436.383 495.804 C 446.225 489.918 457.358 487.631 468.729 486.394 z" fill="rgb(247,139,151)" transform="translate(0,0)"></path>
<path d="M 917.224 1327.66 C 971.069 1332.22 1052.2 1376.63 1088.81 1416.16 C 1062.4 1447.54 1038.41 1467.43 999.225 1480.04 C 939.799 1495.43 888.474 1473.78 833.716 1451.16 C 856.073 1431.75 894.633 1406.5 913.798 1385.02 C 914.608 1366.65 914.72 1345.62 917.224 1327.66 z" fill="rgb(255,255,255)" transform="translate(0,0)"></path>
<path d="M 293.089 1539.8 C 306.653 1528.23 322.304 1517.41 336.676 1506.78 C 352.804 1494.84 368.733 1482.32 385.091 1470.77 C 468.359 1411.99 550.36 1352.11 640.521 1304.01 C 647.747 1300.15 654.897 1296.4 662.294 1292.82 C 655.682 1299.51 650.827 1306.09 645.143 1312.88 C 641.876 1316.79 626.767 1324.6 621.815 1327.45 C 609.49 1334.5 597.276 1341.74 585.177 1349.17 C 551.027 1370.38 517.501 1392.59 484.64 1415.75 C 461.691 1431.8 438.137 1446.55 416.566 1464.6 C 406.548 1472.99 393.088 1480.98 385.095 1491.14 C 383.81 1492.79 382.473 1494.4 381.085 1495.96 C 379.767 1497.48 380.334 1496.99 378.45 1497.78 C 365.917 1496.3 357.953 1508.83 347.765 1514.75 C 340.947 1518.72 327.738 1533.07 338.181 1540.11 C 350.063 1548.13 370.216 1560.13 384.598 1561.56 C 391.294 1561.7 396.903 1556.65 401.304 1553.26 L 399.818 1566.12 C 416.473 1575.98 433.423 1583.88 450.92 1592.13 C 454.211 1590.51 466.254 1583.32 467.53 1582.99 C 467.669 1585.79 466.899 1595.63 468.628 1596.85 C 480.23 1605.04 498.543 1612.28 512.01 1616.52 C 519.202 1613.22 560.681 1580.38 566.81 1573.32 L 567.053 1571.04 C 552.86 1566.12 540.002 1562.69 524.854 1557.19 C 516.226 1564.8 513.55 1568.95 507.388 1578.77 C 515.025 1583.95 522.77 1588.98 530.618 1593.84 C 524.542 1599.54 520.077 1603.37 513.521 1608.53 C 500.009 1603.16 477.031 1596.25 469.839 1583.8 L 469.302 1582.85 C 469.584 1581.15 469.368 1580.91 470.688 1579.86 C 486.511 1567.24 498.645 1552.15 512.406 1537.78 C 528.589 1520.88 552.103 1506.72 572.937 1496.2 C 573.208 1496.07 587.464 1495.76 589.559 1495.6 C 597.626 1494.58 628.783 1503.53 636.209 1506.54 C 647.674 1509.95 658.893 1514.14 669.786 1519.08 L 564.649 1600.18 C 551.82 1610.1 526.571 1628.1 515.7 1638.54 C 470.974 1617.48 423.847 1598.84 379.137 1577.31 C 368.77 1572.32 297.083 1539.95 293.089 1539.8 z" fill="rgb(241,217,214)" transform="translate(0,0)"></path>
<path d="M 589.559 1495.6 C 597.626 1494.58 628.783 1503.53 636.209 1506.54 C 635.512 1510.27 636.332 1508.79 634.207 1511.4 C 638.344 1513.57 639.47 1513.7 639.357 1518.13 C 634.856 1525.5 622.307 1530.12 614.236 1533.21 C 601.395 1525.79 588.56 1522.57 575.777 1515.4 C 580.088 1508.81 584.635 1501.6 590.821 1496.66 L 589.559 1495.6 z" fill="rgb(59,62,115)" transform="translate(0,0)"></path>
<path d="M 589.559 1495.6 C 597.626 1494.58 628.783 1503.53 636.209 1506.54 C 635.512 1510.27 636.332 1508.79 634.207 1511.4 C 626.559 1508.82 595.589 1495.3 590.821 1496.66 L 589.559 1495.6 z" fill="rgb(137,212,234)" transform="translate(0,0)"></path>
<path d="M 592.399 1501.95 C 604.673 1507.78 619.099 1512.68 631.946 1518.11 C 628.818 1520.71 625.585 1522.56 622.136 1524.69 C 613.13 1527.36 595.168 1516.93 584.33 1512.92 C 586.764 1509.05 589.602 1505.56 592.399 1501.95 z" fill="rgb(137,212,234)" transform="translate(0,0)"></path>
<path d="M 564.571 1524.25 C 573.963 1528.16 583.44 1531.58 592.937 1535.2 C 598.159 1537.2 601.736 1538.46 602.366 1544.33 C 599.331 1552.01 591.784 1556.22 584.935 1561.26 L 582.629 1561.54 C 576.284 1559.22 548.02 1546.45 547.871 1540.3 C 551.447 1534.12 558.917 1528.78 564.571 1524.25 z" fill="rgb(59,62,115)" transform="translate(0,0)"></path>
<path d="M 563.605 1531.75 C 569.813 1532.86 589.238 1541.01 594.934 1544.32 C 591.514 1547.62 587.682 1550.91 584.119 1554.09 C 575.237 1549.67 562.136 1544.42 552.761 1540.35 C 556.263 1537.01 559.724 1534.62 563.605 1531.75 z" fill="rgb(137,212,234)" transform="translate(0,0)"></path>
<path d="M 658.038 1399.31 C 659.94 1376.15 663.512 1359.75 675.964 1339.41 C 698.496 1302.62 744.92 1280.56 785.736 1270.9 C 870.313 1250.88 973.185 1283.67 1049.61 1319.8 C 1074.38 1331.51 1102.66 1349.27 1125.97 1363.73 C 1118.7 1377.98 1112.26 1387.52 1102.57 1400.1 C 1077.5 1374.39 1045.17 1353.37 1013.61 1336.39 C 1003.45 1330.93 968.298 1317.88 963.827 1313.28 C 964.635 1308.75 963.936 1308.6 966.451 1305.56 C 983.471 1304.86 1030.15 1338.87 1046.66 1347.01 C 1049.08 1348.21 1051.09 1347.36 1053.04 1345.96 L 1053.56 1343.64 C 1043.79 1330.78 988.231 1301.66 970.894 1297.66 C 959.273 1294.98 951.804 1300.75 958.856 1314.03 C 954.252 1313.81 931.787 1308.15 925.854 1306.89 C 887.053 1298.64 854.796 1293.57 815.05 1300.37 C 751.88 1311.79 695.599 1347.26 658.038 1399.31 z" fill="rgb(137,212,234)" transform="translate(0,0)"></path>
<path d="M 475.522 572.573 C 485.828 572.823 492.533 572.987 502.585 575.294 C 494.194 594.636 481.174 613.726 471.192 632.814 C 445.027 682.066 419.943 731.885 395.957 782.235 C 380.758 778.392 365.687 777.519 350.194 780.184 C 332.608 783.209 324.286 796.844 314.889 810.351 C 302.982 827.467 291.908 845.194 280.229 862.508 L 267.682 881.259 C 271.071 855.964 276.972 828.459 281.98 803.25 C 286.264 781.69 290.329 756.393 295.634 735.321 C 325.055 709.677 368.012 702.2 405.533 698.402 C 417.136 687.431 464.443 593.161 475.522 572.573 z" fill="rgb(215,213,226)" transform="translate(0,0)"></path>
<path d="M 1334.43 1275.7 C 1341.51 1276.39 1343.37 1276.46 1347.78 1282.08 C 1306.69 1403.92 1245.72 1537.19 1124.97 1599.06 C 1058.31 1633.22 961.685 1635.35 892.206 1610.05 C 854.49 1596.32 823.713 1582.86 789.034 1561.64 C 769.826 1549.89 749.132 1536.53 729.686 1525.64 C 701.203 1509.34 671.269 1495.71 640.269 1484.94 L 640.374 1484.52 C 642.269 1482.57 644.524 1483.28 648.229 1483.14 C 704.368 1493.97 752.742 1527.56 801.593 1554.96 C 833.366 1572.78 864.164 1586.27 899.332 1596 C 981.128 1618.54 1068.51 1607.91 1142.52 1566.42 C 1249.22 1505.36 1303.55 1389.88 1334.43 1275.7 z" fill="rgb(137,212,234)" transform="translate(0,0)"></path>
<path d="M 508.08 578.472 C 513.367 580.853 517.877 582.963 523.045 585.643 C 509.7 604.993 497.485 630.424 486.358 651.459 C 476.157 670.743 463.428 692.498 455.152 712.319 C 464.414 738.251 479.026 764.907 488.084 790.601 C 486.998 795.226 485.358 799.665 483.861 804.167 C 476.024 827.744 467.275 851.092 460.305 874.945 C 438.42 885.299 414.51 899.964 393.44 912.357 L 380.639 919.313 C 396.708 892.002 413.732 867.597 429.825 840.897 C 425.973 819.556 415.942 800.136 399.81 785.617 C 422.656 739.442 446.129 693.579 470.221 648.042 C 482.777 624.601 495.86 602.254 508.08 578.472 z" fill="rgb(215,213,226)" transform="translate(0,0)"></path>
<path d="M 290.777 1547.09 C 318.678 1563.19 362.533 1581.33 392.166 1594.81 C 431.992 1612.94 473.441 1631.28 513.834 1648.03 C 513.368 1657.92 514.369 1669.65 515.062 1679.64 C 498.432 1676.08 481.956 1670.74 465.554 1667.06 C 431.823 1659.49 398.176 1651.65 364.498 1643.92 C 342.069 1638.77 315.533 1631.67 293.036 1628.6 C 292.751 1606.09 291.046 1583.62 290.613 1561.11 C 290.523 1556.43 290.259 1551.76 290.777 1547.09 z" fill="rgb(215,213,226)" transform="translate(0,0)"></path>
<path d="M 821.468 1242.42 C 870.707 1238.82 953.996 1253.13 1000.76 1267.58 C 1048.41 1282.32 1100.34 1303.09 1151.34 1305.65 C 1145.99 1324.35 1137.67 1341.94 1129.16 1359.34 C 1118.48 1349.92 1107.23 1343.62 1095.19 1336.1 C 1044.58 1304.48 975.049 1275.95 916.694 1263.53 C 822.494 1240.28 680.286 1262.99 652.633 1374.91 C 650.825 1382.23 653.963 1407.28 646.363 1408.15 C 642.679 1404.68 643.145 1400.06 642.749 1395.01 C 639.989 1359.83 649.682 1331.1 673.327 1304.54 C 712.001 1261.11 764.751 1245.2 821.468 1242.42 z" fill="rgb(247,139,151)" transform="translate(0,0)"></path>
<path d="M 604.104 293.882 C 609.338 296.182 603.658 311.793 602.129 315.793 C 594.224 319.366 586.568 322.719 580.134 328.66 C 562.063 345.316 562.211 377.668 579.68 394.706 C 600.58 415.09 633.105 413.126 652.259 391.587 C 663.376 379.086 666.239 365.486 665.427 349.463 C 670.092 341.567 672.544 337.48 678.239 330.416 C 699.873 381.642 670.522 434.887 613.635 442.021 C 607.652 442.771 598.881 441.308 592.783 440.626 C 586.103 452.441 579.304 466.01 572.895 478.115 C 568.615 486.205 564.1 494.169 559.357 501.996 L 546.447 491.587 C 551.753 482.37 584.471 424.658 585.681 418.527 L 584.003 416.961 L 581.744 417.072 C 576.284 421.277 546.139 478.322 540.344 489.183 L 526.087 481.318 C 531.373 470.587 550.623 432.461 556.207 425.428 C 529.105 395.779 533.384 350.178 558.668 320.926 C 570.76 306.937 587.538 300.721 604.104 293.882 z" fill="rgb(215,213,226)" transform="translate(0,0)"></path>
<path d="M 676.833 1523.84 C 682.618 1524.76 699.202 1534.61 705.144 1538.1 C 684.066 1555.72 657.967 1574.57 635.902 1591.54 L 541.211 1665.82 L 524.125 1679.18 C 523.681 1667.65 522.912 1656.36 524.075 1644.88 C 536.308 1634.04 550.648 1624.55 563.129 1613.96 C 600.059 1582.62 639.632 1554.77 676.833 1523.84 z" fill="rgb(215,213,226)" transform="translate(0,0)"></path>
<path d="M 568.722 1421.84 C 577.825 1426.99 582.489 1428.72 592.363 1432.2 C 568.638 1451.29 553.153 1461.76 539.983 1489.46 C 552.317 1491.93 553.895 1492.4 566.317 1489.79 C 557.63 1497.22 545.957 1507.44 536.102 1513.23 C 533.897 1514.53 533.138 1513.62 530.691 1512.72 C 514.935 1508 491.825 1495.53 476.878 1487.88 C 500.608 1463.55 538.682 1437.61 568.722 1421.84 z" fill="rgb(137,212,234)" transform="translate(0,0)"></path>
<path d="M 1286.11 1487.64 L 1287.21 1488.04 C 1292.09 1504.91 1299.63 1537.1 1301.73 1554.64 C 1312.16 1612.58 1310.2 1681.44 1293.36 1738.21 C 1287.88 1756.71 1278.43 1775.38 1269.48 1792.34 C 1241.86 1835.58 1221.66 1852.75 1179.39 1881.34 C 1169.74 1887.66 1159.67 1893.31 1149.24 1898.25 C 1150.03 1897.03 1172.14 1881.58 1175.01 1879.42 C 1191.44 1865.5 1210.15 1848.4 1223.92 1831.8 C 1288.7 1753.73 1307.51 1657.63 1299.49 1558.83 C 1297.37 1533.27 1291.13 1512.38 1286.11 1487.64 z" fill="rgb(137,212,234)" transform="translate(0,0)"></path>
<path d="M 880.762 1322.74 C 887.023 1323.63 896.88 1323.98 900.939 1328.51 C 900.189 1338.15 870.896 1356.53 862.602 1362.99 C 834.569 1384.83 803.716 1405.93 776.527 1428.67 C 766.96 1425.75 756.444 1422.82 747.267 1419.03 C 753.124 1414.9 759.018 1410.82 764.95 1406.8 L 764.967 1405.58 L 766.68 1402.54 C 773.785 1403.88 775.084 1402.45 781.118 1398.21 C 814.952 1374.41 852.436 1353.22 880.762 1322.74 z" fill="rgb(241,217,214)" transform="translate(0,0)"></path>
<path d="M 433.764 1525.97 C 442.514 1531.43 481.473 1545.02 493.228 1549.39 C 484.332 1558.05 467.451 1571.14 457.116 1580.12 C 455.154 1581.63 453.143 1583.42 450.512 1582.45 C 434.69 1576.66 410.691 1567.29 401.265 1553.11 C 411.908 1545.34 423.963 1534.71 433.764 1525.97 z" fill="rgb(137,212,234)" transform="translate(0,0)"></path>
<path d="M 894.862 1351.34 C 896.1 1354.22 895.096 1372.43 894.969 1376.84 C 867.126 1397.85 841.409 1422.22 811.684 1442.18 L 797.369 1436.02 L 785.834 1431 C 823.631 1404.93 857.658 1377.11 894.862 1351.34 z" fill="rgb(215,213,226)" transform="translate(0,0)"></path>
<path d="M 473.305 1362.39 C 478.99 1361.97 494.814 1360.79 495.05 1368.63 C 487.215 1376.22 451.837 1399.01 441.138 1404.6 C 438.166 1406.15 422.166 1409.51 417.887 1410.42 C 411.073 1411.23 396.626 1413.7 393.902 1405.68 C 397.999 1382.52 452.603 1364.59 473.305 1362.39 z" fill="rgb(215,213,226)" transform="translate(0,0)"></path>
<path d="M 770.426 1347.98 C 779.322 1350.96 803.852 1361.04 812.908 1364.91 C 811.279 1373.27 773.673 1392.04 766.68 1402.54 L 764.967 1405.58 C 762.455 1403.16 759.996 1398.4 758.136 1397.12 C 747.416 1389.72 733.118 1384.9 720.977 1379 C 738.173 1367.5 752.858 1358.66 770.426 1347.98 z" fill="rgb(137,212,234)" transform="translate(0,0)"></path>
<path d="M 759.309 1355.78 C 764.439 1358.58 786.046 1367.75 786.284 1373.35 C 778.329 1371.53 765.599 1366.48 759.23 1361.25 C 757.935 1357.98 758.161 1359.73 759.309 1355.78 z" fill="rgb(59,62,115)" transform="translate(0,0)"></path>
<path d="M 750.818 1342.58 C 754.791 1344.36 755.655 1344.91 759.264 1347.41 C 751.345 1352.32 716.613 1372.9 712.311 1378.03 C 712.071 1379.74 711.516 1380.72 712.641 1381.55 C 723.32 1389.45 744.982 1396.22 757.033 1402.01 C 750.357 1408.96 746.164 1411.84 738.186 1417.38 C 706.177 1412.25 699.406 1407.62 665.098 1407.97 C 694.777 1378.79 713.342 1361.94 750.818 1342.58 z" fill="rgb(241,217,214)" transform="translate(0,0)"></path>
<path d="M 686.252 1408.03 C 688.569 1403.79 693.492 1392.55 697.44 1390.98 L 699.124 1391.71 L 700.124 1394.66 C 706.804 1395.12 730.306 1405.97 735.353 1410.71 L 735.6 1412.58 C 726.928 1414.85 706.792 1403.69 699.388 1398.9 C 695.042 1401.99 690.663 1405.03 686.252 1408.03 z" fill="rgb(59,62,115)" transform="translate(0,0)"></path>
<path d="M 376.54 1503.81 C 382.294 1503.79 418.492 1518.95 425.356 1522.23 C 418.013 1529.98 397.872 1545.81 389.083 1553.07 C 387.382 1554.02 386.915 1554.02 385.027 1554.6 C 374.518 1553.07 348.722 1539.32 340.506 1531.82 C 349.12 1522.61 366.033 1510.95 376.54 1503.81 z" fill="rgb(137,212,234)" transform="translate(0,0)"></path>
<path d="M 1911.64 1399.27 C 1913.39 1399.51 1919.27 1400.3 1919.74 1402.32 C 1922 1413.29 1921.16 1427.1 1920.03 1438.43 C 1918.75 1451.19 1920.42 1483.06 1899.42 1472.85 C 1877.96 1454.2 1881.59 1403.97 1911.64 1399.27 z" fill="rgb(137,212,234)" transform="translate(0,0)"></path>
<path d="M 463.959 1437.71 C 470.123 1438.07 500.738 1447.98 510.349 1450.3 C 496.827 1461.51 483.401 1472.83 470.074 1484.26 C 468.55 1483.92 469.162 1484.14 467.685 1483.46 C 453.79 1477.05 439.129 1472.17 424.672 1467.15 C 437.588 1457.1 450.686 1447.28 463.959 1437.71 z" fill="rgb(215,213,226)" transform="translate(0,0)"></path>
<path d="M 562.689 1370.65 C 572.3 1378.16 590.73 1386.63 602.169 1392.2 C 592.597 1399.21 582.472 1406.91 572.494 1413.2 C 567.234 1416.52 565.463 1417.5 559.783 1416.02 C 545.126 1411.86 531.235 1406.92 516.888 1401.81 C 532.222 1391.58 548.134 1381.83 562.689 1370.65 z" fill="rgb(137,212,234)" transform="translate(0,0)"></path>
<path d="M 473.585 1493.42 C 480.689 1497.3 487.578 1501.09 494.858 1504.65 C 498.14 1506.96 500.354 1508.22 503.879 1510.18 C 499.165 1515.05 494.372 1519.46 491.048 1525.34 L 491.499 1526.46 C 503.828 1522.98 506.378 1514.78 511.571 1512.34 C 515.275 1515.4 520.719 1517.6 525.166 1519.71 C 516.379 1527.67 507.422 1535.45 498.299 1543.04 C 487.638 1540.02 456.677 1526.68 444.369 1522.06 C 452.585 1513.16 464.675 1502.07 473.585 1493.42 z" fill="rgb(215,213,226)" transform="translate(0,0)"></path>
<path d="M 420.222 1471.88 C 435.505 1478.2 450.832 1482.77 466.131 1489.5 C 461.709 1494.21 440.775 1514.57 436.078 1515.94 C 419.943 1510.71 403.072 1505.53 387.371 1499.29 C 393.675 1491.26 411.591 1478.44 420.222 1471.88 z" fill="rgb(215,213,226)" transform="translate(0,0)"></path>
<path d="M 511.451 1405.88 C 515.126 1406.49 547.876 1419.53 554.504 1421.94 C 546.894 1425.99 522.229 1443.21 516.735 1444.44 C 501.826 1439.98 486.811 1435.89 471.703 1432.16 C 483.406 1425.33 499.924 1413.55 511.451 1405.88 z" fill="rgb(215,213,226)" transform="translate(0,0)"></path>
<path d="M 1587.37 1280.07 C 1629.31 1284.22 1663.73 1271.08 1699.94 1249.62 C 1705.27 1246.46 1711.94 1238.21 1717.82 1237.47 C 1690.59 1275.39 1637.34 1293.46 1593.18 1301.17 C 1591.53 1295.06 1589.35 1285.82 1587.37 1280.07 z" fill="rgb(137,212,234)" transform="translate(0,0)"></path>
<path d="M 605.54 1345.05 C 613.933 1349.18 619.305 1351.08 628.306 1353.12 C 627.686 1355.85 626.984 1358.55 626.201 1361.24 C 622.392 1365.1 620.4 1364.06 618.218 1366.37 L 618.793 1370.19 C 623.489 1372.52 622.341 1371.12 624.36 1375.24 C 624.307 1378.25 624.18 1380.2 622.361 1382.75 L 615.845 1379.85 C 614.582 1384.69 614.352 1384.82 610.922 1388.63 C 604.631 1388.89 574.141 1371.66 567.796 1367.48 C 580.594 1359.53 592.357 1352.3 605.54 1345.05 z" fill="rgb(137,212,234)" transform="translate(0,0)"></path>
<path d="M 1871.75 1246.63 C 1876.8 1250.53 1898.83 1299.68 1900.77 1308.19 C 1898.98 1311.2 1899 1310.41 1894.99 1312.14 C 1867.5 1311.6 1857.62 1266.84 1871.75 1246.63 z" fill="rgb(137,212,234)" transform="translate(0,0)"></path>
<path d="M 623.271 1383.6 C 625.013 1387.18 630.33 1408.94 630.34 1412.25 C 626.422 1413.86 623.177 1413.36 618.749 1415.81 C 616.22 1417.22 601.98 1427.17 600.496 1426.89 C 592.786 1425.44 583.105 1421.8 575.694 1419.08 C 580.375 1415.89 609.147 1396.6 611.455 1393.74 C 614.994 1391.5 620.017 1386.58 623.271 1383.6 z" fill="rgb(215,213,226)" transform="translate(0,0)"></path>
<path d="M 798.088 1332.5 C 804.379 1335.64 832.59 1348.5 835.731 1352.33 C 833.72 1354.07 831.3 1355.93 829.654 1357.93 C 826.745 1360.12 823.824 1362.29 820.891 1364.44 L 810.926 1354.56 C 796.437 1353.29 789.458 1349.44 776.493 1343.39 C 783.368 1340.39 790.315 1335.93 798.088 1332.5 z" fill="rgb(137,212,234)" transform="translate(0,0)"></path>
<path d="M 537.855 646.086 C 534.614 639.996 524.562 626.313 525.798 621.186 L 527.714 621.102 C 537.428 627.359 586.498 678.466 567.732 688.672 C 561.113 682.963 549.191 642.371 540.27 638.591 L 538.826 639.194 C 537.719 642.518 538.1 641.556 539.195 645.572 L 537.855 646.086 z" fill="rgb(137,212,234)" transform="translate(0,0)"></path>
<path d="M 523.779 1563.84 L 554.429 1575.04 C 550.225 1579.12 545.564 1583.3 541.247 1587.31 L 539.226 1589.18 C 534.957 1589.77 519.368 1578.63 514.856 1575.68 C 518.394 1570.01 519.296 1568.8 523.779 1563.84 z" fill="rgb(137,212,234)" transform="translate(0,0)"></path>
<path d="M 1332.43 1418.81 C 1337.34 1418.32 1349.29 1425.19 1354.14 1427.7 C 1356.87 1436.25 1359.14 1445.04 1361.48 1453.72 C 1352.15 1449.15 1346.34 1445.95 1337.66 1440.28 L 1332.43 1418.81 z" fill="rgb(137,212,234)" transform="translate(0,0)"></path>
<path d="M 439.097 1330.93 C 441.416 1332.71 450.281 1354.1 452.095 1358.24 C 447.899 1360.01 442.979 1361.73 438.668 1363.36 C 435.06 1358.03 429.357 1346.94 426.033 1340.94 C 430.051 1337.62 434.888 1334.12 439.097 1330.93 z" fill="rgb(215,213,226)" transform="translate(0,0)"></path>
<path d="M 805.076 1328.83 C 808.16 1327.42 811.277 1325.92 814.432 1324.71 C 822.035 1328.01 826.701 1329.57 834.861 1331.52 C 839.252 1333.76 847.318 1336.84 852.646 1339.41 C 849.232 1342.35 845.301 1344.71 841.507 1347.17 C 828.688 1341.73 817.166 1335.63 805.076 1328.83 z" fill="rgb(137,212,234)" transform="translate(0,0)"></path>
<path d="M 838.51 1320.39 C 848.913 1318.92 859.869 1320.5 870.03 1322.74 C 866.222 1328.42 864.327 1330.86 859.773 1335.96 C 847.256 1328.6 838.602 1326.14 824.893 1321.57 L 838.51 1320.39 z" fill="rgb(137,212,234)" transform="translate(0,0)"></path>
<path d="M 417.741 1345.81 C 421.822 1348.57 428.305 1361.87 426.521 1366.87 C 426.009 1368.31 422.734 1369.42 421.286 1370.12 C 420.067 1370.08 419.886 1369.85 418.676 1369.39 C 416.163 1364.2 411.196 1355.4 412.623 1349.63 C 412.991 1348.15 416.048 1346.83 417.741 1345.81 z" fill="rgb(255,255,255)" transform="translate(0,0)"></path>
<path d="M 634.246 1328.78 C 635.202 1328.99 634.574 1328.77 635.833 1329.98 C 635.207 1335.04 631.387 1343.65 629.371 1348.72 L 620.683 1344.96 C 618.065 1343.99 614.813 1342.52 612.181 1341.42 C 619.484 1337.55 627.064 1332.96 634.246 1328.78 z" fill="rgb(215,213,226)" transform="translate(0,0)"></path>
<path d="M 766.957 1342.7 C 763.598 1341.91 761.258 1341.64 758.36 1339.74 C 766.909 1334.63 789.962 1326.71 799.918 1326.27 C 786.686 1331.29 780.256 1339.27 766.957 1342.7 z" fill="rgb(241,217,214)" transform="translate(0,0)"></path>
<path d="M 539.195 645.572 C 543.615 650.811 557.891 682.867 561.724 691.153 L 560.858 693.274 C 553.871 680.552 543.908 659.462 537.855 646.086 L 539.195 645.572 z" fill="rgb(104,131,166)" transform="translate(0,0)"></path>
<path d="M 1766.5 1099.03 C 1771.49 1104.56 1775.43 1112.69 1778.51 1119.47 C 1783.24 1126.93 1786.55 1129.93 1785.37 1138.34 C 1779.26 1128.56 1771.54 1110.18 1766.5 1099.03 z" fill="rgb(255,255,255)" transform="translate(0,0)"></path>
<path d="M 613.102 1477.22 C 624.31 1477.99 637.448 1480.04 648.229 1483.14 C 644.524 1483.28 642.269 1482.57 640.374 1484.52 L 640.269 1484.94 C 635.213 1484.28 618.795 1478.97 613.102 1477.22 z" fill="rgb(81,162,221)" transform="translate(0,0)"></path>
<metadata><recraft-signature>{"signed_by": "recraft", "signature_b64": "uKggMFrwO5Ti0DqeoapsWKMQ6u2i8eDXjoPgDmATueZg1Gf3PoewHa+Wmew6Yk/+v930LJQfCVfIPOrYlHt3Dg==", "signing_algo": "Ed25519", "generation_timestamp": 1771192001, "identifier": "48e87e60-3494-4382-929c-198e1768c2ca"}</recraft-signature></metadata></svg>