<svg xmlns="http://www.w3.org/2000/svg" height="1024" preserveAspectRatio="none" style="display: block;" version="1.1" viewBox="0 0 2048 2048" width="1024">
<path d="M 0 0 L 2048 0 L 2048 2048 L 0 2048 L 0 0 z" fill="rgb(255,255,255)" transform="translate(0,0)"></path>
<path d="M 884.935 137.177 C 865.697 109.442 882.006 86.8549 910.717 78.5768 C 976.996 59.4671 1053.37 77.218 1113.71 107.438 C 1167.92 134.589 1215.65 178.486 1248.55 229.361 C 1257.16 242.634 1268.65 260.051 1273.49 274.827 C 1275.52 275.531 1277.54 276.248 1279.56 276.98 C 1305.25 286.299 1325.98 315.623 1305.05 334.69 C 1304.57 335.126 1308.41 344.411 1309.05 345.795 C 1319.45 368.193 1323.3 382.944 1314.42 406.556 C 1330.3 448.695 1374.78 477.19 1375.04 523.244 C 1375.32 571.003 1352.26 614.946 1320.37 648.931 C 1354.42 650.148 1388.02 640.869 1416.62 622.349 C 1438.46 608.198 1451.12 595.506 1468.13 576.038 C 1536.21 498.087 1521.52 421.76 1467.42 340.189 C 1445.23 373.544 1403.61 380.215 1367.99 366.429 C 1334.03 351.742 1330.89 307.851 1343.81 279.315 C 1364.44 233.755 1428.98 194.618 1476.82 221.111 C 1539.91 256.048 1609.02 339.804 1646.4 399.64 C 1662.08 424.311 1675.09 450.579 1685.21 478.001 C 1711.16 549.987 1695.37 624.251 1663.54 691.529 C 1620.19 783.158 1545.35 880.92 1447.2 916.18 C 1445.26 926.899 1445.92 944.989 1445.89 956.674 C 1445.82 975.62 1445.49 994.563 1444.9 1013.5 C 1443.24 1061.32 1438.28 1101.43 1433.09 1148.6 C 1437.42 1155.16 1449.38 1177.29 1455.62 1181 C 1504.51 1210.11 1578.61 1226.03 1629.19 1192.59 C 1648.72 1179.68 1665.02 1152.07 1660.88 1128.66 C 1658.03 1112.53 1650.64 1102.12 1633.43 1099.75 C 1622.01 1098.12 1600.6 1099.93 1599.69 1083.72 C 1600.14 1057.43 1626.06 1048.24 1648.21 1048.31 C 1702.51 1048.46 1732.38 1099.89 1730.07 1149.48 C 1728.31 1191.17 1709.75 1228.75 1679.5 1257.17 C 1647.01 1287.76 1603.61 1304.05 1559.02 1302.37 C 1597.8 1328.77 1630.43 1345.91 1676.46 1357.25 C 1687.29 1359.91 1697.91 1363.73 1709.11 1365.53 C 1784.03 1331.75 1825.05 1267.18 1833.33 1186.24 C 1840.29 1118.24 1822.7 1049.83 1778.75 996.799 C 1741.64 952.032 1673.12 913.135 1613.74 932.067 C 1595.38 936.276 1556.83 960.956 1541.41 941.42 C 1529.44 924.963 1541.67 901.13 1554.48 889.56 C 1593.62 854.204 1650.01 846.572 1701 854.366 C 1770.81 865.035 1835.05 911.701 1875.83 968.974 C 1939.41 1058.26 1959.98 1180.36 1944.71 1287.68 C 1933.99 1360.24 1881.03 1447.04 1822.37 1489.67 C 1840.95 1511.03 1856.96 1533.51 1867.28 1559.79 C 1905.57 1657.33 1895.76 1782.79 1815.92 1857.15 C 1776.12 1894.22 1709.06 1906.52 1753.8 1831.59 C 1768.68 1806.66 1788.13 1783.36 1792.12 1753.96 L 1792.09 1753.96 L 1787.19 1746.98 C 1786.57 1734.48 1784.16 1721.44 1784.2 1708.87 C 1784.22 1701.28 1785.01 1699.99 1790.11 1694.94 C 1789.94 1687.78 1789.63 1682.7 1788.85 1675.58 C 1779.4 1671.54 1776.2 1667.81 1771.91 1657.67 C 1768.12 1648.73 1760.31 1634.06 1759.99 1624.9 C 1759.92 1623.05 1763.63 1613.33 1764.46 1611.11 C 1762.67 1606.64 1760.81 1602.3 1757.76 1598.6 C 1754.75 1596.82 1751.76 1597.24 1748.49 1597.3 C 1738.1 1597.51 1716.03 1574.79 1708.82 1567.2 L 1709.25 1564.55 C 1709.89 1560.67 1710.58 1559.41 1709.36 1555.61 C 1706.01 1555.21 1675.15 1563.32 1669.43 1564.5 C 1625.31 1573.9 1579.62 1573 1535.91 1561.86 C 1450.2 1539.45 1391.64 1489.87 1347.51 1414.48 C 1346.26 1431.22 1341.88 1448.59 1338.21 1464.95 C 1317.12 1558.71 1267.83 1651.85 1281.74 1750.12 C 1287.64 1791.84 1306.28 1829.4 1340.49 1854.88 C 1372.8 1878.95 1408.42 1887.96 1448.26 1882.02 C 1468.2 1879.04 1488.25 1870.45 1503.95 1857.78 C 1570.2 1804.31 1527.4 1725.09 1547.46 1699.87 C 1550.53 1696.02 1556.01 1693.5 1560.88 1693.25 C 1568.48 1692.87 1576.67 1697.23 1582.05 1702.29 C 1599.74 1718.91 1605 1750.65 1605.34 1773.74 C 1606.1 1825.52 1583.26 1875.13 1547.2 1911.66 C 1510.99 1948.35 1457.53 1967.48 1406.57 1967.48 C 1343.69 1967.48 1278.58 1943.83 1233.87 1898.93 C 1213.94 1879.21 1197.81 1855.99 1186.27 1830.44 C 1166.98 1787.99 1156.97 1720.77 1159.72 1674.31 C 1160.78 1656.57 1162.17 1637.16 1163.91 1619.39 C 1165.27 1605.5 1167.99 1592.76 1167.97 1578.41 L 1167.96 1576.65 C 1159.7 1594.13 1153.55 1612.59 1144.29 1630.67 C 1116.95 1684 1080.75 1734.18 1036.65 1774.8 C 976.794 1830.08 897.319 1870.72 815.444 1879.55 C 704.496 1891.51 583.997 1863.47 507.9 1777.14 C 445.489 1706.34 426.482 1627.03 431.229 1535.25 C 404.416 1536.83 386.653 1521.41 381.358 1495.44 C 372 1491.03 366.317 1483 355.967 1486.57 C 346.708 1489.76 329.884 1485.06 321.83 1480.18 C 311.042 1473.65 305.705 1465.54 302.645 1453.34 C 294.967 1450.91 288.368 1449.57 280.474 1447.89 C 257.027 1458.35 227.215 1464.26 212.161 1437.24 L 210.989 1437.6 L 209.047 1438.22 C 161.517 1453.11 144.733 1510.51 156.363 1553.97 C 160.87 1570.81 187.613 1630.56 145.515 1611.34 C 115.239 1597.52 98.4796 1548.78 94.3882 1518.07 C 85.0565 1446.36 126.407 1383.04 193.368 1358.21 C 287.217 1323.41 386.807 1359.41 473.347 1398.05 C 477.238 1392.75 481.817 1384.71 485.839 1378.82 C 497.775 1361.04 511.51 1344.54 526.826 1329.57 C 576.676 1281.5 649.299 1243.64 719.507 1245.97 C 752.447 1247.07 773.765 1253.18 796.299 1276.9 C 802.3 1269.31 822.442 1249.14 830.103 1241.27 C 870.784 1199.44 910.386 1154.32 965.104 1131.03 C 940.409 1112.16 905.936 1119.46 882.983 1137.92 C 877.425 1142.39 871.99 1153.79 865.827 1154.55 C 853.706 1155.95 852.885 1132.54 853.525 1124.37 C 857.081 1078.96 902.653 1052.5 944.106 1049.04 C 985.41 1045.6 1021.04 1058.73 1057.93 1075.11 C 1078.47 1084.23 1096.14 1098.06 1119.03 1099.53 L 1120.47 1098.2 C 1120.62 1096.87 1120.6 1095.78 1120.22 1094.48 C 1110.77 1062.35 989.719 1025.92 958.293 1012.31 C 938.361 1003.68 920.403 992.068 901.371 981.781 C 841.9 1042.98 768.123 1072.63 683.952 1081.49 C 659.877 1082.37 611.728 1090 590.295 1079.68 C 553.878 1062.14 511.828 1012.71 498.102 975.958 C 480.361 928.452 469.934 884.505 461.104 835.402 C 455.793 805.864 449.635 776.568 446.717 747.661 C 427.476 756.455 385.331 765.192 363.854 768.772 C 352.831 770.609 335.181 756.688 326.922 749.036 C 298.069 722.303 267.508 696.603 239.311 669.08 C 238.594 658.709 238.046 648.497 236.464 638.213 C 229.703 632.916 220.712 624.735 217.929 616.306 C 200.552 563.686 185.745 509.716 169.667 456.658 C 164.142 438.423 162.406 421.069 172.707 404.305 C 176.987 397.34 181.201 391.228 189.012 387.792 C 208.807 380.735 231.582 375.751 251.915 370.438 L 416.272 328.518 C 443.179 321.648 470.121 314.915 497.098 308.32 C 555.768 293.812 559.706 290.506 576.263 352.559 C 581.233 370.822 586.086 389.116 590.822 407.441 C 599.481 440.954 608.606 474.597 617.242 508.118 C 618.653 513.067 619.719 526.805 615.738 530.814 C 605.598 541.027 575.671 546.024 562.377 549.539 C 539.275 555.891 516.123 562.059 492.922 568.043 C 439.762 582.052 386.46 595.514 333.024 608.429 C 314.03 612.976 293.91 618.313 274.912 622.272 C 270.704 626.151 267.263 629.055 262.804 632.628 C 257.615 632.956 259.447 632.164 255.467 635.151 L 255.161 636.819 C 258.595 637.673 258.907 636.718 263.02 635.151 L 462.963 584.309 C 478.697 580.155 613.252 542.46 617.808 545.464 C 636.699 557.919 704.05 615.785 716.893 634.797 C 718.425 686.057 713.887 675.858 671.996 689.687 C 657.494 694.474 564.999 716.251 559.574 721.078 C 559.563 723.269 559.528 724.27 560.026 726.433 C 576.925 799.795 596.915 837.153 661.532 877.974 C 690.364 848.477 715.87 832.272 754.57 816.873 C 764.824 812.793 775.525 810.006 785.555 805.974 L 786.709 805.502 C 789.105 800.744 791.638 796.056 794.306 791.445 C 814.035 757.162 843.648 717.076 880.367 701.364 C 893.316 695.824 904.387 692.949 917.898 689.301 C 898.549 669.32 877.924 649.874 858.326 629.798 C 749.151 517.965 690.38 347.099 800.837 212.749 C 764.659 167.531 854.125 140.925 884.935 137.177 z" fill="rgb(59,62,115)" transform="translate(0,0)"></path>
<path d="M 909.723 138.985 C 859.018 98.8254 936.33 87.3409 965.06 87.813 C 1050.52 89.2175 1132.09 124.327 1192.3 184.914 C 1218.58 211.412 1243.65 243.617 1257.48 278.234 C 1252.15 279.895 1247.12 281.268 1242.07 283.666 C 1235.55 288.154 1226.62 293.411 1222.85 300.28 L 1223.43 301.97 C 1230.07 303.656 1260.14 293.172 1268.68 290.715 C 1278.74 291.934 1287.46 297.54 1293.22 305.649 C 1300.74 316.235 1297.63 321.815 1287.06 325.874 C 1266.94 336.419 1222.87 361.896 1206.36 333.264 C 1203.59 328.474 1202.45 318.65 1199.44 315.128 L 1197.57 315.411 C 1195.05 319.828 1195 333.196 1196.49 338.181 C 1199.21 347.301 1202.62 350.576 1209.72 356.126 C 1206.38 403.823 1227.31 459.694 1286.03 435.572 C 1292.79 431.23 1298.21 427.453 1303.72 421.467 C 1312.11 434.845 1320.89 447.97 1330.06 460.824 C 1354 494.711 1363.73 509.418 1355.09 553.4 C 1352.56 566.312 1340.67 596.734 1332.61 606.938 C 1322.68 631.183 1286.66 661.058 1265.24 676.086 C 1261.61 678.631 1246.96 688.561 1246.18 691.645 C 1250.43 692.768 1264.27 688.383 1268.83 686.771 C 1283.25 681.671 1295.68 671.717 1307.43 662.326 C 1314.65 666.882 1326.25 676.69 1332.86 682.482 C 1375.18 719.545 1407.27 768.474 1419.29 823.887 C 1425.38 851.934 1428.15 887.95 1428.09 916.958 C 1410.27 918.258 1393.58 920.469 1375.52 919.87 C 1371.39 919.733 1348.13 918.11 1346.8 918.578 L 1346.37 920.516 C 1349.37 925.222 1364.99 929.018 1370.39 930.055 C 1388.45 933.526 1410.56 926.753 1428.17 922.162 C 1428.27 968.596 1428.5 1025.65 1424.06 1071.29 C 1414.11 1173.79 1383.89 1259.14 1467.37 1343.35 C 1506.88 1382.44 1563.7 1403.01 1618.56 1402.76 C 1677.74 1402.49 1746.44 1376.71 1787.04 1333.39 C 1879.93 1234.24 1872.39 1061.37 1775.16 967.618 C 1730.47 924.532 1676.6 901.291 1614.22 913.443 C 1600.91 916.014 1564.1 936.099 1554.45 928.632 C 1553.5 924.593 1556.03 915.483 1558.56 912.305 C 1602.32 858.151 1696.56 862.291 1753.51 889 C 1872.51 944.809 1932.66 1084.97 1928.55 1211.13 C 1926.92 1261.16 1898.96 1325.43 1871.22 1366.78 C 1829.87 1428.39 1753.94 1477.92 1681.23 1491.82 C 1603.5 1505.91 1523.35 1488.71 1458.25 1443.97 C 1420.33 1418.51 1387.82 1385.8 1362.61 1347.72 C 1358.12 1340.8 1350.5 1329.15 1349.44 1321.34 C 1344.84 1287.32 1339.04 1257.02 1326.25 1224.87 C 1324.25 1219.85 1321.16 1210.73 1316.86 1207.49 L 1315.44 1207.81 C 1314.12 1210.99 1325 1257.85 1326.64 1266.86 C 1344.17 1362.99 1329.41 1452.84 1298.65 1544.56 C 1271.86 1624.46 1243.87 1719.59 1278.01 1802.01 C 1294.15 1841.56 1325.64 1872.88 1365.29 1888.81 C 1403.58 1904.33 1446.45 1904.16 1484.63 1888.34 C 1514.79 1875.66 1538.61 1851.4 1550.72 1821.01 C 1563.13 1790.03 1560.21 1761.1 1557.48 1728.68 C 1556.92 1722 1555.5 1713.85 1561.43 1709.84 C 1564.36 1709.82 1569.64 1713.11 1571.17 1715.21 C 1610.42 1770.87 1578.09 1860.13 1532.61 1902.78 C 1497.4 1935.81 1448.16 1951.66 1400.27 1950.94 C 1290.86 1949.28 1231.58 1876.23 1213.43 1771.3 C 1206.49 1698.26 1218.36 1644.52 1239.9 1575.49 C 1275.03 1462.88 1272.82 1341.45 1229.18 1231.56 C 1226.5 1224.79 1227.69 1209.22 1221.09 1206.15 C 1218.28 1208.35 1218.92 1227.25 1218.61 1232.43 C 1216.3 1271.51 1211.76 1325.27 1201.72 1362.78 C 1200.2 1363.47 1201.12 1363.19 1198.87 1363.27 L 1197.64 1359.84 C 1197.7 1355.79 1198.25 1356.59 1196.57 1353.44 C 1191.66 1353.85 1191.18 1360.93 1190.64 1364.91 C 1181.8 1391.52 1175.68 1419.8 1167.19 1446.84 C 1146.52 1512.72 1126.67 1575.92 1091.32 1635.99 C 1061.92 1685.97 1026.87 1725.42 982.797 1763.86 C 932.22 1807.98 875.025 1846.14 807.976 1860.58 C 678.086 1880.78 533.874 1822.84 476.315 1699.41 C 440.302 1622.18 437.739 1535.34 465.353 1455.4 C 472.791 1434.63 489.121 1399.09 504.508 1382.68 C 519.186 1360.67 548.439 1332.82 569.613 1316.38 C 615.791 1280.51 679.898 1257.13 738.733 1265.36 C 755.101 1267.64 775.799 1275.18 785.324 1289.36 C 792.82 1300.51 798.58 1318.49 796.069 1332.07 C 795.965 1350.12 769.238 1396.02 746.789 1379.15 C 740.145 1374.16 755.047 1345.64 755.676 1335.94 C 758.643 1290.16 698.594 1294.6 670.581 1307.25 C 589.919 1340.07 527.304 1418.91 521.344 1506.99 C 516.403 1580.01 525.546 1631.46 571.814 1689.44 C 661.555 1801.9 820.538 1797.43 923.917 1707.14 C 1004.47 1636.67 1046.96 1533.02 1078.65 1433.26 C 1089.79 1398.2 1098.01 1360.88 1108.42 1325.4 L 1123.46 1273.79 C 1127.65 1259.88 1149.81 1190.18 1141.75 1180.77 C 1137.44 1182.6 1140.44 1186.7 1133.16 1188.94 C 1101.95 1198.56 1077.9 1215.96 1052.68 1236.43 C 1022.25 1260.99 995.07 1289.31 971.775 1320.71 C 905.452 1408.33 857.155 1517.55 767.806 1584.62 C 700.392 1635.22 591.255 1624.12 538.841 1557.53 C 529.522 1545.69 534.621 1502.73 537.523 1488.4 C 585.949 1569.94 678.41 1609.02 754.233 1538.02 C 773.382 1520.09 788.32 1498.88 803.247 1477.49 C 824.136 1447.53 843.651 1416.64 861.729 1384.9 C 896.657 1323.65 935.629 1242.54 987.881 1195.42 C 1009.91 1175.55 1034.32 1161.74 1062.57 1152.85 C 1076.02 1148.62 1089.83 1145.1 1102.88 1139.72 C 1115.95 1134.33 1129.83 1125.78 1135.16 1111.99 C 1138.58 1103.11 1138.23 1092.48 1134.36 1083.81 C 1116.99 1044.94 1008.62 1012.15 970.085 998.225 C 954.68 963.642 966.849 931.783 986.286 901.556 C 994.974 904.136 1032.21 916.525 1038.15 912.897 L 1038.36 911.303 C 1031.14 903.886 1010.7 896.543 1000.7 893.187 C 964.955 881.19 902.613 876.356 868.442 895.064 L 868.509 896.449 C 873.13 898.668 932.028 895.564 946.666 896.846 C 936.697 912.354 908.843 945.825 897.065 959.256 C 830.338 1035.35 745.253 1063.97 646.729 1067.81 C 603.614 1069.49 595.604 1068.57 563.148 1037.69 C 548.725 1023.97 535.063 1009.54 524.986 991.08 C 494.354 934.976 483.811 865.957 472.692 803.623 C 469.783 787.318 465.073 759.846 464.514 744.268 C 485.675 739.43 523.101 730.558 542.371 724.088 C 554.173 783.236 569.502 828.457 618.627 868.758 C 636.491 883.413 651.135 889.811 665.145 909.343 C 671.637 918.318 676.505 928.36 679.529 939.016 C 681.543 945.869 683.579 964.822 685.923 967.785 L 688.21 967.498 C 700.198 954.388 687.747 916.842 680.355 903.389 C 677.668 900.017 674.885 895.793 672.389 892.207 C 698.929 860.823 755.094 827.123 795.693 822.71 C 821.713 784.573 838.851 738.893 886.555 717.142 C 936.247 694.485 983.617 703.452 1032.69 721.405 C 1040.21 723.458 1048.24 726.596 1056.57 728.853 C 1049.58 723.416 1036.41 713.702 1029.11 709.455 C 1007.77 697.024 968.246 686.829 943.341 687.521 C 927.579 675.77 914.51 661.841 900.552 648.184 C 855.232 603.839 812.423 554.501 786.395 496.088 C 768.483 455.89 758.355 412.536 759.579 368.389 C 759.933 355.601 760.108 341.109 763.657 328.744 C 767.846 293.103 789.077 246.192 816.559 222.295 C 821.835 223.162 827.771 224.444 833.076 225.47 C 840.787 226.426 852.66 228.645 858.888 222.69 C 857.021 218.553 842.576 217.206 836.954 214.692 C 825.972 211.186 800.227 199.429 813.27 185.404 C 832.951 164.24 873.18 156.08 899.957 152.286 L 911.105 159.635 C 920.091 164.181 947.291 172.94 956.623 168.564 C 954.535 165.764 947.072 163.445 943.467 161.565 C 931.48 155.312 919.389 148.606 909.723 138.985 z" fill="rgb(247,139,151)" transform="translate(0,0)"></path>
<path d="M 909.723 138.985 C 859.018 98.8254 936.33 87.3409 965.06 87.813 C 1050.52 89.2175 1132.09 124.327 1192.3 184.914 C 1218.58 211.412 1243.65 243.617 1257.48 278.234 C 1252.15 279.895 1247.12 281.268 1242.07 283.666 C 1222.17 232.365 1172.98 184.768 1123.8 155.896 C 1069.85 124.222 987.185 98.4103 923.169 109.192 C 905.613 112.149 905.586 124.39 909.723 138.985 z" fill="rgb(255,255,255)" transform="translate(0,0)"></path>
<path d="M 795.693 822.71 C 821.713 784.573 838.851 738.893 886.555 717.142 C 936.247 694.485 983.617 703.452 1032.69 721.405 C 1029.03 723.678 1014.15 720.284 1008.91 719.703 C 932.971 711.294 871.984 733.036 826.802 796.05 C 815.543 811.753 811.537 823.313 802.644 839.13 C 790.106 843.294 775.568 847.114 763.522 851.593 C 736.94 861.476 698.539 881.599 680.355 903.389 C 677.668 900.017 674.885 895.793 672.389 892.207 C 698.929 860.823 755.094 827.123 795.693 822.71 z" fill="rgb(255,255,255)" transform="translate(0,0)"></path>
<path d="M 504.508 1382.68 C 519.186 1360.67 548.439 1332.82 569.613 1316.38 C 615.791 1280.51 679.898 1257.13 738.733 1265.36 C 755.101 1267.64 775.799 1275.18 785.324 1289.36 C 792.82 1300.51 798.58 1318.49 796.069 1332.07 C 785.367 1308.08 776.59 1292.02 749.876 1283.31 C 675.398 1259.03 596.386 1308.14 539.554 1352.25 C 532.381 1357.82 509.526 1381.49 504.508 1382.68 z" fill="rgb(255,255,255)" transform="translate(0,0)"></path>
<path d="M 1286.03 435.572 C 1292.79 431.23 1298.21 427.453 1303.72 421.467 C 1312.11 434.845 1320.89 447.97 1330.06 460.824 C 1354 494.711 1363.73 509.418 1355.09 553.4 C 1352.56 566.312 1340.67 596.734 1332.61 606.938 C 1330.95 601.027 1342.7 564.774 1344.55 554.008 C 1346.49 542.758 1346.82 531.29 1345.55 519.945 C 1342.41 493.04 1323.33 477.116 1306.17 458.171 C 1300.4 451.787 1292.34 440.623 1286.03 435.572 z" fill="rgb(255,255,255)" transform="translate(0,0)"></path>
<path d="M 899.957 152.286 L 911.105 159.635 C 905.826 161.718 899.756 162.023 894.192 163.53 C 875.188 168.678 839.177 177.279 830.041 196.716 C 829.339 198.235 828.677 199.772 828.054 201.325 C 831.549 207.396 833.899 209.793 836.954 214.692 C 825.972 211.186 800.227 199.429 813.27 185.404 C 832.951 164.24 873.18 156.08 899.957 152.286 z" fill="rgb(255,255,255)" transform="translate(0,0)"></path>
<path d="M 816.559 222.295 C 821.835 223.162 827.771 224.444 833.076 225.47 C 831.972 228.435 826.312 231.348 823.547 233.818 C 793.558 260.601 779.725 292.039 764.894 328.639 L 763.929 328.968 L 763.657 328.744 C 767.846 293.103 789.077 246.192 816.559 222.295 z" fill="rgb(255,255,255)" transform="translate(0,0)"></path>
<path d="M 1268.68 290.715 C 1278.74 291.934 1287.46 297.54 1293.22 305.649 C 1300.74 316.235 1297.63 321.815 1287.06 325.874 C 1284.49 309.932 1279.32 301.918 1268.68 290.715 z" fill="rgb(255,255,255)" transform="translate(0,0)"></path>
<path d="M 999.072 495.094 C 1017.1 493.963 1050.8 511.422 1069.22 518.382 C 1131.18 542.262 1200.26 544.726 1263.3 524.385 C 1285.42 517.247 1333.14 486.24 1334.39 527.055 C 1335.36 559.003 1315.4 588.116 1295.8 610.502 C 1284.68 621.315 1272.22 630.667 1258.74 638.33 C 1181.56 682.413 1035.27 662.49 989.212 579.454 C 979.099 561.221 975.51 534.811 980.694 514.595 C 983.179 504.908 990.703 499.399 999.072 495.094 z" fill="rgb(59,62,115)" transform="translate(0,0)"></path>
<path d="M 1000.63 510.913 C 1019.3 513.579 1041.9 524.712 1060.04 531.833 C 1113.22 553.146 1171.24 559.393 1227.74 549.889 C 1241.98 547.38 1255.34 543.329 1268.93 538.949 C 1277.21 536.282 1311.98 520.271 1317.19 521.394 C 1328.9 534.885 1302.87 580.562 1292.25 592.447 C 1260.46 625.597 1229.39 638.769 1183.5 644.051 C 1150.26 646.759 1106.81 642.899 1075.83 630.053 C 1040.71 615.491 998.341 585.42 994.659 544.117 C 993.668 532.999 993.433 519.768 1000.63 510.913 z" fill="rgb(255,255,255)" transform="translate(0,0)"></path>
<path d="M 1011.41 537.339 C 1014.41 539.11 1023.12 550.095 1026.61 553.56 C 1048.94 575.746 1066.01 577.069 1095.82 579.961 C 1098.49 580.22 1097.75 579.992 1099.51 581.614 L 1098.71 583.747 C 1089.36 585.725 1078.88 586.24 1069.37 586.097 C 1048.92 585.789 1010.52 559.87 1011.41 537.339 z" fill="rgb(59,62,115)" transform="translate(0,0)"></path>
<path d="M 1304.42 535.502 C 1306.11 536.574 1306.65 537.172 1308.16 538.504 C 1311.13 547.351 1306.73 552.782 1301.26 559.481 C 1289.74 573.595 1270.32 584.254 1251.92 583.756 C 1248.87 582.428 1246.93 581.909 1246.4 578.638 C 1249.22 575.65 1258.36 575.138 1264.58 572.705 C 1282.17 565.924 1296.45 552.59 1304.42 535.502 z" fill="rgb(59,62,115)" transform="translate(0,0)"></path>
<path d="M 981.699 302.517 C 987.72 303.276 1005.01 318.277 1011.57 322.898 C 1037.1 340.854 1072.65 357.106 1104.43 356.328 C 1113.57 355.847 1123.37 354.006 1129.6 346.735 C 1136.81 338.31 1134.6 330.548 1134.52 320.972 L 1135.75 320.194 C 1150.14 329.311 1145.98 355.404 1131.02 363.947 C 1131.19 377.543 1129.92 387.641 1126.42 400.663 C 1115.47 434.299 1081.57 457.967 1046.39 445.58 C 1029.25 439.422 1015.24 426.741 1007.4 410.299 C 996.62 387.376 999.338 360.16 1007.86 337.001 C 995.993 327.723 986.179 317.228 981.699 302.517 z" fill="rgb(59,62,115)" transform="translate(0,0)"></path>
<path d="M 1015.63 342.756 C 1021.43 347.091 1029.18 351.134 1035.61 354.723 C 1003.95 411.723 1072.72 452.048 1074 368.724 C 1091.55 370.804 1099.83 371.708 1117.15 368.719 L 1116.68 379.169 C 1112.84 399.084 1106.33 417.76 1087.65 428.342 C 1053.59 447.64 1016.69 417.268 1012.3 382.681 C 1010.34 367.217 1011.28 357.721 1015.63 342.756 z" fill="rgb(255,255,255)" transform="translate(0,0)"></path>
<path d="M 1270.06 924.994 C 1271.76 924.76 1270.84 924.688 1272.79 925.545 C 1271.84 929.665 1264.88 934.37 1261.26 936.594 C 1218.76 962.678 1142.4 960.016 1098.73 938.585 C 1092.18 935.1 1090.31 933.757 1084.49 929.181 C 1097.94 931.32 1111.99 935.777 1125.58 937.652 C 1180.87 945.277 1218 944.814 1270.06 924.994 z" fill="rgb(59,62,115)" transform="translate(0,0)"></path>
<path d="M 1318.02 952.273 C 1321.02 953.432 1321.18 954.349 1322.5 957.279 C 1341.42 999.318 1341.22 1104.31 1325.42 1145.25 C 1323.21 1148.82 1324.64 1147.72 1321.52 1149.46 C 1318.96 1146.67 1320.44 1138.01 1321.13 1134.11 C 1332.05 1072.23 1320.5 1013.53 1318.02 952.273 z" fill="rgb(59,62,115)" transform="translate(0,0)"></path>
<path d="M 1220.25 731.661 C 1234.8 731.518 1259.8 761.346 1267.51 772.37 C 1283.53 795.264 1309.17 855.776 1303.98 883.411 L 1302.89 883.495 C 1300.73 881.261 1295.11 863.019 1293.84 859.103 C 1282.58 824.602 1268.48 791.739 1245.98 762.928 C 1239.21 754.272 1224.36 740.9 1220.25 731.661 z" fill="rgb(59,62,115)" transform="translate(0,0)"></path>
<path d="M 992.96 454.193 C 1013.26 453.14 1031.22 454.951 1043.4 474.129 C 1047.01 479.812 1052.46 491.712 1050.91 498.523 C 1048.56 501.341 1049.96 500.789 1046.98 501.118 C 1044.53 499.421 1034.04 481.853 1027.32 476.416 C 1016.15 467.372 1013.61 465.706 999.254 466.052 C 961.629 471.466 949.889 505.875 945.888 506.279 C 943.899 500.955 949.301 488.763 952.188 483.69 C 961.54 467.257 975.229 459.02 992.96 454.193 z" fill="rgb(59,62,115)" transform="translate(0,0)"></path>
<path d="M 1010.37 271.299 C 1043.52 268.17 1063.85 282.975 1088.73 303.179 C 1093.03 306.666 1103.64 315.789 1104.06 321.279 L 1101.71 321.408 C 1074.03 308.323 1048.25 288.76 1019.08 278.683 C 1014.61 277.137 1010.17 276.798 1005.63 274.943 C 1006.44 272.551 1007.27 272.889 1010.37 271.299 z" fill="rgb(59,62,115)" transform="translate(0,0)"></path>
<path d="M 1275.91 971.733 L 1277.44 972.931 C 1278.25 976.289 1277.55 978.229 1275.92 981.258 C 1267.53 996.853 1243.26 1021.46 1226.29 1026.41 L 1224.02 1022.99 C 1224.26 1020.91 1224.32 1020.07 1225.67 1018.37 C 1229.59 1013.42 1235.31 1009.1 1239.97 1004.75 L 1275.91 971.733 z" fill="rgb(59,62,115)" transform="translate(0,0)"></path>
<path d="M 1354.83 960.845 C 1368.21 965.335 1382.47 974.407 1393.08 983.676 C 1398.47 988.376 1403.94 993.339 1404.46 1000.81 C 1391.71 998.821 1370.71 981.869 1361.48 973.025 C 1357.21 968.932 1354.92 966.909 1354.83 960.845 z" fill="rgb(59,62,115)" transform="translate(0,0)"></path>
<path d="M 1288.6 1086.38 C 1289.78 1086.26 1290.43 1086.66 1291.51 1087.09 L 1291.95 1089.59 C 1290.98 1092.48 1289.9 1094.24 1287.48 1096.08 C 1277.18 1103.9 1265.2 1103.53 1253.13 1101.59 C 1250.79 1100.63 1249.59 1100.06 1248.03 1098.02 L 1248.36 1095.97 C 1254.88 1090.49 1279.6 1087.62 1288.6 1086.38 z" fill="rgb(59,62,115)" transform="translate(0,0)"></path>
<path d="M 1360.18 1084.07 C 1360.91 1084.02 1361.63 1083.99 1362.36 1083.97 C 1369.12 1083.75 1384.3 1082.09 1389.32 1086.84 C 1389.49 1089.69 1388.52 1090.17 1386.81 1092.37 C 1384.39 1093.49 1382.02 1094.57 1379.33 1094.76 C 1372.66 1095.23 1365.25 1094.34 1360.01 1089.98 C 1358.83 1087.14 1359.18 1087.02 1360.18 1084.07 z" fill="rgb(59,62,115)" transform="translate(0,0)"></path>
<path d="M 1362.52 341.892 C 1336.62 311.935 1363.64 264.349 1392.37 246.657 C 1414.36 233.114 1429.99 226.295 1456 231.627 C 1517.38 247.488 1605.17 366.282 1636.4 419.248 C 1673.5 482.186 1689.78 537.884 1670.76 610.181 C 1649.11 692.44 1593.47 768.548 1519.62 811.133 C 1502.63 820.706 1484.84 828.774 1466.45 835.244 C 1458.55 837.984 1446.92 841.077 1439.77 844.027 C 1427.87 775.682 1405.02 729.167 1355.42 680.008 C 1349.19 675.23 1342.92 670.513 1336.59 665.856 C 1353.03 664.013 1362.48 662.101 1378.72 657.876 C 1432.26 643.952 1481.22 598.003 1507.83 550.228 C 1537.43 497.084 1535.46 459.593 1519.58 403.305 C 1517.59 399.461 1515.5 394.125 1513.8 390.01 C 1504.23 366.848 1491.91 346.828 1478.06 325.983 C 1479.35 324.117 1480.58 322.209 1481.74 320.261 C 1488.73 308.384 1491.07 292.701 1491.63 279.126 C 1491.76 275.999 1490.14 265.239 1487.45 263.707 C 1486.1 270.65 1483.41 285.153 1480.49 290.945 C 1475.37 301.102 1467.82 309.519 1461.35 318.765 C 1454.45 328.626 1448.17 344.453 1435.67 348.34 C 1433.2 348.089 1430.69 346.509 1429.01 344.736 C 1417.92 333.004 1426.56 318.211 1426.5 307.788 C 1423.08 306.884 1424.74 306.797 1421.36 308.23 C 1418.07 311.958 1416.58 315.709 1415.81 320.607 C 1413.11 337.802 1415.19 339.948 1424.47 353.502 C 1416.42 355.187 1397 358.196 1389.85 353.639 C 1382.55 348.977 1381.54 341.864 1379.32 334.047 C 1381.55 326.936 1384.32 324.387 1383.32 316.588 L 1381.66 316.029 C 1376.75 320.113 1374.71 324.884 1372.1 330.477 C 1372.56 338.717 1374.22 344.889 1376.08 352.945 C 1370.17 348.801 1367.51 347.124 1362.52 341.892 z" fill="rgb(247,139,151)" transform="translate(0,0)"></path>
<path d="M 1519.58 403.305 C 1524.27 406.193 1530.47 427.482 1531.88 433.461 C 1556.7 538.497 1477.79 652.558 1374.37 676.522 C 1368.12 678 1361.79 679.163 1355.42 680.008 C 1349.19 675.23 1342.92 670.513 1336.59 665.856 C 1353.03 664.013 1362.48 662.101 1378.72 657.876 C 1432.26 643.952 1481.22 598.003 1507.83 550.228 C 1537.43 497.084 1535.46 459.593 1519.58 403.305 z" fill="rgb(255,255,255)" transform="translate(0,0)"></path>
<path d="M 1362.52 341.892 C 1336.62 311.935 1363.64 264.349 1392.37 246.657 C 1414.36 233.114 1429.99 226.295 1456 231.627 C 1450.63 235.025 1442.25 237.582 1436.5 240.339 C 1404.7 255.568 1375.36 271.639 1367.76 309.097 C 1364.19 323.118 1364.64 330.144 1362.52 341.892 z" fill="rgb(255,255,255)" transform="translate(0,0)"></path>
<path d="M 530.24 340.277 L 531.634 341.11 C 535.73 350.368 543.63 382.167 546.943 394.261 C 559.428 439.449 571.217 484.827 582.306 530.379 C 545.236 537.524 508.24 549.706 471.627 558.328 C 415.897 571.454 360.475 585.107 304.913 598.94 C 296.169 601.117 285.101 606.197 276.203 606.53 L 274.882 604.946 C 256.214 542.363 236.813 482.84 217.364 420.631 C 230.913 417.936 248.342 412.643 261.925 408.976 L 339.807 388.116 C 403.157 371.663 466.636 355.716 530.24 340.277 z" fill="rgb(255,255,255)" transform="translate(0,0)"></path>
<path d="M 392.264 395.827 C 399.485 393.461 415.132 388.266 419.574 396.36 C 419.7 399.973 418.354 402.11 416.881 405.441 C 424.848 408.045 432.264 411.034 440.577 411.601 L 447.337 401.807 C 452.824 405.097 464.753 410.238 462.823 417.549 C 461.433 418.733 456.137 423.11 457.385 424.969 C 459.687 428.397 467.298 444.807 469.854 446.699 C 473.878 446.436 476.651 445.761 480.137 447.613 C 483.606 451.565 484.411 458.638 481.462 462.915 C 478.073 463.043 476.976 462.753 474.369 464.899 C 470.672 472.02 471.728 478.574 471.939 486.695 C 475.662 487.164 476.922 487.443 480.542 488.469 C 487.455 494.204 483.071 505.886 477.165 507.583 C 472.294 505.944 469.879 503.396 465.914 500.106 C 461.257 506.928 455.943 512.054 450.381 518.124 L 451.172 519.075 C 466.575 531.145 455.156 541.867 445.334 536.463 C 443.455 533.288 443.598 532.957 442.944 529.419 L 440.418 527.723 C 434.641 527.716 427.25 531.042 421.563 533.147 C 421.379 536.888 421.387 540.209 420.447 543.849 C 416.146 546.49 413.392 549.289 408.574 547.221 C 406.149 543.593 406.118 538.179 405.291 533.425 C 403.066 532.049 390.395 529.709 383.642 526.801 C 377.251 542.713 374.123 541.063 362.91 530.494 C 366.266 524.625 368.003 522.478 373.455 518.543 L 372.795 518.114 C 367.849 514.83 354.884 502.166 351.903 501.962 C 348.771 503.347 346.732 504.733 343.447 504.168 C 338.42 500.823 337.512 494.885 335.795 489.055 C 339.898 487.42 343.912 486.354 348.147 485.125 C 346.353 476.062 345.984 472.554 345.777 463.36 C 341.316 462.649 336.837 462.582 334.779 457.855 C 331.997 451.464 332.933 447.354 339.464 444.235 C 343.471 443.788 346.221 445.259 350.073 446.671 C 353.232 440.215 359.616 429.518 364.141 424.006 C 359.94 421.766 356.036 420.129 352.807 416.71 C 352.88 411.061 359.768 405.937 365.15 406.314 C 369.978 406.653 372.146 411.068 374.593 414.596 C 381.903 412.178 389.558 408.744 396.699 405.716 L 392.264 395.827 z" fill="rgb(56,173,206)" transform="translate(0,0)"></path>
<path d="M 403.753 443.218 C 417.726 440.391 431.373 449.328 434.368 463.265 C 437.363 477.202 428.591 490.956 414.691 494.118 C 405.55 496.198 395.996 493.202 389.679 486.274 C 383.363 479.346 381.259 469.557 384.172 460.646 C 387.085 451.734 394.564 445.078 403.753 443.218 z" fill="rgb(255,255,255)" transform="translate(0,0)"></path>
<path d="M 536.851 521.013 C 541.5 522.139 539.587 521.029 542.883 524.336 C 543.816 531.348 538.327 532.034 532.828 532.776 C 530.11 529.386 527.727 528.3 524.968 525.334 L 527.658 523.207 C 530.604 523.821 531.776 525.383 534.188 527.206 C 536.417 525.172 535.936 524.518 536.851 521.013 z" fill="rgb(137,212,234)" transform="translate(0,0)"></path>
<path d="M 535.232 520.334 C 528.273 514.504 532.253 509.603 539.014 506.878 C 539.913 510.677 541.308 514.132 539.741 517.54 C 537.716 519.081 537.519 519.267 535.232 520.334 z" fill="rgb(137,212,234)" transform="translate(0,0)"></path>
<path d="M 1133.21 1196.96 L 1134.19 1197.28 C 1134.57 1198.39 1134.7 1199.23 1134.54 1200.41 C 1132.27 1217.57 1107.12 1308.29 1100.18 1320.86 C 1096.42 1327.68 1081.72 1339.79 1075.58 1346.59 C 1065.7 1357.54 1056.44 1369.33 1047.47 1381.02 C 1025.27 1409.94 1005.28 1440.92 984.442 1470.85 C 954.916 1513.27 924.383 1553.74 889.39 1591.78 C 872.126 1610.54 854.717 1628.85 834.487 1644.49 C 783.416 1683.96 718.681 1714.14 652.798 1705.49 C 641.68 1704.03 630.806 1701.49 620.038 1698.4 C 593.228 1690.68 588.839 1682.11 572.845 1661.12 C 575.519 1661.7 578.355 1662.45 581.082 1662.68 C 584.965 1663 589.234 1660.88 592.175 1658.45 C 595.836 1655.43 597.916 1651.12 598.156 1646.39 C 598.548 1638.65 594.716 1633.45 589.665 1628.07 C 588.54 1627.16 587.39 1626.29 586.215 1625.45 C 575.581 1617.95 559.962 1612.73 547.055 1615.02 C 543.072 1599.62 540.006 1583.97 536.84 1568.38 C 551.736 1586.56 573.743 1600 595.022 1609.4 C 614.287 1617.92 635.401 1622.59 656.347 1624.36 C 789.159 1635.62 869.582 1487.73 931.352 1392.63 C 952.788 1359.64 975.283 1327.03 1000.76 1296.99 C 1036.29 1255.09 1081.72 1217.08 1133.21 1196.96 z" fill="rgb(137,212,234)" transform="translate(0,0)"></path>
<path d="M 996.293 1357.14 C 1001.51 1356.4 1005.98 1356.65 1010.92 1358.73 C 1015.36 1360.61 1018.72 1363.95 1020.38 1368.5 C 1023.62 1377.33 1021.24 1387.44 1017.01 1395.48 C 1010.88 1407.13 1001.9 1415.02 989.428 1419.02 C 985.042 1419.14 980.766 1419.34 976.589 1417.74 C 971.828 1415.91 967.891 1412.6 966.066 1407.75 C 962.998 1399.59 965.121 1390.04 968.727 1382.42 C 974.477 1370.28 983.821 1361.79 996.293 1357.14 z" fill="rgb(59,62,115)" transform="translate(0,0)"></path>
<path d="M 997.333 1365.02 C 1000.18 1364.86 1003.04 1364.73 1005.77 1365.73 C 1008.92 1366.88 1011.94 1368.87 1013.37 1372.01 C 1015.56 1376.86 1014.08 1382.91 1012.15 1387.59 C 1007.68 1398.46 999.533 1406.45 988.849 1411.06 C 986.973 1411.4 985.234 1411.64 983.335 1411.41 C 980.009 1411.03 975.67 1409.58 973.81 1406.63 C 971.023 1402.2 972.036 1396.21 973.472 1391.5 C 977.16 1379.39 986.407 1370.69 997.333 1365.02 z" fill="rgb(137,212,234)" transform="translate(0,0)"></path>
<path d="M 1069.25 1261.13 C 1074.98 1260.65 1079.56 1260.36 1085.02 1262.62 C 1089.4 1264.43 1092.78 1267.38 1094.55 1271.85 C 1097.17 1278.45 1096.04 1286.35 1093.34 1292.74 C 1088.01 1305.34 1077.18 1314.37 1064.72 1319.37 C 1059.6 1319.95 1055.21 1320.49 1050.2 1318.84 C 1045.1 1317.16 1040.7 1314.56 1038.45 1309.46 C 1035.64 1303.12 1036.76 1295.37 1039.22 1289.12 C 1044.77 1275.01 1055.94 1267.05 1069.25 1261.13 z" fill="rgb(59,62,115)" transform="translate(0,0)"></path>
<path d="M 1070.16 1269.22 C 1073.38 1268.78 1076.78 1268.36 1080 1269.04 C 1083.33 1269.74 1086.79 1271.76 1088.22 1274.98 C 1090.05 1279.08 1088.84 1284.42 1087.2 1288.36 C 1082.77 1299.04 1073.37 1307.51 1062.87 1311.94 C 1060.45 1312.07 1057.92 1312.27 1055.5 1312.06 C 1051.93 1311.74 1047.51 1309.67 1045.51 1306.6 C 1043.11 1302.93 1043.91 1297.86 1045.26 1293.96 C 1049.29 1282.33 1059.5 1274.39 1070.16 1269.22 z" fill="rgb(137,212,234)" transform="translate(0,0)"></path>
<path d="M 884.414 1513.16 C 890.062 1512.62 893.818 1512.64 899.127 1514.74 C 903.831 1516.6 907.501 1519.2 909.473 1524 C 912.101 1530.4 911.259 1538.21 908.442 1544.4 C 902.716 1556.97 890.883 1565.41 878.342 1570.19 C 873.703 1571.33 869.849 1570.9 865.257 1569.62 C 860.962 1568.42 857.886 1566.25 855.853 1562.22 C 852.409 1555.38 852.849 1546.7 855.52 1539.69 C 860.622 1526.31 871.757 1518.53 884.414 1513.16 z" fill="rgb(59,62,115)" transform="translate(0,0)"></path>
<path d="M 886.375 1521.06 C 888.836 1520.9 891.302 1520.72 893.72 1521.32 C 897.084 1522.16 900.972 1523.9 902.555 1527.17 C 904.027 1530.21 903.415 1533.92 902.385 1537 C 898.425 1548.81 888.191 1556.66 877.481 1561.96 C 874.46 1562.2 871.808 1562.24 868.89 1561.3 C 865.83 1560.3 862.707 1558.7 861.427 1555.54 C 860.1 1552.27 860.947 1548.34 862.015 1545.13 C 866.182 1532.58 875.102 1526.48 886.375 1521.06 z" fill="rgb(137,212,234)" transform="translate(0,0)"></path>
<path d="M 940.061 1440.27 C 944.071 1439.89 948.284 1439.32 952.257 1440.2 C 958.881 1441.67 962.286 1445.74 965.854 1451.19 C 966.214 1457.65 966.158 1463.55 964.061 1469.75 C 959.547 1483.09 948.924 1490.61 936.753 1496.39 C 932.061 1497.27 927.393 1497.39 922.812 1495.85 C 918.8 1494.51 915.798 1492.18 913.948 1488.32 C 910.72 1481.6 911.568 1472.84 914.154 1466.06 C 919.003 1453.33 927.853 1445.48 940.061 1440.27 z" fill="rgb(59,62,115)" transform="translate(0,0)"></path>
<path d="M 943.387 1448.06 C 946.458 1447.99 948.893 1448.13 951.78 1449.28 C 954.759 1450.47 957.154 1452.48 958.127 1455.66 C 959.371 1459.71 957.905 1464.61 956.223 1468.33 C 951.561 1478.63 943.662 1485.17 933.27 1489.04 C 931.055 1489.03 929.018 1488.67 926.916 1487.98 C 923.924 1487 921.02 1485.05 919.862 1481.99 C 918.546 1478.52 919.297 1474.79 920.517 1471.41 C 924.589 1460.14 932.714 1452.77 943.387 1448.06 z" fill="rgb(137,212,234)" transform="translate(0,0)"></path>
<path d="M 645.885 1643.29 C 653.596 1642.57 662 1643.55 669.188 1646.59 C 675.442 1649.23 681.149 1653.51 683.54 1660.08 C 685.237 1664.74 684.727 1670.06 682.44 1674.43 C 677.972 1682.97 669.605 1686.02 660.934 1688.45 C 651.019 1689.08 642.211 1688.78 633.43 1683.4 C 627.66 1679.87 622.724 1674.32 621.361 1667.55 C 620.36 1662.56 621.321 1657.63 624.39 1653.54 C 629.589 1646.61 637.831 1644.63 645.885 1643.29 z" fill="rgb(59,62,115)" transform="translate(0,0)"></path>
<path d="M 644.398 1650.29 C 650.981 1649.96 657.561 1650.05 663.87 1652.23 C 668.972 1653.99 675.05 1657.35 676.959 1662.77 C 677.889 1665.4 677.521 1667.69 676.344 1670.16 C 673.787 1675.52 667.175 1678.36 662.057 1680.45 C 654.78 1681.84 647.204 1681.68 640.434 1678.45 C 635.705 1676.19 631.032 1672.31 629.392 1667.15 C 628.497 1664.34 628.741 1661.4 630.24 1658.84 C 633.227 1653.73 639.1 1651.93 644.398 1650.29 z" fill="rgb(137,212,234)" transform="translate(0,0)"></path>
<path d="M 827.062 1587.24 C 831.947 1586.85 836.545 1586.86 840.99 1589.22 C 847.119 1592.47 849.325 1598.09 851.36 1604.35 C 850.572 1607.58 849.651 1610.7 848.309 1613.74 C 842.309 1627.37 830.189 1634.65 816.827 1639.54 C 810.42 1640.12 805.011 1640.15 799.186 1637.04 C 795.726 1635.19 793.386 1632.02 792.388 1628.25 C 790.569 1621.38 792.712 1613.6 796.302 1607.66 C 803.424 1595.88 814.178 1590.39 827.062 1587.24 z" fill="rgb(59,62,115)" transform="translate(0,0)"></path>
<path d="M 825.701 1595.1 C 826.855 1594.99 826.648 1594.99 828.053 1594.98 C 832.998 1594.94 837.203 1595.96 840.766 1599.5 C 842.475 1603.23 842.355 1605.85 840.836 1609.65 C 836.564 1620.35 826.625 1626.88 816.586 1631.43 C 812.734 1631.99 808.477 1632.39 804.786 1630.84 C 802.483 1629.87 800.691 1628.6 799.875 1626.14 C 798.686 1622.56 800.076 1618.26 801.576 1614.97 C 806.465 1604.28 815.097 1598.9 825.701 1595.1 z" fill="rgb(137,212,234)" transform="translate(0,0)"></path>
<path d="M 746.155 1632.39 C 751.723 1632.71 756.962 1633.96 761.499 1637.38 C 764.973 1640 766.933 1643.84 767.225 1648.16 C 767.686 1655.01 764.78 1661.5 760.261 1666.51 C 752.457 1675.15 742.295 1678.98 730.869 1679.34 C 725.415 1678.57 720.612 1677.35 716.058 1674.15 C 712.305 1671.52 709.351 1667.85 708.837 1663.16 C 708.171 1657.09 710.687 1651.06 714.449 1646.4 C 722.495 1636.43 734 1633.48 746.155 1632.39 z" fill="rgb(59,62,115)" transform="translate(0,0)"></path>
<path d="M 740.206 1640.22 C 743.867 1639.48 749.68 1640.04 753.016 1641.71 C 755.716 1643.07 757.556 1645.02 758.247 1648.02 C 759.133 1651.87 757.741 1656.02 755.637 1659.23 C 750.958 1666.38 744.271 1668.95 736.259 1670.83 C 731.77 1671.12 727.661 1671.39 723.477 1669.46 C 720.753 1668.2 718.554 1666.09 717.697 1663.15 C 716.506 1659.06 718.022 1654.63 720.387 1651.28 C 725.298 1644.32 732.123 1641.78 740.206 1640.22 z" fill="rgb(137,212,234)" transform="translate(0,0)"></path>
<path d="M 608.215 558.126 C 608.713 558.119 609.213 558.055 609.709 558.103 C 614.463 558.562 692.068 630.018 699.269 638.833 C 692.415 641.619 683.6 643.343 676.217 645.379 C 660.489 649.807 644.711 654.052 628.885 658.114 L 488.033 694.325 C 462.407 700.88 436.775 708.508 411.06 714.886 C 393.254 719.303 378.642 724.495 360.193 725.545 C 352.673 721.165 331.201 701.153 323.209 694.089 C 305.195 678.005 286.855 662.289 268.201 646.951 C 381.956 618.962 495.305 589.351 608.215 558.126 z" fill="rgb(255,255,255)" transform="translate(0,0)"></path>
<path d="M 600.347 569.083 C 601.435 568.924 603.638 568.83 604.317 569.366 C 617.938 580.116 669.18 621.249 675.729 632.557 L 675.118 634.12 C 666.034 640.203 629.746 647.986 617.32 650.691 C 609.448 643.761 601.65 636.621 593.503 630.056 C 578.022 617.58 565.178 609.632 552.059 594.291 L 542.827 596.527 C 559.324 609.29 596.669 635.952 605.788 652.101 C 560.592 665.589 509.001 678.339 463.26 690.588 C 431.135 699.378 399.403 709.243 367.29 717.808 C 351.045 701.01 333.426 686.291 316.333 670.38 C 309.618 664.129 302.761 657.949 295.671 652.127 C 304.566 648.327 321.671 644.301 331.396 641.807 L 394.522 625.749 C 438.913 614.094 483.422 603.744 527.598 591.168 C 552.144 584.181 575.849 576.207 600.347 569.083 z" fill="rgb(59,62,115)" transform="translate(0,0)"></path>
<path d="M 530.139 600.272 C 530.321 600.359 546.092 613.334 547.064 614.125 C 560.029 624.601 573.069 634.983 586.182 645.271 C 571.687 650.089 547.877 655.362 532.331 659.321 C 502.464 666.71 472.77 674.781 443.272 683.526 L 442.555 683.72 C 440.641 683.249 394.814 643.586 387.901 637.855 C 434.572 624.795 483.032 612.877 530.139 600.272 z" fill="rgb(137,212,234)" transform="translate(0,0)"></path>
<path d="M 373.875 638.52 C 379.491 639.778 431.378 683.822 431.811 688.254 L 429.673 688.997 C 425.792 690.495 424.942 690.993 420.892 691.372 C 413.934 683.842 372.36 645.525 371.609 640.828 L 373.875 638.52 z" fill="rgb(137,212,234)" transform="translate(0,0)"></path>
<path d="M 332.623 650.966 C 337.545 650.946 344.331 661.346 347.46 665.339 C 341.445 668.265 336.017 669.815 330.962 674.234 C 323.875 668.273 319.675 664.395 313.393 657.648 C 319.002 655.352 326.734 652.962 332.623 650.966 z" fill="rgb(137,212,234)" transform="translate(0,0)"></path>
<path d="M 351.837 672.202 C 356.77 672.55 365.001 681.275 369.133 685.031 C 363.471 687.886 357.154 690.049 351.187 692.289 C 345.182 687.957 339.645 682.549 334.202 677.49 C 339.321 675.666 346.468 673.774 351.837 672.202 z" fill="rgb(137,212,234)" transform="translate(0,0)"></path>
<path d="M 619.097 618.063 C 625.553 622.612 634.701 630.327 641.153 635.41 L 630.759 637.451 C 626.957 638.177 623.19 638.619 619.356 639.117 C 613.607 634.836 611.777 633.129 606.815 627.926 C 611.738 623.266 613.432 621.841 619.097 618.063 z" fill="rgb(137,212,234)" transform="translate(0,0)"></path>
<path d="M 640.939 607.971 C 649.146 614.42 656.553 621.834 663.823 629.295 L 652.223 631.83 C 648.416 632.166 633.654 619.55 629.514 616.381 L 640.939 607.971 z" fill="rgb(56,173,206)" transform="translate(0,0)"></path>
<path d="M 381.931 663.232 C 383.77 664.143 394.097 673.823 396.342 675.864 L 376.044 681.814 C 373.625 680.146 364.886 671.34 362.265 668.792 L 381.931 663.232 z" fill="rgb(137,212,234)" transform="translate(0,0)"></path>
<path d="M 360.54 645.088 L 363.349 645.057 C 367.527 648.328 371.116 653.171 374.551 657.328 C 369.053 659.882 363.225 661.51 357.432 663.316 L 357.127 663.407 C 353.845 662.19 346.06 652.569 343.127 649.276 C 348.996 648.15 354.749 646.576 360.54 645.088 z" fill="rgb(137,212,234)" transform="translate(0,0)"></path>
<path d="M 375.874 691.026 C 380.657 693.89 383.361 699.738 386.047 704.612 C 380.914 706.865 376.04 709.1 370.481 709.74 C 366.075 706.293 361.637 702.03 357.475 698.229 C 363.556 695.51 369.632 693.336 375.874 691.026 z" fill="rgb(137,212,234)" transform="translate(0,0)"></path>
<path d="M 622.089 590.851 C 628.65 594.34 636.182 602.088 628.94 609.005 C 626.093 610.065 624.384 611.079 621.446 610.484 L 606.778 598.996 C 611.887 595.674 616.62 593.503 622.089 590.851 z" fill="rgb(56,173,206)" transform="translate(0,0)"></path>
<path d="M 401.599 683.024 L 403.441 683.075 C 406.754 685.27 410.612 690.205 413.347 693.364 C 407.906 695.432 401.765 697.417 396.215 699.344 C 392.635 697.844 386.915 691.179 384.03 688.128 L 401.599 683.024 z" fill="rgb(137,212,234)" transform="translate(0,0)"></path>
<path d="M 600.947 602.827 L 614.745 614.097 C 611.11 616.939 607.292 620.321 603.743 623.331 L 601.522 623.794 C 597.971 622.198 593.626 618.134 590.505 615.506 C 594.016 610.936 597.193 607.173 600.947 602.827 z" fill="rgb(56,173,206)" transform="translate(0,0)"></path>
<path d="M 599.887 578.314 C 605.802 577.74 610.084 581.997 615.113 585.565 L 600.365 593.64 C 596.088 591.555 589.293 585.487 585.371 582.232 L 599.887 578.314 z" fill="rgb(56,173,206)" transform="translate(0,0)"></path>
<path d="M 569.541 585.028 C 573.921 584.624 573.881 584.297 576.71 586.289 C 579.586 592.566 577.506 596.773 575.664 603.417 L 574.301 603.983 C 572.114 602.116 569.982 600.186 567.909 598.194 C 564.874 595.282 563.546 593.994 563.443 589.654 C 565.22 586.249 565.217 587.137 569.541 585.028 z" fill="rgb(56,173,206)" transform="translate(0,0)"></path>
<path d="M 581.5 589.106 C 583.334 590.201 583.707 590.735 585.306 592.189 C 585.343 594.672 585.425 597.154 585.552 599.633 L 583.19 601.402 C 585.989 602.424 584.781 602.614 586.994 601.593 C 587.555 599.238 587.759 598.431 588.651 596.194 C 591.463 595.69 590.068 595.795 593.61 598.146 L 593.678 599.329 C 591.366 602.693 582.922 607.518 578.6 605.914 C 578.021 599.976 581.623 595.57 581.5 589.106 z" fill="rgb(137,212,234)" transform="translate(0,0)"></path>
<path d="M 1078.69 1367.77 C 1078.89 1375.91 1073.88 1387.94 1071.58 1395.88 C 1054.05 1456.33 1032.96 1519.29 1003.07 1574.83 C 960.136 1654.63 901.084 1722.43 811.491 1748.92 C 757.608 1765.17 699.467 1759.19 650.016 1732.33 C 641.753 1727.6 633.636 1722.82 625.696 1717.56 C 650.025 1722.17 673.285 1725.35 698.101 1722.74 C 731.916 1719.17 762.473 1707.52 792.277 1691.65 C 805.581 1684.57 818.741 1677.23 831.049 1668.5 C 896.889 1621.81 956.976 1542.92 1002.36 1476.29 C 1027.28 1439.7 1050.76 1402.25 1078.69 1367.77 z" fill="rgb(255,255,255)" transform="translate(0,0)"></path>
<path d="M 112.136 1517.1 C 107.433 1491.62 113.982 1455.9 127.374 1434.28 C 188.555 1335.48 322.982 1355.28 414.954 1392.63 C 430.541 1398.96 448.52 1404.6 462.856 1413.04 C 463.862 1416.11 462.799 1416.54 461.18 1420.47 C 455.139 1434.7 449.256 1448.99 443.533 1463.34 C 429.458 1457.69 416.094 1450.57 402.148 1444.88 C 363.749 1429.36 325.954 1414.69 284.21 1412.02 C 228.829 1408.47 166.906 1421.88 144.678 1479.25 C 128.272 1521.58 136.327 1556.88 152.695 1597.2 C 129.802 1582.01 118.626 1552.18 113.518 1526.28 C 112.936 1523.24 112.475 1520.18 112.136 1517.1 z" fill="rgb(247,139,151)" transform="translate(0,0)"></path>
<path d="M 112.136 1517.1 C 107.433 1491.62 113.982 1455.9 127.374 1434.28 C 188.555 1335.48 322.982 1355.28 414.954 1392.63 C 430.541 1398.96 448.52 1404.6 462.856 1413.04 C 463.862 1416.11 462.799 1416.54 461.18 1420.47 C 363.35 1378.4 179.471 1333.15 123.088 1464.64 C 118.308 1475.78 116.231 1488.01 114.435 1499.88 C 113.611 1505.32 113.848 1512.07 112.136 1517.1 z" fill="rgb(255,255,255)" transform="translate(0,0)"></path>
<path d="M 930.17 1234.47 C 916.749 1254.05 904.001 1274.09 891.948 1294.54 C 886.674 1303.67 880.851 1316.98 875.324 1325.02 C 868.695 1334.66 855.198 1346.38 847.559 1355.44 C 831.199 1374.83 805.575 1402.08 792.647 1423.11 C 789.102 1428.36 786.336 1432.53 783.182 1438.06 C 786.575 1434.16 790.15 1430.18 793.414 1426.2 C 812.374 1402.38 840.549 1373.15 861.644 1350.75 C 848.132 1378.57 830.307 1404.88 813.146 1430.07 C 789.11 1464.05 777.488 1498.56 735.123 1512.72 C 671.848 1533.87 626.326 1528.44 566.473 1500.83 C 568.316 1501.07 570.159 1501.3 572.005 1501.52 C 580.586 1502.61 599.455 1500.51 598.667 1488.57 C 597.352 1468.61 561.153 1465.96 545.919 1464.71 L 550.27 1452.41 C 656.487 1497.69 733.011 1467.31 802.951 1381.12 C 809.328 1373.26 832.128 1352 829.132 1342.93 C 825.466 1341.3 826.578 1341.82 821.995 1342.41 L 819.835 1340.88 C 855.112 1300.02 885.654 1266.6 930.17 1234.47 z" fill="rgb(137,212,234)" transform="translate(0,0)"></path>
<path d="M 755.445 1459.3 C 760.765 1459.21 766.916 1459.55 771.476 1462.71 C 773.522 1464.13 774.753 1465.89 775.074 1468.4 C 775.812 1474.17 771.902 1480.55 768.525 1484.87 C 758.738 1497.4 743.904 1505.38 728.283 1507.49 C 722.089 1507.68 716.949 1507.11 711.476 1503.91 C 709.272 1502.62 707.62 1500.54 707.231 1497.97 C 706.367 1492.26 710.153 1485.61 713.512 1481.3 C 723.488 1468.5 739.753 1461.45 755.445 1459.3 z" fill="rgb(59,62,115)" transform="translate(0,0)"></path>
<path d="M 753.358 1467.2 C 753.671 1467.2 753.985 1467.16 754.297 1467.19 C 758.3 1467.54 763.053 1468.46 765.412 1471.76 C 765.34 1473.93 764.872 1475.4 763.618 1477.2 C 755.925 1488.28 741.012 1495.13 728.248 1497.79 C 725.356 1498.09 721.981 1498.17 719.198 1497.17 C 716.631 1496.26 716.287 1495.94 715.299 1493.61 C 715.69 1491.12 716.419 1489.43 717.897 1487.42 C 726.135 1476.2 739.945 1469.47 753.358 1467.2 z" fill="rgb(137,212,234)" transform="translate(0,0)"></path>
<path d="M 647.883 1483.08 C 657.383 1482.66 666.768 1481.76 675.519 1486.35 C 679.686 1488.53 683.324 1492.07 684.692 1496.67 C 685.765 1500.17 685.211 1503.97 683.181 1507.02 C 679.286 1512.99 671.407 1515.83 664.76 1517.15 C 655.899 1518.85 646.399 1519.59 637.961 1515.76 C 633.305 1513.64 628.901 1509.88 627.368 1504.85 C 626.367 1501.56 626.73 1498.22 628.397 1495.22 C 632.244 1488.3 640.696 1485.05 647.883 1483.08 z" fill="rgb(59,62,115)" transform="translate(0,0)"></path>
<path d="M 650.931 1490.43 C 655.262 1490.03 660.149 1489.55 664.431 1490.46 C 667.94 1491.21 672.77 1493.98 674.182 1497.46 C 675.007 1499.49 674.706 1501.58 673.549 1503.41 C 670.704 1507.91 663.993 1508.82 659.245 1509.82 C 656.429 1510.01 653.581 1510.21 650.763 1509.98 C 646.634 1509.65 640.668 1508.24 638.302 1504.36 C 636.716 1501.76 637.089 1500.83 637.653 1498.03 C 641.014 1493.49 645.575 1491.72 650.931 1490.43 z" fill="rgb(137,212,234)" transform="translate(0,0)"></path>
<path d="M 1930.93 1246.86 C 1926.29 1323.68 1898.34 1381.13 1850.91 1440.28 C 1833.76 1434.07 1822.87 1443.47 1810.25 1454.13 C 1798.4 1464.14 1785.83 1473.5 1792.46 1489.92 C 1781.32 1497.52 1769.8 1504.57 1757.96 1511.04 C 1746.52 1492.07 1724.8 1493.63 1707.23 1504.56 C 1695.37 1511.93 1689.96 1523.24 1698.85 1535.69 C 1686.01 1539.56 1674.48 1542.88 1661.46 1546.07 C 1659.89 1523.04 1644.26 1515.19 1622.07 1517.71 C 1603.63 1519.81 1593.95 1530.31 1595.17 1549.07 C 1590.11 1551.77 1560.05 1547.52 1554.19 1545.01 C 1556.12 1535.71 1563.09 1527.76 1555.11 1517.73 C 1540.52 1499.39 1484.24 1490.88 1499.43 1530.94 C 1486.72 1525.17 1475.22 1520.11 1463.6 1512.18 C 1480.05 1502.96 1474.06 1494.96 1468.09 1480.96 C 1459.26 1460.23 1405.29 1436.65 1416.16 1475.65 C 1407.66 1467.01 1397.74 1456.55 1390.62 1446.77 C 1401.83 1442.33 1406.28 1435.95 1400.78 1423.63 C 1394.67 1409.95 1383.02 1396.37 1368.68 1391.09 C 1367.76 1390.75 1366.84 1390.43 1365.91 1390.11 C 1355.39 1389.72 1354.89 1393.71 1350.82 1402.07 C 1351.2 1381.24 1352.37 1368.08 1351.57 1346.36 C 1356.39 1354.09 1361.32 1361.75 1366.37 1369.34 C 1425.02 1443.56 1499.26 1491.2 1593.93 1502.05 C 1682.14 1512.17 1756.67 1484.35 1824.01 1428.59 C 1868.31 1391.91 1896.81 1344.8 1917.35 1291.35 C 1922.24 1278.62 1927.05 1260.22 1930.93 1246.86 z" fill="rgb(137,212,234)" transform="translate(0,0)"></path>
<path d="M 1640.52 1064.35 C 1644.04 1063.95 1648.01 1063.93 1651.53 1064.24 C 1668.29 1065.71 1683.11 1074.5 1693.92 1087.13 C 1709.95 1105.86 1714.65 1130.86 1712.54 1154.88 C 1709.2 1192.77 1689.14 1227.55 1660.1 1251.73 C 1625.21 1280.75 1581.72 1288.86 1537.35 1284.81 C 1524.57 1271.85 1511.62 1259.84 1499.75 1245.93 C 1489.34 1233.2 1479.15 1220.28 1469.19 1207.18 C 1486.22 1215.37 1503.99 1221.58 1522.66 1224.67 C 1562.71 1231.32 1607.61 1229.97 1641.61 1205.14 C 1659.09 1192.38 1673.72 1172.56 1677.02 1150.84 C 1679.56 1134.16 1678.18 1114.93 1667.68 1101.12 C 1659.78 1090.73 1646.87 1082.93 1633.64 1082.29 C 1629.37 1082.08 1624.55 1083.51 1620.41 1082.51 C 1618.08 1081.95 1617.08 1080.43 1616.24 1078.41 C 1616.58 1077.06 1616.56 1076.8 1617.35 1075.44 C 1621.71 1067.88 1632.64 1065.46 1640.52 1064.35 z" fill="rgb(247,139,151)" transform="translate(0,0)"></path>
<path d="M 1211.14 1350.85 C 1217.61 1319.85 1223.95 1271.31 1225.42 1240.52 C 1249.89 1313.61 1263.59 1391.25 1254.63 1468.34 C 1251.45 1495.7 1245.23 1522.16 1238.58 1548.92 C 1221.67 1616.98 1196.61 1684.03 1203.99 1755.51 C 1204.54 1760.9 1205.1 1766.85 1206.24 1772.13 C 1212.71 1814.85 1224.38 1847.88 1249.8 1883.56 C 1256.92 1893.55 1265.16 1901.59 1272.88 1911 C 1265.98 1906.01 1247.11 1890.79 1244.43 1883.06 C 1239.57 1869 1234.98 1875.71 1230.2 1869.5 C 1221.6 1858.31 1204.75 1837.59 1203.38 1823.8 C 1204.03 1822.4 1204.67 1820.99 1205.3 1819.57 C 1210.67 1807.72 1209.27 1799.54 1205.71 1787.37 C 1204.18 1782.12 1202.5 1776.51 1199.21 1772.09 C 1195.83 1767.54 1190.91 1769 1185.8 1767.42 C 1181.72 1759.98 1178.98 1733.3 1178.3 1724.16 C 1180.82 1723.29 1187.42 1720.86 1188.89 1719.04 C 1194.6 1711.98 1197.71 1697.2 1197.6 1688.08 C 1196.97 1679.15 1196.76 1665.69 1190.34 1658.92 C 1187.62 1656.06 1183.44 1658.61 1179.46 1656.86 C 1179.18 1652.1 1180.57 1614.15 1182.11 1612.16 C 1184.14 1613.5 1186.77 1615.92 1188.99 1616.06 C 1203.38 1616.92 1211.15 1598.27 1212.7 1586.86 C 1214.32 1574.94 1213.94 1551.6 1198.93 1549.22 C 1193.12 1548.3 1189.22 1551.38 1185.05 1554.82 C 1188.45 1541.96 1191.67 1521.66 1194.42 1507.94 C 1226.78 1538.5 1243.81 1472.38 1225.52 1453.47 C 1216.28 1443.92 1207.17 1449.49 1199.31 1456.67 C 1200.84 1445.64 1202.87 1417.56 1204.98 1409.95 C 1207.8 1411.48 1210.38 1413.71 1213.47 1413.13 C 1231.23 1409.84 1232.9 1384.89 1230.67 1370.44 C 1228.97 1359.45 1224.04 1348.34 1211.14 1350.85 z" fill="rgb(137,212,234)" transform="translate(0,0)"></path>
<path d="M 533.149 310.278 C 544.62 309.239 553.31 312.448 557.377 324.376 C 561.769 337.258 564.904 351.173 568.333 364.376 L 587.579 439.614 C 592.269 458.069 608.359 512.667 608.607 527.75 C 603.353 528.649 599.036 528.809 593.746 529.116 L 561 407.963 C 557.224 394.027 544.186 339.717 537.911 330.296 C 519.627 330.369 227.576 405.545 209.201 415.211 C 209.581 421.617 210.319 425.542 211.468 431.836 C 213.86 442.757 219.2 458.575 222.607 469.538 C 229.898 493.283 237.379 516.968 245.051 540.593 C 252.974 564.475 263.259 593.342 267.763 618.047 C 262.221 620.768 256.138 622.768 250.312 624.861 C 241.875 609.935 229.217 565.141 223.589 546.823 L 181.716 408.397 C 184.21 404.377 187.493 400.882 192.042 399.327 C 209.426 393.386 228.506 388.675 246.261 384.058 C 282.968 374.471 319.768 365.249 356.658 356.391 L 489.893 322.321 C 504.237 318.562 518.966 313.637 533.149 310.278 z" fill="rgb(84,121,176)" transform="translate(0,0)"></path>
<path d="M 1807.26 1499.57 C 1854.08 1549.76 1870.86 1606.24 1871.28 1674.11 C 1871.71 1743.71 1844.19 1824.35 1781.35 1861.67 C 1805.77 1835.25 1823.59 1795.66 1830.78 1760.15 C 1845.21 1688.96 1827.9 1606.9 1779.1 1551.77 C 1777.31 1549.75 1772.51 1543.96 1770.77 1542.88 C 1768.72 1540.03 1763.68 1534.95 1761.1 1532.19 C 1781.13 1520.5 1788.87 1514.2 1807.26 1499.57 z" fill="rgb(247,139,151)" transform="translate(0,0)"></path>
<path d="M 1429.04 1176.62 C 1433.42 1181.32 1436.98 1188.39 1440.46 1193.88 C 1447.41 1204.98 1454.57 1215.94 1461.97 1226.75 C 1496.93 1276.98 1543.94 1319.73 1598.78 1347.2 C 1619.38 1357.51 1641.02 1364 1662.79 1371.17 C 1667.76 1372.8 1674.02 1372.85 1678.52 1375.2 L 1678.23 1376.26 L 1673.79 1378.16 C 1651.47 1383.65 1629.26 1386.17 1606.27 1385.13 C 1554.34 1383.11 1505.42 1360.23 1470.58 1321.67 C 1433.82 1280.92 1426.2 1229.51 1429.04 1176.62 z" fill="rgb(247,139,151)" transform="translate(0,0)"></path>
<path d="M 1108.52 1117.22 L 1109.77 1117.61 C 1105.1 1124.48 1056.41 1136.12 1045.21 1140.29 C 1033.13 1144.79 1021.44 1150.28 1010.26 1156.71 C 991.435 1167.72 973.491 1181.67 958.966 1197.99 C 951.991 1205.82 945.603 1215.04 937.646 1221.85 C 929.622 1228.72 919.212 1233.19 910.702 1239.61 C 892.765 1253.14 876.147 1269.22 860.198 1285.01 C 850.713 1294.4 841.064 1303.75 832.161 1313.69 C 827.176 1319.26 822.71 1325.34 817.588 1330.77 C 816.304 1332.14 816.727 1331.7 814.749 1332.46 L 814.718 1330.81 C 814.265 1316.24 814.029 1304.92 806.409 1291.92 C 817.252 1279.11 830.015 1267.26 841.582 1255.01 C 884.488 1209.54 935.633 1153.3 998.117 1136.55 C 1018.61 1131.06 1040.47 1127.01 1061.49 1124.13 C 1076.66 1122.05 1092.53 1121.09 1107.41 1117.5 C 1107.78 1117.41 1108.15 1117.32 1108.52 1117.22 z" fill="rgb(247,139,151)" transform="translate(0,0)"></path>
<path d="M 1195.17 1365.65 C 1195.53 1366.95 1195.86 1368.11 1195.92 1369.46 C 1196.82 1389.37 1191.79 1414.67 1188.46 1434.4 C 1171.2 1536.87 1133.46 1636.66 1067.12 1717.66 C 1015.47 1780.71 943.593 1831.22 864.959 1853.88 C 853.089 1857.3 840.089 1861.4 827.798 1862.63 L 827.303 1862.44 C 833.684 1859.95 840.258 1858.62 846.712 1856.42 C 855.868 1853.31 864.94 1849.39 873.759 1845.43 C 905.23 1831.26 933.624 1811.92 960.87 1790.9 C 1056.29 1717.28 1114.82 1629.29 1152.42 1515.22 C 1163.63 1480.81 1174.03 1446.13 1183.61 1411.23 C 1187.57 1396.7 1189.37 1380.45 1194.82 1366.51 C 1194.93 1366.22 1195.05 1365.93 1195.17 1365.65 z" fill="rgb(187,254,243)" transform="translate(0,0)"></path>
<path d="M 711.733 1315.45 C 720.947 1315.36 729.434 1317.16 736.925 1322.65 L 739.589 1334.86 C 736.115 1346.85 729.127 1364.1 720.477 1372.95 C 690.894 1403.19 637.018 1418.38 595.75 1419.22 C 586.207 1419.26 576.899 1417.86 567.423 1416.95 C 572.85 1408.18 578.855 1399.78 585.399 1391.81 C 616.774 1353.64 661.309 1320.26 711.733 1315.45 z" fill="rgb(255,255,255)" transform="translate(0,0)"></path>
<path d="M 1731.49 1546.87 C 1740.06 1542.75 1748.6 1538.55 1757.09 1534.26 L 1762.68 1541.07 C 1788.19 1570.7 1805.51 1597.92 1817.46 1635.47 C 1837.35 1696.76 1831.67 1763.49 1801.72 1820.55 C 1793.6 1836.19 1782.19 1851.91 1769.43 1864.29 C 1765.17 1868.43 1761.39 1870.46 1756 1867 C 1755.3 1858.25 1791.08 1805.01 1797.37 1790.34 C 1813.76 1752.16 1814.16 1738.18 1810.49 1697.71 C 1808.65 1695.32 1806.48 1693.11 1804.42 1690.88 C 1802.82 1675.86 1801.61 1660.45 1797.07 1646 C 1784.63 1606.42 1760.39 1575.44 1731.49 1546.87 z" fill="rgb(137,212,234)" transform="translate(0,0)"></path>
<path d="M 558.429 1432.29 C 563.961 1432.96 569.497 1433.59 575.038 1434.18 C 631.927 1440.14 686.784 1422.64 731.055 1386.75 C 744.25 1402.44 758.687 1403.14 776.575 1394.43 L 778.144 1397.95 C 747.823 1427.01 724.351 1447.42 682.062 1459.74 C 647.781 1469.73 615.712 1464.99 582.433 1454.37 C 573.34 1451.47 563.026 1449.01 554.603 1444.22 L 558.429 1432.29 z" fill="rgb(247,139,151)" transform="translate(0,0)"></path>
<path d="M 249.179 645.632 C 253.186 648.585 262.276 658.7 266.942 662.733 C 293.694 685.856 320.56 708.747 346.524 732.753 C 360.292 745.484 388 734.501 404.479 730.269 C 427.886 724.216 451.257 718.027 474.591 711.703 C 526.709 697.729 578.859 685.341 631.194 671.054 C 648.03 666.458 680.608 656.512 698.69 653.998 C 699.881 653.832 700.1 655.096 700.779 656.442 C 700.238 659.997 700.242 660.731 698.691 664.106 C 672.052 674.943 614.832 687.025 584.399 695.132 L 456.275 728.639 C 425.761 736.772 393.728 746.18 363.154 753.357 C 360.06 752.425 353.82 750.919 351.544 748.882 C 333.164 732.428 314.559 716.162 296.081 699.823 C 282.429 687.75 268.322 676.309 255.078 663.824 C 248.828 657.932 249.092 653.68 249.179 645.632 z" fill="rgb(255,255,255)" transform="translate(0,0)"></path>
<path d="M 1288.84 340.78 C 1293.12 343.805 1297.62 353.393 1299.74 358.331 C 1306.35 372.41 1307.6 397.416 1296.11 409.668 C 1262.45 445.571 1227.56 424.091 1222.1 382.029 C 1221.34 375.988 1219.64 368.361 1221.79 362.948 C 1223.91 361.535 1226.26 361.135 1228.67 362.06 C 1232 363.337 1230.38 379.506 1231.22 383.124 C 1232.4 388.159 1232.37 391.356 1234.21 395.793 C 1236.28 401.108 1240.62 411.095 1246.76 412.958 C 1257.31 416.166 1265.7 409.607 1268.71 400.163 C 1274.51 381.972 1268.88 371.047 1261.52 355.517 C 1272.17 351.269 1279.1 346.651 1288.84 340.78 z" fill="rgb(255,255,255)" transform="translate(0,0)"></path>
<path d="M 914.925 1074.23 C 958.326 1056.29 998.006 1068.71 1039.8 1085.52 C 1050.98 1090.01 1073.37 1099.75 1083.72 1105.6 C 1077.25 1105.89 1032.56 1110.47 1032.24 1110.31 C 993.271 1091.34 965.079 1078.91 919.011 1090.98 C 918.016 1085.23 916.444 1079.86 914.925 1074.23 z" fill="rgb(247,139,151)" transform="translate(0,0)"></path>
<path d="M 277.097 1421.75 C 330.247 1419.27 392.854 1450.82 440.661 1471.79 C 438.769 1479.34 436.82 1486.88 434.817 1494.4 L 426.506 1488.61 C 420.125 1484.78 412.336 1480.35 404.81 1479.94 C 397.67 1479.55 393.6 1481.92 388.441 1486.59 C 381.531 1482.84 374.542 1479.25 367.479 1475.8 C 368.916 1472.41 370.117 1468.89 371.422 1465.45 C 368.598 1455.95 364.591 1449.36 356.273 1443.61 C 346.547 1436.89 331.44 1432.3 319.767 1434.53 C 311.967 1436.02 308.227 1439.37 303.869 1445.77 C 299.995 1443.82 285.665 1439.58 283.828 1436.81 C 281.168 1432.8 280.951 1427.12 277.746 1422.62 C 277.536 1422.33 277.313 1422.04 277.097 1421.75 z" fill="rgb(187,254,243)" transform="translate(0,0)"></path>
<path d="M 598.826 1532.89 C 608.385 1533.44 619.647 1539.8 630.103 1541.16 C 665.342 1545.75 698.457 1539.93 732.701 1532.34 C 729.419 1535.49 725.942 1538.23 722.338 1541 C 710.872 1548.07 699.763 1552.94 686.535 1555.79 C 655.004 1562.57 625.106 1549.69 598.826 1532.89 z" fill="rgb(255,255,255)" transform="translate(0,0)"></path>
<path d="M 1211.32 1456.88 C 1211.87 1456.89 1212.41 1456.89 1212.96 1456.91 C 1216.64 1457.06 1219.44 1458.64 1221.74 1461.47 C 1226.67 1467.55 1226.42 1476.79 1225.29 1484.09 C 1223.72 1494.24 1220.07 1502.39 1211.72 1508.5 C 1207.77 1507.13 1203.7 1505.37 1201.27 1501.8 C 1196.23 1494.37 1195.77 1483.86 1197.83 1475.37 C 1199.94 1466.66 1203.76 1461.48 1211.32 1456.88 z" fill="rgb(137,212,234)" transform="translate(0,0)"></path>
<path d="M 1425.37 1461.87 C 1425.77 1461.88 1426.18 1461.88 1426.59 1461.91 C 1439.06 1462.87 1451.23 1471.64 1459.13 1481.02 C 1462.89 1485.49 1466.8 1491.44 1465.86 1497.6 C 1465.38 1500.75 1463.69 1502.01 1461.38 1503.9 C 1461.13 1503.97 1460.89 1504.06 1460.64 1504.12 C 1456.3 1505.2 1453.55 1505.01 1449.71 1502.61 C 1439.87 1496.46 1424.52 1483.41 1422.39 1471.58 C 1421.66 1467.5 1423.05 1465.01 1425.37 1461.87 z" fill="rgb(137,212,234)" transform="translate(0,0)"></path>
<path d="M 176.304 419.4 C 181.1 421.479 187.057 447.668 188.762 453.843 C 199.651 493.634 211.328 533.204 223.788 572.531 C 228.487 587.34 238.814 612.697 241.836 625.996 C 239.976 625.173 240.574 625.652 239.049 623.941 C 225.119 608.313 201.527 513.456 193.666 487.341 C 188.084 468.797 180.383 449.731 176.652 430.802 C 175.915 427.063 176.128 423.186 176.304 419.4 z" fill="rgb(84,121,176)" transform="translate(0,0)"></path>
<path d="M 1509.72 1511.08 C 1513.09 1510.89 1516.64 1510.73 1520.02 1510.92 C 1528.52 1511.4 1540.77 1516.15 1546.14 1522.89 C 1547.91 1525.11 1548.86 1527.9 1548.27 1530.73 C 1547.4 1534.9 1544.82 1537.4 1541.5 1539.78 C 1530.38 1539.8 1515.18 1536.82 1507.23 1528.65 C 1505.03 1526.38 1503.49 1523.46 1503.76 1520.2 C 1504.12 1515.92 1506.55 1513.62 1509.72 1511.08 z" fill="rgb(137,212,234)" transform="translate(0,0)"></path>
<path d="M 1193.92 1556.72 C 1197.15 1557.02 1199.07 1557.02 1201.31 1559.54 C 1206.77 1565.67 1205.99 1577.92 1204.73 1585.53 C 1203.3 1594.13 1200.3 1602.88 1193.05 1608.16 C 1190.67 1607.66 1188.63 1607.3 1186.88 1605.47 C 1182.59 1601.01 1182.05 1593.72 1182.28 1587.87 C 1182.75 1576.25 1185.09 1564.9 1193.92 1556.72 z" fill="rgb(137,212,234)" transform="translate(0,0)"></path>
<path d="M 322.152 1443.01 L 323.384 1443.02 C 334.78 1443.23 349.518 1447.59 357.343 1456.4 C 359.329 1458.64 360.837 1461.65 360.27 1464.72 C 359.545 1468.65 356.474 1471.19 353.429 1473.39 C 343.864 1474.47 333.095 1469.61 325.414 1464.06 C 321.554 1461.26 317.058 1456.98 316.778 1451.88 C 316.555 1447.81 319.43 1445.46 322.152 1443.01 z" fill="rgb(137,212,234)" transform="translate(0,0)"></path>
<path d="M 895.6 1110.21 C 928.581 1090.38 977.912 1099.85 1010.07 1116.8 C 1000.57 1118.92 991.088 1120.88 981.798 1123.81 C 961.913 1102.25 923.049 1100.84 897.277 1111.21 L 895.6 1110.21 z" fill="rgb(187,254,243)" transform="translate(0,0)"></path>
<path d="M 1211.58 1355.17 C 1217.84 1358.31 1219.97 1359.92 1222.27 1366.78 C 1225.8 1377.35 1224.76 1401.64 1212.01 1405.62 C 1209.92 1405.09 1207.7 1404.51 1206.78 1402.17 C 1202.12 1390.28 1201.76 1374.78 1206.35 1363.05 L 1211.58 1355.17 z" fill="rgb(137,212,234)" transform="translate(0,0)"></path>
<path d="M 1623.1 1528.31 C 1629.23 1527.61 1635.46 1526.63 1641.1 1529.68 C 1644.57 1531.56 1649.08 1535.04 1649.65 1539.28 C 1649.94 1541.48 1649.17 1543.55 1647.63 1545.1 C 1644.81 1547.93 1638.03 1547.59 1634.24 1547.85 C 1627.02 1548.47 1612.25 1551.48 1606.09 1547.75 C 1603.99 1546.47 1603.77 1545.59 1603.24 1543.41 C 1603.63 1541.19 1604.49 1539.62 1605.84 1537.85 C 1610.88 1531.26 1615.14 1529.45 1623.1 1528.31 z" fill="rgb(137,212,234)" transform="translate(0,0)"></path>
<path d="M 914.925 1074.23 C 916.444 1079.86 918.016 1085.23 919.011 1090.98 C 889.801 1098.52 890.612 1111.88 871.9 1126.4 L 870.752 1127.28 C 876.384 1096.14 887.724 1087.28 914.925 1074.23 z" fill="rgb(187,254,243)" transform="translate(0,0)"></path>
<path d="M 399.889 1489.94 C 414.313 1489.73 423.481 1496.5 433.464 1505.91 C 433.174 1511.41 432.877 1516.8 430.343 1521.77 C 425.532 1521.16 420.913 1520.03 416.501 1517.97 C 409.108 1514.51 399.894 1508.83 397.425 1500.56 C 396.164 1496.33 397.811 1493.46 399.889 1489.94 z" fill="rgb(137,212,234)" transform="translate(0,0)"></path>
<path d="M 258.969 1422.43 L 264.525 1422.23 C 266.296 1422.99 267.593 1423.57 268.836 1425.14 C 270.484 1427.21 271.101 1429.7 270.409 1432.28 C 269.674 1435.02 267.802 1437.07 265.433 1438.52 C 256.822 1443.79 243.321 1441.8 234.028 1439.22 C 230.619 1437.76 226.273 1435.83 223.849 1432.95 C 222.413 1431.24 222.476 1430.7 222.568 1428.61 C 228.932 1422.04 249.878 1422.97 258.969 1422.43 z" fill="rgb(137,212,234)" transform="translate(0,0)"></path>
<path d="M 552.997 1623.26 C 562.775 1622.85 571.276 1625.27 579.589 1630.37 C 584.088 1633.14 588.653 1637.07 589.642 1642.53 C 590.359 1646.5 588.769 1648.76 586.515 1651.71 C 579.866 1653.57 574.239 1652.64 567.549 1651.66 C 562.854 1646.13 558.926 1639.48 555.574 1633.07 C 553.864 1629.8 551.848 1626.86 552.997 1623.26 z" fill="rgb(137,212,234)" transform="translate(0,0)"></path>
<path d="M 1181.65 1663.36 C 1182.43 1663.48 1182.88 1663.5 1183.65 1663.89 C 1187 1665.53 1188.71 1669.08 1189.72 1672.48 C 1193.49 1685.24 1190.23 1703.11 1183.9 1714.51 C 1181.57 1714.93 1181.18 1715.13 1179.05 1714.19 C 1175.69 1708.11 1175.69 1699 1175.36 1692.2 C 1174.86 1681.81 1174.24 1671.53 1181.65 1663.36 z" fill="rgb(137,212,234)" transform="translate(0,0)"></path>
<path d="M 1731.51 1506.29 C 1732.93 1506.19 1732.91 1506.16 1734.53 1506.22 C 1740.95 1506.45 1744.25 1510.27 1748.37 1514.65 C 1738.61 1519.36 1728.56 1523.6 1718.66 1528.02 C 1714.53 1530.02 1711.86 1531.15 1707.26 1530.07 C 1705.31 1528.51 1704.16 1527.88 1704 1525.13 C 1703.87 1522.73 1705.22 1520.05 1706.56 1518.15 C 1712.24 1510.1 1722.35 1507.7 1731.51 1506.29 z" fill="rgb(137,212,234)" transform="translate(0,0)"></path>
<path d="M 1365.19 1398.39 C 1366.64 1398.58 1368.09 1398.74 1369.5 1399.17 C 1377.43 1401.57 1386.58 1413.51 1390.31 1420.56 C 1392.78 1425.21 1394.51 1429.13 1392.86 1434.29 C 1391.77 1434.51 1390.53 1434.75 1389.41 1434.67 C 1384.27 1434.32 1378.05 1429.59 1374.68 1425.94 C 1367.1 1417.74 1364.6 1409.3 1365.19 1398.39 z" fill="rgb(137,212,234)" transform="translate(0,0)"></path>
<path d="M 548.418 1471.74 C 551.341 1471.98 554.262 1472.26 557.179 1472.56 C 565.265 1473.43 582.894 1476.04 587.327 1483.54 C 589.004 1486.37 588.325 1487.27 587.517 1490.29 C 587.183 1490.44 586.85 1490.59 586.514 1490.73 C 576.237 1495.12 568.468 1490.87 558.735 1487.06 C 554.76 1482.17 551.565 1477.2 548.418 1471.74 z" fill="rgb(137,212,234)" transform="translate(0,0)"></path>
<path d="M 1836.35 1446.01 C 1838.8 1446.94 1839.24 1446.76 1840.44 1449.05 C 1837.75 1458.37 1814.08 1476.22 1805.64 1482.2 L 1803.2 1480.86 C 1801.96 1478.73 1800.94 1477.63 1801.58 1475.03 C 1803.53 1467 1828.69 1449.51 1836.35 1446.01 z" fill="rgb(137,212,234)" transform="translate(0,0)"></path>
<path d="M 1186.7 1773.57 C 1189.46 1774.4 1191.91 1775.5 1193.8 1777.72 C 1201.96 1787.37 1202.85 1804.75 1201.54 1816.81 C 1201.27 1816.66 1200.98 1816.55 1200.74 1816.36 C 1193.79 1810.98 1188.21 1782.12 1186.7 1773.57 z" fill="rgb(137,212,234)" transform="translate(0,0)"></path>
<path d="M 1773.3 1623.54 C 1773.71 1623.69 1774.13 1623.8 1774.51 1623.99 C 1778.9 1626.21 1782.82 1635.82 1784.64 1640.3 C 1786.8 1645.6 1790.41 1652.83 1788.08 1658.4 C 1787.11 1657.34 1786.28 1656.44 1785.52 1655.22 C 1782.44 1650.23 1772.65 1631.76 1772.45 1626.51 C 1772.42 1625.48 1773.02 1624.53 1773.3 1623.54 z" fill="rgb(137,212,234)" transform="translate(0,0)"></path>
<path d="M 1719.3 1554.66 C 1728.67 1559.02 1741 1572.33 1745.97 1581.25 C 1740.45 1580.93 1734.02 1574.43 1730.11 1570.89 C 1725.04 1566.32 1719.74 1561.7 1719.3 1554.66 z" fill="rgb(137,212,234)" transform="translate(0,0)"></path>
<path d="M 819.835 1340.88 L 821.995 1342.41 C 818.734 1349.55 808.653 1361.74 803.521 1368.31 L 801.678 1367.55 C 807.995 1356.86 811.699 1350.31 819.835 1340.88 z" fill="rgb(255,255,255)" transform="translate(0,0)"></path>
<path d="M 1799.19 1707.66 C 1800.09 1708.2 1800.7 1708.37 1801.23 1709.25 C 1804.26 1714.2 1803.64 1731.81 1801.93 1737.35 L 1800.28 1735.42 C 1799.18 1727.06 1796.93 1715.72 1799.19 1707.66 z" fill="rgb(137,212,234)" transform="translate(0,0)"></path>
<path d="M 801.678 1367.55 L 803.521 1368.31 C 794.682 1380.91 789.101 1387.08 778.144 1397.95 L 776.575 1394.43 C 789.153 1386.06 792.956 1379.85 801.678 1367.55 z" fill="rgb(183,188,182)" transform="translate(0,0)"></path>
<path d="M 897.277 1111.21 C 893.828 1113.51 888.737 1117.46 884.817 1117.78 C 886.329 1114.36 892.172 1111.83 895.6 1110.21 L 897.277 1111.21 z" fill="rgb(56,173,206)" transform="translate(0,0)"></path>
<path d="M 281.439 864.038 C 281.496 864.054 281.562 864.053 281.611 864.086 C 285.343 866.652 294.842 899.241 296.354 905.633 C 311.599 907.218 319.1 909.239 333.628 913.641 C 342.772 901.175 351.227 890.416 360.908 878.285 C 379.421 890.139 406.128 909.009 422.971 923.088 C 415.029 935.159 407.249 947.335 399.633 959.614 C 408.538 969.279 417.179 983.805 422.893 995.565 C 437.947 992.419 452.858 989.995 468.025 987.462 C 473.695 1015.91 478.046 1035.24 481.836 1064.88 C 469.094 1068.55 449.917 1073.06 438.327 1077.62 C 434.66 1087.85 434.842 1101.64 430.426 1113.57 C 439.803 1119.8 457.776 1132.88 466.19 1139.91 C 455.131 1161.34 438.235 1185.29 423.776 1204.55 C 409.484 1199.35 395.623 1192.82 381.767 1186.54 C 374.596 1192.29 368.862 1197.52 360.664 1201.75 C 361.025 1212.66 363.786 1231.64 365.076 1243.27 C 338.301 1250.19 314.838 1253.78 288.087 1259.44 C 287.467 1259.4 285.867 1258.92 285.19 1258.74 C 282.441 1254.46 274.341 1227.71 272.33 1221.35 C 259.944 1222.62 254.637 1221.1 242.647 1217.64 C 231.834 1228.87 223.834 1242.38 212.18 1253.27 C 198.584 1246.09 160.781 1218.23 147.782 1208.14 C 151.562 1198.56 160.645 1182.06 165.956 1172.74 C 156.566 1163.14 145.756 1151.29 141.387 1138.37 C 125.61 1141.12 113.982 1143.07 97.7709 1143.25 C 92.5042 1118.09 85.5144 1095.11 81.403 1068.72 C 91.4384 1065.28 111.491 1060.59 122.09 1058.27 C 123.429 1047.69 124.319 1035.84 129.238 1026.45 C 117.541 1014.89 108.482 1007.03 95.8769 996.811 C 107.181 974.439 120.432 951.927 136.027 932.306 C 149.769 938.698 159.03 942.906 171.459 951.599 C 185.888 939.653 191.245 936.326 207.622 927.722 C 206.323 915.788 203.23 900.387 201.094 888.257 C 223.896 879.734 257.464 871.335 281.439 864.038 z" fill="rgb(59,62,115)" transform="translate(0,0)"></path>
<path d="M 273.766 880.279 C 273.835 880.303 273.912 880.31 273.972 880.351 C 277.018 882.427 284.632 913.012 286.36 918.706 C 307.138 918.929 319.632 922.564 339.537 927.946 C 347.124 918.743 356.018 904.917 363.202 894.784 C 378.794 906.804 390.054 914.542 406.53 925.222 C 398.77 936.749 390.125 948.842 383.801 961.077 C 387.545 966.694 393.654 973.495 397.849 979.5 C 404.951 989.668 409.62 998.093 415.4 1009.06 C 430.214 1007.13 442.485 1003.66 456.82 999.77 C 459.951 1018.7 463.547 1037.56 467.606 1056.32 C 453.848 1060.04 438.974 1063.36 425.05 1066.71 C 424.754 1084.68 420.881 1099.67 416.169 1117.01 C 424.513 1124.86 440.297 1136.6 449.69 1143.57 C 440.707 1157.93 429.287 1175.86 418.951 1189.09 C 405.859 1183.46 392.865 1177.61 379.973 1171.54 C 363.967 1183.53 363.883 1186.31 345.13 1195.7 C 347.511 1206.85 349.176 1221.55 351.185 1233.26 C 334.835 1237.44 318.278 1240.76 301.582 1243.22 C 298.007 1244.05 296.908 1244.27 293.269 1244.5 C 291.72 1242.32 285.026 1217.81 281.707 1210.59 L 281.116 1209.33 C 262.461 1210.27 254.382 1208.71 236.092 1204.66 C 228.364 1213.35 217.794 1227.78 210.81 1237.33 C 197.272 1228.88 177.629 1213.4 164.264 1203.58 C 169.506 1192.54 174.134 1182.51 181.286 1172.57 C 176.415 1165.64 169.227 1158.29 163.927 1151.35 C 156.827 1142.06 152.796 1134.06 147.796 1123.57 C 132.522 1127.45 123.761 1128.67 108.346 1130.17 C 103.75 1114.29 99.2372 1093.1 96.0271 1076.77 C 109.914 1074.28 121.146 1071.1 134.763 1067.37 C 135.185 1051.89 137.973 1036.57 143.031 1021.94 C 133.35 1011.23 123.35 1002.59 112.557 993.083 C 120.712 978.379 130.513 962.794 139.259 948.302 C 150.222 953.687 160.852 960.881 171.044 967.639 C 190.493 952.528 199.961 945.447 221.981 934.718 C 220.48 921.486 218.516 909.86 216.22 896.727 C 230.766 892.487 260.133 882.723 273.766 880.279 z" fill="rgb(137,212,234)" transform="translate(0,0)"></path>
<path d="M 271.492 961.521 C 328.281 955.934 378.898 997.317 384.709 1054.08 C 390.519 1110.85 349.336 1161.63 292.592 1167.66 C 235.532 1173.73 184.407 1132.27 178.565 1075.18 C 172.722 1018.1 214.386 967.139 271.492 961.521 z" fill="rgb(59,62,115)" transform="translate(0,0)"></path>
<path d="M 302.714 974.354 C 321.178 980.408 333.325 986.182 348.144 999.295 C 337.102 1008.08 318.249 1026.6 309.683 1032.57 C 311.82 1040.52 314.048 1051.66 319.17 1057.74 C 327.596 1061.81 357.634 1061.53 367.929 1060.24 C 369.911 1058.26 370.403 1057.02 372.652 1056.58 C 376.054 1065.83 372.323 1084.86 370.002 1094.65 C 356.58 1089.68 329.215 1078.51 315.468 1083.76 C 311.357 1085.32 308.881 1089.9 306.772 1093.54 C 310.161 1107.22 322.795 1128.84 328.779 1143.97 C 319.057 1148.28 313.708 1150.05 303.443 1152.92 C 298.634 1135.08 294.906 1121.07 286.9 1104.16 C 279.588 1103.47 270.575 1102.85 263.485 1101.65 C 255.855 1117.39 249.757 1131.79 242.958 1147.88 C 231.741 1142.36 225.763 1138.03 215.96 1130.2 C 224.71 1121.47 245.432 1101.29 251.412 1091.6 C 236.299 1062.8 236.729 1065.07 205.384 1070.22 C 200.159 1071.08 194.172 1071.36 188.833 1072.26 C 188.775 1058.55 188.798 1052.35 191.573 1039.14 C 200.097 1041.24 229.765 1049.29 238.168 1046.08 C 238.365 1046 246.366 1035.83 250.004 1032.72 C 242.988 1017.9 235.649 1003.24 227.993 988.742 C 233.036 985.603 238.191 982.227 243.512 979.626 C 249.328 994.808 254.714 1008.65 262.392 1023.07 L 274.471 1022.66 C 282.011 1022.33 290.737 1024.73 295.834 1019.31 C 300.88 1003.73 301.608 990.692 302.714 974.354 z" fill="rgb(137,212,234)" transform="translate(0,0)"></path>
<path d="M 272 1035.42 C 286.128 1031.92 300.425 1040.49 304.004 1054.6 C 307.582 1068.71 299.098 1083.05 285.014 1086.72 C 270.81 1090.41 256.313 1081.84 252.705 1067.61 C 249.096 1053.39 257.754 1038.94 272 1035.42 z" fill="rgb(59,62,115)" transform="translate(0,0)"></path>
<path d="M 273.169 1043.91 C 282.465 1040.94 292.418 1046.01 295.496 1055.27 C 298.574 1064.53 293.631 1074.54 284.409 1077.73 C 278.343 1079.83 271.619 1078.5 266.804 1074.26 C 261.989 1070.02 259.827 1063.51 261.144 1057.23 C 262.462 1050.95 267.054 1045.86 273.169 1043.91 z" fill="rgb(137,212,234)" transform="translate(0,0)"></path>
<path d="M 353.033 1004.88 C 364.828 1018.58 368.216 1035.67 372.517 1052.63 C 360.703 1052.4 348.934 1053.06 337.109 1052.56 C 334.136 1053.02 328.484 1052.65 325.885 1051.14 C 320.827 1048.19 319.663 1042.3 318.133 1037.12 C 328.759 1025.65 341.501 1015.5 353.033 1004.88 z" fill="rgb(255,255,255)" transform="translate(0,0)"></path>
<path d="M 233.207 1074.42 C 237.294 1076.66 240.217 1088.3 241.834 1092.73 C 230.932 1102.81 221.584 1114.33 210.99 1124.71 L 206.445 1118.6 C 199.102 1106.64 192.676 1093.42 190.367 1079.47 C 204.677 1078.23 218.892 1075.8 233.207 1074.42 z" fill="rgb(255,255,255)" transform="translate(0,0)"></path>
<path d="M 249.613 977.243 C 263.886 972.848 280.663 970.791 295.472 973.267 C 293.818 987.726 292.294 1002.02 289.934 1016.39 C 285.813 1015.13 285.431 1015.19 281.049 1015.18 C 275.929 1015.39 270.812 1015.66 265.697 1015.97 C 258.886 1002.35 254.886 991.472 249.613 977.243 z" fill="rgb(255,255,255)" transform="translate(0,0)"></path>
<path d="M 317.163 1089.86 C 334.038 1090.28 350.734 1095.94 366.729 1100.89 C 362.526 1109.46 357.877 1117.16 351.833 1124.56 C 347.031 1130.63 341.705 1135.06 335.402 1139.46 C 332.063 1130.57 327.02 1122.26 322.734 1113.79 C 318.829 1106.07 314.301 1098.65 317.163 1089.86 z" fill="rgb(255,255,255)" transform="translate(0,0)"></path>
<path d="M 268.008 1108.97 C 273.166 1108.71 277.916 1109.78 282.932 1110.79 C 289.394 1124.27 292.312 1140.29 295.411 1154.87 L 277.76 1155.32 C 268.911 1154.71 260.103 1152.46 251.573 1150.15 C 255.774 1136.19 261.067 1121.78 268.008 1108.97 z" fill="rgb(255,255,255)" transform="translate(0,0)"></path>
<path d="M 222.958 993.792 C 227.466 997.502 238.255 1025.16 241.334 1031.95 L 233.789 1039.77 C 228.425 1038.73 223.075 1037.67 217.66 1036.92 L 193.526 1032.53 C 200.142 1017.92 211.087 1004.45 222.958 993.792 z" fill="rgb(255,255,255)" transform="translate(0,0)"></path>
<metadata><recraft-signature>{"signed_by": "recraft", "signature_b64": "54q/GS44u6RZ+dK1ZOFEEm/cx0gktx5YONTRWtWdBFaw1fWcqp4vjE+osK8/PidpJ0+xztEC7KIEluyTrP5FDw==", "signing_algo": "Ed25519", "generation_timestamp": 1771193041, "identifier": "361532f5-5ae6-42dd-a656-e2fab2f7bc48"}</recraft-signature></metadata></svg>