<svg xmlns="http://www.w3.org/2000/svg" height="1024" preserveAspectRatio="none" style="display: block;" version="1.1" viewBox="0 0 2048 2048" width="1024">
<defs>
	<linearGradient gradientUnits="userSpaceOnUse" id="Gradient1" x1="1834.51" x2="1855.49" y1="1469.37" y2="1485.75">
		<stop class="stop0" offset="0" stop-color="rgb(185,196,206)" stop-opacity="1"></stop>
		<stop class="stop1" offset="1" stop-color="rgb(216,235,229)" stop-opacity="1"></stop>
	</linearGradient>
</defs>
<path d="M 0 0 L 2048 0 L 2048 2048 L 0 2048 L 0 0 z" fill="rgb(255,255,255)" transform="translate(0,0)"></path>
<path d="M 900.381 207.611 C 896.119 169.962 904.474 139.228 928.01 109.051 C 947.136 84.528 981.809 66.5355 1012.73 63.4528 C 1045.4 60.2579 1077.99 70.2581 1103.24 91.2265 C 1137.72 119.463 1153.39 163.596 1148.09 207.441 C 1259.8 224.965 1366.93 264.444 1463.29 323.598 C 1479.41 333.509 1495.08 344.124 1510.26 355.411 C 1520.85 363.231 1541.42 379.494 1552.68 384.894 C 1570.6 352.309 1593.46 333.844 1629.07 323.174 C 1720.62 295.736 1807.98 376.515 1787.5 470.153 C 1778.07 513.321 1751.56 540.641 1712.68 559.484 C 1738.85 601.741 1763.28 640.775 1780.3 687.767 C 1782.57 694.045 1785.9 702.19 1788.66 708.216 C 1825.28 725.287 1859.63 765.261 1823.68 802.65 C 1830.98 833.053 1834.63 859.655 1840.07 889.986 C 1858.71 889.225 1870.18 889.247 1887.72 894.801 C 1978.42 923.511 2007.66 1036.73 1942.06 1105.69 C 1916.12 1132.95 1882.11 1146.27 1844.59 1146.79 C 1843.35 1146.81 1842.1 1146.8 1840.85 1146.75 C 1817.83 1271.23 1778.81 1379.54 1703.68 1482.85 C 1729.9 1484.01 1750.06 1485.25 1776.03 1479.77 C 1827.88 1468.83 1866.04 1429.41 1869.25 1375.82 C 1870.59 1353.34 1858.46 1333.37 1839.96 1321.99 C 1835.8 1319.43 1832.55 1316.5 1830.62 1311.96 C 1830.75 1310.54 1830.45 1309.44 1831.69 1308.7 C 1853.21 1296.04 1876.54 1314.8 1888.49 1332.06 C 1904.6 1355.31 1909.18 1386.38 1904.16 1413.89 C 1892.13 1479.82 1839.35 1523.69 1780.36 1548.37 C 1790.62 1592.84 1793.96 1623.43 1769.01 1664.94 C 1753.79 1690.25 1720.59 1712.92 1691.75 1718.46 C 1655.51 1725.41 1639.48 1721.52 1607.99 1706.72 C 1596.98 1737.72 1586.04 1758.16 1602.18 1790.81 C 1617.23 1821.26 1664.71 1820.7 1692.7 1811.1 C 1705.02 1806.88 1722.75 1802.37 1718.67 1823.22 C 1713.26 1841.91 1688.79 1856.27 1672.42 1864.18 C 1619.15 1889.9 1539.25 1872.36 1514.64 1814.78 C 1500.44 1781.56 1501.61 1727.65 1501.73 1690.69 C 1491.25 1697.26 1480.03 1703.94 1470.36 1711.57 C 1462.83 1767.67 1442.83 1809.25 1396.33 1843.93 C 1383.25 1853.69 1367.5 1864.55 1350.43 1863.39 C 1342.07 1862.67 1342.5 1856.24 1345 1850.3 L 1345.2 1849.44 C 1352.44 1830.24 1358.99 1829.72 1371.95 1815.92 C 1392.83 1793.67 1403.97 1765.51 1406.41 1735.66 C 1392.69 1742.21 1375.77 1751.73 1362.61 1757.34 C 1297.38 1785.13 1216.23 1812.82 1145.78 1822.81 C 1158.62 1894.79 1114.55 1961.04 1041.63 1973.53 C 975.731 1984.82 908.626 1935.46 900.135 1869.14 C 898.034 1853.49 898.846 1839.48 900.424 1823.95 C 773.457 1799.01 665.639 1760.51 557.821 1687.36 C 540.071 1675.32 517.162 1660.07 500.774 1646.53 C 453.323 1753.52 308.161 1746.22 268.099 1640.68 C 256.193 1609.05 257.616 1573.94 272.043 1543.37 C 286.603 1511.81 311.463 1492.52 342.173 1478.29 C 332.362 1466.19 312.113 1430.81 304.101 1416.44 C 256.266 1330.65 223.904 1242.31 208.241 1144.97 C 180.699 1148.12 144.694 1136.63 123.492 1119.08 C 65.236 1070.86 56.2189 993.797 103.392 935.033 C 124.333 909.022 154.779 892.432 187.989 888.938 C 194.582 888.239 201.211 887.932 207.841 888.019 L 208.123 886.832 C 211.927 870.364 213.679 853.81 217.929 836.439 C 241.416 740.439 278.492 646.897 333.572 564.519 C 296.099 550.788 274.469 534.083 255.506 496.665 C 242.073 470.158 240.703 430.044 251.356 402.054 C 263.709 368.969 288.772 342.193 320.969 327.683 C 350.766 314.199 384.727 313.233 415.243 325 C 438.761 334.151 459.399 348.976 473.716 369.933 C 479.233 378.01 484.569 387.636 490.246 395.316 C 517.249 370.444 554.317 344.278 585.448 324.839 C 681.002 264.027 788.321 224.079 900.381 207.611 z" fill="rgb(59,62,115)" transform="translate(0,0)"></path>
<path d="M 967.022 478.876 C 1029.37 474.086 1100.23 494.44 1153.71 526.166 C 1175.74 539.238 1195.86 555.136 1215.27 571.796 C 1246.9 598.941 1296.75 658.407 1308.42 698.446 C 1308.68 699.316 1309.16 700.505 1309.51 701.4 C 1313.7 702.594 1325.21 702.337 1329.99 702.281 C 1354.06 701.997 1382.17 721.714 1372.78 748.155 C 1364.57 771.29 1327.55 808.234 1307.26 821.712 C 1303.88 789.472 1311.11 759.163 1320.59 728.677 C 1299.92 759.054 1292.39 796.485 1299.7 832.49 C 1303.99 854.409 1315.25 887.889 1340.28 892.679 C 1347.45 999.785 1290.42 1091.69 1335.68 1195.44 C 1345.3 1217.49 1355.79 1236.76 1367.81 1257.53 C 1316.23 1225.89 1274.12 1165.48 1257.17 1107 C 1253.47 1094.27 1250.75 1064.86 1250.75 1050.9 L 1250.11 1050.52 C 1248.25 1055.77 1248.43 1065.39 1247.96 1071.27 C 1244.49 1114.77 1258 1175.75 1277.02 1215.1 C 1315.14 1293.94 1407.64 1366.71 1481.49 1411.88 C 1519.84 1435.33 1584.08 1461.75 1625.69 1476.61 C 1680.85 1494.75 1749.56 1507.71 1804.05 1481.6 C 1836.94 1465.84 1859 1445.25 1871.63 1410.24 C 1882.54 1380 1881.7 1333.53 1847.05 1317.94 C 1843.86 1316.5 1840.41 1316.88 1837.99 1313.99 C 1841.72 1307.53 1859.08 1314.75 1863.77 1318.24 C 1904.52 1348.57 1896.43 1416.97 1868.32 1453.12 C 1837.66 1492.55 1784.1 1519.36 1735.27 1527 C 1705.39 1531.54 1675.03 1532 1645.03 1528.36 C 1552.63 1516.34 1445.02 1460.81 1367.85 1409.27 C 1297.99 1362.6 1224.24 1296.05 1178.86 1224.65 C 1171.66 1213.55 1165.18 1202 1159.48 1190.06 C 1157.68 1186.31 1147.98 1164.78 1146.42 1162.69 C 1142.76 1151.74 1139.97 1143.57 1135.32 1132.93 C 1134.96 1117.43 1137.29 1101.63 1136.46 1086.49 C 1113.94 1145.25 1126.74 1263.01 1140.43 1322.72 C 1154.07 1382.18 1193.14 1441.92 1241.02 1478.74 C 1279.34 1508.2 1322.19 1528.56 1362.49 1555.03 C 1430.88 1604.13 1478.34 1673.12 1446.35 1759.47 C 1433.2 1794.99 1401.78 1832.71 1367.18 1849.86 C 1361.8 1852.53 1354.5 1854.47 1348.66 1852 C 1347.43 1851.47 1346.2 1850.91 1345 1850.3 L 1345.2 1849.44 C 1346.8 1849.38 1350.22 1849.67 1351.58 1849.47 C 1387.47 1844.59 1430.55 1793.14 1439.41 1759.85 C 1466.2 1659.2 1386.7 1583.45 1302.65 1545.58 C 1279.59 1535.19 1248.77 1519.51 1229.15 1505.75 C 1196.62 1483.11 1169.49 1453.55 1149.71 1419.19 C 1114.62 1358.4 1098.93 1287.02 1088.57 1218.18 C 1084.68 1192.33 1084.42 1165.46 1078.06 1139.72 C 1076.74 1134.38 1077.58 1130.63 1074.85 1125.33 L 1073.47 1125.27 C 1071 1133.44 1074.85 1161.81 1074.12 1173.28 C 1073.09 1189.35 1070.85 1198.6 1065.72 1214.35 C 1045.16 1277.5 1002.97 1338.61 955.282 1384.45 C 940.492 1398.66 934.553 1392.74 918.066 1401.87 C 908.828 1407.08 901.663 1416.27 892.474 1421.47 C 723.633 1516.96 535.397 1402.65 540.255 1209.86 C 541.538 1158.95 564.321 1091.25 603.144 1056.5 C 623.439 1038.3 650.252 1029.12 677.443 1031.06 C 728.589 1034.35 760.911 1074.63 757.798 1124.9 C 757.457 1130.41 755.809 1143.27 748.244 1142.48 C 746.806 1140.16 746.555 1121.96 745.409 1115.69 C 743.497 1105.21 739.772 1095.15 734.401 1085.96 C 713.071 1049.82 671.826 1046.68 638.425 1067.88 C 606.354 1088.25 585.861 1124.52 577.483 1160.85 C 566.75 1209.38 575.49 1260.18 601.823 1302.33 C 655.096 1386.77 772.904 1421.34 858.361 1365.05 C 926.222 1320.36 953.787 1246.54 940.322 1167.85 C 923.139 1067.44 835.714 1019.82 784.994 942.22 L 784.264 941.086 C 785.809 934.816 783.939 928.83 786.95 923.899 C 757.147 884.357 735.009 823.94 731.687 774.95 C 727.482 712.955 759.723 643.652 796.178 595.048 C 830.449 549.358 891.265 491.451 949.633 486.832 C 955.405 485.617 957.815 486.772 963.963 485.683 C 967.02 483.222 966.053 483.867 967.022 478.876 z" fill="rgb(137,212,234)" transform="translate(0,0)"></path>
<path d="M 949.633 486.832 C 964.013 486.901 972.1 486.66 986.048 490.867 C 943.948 517.271 915.963 535.513 881.056 571.531 C 786.936 668.649 747.182 826.514 813.126 949.466 C 814.965 952.866 821.147 962.028 821.647 965.207 C 813.023 957.788 794.18 933.547 786.95 923.899 C 757.147 884.357 735.009 823.94 731.687 774.95 C 727.482 712.955 759.723 643.652 796.178 595.048 C 830.449 549.358 891.265 491.451 949.633 486.832 z" fill="rgb(59,62,115)" transform="translate(0,0)"></path>
<path d="M 988.376 616.175 C 1086.33 622.261 1201.62 714.965 1220.59 813.346 C 1224.18 831.963 1211.08 842.253 1193.8 842.998 C 1184.8 865.422 1172.62 884.207 1152.25 897.903 C 1132.74 910.971 1108.81 915.676 1085.8 910.967 C 1026.88 899.148 988.978 837.832 996.055 779.771 C 996.799 773.669 998.416 766.879 999.704 760.849 C 1002.26 751.725 1003.61 746.433 1008.29 738.223 C 992.641 727.585 974.999 718.687 959.24 707.441 C 1017.26 724.559 1085.21 762.776 1137.31 794.11 C 1150.2 801.858 1193.31 831.675 1205.77 831.651 C 1215.13 827.278 1211.9 815.63 1209.44 807.476 C 1182.95 719.598 1098.5 654.808 1014.38 625.96 C 1006.67 623.318 995.079 620.351 988.376 616.175 z" fill="rgb(59,62,115)" transform="translate(0,0)"></path>
<path d="M 1016.37 749.524 C 1019.03 751.827 1023.04 772.727 1023.86 777.859 C 1032.98 835.441 1115.19 901.081 1173.26 859.804 C 1166.94 869.991 1162.52 874.87 1153.59 882.859 C 1148.01 887.681 1140.65 892.203 1133.98 895.285 C 1115.89 903.509 1095.29 904.211 1076.69 897.236 C 1051.68 887.789 1029.94 866.195 1019.33 841.907 C 1004.4 807.761 1003.7 783.746 1016.37 749.524 z" fill="rgb(255,255,255)" transform="translate(0,0)"></path>
<path d="M 1040.16 760.901 C 1061.39 760.502 1092.37 784.904 1074.91 805.242 C 1053.97 813.042 1028.8 779.593 1040.16 760.901 z" fill="rgb(255,255,255)" transform="translate(0,0)"></path>
<path d="M 1108.97 551.598 C 1136.85 550.095 1162.89 576.108 1172.97 600.131 C 1141.68 601.258 1119.23 579.593 1108.97 551.598 z" fill="rgb(59,62,115)" transform="translate(0,0)"></path>
<path d="M 1166.5 954.71 C 1170.93 958.213 1175.14 964.608 1179.69 968.341 C 1216.34 998.379 1259.51 998.405 1298.65 976.495 L 1290.41 984.799 C 1262.84 1008.51 1236.38 1010.13 1202.49 995.276 C 1185.48 987.819 1172.55 972.246 1166.5 954.71 z" fill="rgb(59,62,115)" transform="translate(0,0)"></path>
<path d="M 1167.1 555.815 C 1181.96 557.942 1215.15 578.42 1211.43 594.792 C 1197.1 595.04 1168.36 569.746 1167.1 555.815 z" fill="rgb(59,62,115)" transform="translate(0,0)"></path>
<path d="M 1144 611.609 C 1157.01 614.283 1183.08 631.607 1180.61 646.393 C 1168.77 641.856 1142.13 626.434 1144 611.609 z" fill="rgb(59,62,115)" transform="translate(0,0)"></path>
<path d="M 1082.65 508.003 C 1096.66 508.434 1126.57 519.623 1131.44 533.543 C 1119.9 531.717 1086.5 519.756 1082.65 508.003 z" fill="rgb(59,62,115)" transform="translate(0,0)"></path>
<path d="M 1192.52 618.55 C 1194.59 619.157 1196.6 619.963 1198.52 620.959 C 1211.23 627.567 1218.44 636.397 1223.09 649.66 C 1209.86 648.087 1194.31 631.873 1192.52 618.55 z" fill="rgb(59,62,115)" transform="translate(0,0)"></path>
<path d="M 1235.76 662.81 C 1250.38 662.891 1258.9 675.834 1259.35 689.439 C 1249.05 683.859 1238.89 674.344 1235.76 662.81 z" fill="rgb(59,62,115)" transform="translate(0,0)"></path>
<path d="M 1253.64 646.303 C 1265.5 649.031 1274.67 659.042 1275.43 671.315 C 1265.44 669.621 1254.13 656.715 1253.64 646.303 z" fill="rgb(59,62,115)" transform="translate(0,0)"></path>
<path d="M 1224.82 611.673 C 1237.4 612.755 1247.03 621.516 1249.84 633.743 C 1239.88 633.827 1229.36 619.715 1224.82 611.673 z" fill="rgb(59,62,115)" transform="translate(0,0)"></path>
<path d="M 784.264 941.086 C 750.302 898.548 720.996 823.852 719.738 769.575 C 717.834 687.374 764.353 608.841 819.799 550.948 C 847.619 521.901 884.55 492.333 924.51 482.264 C 933.051 480.112 957.585 479.136 967.022 478.876 C 966.053 483.867 967.02 483.222 963.963 485.683 C 957.815 486.772 955.405 485.617 949.633 486.832 C 891.265 491.451 830.449 549.358 796.178 595.048 C 759.723 643.652 727.482 712.955 731.687 774.95 C 735.009 823.94 757.147 884.357 786.95 923.899 C 783.939 928.83 785.809 934.816 784.264 941.086 z" fill="rgb(255,255,255)" transform="translate(0,0)"></path>
<path d="M 1119.01 268.726 C 1141.89 269.866 1165.34 274.924 1188.48 280.084 C 1317.65 308.88 1441.39 372.535 1538.81 462.252 C 1540.11 463.443 1541.16 465.405 1541.78 466.983 C 1542.19 475.88 1548.62 491.7 1552.4 499.89 C 1557.28 508.479 1562.43 515.839 1568.34 523.724 C 1576.7 532.224 1583.85 539.26 1593.02 546.974 C 1607.74 556.731 1624.01 563.929 1641.13 568.265 C 1665.31 594.616 1704.49 670.052 1719.3 703.841 C 1696.01 709.685 1675.78 716.068 1655.84 729.863 C 1617.07 756.677 1597.71 798.821 1588.96 843.939 C 1587.41 851.955 1585.51 865.652 1582.95 872.802 C 1578.13 868.614 1545.86 852.287 1537.81 848.243 C 1505.22 831.886 1471.86 815.987 1439.22 799.664 C 1420.25 790.174 1394.55 779.609 1376.85 768.962 L 1386.59 744.708 C 1387.47 730.581 1383.26 721.703 1376.4 710.125 C 1359.98 691.796 1342.83 690.596 1320.2 690.916 C 1307.91 667.581 1298.79 651.311 1284.48 629.366 C 1280.75 625.854 1265.95 606.092 1262.23 601.256 C 1247.42 584.608 1237.71 574.062 1220.75 559.367 C 1213.35 552.956 1184.69 533.015 1180.75 528.104 C 1176.45 527.468 1144.84 506.06 1133.9 501.72 C 1055.88 468.953 1014.09 462.664 929.042 468.162 C 930.6 461.046 944.939 432.634 948.93 423.755 C 960.137 398.423 971.518 373.169 983.07 347.992 C 988.836 335.31 995.01 320.385 1001.73 308.492 C 1014.42 311.343 1031.54 312.1 1044.28 309.408 C 1056.96 306.501 1067.59 303.846 1079.76 299.176 C 1094.15 291.177 1108.71 281.916 1119.01 268.726 z" fill="rgb(255,255,255)" transform="translate(0,0)"></path>
<path d="M 1568.34 523.724 C 1576.7 532.224 1583.85 539.26 1593.02 546.974 C 1607.74 556.731 1624.01 563.929 1641.13 568.265 C 1665.31 594.616 1704.49 670.052 1719.3 703.841 C 1696.01 709.685 1675.78 716.068 1655.84 729.863 C 1617.07 756.677 1597.71 798.821 1588.96 843.939 C 1587.41 851.955 1585.51 865.652 1582.95 872.802 C 1578.13 868.614 1545.86 852.287 1537.81 848.243 C 1505.22 831.886 1471.86 815.987 1439.22 799.664 C 1420.25 790.174 1394.55 779.609 1376.85 768.962 L 1386.59 744.708 C 1387.47 730.581 1383.26 721.703 1376.4 710.125 C 1419.41 665.933 1466.78 623.201 1511.05 580.236 C 1521.49 570.106 1561.63 533.546 1568.34 523.724 z" fill="rgb(255,255,255)" transform="translate(0,0)"></path>
<path d="M 1568.34 523.724 C 1576.7 532.224 1583.85 539.26 1593.02 546.974 C 1583.94 560.163 1392.29 742.822 1386.59 744.708 C 1387.47 730.581 1383.26 721.703 1376.4 710.125 C 1419.41 665.933 1466.78 623.201 1511.05 580.236 C 1521.49 570.106 1561.63 533.546 1568.34 523.724 z" fill="rgb(247,139,151)" transform="translate(0,0)"></path>
<path d="M 1284.48 629.366 C 1296.7 622.257 1320.41 613.011 1334.16 606.5 L 1462.01 545.009 C 1489.23 532.143 1527.55 515.938 1552.4 499.89 C 1557.28 508.479 1562.43 515.839 1568.34 523.724 C 1561.63 533.546 1521.49 570.106 1511.05 580.236 C 1466.78 623.201 1419.41 665.933 1376.4 710.125 C 1359.98 691.796 1342.83 690.596 1320.2 690.916 C 1307.91 667.581 1298.79 651.311 1284.48 629.366 z" fill="rgb(255,255,255)" transform="translate(0,0)"></path>
<path d="M 1001.73 308.492 C 1014.42 311.343 1031.54 312.1 1044.28 309.408 C 1046.86 311.138 1048.07 313.753 1049.37 316.591 C 1068.61 358.793 1087.69 401.21 1107.09 443.333 L 1125.58 483.08 C 1127.45 487.003 1133.26 498.053 1133.9 501.72 C 1055.88 468.953 1014.09 462.664 929.042 468.162 C 930.6 461.046 944.939 432.634 948.93 423.755 C 960.137 398.423 971.518 373.169 983.07 347.992 C 988.836 335.31 995.01 320.385 1001.73 308.492 z" fill="rgb(255,255,255)" transform="translate(0,0)"></path>
<path d="M 1262.23 601.256 C 1270.05 599.07 1316.43 575.388 1327.63 570.147 L 1431.86 520.446 C 1469.76 502.383 1504.19 486.444 1541.78 466.983 C 1542.19 475.88 1548.62 491.7 1552.4 499.89 C 1527.55 515.938 1489.23 532.143 1462.01 545.009 L 1334.16 606.5 C 1320.41 613.011 1296.7 622.257 1284.48 629.366 C 1280.75 625.854 1265.95 606.092 1262.23 601.256 z" fill="rgb(247,139,151)" transform="translate(0,0)"></path>
<path d="M 1044.28 309.408 C 1056.96 306.501 1067.59 303.846 1079.76 299.176 C 1079.86 309.221 1096.13 339.531 1101.75 351.297 C 1118.76 387.223 1135.53 423.261 1152.07 459.408 C 1159.49 475.512 1177.76 513.12 1180.75 528.104 C 1176.45 527.468 1144.84 506.06 1133.9 501.72 C 1133.26 498.053 1127.45 487.003 1125.58 483.08 L 1107.09 443.333 C 1087.69 401.21 1068.61 358.793 1049.37 316.591 C 1048.07 313.753 1046.86 311.138 1044.28 309.408 z" fill="rgb(247,139,151)" transform="translate(0,0)"></path>
<path d="M 888.643 1468.35 C 896.434 1462.67 903.995 1456.84 911.837 1451.16 C 918.577 1446.28 930.364 1444.65 936.226 1438.2 C 952.569 1420.22 968.097 1400.54 984.515 1382.46 C 991.208 1375.09 995.455 1366.64 1002.7 1359.63 C 1015.11 1374.98 1015.21 1383.81 1022.68 1401.76 C 1026.57 1411.1 1031.35 1421.18 1035.39 1430.15 C 1039.07 1438.31 1031.1 1443.78 1037.05 1456.09 C 1045.43 1473.45 1058.42 1481.45 1072.21 1493.64 C 1078.48 1499.19 1085.57 1507.8 1092.28 1513.94 C 1103.78 1524.46 1114.54 1532.05 1127.12 1540.89 C 1135.65 1546.18 1145.66 1552.3 1154.86 1556.23 C 1136.4 1590.8 1119.1 1632.63 1102.69 1668.61 C 1094.4 1686.79 1078.4 1717.45 1072.19 1735.2 C 1061.7 1731.31 1053.26 1729.39 1042.35 1727.15 C 1028.45 1725.72 1017.31 1725.42 1003.44 1726.95 C 992.77 1729.13 984.206 1731.53 974.113 1735.83 C 960.271 1742.55 945.974 1753.87 935.631 1760.73 C 929.508 1764.8 877.434 1753.45 868.289 1751.6 C 732.055 1724.04 610.176 1657.04 505.817 1568.08 C 503.095 1561.06 500.541 1553.98 498.158 1546.84 C 494.562 1538.53 487.939 1529.28 482.702 1521.94 C 495.73 1512.28 516.865 1502.68 531.463 1494.45 C 548.026 1485.12 562.936 1475.98 580.682 1468.94 C 588.238 1478.87 591.248 1481.81 601.759 1488.49 C 613.43 1493.44 618.31 1492.54 629.72 1488.32 C 642.255 1497.75 670.319 1505.82 685.535 1510.08 C 692.037 1512.71 708.606 1513.54 714.17 1516.49 C 734.132 1527.09 758.696 1536.96 776.061 1513.48 C 811.067 1504.6 827.311 1499.39 860.363 1484.44 C 868.181 1479.31 879.254 1474.46 888.643 1468.35 z" fill="rgb(255,255,255)" transform="translate(0,0)"></path>
<path d="M 888.643 1468.35 C 896.434 1462.67 903.995 1456.84 911.837 1451.16 C 918.577 1446.28 930.364 1444.65 936.226 1438.2 C 952.569 1420.22 968.097 1400.54 984.515 1382.46 C 991.208 1375.09 995.455 1366.64 1002.7 1359.63 C 1015.11 1374.98 1015.21 1383.81 1022.68 1401.76 C 1026.57 1411.1 1031.35 1421.18 1035.39 1430.15 C 1039.07 1438.31 1031.1 1443.78 1037.05 1456.09 C 1045.43 1473.45 1058.42 1481.45 1072.21 1493.64 C 1078.48 1499.19 1085.57 1507.8 1092.28 1513.94 C 1103.78 1524.46 1114.54 1532.05 1127.12 1540.89 C 1135.65 1546.18 1145.66 1552.3 1154.86 1556.23 C 1136.4 1590.8 1119.1 1632.63 1102.69 1668.61 C 1094.4 1686.79 1078.4 1717.45 1072.19 1735.2 C 1061.7 1731.31 1053.26 1729.39 1042.35 1727.15 C 1028.45 1725.72 1017.31 1725.42 1003.44 1726.95 C 992.77 1729.13 984.206 1731.53 974.113 1735.83 L 904.347 1581.65 C 890.543 1550.94 875.007 1514.25 860.363 1484.44 C 868.181 1479.31 879.254 1474.46 888.643 1468.35 z" fill="rgb(255,255,255)" transform="translate(0,0)"></path>
<path d="M 888.643 1468.35 C 913.214 1525.79 938.652 1582.85 964.948 1639.52 C 972.07 1655.12 1001.04 1713.93 1003.44 1726.95 C 992.77 1729.13 984.206 1731.53 974.113 1735.83 L 904.347 1581.65 C 890.543 1550.94 875.007 1514.25 860.363 1484.44 C 868.181 1479.31 879.254 1474.46 888.643 1468.35 z" fill="rgb(247,139,151)" transform="translate(0,0)"></path>
<path d="M 1127.12 1540.89 C 1135.65 1546.18 1145.66 1552.3 1154.86 1556.23 C 1136.4 1590.8 1119.1 1632.63 1102.69 1668.61 C 1094.4 1686.79 1078.4 1717.45 1072.19 1735.2 C 1061.7 1731.31 1053.26 1729.39 1042.35 1727.15 C 1047.27 1710.53 1068.12 1667.83 1076.31 1650.44 C 1092.41 1616.25 1109.22 1573.61 1127.12 1540.89 z" fill="rgb(247,139,151)" transform="translate(0,0)"></path>
<path d="M 580.682 1468.94 C 588.238 1478.87 591.248 1481.81 601.759 1488.49 C 596.058 1493.76 508.294 1542.3 498.158 1546.84 C 494.562 1538.53 487.939 1529.28 482.702 1521.94 C 495.73 1512.28 516.865 1502.68 531.463 1494.45 C 548.026 1485.12 562.936 1475.98 580.682 1468.94 z" fill="rgb(247,139,151)" transform="translate(0,0)"></path>
<path d="M 623.851 840.581 C 631.117 921.87 688.291 983.088 748.017 1033.07 C 771.74 1052.83 796.982 1070.7 823.507 1086.51 C 835.35 1093.47 862.332 1107.68 872.177 1114.84 C 873.941 1120.74 875.547 1126.68 876.993 1132.67 C 880.012 1146 881.73 1159.59 882.123 1173.26 C 884.51 1218.58 874.986 1264.79 843.874 1299.49 C 839.399 1305.11 827.573 1318.28 821.818 1322.2 C 779.515 1360.62 736.622 1376.84 680.971 1360.31 C 671.319 1355.67 662.067 1350.23 653.31 1344.06 C 614.832 1316.58 582.517 1256.41 582.567 1209.08 C 580.883 1200.58 583.557 1181.65 584.89 1173.06 C 592.507 1126.54 621.014 1077.23 670.527 1065.8 C 704.902 1057.86 732.358 1089.59 735.493 1120.99 C 736.154 1127.6 736.017 1134.53 736.878 1141.13 C 739.047 1159.13 758.097 1158.53 764.117 1143.49 C 772.358 1122.91 768.87 1097.67 760.903 1077.47 C 752.629 1056.48 732.365 1036.81 711.66 1027.96 C 685.639 1016.87 655.532 1018.31 629.542 1028.75 C 614.666 1034.72 607.193 1040.73 594.527 1049.15 C 558.922 1072.83 540.335 1099.56 524.068 1138.78 C 520.762 1148.12 516.952 1158.23 514.2 1167.68 C 489.138 1159.26 452.617 1140.2 428.002 1128.27 C 389.069 1109.37 349.903 1090.96 310.513 1073.04 C 315.324 1062.88 319.804 1049.4 321.44 1038.29 C 324.322 1020.13 324.368 1004.42 319.861 986.324 C 397.606 951.086 473.733 912.767 550.636 875.802 C 575.147 864.02 599.541 852.945 623.851 840.581 z" fill="rgb(255,255,255)" transform="translate(0,0)"></path>
<path d="M 750.576 1253.58 C 761.282 1245.08 774.646 1231.35 784.762 1221.56 L 842.318 1166.63 C 853.58 1155.67 865.301 1142.64 876.993 1132.67 C 880.012 1146 881.73 1159.59 882.123 1173.26 C 884.51 1218.58 874.986 1264.79 843.874 1299.49 C 839.399 1305.11 827.573 1318.28 821.818 1322.2 C 779.515 1360.62 736.622 1376.84 680.971 1360.31 C 671.319 1355.67 662.067 1350.23 653.31 1344.06 C 614.832 1316.58 582.517 1256.41 582.567 1209.08 C 580.883 1200.58 583.557 1181.65 584.89 1173.06 C 592.317 1178.65 634.32 1197.63 645.465 1202.82 C 680.799 1219.12 715.841 1236.04 750.576 1253.58 z" fill="rgb(247,139,151)" transform="translate(0,0)"></path>
<path d="M 582.567 1209.08 C 594.639 1213.06 623.819 1228.61 636.817 1235.16 C 663.87 1248.79 698.151 1262.44 724.166 1276.53 C 701.28 1299.49 675.558 1320.94 653.31 1344.06 C 614.832 1316.58 582.517 1256.41 582.567 1209.08 z" fill="rgb(255,255,255)" transform="translate(0,0)"></path>
<path d="M 882.123 1173.26 C 884.51 1218.58 874.986 1264.79 843.874 1299.49 C 837.5 1296.96 828.745 1291.39 822.16 1288.27 C 808.428 1281.76 794.613 1275.43 780.963 1268.77 C 788.435 1258.96 806.955 1243.81 817.026 1234.45 L 882.123 1173.26 z" fill="rgb(255,255,255)" transform="translate(0,0)"></path>
<path d="M 755.87 1289.96 C 769.665 1299.23 805.269 1315.58 821.818 1322.2 C 779.515 1360.62 736.622 1376.84 680.971 1360.31 C 687.898 1350.16 699.423 1342.68 708.108 1334.37 C 722.801 1320.3 742.477 1304.58 755.87 1289.96 z" fill="rgb(255,255,255)" transform="translate(0,0)"></path>
<path d="M 321.44 1038.29 C 324.21 1043.8 365.617 1061.64 373.669 1065.46 L 468.171 1110.51 C 480.299 1116.17 515.538 1131.63 524.068 1138.78 C 520.762 1148.12 516.952 1158.23 514.2 1167.68 C 489.138 1159.26 452.617 1140.2 428.002 1128.27 C 389.069 1109.37 349.903 1090.96 310.513 1073.04 C 315.324 1062.88 319.804 1049.4 321.44 1038.29 z" fill="rgb(247,139,151)" transform="translate(0,0)"></path>
<path d="M 488.172 496.945 C 502.839 505.149 520.746 513.001 536.187 519.898 C 578.385 538.75 619.246 560.244 661.451 579.11 C 676.094 585.656 690.601 593.741 705.749 598.766 L 706.81 599.107 C 684.599 627.686 666.079 658.951 651.687 692.163 C 649.303 697.838 640.554 717.794 639.146 723.029 C 630.097 751.675 622.968 775.672 622.001 806.395 C 622.794 814.165 624.222 832.736 623.851 840.581 C 599.541 852.945 575.147 864.02 550.636 875.802 C 473.733 912.767 397.606 951.086 319.861 986.324 C 317.427 977.04 312.707 964.828 309.122 955.975 C 296.921 933.858 287.766 925.192 268.857 909.536 C 269.74 893.767 277.081 861.651 280.656 846.188 C 300.381 762.672 333.703 682.967 379.289 610.263 C 387.958 596.594 401.445 579.686 411.108 565.942 C 430.482 558.525 438.104 554.441 454.644 542.071 C 463.082 533.998 468.604 527.485 475.923 518.519 C 481.08 510.301 484.056 505.751 488.172 496.945 z" fill="rgb(255,255,255)" transform="translate(0,0)"></path>
<path d="M 488.172 496.945 C 502.839 505.149 520.746 513.001 536.187 519.898 C 578.385 538.75 619.246 560.244 661.451 579.11 C 676.094 585.656 690.601 593.741 705.749 598.766 L 706.81 599.107 C 684.599 627.686 666.079 658.951 651.687 692.163 C 619.581 657.045 580.661 621.502 546.829 587.236 C 525.775 565.912 498.117 537.665 475.923 518.519 C 481.08 510.301 484.056 505.751 488.172 496.945 z" fill="rgb(255,255,255)" transform="translate(0,0)"></path>
<path d="M 309.122 955.975 C 331.172 946.487 361.097 930.979 383.725 920.176 L 574.327 828.766 C 583.46 824.466 613.847 807.521 622.001 806.395 C 622.794 814.165 624.222 832.736 623.851 840.581 C 599.541 852.945 575.147 864.02 550.636 875.802 C 473.733 912.767 397.606 951.086 319.861 986.324 C 317.427 977.04 312.707 964.828 309.122 955.975 z" fill="rgb(247,139,151)" transform="translate(0,0)"></path>
<path d="M 475.923 518.519 C 498.117 537.665 525.775 565.912 546.829 587.236 C 580.661 621.502 619.581 657.045 651.687 692.163 C 649.303 697.838 640.554 717.794 639.146 723.029 C 627.137 709.689 602.711 687.675 588.95 674.222 L 506.923 593.533 C 489.099 576.073 472.101 560.134 454.644 542.071 C 463.082 533.998 468.604 527.485 475.923 518.519 z" fill="rgb(247,139,151)" transform="translate(0,0)"></path>
<path d="M 501.119 469.791 C 523.084 453.004 544.765 429.965 568.178 412.707 C 674.597 334.564 799.022 284.552 929.918 267.306 C 939.903 280.566 955.638 290.309 969.816 298.483 C 980.85 302.622 990.083 306.17 1001.73 308.492 C 995.01 320.385 988.836 335.31 983.07 347.992 C 971.518 373.169 960.137 398.423 948.93 423.755 C 944.939 432.634 930.6 461.046 929.042 468.162 C 916.711 470.56 904.403 473.075 892.119 475.704 C 833.117 487.258 765.704 530.526 726.836 576.044 C 720.187 583.688 713.35 591.39 706.81 599.107 L 705.749 598.766 C 690.601 593.741 676.094 585.656 661.451 579.11 C 619.246 560.244 578.385 538.75 536.187 519.898 C 520.746 513.001 502.839 505.149 488.172 496.945 C 490.777 489.77 494.547 476.353 497.644 470.31 L 501.119 469.791 z" fill="rgb(255,255,255)" transform="translate(0,0)"></path>
<path d="M 488.172 496.945 C 490.777 489.77 494.547 476.353 497.644 470.31 L 501.119 469.791 C 515.765 471.65 590.91 510.077 608.564 518.675 L 726.836 576.044 C 720.187 583.688 713.35 591.39 706.81 599.107 L 705.749 598.766 C 690.601 593.741 676.094 585.656 661.451 579.11 C 619.246 560.244 578.385 538.75 536.187 519.898 C 520.746 513.001 502.839 505.149 488.172 496.945 z" fill="rgb(247,139,151)" transform="translate(0,0)"></path>
<path d="M 969.816 298.483 C 980.85 302.622 990.083 306.17 1001.73 308.492 C 995.01 320.385 988.836 335.31 983.07 347.992 C 971.518 373.169 960.137 398.423 948.93 423.755 C 944.939 432.634 930.6 461.046 929.042 468.162 C 916.711 470.56 904.403 473.075 892.119 475.704 C 894.09 465.745 913.092 427.238 918.234 415.765 L 969.816 298.483 z" fill="rgb(247,139,151)" transform="translate(0,0)"></path>
<path d="M 310.513 1073.04 C 349.903 1090.96 389.069 1109.37 428.002 1128.27 C 452.617 1140.2 489.138 1159.26 514.2 1167.68 C 513.193 1171.19 509.512 1185.25 508.099 1186.42 C 498.999 1193.99 497.381 1196.62 494.689 1208.85 C 492.622 1218.23 496.477 1225.8 496.606 1235.13 C 494.67 1280.78 495.163 1344.96 520.024 1384.88 L 519.864 1387.19 C 531.933 1392.63 534.275 1402.42 541.448 1412.74 C 544.275 1416.68 556.523 1434.41 559.068 1437.27 C 564.711 1443.16 571.904 1450.38 577.675 1456.24 C 578.923 1457.51 577.122 1462.34 580.682 1468.94 C 562.936 1475.98 548.026 1485.12 531.463 1494.45 C 516.865 1502.68 495.73 1512.28 482.702 1521.94 C 480.07 1519.54 477.082 1515.82 474.704 1513.05 C 465.498 1503.76 458.051 1498.44 447.119 1491.17 C 439.745 1486.51 429.1 1482.83 423.698 1476.34 C 350.968 1388.89 299.468 1279.65 275.857 1168.54 C 273.117 1155.65 268.821 1134.94 268.973 1122.38 C 289.933 1105.3 297.264 1097.04 310.513 1073.04 z" fill="rgb(255,255,255)" transform="translate(0,0)"></path>
<path d="M 541.448 1412.74 C 544.275 1416.68 556.523 1434.41 559.068 1437.27 C 564.711 1443.16 571.904 1450.38 577.675 1456.24 C 578.923 1457.51 577.122 1462.34 580.682 1468.94 C 562.936 1475.98 548.026 1485.12 531.463 1494.45 C 516.865 1502.68 495.73 1512.28 482.702 1521.94 C 480.07 1519.54 477.082 1515.82 474.704 1513.05 C 465.498 1503.76 458.051 1498.44 447.119 1491.17 C 476.222 1468.93 511.969 1432.79 541.448 1412.74 z" fill="rgb(247,139,151)" transform="translate(0,0)"></path>
<path d="M 474.704 1513.05 C 496.38 1495.84 516.875 1473.26 538.537 1455.63 C 544.497 1450.78 552.823 1440.37 559.068 1437.27 C 564.711 1443.16 571.904 1450.38 577.675 1456.24 C 578.923 1457.51 577.122 1462.34 580.682 1468.94 C 562.936 1475.98 548.026 1485.12 531.463 1494.45 C 516.865 1502.68 495.73 1512.28 482.702 1521.94 C 480.07 1519.54 477.082 1515.82 474.704 1513.05 z" fill="rgb(255,255,255)" transform="translate(0,0)"></path>
<path d="M 1365.73 782.636 C 1371.18 777.31 1372.78 775.344 1376.85 768.962 C 1394.55 779.609 1420.25 790.174 1439.22 799.664 C 1471.86 815.987 1505.22 831.886 1537.81 848.243 C 1545.86 852.287 1578.13 868.614 1582.95 872.802 C 1583.58 879.336 1581.12 901.983 1580.15 909.959 C 1580.87 925.037 1579.13 940.67 1580.25 956.516 C 1585.03 1024.72 1591.62 1106.65 1506.15 1123.91 C 1504.25 1124.3 1498.99 1123.91 1496.73 1123.78 C 1453.66 1126.14 1385.83 1083.91 1358.08 1051.27 C 1351.27 1045.4 1343.43 1035.79 1337.4 1028.85 C 1345.71 993.86 1356.85 920.996 1348.87 886.691 C 1367.03 864.365 1371.1 849.838 1372.21 821.516 C 1372.46 803.802 1372.92 798.793 1365.73 782.636 z" fill="rgb(255,255,255)" transform="translate(0,0)"></path>
<path d="M 1365.73 782.636 C 1371.18 777.31 1372.78 775.344 1376.85 768.962 C 1394.55 779.609 1420.25 790.174 1439.22 799.664 C 1471.86 815.987 1505.22 831.886 1537.81 848.243 C 1545.86 852.287 1578.13 868.614 1582.95 872.802 C 1583.58 879.336 1581.12 901.983 1580.15 909.959 C 1526.53 881.378 1472.39 855.389 1417.46 829.434 C 1402.82 822.517 1386.71 815.714 1372.88 807.528 C 1373.01 813.23 1372.88 815.85 1372.21 821.516 C 1372.46 803.802 1372.92 798.793 1365.73 782.636 z" fill="rgb(247,139,151)" transform="translate(0,0)"></path>
<path d="M 1358.08 1051.27 C 1366.46 1054.02 1399.93 1072.79 1410.01 1078.24 C 1438.64 1093.93 1467.55 1109.11 1496.73 1123.78 C 1453.66 1126.14 1385.83 1083.91 1358.08 1051.27 z" fill="rgb(247,139,151)" transform="translate(0,0)"></path>
<path d="M 1727.52 1038.21 C 1729.66 1047.09 1731.59 1054.13 1734.84 1062.71 C 1735.26 1063.83 1739.23 1073.93 1739.3 1074.24 C 1751.19 1098.3 1760.61 1106.37 1779.89 1123.29 C 1764.08 1215.13 1741.05 1295.76 1695.78 1377.6 C 1677.43 1410.77 1662.7 1438.07 1637.97 1467.92 C 1630.09 1465.23 1622.33 1462.21 1614.71 1458.87 C 1602.41 1398.53 1574.72 1348.05 1529.63 1305.96 C 1525.33 1301.94 1520.16 1297.46 1516.24 1293.14 C 1592.84 1278.81 1654.18 1218.03 1671.26 1142.08 C 1674.28 1128.66 1675.16 1117.66 1676.06 1104.05 C 1676.07 1090.92 1675.93 1077.79 1675.63 1064.66 C 1686.58 1056.9 1723.61 1043.95 1727.52 1038.21 z" fill="rgb(255,255,255)" transform="translate(0,0)"></path>
<path d="M 1727.52 1038.21 C 1729.66 1047.09 1731.59 1054.13 1734.84 1062.71 C 1735.26 1063.83 1739.23 1073.93 1739.3 1074.24 C 1718.19 1083.87 1697.06 1095.7 1676.06 1104.05 C 1676.07 1090.92 1675.93 1077.79 1675.63 1064.66 C 1686.58 1056.9 1723.61 1043.95 1727.52 1038.21 z" fill="rgb(247,139,151)" transform="translate(0,0)"></path>
<path d="M 1751.52 1070.82 C 1722.53 1016.23 1742.87 948.475 1797.14 918.878 C 1851.4 889.28 1919.38 908.865 1949.58 962.798 C 1969.42 998.225 1968.69 1041.58 1947.67 1076.32 C 1926.65 1111.06 1888.58 1131.82 1848 1130.68 C 1807.41 1129.55 1770.56 1106.69 1751.52 1070.82 z" fill="rgb(247,139,151)" transform="translate(0,0)"></path>
<path d="M 1751.52 1070.82 C 1722.53 1016.23 1742.87 948.475 1797.14 918.878 C 1851.4 889.28 1919.38 908.865 1949.58 962.798 L 1948.25 963.062 C 1881.66 881.178 1758.47 923.907 1747.5 1025.89 C 1746.45 1035.62 1747.52 1045.25 1749.09 1054.86 C 1749.82 1059.55 1751.98 1066.6 1751.52 1070.82 z" fill="rgb(255,255,255)" transform="translate(0,0)"></path>
<path d="M 282.859 511.959 C 279.767 508.337 277.016 504.435 274.644 500.305 C 260.415 475.427 254.986 442.431 262.595 414.576 C 270.651 385.277 290.133 360.439 316.669 345.635 C 369.038 316.205 438.163 334.133 467.647 386.575 C 473.46 394.252 477.977 406.514 480.666 415.806 C 502.855 492.497 434.554 568.235 355.789 556.161 C 326.678 551.413 300.539 535.57 282.859 511.959 z" fill="rgb(247,139,151)" transform="translate(0,0)"></path>
<path d="M 282.859 511.959 C 279.767 508.337 277.016 504.435 274.644 500.305 C 260.415 475.427 254.986 442.431 262.595 414.576 C 270.651 385.277 290.133 360.439 316.669 345.635 C 369.038 316.205 438.163 334.133 467.647 386.575 C 464.597 385.978 452.505 373.054 448.86 370.215 C 392.744 326.513 306.193 352.449 280.141 417.967 C 268.057 448.356 268.053 474.625 280.897 504.81 C 281.993 507.364 283.044 509.208 282.859 511.959 z" fill="rgb(255,255,255)" transform="translate(0,0)"></path>
<path d="M 101.982 1073.67 C 71.9961 1022.38 87.2359 956.6 136.722 923.722 C 186.209 890.845 252.752 902.287 288.414 949.806 C 313.375 983.067 317.872 1027.41 300.097 1065.01 C 282.323 1102.6 245.197 1127.27 203.652 1129.08 C 162.107 1130.9 122.97 1109.57 101.982 1073.67 z" fill="rgb(247,139,151)" transform="translate(0,0)"></path>
<path d="M 101.982 1073.67 C 71.9961 1022.38 87.2359 956.6 136.722 923.722 C 186.209 890.845 252.752 902.287 288.414 949.806 C 283.983 950.692 275.574 940.657 270.24 937.407 C 247.296 923.424 218.134 916.834 191.605 921.813 C 162.019 927.303 135.858 944.396 118.948 969.286 C 101.236 995.423 91.1452 1025.51 98.2376 1056.71 C 98.96 1059.89 102.021 1071.6 101.982 1073.67 z" fill="rgb(255,255,255)" transform="translate(0,0)"></path>
<path d="M 1572.33 504.525 C 1549.13 469.62 1547.6 424.606 1568.4 388.213 C 1589.2 351.819 1628.75 330.277 1670.6 332.549 C 1712.46 334.821 1749.45 360.519 1766.18 398.95 C 1789.1 451.591 1768.01 513.02 1717.59 540.481 C 1667.17 567.942 1604.12 552.336 1572.33 504.525 z" fill="rgb(247,139,151)" transform="translate(0,0)"></path>
<path d="M 1572.33 504.525 C 1549.13 469.62 1547.6 424.606 1568.4 388.213 C 1589.2 351.819 1628.75 330.277 1670.6 332.549 C 1712.46 334.821 1749.45 360.519 1766.18 398.95 C 1762.02 397.907 1750.37 383.4 1746.4 379.456 C 1719.07 351.934 1678.68 341.914 1641.65 353.463 C 1612.16 362.896 1590.26 383.243 1576.36 410.772 C 1565.14 433.01 1561.91 458.425 1567.2 482.763 C 1568.13 486.979 1572.41 501.485 1572.33 504.525 z" fill="rgb(255,255,255)" transform="translate(0,0)"></path>
<path d="M 285.302 1647.36 C 260.683 1597.4 277.005 1536.92 323.419 1506.13 C 369.834 1475.35 431.894 1483.82 468.351 1525.93 C 496.466 1558.41 503.265 1604.21 485.794 1643.45 C 468.324 1682.69 429.736 1708.29 386.79 1709.13 C 343.844 1709.96 304.288 1685.89 285.302 1647.36 z" fill="rgb(247,139,151)" transform="translate(0,0)"></path>
<path d="M 285.302 1647.36 C 260.683 1597.4 277.005 1536.92 323.419 1506.13 C 369.834 1475.35 431.894 1483.82 468.351 1525.93 C 464.704 1525.5 449.297 1515.59 443.611 1513.05 C 408.381 1497.1 367.414 1500.46 335.251 1521.93 C 307.498 1540.67 290.999 1568.71 284.876 1601.35 C 282.935 1611.45 282.486 1621.79 283.545 1632.03 C 283.923 1635.54 285.452 1644.55 285.302 1647.36 z" fill="rgb(255,255,255)" transform="translate(0,0)"></path>
<path d="M 928.429 242.756 C 899.284 192.372 914.173 128.021 962.487 95.5597 C 1010.8 63.0982 1076.01 73.6345 1111.64 119.66 C 1136.92 152.312 1141.9 196.325 1124.57 233.804 C 1107.23 271.282 1070.47 295.985 1029.22 297.868 C 987.969 299.751 949.105 278.5 928.429 242.756 z" fill="rgb(247,139,151)" transform="translate(0,0)"></path>
<path d="M 928.429 242.756 C 899.284 192.372 914.173 128.021 962.487 95.5597 C 1010.8 63.0982 1076.01 73.6345 1111.64 119.66 C 1111.31 119.582 1110.99 119.504 1110.66 119.426 C 1076.56 92.5271 1036.84 82.0543 995.144 98.7509 C 946.588 118.194 914.71 170.524 924.489 222.798 C 925.311 227.192 928.444 238.898 928.429 242.756 z" fill="rgb(255,255,255)" transform="translate(0,0)"></path>
<path d="M 945.375 1928.43 C 904.741 1887.76 902.169 1822.69 939.466 1778.94 C 976.763 1735.19 1041.41 1727.44 1088 1761.13 C 1121.63 1785.45 1138.76 1826.59 1132.32 1867.59 C 1125.89 1908.59 1096.97 1942.5 1057.51 1955.35 C 1018.04 1968.19 974.709 1957.79 945.375 1928.43 z" fill="rgb(247,139,151)" transform="translate(0,0)"></path>
<path d="M 945.375 1928.43 C 904.741 1887.76 902.169 1822.69 939.466 1778.94 C 976.763 1735.19 1041.41 1727.44 1088 1761.13 C 1079.62 1760.38 1068.77 1755.8 1059.57 1754.14 C 1026.76 1748.04 992.912 1756.17 966.456 1776.5 C 926.179 1807.22 909.561 1865.25 934.343 1910.59 C 937.638 1916.62 942.455 1922.75 945.375 1928.43 z" fill="rgb(255,255,255)" transform="translate(0,0)"></path>
<path d="M 1335.03 1043.55 C 1361.6 1071.89 1382.8 1093.17 1418.57 1111.15 C 1447.9 1125.27 1489.31 1142.14 1521.92 1130.23 C 1609.9 1098.1 1591.26 1011.67 1589.98 938.445 C 1589.1 887.651 1596.2 832.401 1619.26 787.602 C 1638.49 750.265 1666.85 728.681 1706.77 717.158 C 1736.61 708.003 1765.47 706.354 1793.71 721.425 C 1803.64 725.973 1810.21 731.747 1817.24 740.089 C 1823.44 748.936 1824.88 752.739 1827.97 763.121 C 1821.79 755.377 1818.93 752.192 1811.99 745.373 C 1804.06 738.984 1799.21 737.157 1789.91 733.496 C 1780.84 732.017 1774.01 727.181 1763.49 726.498 C 1702.45 722.533 1648.91 756.308 1630.11 814.827 C 1602.59 900.439 1643.17 983.511 1635.01 1069.96 C 1631.13 1111.07 1605.04 1150.68 1573.67 1176.33 C 1538.64 1204.33 1497.73 1210.29 1454.06 1205.81 C 1416.88 1202 1383.78 1187.98 1354.11 1165.53 C 1350.62 1162.89 1337.31 1152.52 1335.49 1149.1 C 1322.26 1124.21 1330.49 1069.25 1335.03 1043.55 z" fill="rgb(137,212,234)" transform="translate(0,0)"></path>
<path d="M 1793.71 721.425 C 1803.64 725.973 1810.21 731.747 1817.24 740.089 C 1823.44 748.936 1824.88 752.739 1827.97 763.121 C 1821.79 755.377 1818.93 752.192 1811.99 745.373 C 1804.06 738.984 1799.21 737.157 1789.91 733.496 C 1794.38 732.981 1798.18 734.844 1802.04 736.933 C 1804.9 735.548 1804.9 734.818 1806.45 732.003 C 1802.19 727.927 1797.95 725.696 1792.93 722.646 L 1793.71 721.425 z" fill="rgb(255,255,255)" transform="translate(0,0)"></path>
<path d="M 1154.86 1556.23 L 1156.01 1556.82 C 1173.5 1565.97 1184.44 1579.55 1207.32 1574.35 C 1225.92 1583.22 1240.78 1587.09 1259.43 1594.11 C 1303.17 1610.59 1357.85 1634.2 1383.68 1675.05 C 1365.36 1683.62 1346.25 1693.4 1327.95 1701.26 C 1268.5 1726.77 1206.79 1746.52 1142.97 1757.53 C 1133.23 1759.21 1122.71 1760.24 1113.1 1762.24 C 1098.33 1750.3 1089.83 1743.21 1072.19 1735.2 C 1078.4 1717.45 1094.4 1686.79 1102.69 1668.61 C 1119.1 1632.63 1136.4 1590.8 1154.86 1556.23 z" fill="rgb(255,255,255)" transform="translate(0,0)"></path>
<path d="M 1033.96 1311.68 C 1048.22 1286.98 1058.02 1270.5 1067.49 1243.13 C 1072.05 1229.95 1074.87 1217.52 1078.95 1204.95 C 1082.01 1224.2 1083.24 1243.45 1086.94 1262.87 C 1104.72 1356.43 1135.01 1446.41 1214.76 1505.08 C 1279.91 1553 1357.08 1564.58 1406.66 1633.31 C 1421.12 1653.37 1431.51 1675.64 1435.74 1700.1 C 1438.82 1717.94 1438.8 1746.78 1431.29 1763.45 C 1424.94 1761.13 1420.19 1760.01 1413.63 1758.42 C 1419.53 1727.92 1410.53 1699.63 1394.73 1673.61 C 1361.32 1618.59 1274.42 1584.02 1213.75 1569.93 C 1223.59 1544.54 1187.46 1522.37 1166.9 1533.47 C 1161.6 1536.34 1159.49 1543.64 1158.44 1549.3 C 1150.03 1545.19 1141.81 1540.7 1133.8 1535.86 C 1122.98 1529.27 1085.46 1501.3 1082.58 1489.28 L 1084.33 1486.68 C 1079.37 1485.55 1078.18 1484.82 1073.49 1482.55 C 1064.27 1477.86 1061.19 1474.49 1054.11 1467.23 C 1036.34 1449.04 1038.81 1427.88 1067.95 1440.36 C 1075.64 1443.65 1092.97 1460.2 1090.29 1470.2 C 1087.53 1473.14 1089.14 1472.17 1085.33 1473.3 C 1071.88 1471.18 1064.02 1451.13 1054.79 1445.38 L 1053.22 1445.83 C 1051.23 1455.08 1066.44 1468.68 1072.75 1474.43 L 1087.09 1484.61 C 1101.28 1473.54 1102.58 1462.68 1091.28 1447.26 C 1080.92 1433.13 1061.2 1426.38 1044.04 1430.42 C 1033.97 1409.12 1028.61 1395.36 1020.63 1373.09 C 1028.14 1372.13 1032.48 1372 1037.36 1365.53 C 1048.91 1350.2 1045.16 1325.76 1033.96 1311.68 z" fill="rgb(247,139,151)" transform="translate(0,0)"></path>
<path d="M 1335.75 1162.93 C 1370.6 1191.14 1404.52 1208.41 1450.07 1213.19 C 1499.46 1218.36 1542.68 1210.56 1581.93 1178.42 C 1600.05 1163.58 1610.38 1149.31 1621.95 1129.14 C 1671.34 1043.09 1618.1 945.852 1628.95 854.182 C 1633.33 817.211 1645.03 783.461 1675.36 759.673 C 1701.84 738.908 1734.56 731.509 1767.45 735.27 C 1764.73 736.688 1764.02 737.305 1760.97 737.758 C 1725.07 739.227 1698.13 752.966 1673.2 779.596 C 1644.3 810.476 1636.4 854.762 1637.8 895.986 C 1638.77 924.537 1648.33 956.237 1653.59 984.191 C 1667.51 1040.24 1672.13 1100.51 1656.21 1156.66 C 1650.56 1176.58 1636.62 1206.31 1622.43 1222.04 C 1614.44 1232.84 1605.52 1240.48 1595.07 1248.94 C 1544.37 1286.02 1490.38 1295.61 1430.33 1281.21 C 1420.69 1278.9 1383.38 1268.69 1377.63 1261.26 C 1378.27 1259.58 1379.41 1257.28 1378.55 1255.54 C 1363.59 1225.22 1343.87 1196.28 1335.75 1162.93 z" fill="rgb(247,139,151)" transform="translate(0,0)"></path>
<path d="M 1449.28 1247.16 C 1464.04 1246.08 1486.34 1245.61 1492.94 1261.97 C 1497.33 1272.86 1480.46 1278.58 1473.1 1280.11 C 1463.68 1280.86 1448.67 1281.05 1440.12 1277.13 C 1412.69 1264.57 1430.34 1251.41 1449.28 1247.16 z" fill="rgb(59,62,115)" transform="translate(0,0)"></path>
<path d="M 1445.49 1255.27 C 1447.67 1255.06 1449.86 1254.92 1452.04 1254.84 C 1461.71 1254.42 1475.55 1256.01 1482.85 1262.74 C 1483.86 1265.89 1483.95 1264.39 1482.54 1267.4 C 1479.26 1270.32 1476.37 1270.8 1472.17 1272.1 C 1463.64 1273.5 1434.1 1273.3 1433.63 1261.88 C 1436.48 1257.73 1440.81 1256.59 1445.49 1255.27 z" fill="rgb(247,139,151)" transform="translate(0,0)"></path>
<path d="M 1585.39 1248.44 C 1578.69 1248.11 1569.09 1245.58 1570.74 1236.91 C 1574.02 1219.7 1595.25 1197.14 1613.67 1198.1 C 1621.38 1198.5 1622.08 1207.7 1621.01 1213.66 C 1615.42 1230.87 1601.93 1242.13 1585.39 1248.44 z" fill="rgb(59,62,115)" transform="translate(0,0)"></path>
<path d="M 1603.48 1208.03 C 1607.01 1207.72 1608.79 1207.18 1611.91 1208.81 C 1618.61 1219.15 1594.6 1236.68 1586.5 1240.87 C 1581.71 1241.3 1580.23 1241.81 1577.51 1237.58 C 1577.43 1225.65 1593.53 1212.71 1603.48 1208.03 z" fill="rgb(247,139,151)" transform="translate(0,0)"></path>
<path d="M 1648.56 917.859 C 1643.63 869.954 1644.2 829.994 1676.29 790.003 C 1695.16 766.484 1713.77 757.889 1741.62 749.903 C 1755.37 786.121 1778.39 872.531 1779.39 911.499 C 1755.06 933.024 1753.98 936.085 1736.48 963.987 C 1733.01 975.12 1730.11 984.806 1727.27 996.147 C 1726.15 1010.43 1725.53 1023.88 1727.52 1038.21 C 1723.61 1043.95 1686.58 1056.9 1675.63 1064.66 C 1675.05 1059.96 1674.97 1054.49 1674.62 1049.69 C 1672.32 1018.16 1663.39 987.815 1656.37 956.99 C 1652.97 944.378 1650.66 930.745 1648.56 917.859 z" fill="rgb(255,255,255)" transform="translate(0,0)"></path>
<path d="M 1656.37 956.99 C 1670.86 967.039 1686.79 974.741 1702.42 982.785 C 1709.8 986.582 1720.79 991.418 1727.27 996.147 C 1726.15 1010.43 1725.53 1023.88 1727.52 1038.21 C 1723.61 1043.95 1686.58 1056.9 1675.63 1064.66 C 1675.05 1059.96 1674.97 1054.49 1674.62 1049.69 C 1672.32 1018.16 1663.39 987.815 1656.37 956.99 z" fill="rgb(255,255,255)" transform="translate(0,0)"></path>
<path d="M 1648.56 917.859 C 1672.32 928.589 1713.55 950.43 1736.48 963.987 C 1733.01 975.12 1730.11 984.806 1727.27 996.147 C 1720.79 991.418 1709.8 986.582 1702.42 982.785 C 1686.79 974.741 1670.86 967.039 1656.37 956.99 C 1652.97 944.378 1650.66 930.745 1648.56 917.859 z" fill="rgb(247,139,151)" transform="translate(0,0)"></path>
<path d="M 516.661 1187.41 C 527.135 1145.88 546.731 1094.15 581.945 1067.78 C 569.407 1087.13 553.974 1107.55 546.869 1129.47 C 540.371 1149.51 534.425 1177.33 532.612 1198.49 C 531.568 1216.26 531.126 1235.19 533.718 1252.72 C 550.639 1367.17 638.566 1459.3 757.518 1462.57 C 810.914 1464.05 855.483 1449.31 901.822 1423.89 L 901.274 1425.15 C 890.227 1451.16 914.26 1446.28 873.525 1466.85 C 842.449 1482.54 813.177 1495.42 778.588 1501.69 C 773.234 1499.23 776.629 1492.69 763.604 1490.67 C 743.377 1487.52 722.463 1488.01 710.923 1507.48 C 676.803 1501.02 664.129 1495.3 632.861 1481.15 C 634.883 1458.82 597.003 1435.58 579.492 1449.7 C 568.046 1435.28 544.63 1408.51 538.707 1392.79 C 542.339 1390.12 544.709 1386.92 545.174 1382.1 C 546.704 1366.22 535.873 1335.86 517.932 1333.68 C 514.86 1333.3 514.376 1333.32 511.481 1332.01 C 504.122 1323.51 503.368 1272.47 503.776 1260.25 C 503.866 1257.54 504.618 1244.78 506.354 1243.72 C 523.472 1233.28 526.345 1217.63 523.235 1197.32 C 521.19 1192.05 520.556 1191.46 516.661 1187.41 z" fill="rgb(247,139,151)" transform="translate(0,0)"></path>
<path d="M 1134.85 1139.96 C 1138.14 1149.03 1139.54 1158.25 1142.33 1165.81 C 1145.07 1177.86 1157.67 1202.35 1164.12 1213.6 C 1228.35 1325.65 1337.6 1408.29 1450.08 1467.5 C 1544.64 1517.28 1647.08 1555.5 1754.85 1532.07 C 1764.34 1530.07 1777.76 1526.1 1786.56 1522.38 C 1787.95 1524.77 1789.34 1526.87 1790.24 1529.49 C 1759.4 1541.41 1737.28 1548.99 1703.22 1551.75 C 1684.31 1553.19 1665.32 1553.25 1646.4 1551.94 C 1622.56 1550.12 1546.85 1538.17 1519.06 1527.11 C 1517.7 1521.6 1516.1 1515.58 1511.53 1512.58 C 1497.45 1503.32 1477.54 1490.64 1464.71 1507.45 C 1453.32 1502.51 1398.69 1479.26 1392.75 1472.83 C 1402.96 1452.93 1355.6 1426.9 1344.17 1435.53 C 1341.79 1439.19 1342.12 1442.59 1341.86 1447.08 C 1313.64 1431.65 1270.16 1399.05 1246.88 1376.54 C 1249.76 1373.19 1251.83 1370.12 1254.34 1366.52 C 1252.25 1348.7 1234.57 1315.22 1210.49 1320.83 C 1193.04 1324.89 1206.16 1346.32 1215.35 1353.02 C 1222.3 1358.08 1226.45 1362.13 1235.33 1366.68 C 1226.05 1358.35 1209.47 1344.72 1208.26 1331.85 C 1209.53 1328.77 1208.5 1329.91 1211.54 1328.38 C 1215.42 1328.38 1218.98 1329.25 1222.16 1331.49 C 1236.56 1341.61 1249.43 1355.35 1238.99 1372.65 C 1218 1373 1199.88 1340.31 1187.41 1325.96 C 1138.7 1269.92 1134.28 1211.33 1134.85 1139.96 z" fill="rgb(247,139,151)" transform="translate(0,0)"></path>
<path d="M 1765.19 1552.08 L 1766.73 1551.88 C 1768.03 1552.6 1769.19 1553.7 1769.68 1555.15 C 1799.79 1642.67 1722.12 1730.2 1631.76 1702.07 C 1623.62 1699.03 1618.93 1697.14 1611.25 1693.18 C 1616.79 1678.87 1620.59 1661.47 1624.5 1646.61 C 1631.76 1619 1637.47 1592.38 1642.59 1564.29 C 1689.67 1565.54 1718.98 1566.1 1765.19 1552.08 z" fill="rgb(247,139,151)" transform="translate(0,0)"></path>
<path d="M 1175.7 1327.76 C 1184.24 1333.58 1203.61 1364.68 1215.7 1373.24 C 1220.04 1379.04 1236.78 1379.04 1239.98 1382.23 C 1255.83 1397.72 1273.52 1412.32 1291.41 1425.36 C 1322.16 1447.76 1353.71 1467.74 1388.68 1482.85 C 1411.19 1492.57 1433.94 1505.87 1457.42 1513.84 C 1469.86 1518.06 1474.87 1525.69 1486.76 1529.53 C 1497.01 1562.42 1500.05 1578.18 1501.45 1613.05 C 1496.21 1615.49 1492.54 1617.58 1487.55 1620.46 C 1477.99 1626.99 1470.84 1631.74 1460.74 1637.49 C 1451.73 1617.56 1448.54 1608.45 1435.36 1589.77 C 1410.37 1554.41 1369.86 1530.1 1334.73 1505.96 C 1286.16 1472.58 1244.59 1439.01 1211.87 1389.23 C 1198.08 1368.24 1184.41 1353.08 1175.7 1327.76 z" fill="rgb(255,255,255)" transform="translate(0,0)"></path>
<path d="M 904.306 229.359 C 904.445 229.35 904.591 229.287 904.722 229.333 C 908.004 230.493 917.476 250.524 919.834 254.456 C 802.244 266.98 665.019 323.355 570.095 393.17 C 546.366 410.622 529.163 426.366 506.774 444.849 C 504.037 447.405 503.653 447.567 500.58 449.439 C 498.816 446.52 498.053 422.046 497.916 416.847 C 511.261 406.011 525.044 393.566 538.704 383.332 C 645.654 302.026 771.413 249.063 904.306 229.359 z" fill="rgb(255,255,255)" transform="translate(0,0)"></path>
<path d="M 1497.73 1531.3 C 1516.15 1536.47 1533 1543.62 1551.93 1547.78 C 1554.38 1573.46 1554.25 1599.32 1551.55 1624.97 C 1545.34 1683.39 1523.42 1754.3 1551.57 1810.51 C 1574.77 1856.84 1640.2 1861.57 1681.87 1840.19 C 1691.73 1835.14 1700.77 1828.24 1710.55 1822.85 C 1708.36 1828.17 1700.57 1836.14 1695.9 1839.75 C 1669.4 1860.1 1636.8 1868.9 1603.86 1865.32 C 1549.3 1859.37 1517.89 1819.68 1512 1767.11 C 1509.8 1747.43 1510 1731.74 1510.26 1712.15 C 1510.77 1673.62 1513.35 1635.3 1510.92 1596.84 C 1510 1583.08 1507.3 1567.61 1504.51 1554.01 C 1503.4 1548.59 1497.22 1535.97 1497.73 1531.3 z" fill="rgb(247,139,151)" transform="translate(0,0)"></path>
<path d="M 1143.05 228.763 C 1156.46 230.006 1191.65 238.013 1205.43 241.196 C 1329.87 269.859 1445.73 327.681 1543.45 409.899 C 1541.17 417.282 1538.79 438.301 1537.64 440.204 L 1535.46 438.694 C 1418.62 337.16 1282.7 277.917 1130.52 253.827 C 1135.39 244.868 1138.94 238.176 1143.05 228.763 z" fill="rgb(255,255,255)" transform="translate(0,0)"></path>
<path d="M 509.157 1589.51 C 517.556 1595.32 528.239 1605.7 536.704 1612.38 C 652.415 1703.69 777.399 1752.41 922.377 1776.99 C 919.754 1782.17 916.114 1788.24 913.208 1793.36 L 907.97 1801.66 C 782.251 1777.77 686.523 1743.11 578.438 1673.58 C 553.436 1657.5 531.836 1640.36 507.785 1623.65 C 509.312 1614.12 510.307 1598.95 509.157 1589.51 z" fill="rgb(255,255,255)" transform="translate(0,0)"></path>
<path d="M 1563.02 1551.08 L 1581.88 1555.24 C 1584.6 1574.09 1583.96 1596.12 1584.17 1615.16 C 1584.4 1641.14 1584.02 1671.86 1582.58 1697.38 C 1579.17 1757.49 1571.56 1827.92 1654.15 1827.37 C 1672.98 1827.25 1679.7 1826.1 1697.77 1819.22 C 1703.14 1817.02 1705.87 1815.62 1711.66 1814.69 C 1709.23 1817.13 1702.45 1819.66 1698.71 1822.12 C 1677.3 1835.9 1659.89 1843.83 1634 1844.71 C 1612.73 1845.44 1588.1 1840.44 1572.77 1824.75 C 1525.61 1776.46 1550.79 1685.42 1559.6 1626.28 C 1563.41 1600.72 1563.29 1576.37 1563.02 1551.08 z" fill="rgb(137,212,234)" transform="translate(0,0)"></path>
<path d="M 252.884 1130.98 C 255.734 1134.36 259.499 1162.03 260.938 1168.89 C 266.264 1195.28 273.044 1221.36 281.247 1247.01 C 307.181 1329.21 348.078 1405.91 401.878 1473.26 C 394.032 1472.57 387.55 1472.28 379.666 1472.11 C 374.674 1472.1 370.527 1472.41 365.578 1472.77 C 313.041 1392.18 272.895 1321.16 247.539 1226.89 C 238.894 1194.75 232.879 1173.27 229.679 1139.95 C 238.323 1137.57 245.028 1135.21 252.884 1130.98 z" fill="rgb(255,255,255)" transform="translate(0,0)"></path>
<path d="M 1792.45 1134.52 C 1801.12 1136.73 1809.43 1139.97 1818.93 1142.37 C 1812.12 1173.64 1807.49 1201.64 1798.88 1233.2 C 1774.04 1321.02 1734.33 1403.92 1681.47 1478.32 C 1672.02 1475.94 1661.98 1473.96 1652.41 1471.91 C 1666.81 1455.96 1678.9 1436.16 1690.05 1417.76 C 1742.32 1330.92 1777.11 1234.7 1792.45 1134.52 z" fill="rgb(255,255,255)" transform="translate(0,0)"></path>
<path d="M 357.178 569.914 C 365.462 571.028 381.864 570.973 390.079 570.153 C 325.24 652.159 272.572 789.45 255.159 892.168 C 254.587 895.389 254.536 899.449 252.523 901.13 C 243.133 896.499 238.39 894.818 228.377 891.669 C 249.144 777.964 291.255 665.313 357.178 569.914 z" fill="rgb(255,255,255)" transform="translate(0,0)"></path>
<path d="M 1389.43 1688.76 L 1391.36 1689.62 C 1396.6 1697.1 1398.37 1703.84 1400.97 1712.47 C 1340.67 1745.4 1262.24 1772.2 1195.45 1788.91 C 1177.7 1793.36 1156.29 1796.95 1138.08 1800.72 C 1133.03 1790.62 1130.66 1786.35 1123.69 1777.53 C 1151.69 1770.76 1179.14 1766.46 1208.44 1758.94 C 1276.97 1741.36 1326.95 1719.83 1389.43 1688.76 z" fill="rgb(255,255,255)" transform="translate(0,0)"></path>
<path d="M 1366.39 1266.35 C 1389.95 1278.45 1410.74 1283.59 1434.78 1291.84 C 1441.54 1294.17 1476.94 1335.21 1483.74 1343.29 C 1503.33 1366.55 1518.48 1396.96 1532.82 1423.67 C 1521.5 1418.49 1467.69 1388.05 1460.78 1378.26 C 1433.3 1339.35 1404.08 1296.2 1364.28 1268.59 L 1366.39 1266.35 z" fill="rgb(247,139,151)" transform="translate(0,0)"></path>
<path d="M 1687.63 567.397 C 1689.95 566.81 1689.02 566.946 1691.58 567.506 C 1704.88 579.835 1756.31 679.557 1764.9 700.617 C 1756.62 700.905 1745.19 701.631 1737.15 701.113 L 1735.64 701.797 C 1735.09 701.365 1714.92 659.714 1711.93 653.798 C 1696.61 623.529 1679.18 597.531 1660.34 569.449 C 1669.83 569.76 1678.25 568.653 1687.63 567.397 z" fill="rgb(255,255,255)" transform="translate(0,0)"></path>
<path d="M 1756.94 747.025 C 1769.38 746.912 1772.74 746.7 1784.11 751.867 C 1797.65 780.09 1805.87 827.395 1811.54 858.002 C 1813.04 866.144 1816.28 884.113 1816.33 891.88 C 1814.75 894.383 1811.21 895.259 1808.24 896.47 C 1802.78 898.66 1797.38 901.234 1792.02 903.693 C 1788.7 868.166 1782.05 833.029 1772.17 798.741 C 1767.68 782.554 1759.99 762.583 1756.94 747.025 z" fill="rgb(255,255,255)" transform="translate(0,0)"></path>
<path d="M 1446.15 1291.85 C 1454.45 1292.21 1463.11 1293.37 1471.31 1294.63 C 1518.7 1338.82 1546.11 1381.8 1569.51 1441.66 C 1562.89 1440.17 1551.29 1433.51 1545 1430.03 C 1537.45 1417.12 1528.77 1398.49 1520.72 1384.2 C 1497.89 1343.7 1478.09 1323.58 1446.15 1291.85 z" fill="rgb(137,212,234)" transform="translate(0,0)"></path>
<path d="M 1413.63 1758.42 C 1420.19 1760.01 1424.94 1761.13 1431.29 1763.45 C 1413.34 1805.23 1397.08 1821.95 1360.14 1844.97 L 1358.19 1844.84 L 1357.64 1845.69 C 1359.8 1838.77 1382.78 1820.52 1389.93 1810.18 C 1403.32 1790.84 1407.36 1780.93 1413.63 1758.42 z" fill="rgb(137,212,234)" transform="translate(0,0)"></path>
<path d="M 1500.46 1630.85 L 1501.76 1631.69 C 1503.37 1636.3 1502 1655.33 1501.77 1661.21 C 1496.32 1664.88 1476.46 1679.62 1470.64 1678.77 C 1469.07 1669.81 1467.38 1661.82 1465.35 1652.94 C 1479.82 1645.93 1487.17 1639.73 1500.46 1630.85 z" fill="rgb(255,255,255)" transform="translate(0,0)"></path>
<path d="M 940.104 1402.99 C 944.461 1403.66 945.737 1404.66 947.431 1408.58 C 946.539 1423.08 925.552 1437.28 912.721 1441.03 C 908.599 1441.09 908.41 1440.79 905.359 1438.58 C 902.88 1431.33 912.88 1420.57 917.801 1415.74 C 924.404 1409.25 931.38 1405.74 940.104 1402.99 z" fill="rgb(246,204,203)" transform="translate(0,0)"></path>
<path d="M 933.926 1412.72 L 934.938 1413.18 L 935.007 1414.33 C 930.352 1420.82 922.666 1426.46 916.313 1431.29 C 914.98 1430.95 915.618 1431.3 914.54 1430.03 C 916.556 1425.12 929.033 1416.46 933.926 1412.72 z" fill="rgb(59,62,115)" transform="translate(0,0)"></path>
<path d="M 1171.43 1538.04 C 1182.96 1537.54 1191.09 1539.98 1200.25 1546.79 C 1208.38 1552.82 1210.8 1559.44 1203.49 1567.14 C 1189.31 1567.24 1153.55 1553.15 1171.43 1538.04 z" fill="rgb(247,139,151)" transform="translate(0,0)"></path>
<path d="M 1172.74 1542.18 C 1178.7 1544.65 1194.29 1550.23 1196.6 1555.31 C 1189.59 1554.11 1182.94 1551.37 1177.11 1547.3 C 1173.32 1544.67 1173.31 1545.34 1172.74 1542.18 z" fill="rgb(59,62,115)" transform="translate(0,0)"></path>
<path d="M 1889.88 1426.72 L 1891.38 1428.27 C 1873.56 1474.92 1843.7 1505.79 1798.04 1526.1 C 1795.45 1527.26 1792.85 1528.39 1790.24 1529.49 C 1789.34 1526.87 1787.95 1524.77 1786.56 1522.38 C 1787.19 1522.13 1787.82 1521.87 1788.46 1521.61 C 1836.58 1501.52 1869.63 1475.29 1889.88 1426.72 z" fill="url(#Gradient1)" transform="translate(0,0)"></path>
<path d="M 1312.08 835.777 C 1326.22 849.704 1335.03 862.356 1357.21 852.161 C 1354.61 858.607 1351.89 863.967 1348.78 870.175 C 1331.97 898.354 1314.96 849.15 1312.08 835.777 z" fill="rgb(255,255,255)" transform="translate(0,0)"></path>
<path d="M 1022.47 1339.9 C 1019.17 1330.31 1024.32 1326.85 1030.27 1319.26 C 1035.45 1330.3 1039.24 1343.6 1034.23 1355.15 C 1026.5 1372.95 1014.91 1362.99 1006.65 1354.14 L 1014.69 1341.14 C 1016.98 1345.75 1018.41 1350.46 1023.79 1351.86 L 1025.08 1350.58 C 1025.56 1346.6 1023.95 1343.74 1022.47 1339.9 z" fill="rgb(247,139,151)" transform="translate(0,0)"></path>
<path d="M 766.586 1506.04 C 767.219 1508.46 766.981 1508.3 766.911 1510.92 C 760.046 1524.54 729.864 1520.49 722.661 1508.9 C 722.028 1496.34 760.57 1496.07 766.107 1503.62 C 755.095 1503.97 743.007 1503.02 733.141 1507.25 L 733.622 1508.27 C 746.218 1509.81 754.632 1507.1 766.586 1506.04 z" fill="rgb(246,204,203)" transform="translate(0,0)"></path>
<path d="M 587.205 1464.06 C 586.805 1461.1 586.28 1459.53 587.422 1456.79 C 598.499 1450.14 636.98 1476.61 615.984 1485.45 C 599.826 1480.57 596.931 1476.94 587.205 1464.06 z" fill="rgb(246,204,203)" transform="translate(0,0)"></path>
<path d="M 587.205 1464.06 C 590.083 1464.52 591.961 1464.42 593.855 1466.53 L 594.111 1467.2 C 599.367 1469.81 608.666 1474.22 612.995 1477.87 C 613.864 1481.12 614.043 1482.64 615.984 1485.45 C 599.826 1480.57 596.931 1476.94 587.205 1464.06 z" fill="rgb(247,139,151)" transform="translate(0,0)"></path>
<path d="M 594.111 1467.2 C 599.367 1469.81 608.666 1474.22 612.995 1477.87 C 606.515 1478.07 598.22 1471.89 594.111 1467.2 z" fill="rgb(58,43,46)" transform="translate(0,0)"></path>
<path d="M 1327.71 1237.54 C 1342.14 1250.2 1350.58 1255.92 1366.39 1266.35 L 1364.28 1268.59 C 1364.42 1276 1365.99 1280.21 1369.89 1286.57 C 1373.64 1291.72 1375.77 1294.76 1378.97 1300.33 C 1373.65 1296.4 1370.17 1294.04 1365.68 1289.18 C 1349.44 1273.06 1338.37 1257.98 1327.71 1237.54 z" fill="rgb(255,255,255)" transform="translate(0,0)"></path>
<path d="M 1380.38 1461.56 L 1383.57 1462.59 C 1384.89 1465.51 1384.8 1464.06 1383.91 1467.08 L 1381.58 1468.03 C 1370.8 1467.01 1344.53 1451.56 1350.07 1440.59 L 1352.34 1440.31 C 1360.33 1443.6 1378.11 1451.3 1382.93 1458.79 L 1382.41 1459.5 L 1381.5 1459.51 L 1380.38 1461.56 z" fill="rgb(255,255,255)" transform="translate(0,0)"></path>
<path d="M 1355.39 1446.49 C 1364.47 1451.58 1371.46 1457.93 1381.5 1459.51 L 1380.38 1461.56 C 1368.84 1458 1363.62 1455.57 1355.39 1446.49 z" fill="rgb(58,43,46)" transform="translate(0,0)"></path>
<path d="M 512.339 1347.47 C 513.33 1344.23 513.055 1344.18 515.619 1342.1 C 525.126 1341.49 533.43 1360.95 535.955 1368.66 C 533.609 1370.17 533.46 1370.67 530.78 1370.69 L 528.529 1369.86 C 525.597 1371.18 523.223 1372.32 520.363 1373.79 C 515.764 1363.72 514.058 1358.4 512.339 1347.47 z" fill="rgb(246,204,203)" transform="translate(0,0)"></path>
<path d="M 512.339 1347.47 L 515.862 1345.86 C 518.986 1347.85 517.102 1347.45 518.631 1350.98 L 519.587 1350.26 C 521.364 1357.69 524.449 1363.45 528.529 1369.86 C 525.597 1371.18 523.223 1372.32 520.363 1373.79 C 515.764 1363.72 514.058 1358.4 512.339 1347.47 z" fill="rgb(246,204,203)" transform="translate(0,0)"></path>
<path d="M 519.587 1350.26 C 526.181 1354.24 528.61 1363.39 530.78 1370.69 L 528.529 1369.86 C 524.449 1363.45 521.364 1357.69 519.587 1350.26 z" fill="rgb(58,43,46)" transform="translate(0,0)"></path>
<path d="M 1356.88 791.714 C 1366.71 800.102 1356.22 824.045 1337.69 821.354 C 1334.09 819.188 1333.76 819.784 1332.16 816.652 C 1342.37 807.593 1348.46 802.355 1356.88 791.714 z" fill="rgb(255,255,255)" transform="translate(0,0)"></path>
<path d="M 511.938 1195.85 C 522.78 1203.9 514.828 1226.25 505.756 1233.94 L 504.511 1233.64 C 500.101 1221.13 499.563 1203.86 511.938 1195.85 z" fill="rgb(247,139,151)" transform="translate(0,0)"></path>
<path d="M 1474.6 1506.94 C 1483.98 1506.72 1507.89 1511.98 1508.53 1523.53 C 1496.46 1523.93 1477.46 1520.86 1474.6 1506.94 z" fill="rgb(255,255,255)" transform="translate(0,0)"></path>
<path d="M 1767.45 735.27 C 1785.38 735.093 1832.23 764.052 1825 780.933 C 1823.41 779.763 1824.53 780.923 1823.75 778.503 C 1819.61 765.687 1807.98 753.955 1796.85 747.486 C 1785.96 741.139 1773.58 737.784 1760.97 737.758 C 1764.02 737.305 1764.73 736.688 1767.45 735.27 z" fill="rgb(137,212,234)" transform="translate(0,0)"></path>
<path d="M 535.955 1368.66 C 537.118 1374.48 539.531 1381.27 532.649 1383.72 C 525.346 1382.2 524.882 1379.33 520.363 1373.79 C 523.223 1372.32 525.597 1371.18 528.529 1369.86 L 530.78 1370.69 C 533.46 1370.67 533.609 1370.17 535.955 1368.66 z" fill="rgb(247,139,151)" transform="translate(0,0)"></path>
<path d="M 1386.97 1300.76 C 1392.29 1303.91 1414.22 1329.27 1417.41 1335.24 C 1406.54 1332 1392.44 1310.12 1386.97 1300.76 z" fill="rgb(255,255,255)" transform="translate(0,0)"></path>
<path d="M 985.5 1364.26 L 986.04 1365.21 C 980.155 1375.04 965.151 1391.72 956.626 1399.37 C 953.146 1400.27 954.464 1400.67 952.168 1399.32 C 952.18 1399.3 981.569 1368.93 985.5 1364.26 z" fill="rgb(247,139,151)" transform="translate(0,0)"></path>
<path d="M 1795.29 759.804 C 1805.38 760.51 1821.34 780.506 1820.57 790.702 C 1818.09 790.732 1816.95 782.333 1814.31 778.213 C 1808.84 769.657 1802.66 766.746 1795.93 760.417 L 1795.29 759.804 z" fill="rgb(166,172,180)" transform="translate(0,0)"></path>
<path d="M 1889.88 1426.72 C 1894.35 1413.9 1894 1401.47 1896.93 1393.84 C 1900.17 1397.6 1892.97 1423.26 1891.38 1428.27 L 1889.88 1426.72 z" fill="rgb(154,145,185)" transform="translate(0,0)"></path>
<path d="M 985.5 1364.26 C 988.081 1360.23 989.921 1356.65 993.603 1353.65 L 994.052 1354.04 C 992.315 1358.56 989.376 1361.67 986.04 1365.21 L 985.5 1364.26 z" fill="rgb(104,101,141)" transform="translate(0,0)"></path>
<metadata><recraft-signature>{"signed_by": "recraft", "signature_b64": "Wyn6StD1J9Kfd5/OHTsxg/gTrUeMQov+DdQjwCZ/nOUcrtRtwXofGN4k0jiyUjkUOvCND2cyXbsLoyAdPjRqCg==", "signing_algo": "Ed25519", "generation_timestamp": 1771192266, "identifier": "be189173-0a52-4b31-b672-1ed84b8b61c6"}</recraft-signature></metadata></svg>