<svg xmlns="http://www.w3.org/2000/svg" height="1024" preserveAspectRatio="none" style="display: block;" version="1.1" viewBox="0 0 2048 2048" width="1024">
<path d="M 0 0 L 2048 0 L 2048 2048 L 0 2048 L 0 0 z" fill="rgb(255,255,255)" transform="translate(0,0)"></path>
<path d="M 678.926 101.495 C 686.558 101.19 694.199 101.226 701.827 101.604 C 824.207 107.303 949.273 158.741 1032.58 249.927 C 1043.92 249.646 1050.44 249.415 1061.46 251.965 C 1084.91 257.294 1105.25 271.772 1117.96 292.178 C 1103.08 291.622 1087.93 292.197 1073.07 292.912 C 1141.44 360.221 1189.48 445.419 1211.69 538.755 C 1217.21 541.285 1222.9 543.995 1228.06 547.149 C 1295.47 588.554 1294.64 689.124 1267.11 754.092 C 1235 829.876 1183.99 885.157 1119.2 933.61 C 1144.78 924.268 1176.12 912.738 1198.92 899.443 C 1310.77 834.207 1416.37 727.452 1558.06 769.847 C 1604.48 783.737 1653.36 811.999 1677.91 856.062 C 1701.65 846.523 1725.29 836.756 1748.83 826.764 C 1781.84 813.11 1813.08 795.135 1822.58 847.454 C 1827.78 876.098 1837.27 906.955 1841.67 935.382 C 1868.92 944.697 1891.85 961.22 1906.14 986.621 C 1920.66 1012.44 1924.28 1042.99 1916.17 1071.48 C 1909.44 1095.32 1901.93 1101.51 1887.47 1120.52 C 1884.41 1124.53 1877.49 1136.57 1874.2 1138.91 C 1863.14 1146.77 1846.2 1153.31 1833.72 1158.87 C 1815.25 1167.19 1796.84 1175.65 1778.5 1184.26 C 1771.21 1187.65 1752.9 1195.58 1746.86 1199.42 C 1731.93 1208.9 1715.65 1226.81 1701.07 1238.52 C 1681.65 1254.58 1659.98 1267.85 1638.26 1280.6 C 1583.14 1312.97 1515.08 1325.11 1451.71 1323.92 C 1427.31 1323.46 1394.65 1315.52 1371.45 1308.92 C 1378.51 1351.88 1373.88 1421 1363.47 1462.73 C 1345.21 1536.03 1326.66 1623.04 1392.79 1679.11 C 1424.53 1706.03 1454.28 1713.09 1495.92 1707.53 C 1520.17 1704.22 1543.14 1694.7 1562.62 1679.89 C 1607.35 1646.36 1614.74 1614.52 1628.62 1563.69 C 1637.93 1530.37 1649.34 1504.23 1669.28 1476.09 C 1719.53 1405.13 1833.65 1388.56 1902.17 1441.36 C 1910.51 1447.79 1949.67 1486.45 1940.18 1498.25 C 1937.53 1498.46 1917.3 1487.71 1913.17 1485.64 C 1871.92 1464.95 1825.97 1460.17 1782.42 1479.62 C 1723.92 1505.73 1707.84 1572.73 1688.99 1628.06 C 1663.37 1703.28 1618.15 1775.22 1542.08 1807.32 C 1487.58 1831.11 1423.81 1830.96 1368.98 1811.52 C 1224.08 1760.16 1165.61 1628.7 1179.44 1482.51 C 1181.88 1456.73 1186.48 1417.23 1186.99 1391.34 C 1187.76 1352.28 1184.24 1271.87 1168.39 1236.51 L 1167.25 1236.16 C 1166.66 1240.9 1168.13 1253.37 1168.29 1259.25 C 1168.66 1274.61 1168.51 1289.97 1167.84 1305.32 C 1165.69 1327.13 1164.27 1348.24 1159.35 1370.07 C 1141.84 1448.81 1106.79 1521.05 1051.49 1580.1 C 1026.48 1606.81 1005.2 1622.98 973.171 1640.21 C 949.787 1652.79 933.053 1661.14 921.021 1685.86 C 966.215 1692.2 1032.03 1716.16 1048.95 1763.3 C 1050.18 1766.73 1050.25 1769.12 1048.43 1772.33 C 1037.39 1779.93 1006.73 1756.34 990.796 1752.75 C 970.848 1748.27 965.656 1747.63 945.399 1747.82 C 947.846 1752.73 951.171 1758.61 953.961 1763.17 C 1001.29 1840.52 968.459 1939.76 880.091 1967.01 C 869.882 1970.15 851.003 1973.77 841.313 1968.23 C 837.107 1965.85 834.036 1961.87 832.787 1957.2 C 826.674 1934.71 863.319 1916.41 874.995 1895.92 C 900.837 1850.57 858.007 1801.95 821.41 1780.64 C 803.234 1789.77 774.292 1811.93 757.537 1823.58 C 734.724 1839.23 711.041 1853.58 686.602 1866.54 C 665.579 1877.82 640.721 1888.96 617.969 1896.08 C 577.151 1908.85 523.781 1906.48 482.897 1893.95 C 403.095 1869.9 336.245 1814.9 297.267 1741.23 C 231.41 1616.66 267.371 1470.67 391.145 1402.04 C 417.584 1387.38 445.64 1376.08 471.62 1362.12 L 472.456 1361.66 C 451.978 1360.1 442.139 1363.24 441.082 1339.86 C 421.079 1334.2 399.299 1331.6 379.213 1323.63 C 373.261 1321.27 352.934 1311.35 348.495 1311.62 C 345.139 1317.88 337.121 1320.01 329.91 1323.29 C 316.549 1316.2 262.982 1282.85 266.927 1265.73 C 269.613 1262.04 273.768 1259.98 277.735 1257.5 C 253.129 1231.23 239.74 1208.87 224.011 1176.89 C 219.655 1178.28 214.663 1179.51 210.206 1180.71 C 192.524 1161.5 186.274 1129.12 186.941 1103.65 C 192.603 1102.17 197.221 1100.52 202.731 1098.58 C 192.092 1044.52 209.031 1008.12 202.058 952.226 C 196.917 908.743 174.32 869.217 139.457 842.725 C 126.124 832.556 110.833 824.123 98.1852 814.228 L 97.1011 813.372 C 114.509 811.661 133.112 810.395 150.364 814.043 C 223.625 828.172 275.973 900.216 275.879 974.035 C 275.744 1079.8 320.83 1172.13 434.727 1193.66 C 507.009 1206.74 581.547 1191.23 642.609 1150.4 C 690.086 1117.99 712.971 1080.84 723.532 1024.18 C 675.928 988.28 636.895 971.078 584.98 945.904 C 511.501 909.584 437.313 874.667 375.914 819.219 C 91.5995 562.456 327.066 116.248 678.926 101.495 z" fill="rgb(59,62,115)" transform="translate(0,0)"></path>
<path d="M 477.987 184.748 C 508.046 163.864 547.176 147.256 582.427 136.419 C 712.355 96.4725 852.118 133.998 960.273 211.535 C 978.114 224.325 993.558 238.843 1010.04 253.397 C 1005.39 254.397 1000.67 255.262 996.188 256.799 C 982.249 265.738 975.27 275.57 986.944 289.518 C 1002.16 307.693 1024.3 293.973 1042.13 295.173 C 1044.41 294.814 1049.68 293.507 1051.37 295.075 C 1106.69 346.199 1152.27 413.721 1177.57 484.729 C 1185.76 507.705 1188.39 528.282 1196.89 550.679 C 1197.62 552.59 1211.93 555.827 1215.32 557.739 C 1245.2 574.571 1259.98 609.904 1264.52 641.83 C 1273.99 708.283 1240.7 776.308 1202.49 828.533 C 1198.38 834.148 1191.93 841.837 1187.23 846.796 C 1145.65 895.759 1094.12 935.298 1036.07 962.777 C 1074.5 957.922 1110.26 948.014 1144.01 971.272 C 1229.64 1032.1 1301.39 1149.01 1319.27 1252.97 C 1328.07 1304.11 1329.04 1329.27 1326.4 1380.2 C 1320.62 1491.98 1274.62 1649.73 1384.09 1727.52 C 1420.03 1753.06 1455.97 1758.86 1498.41 1757.06 C 1575.48 1751.28 1631.65 1687.38 1655.35 1618.12 C 1669.85 1575.75 1682.86 1526.76 1712.8 1492.53 C 1729.49 1473.46 1757.36 1455.36 1781.8 1448.37 C 1789.88 1446.04 1798.19 1444.64 1806.58 1444.19 C 1821.98 1443.41 1868.79 1447.12 1881.63 1454.28 C 1879.99 1454.71 1862.35 1452.04 1858.53 1451.71 C 1825.31 1448.82 1796.69 1453.73 1766.53 1468.2 C 1705.29 1497.57 1693.65 1566.97 1672.45 1624.56 C 1667.59 1637.78 1660.08 1658.76 1653.78 1671.16 C 1635.34 1705.41 1606.73 1744.7 1574.99 1767.67 C 1469.98 1843.66 1327 1804.79 1253.03 1705.65 C 1192.76 1624.87 1192.28 1543.81 1201.43 1448.5 C 1204.45 1417.06 1206.41 1383.29 1204.75 1352.01 C 1200.6 1275.48 1181.18 1200.56 1147.62 1131.65 C 1128.89 1092.38 1080.55 1009.62 1038.28 994.671 C 1053.19 1006.58 1053.28 1012.45 1063.38 1027.37 C 1065.94 1027.77 1066.02 1027.59 1068.13 1028.99 C 1072.94 1041.59 1078.33 1055.13 1082.47 1067.88 L 1079.56 1070.16 C 1092.93 1120.09 1098.2 1171.84 1095.19 1223.43 C 1089.16 1347.86 1043.2 1456.49 960.325 1549.29 C 923.768 1590.22 882.17 1626.79 848.891 1669.91 C 844.791 1675.23 838.225 1687.56 834.726 1693.94 C 819.594 1697.34 810.391 1700.38 796.873 1707.57 C 771.049 1666.22 779.536 1605.03 798.58 1562.98 C 814.998 1526.73 840.469 1490.45 863.488 1458.15 C 880.505 1434.27 897.331 1409.59 913.991 1385.51 C 926.86 1366.91 938.912 1343.87 949.598 1324.01 C 970.062 1285.98 992.32 1249.68 998.127 1206.03 C 1004.93 1154.89 1000.43 1108.69 982.659 1060.17 C 976.885 1044.4 971.952 1029.47 961.53 1015.75 L 960.416 1015.74 C 960.082 1021.74 963.32 1030.31 964.308 1036.72 C 973.026 1093.24 959.759 1151.33 929.55 1199.71 C 914.208 1224.29 894.824 1244.04 873.031 1263.26 C 845.534 1287.7 814.981 1308.47 782.138 1325.05 C 666.664 1384.13 518.728 1407.05 425.602 1503.7 C 387.372 1543.38 366.626 1594.19 368.05 1649.51 C 369.584 1707.41 393.807 1762.39 435.498 1802.59 C 477.728 1842.58 540.576 1868.03 598.665 1870.11 C 613.467 1870.64 624.69 1868.25 638.872 1867.94 L 640.158 1867.92 C 602.744 1887.93 539.878 1888.74 499.699 1878.73 C 397.426 1853.25 306.532 1762.68 288.114 1657.71 C 273.048 1571.83 305.701 1483.87 378.763 1434.2 C 505.701 1352.12 677.562 1333.7 773.486 1205.58 C 810.274 1156.44 827.309 1099.24 817.528 1037.51 C 815.423 1049.92 814.648 1061.62 812.216 1075.23 C 804.735 1117.11 780.756 1171.86 752.92 1204.32 C 715.361 1247.01 668.287 1278.62 617.425 1303.22 C 586.778 1318.05 575.294 1322.69 541.372 1324.96 C 457.766 1330.56 370.98 1316.83 306.191 1259.21 C 249.552 1208.85 216.86 1134.24 219.081 1058.38 C 220.425 1027.29 226.665 998.259 224.065 966.899 C 218.929 904.944 200.637 872.579 155.18 833.04 C 187.473 846.2 199.192 853.669 221.856 881.066 C 257.607 922.468 255.534 973.859 260.449 1025.5 C 269.69 1122.62 334.002 1193.91 430.909 1212.27 C 509.545 1226.57 590.656 1209.56 656.924 1164.88 C 708.012 1129.77 731.583 1094.47 743.038 1032.78 C 759.619 1046.74 771.382 1063.22 786.257 1076.09 C 759.78 998.248 624.12 940.958 554.298 906.872 C 526.618 893.627 499.59 879.059 473.308 863.219 C 410.221 824.373 363.144 785.493 323.921 721.982 C 274.269 641.337 259.089 544.129 281.788 452.185 C 307.403 344.508 384.14 242.513 477.987 184.748 z" fill="rgb(247,139,151)" transform="translate(0,0)"></path>
<path d="M 1181.31 619.389 C 1177.57 642.889 1169.55 664.904 1143.98 672.158 C 1127.97 676.701 1109.55 672.366 1095.23 663.938 C 1048.24 636.284 1018.73 578.514 1002.9 528.008 C 992.977 493.198 986.71 445.697 1004.93 412.552 C 1023.3 379.126 1062.81 379.842 1091.57 397.83 C 1129.71 421.687 1153.97 469.515 1164.37 511.474 C 1170.99 533.25 1176.79 554.531 1180.57 577.02 C 1181.97 585.303 1179.86 603.929 1183.61 609.608 L 1181.31 619.389 z" fill="rgb(59,62,115)" transform="translate(0,0)"></path>
<path d="M 1042.51 397.204 C 1071.76 394.238 1097.78 415.431 1115.11 436.776 C 1136.59 463.232 1146.02 492.055 1155.6 523.931 C 1126.53 528.313 1106.39 537.897 1083.47 556.227 C 1069.22 568.527 1059.17 578.874 1047.96 594.098 C 1023.3 550.488 1002.61 502.476 1007.57 450.97 C 1009.85 427.29 1017.57 405.288 1042.51 397.204 z" fill="rgb(255,255,255)" transform="translate(0,0)"></path>
<path d="M 1155.53 534.972 L 1157.37 535.315 C 1158.64 536.706 1158.66 536.903 1159.06 538.91 C 1164.98 570.018 1175.9 615.381 1157.68 644.013 C 1139.59 672.423 1105.74 655.918 1085.65 640.936 C 1072.53 629.851 1062.71 617.566 1053.41 603.15 C 1066.43 596.426 1069.65 590.426 1079.69 579.914 C 1103.27 555.221 1123.11 545.052 1155.53 534.972 z" fill="rgb(137,212,234)" transform="translate(0,0)"></path>
<path d="M 1110.05 559.02 C 1142.68 558.16 1160.79 592.143 1155.63 621.9 C 1154.66 627.494 1148.88 631.695 1143.91 633.907 C 1120.41 631.958 1074.65 576.081 1110.05 559.02 z" fill="rgb(59,62,115)" transform="translate(0,0)"></path>
<path d="M 1125.74 572.709 C 1138.91 573.284 1147.23 584.499 1136.15 594.786 C 1123.07 595.685 1115.39 582.912 1125.74 572.709 z" fill="rgb(255,255,255)" transform="translate(0,0)"></path>
<path d="M 477.987 184.748 C 508.046 163.864 547.176 147.256 582.427 136.419 C 712.355 96.4725 852.118 133.998 960.273 211.535 C 978.114 224.325 993.558 238.843 1010.04 253.397 C 1005.39 254.397 1000.67 255.262 996.188 256.799 C 990.889 251.736 977.961 243.463 971.542 238.859 C 953.321 225.792 935.733 213.043 916.611 201.321 C 911.378 243.108 866.971 254.04 832.195 242.791 C 795.619 230.961 762.773 208.676 727.93 192.35 C 689.164 174.186 646.303 156.501 603.691 149.727 C 566.631 147.384 532.715 162.763 499.215 176.21 C 493.43 178.533 483.334 184.406 477.987 184.748 z" fill="rgb(255,255,255)" transform="translate(0,0)"></path>
<path d="M 1042.13 295.173 C 1044.41 294.814 1049.68 293.507 1051.37 295.075 C 1106.69 346.199 1152.27 413.721 1177.57 484.729 C 1185.76 507.705 1188.39 528.282 1196.89 550.679 C 1197.62 552.59 1211.93 555.827 1215.32 557.739 C 1245.2 574.571 1259.98 609.904 1264.52 641.83 C 1273.99 708.283 1240.7 776.308 1202.49 828.533 C 1198.38 834.148 1191.93 841.837 1187.23 846.796 C 1187.35 841.588 1208.18 812.178 1212.34 804.276 C 1233.4 764.303 1250.84 724.23 1249.36 677.684 C 1247.78 628.098 1228.76 617.372 1181.31 619.389 L 1183.61 609.608 C 1190.06 581.524 1178.27 538.629 1169.8 511.185 C 1156.49 462.143 1127.18 399.225 1097.27 358.27 C 1085.44 342.078 1056.64 311.674 1042.13 295.173 z" fill="rgb(255,255,255)" transform="translate(0,0)"></path>
<path d="M 1063.38 1027.37 C 1065.94 1027.77 1066.02 1027.59 1068.13 1028.99 C 1072.94 1041.59 1078.33 1055.13 1082.47 1067.88 L 1079.56 1070.16 C 1075.03 1056.24 1069.38 1040.68 1063.38 1027.37 z" fill="rgb(23,26,58)" transform="translate(0,0)"></path>
<path d="M 763.473 737.118 C 711.478 686.971 670.995 627.892 670.209 554.792 C 669.519 426.151 787.875 437.097 857.999 511.418 C 906.725 563.06 933.084 613.817 935.672 686.477 C 938.506 766.044 859.025 800.047 795.629 758.417 C 786.177 745.753 777.604 743.455 763.473 737.118 z" fill="rgb(59,62,115)" transform="translate(0,0)"></path>
<path d="M 749.092 469.408 C 770.512 467.844 803.448 483.171 820.38 495.631 C 864.932 528.414 889.303 567.953 909.946 618.023 C 881.874 617.389 845.322 619.864 817.794 626.132 C 781.681 633.292 750.968 645.932 717.133 659.785 C 684.875 607.518 657.579 477.962 749.092 469.408 z" fill="rgb(255,255,255)" transform="translate(0,0)"></path>
<path d="M 871.611 632.44 C 886.284 631.715 901.14 632.486 915.801 633.154 C 923.531 680.746 931.557 745.057 870.376 762.388 C 845.715 769.375 815.98 758.071 794.693 745.524 C 764.222 724.263 742.13 702.215 722.73 670.119 C 764.683 650.104 825.398 634.24 871.611 632.44 z" fill="rgb(137,212,234)" transform="translate(0,0)"></path>
<path d="M 839.086 644.267 C 863.329 643.345 881.024 671.659 884.898 692.983 C 888.188 711.098 883.613 723.31 864.341 725.606 C 826.435 721.634 791.527 651.539 839.086 644.267 z" fill="rgb(59,62,115)" transform="translate(0,0)"></path>
<path d="M 852.076 660.722 C 855.288 660.921 856.663 660.927 859.575 662.723 C 862.764 664.704 864.919 667.988 865.465 671.702 C 866.136 676.492 864.828 678.387 862.146 681.931 C 850.117 681.967 843.127 670.38 852.076 660.722 z" fill="rgb(255,255,255)" transform="translate(0,0)"></path>
<path d="M 795.629 758.417 C 800.477 776.123 789.375 791.261 775.983 801.682 C 752.928 819.319 722 822.812 695.297 812.112 C 664.138 799.626 646.312 766.202 680.379 744.127 C 708.68 725.788 732.551 731.027 763.473 737.118 C 777.604 743.455 786.177 745.753 795.629 758.417 z" fill="rgb(255,255,255)" transform="translate(0,0)"></path>
<path d="M 669.025 352.317 C 685.147 353.609 690.899 364.045 694.453 378.202 C 693.432 381.473 692.007 387.096 689.413 388.97 C 680.036 395.742 667.267 400.744 657.415 406.734 C 629.115 423.941 602.064 454.786 588.746 484.884 L 582.783 503.118 C 563.282 444.949 607.356 360.851 669.025 352.317 z" fill="rgb(59,62,115)" transform="translate(0,0)"></path>
<path d="M 816.016 815.68 C 829.122 817.905 820.654 825.471 835.795 833.047 C 888.267 859.303 956.839 857.229 1012.48 843.161 C 1034.34 837.633 1051.87 829.984 1072.21 824.569 C 1067.32 827.877 1062.54 830.831 1057.52 833.925 C 1039.95 846.061 999.964 858.831 977.893 862.651 C 928.007 870.784 867.898 868.916 823.753 841.788 C 813.69 835.604 807.98 825.969 816.016 815.68 z" fill="rgb(59,62,115)" transform="translate(0,0)"></path>
<path d="M 972.235 1075.7 C 982 1116.42 987.273 1177.58 975.17 1217.48 C 970.147 1234.04 963.299 1247.71 955.793 1263.26 L 944.829 1258.3 C 919.722 1266.27 886.99 1299.19 881.802 1325.74 C 886.383 1343.22 893.125 1343.87 909.73 1341.72 C 849.417 1414.1 741.375 1445.68 656.317 1478.89 C 577.728 1508.48 481.574 1553.62 488.79 1653.54 C 492.787 1726.19 548.559 1778.33 617.382 1792.94 C 694.932 1809.4 744.291 1754.03 806.114 1722.37 C 867.31 1691.03 970.068 1701.1 1022.75 1747.86 C 985.642 1731.33 963.213 1725.3 921.759 1729.18 C 908.639 1729.42 892.359 1734.59 879.567 1737.8 C 775.998 1763.75 706.937 1873.04 592.893 1864.79 C 529.424 1860.2 465.356 1831.3 424.115 1782.53 C 387.072 1739.52 369.003 1683.35 374.017 1626.81 C 388.176 1464.9 584.7 1410.31 712.064 1361.22 C 735.016 1352.16 757.652 1342.31 779.934 1331.71 C 811.429 1316.52 844.601 1294.41 871.232 1271.93 C 918.36 1232.16 954.028 1182.05 966.727 1120.78 C 969.968 1105.15 970.91 1091.54 972.235 1075.7 z" fill="rgb(137,212,234)" transform="translate(0,0)"></path>
<path d="M 529.605 1475.21 C 534.679 1474.71 540.275 1475.18 544.995 1477.19 C 549.903 1479.24 553.696 1483.29 555.408 1488.33 C 563.967 1513.86 503.362 1548.43 483.288 1554.77 C 454.054 1559.09 449.986 1535.34 463.811 1514.98 C 477.554 1494.73 505.73 1479.72 529.605 1475.21 z" fill="rgb(59,62,115)" transform="translate(0,0)"></path>
<path d="M 530.496 1483.16 C 537.138 1482.59 545.802 1482.66 548.271 1490.12 C 552.737 1503.89 533.301 1515.93 524.008 1522.7 C 511.588 1531.75 498.126 1539.65 483.948 1545.47 C 461.973 1550.95 458.578 1538.31 469.373 1521.65 C 482.639 1501.17 507.393 1488.34 530.496 1483.16 z" fill="rgb(137,212,234)" transform="translate(0,0)"></path>
<path d="M 441.843 1592.15 C 472.817 1588.07 475.252 1634.05 473.68 1655.11 C 472.191 1675.09 468.837 1688.75 447.513 1693.21 C 399.627 1682.53 409.042 1609.12 441.843 1592.15 z" fill="rgb(59,62,115)" transform="translate(0,0)"></path>
<path d="M 441.908 1599.96 C 454.472 1599.15 460.329 1607.65 463.069 1619.14 C 467.503 1637.73 473.169 1678.76 448.636 1684.81 L 447.574 1684.69 C 412.244 1680.27 418.232 1617.61 441.908 1599.96 z" fill="rgb(137,212,234)" transform="translate(0,0)"></path>
<path d="M 672.584 1408.37 C 693.32 1410.01 701.425 1427.88 690.434 1443.24 C 679.047 1459.14 638.209 1474.42 620.239 1477.81 C 566.513 1481.85 611.315 1413.87 672.584 1408.37 z" fill="rgb(59,62,115)" transform="translate(0,0)"></path>
<path d="M 669.482 1416.27 C 672.062 1415.97 677.992 1415.96 679.983 1417.45 C 712.173 1441.5 636.381 1465.51 622.494 1469.62 C 603.996 1473.14 597.473 1465.47 609.963 1449.51 C 623.352 1432.41 648.3 1419.43 669.482 1416.27 z" fill="rgb(137,212,234)" transform="translate(0,0)"></path>
<path d="M 823.642 1352.33 C 842.77 1351.16 847.742 1368.91 837.8 1381.19 C 823.54 1398.81 788.13 1419.98 766.25 1423.81 C 741.576 1425 741.648 1400.28 752.578 1386.58 C 764.998 1371 804.02 1354.87 823.642 1352.33 z" fill="rgb(59,62,115)" transform="translate(0,0)"></path>
<path d="M 826.319 1359.28 C 841.861 1362.05 835.686 1375.16 827.828 1382.15 C 811.118 1397.02 785.756 1412.3 764.126 1417.58 C 759.005 1416.53 754.221 1414.79 753.109 1409.08 C 749.194 1388.99 771.42 1379.78 785.932 1373.3 C 799.603 1367.19 811.769 1361.51 826.319 1359.28 z" fill="rgb(137,212,234)" transform="translate(0,0)"></path>
<path d="M 477.891 1726.05 C 500.495 1724.79 529.062 1753.29 539.467 1771.56 C 545.399 1781.98 538.41 1789.59 529.092 1793.74 C 492.272 1796.21 440.594 1744.04 477.891 1726.05 z" fill="rgb(59,62,115)" transform="translate(0,0)"></path>
<path d="M 479.852 1731.77 C 495.479 1732.55 534.852 1764.49 532.409 1780.83 C 530.495 1784.45 529.697 1784.47 525.79 1786.37 C 503.029 1788.85 456.908 1752.93 479.852 1731.77 z" fill="rgb(137,212,234)" transform="translate(0,0)"></path>
<path d="M 602.044 1806.36 C 615.353 1805.13 665.911 1804.18 654.471 1835.91 C 651.961 1842.87 637.732 1846.38 630.238 1847.76 C 616.324 1849.28 602.348 1848.65 589.771 1842.37 C 577.684 1836.33 570.072 1821.19 583.604 1812.37 C 590.218 1808.07 594.605 1807.38 602.044 1806.36 z" fill="rgb(59,62,115)" transform="translate(0,0)"></path>
<path d="M 603.66 1813.25 C 617.939 1811.69 644.69 1811.36 651.538 1826.98 C 651.23 1836.02 639.135 1839.08 631.737 1840.8 C 616.987 1842.94 590.528 1841.51 583.607 1826 C 583.815 1816.79 596.12 1814.49 603.66 1813.25 z" fill="rgb(137,212,234)" transform="translate(0,0)"></path>
<path d="M 730.052 1774.12 L 730.33 1774.11 C 743.943 1773.66 750.66 1780.31 742.747 1792.83 C 733.43 1807.57 719.525 1814.37 703.431 1818.59 C 695.027 1818.5 691.361 1816.79 688.739 1808.13 C 683.366 1790.39 717.309 1776.9 730.052 1774.12 z" fill="rgb(59,62,115)" transform="translate(0,0)"></path>
<path d="M 731.188 1781.12 C 735.001 1781.11 736.198 1780.82 738.708 1783.6 C 739.551 1798.92 714.533 1808.08 702.621 1811.58 C 698.485 1811.43 696.098 1811.2 693.678 1807.62 C 692.441 1795.27 720.995 1783.34 731.188 1781.12 z" fill="rgb(137,212,234)" transform="translate(0,0)"></path>
<path d="M 830.468 1723.18 C 837.19 1722.68 843.523 1723.77 842.974 1732.11 C 836.936 1742.98 813.49 1750.42 801.331 1755.23 C 799.3 1755.35 793.919 1755.32 792.374 1754.43 C 779.674 1747.08 796.848 1736.13 802.061 1733.26 C 812.017 1727.78 820.165 1725.55 830.468 1723.18 z" fill="rgb(59,62,115)" transform="translate(0,0)"></path>
<path d="M 832.241 1728.28 L 835.307 1728.58 L 836.326 1730.08 L 835.449 1732.57 C 829.177 1738.71 809.112 1745.51 799.939 1749.14 L 796.727 1748.7 L 795.887 1747.43 C 798.285 1737.58 822.726 1729.64 832.241 1728.28 z" fill="rgb(137,212,234)" transform="translate(0,0)"></path>
<path d="M 873.491 1400.9 L 874.251 1401.38 C 874.96 1403.61 873.968 1405.64 872.674 1407.63 C 807.286 1508.08 722.723 1587.81 779.578 1716.52 C 746.991 1734.2 704.732 1772.2 666.223 1777.35 C 627.193 1782.57 589.95 1768.8 558.827 1746.23 C 520.053 1715.68 497.941 1668.5 509.025 1619.22 C 525.731 1544.95 617.062 1512.45 680.43 1488.92 C 702.374 1480.93 724.158 1472.51 745.769 1463.66 C 794.866 1443.95 829.236 1428.75 873.491 1400.9 z" fill="rgb(255,255,255)" transform="translate(0,0)"></path>
<path d="M 1804.02 853.917 L 1805.65 854.991 C 1810.3 866.901 1820.35 916.63 1823.13 931.173 C 1806.54 929.739 1795.7 929.883 1777.6 934.062 C 1734.4 944.038 1687.04 986.366 1692.85 1034.2 C 1694.41 1047.11 1720.55 1049.71 1731.53 1053.01 C 1756.78 1060.59 1785.05 1068.02 1808.99 1079.75 C 1820.11 1085.25 1822.64 1090.93 1825.61 1101.91 C 1808.17 1109.13 1791.27 1118.27 1773.9 1126.06 L 1604.48 1202.99 C 1588.28 1210.62 1569.45 1219.74 1552.98 1226.22 C 1536.93 1181.56 1524.38 1134.44 1507.87 1089.79 C 1496.52 1059.12 1485.57 1028.31 1475.13 997.308 C 1492.9 987.184 1532.79 970.92 1553.48 961.35 C 1636.25 923.833 1719.78 888.014 1804.02 853.917 z" fill="rgb(137,212,234)" transform="translate(0,0)"></path>
<path d="M 1566.86 979.102 C 1570.12 978.759 1570.37 978.833 1573.66 979.225 C 1578.23 982.67 1592.52 1024.74 1595.5 1032.82 C 1584.06 1042.39 1545.72 1056.48 1530.28 1062.46 C 1526.53 1063.16 1526.59 1063.17 1522.81 1062.77 C 1517.83 1058.81 1500.57 1013.79 1503.95 1010.23 C 1513.57 1000.09 1553.71 984.731 1566.86 979.102 z" fill="rgb(59,62,115)" transform="translate(0,0)"></path>
<path d="M 1570.12 982.982 C 1574.39 985.496 1587.24 1024.27 1590.25 1032.17 C 1579.31 1038.95 1540.67 1054.19 1527.25 1058.95 L 1524.79 1058.23 C 1519.17 1050.42 1509.85 1022.01 1506.07 1011.43 C 1516.8 1004.93 1557.11 988.189 1570.12 982.982 z" fill="rgb(255,255,255)" transform="translate(0,0)"></path>
<path d="M 1617.74 1115.01 C 1620.16 1114.66 1619.22 1114.64 1621.63 1115.41 C 1626.88 1121.48 1638.41 1153.79 1640.49 1162.29 C 1630.96 1168.25 1585.21 1186.75 1573.24 1191.36 C 1570.78 1192.03 1571.71 1191.97 1569.2 1191.5 C 1562.84 1185.35 1553.36 1152.22 1551.98 1142.25 C 1573.75 1132.83 1595.68 1123.75 1617.74 1115.01 z" fill="rgb(59,62,115)" transform="translate(0,0)"></path>
<path d="M 1619.07 1119.05 C 1621.61 1120.68 1633.91 1154.39 1636.04 1159.82 C 1618 1168.7 1591.76 1179.47 1572.99 1187.07 L 1571.13 1186.65 C 1568.91 1183.21 1558.21 1152.24 1556.1 1146.34 C 1573.41 1136.69 1600.74 1126.25 1619.07 1119.05 z" fill="rgb(255,255,255)" transform="translate(0,0)"></path>
<path d="M 1592.59 1054.21 C 1594.83 1053.86 1596.79 1053.82 1599.05 1053.72 C 1606.84 1057.25 1616.37 1088.43 1615.09 1094.62 C 1609.71 1100.44 1562.16 1119.92 1552.26 1123.41 C 1549.08 1124.04 1545.67 1124.91 1543.83 1121.47 C 1538.99 1112.4 1529.69 1089.78 1531.4 1080.01 C 1539.04 1072.78 1580.02 1058.88 1592.59 1054.21 z" fill="rgb(59,62,115)" transform="translate(0,0)"></path>
<path d="M 1594.06 1057.96 C 1596.53 1057.65 1596.36 1057.59 1598.67 1058.48 C 1603.84 1064.61 1610.1 1084.7 1611.82 1092.84 C 1597.21 1101.1 1567.91 1112.59 1551.81 1119.07 L 1548.66 1118.95 C 1544.01 1114.36 1536.01 1089.09 1534.05 1081.96 C 1545.55 1075.27 1580.19 1063.14 1594.06 1057.96 z" fill="rgb(255,255,255)" transform="translate(0,0)"></path>
<path d="M 1068.13 1028.99 C 1075.25 1035.52 1083.84 1048.74 1089.75 1056.82 C 1137.03 1121.5 1149.66 1208.54 1149.04 1286.86 C 1149 1294.4 1148.19 1318.03 1146.46 1325.2 C 1133.4 1433.07 1082.12 1538.37 994.317 1606.98 C 988.92 1611.19 940.323 1640.6 937.025 1640.26 C 917.282 1625.09 888.274 1672.39 882.176 1687.69 C 875.648 1686.84 848.264 1691.24 841.011 1692.52 C 872.94 1642 916.472 1603.41 957.742 1560.86 C 1079.04 1435.81 1132.17 1236.17 1082.47 1067.88 C 1078.33 1055.13 1072.94 1041.59 1068.13 1028.99 z" fill="rgb(137,212,234)" transform="translate(0,0)"></path>
<path d="M 1084.19 1415.09 C 1123.6 1412.81 1105.58 1457.15 1091.94 1474.74 C 1084.16 1484.77 1080.62 1489.16 1068.82 1494.54 C 1033.73 1502.86 1049.06 1461.83 1058 1446.88 C 1066.45 1432.73 1066.09 1422.42 1084.19 1415.09 z" fill="rgb(59,62,115)" transform="translate(0,0)"></path>
<path d="M 1085.26 1421.06 C 1123.47 1419.4 1087.97 1476.8 1066.85 1488.48 C 1053.4 1490.6 1049.74 1481.73 1054.25 1471.79 C 1061.61 1455.58 1069.12 1429.41 1085.26 1421.06 z" fill="rgb(137,212,234)" transform="translate(0,0)"></path>
<path d="M 1008.06 1543.09 C 1019.98 1542.47 1033.57 1547.18 1027.71 1561.8 C 1019.55 1582.14 997.237 1602.43 977.748 1611.49 C 940.237 1620.97 966.9 1574.6 979.995 1563.96 C 992.425 1553.86 989.549 1548.65 1008.06 1543.09 z" fill="rgb(59,62,115)" transform="translate(0,0)"></path>
<path d="M 1007.41 1550.07 C 1014.66 1549.67 1025.47 1551.09 1021.17 1561.62 C 1014.47 1578.03 994.285 1596.47 978.989 1604.66 C 973.215 1606.25 969.675 1607.25 965.831 1601.91 C 963.164 1586.98 994.868 1555.33 1007.41 1550.07 z" fill="rgb(137,212,234)" transform="translate(0,0)"></path>
<path d="M 1143.96 1326.14 C 1141.15 1339.65 1129.63 1363.94 1113.22 1357.01 C 1101.16 1351.91 1107.44 1319.47 1108.45 1310.23 C 1110.34 1292.86 1115.59 1263.06 1139.92 1274.95 C 1144.26 1277.08 1145.23 1283.2 1146.15 1287.38 C 1146.76 1300.34 1146.03 1313.33 1143.96 1326.14 z" fill="rgb(59,62,115)" transform="translate(0,0)"></path>
<path d="M 1125.76 1278.77 C 1138.23 1278.33 1141.58 1289.28 1141.02 1300.01 C 1140.1 1317.53 1137.27 1337.48 1124.16 1350.29 C 1121.86 1351.44 1121.9 1351.27 1119.33 1351.92 C 1110.97 1349.48 1110.37 1337.37 1111.89 1330.59 C 1114.99 1316.81 1114.82 1287.4 1125.76 1278.77 z" fill="rgb(137,212,234)" transform="translate(0,0)"></path>
<path d="M 1525.54 854.417 C 1553.6 852.858 1594.11 863.215 1616.58 880.267 C 1604.49 885.794 1591.15 890.112 1578.79 895.4 C 1519.95 920.591 1459.51 942.489 1401.54 969.582 C 1398.98 970.778 1394.85 977.143 1394.01 979.8 C 1391.92 984.003 1393.81 987.272 1394.8 991.593 C 1398.23 1002.7 1402.87 1013.91 1406.91 1024.87 C 1411.62 1038.05 1416.16 1051.29 1420.53 1064.58 C 1428.65 1088.71 1437.08 1112.53 1445.55 1136.52 C 1451.94 1154.59 1457.09 1174.28 1464.22 1191.96 C 1456.04 1187.2 1450.42 1183.38 1442.67 1177.88 C 1432.45 1170.68 1422.58 1162.78 1412.42 1155.43 C 1370.78 1125.29 1341.53 1081.22 1303.24 1046.97 C 1291.4 1036.37 1279.46 1026.32 1267.37 1016.04 C 1298.45 990.228 1325.37 960.185 1356.99 934.115 C 1410.02 890.388 1454.28 859.389 1525.54 854.417 z" fill="rgb(255,255,255)" transform="translate(0,0)"></path>
<path d="M 1148.22 970.725 C 1160.1 972.92 1169.77 978.735 1180.24 983.832 C 1231.8 1008.92 1268.85 1050.55 1294.57 1101.13 C 1309.95 1131.39 1325.45 1161.92 1334.82 1195.1 C 1355.94 1270.85 1364.25 1364.69 1349.4 1442.48 C 1345.37 1463.62 1338.96 1484.63 1334.66 1505.44 C 1324.4 1555.11 1323.52 1616.91 1352.72 1660.6 C 1374.09 1692.99 1407.68 1715.34 1445.81 1722.55 C 1494.32 1731.81 1531.24 1719.45 1571.62 1693.54 C 1654.43 1640.42 1631.68 1536.2 1696.49 1470.71 C 1742.55 1424.17 1805.93 1418.47 1865 1441.73 C 1871.73 1444.88 1878.99 1448.09 1885.62 1451.35 C 1877.64 1449.69 1871.3 1446.96 1865 1445.57 C 1830.42 1435.27 1782.42 1437.43 1750.05 1455.35 C 1640.19 1516.17 1678.57 1658.92 1570.18 1726.21 C 1538.95 1745.59 1516.54 1753.11 1479.27 1753.33 C 1447.93 1752.95 1410.11 1740.69 1384.67 1722.34 C 1357.68 1702.87 1332.27 1664.97 1324.64 1632.49 C 1306.07 1553.37 1325.26 1464.48 1330.23 1384.46 C 1333.52 1342.66 1331.51 1305.69 1325.35 1264.34 C 1309.72 1159.6 1253.04 1063.86 1176.58 991.766 C 1168.57 984.214 1157.23 977.244 1148.22 970.725 z" fill="rgb(137,212,234)" transform="translate(0,0)"></path>
<path d="M 1128.59 950.765 C 1158.57 940.196 1180.24 932.13 1207.74 916.145 C 1297.88 863.753 1399.07 764.826 1510.9 779.471 C 1575.8 787.97 1617.64 811.803 1658.23 862.48 L 1645.1 868.196 C 1614.43 836.637 1573.19 823.45 1530.04 821.692 C 1431.66 817.685 1367.3 878.071 1301.24 941.17 C 1281.47 960.049 1258.66 982.559 1235.25 997.707 C 1232.92 997.283 1216.71 986.744 1213.55 984.827 C 1187.28 968.859 1158.78 956.88 1128.59 950.765 z" fill="rgb(247,139,151)" transform="translate(0,0)"></path>
<path d="M 1429.62 969.871 C 1453.76 960.143 1476.98 949.789 1500.91 939.956 L 1697.1 860.861 C 1725.48 849.648 1753.3 837.05 1781.83 826.239 C 1795.36 821.112 1798 831.958 1802.61 842.167 C 1785.58 847.46 1767.68 855.109 1751.17 862.25 C 1672.08 896.466 1592.67 930.494 1514.49 966.706 C 1500.09 973.372 1475.48 982.799 1463.52 991.357 C 1472.81 1028.64 1489.01 1066.47 1501.54 1102.94 C 1515.74 1143.31 1527.57 1184.46 1542.78 1224.48 C 1545.54 1231.73 1546.72 1239.64 1555.92 1236.23 C 1580.79 1226.99 1604.97 1215.16 1629.38 1204.69 C 1680.74 1182.52 1731.69 1159.42 1782.21 1135.4 C 1794.1 1129.76 1820.43 1119.18 1829.48 1114.12 C 1831.91 1112.77 1833.91 1110.75 1835.24 1108.3 C 1836.46 1106.05 1837.88 1101.39 1838.65 1098.85 C 1847.4 1104.42 1859.89 1110.23 1868.18 1100.44 C 1870.58 1099.33 1871.23 1091.55 1873.36 1089.83 C 1874.56 1088.86 1874.6 1088.55 1875.4 1087.24 C 1875.03 1132.96 1856.87 1129.66 1820.95 1146.58 L 1686.93 1208.07 C 1638.68 1230.02 1586.93 1253.58 1536.92 1270.85 C 1507.69 1197.3 1486.3 1118.76 1458.16 1044.62 C 1449.12 1020.79 1441.75 991.92 1429.62 969.871 z" fill="rgb(105,118,169)" transform="translate(0,0)"></path>
<path d="M 1271.1 1040.69 C 1289.84 1046.87 1354.27 1131.61 1373.85 1150.8 C 1410.33 1186.55 1424.48 1199.48 1472.79 1219.15 C 1480.49 1240.49 1487.48 1262.21 1495.09 1283.67 C 1486.11 1282.54 1475.09 1282.41 1465.67 1281.36 C 1429.42 1277.31 1398.3 1272.54 1365.92 1255.06 C 1353.71 1175.97 1324.44 1101.03 1271.1 1040.69 z" fill="rgb(247,139,151)" transform="translate(0,0)"></path>
<path d="M 917.561 1748.36 C 920.255 1747.9 920.579 1748.02 923.348 1748.21 C 927.443 1751.04 931.389 1756.97 933.788 1761.35 C 951.7 1794.07 964.06 1833.56 953.236 1870.52 C 944.469 1900.46 926.588 1925.51 898.723 1939.84 C 887.391 1945.67 864.213 1957.26 851.389 1953.56 C 846.763 1948.85 851.148 1944.97 854.784 1941.17 L 855.719 1940.21 C 867.438 1930.25 879.861 1920.91 887.921 1907.65 C 920.944 1853.34 883.399 1800.54 836.448 1772.31 C 860.037 1761.92 892.202 1751.58 917.561 1748.36 z" fill="rgb(137,212,234)" transform="translate(0,0)"></path>
<path d="M 900.034 1789.69 C 923.818 1789.39 940.317 1839.68 936.084 1859.29 C 934.828 1865.11 933.271 1867.16 929.138 1871.17 C 927.583 1871.56 926.01 1871.87 924.425 1872.1 C 918.522 1872.93 912.804 1869.02 911.016 1863.43 C 904.744 1843.81 898.017 1823.75 893.456 1803.68 C 892.295 1798.57 897.059 1793.11 900.034 1789.69 z" fill="rgb(59,62,115)" transform="translate(0,0)"></path>
<path d="M 902.931 1795.48 C 904.047 1795.75 905.801 1796.2 906.708 1796.87 C 923.924 1809.63 937.176 1845.66 926.598 1865 C 923.269 1865.54 923.489 1865.5 920.191 1864.69 C 913.273 1859.66 903.179 1816.61 899.205 1806.34 C 897.793 1802.7 900.818 1798.44 902.931 1795.48 z" fill="rgb(137,212,234)" transform="translate(0,0)"></path>
<path d="M 1801.6 949.421 C 1824.69 946.985 1852.72 957.603 1870.26 972.569 C 1888.43 987.89 1899.76 1009.81 1901.75 1033.5 C 1903.77 1060.77 1893.35 1088.78 1875.74 1109.38 C 1876.07 1101.58 1877.85 1093.14 1878.32 1085.31 C 1879.47 1066.28 1873.94 1050.62 1863.12 1035.44 C 1819.99 991.615 1760.09 993.389 1711.38 1027.21 L 1709.61 1026.54 C 1705.29 1017.56 1721.6 992.586 1727.83 985.538 C 1747.23 963.592 1772.32 951.125 1801.6 949.421 z" fill="rgb(247,139,151)" transform="translate(0,0)"></path>
<path d="M 1240.4 1001.01 C 1255.1 986.856 1273.43 974.094 1289.13 959.024 C 1355.87 894.953 1421.05 825.578 1521.13 825.846 C 1565.62 825.965 1607.36 837.298 1640.19 869.248 C 1636.33 872.18 1632.54 873.148 1627.95 874.787 C 1513.05 790.914 1390.24 875.458 1306.63 958.81 C 1290.17 975.216 1272.45 992.143 1254.86 1007.27 C 1250.02 1005.22 1245.2 1003.14 1240.4 1001.01 z" fill="rgb(137,212,234)" transform="translate(0,0)"></path>
<path d="M 1716.38 1211.04 L 1717.08 1211.17 L 1716.76 1212.28 C 1621.46 1290.69 1490.68 1334.75 1370.45 1290.02 C 1369.57 1285.46 1369.25 1280.43 1368.82 1275.78 L 1366.62 1261.86 C 1404.48 1281.22 1456.94 1289.44 1499.28 1288.98 C 1506.69 1295.62 1514.1 1297.06 1523.99 1295.11 C 1529.01 1294.47 1533.17 1287.15 1537.42 1285.78 C 1598.82 1266.08 1657.97 1238.09 1716.38 1211.04 z" fill="rgb(137,212,234)" transform="translate(0,0)"></path>
<path d="M 1416.32 976.887 C 1426.54 984.662 1448.81 1056.62 1453.92 1071.6 C 1470.26 1118.19 1486.09 1164.96 1501.41 1211.91 C 1508.14 1232.48 1513.38 1255.34 1522.41 1274.44 C 1523.56 1276.89 1523.74 1276.86 1524.59 1279.75 C 1522.4 1282.07 1519.55 1282.1 1516.25 1282.73 C 1504.39 1280.85 1502.07 1267.84 1498.79 1257.49 C 1486.44 1218.55 1473.69 1179.61 1460.37 1140.98 L 1429.35 1051.56 C 1424.08 1036.73 1409.43 1001.25 1407.28 983.941 C 1406.99 981.575 1413.82 978.101 1416.32 976.887 z" fill="rgb(255,255,255)" transform="translate(0,0)"></path>
<path d="M 1774.08 1025.46 C 1793.13 1025.19 1807.71 1027.56 1825.6 1033.54 C 1829.66 1048.09 1834.38 1073.61 1835.49 1088.38 C 1824.84 1074.27 1814.34 1071.13 1798.64 1064.07 C 1773.07 1052.48 1738.87 1046.56 1712.39 1037.19 C 1737.41 1032.83 1742.93 1027.27 1774.08 1025.46 z" fill="rgb(137,212,234)" transform="translate(0,0)"></path>
<path d="M 943.814 1265.81 C 947.238 1266.99 949.526 1267.95 951.131 1271.35 C 950.943 1276.9 944.476 1287.25 941.183 1291.74 C 930.764 1305.94 916.771 1332.88 898.154 1335.76 C 889.934 1333.78 886.417 1327.06 889.411 1319.48 C 897.247 1299.65 925.756 1274.69 943.814 1265.81 z" fill="rgb(137,212,234)" transform="translate(0,0)"></path>
<path d="M 1825.78 1017.94 C 1850.27 1024.44 1869.11 1068.41 1862.67 1090.39 C 1849.62 1095.06 1850.53 1093.13 1848.53 1082 C 1845.9 1067.45 1842.84 1051.24 1837.96 1037.34 C 1836.53 1033.27 1828.49 1021.99 1825.78 1017.94 z" fill="rgb(255,255,255)" transform="translate(0,0)"></path>
<path d="M 1769.88 1009.37 C 1774.74 1008.72 1791 1008.75 1795.85 1009.42 C 1810.23 1011.41 1814.28 1012.74 1822.7 1023.1 C 1799.95 1017.16 1793.33 1016.53 1769.34 1016.07 C 1746.28 1019.03 1738.57 1020.72 1717.32 1028.68 C 1735.27 1016.78 1748.57 1012.56 1769.88 1009.37 z" fill="rgb(255,255,255)" transform="translate(0,0)"></path>
<path d="M 292.527 1266.96 C 294.053 1267.59 303.407 1274.53 304.795 1276 C 310.177 1281.67 338.694 1297.86 339.506 1303.5 L 336.819 1306.32 C 336.089 1306.31 332.915 1306.19 332.484 1306.03 C 321.977 1302.27 293.716 1281 288.222 1272.46 C 288.785 1269.75 290.108 1269.33 292.527 1266.96 z" fill="rgb(137,212,234)" transform="translate(0,0)"></path>
<path d="M 460.528 1337.83 C 471.431 1338.17 505.272 1338.71 513.585 1342.06 C 515.658 1344.94 514.972 1343.26 514.699 1347.61 C 503.019 1349.46 472.789 1349.81 461.623 1347.18 C 459.627 1343.62 460.45 1342.65 460.528 1337.83 z" fill="rgb(137,212,234)" transform="translate(0,0)"></path>
<path d="M 890.2 1685.05 C 897.484 1671.78 915.389 1642.43 932.785 1642.5 C 930.167 1646.92 926.638 1650.03 923.117 1653.84 C 913.801 1663.93 909.115 1672.84 904.969 1685.91 C 900.354 1686 894.318 1686.59 890.2 1685.05 z" fill="rgb(137,212,234)" transform="translate(0,0)"></path>
<path d="M 204.319 1109.24 C 204.796 1109.41 207.033 1110.59 207.105 1110.86 C 211.379 1126.82 216.724 1142.27 221.825 1157.95 C 220.492 1160.79 219.875 1160.32 216.418 1162.17 L 214.248 1162.69 C 208.466 1156.31 200.031 1123 200.709 1112.71 C 200.839 1110.72 202.636 1110.33 204.319 1109.24 z" fill="rgb(137,212,234)" transform="translate(0,0)"></path>
<path d="M 1868.18 1100.44 C 1872.28 1084.55 1865.96 1047.51 1854.27 1034.65 C 1853.13 1033.38 1853.42 1033.91 1853.46 1032.16 C 1867.94 1041.66 1874.21 1071.29 1875.4 1087.24 C 1874.6 1088.55 1874.56 1088.86 1873.36 1089.83 C 1871.23 1091.55 1870.58 1099.33 1868.18 1100.44 z" fill="rgb(247,139,151)" transform="translate(0,0)"></path>
<path d="M 1556.15 305.19 C 1565.84 304.162 1574.17 305.843 1583.54 307.908 C 1616.19 315.098 1606.53 339.409 1599.46 362.171 C 1610.03 367.262 1621.22 374.494 1630.53 381.636 C 1640.11 375.593 1653.52 370.531 1664.55 368.04 C 1682.29 375.397 1692.7 393.271 1697.42 411.12 C 1690.66 424.888 1679.29 432.861 1667.62 442.606 C 1671.66 453.759 1673.41 459.216 1675.51 470.885 C 1688.84 473.194 1702.04 475.125 1714.59 480.344 C 1715.81 483.347 1716.81 486.438 1717.57 489.589 C 1720.48 501.228 1721.14 521.006 1714.87 531.509 C 1708.54 542.134 1685.39 541.012 1671.94 543.434 C 1667.93 553.109 1663.81 562.735 1659.56 572.31 C 1665.08 578.67 1675.6 592.435 1677.66 600.304 C 1681.25 614.018 1650.08 639.431 1638.84 642.525 C 1631.74 644.48 1610.97 626.736 1604.93 622.057 C 1594.52 626.859 1583.85 631.062 1572.97 634.647 C 1572.38 643.75 1573.49 666.552 1566.67 671.991 C 1553.07 682.846 1520.37 684.605 1508.52 669.947 C 1499.78 659.138 1499.84 648.952 1500.79 636.476 C 1488.05 635.597 1484.23 633.65 1472.34 628.754 C 1464.03 639.126 1457.64 649.194 1444.17 653.055 C 1424.24 658.765 1403.22 643.267 1399.12 623.807 C 1396.01 609.052 1404.04 598.818 1411.59 587.295 C 1402.95 577.626 1398.77 569.646 1392.93 558.128 C 1382.46 562.117 1373.33 566.809 1362.28 562.998 C 1351.34 559.475 1343.54 550.333 1340.59 539.152 C 1332.35 507.938 1349.57 497.54 1376.66 493.504 C 1377.7 482.219 1378.75 469.13 1381.52 458.222 C 1369.1 452.573 1356.58 447.413 1352.37 432.919 C 1347.5 416.142 1361.93 390.129 1378.41 384.889 C 1387.65 381.95 1403.08 391.496 1411.29 396.003 C 1418.96 388.257 1427.29 379.075 1436.08 372.875 C 1420.15 340.137 1412.73 329.702 1454.72 313.241 C 1462.01 310.381 1467.03 310.749 1474.66 311.043 C 1486.73 317.45 1492.98 332.494 1500.79 344.67 C 1513.49 342.362 1523.18 341.804 1535.95 342.754 C 1539.01 327.711 1541.36 312.368 1556.15 305.19 z" fill="rgb(59,62,115)" transform="translate(0,0)"></path>
<path d="M 1524.59 360.331 C 1596.27 358.872 1655.61 415.699 1657.26 487.375 C 1658.9 559.052 1602.23 618.54 1530.56 620.37 C 1458.62 622.207 1398.87 565.281 1397.22 493.342 C 1395.56 421.402 1452.65 361.796 1524.59 360.331 z" fill="rgb(255,255,255)" transform="translate(0,0)"></path>
<path d="M 1520.62 384.54 C 1578.59 380.637 1628.8 424.346 1632.92 482.299 C 1637.04 540.252 1593.52 590.626 1535.58 594.965 C 1477.34 599.327 1426.64 555.525 1422.49 497.262 C 1418.35 439 1462.34 388.464 1520.62 384.54 z" fill="rgb(59,62,115)" transform="translate(0,0)"></path>
<path d="M 1521.17 398.045 C 1571.89 394.434 1615.95 432.575 1619.64 483.286 C 1623.33 533.996 1585.26 578.116 1534.55 581.886 C 1483.74 585.665 1439.5 547.49 1435.8 496.667 C 1432.1 445.844 1470.34 401.664 1521.17 398.045 z" fill="rgb(137,212,234)" transform="translate(0,0)"></path>
<path d="M 1515.12 420.054 C 1555.96 413.711 1594.13 441.882 1600.11 482.771 C 1606.08 523.661 1577.57 561.579 1536.63 567.189 C 1496.2 572.728 1458.87 544.653 1452.97 504.279 C 1447.06 463.904 1474.8 426.317 1515.12 420.054 z" fill="rgb(59,62,115)" transform="translate(0,0)"></path>
<path d="M 1516.88 432.612 C 1550.62 427.085 1582.44 449.998 1587.9 483.751 C 1593.36 517.505 1570.38 549.279 1536.62 554.668 C 1502.95 560.042 1471.29 537.145 1465.84 503.489 C 1460.4 469.832 1483.23 438.123 1516.88 432.612 z" fill="rgb(255,255,255)" transform="translate(0,0)"></path>
<path d="M 1516.57 468.124 C 1530.55 462.888 1546.13 469.976 1551.36 483.955 C 1556.6 497.934 1549.51 513.51 1535.53 518.746 C 1521.55 523.981 1505.98 516.893 1500.74 502.914 C 1495.5 488.936 1502.59 473.359 1516.57 468.124 z" fill="rgb(59,62,115)" transform="translate(0,0)"></path>
<path d="M 1521 481.387 C 1527.66 478.664 1535.27 481.9 1537.93 488.589 C 1540.59 495.278 1537.28 502.851 1530.57 505.447 C 1523.94 508.008 1516.49 504.754 1513.87 498.155 C 1511.24 491.555 1514.43 484.073 1521 481.387 z" fill="rgb(255,255,255)" transform="translate(0,0)"></path>
<path d="M 1402.19 76.4011 C 1450.69 72.6491 1493.17 108.649 1497.43 157.112 C 1501.69 205.575 1466.13 248.43 1417.72 253.191 C 1385.94 256.316 1354.94 242.134 1336.53 216.053 C 1318.12 189.973 1315.14 156.013 1328.72 127.123 C 1342.3 98.2321 1370.36 78.8633 1402.19 76.4011 z" fill="rgb(59,62,115)" transform="translate(0,0)"></path>
<path d="M 1397.93 91.9188 C 1438 85.5092 1475.72 112.697 1482.31 152.742 C 1488.9 192.788 1461.88 230.628 1421.87 237.398 C 1381.6 244.21 1343.46 216.982 1336.83 176.681 C 1330.2 136.38 1357.6 98.3692 1397.93 91.9188 z" fill="rgb(137,212,234)" transform="translate(0,0)"></path>
<path d="M 1419.75 112.371 C 1432 111.911 1442.73 114.129 1453 122.017 C 1463.88 130.369 1472.82 148.463 1462.11 160.606 C 1456.47 166.996 1448.63 168.69 1440.34 169.404 C 1392.11 168.37 1371.09 121.307 1419.75 112.371 z" fill="rgb(255,255,255)" transform="translate(0,0)"></path>
<path d="M 1279.71 236.809 C 1303.68 234.153 1325.34 251.255 1328.31 275.188 C 1331.28 299.121 1314.46 320.998 1290.57 324.281 C 1274.83 326.443 1259.15 319.971 1249.52 307.34 C 1239.89 294.709 1237.8 277.872 1244.05 263.27 C 1250.3 248.668 1263.93 238.559 1279.71 236.809 z" fill="rgb(59,62,115)" transform="translate(0,0)"></path>
<path d="M 1281.2 250.238 C 1289.22 249.788 1295.9 251.395 1302.42 256.309 C 1309.38 261.603 1313.94 269.472 1315.05 278.152 C 1317.29 296.343 1305.29 308.731 1287.62 310.328 C 1243.27 306.989 1240.44 257.823 1281.2 250.238 z" fill="rgb(137,212,234)" transform="translate(0,0)"></path>
<path d="M 1282.59 263.052 C 1299.67 262.476 1313.61 275.933 1293.15 287.066 C 1286.7 288.623 1281.04 288.502 1276.79 282.6 C 1274.84 279.908 1274.08 276.531 1274.69 273.261 C 1275.63 268.207 1278.56 265.701 1282.59 263.052 z" fill="rgb(255,255,255)" transform="translate(0,0)"></path>
<metadata><recraft-signature>{"signed_by": "recraft", "signature_b64": "oWb6QE0KnSwOQCuPT0p1oDwiuNdNNcZTWsoHMV4Fs/JkTuW5QLW4/RytgmPUhtDDi6oVD8MCvdWg6ZwA1iVgDw==", "signing_algo": "Ed25519", "generation_timestamp": 1771193574, "identifier": "5d49c55b-b639-4abb-bf2e-faed9cb83a63"}</recraft-signature></metadata></svg>