<svg xmlns="http://www.w3.org/2000/svg" height="1024" preserveAspectRatio="none" style="display: block;" version="1.1" viewBox="0 0 2048 2048" width="1024">
<path d="M 0 0 L 2048 0 L 2048 2048 L 0 2048 L 0 0 z" fill="rgb(255,255,255)" transform="translate(0,0)"></path>
<path d="M 529.562 73.4165 C 692.93 65.1762 874.954 162.592 980.991 282.729 C 1087.65 403.569 1139.59 573.382 1130.51 733.242 C 1160.81 735.428 1180.89 745.367 1198.99 771.052 C 1215.69 794.731 1217.79 819.866 1212.44 847.81 C 1236.57 848.522 1260.59 848.768 1284.7 847.096 C 1355.56 842.18 1492.19 820.928 1547.84 776.245 C 1574.34 754.968 1593.61 724.677 1597.27 690.467 C 1602.41 642.453 1552.82 607.616 1514.85 589.188 C 1491.2 577.712 1466.1 569.578 1441.59 560.179 C 1424.33 553.562 1406.95 546.308 1390.39 538.099 C 1360.85 523.457 1332.22 504.38 1311.63 478.27 C 1285.79 445.511 1276.28 401.461 1281.5 360.464 C 1286.64 320.088 1306.58 287.962 1338.65 263.31 C 1371.3 238.211 1417 223.945 1458.16 229.66 C 1469.36 231.216 1496.08 237.577 1501.98 248.229 C 1502.75 249.614 1503.1 251.046 1502.57 252.539 C 1501.63 255.155 1499.59 256.787 1497.04 257.713 C 1490.74 260.008 1482.38 260.26 1475.69 261.373 C 1461.33 263.76 1447.02 269.719 1434.45 276.927 C 1408.13 291.663 1388.86 316.377 1380.99 345.491 C 1369.46 389.796 1393.6 431.694 1430.5 455.49 C 1449.9 467.995 1482.64 478.444 1504.39 487.296 C 1567.28 512.891 1647.72 547.037 1683.48 607.925 C 1689.62 601.057 1696.31 594.687 1703.46 588.875 C 1767.6 536.462 1856.79 533.544 1910.22 602.065 C 1925.29 621.391 1933.87 639.713 1931.7 664.739 C 1931.32 669.149 1929.79 672.349 1926.2 674.951 C 1919.14 674.427 1900.81 663.697 1893.07 659.807 C 1851.88 639.11 1790.52 649.267 1771.25 695.719 C 1746.96 754.268 1815.37 808.923 1852.1 845.33 C 1892.58 885.459 1931.69 932.324 1954.83 985.033 C 1982.14 1048.81 1984.18 1129.56 1958.63 1194.08 C 1930.97 1263.91 1870.33 1321.94 1800.82 1349.49 C 1700.87 1388.93 1602.95 1385.03 1504.62 1344.31 C 1526.8 1456.09 1482.14 1540.52 1405.73 1616.85 C 1376.83 1646.75 1346.63 1673.26 1334.61 1714.62 C 1316.24 1777.78 1349.18 1837.36 1412.76 1855.1 C 1441.04 1862.69 1471.18 1858.65 1496.45 1843.87 C 1536.72 1820.55 1555.99 1768.74 1565.84 1724.91 C 1582.17 1649.97 1643.04 1604.86 1719.6 1620.73 C 1728.8 1622.63 1735.07 1633.81 1729.74 1637.52 C 1709.26 1651.75 1691.47 1661 1674.57 1680.57 C 1638.51 1722.32 1631.69 1776.06 1616.77 1827.11 C 1600.7 1879.91 1570.05 1929.43 1520.24 1955.94 C 1492.57 1969.46 1472.75 1974.62 1441.39 1975.08 C 1382.1 1975.94 1319.62 1950.6 1277.35 1909.08 C 1245.95 1878.23 1225.32 1835.26 1215.08 1792.5 C 1201.36 1735.17 1209.36 1667.59 1240.23 1616.83 C 1253.22 1595.73 1270.69 1576.88 1285.52 1557.25 C 1330.55 1497.65 1351.17 1435.17 1319.07 1364.08 C 1284.75 1288.07 1217.91 1240.45 1156.92 1186.7 C 1132.72 1165.37 1113.45 1144.76 1090.86 1122.52 C 1108.91 1201.81 1141.19 1264.41 1186.93 1331.83 C 1222.13 1384.62 1283.66 1456.3 1262.62 1524.21 C 1237.39 1605.64 1117.3 1579.45 1054.21 1577.28 C 1017.23 1575.86 980.204 1577.92 943.614 1583.43 C 860.295 1595.56 805.744 1618.39 732.275 1657.41 C 802.187 1664.24 867.06 1705.5 896.429 1770.67 C 911.777 1805.2 913.736 1844.24 899.298 1879.67 C 889.883 1902.78 865.863 1931.33 843.798 1943.95 C 841.789 1945.1 837.125 1945.34 835.211 1943.89 C 823.743 1935.19 834.797 1921.81 835.525 1910.82 C 840.867 1866.95 818.537 1829.5 783.173 1804.99 C 737.809 1773.19 681.055 1773.53 629.614 1788.16 C 605.566 1795 604.105 1794.64 596.275 1818.29 C 586.325 1847.42 584.12 1878.64 589.877 1908.88 C 592.256 1921 595.939 1931.57 599.187 1943.32 C 599.7 1946.57 598.057 1950.27 596.052 1952.55 C 587.301 1962.49 573.883 1952.7 567.282 1945.32 C 547.271 1922.95 536.079 1892.06 532.307 1862.59 C 530.738 1850.33 531.217 1837.4 531.632 1824.96 C 480.864 1839.43 441.766 1844.39 389.001 1833.62 C 315.641 1818.64 255.064 1780.59 214.031 1717.08 C 173.626 1654.53 156.404 1578.67 171.656 1505.31 C 103.405 1437.7 68.8698 1324.48 98.7061 1231.96 C 133.563 1123.88 235.383 1061.43 344.86 1052.35 C 423.357 1045.84 549.273 1042.45 578.782 952.097 C 562.562 946.179 546.609 938.442 530.242 932.323 C 420.778 891.406 312.768 854.552 223.813 776.203 C 59.3295 631.333 69.7452 378.244 210.12 221.276 C 275.664 149.207 362.663 100.146 458.249 81.3511 C 481.715 76.7698 505.724 74.7229 529.562 73.4165 z" fill="rgb(59,62,115)" transform="translate(0,0)"></path>
<path d="M 388.618 123.345 C 608.727 29.0929 893.255 170.267 1014.96 360.612 C 1078.73 462.128 1111.68 580.813 1112.67 700.496 C 1112.76 711.214 1113.41 724.093 1110.48 734.244 C 1109.54 737.501 1106.09 737.846 1103.19 738.567 C 1092.15 742.031 1063.49 757.418 1063.11 770.206 C 1067.36 769.854 1071.76 765.254 1076.66 763.464 C 1112.06 742.181 1162.53 745.907 1183.59 784.574 C 1196.26 807.837 1198.61 827.144 1196.72 853.15 C 1196.02 859.639 1193.29 876.88 1193.52 882.158 L 1194.52 883.083 C 1195.54 881.746 1196.23 880.862 1197.15 879.446 L 1203.25 866.556 C 1284.69 871.087 1360.25 862.183 1439.29 842.195 C 1491.69 828.942 1519.68 819.46 1564.77 787.413 C 1595.87 757.712 1607.3 731.097 1615.61 689.804 C 1617.89 732.547 1608.29 769.811 1578.11 802.035 C 1494.63 891.158 1361.68 918.685 1244.54 925.865 C 1222.58 927.211 1177.15 926.772 1156.84 919.378 C 1147.56 916.001 1130.74 904.083 1119.14 901.391 C 1107.48 896.352 1086.21 888.232 1073.98 888.381 C 1079.75 891.161 1092.8 897.791 1098.33 899.66 C 1126.96 915.165 1152.65 926.158 1180.39 945.513 C 1273.52 1010.51 1360.23 1093.73 1417.42 1192.56 C 1425.43 1206.39 1436.81 1226.09 1442.59 1240.66 C 1442.76 1240.92 1442.94 1241.18 1443.11 1241.44 C 1455.11 1265.22 1466.11 1289.76 1474.42 1315.08 C 1479.59 1330.83 1484.79 1346.93 1487.53 1363.25 C 1498.26 1427.25 1478.77 1490.58 1442.75 1543.3 C 1431.87 1559.23 1411.11 1582.27 1397.8 1596.65 C 1364.21 1632.96 1326.6 1664.14 1313.26 1714.28 C 1302.86 1753.35 1311.1 1794.11 1331.67 1828.48 C 1350.49 1860.56 1381.45 1883.69 1417.55 1892.63 C 1449.03 1900.26 1484.64 1898.21 1514.05 1884.11 C 1631.27 1827.93 1581.06 1710.87 1671.13 1655.73 C 1638.49 1691.11 1626.44 1716.13 1614.56 1762.28 C 1600.96 1813.38 1592.11 1855.31 1559.38 1898.46 C 1498.5 1978.7 1382.96 1966.61 1309.63 1911.76 C 1281.4 1890.64 1262.88 1821.11 1259.48 1786.97 C 1252.57 1723.43 1272.25 1659.87 1313.86 1611.35 C 1328.92 1593.8 1348.07 1577.8 1362.25 1559.67 C 1399.78 1511.67 1421.32 1452.47 1413.19 1391 C 1395.85 1265.88 1291.07 1175.68 1191.59 1110.22 C 1134.32 1072.54 1067.47 1043.12 1026.9 986.287 C 1020.2 976.898 1000.56 929.803 991.285 931.073 C 1016.68 985.626 1026.37 1033.84 1016.33 1094.39 C 1006.8 1151.85 975.554 1211.55 935.194 1253.73 C 932.059 1258.14 916.37 1273.46 912.021 1277.59 C 864.623 1322.34 807.904 1356.04 745.936 1376.27 C 751.807 1370.42 758.252 1364.45 764.282 1358.88 C 833.93 1294.62 877.961 1199.02 881.168 1104.32 C 882.098 1076.84 874.398 1000.61 854.993 980.433 C 862.881 1025.59 822.196 1088.65 791.355 1118.22 C 763.811 1144.63 732.468 1171.18 700.352 1191.88 C 691.509 1202.65 605.307 1249.72 589.493 1257.6 C 483.218 1310.46 368.705 1353.17 298.641 1455.04 C 255.439 1517.85 229.997 1594.47 254.999 1669.89 C 272.001 1721.19 305.618 1764.82 351.213 1793.73 C 364.809 1802.35 379.242 1807.08 393.47 1814.16 C 357.701 1808.37 323.741 1794.44 294.211 1773.44 C 240.975 1736.16 198.552 1665.78 188.098 1601.92 C 167.672 1477.15 249.359 1350.39 353.414 1288.09 C 446.358 1232.44 540.448 1181.55 603.489 1090.85 C 626.05 1058.39 648.066 1007.98 641.237 968.11 C 638.275 973.318 634.191 984.276 631.595 990.188 C 624.711 1005.89 615.668 1020.56 604.728 1033.77 C 559.234 1088.24 487.613 1110.44 418.965 1113.78 C 395.742 1114.92 370.016 1113.48 347.13 1115.6 C 287.189 1121.14 222.039 1139.15 177.988 1182.44 C 139.876 1219.89 120.554 1271.24 115.717 1324 C 114.274 1339.74 116.744 1353.65 116.363 1368.73 L 116.325 1369.87 L 116.096 1369.02 C 100.502 1309.77 106.052 1245.55 137.669 1192.36 C 156.77 1160.91 183.024 1134.4 214.297 1115 C 311.328 1054.85 379.577 1080.59 481.918 1053.79 C 525.402 1042.4 565.616 1018.56 589.368 979.235 C 608.618 947.366 603.963 903.939 580.429 875.285 C 551.102 839.578 507.956 815.591 470.128 789.795 C 384.604 731.473 299.813 671.438 240.625 584.693 C 232.077 572.166 224.397 557.201 217.285 543.873 C 205.031 520.909 195.619 497.328 188.549 472.439 C 171.379 411.988 174.034 313.705 205.882 259.613 C 234.887 217.542 279.545 181.56 322.426 154.663 C 337.703 145.081 372.994 127.454 388.618 123.345 z" fill="rgb(247,139,151)" transform="translate(0,0)"></path>
<path d="M 388.618 123.345 C 608.727 29.0929 893.255 170.267 1014.96 360.612 C 1078.73 462.128 1111.68 580.813 1112.67 700.496 C 1112.76 711.214 1113.41 724.093 1110.48 734.244 C 1109.54 737.501 1106.09 737.846 1103.19 738.567 C 1103.4 734.002 1103.58 729.435 1103.72 724.868 C 1105.54 664.389 1095.73 594.869 1078.9 536.798 C 1075.9 523.97 1069.21 510.947 1066.03 498.424 C 1046.1 420.051 995.706 350.609 940.277 292.232 C 849.609 196.742 721.659 132.834 591.238 114.757 C 541.285 108.827 490.4 108.098 440.375 113.371 C 427.392 114.74 399.112 124.256 388.618 123.345 z" fill="rgb(255,255,255)" transform="translate(0,0)"></path>
<path d="M 1442.59 1240.66 L 1440.64 1239.76 C 1434.62 1231.62 1430.47 1222.37 1425.02 1213.94 C 1415.73 1199.59 1405.77 1185.5 1395.91 1171.65 C 1332.17 1082.14 1257.16 1013.76 1165.79 952.761 C 1154.28 945.076 1072.9 893.675 1071.65 888.314 L 1073.98 888.381 C 1079.75 891.161 1092.8 897.791 1098.33 899.66 C 1126.96 915.165 1152.65 926.158 1180.39 945.513 C 1273.52 1010.51 1360.23 1093.73 1417.42 1192.56 C 1425.43 1206.39 1436.81 1226.09 1442.59 1240.66 z" fill="rgb(255,255,255)" transform="translate(0,0)"></path>
<path d="M 1564.77 787.413 C 1566.24 794.694 1545.88 808.583 1540.35 812.47 C 1490.61 847.443 1425.06 860.87 1365.64 870.667 C 1310 880.031 1253.46 882.976 1197.15 879.446 L 1203.25 866.556 C 1284.69 871.087 1360.25 862.183 1439.29 842.195 C 1491.69 828.942 1519.68 819.46 1564.77 787.413 z" fill="rgb(255,255,255)" transform="translate(0,0)"></path>
<path d="M 935.194 1253.73 C 934.884 1249.35 948.732 1226.52 951.795 1220.85 C 959.276 1206.77 966.395 1192.5 973.145 1178.05 C 1002.65 1115.4 1016.05 1045.39 998.158 977.371 C 995.621 967.727 987.553 938.849 991.285 931.073 C 1016.68 985.626 1026.37 1033.84 1016.33 1094.39 C 1006.8 1151.85 975.554 1211.55 935.194 1253.73 z" fill="rgb(255,255,255)" transform="translate(0,0)"></path>
<path d="M 700.352 1191.88 C 701.481 1188.91 727.699 1167.88 732.288 1163.62 C 756.308 1141.34 781.106 1117.42 800.237 1090.74 C 819.162 1064.77 834.076 1036.11 844.477 1005.71 C 847.644 996.581 849.44 984.832 851.707 979.061 L 853.048 978.499 L 854.993 980.433 C 862.881 1025.59 822.196 1088.65 791.355 1118.22 C 763.811 1144.63 732.468 1171.18 700.352 1191.88 z" fill="rgb(255,255,255)" transform="translate(0,0)"></path>
<path d="M 1076.66 763.464 C 1112.06 742.181 1162.53 745.907 1183.59 784.574 C 1196.26 807.837 1198.61 827.144 1196.72 853.15 C 1192.75 849.609 1188.8 824.261 1185.73 816.599 C 1180.09 802.497 1174.81 791.403 1163.71 780.607 C 1148.35 765.821 1127.33 758.434 1106.1 760.362 C 1096.62 761.183 1086.02 763.642 1076.66 763.464 z" fill="rgb(255,255,255)" transform="translate(0,0)"></path>
<path d="M 594.083 571.381 C 590.768 571.623 590.67 572.216 588.373 570.803 C 589.99 567.802 594.652 565.687 597.972 564.742 C 622.92 557.644 647.061 562.534 671.917 569.765 C 755.607 594.111 835.473 687.034 810.588 778.008 C 802.222 808.595 769.973 837.254 739.235 844.353 C 651.314 866.097 571.584 800.888 550.453 717.902 C 545.142 697.043 541.273 662.065 549.255 641.409 C 547.934 638.276 541.122 633.93 537.014 628.916 C 545.591 631.735 548.153 633.201 556.031 637.558 C 633.935 679.251 698.497 682.551 783.958 677.77 C 773.852 659.736 766.732 650.547 753.096 634.98 C 729.832 608.418 675.182 574.412 639.487 573.132 C 625.052 569.655 608.678 568.202 594.083 571.381 z" fill="rgb(59,62,115)" transform="translate(0,0)"></path>
<path d="M 556.29 649.033 C 575.061 661.225 587.718 666.969 608.434 674.578 C 604.68 681.259 600.987 687.588 599.293 695.16 C 594.437 716.222 599.499 731.075 608.117 750.103 C 615.283 745.349 620.945 741.501 630.162 743.319 C 635.353 744.324 639.859 747.517 642.529 752.081 C 648.958 763.253 641.081 771.398 631.626 776.408 C 658.397 800.763 694.044 799.198 707.213 761.799 C 710.984 751.09 710.21 741.787 709.594 730.683 C 706.923 714.448 699.311 702.884 688.86 690.832 C 703.737 691.139 719.197 691.976 733.988 691.804 C 752.614 691.588 771.443 690.384 790.135 689.885 C 795.583 701.981 798.129 712.751 800.333 725.718 C 802.434 753.909 800.467 779.023 782.005 802.193 C 766.628 820.666 741.258 832.555 717.474 834.269 C 626.055 840.86 564.31 762.329 556.935 678.414 C 556.613 668.623 556.398 658.829 556.29 649.033 z" fill="rgb(255,255,255)" transform="translate(0,0)"></path>
<path d="M 688.86 690.832 C 703.737 691.139 719.197 691.976 733.988 691.804 C 752.614 691.588 771.443 690.384 790.135 689.885 C 795.583 701.981 798.129 712.751 800.333 725.718 C 789.127 727.041 777.857 727.753 766.574 727.851 C 757.795 727.952 715.198 727.459 710.306 728.885 L 709.594 730.683 C 706.923 714.448 699.311 702.884 688.86 690.832 z" fill="rgb(137,212,234)" transform="translate(0,0)"></path>
<path d="M 556.29 649.033 C 575.061 661.225 587.718 666.969 608.434 674.578 C 604.68 681.259 600.987 687.588 599.293 695.16 C 587.301 690.872 569.264 680.044 556.935 678.414 C 556.613 668.623 556.398 658.829 556.29 649.033 z" fill="rgb(137,212,234)" transform="translate(0,0)"></path>
<path d="M 1051.3 523.439 C 1077.32 562.174 1086.77 609.708 1077.53 655.449 C 1073.56 675.958 1066.21 697.812 1048 709.786 C 1024.51 725.718 989.041 722.394 966.495 706.516 C 916.172 671.074 887.54 596.795 899.51 536.443 C 916.91 448.712 997.641 447.417 1041.87 517.258 L 1048.81 507.58 C 1051.97 503.076 1055.79 494.689 1060.15 493.124 C 1056.51 499.127 1054.8 502.729 1051.88 509.134 L 1052.74 510.157 L 1054.34 509.941 C 1056.43 507.304 1058.46 504.618 1060.42 501.883 C 1057.34 510.229 1055.19 515.477 1051.3 523.439 z" fill="rgb(59,62,115)" transform="translate(0,0)"></path>
<path d="M 923.393 509.013 C 950.348 463.302 990.411 477.982 1021.69 509.705 C 1024.72 512.772 1028.36 517.206 1030.7 520.821 C 1033.29 522.97 1036.43 529.944 1037.97 533.153 C 1028.49 568.838 1000.93 602.371 975.942 629.207 C 964.183 641.838 954.198 650.051 943.006 664.28 C 929.884 642.629 920.324 624.997 914.903 599.832 C 909.318 573.905 908.596 532.118 923.393 509.013 z" fill="rgb(247,139,151)" transform="translate(0,0)"></path>
<path d="M 923.393 509.013 C 950.348 463.302 990.411 477.982 1021.69 509.705 C 1024.72 512.772 1028.36 517.206 1030.7 520.821 C 1020.98 521.016 986.495 494.912 969.527 495.156 C 959.223 495.304 956.032 494.009 943.817 497.769 C 935.855 500.221 927.916 509.412 923.393 509.013 z" fill="rgb(255,255,255)" transform="translate(0,0)"></path>
<path d="M 1048.01 544.809 C 1059.6 568.434 1061.11 581.288 1064.79 606.711 C 1073.56 667.19 1036.73 741.755 968.047 690.401 C 961.564 685.427 957.33 680.774 951.65 674.869 C 959.015 667.642 962.51 663.083 968.336 654.64 C 977.703 658.521 986.12 661.391 996.364 660.686 C 997.634 659.966 1004.86 658.2 1007.79 656.971 C 1034.92 645.596 1044.23 609.056 1030.2 584.592 C 1037.28 572.637 1044.1 558.158 1048.01 544.809 z" fill="rgb(255,255,255)" transform="translate(0,0)"></path>
<path d="M 968.336 654.64 C 977.703 658.521 986.12 661.391 996.364 660.686 C 989.739 673.294 980.897 683.825 968.047 690.401 C 961.564 685.427 957.33 680.774 951.65 674.869 C 959.015 667.642 962.51 663.083 968.336 654.64 z" fill="rgb(137,212,234)" transform="translate(0,0)"></path>
<path d="M 1007.29 615.778 C 1026.18 614.483 1030.96 638.244 1006.38 644.16 C 1000.67 643.562 996.099 643.798 991.991 639.816 C 988.655 630.014 1000.25 621.297 1007.29 615.778 z" fill="rgb(255,255,255)" transform="translate(0,0)"></path>
<path d="M 570.689 418.344 C 608.779 413.944 658.757 433.497 686.828 459.015 C 694.259 465.77 713.392 485.088 709.032 495.922 L 706.959 496.709 C 700.829 494.173 685.179 483.36 677.49 479.106 C 649.07 462.509 618.585 458.075 586.385 464.39 C 571.091 467.39 553.803 477.964 539.332 467.791 C 534.293 464.319 530.898 458.934 529.938 452.89 C 526.074 428.839 552.354 420.955 570.689 418.344 z" fill="rgb(59,62,115)" transform="translate(0,0)"></path>
<path d="M 874.309 287.282 C 889.965 286.062 903.668 295.113 906.523 311.247 C 909.449 327.787 880.403 331.025 868.539 334.1 C 862.857 335.56 857.324 337.547 852.012 340.036 C 838.221 346.528 832.045 352.42 822.955 364.313 C 819.229 370.075 817.609 375.181 813.318 381.166 C 810.366 382.429 811.773 382.495 809.015 381.607 C 807.794 380.068 807.137 378.69 806.962 376.715 C 803.478 337.396 834.483 293.446 874.309 287.282 z" fill="rgb(59,62,115)" transform="translate(0,0)"></path>
<path d="M 1012.47 780.473 C 1014.08 781.153 1015.95 781.872 1015.97 783.913 C 1016.28 817.896 977.017 850.131 949.262 858.41 C 909.728 870.201 883.717 870.43 849.095 853.517 C 848.244 858.499 848.339 866.663 843.123 868.965 L 841.187 867.796 C 838.934 864.066 838.994 861.332 838.464 856.941 C 838.875 847.419 843.498 832.692 855.231 829.318 C 856.459 828.965 856.871 829.981 857.81 830.968 C 858.192 835.027 855.657 838.719 853.733 842.496 C 899.712 866.099 966.368 851.894 996.018 808.442 C 1002.01 799.654 1005.76 788.871 1012.47 780.473 z" fill="rgb(59,62,115)" transform="translate(0,0)"></path>
<path d="M 594.083 571.381 C 608.678 568.202 625.052 569.655 639.487 573.132 C 642.712 574.304 645.911 575.546 649.082 576.857 C 681.795 590.114 715.167 605.396 729.669 639.728 C 698.284 618.526 659.083 600.692 625.515 583.213 C 616.502 578.52 604.552 576.419 595.519 572.086 L 594.083 571.381 z" fill="rgb(255,255,255)" transform="translate(0,0)"></path>
<path d="M 1692.11 850.511 C 1697.45 855.242 1718.04 880.678 1724.19 887.764 C 1763.75 933.427 1807.66 975.622 1824.23 1035.48 C 1854.58 1145.11 1756.78 1224.05 1653.26 1213.47 C 1609.73 1209.03 1589.27 1202.62 1552.55 1180.86 C 1498.1 1148.56 1462.23 1102.28 1417.3 1058.7 C 1406.54 1048.27 1389.39 1034.31 1380.7 1024.15 C 1395.58 1021.98 1410.15 1020.75 1425.14 1018.18 C 1534.59 999.414 1636.81 952.472 1692.11 850.511 z" fill="rgb(255,255,255)" transform="translate(0,0)"></path>
<path d="M 1338.4 289.444 C 1365.13 264.464 1389.21 253.614 1425.44 248.018 C 1408.58 255.057 1398.54 259.279 1384.47 270.671 C 1342.25 307.7 1315.45 347.597 1342.35 404.056 C 1388.5 472.671 1469.04 488.304 1538.9 523.037 C 1571.08 539.042 1602.13 559.092 1630.77 580.795 C 1667.6 609.718 1689.28 659.5 1696.85 704.69 C 1706.49 762.316 1694.89 817.742 1660.46 865.467 C 1600.7 948.305 1515.19 982.663 1417.71 1000.16 C 1398.22 1003.66 1378.67 1005.09 1359.21 1008.26 C 1329.84 986.727 1296.72 965.565 1262.73 952.442 C 1245.72 945.874 1227.87 941.171 1210.63 935.02 C 1267.94 935.311 1325.08 928.588 1380.76 915.001 C 1454.83 897.188 1515.55 873.722 1571.49 819.099 C 1604.23 787.136 1622.65 751.216 1622.54 704.626 C 1622.64 680.626 1615.79 657.111 1602.81 636.92 C 1530.47 522.49 1316.11 555.826 1301.07 393.562 C 1297.37 353.652 1309.63 317.659 1338.4 289.444 z" fill="rgb(137,212,234)" transform="translate(0,0)"></path>
<path d="M 1342.35 404.056 C 1388.5 472.671 1469.04 488.304 1538.9 523.037 C 1571.08 539.042 1602.13 559.092 1630.77 580.795 C 1615.85 587.156 1619.57 578.937 1607.09 576.226 C 1601.6 571.365 1575.44 546.808 1570.86 545.609 L 1573.67 551.7 C 1566.92 549.738 1543.07 536.928 1532.77 533.071 C 1468.79 509.12 1404.29 490.116 1358.26 435.917 C 1352.78 429.465 1341.54 412.665 1342.35 404.056 z" fill="rgb(255,255,255)" transform="translate(0,0)"></path>
<path d="M 1573.67 551.7 L 1570.86 545.609 C 1575.44 546.808 1601.6 571.365 1607.09 576.226 C 1613.17 583.34 1619.93 590.209 1626.4 596.993 C 1633.21 598.43 1637.03 599.414 1642.43 604.308 C 1653.06 614.047 1666.72 631.768 1667.09 646.655 C 1667.29 668.578 1652.6 665.428 1642 651.365 C 1629.16 634.337 1621.07 622.991 1623.36 600.715 C 1611.27 589.29 1582.81 563.567 1573.67 551.7 z" fill="rgb(59,62,115)" transform="translate(0,0)"></path>
<path d="M 1626.99 601.63 C 1647.07 608.067 1667.22 635.562 1660.23 656.611 C 1654.82 656.907 1651.59 654.663 1648.08 650.669 C 1636.08 637.002 1626.91 619.932 1626.99 601.63 z" fill="rgb(137,212,234)" transform="translate(0,0)"></path>
<path d="M 1338.4 289.444 C 1365.13 264.464 1389.21 253.614 1425.44 248.018 C 1408.58 255.057 1398.54 259.279 1384.47 270.671 C 1366.08 267.598 1350.17 296.979 1338.4 289.444 z" fill="rgb(255,255,255)" transform="translate(0,0)"></path>
<path d="M 1407.86 934.325 C 1462.59 928.375 1468.58 972.826 1407.49 985.785 C 1350.71 993.175 1354.47 942.985 1407.86 934.325 z" fill="rgb(59,62,115)" transform="translate(0,0)"></path>
<path d="M 1406.39 940.189 C 1453.6 935.473 1460.02 966.005 1410.64 979.317 C 1362.58 987.348 1360.17 951.071 1406.39 940.189 z" fill="rgb(137,212,234)" transform="translate(0,0)"></path>
<path d="M 1528.65 898.319 C 1546.66 896.488 1567.95 903.827 1554.12 925.902 C 1545.46 939.728 1528.91 947.197 1513.46 950.986 C 1457.07 953.692 1483.95 904.48 1528.65 898.319 z" fill="rgb(59,62,115)" transform="translate(0,0)"></path>
<path d="M 1528.71 904.253 C 1562.65 900.93 1556.84 922.335 1534.69 936.345 C 1527.97 940.6 1522.43 942.741 1514.85 945.025 C 1466.7 949.344 1491.44 910.217 1528.71 904.253 z" fill="rgb(137,212,234)" transform="translate(0,0)"></path>
<path d="M 1616.79 819.021 C 1651.99 815.388 1639.13 870.785 1598.25 878.789 C 1556.39 880.686 1587.08 828.864 1616.79 819.021 z" fill="rgb(59,62,115)" transform="translate(0,0)"></path>
<path d="M 1616.42 826.007 C 1644.78 824.305 1629.05 864.889 1600.07 872.519 C 1588.41 873.278 1580.34 869.372 1585.9 856.08 C 1591.56 842.538 1602.91 831.706 1616.42 826.007 z" fill="rgb(137,212,234)" transform="translate(0,0)"></path>
<path d="M 1662.36 710.984 C 1686.68 710.183 1683.11 742.783 1677.13 758.01 C 1673.52 767.194 1668.89 772.133 1659.86 775.859 C 1637.71 774.071 1638.13 748.178 1643.9 732.16 C 1647.9 721.067 1651.84 715.971 1662.36 710.984 z" fill="rgb(59,62,115)" transform="translate(0,0)"></path>
<path d="M 1663.13 716.858 C 1683.09 717.163 1678.06 758.865 1659.5 769.93 C 1636.81 765.439 1649.08 726.792 1663.13 716.858 z" fill="rgb(137,212,234)" transform="translate(0,0)"></path>
<path d="M 992.531 1320.71 C 997.401 1325.49 1011.77 1349.96 1018.08 1357.74 C 1038.5 1382.92 1059.08 1411.19 1080.37 1435.39 C 1031.95 1423.76 968.306 1426.59 919.529 1438.23 C 810.835 1464.16 706.157 1524.82 633.409 1610.22 C 623.792 1621.51 610.059 1637.5 602.295 1649.87 C 539.071 1681.56 483.271 1704.08 410.786 1687.21 C 372.548 1677.45 340.756 1656.02 319.839 1622.36 C 321.15 1576.17 331.856 1546.42 353.718 1506.89 C 397.634 1520.8 460.017 1518.44 505.554 1514.64 C 640.086 1503.42 815.988 1480.17 924.736 1392.76 C 942.792 1378.18 959.391 1361.87 974.298 1344.08 C 980.704 1336.36 985.945 1328.39 992.531 1320.71 z" fill="rgb(255,255,255)" transform="translate(0,0)"></path>
<path d="M 1692.91 629.841 C 1705.21 614.201 1714.83 604.707 1730.92 593.038 C 1779.9 557.517 1862.35 564.383 1897.49 616.758 C 1903.79 625.799 1907.58 634.721 1911.93 644.827 C 1877.69 629.686 1843.33 621.197 1806.74 635.498 C 1782.79 644.637 1763.47 662.936 1753.04 686.351 C 1742.97 709.449 1743.19 736.11 1752.9 759.169 C 1755.6 765.578 1764 782.761 1768.37 787.939 C 1767.15 800.72 1776.98 809.429 1782.56 820.007 C 1785.34 830.226 1806.9 857.479 1814.23 867.126 C 1860.88 928.567 1915.48 992.317 1912.12 1074.56 C 1911.27 1100.39 1907.98 1123.2 1896.21 1146.88 C 1864.97 1209.72 1806.97 1257.55 1741.34 1280.52 C 1661.04 1308.63 1577.75 1289.33 1503.91 1253.29 C 1487.72 1245.37 1472.11 1236.31 1457.19 1226.19 C 1450.96 1220.68 1422.69 1166.76 1415.83 1154.57 C 1475.62 1190.94 1541.48 1217.78 1610.72 1229.51 C 1673.84 1240.2 1732.22 1237.31 1785.93 1198.52 C 1819.95 1174.46 1842.86 1137.74 1849.53 1096.62 C 1866.37 987.942 1759.64 907.614 1702.1 829.177 C 1706.47 815.744 1712.12 803.716 1715.29 789.469 C 1726.66 738.39 1718.25 691.061 1699.34 643.515 L 1692.91 629.841 z" fill="rgb(137,212,234)" transform="translate(0,0)"></path>
<path d="M 1692.91 629.841 C 1705.21 614.201 1714.83 604.707 1730.92 593.038 C 1779.9 557.517 1862.35 564.383 1897.49 616.758 L 1895.99 617.077 C 1864.32 592.544 1834.45 581.959 1794.09 587.021 C 1749.6 592.601 1727.96 611.146 1699.34 643.515 L 1692.91 629.841 z" fill="rgb(255,255,255)" transform="translate(0,0)"></path>
<path d="M 567.626 1753.79 C 569.758 1746.85 575.397 1734 578.682 1727.22 C 636.099 1608.71 744.422 1518.09 867.706 1474.39 C 974.016 1436.7 1064.23 1434.01 1167.22 1483.36 C 1188.9 1489.2 1224.32 1510.63 1241.43 1523.99 C 1216.78 1580.55 1124.05 1562.53 1074.16 1558.82 C 1056.48 1557.39 1038.75 1556.77 1021.02 1556.95 C 862.99 1557.83 657.03 1633.92 587.201 1787.19 C 565.361 1835.13 561.584 1875.55 575.051 1926.08 C 547.518 1883.11 546.649 1834.97 557.318 1786.23 C 559.316 1777.11 563.268 1762.05 567.626 1753.79 z" fill="rgb(137,212,234)" transform="translate(0,0)"></path>
<path d="M 567.626 1753.79 C 569.758 1746.85 575.397 1734 578.682 1727.22 C 636.099 1608.71 744.422 1518.09 867.706 1474.39 C 974.016 1436.7 1064.23 1434.01 1167.22 1483.36 C 1155.7 1484.05 1134.07 1475.8 1121.76 1473.42 C 1052.44 1460.02 979.149 1456.84 910.913 1477.6 C 902.24 1480.24 893.546 1483.06 884.932 1485.98 C 801.636 1514.13 725.937 1561.07 663.695 1623.18 C 627.861 1658.26 600.001 1700.36 575.589 1743.78 C 573.684 1747.16 571.437 1753.15 567.626 1753.79 z" fill="rgb(255,255,255)" transform="translate(0,0)"></path>
<path d="M 186.771 285.838 C 187.004 291.102 178.879 313.516 177.68 320.914 C 174.621 339.783 171.963 358.77 171.198 377.874 C 169.461 428.808 179.699 479.438 201.088 525.696 C 253.464 641.926 344.349 710.275 446.175 781.717 C 484.615 808.687 533.137 834.945 565.348 868.087 C 586.259 889.603 594.096 911.547 592.616 941.212 C 581.096 932.039 576.707 930.169 562.976 923.957 C 530.915 910.16 498.222 899.232 465.735 886.709 C 383.685 855.078 305.576 821.025 238.628 762.892 C 102.305 644.52 91.2812 432.392 186.771 285.838 z" fill="rgb(247,139,151)" transform="translate(0,0)"></path>
<path d="M 627.651 1015.97 C 627.433 1020.98 620.38 1033.96 617.893 1038.44 C 598.132 1074.04 573.337 1107.55 543.218 1135.09 C 523.232 1153.37 502.156 1172.73 479.254 1187.28 C 405.429 1188.66 325.268 1189.09 268.369 1241.48 C 231.611 1275.32 216.057 1309.19 212.84 1358.36 C 204.121 1363.81 139.174 1405.22 132.408 1402.76 L 131.124 1398.79 C 129.818 1393.44 128.667 1388.06 127.671 1382.64 C 116.669 1321.29 126.654 1266.03 161.588 1213.06 C 196.871 1158.17 288.088 1124.28 352.599 1122.97 C 463.557 1120.7 555.385 1119.25 627.651 1015.97 z" fill="rgb(137,212,234)" transform="translate(0,0)"></path>
<path d="M 319.487 1148.18 C 337.823 1146.39 354.064 1153.45 343.732 1174.5 C 337.606 1186.98 326.012 1192.06 313.431 1195.96 C 270.227 1202.01 276.549 1157.15 319.487 1148.18 z" fill="rgb(59,62,115)" transform="translate(0,0)"></path>
<path d="M 317.696 1154.16 C 329.551 1152.95 346.901 1153.75 338.419 1172.24 C 333.889 1182.12 322.787 1186.96 312.861 1190.17 C 276.084 1195.16 286.283 1164.06 317.696 1154.16 z" fill="rgb(137,212,234)" transform="translate(0,0)"></path>
<path d="M 173.267 1302.15 C 207.703 1306.79 195.415 1350.47 168.447 1357.82 C 133.061 1358.97 148.744 1308.92 173.267 1302.15 z" fill="rgb(59,62,115)" transform="translate(0,0)"></path>
<path d="M 169.972 1309.09 C 198.188 1305.57 190.769 1338.56 172.023 1350.55 C 141.366 1359.12 154.999 1320.73 169.972 1309.09 z" fill="rgb(137,212,234)" transform="translate(0,0)"></path>
<path d="M 426.123 1137.13 C 466.556 1134.09 470.941 1167.09 425.241 1173.72 C 381.491 1177.75 385.521 1147.93 426.123 1137.13 z" fill="rgb(59,62,115)" transform="translate(0,0)"></path>
<path d="M 428.107 1143.16 C 435.693 1142.28 448.195 1141.93 451.515 1150.54 C 451.714 1163.69 434.182 1166.92 424.241 1168.69 C 417.042 1169.54 405.468 1169.84 401.645 1162.67 C 400.52 1150.4 418.878 1145.39 428.107 1143.16 z" fill="rgb(137,212,234)" transform="translate(0,0)"></path>
<path d="M 219.342 1209.16 C 256.835 1205.51 242.165 1245.3 214.489 1257.56 C 181.229 1263.48 186.913 1223.42 219.342 1209.16 z" fill="rgb(59,62,115)" transform="translate(0,0)"></path>
<path d="M 221.279 1215.04 C 245.772 1213.41 234.868 1236.07 224.191 1245.6 C 220.129 1249.23 216.729 1250.54 211.836 1252.51 C 200.925 1253.37 194.505 1247.55 198.91 1236.49 C 203.391 1225.24 210.656 1219.64 221.279 1215.04 z" fill="rgb(137,212,234)" transform="translate(0,0)"></path>
<path d="M 780.437 1139.04 C 780.945 1142.99 765.431 1159.2 761.656 1163.15 C 719.342 1207.42 667.229 1246.38 617.71 1282.09 C 600.576 1293.48 583.72 1306.95 566.123 1317.53 C 470.754 1374.84 363.398 1427.07 317.281 1535.6 C 308.682 1555.84 305.97 1576.31 303.522 1598.05 C 288.367 1732.72 422.671 1814.91 542.471 1762.64 C 538.836 1776.46 535.513 1790.36 532.503 1804.34 C 523.244 1807.52 514.897 1810.39 505.425 1813 C 486.508 1816.86 459.254 1819.37 439.983 1817.01 C 334.192 1804.04 242.508 1697.64 253.823 1589.92 C 258.666 1551.04 271.407 1513.28 291.718 1479.57 C 387.71 1320.28 584.86 1294.86 722.452 1185.93 C 742.216 1170.28 760.92 1154.92 780.437 1139.04 z" fill="rgb(137,212,234)" transform="translate(0,0)"></path>
<path d="M 279.027 1557.13 C 308.937 1556.18 302.087 1597.05 279.97 1607.06 C 251.277 1608.96 256.573 1567.62 279.027 1557.13 z" fill="rgb(59,62,115)" transform="translate(0,0)"></path>
<path d="M 281.115 1561.87 C 297.156 1563.6 294.711 1577.48 290.509 1589.52 C 287.846 1597.15 284.012 1600.07 276.611 1602.98 C 256.17 1599.56 265.168 1569.64 281.115 1561.87 z" fill="rgb(137,212,234)" transform="translate(0,0)"></path>
<path d="M 328.387 1447.06 C 359.865 1445.02 341.927 1485.31 319.768 1494.36 C 283.641 1493.09 309.304 1457.08 328.387 1447.06 z" fill="rgb(59,62,115)" transform="translate(0,0)"></path>
<path d="M 329.664 1451.97 C 334.225 1451.53 335.971 1451.47 339.014 1455.38 C 343.003 1468.62 329.415 1484.72 317.638 1489.97 C 290.974 1485.4 318.802 1458.56 329.664 1451.97 z" fill="rgb(137,212,234)" transform="translate(0,0)"></path>
<path d="M 437.955 1355.18 C 443.635 1354.7 450.839 1356.15 454.209 1361.13 C 458.476 1377.83 434.717 1391.08 421.015 1394.22 C 391.379 1393.61 401.25 1372.23 419.127 1362.34 C 426.092 1358.49 430.125 1356.95 437.955 1355.18 z" fill="rgb(59,62,115)" transform="translate(0,0)"></path>
<path d="M 440.172 1360.14 C 444.884 1359.93 447.733 1360.25 450.378 1364.29 C 449.909 1377.28 430.264 1388.17 418.485 1389.66 C 412.866 1388.91 408.809 1387.78 407.298 1382.05 C 409.955 1370.06 429.24 1362.58 440.172 1360.14 z" fill="rgb(137,212,234)" transform="translate(0,0)"></path>
<path d="M 553.327 1290.34 C 559.142 1290.51 565.732 1291.91 568.049 1297.72 C 566.916 1314.31 538.518 1325.12 523.909 1326.44 C 518.147 1326.13 512.004 1325.1 509.161 1319.56 C 507.621 1304.55 541.032 1292.02 553.327 1290.34 z" fill="rgb(59,62,115)" transform="translate(0,0)"></path>
<path d="M 551.164 1295.11 C 555.224 1294.97 558.185 1295.34 561.166 1298.11 C 563.101 1309.57 535.707 1320.21 526.182 1321.69 C 522.007 1321.44 519.575 1321.37 516.295 1319.07 C 511.751 1308.08 543.041 1297.22 551.164 1295.11 z" fill="rgb(137,212,234)" transform="translate(0,0)"></path>
<path d="M 466.819 1785.34 C 474.45 1785 486.497 1783.92 493.359 1786.74 C 513.401 1795 505.912 1806.68 488.368 1809.78 C 478.283 1810.16 444.497 1807.29 450.265 1792.03 C 454.877 1787.54 460.63 1786.06 466.819 1785.34 z" fill="rgb(59,62,115)" transform="translate(0,0)"></path>
<path d="M 465.157 1790.23 C 470.723 1789.92 476.298 1789.79 481.873 1789.83 C 487.719 1789.86 493.756 1790.3 497.995 1794.62 C 499.195 1798.45 499.152 1796.57 498.09 1800.47 C 495.19 1803.42 494.059 1803.5 490.015 1804.96 C 482.809 1805.45 454.167 1804.85 457.028 1794.09 C 460.258 1791.41 460.993 1791.44 465.157 1790.23 z" fill="rgb(137,212,234)" transform="translate(0,0)"></path>
<path d="M 285.041 1673.03 C 294.901 1672.56 300.334 1676.82 305.198 1685.22 C 311.31 1695.76 313.696 1706.34 302.114 1713.04 C 285.678 1712.14 267.15 1685.03 285.041 1673.03 z" fill="rgb(59,62,115)" transform="translate(0,0)"></path>
<path d="M 285.946 1677.61 C 298.245 1677.77 309.787 1696.82 302.489 1707.45 C 290.206 1707.01 278.019 1688.92 285.946 1677.61 z" fill="rgb(137,212,234)" transform="translate(0,0)"></path>
<path d="M 348.521 1760.14 C 361.052 1759.49 392.252 1772.02 392.636 1785.97 C 390.919 1790.03 391.525 1788.74 387.561 1791.71 C 375.223 1792.77 346.52 1779.63 344.466 1766.49 C 345.711 1762.1 345.055 1763.63 348.521 1760.14 z" fill="rgb(59,62,115)" transform="translate(0,0)"></path>
<path d="M 350.836 1764.99 L 352.026 1765.04 C 362.872 1765.58 377.7 1772.72 385.283 1780.82 C 387.662 1783.36 386.932 1785.01 386.589 1787.91 C 377.432 1786.78 357.366 1778.68 351.028 1770.87 C 349.192 1768.61 350.136 1767.18 350.836 1764.99 z" fill="rgb(137,212,234)" transform="translate(0,0)"></path>
<path d="M 1059.02 1033.5 C 1064.48 1036.51 1072.36 1042.94 1077.76 1046.74 C 1092.28 1056.54 1106.81 1067.69 1121.8 1076.63 C 1240.66 1147.47 1376.91 1239.9 1404.27 1385.88 C 1415.28 1446.44 1391.26 1514.07 1351.09 1559.56 C 1322.69 1591.71 1296.5 1612.73 1276.34 1652.15 C 1245.98 1711.5 1243.43 1779.93 1261.91 1842.56 L 1270.39 1868.32 C 1245.49 1827.77 1232.5 1792.67 1229.56 1744.51 C 1226.18 1696.84 1240.66 1644.08 1271.76 1606.57 C 1305.89 1565.41 1339.75 1523.49 1351.27 1468.64 C 1382.51 1319.9 1222.99 1229.34 1135.65 1137.93 C 1102.19 1102.91 1084.72 1074.08 1059.02 1033.5 z" fill="rgb(137,212,234)" transform="translate(0,0)"></path>
<path d="M 1316.14 1271.04 C 1342.11 1269.82 1367.97 1307.11 1342.14 1317.12 C 1319.25 1317.37 1290.23 1286.48 1316.14 1271.04 z" fill="rgb(59,62,115)" transform="translate(0,0)"></path>
<path d="M 1315.61 1276.93 C 1333 1275.47 1354.71 1295.55 1342.88 1311.37 C 1325.14 1311.95 1303 1293.14 1315.61 1276.93 z" fill="rgb(137,212,234)" transform="translate(0,0)"></path>
<path d="M 1242.84 1193.07 C 1258.47 1192.03 1270.27 1198.61 1280 1210.71 C 1287.24 1219.73 1286.2 1228.54 1276.53 1234.76 C 1247.86 1241.22 1222.74 1207.62 1242.84 1193.07 z" fill="rgb(59,62,115)" transform="translate(0,0)"></path>
<path d="M 1243.95 1199.09 C 1257.95 1198.55 1272.84 1206.34 1278.05 1220.5 C 1279.33 1223.99 1278.06 1226.35 1276.38 1229.36 C 1257.12 1233.24 1233.89 1213.22 1243.95 1199.09 z" fill="rgb(137,212,234)" transform="translate(0,0)"></path>
<path d="M 1368.2 1373.81 C 1390.73 1379.34 1395.67 1421.07 1377.83 1431.58 C 1359.58 1426.36 1350.06 1385.97 1368.2 1373.81 z" fill="rgb(59,62,115)" transform="translate(0,0)"></path>
<path d="M 1369.2 1380.37 C 1384.13 1385.18 1382.94 1414.23 1377.32 1426.15 C 1364.93 1415.96 1360.23 1394.23 1369.2 1380.37 z" fill="rgb(137,212,234)" transform="translate(0,0)"></path>
<path d="M 1351.3 1509.98 C 1352.72 1509.93 1354.35 1509.89 1355.75 1510.16 C 1358.34 1510.64 1360.59 1512.23 1361.9 1514.51 C 1368.64 1526.1 1354.77 1547.37 1343.04 1552.82 C 1315.9 1549.94 1337.79 1518.69 1351.3 1509.98 z" fill="rgb(59,62,115)" transform="translate(0,0)"></path>
<path d="M 1352.43 1516.59 C 1353.22 1516.69 1354.75 1517.21 1355.58 1517.45 C 1360.62 1526.59 1348.81 1541.92 1341.77 1547.34 C 1339.91 1546.85 1340.13 1546.75 1338.43 1545.68 C 1332.05 1535.47 1345.1 1522.73 1352.43 1516.59 z" fill="rgb(137,212,234)" transform="translate(0,0)"></path>
<path d="M 1768.37 787.939 C 1778.04 800.032 1790.37 815.935 1801.59 826.467 C 1849.16 870.696 1896.39 913.117 1926.92 971.573 C 1999.31 1110.15 1938.55 1270.9 1795.94 1331.34 C 1704.67 1370.02 1585.98 1366.52 1498.27 1319.7 C 1497.07 1317.77 1460.78 1237.45 1460.62 1236.52 C 1508.01 1271.84 1585.73 1298.39 1644.57 1301.15 C 1717.71 1304.91 1789.26 1278.91 1842.92 1229.08 C 1884.38 1190.96 1919.93 1138.36 1919.38 1080.87 C 1919.59 1071.74 1919.49 1062.63 1918.75 1053.52 C 1918.14 1045.89 1915.9 1038.37 1916.54 1030.72 C 1919.04 1040.45 1925.03 1058.24 1935.13 1058.8 C 1957.04 1060.04 1938.07 980.147 1916.17 1000 C 1911.95 1003.83 1912 1009.3 1911.63 1014.87 C 1910.99 1013.81 1901.6 991.035 1900.99 988.648 C 1898.67 979.63 1882.6 955.521 1881.78 949.387 C 1899.35 948.912 1902.97 941.144 1893.78 926.35 C 1887.94 916.954 1871.59 896.064 1859.49 904.61 C 1857.13 909.651 1858.74 912.965 1860.4 918.193 C 1854.97 912.94 1847.73 902.233 1842.4 895.962 C 1823.47 873.661 1802.46 840.554 1782.56 820.007 C 1776.98 809.429 1767.15 800.72 1768.37 787.939 z" fill="rgb(255,255,255)" transform="translate(0,0)"></path>
<path d="M 1795.21 1286.22 C 1810.31 1284.61 1827.68 1289.69 1817.65 1307.95 C 1809.89 1322.06 1791.5 1328.23 1777.18 1332.76 C 1770.16 1333.29 1753.26 1331.79 1752.24 1322.7 C 1749.8 1301.07 1778.22 1290.12 1795.21 1286.22 z" fill="rgb(59,62,115)" transform="translate(0,0)"></path>
<path d="M 1796.42 1292.24 C 1802.3 1291.92 1811.63 1292.33 1813.33 1298.85 C 1816.75 1312.01 1784.26 1323.56 1776.3 1325.96 C 1746.35 1333.34 1756.12 1299.4 1796.42 1292.24 z" fill="rgb(137,212,234)" transform="translate(0,0)"></path>
<path d="M 1660.68 1316.29 C 1669.93 1315.39 1688.6 1314.77 1695.56 1320.62 C 1717.91 1339.41 1694.06 1350.17 1677.33 1352.37 C 1666.61 1353.31 1622.01 1355.08 1635.3 1327.98 C 1638.56 1321.35 1652.94 1317.39 1660.68 1316.29 z" fill="rgb(59,62,115)" transform="translate(0,0)"></path>
<path d="M 1661.16 1322.31 C 1673.1 1321.49 1689.57 1320.63 1696.38 1332.54 C 1697.15 1342.44 1685.39 1343.69 1677.89 1344.89 C 1667.61 1345.38 1643.1 1348.64 1638.99 1336.42 C 1640.83 1327.27 1653.26 1323.53 1661.16 1322.31 z" fill="rgb(137,212,234)" transform="translate(0,0)"></path>
<path d="M 1887.47 1213.2 C 1930.92 1208.72 1900.29 1257.32 1873.77 1268.33 C 1866.11 1269.81 1852.56 1269 1852.64 1258.53 C 1852.8 1237.91 1870 1221.1 1887.47 1213.2 z" fill="rgb(59,62,115)" transform="translate(0,0)"></path>
<path d="M 1888.24 1219.08 C 1893.66 1218.28 1898.53 1218.36 1901.92 1223.26 C 1905.28 1237 1883.76 1255.17 1872.83 1261.32 C 1867.37 1262.57 1863.31 1263.41 1859.91 1258.26 C 1857.94 1243.05 1876.05 1226.04 1888.24 1219.08 z" fill="rgb(137,212,234)" transform="translate(0,0)"></path>
<path d="M 1529.16 1288.28 C 1563.21 1285.91 1597.41 1323.12 1558.94 1331.97 C 1527.3 1332.31 1489.18 1300.22 1529.16 1288.28 z" fill="rgb(59,62,115)" transform="translate(0,0)"></path>
<path d="M 1530.32 1294.24 C 1533.9 1294.12 1537.48 1294.42 1540.99 1295.14 C 1553.24 1297.72 1584.17 1316.56 1558.87 1325.46 C 1548.96 1325.25 1542.05 1323.43 1533.44 1318.87 C 1520.47 1311.99 1509.02 1299.81 1530.32 1294.24 z" fill="rgb(137,212,234)" transform="translate(0,0)"></path>
<path d="M 1932.82 1109.08 C 1962.6 1106.06 1950.85 1156.69 1935.48 1169.99 C 1928.07 1171.86 1925.4 1167.84 1920.6 1163.05 C 1917.01 1147.66 1918.87 1119.05 1932.82 1109.08 z" fill="rgb(59,62,115)" transform="translate(0,0)"></path>
<path d="M 1936.61 1114.59 C 1954 1117.66 1941.64 1152.51 1934.13 1161.77 C 1929.68 1161.88 1931.58 1162.47 1928.08 1160.47 C 1920.6 1150.05 1929.02 1123.9 1936.61 1114.59 z" fill="rgb(137,212,234)" transform="translate(0,0)"></path>
<path d="M 854.502 1064.69 C 855.545 1069.17 855.042 1076.37 854.848 1080.95 C 849.609 1204.53 791.753 1315.25 679.774 1373.71 C 601.513 1414.57 528.695 1419.67 442.375 1415.52 L 441.806 1414.15 C 454.789 1405.57 467.956 1397.78 481.235 1389.76 C 611.555 1311.12 749.316 1227.95 834.011 1097.45 C 840.945 1086.76 847.79 1075.59 854.502 1064.69 z" fill="rgb(255,255,255)" transform="translate(0,0)"></path>
<path d="M 538.703 1485.58 C 548.827 1481.51 561.017 1477.81 571.519 1474.12 C 603.833 1462.76 634.76 1451.68 664.964 1435.21 C 678.921 1427.55 692.404 1419.06 705.341 1409.79 C 713.959 1403.59 727.185 1392.81 736.131 1388.27 C 744.025 1384.26 758.044 1379.55 767.014 1376.23 C 780.179 1371.46 793.066 1365.96 805.616 1359.75 C 895.208 1315.66 966.455 1248.25 1007.11 1155.45 C 1018.02 1130.55 1023.85 1100.27 1028.18 1073.32 C 1033.6 1142.82 1024.55 1221.5 991.208 1283.51 C 906.081 1441.84 704.607 1475.13 541.767 1490.66 C 531.18 1491.88 520.584 1493.02 509.978 1494.06 C 519.538 1490.4 528.752 1487.86 538.703 1485.58 z" fill="rgb(137,212,234)" transform="translate(0,0)"></path>
<path d="M 707.171 1675.81 C 827.143 1672.68 945.639 1798.77 856.692 1907.66 C 856.951 1890.86 856.468 1882.98 853.59 1866.23 C 844.539 1829.17 820.758 1795.17 789.934 1772.96 C 742.239 1738.6 691.496 1735.68 635.797 1744.48 C 653.368 1719.75 682.289 1692.98 707.171 1675.81 z" fill="rgb(247,139,151)" transform="translate(0,0)"></path>
<path d="M 322.006 1660.34 C 329.177 1663.52 343.031 1675.57 350.03 1680.54 C 402.034 1717.49 472.624 1719.67 531.977 1701.4 C 548.311 1696.37 564.405 1688.9 580.053 1682.04 C 573.18 1694.34 566.66 1706.84 560.5 1719.51 L 545.974 1750.72 C 494.195 1776.08 428.076 1775.2 379.17 1743.39 C 349.656 1724.59 329.029 1694.62 322.006 1660.34 z" fill="rgb(247,139,151)" transform="translate(0,0)"></path>
<path d="M 442.966 1206.42 C 446.361 1205.98 446.51 1205.95 449.899 1206.29 C 449.828 1209.71 422.323 1225.53 417.445 1228.32 C 339.252 1273.14 294.523 1295.99 237.229 1367.49 C 235.501 1369.92 236.354 1369.23 233.773 1370.62 C 232.283 1367.16 233.09 1357.87 233.34 1353.5 C 234.978 1322.74 246.888 1293.41 267.165 1270.21 C 314.922 1214.87 375.705 1211.56 442.966 1206.42 z" fill="rgb(255,255,255)" transform="translate(0,0)"></path>
<path d="M 1683.82 1637.44 L 1687.74 1637.35 L 1688.13 1638.23 C 1684.37 1641.58 1675.81 1645.22 1670.9 1647.91 C 1658.87 1654.35 1647.98 1662.75 1638.68 1672.75 C 1596.24 1718.26 1603.29 1788.59 1563.55 1836.79 C 1513.96 1896.93 1427.97 1907.38 1367.05 1858.29 C 1361.42 1853.69 1358.48 1851.03 1353.43 1845.82 C 1389.15 1870.24 1406.93 1880.14 1453.29 1877.51 C 1480.45 1875.97 1498.58 1866.81 1519.69 1850.49 C 1561.65 1819.35 1572.99 1771.04 1586.15 1723.18 C 1599.93 1673.08 1630.28 1641.33 1683.82 1637.44 z" fill="rgb(137,212,234)" transform="translate(0,0)"></path>
<path d="M 1444.89 249.377 L 1445.36 249.58 C 1443.26 251.962 1426.13 259.569 1421.31 262.313 C 1414.42 266.229 1407.88 270.716 1401.74 275.728 C 1359.02 310.717 1342.94 372.37 1372.17 421.293 C 1376.31 428.211 1381.55 434.328 1386.68 440.53 C 1381.82 437.388 1379.07 435.251 1374.68 431.674 C 1340.08 401.226 1327.56 354.098 1354.37 314.425 C 1375.1 283.734 1408.16 257.018 1444.89 249.377 z" fill="rgb(247,139,151)" transform="translate(0,0)"></path>
<path d="M 667.024 1749.42 C 706.358 1745.86 756.604 1759.4 787.247 1784.6 C 770.473 1776.73 759.079 1771.46 741.208 1765.81 C 688.704 1751.9 665.77 1761.21 616.158 1771.82 C 620.017 1765.86 623.056 1761.47 627.361 1755.83 C 639.191 1751.88 654.55 1750.52 667.024 1749.42 z" fill="rgb(137,212,234)" transform="translate(0,0)"></path>
<path d="M 1919.69 1002.31 C 1936.36 1003.84 1940.97 1038.79 1935.53 1051.92 C 1925.15 1048.97 1915.28 1012.95 1919.69 1002.31 z" fill="rgb(137,212,234)" transform="translate(0,0)"></path>
<path d="M 1865.43 922.046 C 1864.67 917.555 1863.67 914.417 1864.95 910.117 C 1867.37 907.493 1865.92 908.163 1869.43 907.976 C 1878.25 911.867 1891.88 929.18 1892.06 938.873 C 1889.56 942.977 1884 943.981 1879.43 945.213 C 1875.14 941.124 1868.2 927.446 1865.43 922.046 z" fill="rgb(137,212,234)" transform="translate(0,0)"></path>
<metadata><recraft-signature>{"signed_by": "recraft", "signature_b64": "LuZB+iS58fBjTmJ1w/miWwDXUVuRR8xXEeTHaI7Ek1JsIxL1k1vBjzN1Dw9D3knHRmhtxINrw38wZSPM2Sl8Bw==", "signing_algo": "Ed25519", "generation_timestamp": 1771192258, "identifier": "c8e0af49-9d3f-4840-bef4-986fd9c1b600"}</recraft-signature></metadata></svg>