<svg xmlns="http://www.w3.org/2000/svg" height="1024" preserveAspectRatio="none" style="display: block;" version="1.1" viewBox="0 0 2048 2048" width="1024">
<path d="M 0 0 L 2048 0 L 2048 2048 L 0 2048 L 0 0 z" fill="rgb(255,255,255)" transform="translate(0,0)"></path>
<path d="M 732.883 61.6663 C 779.67 104.103 794.141 169.064 779.707 229.426 C 776.192 244.126 769.833 258.871 764.263 272.938 C 796.178 263.252 820.359 257.401 842.463 288.875 C 1091.11 289.778 1266.1 501.29 1272.26 740.742 C 1274.11 812.896 1262.08 884.812 1223.78 947.255 C 1300.12 929.377 1350.89 879.029 1362.66 801.505 C 1372.89 734.118 1357.56 666.693 1326.93 606.628 C 1286.3 526.969 1222.82 452.694 1219.86 359.488 C 1216.75 270.42 1290.35 215.854 1373.99 214.827 C 1383.68 214.098 1393.53 216.181 1403.07 216.501 C 1415.48 216.916 1463.48 226.957 1463.09 244.076 C 1454.13 251.81 1401.74 258.931 1386.64 263.201 C 1362.19 270.112 1340.21 275.252 1319.55 291.822 C 1250.33 347.348 1306.1 430.124 1344.37 484.24 L 1388.45 545.908 C 1404.25 568.172 1424.25 601.146 1435.77 625.805 C 1463.72 685.174 1474.3 751.24 1466.3 816.37 C 1455.35 904.559 1420.38 964.214 1350.37 1018.7 C 1348.38 1026.48 1347.32 1030.84 1346.37 1038.75 C 1395.6 1037.45 1447.07 1022.99 1486.59 992.926 C 1515.08 971.248 1531.4 941.321 1540.7 907.236 C 1532.36 884.564 1523.64 862.038 1514.52 839.669 C 1511.92 833.284 1491.47 787.565 1496.56 784.137 C 1515.37 771.479 1552.83 760.023 1574.63 752.695 C 1572.25 744.338 1566.18 732.511 1568.1 725.069 C 1572.03 719.187 1588.93 715.074 1597.09 712.263 C 1594.07 697.551 1597.22 697.383 1609.97 693.059 L 1606.9 671.494 C 1608.57 670.507 1610.28 669.582 1612.02 668.722 C 1618.32 665.609 1663.09 649.412 1672.03 650.647 C 1675.37 651.109 1679.58 662.726 1681.34 666.96 C 1688.33 670.545 1692.03 672.844 1698.58 677.239 C 1713.35 672.987 1728.05 668.473 1742.66 663.698 C 1747.98 672.072 1751.56 680.97 1755.33 690.097 C 1775.58 679.678 1800.05 674.105 1823.96 661.63 L 1898.42 874.374 L 1931.81 966.988 C 1936.8 980.863 1954.53 1029.03 1954.97 1042.45 C 1951.84 1047.19 1880.42 1070.85 1870.67 1073.91 C 1897.73 1130.02 1910 1164.82 1911.69 1227.88 C 1915.95 1387.35 1790.87 1502.6 1635.04 1502.74 C 1484.9 1502.87 1395.22 1384.91 1297.3 1291.02 C 1292.53 1323.49 1295.28 1332.99 1283.49 1368.46 C 1264.04 1426.98 1235.14 1462.87 1196.67 1509.59 C 1149.64 1567.44 1078.27 1622.36 1059.28 1697.02 C 1039.44 1774.99 1086.06 1847.99 1164.8 1863.98 C 1246.78 1880.62 1364.45 1849.36 1385.17 1756.75 C 1393.81 1718.14 1382.25 1674.84 1338.98 1665.56 C 1312.6 1660.04 1280.26 1681.15 1259.58 1695.26 C 1245.79 1704.21 1225.31 1720.95 1213.24 1731.92 C 1218.72 1694.38 1224.88 1666.53 1251.68 1638.16 C 1274.16 1614.37 1304.53 1599.91 1337.44 1598.72 C 1369.07 1597.57 1396.47 1607.93 1419.53 1629.36 C 1445.99 1654.1 1461.95 1695.47 1461.41 1731.35 C 1459 1891.71 1307.49 1977.67 1162.46 1978.08 C 1076.56 1978.32 1000.36 1958.98 936.402 1898.12 C 900.432 1863.89 882.4 1825.68 871.909 1778.44 C 865.173 1747.05 864.398 1714.67 869.623 1682.99 C 878.562 1626.13 906.537 1574.07 939.051 1527.27 C 954.069 1505.65 970.393 1484.68 986.598 1463.94 C 1019.73 1421.55 1059.51 1374.3 1058.61 1317.39 C 1058.22 1293.07 1049.37 1267.82 1031.63 1250.74 C 1021.14 1240.66 1003.66 1230.01 988.654 1230.77 C 959.802 1232.24 899.578 1302.38 878.643 1324.48 C 860.31 1343.84 841.844 1363.51 822.227 1381.55 C 807.435 1395.16 791.593 1407.74 776.344 1420.85 C 673.994 1508.79 575.066 1569.38 436.394 1572.86 C 400.321 1573.77 368.437 1569.08 333.505 1559.95 C 319.176 1556.21 304.782 1552.69 290.919 1547.41 C 255.381 1533.86 218.516 1510.18 191.045 1483.88 C 133.915 1429.18 105.316 1359.36 103.965 1280.6 C 102.498 1195.13 134.623 1118.82 193.664 1057.67 C 181.871 1026.73 89.5079 772.389 92.4266 762.593 C 95.0959 753.634 139.591 730.253 149.871 726.116 C 160.991 721.642 204.539 719.893 218.996 718.512 C 285.398 711.854 351.852 705.72 418.351 700.112 C 438.803 698.338 459.21 695.654 479.682 694.376 C 488.176 694.107 499.682 697.638 503.285 706.193 C 533.206 777.254 555.051 852.746 581.974 924.896 C 604.696 925.138 780.276 932.293 788.546 938.894 C 791.985 941.639 793.173 948.291 793.584 952.337 C 794.421 960.578 795.171 978.413 789.48 984.78 C 782.525 992.562 630.194 1080.15 617.134 1083.5 C 604.42 1086.76 589.762 1086.66 576.627 1087.68 C 553.475 1089.57 530.312 1091.33 507.14 1092.95 C 524.78 1120.18 545.884 1137.47 579.162 1139.1 C 664.861 1143.28 722.405 1072.23 785.484 1027.99 C 793.484 1022.33 801.824 1017.17 810.455 1012.53 C 817.167 1008.98 837.156 999.688 841.625 995.802 C 840.826 984.269 841.703 985.357 848.68 976.521 C 842.876 967.9 830.609 956.168 822.904 948.596 C 761.808 888.546 688.605 843.153 626.425 784.441 C 608.12 767.156 592.708 748.637 577.058 729.003 C 560.036 729.228 547.641 727.401 536.669 712.773 C 509.285 676.267 511.162 625.324 515.354 582.901 C 488.413 602.662 470.037 613.845 436.619 622.156 C 401.736 630.831 362.16 630.841 330.53 611.724 C 339.556 603.515 355.892 591.61 362.26 581.759 C 394.92 531.231 385.184 476.305 422.38 426.457 C 447.792 392.401 489.811 370.576 531.099 364.255 C 532.037 362.19 533.031 360.15 534.079 358.139 C 539.751 347.437 547.294 345.21 557.863 342.006 C 556.433 256.03 587.257 215.639 661.015 175.47 C 713.57 146.848 737.686 124.487 732.883 61.6663 z" fill="rgb(59,62,115)" transform="translate(0,0)"></path>
<path d="M 809.217 312.111 C 826.984 310.848 861.266 312.956 878.841 314.808 C 983.533 325.559 1079.63 377.572 1145.88 459.346 C 1135.2 461.67 1127.33 463.574 1117.88 469.36 C 1103.39 478.292 1093.11 492.694 1089.37 509.306 C 1088.12 514.881 1087.64 519.285 1090.71 524.124 C 1094.01 526.149 1092.26 525.666 1096.14 525.623 C 1102.84 521.049 1104.39 502.086 1110.01 494.056 C 1122.5 476.178 1136.76 475.83 1154.32 471.015 C 1171.59 492.461 1194.33 536.196 1205.6 561.593 C 1192.01 550.396 1174.54 540.885 1157.03 545.82 C 1108.53 559.493 1106.17 630.741 1116.24 669.615 C 1127.17 711.808 1161 781.599 1214.38 770.332 C 1231.23 766.774 1242 751.074 1249.99 737.26 C 1248.57 750.807 1248.75 771.985 1247.69 787.211 C 1243.43 848.34 1227.84 895.492 1196.22 947.959 C 1182.22 972.166 1175.11 985.073 1148.9 995.735 C 1073.83 1026.27 958.046 1018.16 884.392 986.991 C 880.496 978.033 872.033 968.707 865.604 961.034 C 800.206 883.076 710.182 832.067 637.33 761.949 C 620.459 745.711 577.018 695.977 571.531 675.455 C 560.458 634.045 573.23 574.525 588.552 534.891 C 595.282 517.481 605.586 498.158 614.61 481.652 C 649.947 416.438 737.682 332.019 809.217 312.111 z" fill="rgb(247,139,151)" transform="translate(0,0)"></path>
<path d="M 882.745 598.32 C 1017.94 587.002 1096.88 830.221 943.67 865.235 C 890.562 873.08 854.652 848.273 824.743 805.455 C 778.794 739.673 787.203 612.717 882.745 598.32 z" fill="rgb(59,62,115)" transform="translate(0,0)"></path>
<path d="M 882.389 612.27 C 1002.37 598.308 1078.63 821.6 944.774 852.051 C 806.86 873.752 758.125 634.092 882.389 612.27 z" fill="rgb(255,255,255)" transform="translate(0,0)"></path>
<path d="M 909.776 640.15 C 926.048 639.028 937.173 641.643 950.953 651.774 C 997.098 685.699 1023.45 766.197 987.829 815.764 C 968.403 842.796 939.113 828.971 918.026 811.505 C 890.183 784.879 879.785 754.461 875.485 716.974 C 887.187 726.73 901.242 729.899 916.137 725.116 C 934.928 719.081 953.807 696.608 945.491 676.153 C 938.677 659.392 914.348 646.96 896.588 651.498 C 891.54 652.739 887.341 654.499 882.626 656.51 C 892.471 646.536 896.537 644.22 909.776 640.15 z" fill="rgb(59,62,115)" transform="translate(0,0)"></path>
<path d="M 908.889 783.986 C 924.854 783.858 939.936 795.45 934.333 812.163 C 924.4 809.756 903.532 794.101 908.889 783.986 z" fill="rgb(255,255,255)" transform="translate(0,0)"></path>
<path d="M 1183.55 822.64 C 1184.67 823.048 1185.33 823.674 1186.36 824.402 C 1186.83 826.647 1187.22 828.044 1185.82 830.374 C 1170.74 855.3 1147.52 870.445 1120.65 878.046 C 1120.34 903.227 1117.51 938.166 1092.14 951.75 C 1084.21 956.064 1074.86 956.932 1066.27 954.151 C 1048.63 948.505 1037.09 932.145 1029.2 916.384 C 1018.38 895.533 1011.87 862.062 1012.22 838.686 C 1039.65 853.01 1049.25 862.904 1084.02 864.159 C 1126.07 865.676 1153.57 849.815 1183.55 822.64 z" fill="rgb(59,62,115)" transform="translate(0,0)"></path>
<path d="M 1028.25 864.545 C 1041.43 871.505 1050.3 875.576 1064.6 879.126 C 1066.12 886.756 1069.48 904.796 1076.57 908.766 L 1078.26 907.907 C 1080.66 899.837 1075.92 888.324 1072.87 880.73 C 1085.36 881.435 1093.77 881.777 1106.29 880.879 C 1106.82 890.536 1106.61 896.473 1105.82 906.071 C 1102.82 923.04 1091.52 948.33 1069.72 941.02 C 1041.92 931.702 1032.09 890.228 1028.25 864.545 z" fill="rgb(255,255,255)" transform="translate(0,0)"></path>
<path d="M 862.631 525.377 C 881.004 522.964 924.463 533.758 926.898 556.128 C 925.652 559.442 926.73 558.366 923.933 559.803 C 922.982 559.822 919.7 559.881 919.073 559.338 C 892.398 536.206 867.548 532.212 833.325 545.924 C 820.013 553.119 810.986 558.916 802.868 572.386 C 799.24 578.408 796.507 585.44 788.99 585.335 C 785.452 582.04 784.497 577.154 786.755 572.734 C 801.667 543.539 831.268 529.285 862.631 525.377 z" fill="rgb(59,62,115)" transform="translate(0,0)"></path>
<path d="M 1140.91 1041.1 C 1141.53 1041.09 1142.44 1041.02 1142.97 1041.37 C 1174.51 1062.58 1201.69 1090.71 1222.08 1122.47 C 1259.31 1180.43 1278.79 1237.07 1273.11 1306.81 C 1265.12 1404.8 1199.16 1473.73 1136.72 1542.68 C 1094.87 1586.97 1051.04 1634.65 1037.05 1695.85 C 1016.48 1785.85 1070.31 1867.09 1160.09 1886.56 C 1261.24 1908.51 1406.21 1856.54 1409.56 1737.05 C 1409.97 1715.98 1406.54 1694.73 1394.74 1676.99 C 1375.85 1648.57 1344.41 1636.85 1311.39 1644.74 C 1288.59 1650.2 1271.79 1660.48 1252.6 1673.22 C 1271.15 1648.05 1293.65 1627.97 1325.44 1622.23 C 1349.2 1617.73 1373.77 1623.04 1393.53 1636.96 C 1423.57 1658.22 1438.49 1695.56 1438.3 1731.63 C 1437.35 1911.9 1203.53 2012.97 1065.58 1903.07 C 1056.77 1896.05 1047.57 1889.64 1039.64 1881.46 C 1007.14 1849.82 986.212 1807.19 979.583 1762.43 C 969.918 1701.05 989.014 1638.85 1019.73 1586.07 C 1030.87 1566.93 1046.19 1547.48 1059.35 1529.6 C 1115.12 1453.3 1168.95 1381.84 1163.37 1281.3 C 1160.09 1219.82 1132.4 1160.34 1087.26 1118.29 C 1044.76 1078.7 1013.85 1097.45 974.306 1126.62 C 916.256 1169.44 869.482 1221.91 819.58 1272.98 C 745.88 1348.42 655.881 1439.1 555.483 1476.94 C 525.097 1488.16 493.19 1494.72 460.842 1496.41 C 428.867 1498.2 402.569 1495.67 371.32 1489.29 C 267.649 1468.11 214.9 1406.31 209.777 1299.76 C 211.964 1304.68 214.218 1309.57 216.538 1314.43 C 241.089 1366.08 271.107 1392.79 325.917 1413.74 C 367.345 1429.57 414.963 1428.81 458.067 1420.47 C 565.448 1399.69 631.145 1336.42 696.142 1252.84 C 724.076 1216.92 752.208 1177.79 783.379 1144.78 C 823.613 1102.61 871.066 1067.99 923.496 1042.53 C 986.62 1060.04 1078.17 1061.16 1140.91 1041.1 z" fill="rgb(247,139,151)" transform="translate(0,0)"></path>
<path d="M 233.921 1422.21 L 235.097 1423.42 C 243.639 1432.25 250.234 1442.31 259.767 1450.32 C 306.817 1489.89 375.461 1505.65 435.991 1507.27 C 569.205 1510.82 673.717 1429.57 765.09 1342.05 C 789.302 1318.86 813.291 1294.72 836.648 1270.65 C 873.821 1232.35 988.453 1105.78 1040.05 1107.12 C 1060.26 1107.65 1078.25 1122.91 1091.18 1137.09 C 1134.59 1184.69 1156.09 1242.97 1152.75 1307.32 C 1148.65 1386.36 1103.25 1452.91 1057.51 1514.41 C 1040.49 1537.28 1022.99 1559.22 1008.64 1583.95 C 994.819 1607.78 984.358 1634.26 976.63 1660.68 C 967.017 1693.55 963.358 1727.6 968.275 1761.62 C 974.906 1807.5 993.692 1846.88 1024.61 1881.17 C 1051.53 1911.03 1088.07 1935.11 1126.3 1947.68 C 1138.65 1951.75 1151.37 1954.05 1163.79 1957.74 C 1123.09 1959.32 1053.34 1946.17 1017.85 1927.78 C 1006.92 1924.49 993.087 1915.36 983.921 1908.73 C 970.728 1898.55 958.387 1887.31 947.02 1875.12 C 896.286 1820.08 882.584 1754.16 895.13 1681.37 C 911.547 1586.13 981.076 1515.74 1034.72 1439.7 C 1059.35 1404.78 1079.87 1372.48 1081.91 1328.45 C 1085.67 1272.41 1050.16 1208.18 988.272 1206.89 C 987.808 1200.6 987.44 1194.46 986.502 1188.22 C 985.873 1180.96 985.558 1171.63 983.955 1164.76 C 982.574 1169.05 982.908 1173.33 982.877 1177.9 C 981.075 1187.97 982.22 1197.38 983.223 1207.49 C 976.74 1209.07 961.457 1214.72 958.763 1215.2 C 947.26 1182.57 915.26 1215.78 902.804 1229.33 C 893.003 1240 882.861 1248.85 889.562 1263.75 C 889.848 1264.39 890.143 1265.02 890.447 1265.64 C 893.452 1267.21 896.952 1269.19 900.041 1270.46 C 887.342 1283.64 870.026 1300.42 858.643 1314.2 C 852.08 1283.93 833.233 1290.24 815.581 1309.06 C 807.006 1318.2 796.756 1328.71 792.607 1340.78 C 795.344 1353.82 797.311 1356.01 807.003 1365.52 C 797.018 1373.23 784.526 1386.32 773.968 1395.3 C 763.446 1381.57 750.131 1375.43 736.948 1389.04 C 717.861 1408.76 694.971 1418.8 709.103 1449.3 C 695.552 1458.74 681.905 1468.05 668.166 1477.21 C 666.071 1471.87 664.019 1465.61 657.762 1463.31 C 638.214 1456.12 603.627 1481.74 593.504 1497.46 C 590.206 1502.59 595.541 1511.77 598.608 1516.51 C 580.869 1524.27 562.555 1530.63 543.83 1535.55 C 531.03 1506.21 520.309 1510.03 492.026 1515.52 C 475.955 1518.64 449.57 1527.02 464.072 1548.84 C 457.442 1553.3 420.207 1551.27 411.034 1551.04 C 417.443 1517.36 383.891 1513.95 357.894 1512.11 C 341.043 1510.92 337.004 1524.29 337.643 1539.14 C 322.568 1534.69 307.719 1529.5 293.149 1523.6 C 297.322 1517.01 298.266 1514.58 300.185 1507.32 L 299.896 1505.96 C 295.807 1486.04 268.259 1472.86 251.227 1464.77 C 237.202 1467.54 233.373 1472.36 224.797 1483.24 C 221.46 1480.34 217.084 1476.7 214.397 1473.31 C 139.401 1378.92 165.898 1241.76 230.015 1149.17 C 241.197 1133.02 250.495 1118 265.99 1105.17 C 243.626 1138.21 228.025 1163.85 215.614 1202.61 C 212.075 1213.67 207.821 1235.27 204.325 1247.23 C 201.942 1247.81 193.731 1249.91 192.544 1251.8 C 186.713 1261.12 184.036 1275.04 183.085 1286.23 C 182.017 1298.78 184.884 1307.13 198.766 1306.26 C 198.845 1315.72 202.863 1344.32 202.478 1347.82 L 200.813 1348.92 C 192.487 1353.21 190.878 1354.54 187.384 1363.37 C 189.81 1388.4 199.965 1431.92 233.921 1422.21 z" fill="rgb(255,255,255)" transform="translate(0,0)"></path>
<path d="M 985.002 1906.84 C 976.492 1899.65 958.176 1885.98 958.134 1875.67 C 958.935 1859.35 976.683 1853.23 989.065 1863.79 C 999.195 1872.43 1008.17 1881.77 1017.99 1890.34 C 1028.96 1899.92 1040.29 1922.79 1018.28 1926.14 L 1017.85 1927.78 C 1006.92 1924.49 993.087 1915.36 983.921 1908.73 L 985.002 1906.84 z" fill="rgb(59,62,115)" transform="translate(0,0)"></path>
<path d="M 985.002 1906.84 C 998.279 1916.63 1003.21 1919.53 1018.28 1926.14 L 1017.85 1927.78 C 1006.92 1924.49 993.087 1915.36 983.921 1908.73 L 985.002 1906.84 z" fill="rgb(137,212,234)" transform="translate(0,0)"></path>
<path d="M 973.181 1862.81 C 984.483 1864.09 992.61 1873.33 1000.86 1880.85 C 1011.45 1890.5 1037.48 1909.47 1016.05 1922.06 C 1001.94 1916.76 979.567 1896 968.482 1885.51 C 958.441 1876.01 963.333 1869.17 973.181 1862.81 z" fill="rgb(247,139,151)" transform="translate(0,0)"></path>
<path d="M 1103.8 1328.19 C 1142.3 1327.05 1121.76 1377.53 1113.26 1396.97 C 1110.04 1404.31 1104.85 1407.04 1097.38 1409.01 C 1069.05 1408.5 1071.57 1392.15 1078.2 1370.66 C 1084.07 1351.62 1080.52 1333.96 1103.8 1328.19 z" fill="rgb(59,62,115)" transform="translate(0,0)"></path>
<path d="M 1101.02 1333.08 C 1132.66 1331.18 1117.7 1364.94 1113.18 1382.67 C 1110.67 1392.51 1107.13 1400.08 1097.93 1404.75 C 1070.4 1406.44 1078.46 1384.59 1083.37 1366.98 C 1087.07 1353.7 1088.24 1340.48 1101.02 1333.08 z" fill="rgb(247,139,151)" transform="translate(0,0)"></path>
<path d="M 925.183 1731.17 C 935.938 1730.87 942.92 1731.51 947.441 1742.56 C 952.028 1754.74 955.152 1768.7 956.818 1781.63 C 959.001 1798.57 957.551 1805.39 942.14 1812.45 C 918.661 1813.83 915.761 1789.94 912.598 1771.97 C 909.364 1753.59 905.225 1739.23 925.183 1731.17 z" fill="rgb(59,62,115)" transform="translate(0,0)"></path>
<path d="M 924.058 1736.14 C 929.602 1735.83 936.927 1734.62 940.489 1740.12 C 944.963 1747.54 947.649 1757.86 948.747 1766.51 C 950.752 1782.3 957.025 1796.76 942.063 1807.38 C 925.191 1811.13 920.729 1789.52 918.95 1776.86 C 916.634 1760.38 908.977 1746.53 924.058 1736.14 z" fill="rgb(247,139,151)" transform="translate(0,0)"></path>
<path d="M 943.955 1592.05 C 966.824 1590.74 973.253 1605.53 965.179 1625.07 C 958.835 1640.42 953.281 1661.96 938.844 1670.9 C 934.463 1671.31 929.57 1671.38 925.402 1669.86 C 921.117 1668.29 917.65 1665.06 915.794 1660.89 C 909.396 1646.7 923.826 1614.06 932.17 1601.53 C 935.531 1596.49 938.582 1594.53 943.955 1592.05 z" fill="rgb(59,62,115)" transform="translate(0,0)"></path>
<path d="M 946.131 1596.04 C 975.135 1597.2 957.518 1628.39 951.656 1643.54 C 948.259 1652.33 944.158 1662.45 935.105 1666.08 C 906.058 1665 922.176 1635.36 927.481 1619.43 C 930.913 1609.12 935.987 1600.4 946.131 1596.04 z" fill="rgb(247,139,151)" transform="translate(0,0)"></path>
<path d="M 1038.6 1460.16 C 1075.65 1462.63 1057.22 1491.91 1042.67 1507.71 C 1034 1517.12 1029.92 1526.09 1017.32 1531.57 C 979.586 1533.12 997.304 1499.04 1011.98 1483.98 C 1021.85 1473.86 1023.53 1464.53 1038.6 1460.16 z" fill="rgb(59,62,115)" transform="translate(0,0)"></path>
<path d="M 1035.86 1465.03 C 1081.68 1462.27 1028.07 1516.95 1016.98 1526.05 C 1007.03 1528.29 996.566 1522.77 999.809 1512.28 C 1003.56 1500.13 1025.43 1471.52 1035.86 1465.03 z" fill="rgb(247,139,151)" transform="translate(0,0)"></path>
<path d="M 1096.34 1203.12 C 1111.73 1202.5 1118.59 1213.5 1123.75 1226.59 C 1131.09 1245.19 1140.33 1268.93 1116.84 1278.95 C 1103.02 1280.17 1097.42 1276.43 1092.84 1263.25 C 1088.89 1251.56 1084.13 1240.16 1081.57 1228.06 C 1078.61 1214.02 1083.47 1207.7 1096.34 1203.12 z" fill="rgb(59,62,115)" transform="translate(0,0)"></path>
<path d="M 1094.11 1208.11 C 1111.4 1206.67 1116.18 1221.33 1121.61 1235.15 C 1127.15 1249.29 1132.42 1264.38 1118.05 1274.2 C 1099.95 1278.89 1095.5 1258.81 1091.38 1245.18 C 1086.44 1228.84 1078.11 1218.79 1094.11 1208.11 z" fill="rgb(247,139,151)" transform="translate(0,0)"></path>
<path d="M 455.351 737.608 C 459.198 737.111 462.011 736.368 465.702 737.445 C 467.81 741.412 469.242 745.634 470.771 749.847 C 478.65 771.547 485.851 793.494 493.73 815.193 L 575.345 1045.87 C 563.975 1046.53 552.615 1047.35 541.269 1048.33 C 569.949 1019.65 507.837 1002.03 490.23 1023.74 C 480.382 1035.88 486.69 1043.19 496.523 1050.88 C 474.599 1051.53 449.085 1053.76 427.118 1055.3 C 387.09 1057.98 347.081 1060.94 307.096 1064.19 C 330.768 1044.71 353.802 1031.4 384.505 1024.24 C 395.663 1021.65 435.666 1023.43 427.78 999.103 C 425.335 991.559 417.537 987.506 410.365 984.746 C 402.092 982.379 393.594 980.888 385.01 980.296 C 316.58 975.158 261.822 1009.26 212.3 1051.79 C 180.991 957.863 148.207 864.433 113.961 771.534 C 123.502 769.281 140.281 767.898 150.483 766.829 L 206.379 761.061 L 348.414 747.555 C 382.46 744.608 421.746 742.004 455.351 737.608 z" fill="rgb(137,212,234)" transform="translate(0,0)"></path>
<path d="M 1799.77 730.007 C 1804.85 735.255 1893.37 990.619 1902.6 1015.94 C 1889.62 1018.93 1854.48 1032.47 1840.83 1037.4 L 1702.42 1088.36 C 1695.83 1090.77 1659.73 1105.47 1655.04 1106.17 C 1650.89 1095.38 1647.6 1084.1 1643.92 1073.13 C 1628.24 1026.48 1611.41 980.163 1596.92 933.127 C 1594.19 924.25 1598.88 914.97 1596.26 904.976 C 1594.11 896.805 1582.46 891.992 1581.5 886.653 C 1581.83 885.576 1582.14 884.496 1582.45 883.413 C 1583.77 878.679 1584.56 876.77 1582.14 872.418 C 1579.31 869.851 1574.87 869.153 1571.05 868.125 C 1569.26 864.135 1567.89 859.817 1566.66 855.612 C 1562.64 841.906 1557.65 829.116 1552.08 815.992 C 1567.87 809.664 1590.08 803.048 1606.75 797.381 L 1727.43 756.161 C 1751.08 747.966 1776.86 739.574 1799.77 730.007 z" fill="rgb(255,255,255)" transform="translate(0,0)"></path>
<path d="M 1693.56 1014.9 L 1695.45 1015.53 C 1698.74 1019.42 1709.03 1053.1 1711.47 1060.52 C 1697.53 1066.07 1681.57 1071.15 1667.24 1076.02 L 1665.08 1075.64 C 1662.14 1071.57 1650.68 1036.7 1649.07 1030.77 C 1660.49 1025.66 1681.05 1019.26 1693.56 1014.9 z" fill="rgb(59,62,115)" transform="translate(0,0)"></path>
<path d="M 1688.08 1025.96 L 1690.2 1026.36 C 1693.31 1033.36 1697.83 1047.76 1699.83 1055.17 L 1672.22 1064.39 C 1667.48 1062.08 1661.65 1042.2 1659.67 1036.56 C 1669.19 1033.16 1678.66 1029.63 1688.08 1025.96 z" fill="rgb(137,212,234)" transform="translate(0,0)"></path>
<path d="M 1671.03 947.156 C 1673.82 949.013 1685.75 985.648 1688 991.719 C 1678.18 997.86 1656.97 1003.78 1645.22 1007.21 L 1642.11 1006.98 C 1638.6 1003.98 1628.95 969.245 1627.2 962.712 C 1638.94 957.408 1658.6 950.896 1671.03 947.156 z" fill="rgb(59,62,115)" transform="translate(0,0)"></path>
<path d="M 1665.13 958.101 C 1668.86 961.978 1674.52 980.976 1676.48 987.118 C 1667.48 990.352 1658.31 993.883 1649.33 997.231 L 1648.2 997.472 C 1645.76 994.994 1639.67 973.702 1638.05 968.509 C 1647.1 965.104 1656.13 961.634 1665.13 958.101 z" fill="rgb(137,212,234)" transform="translate(0,0)"></path>
<path d="M 1643.46 879.007 C 1645.08 878.966 1644.75 879.116 1646.42 879.881 C 1652.14 888.179 1659.46 910.871 1663.06 921.071 C 1651.8 926.618 1634.5 933.057 1622.42 938.007 L 1620.22 937.667 C 1614.97 931.78 1604.58 900.802 1602.09 892.038 C 1615.11 888.419 1630.38 883.126 1643.46 879.007 z" fill="rgb(59,62,115)" transform="translate(0,0)"></path>
<path d="M 1641.93 889.22 C 1644.99 892.013 1649.84 911.258 1651.35 916.397 C 1642.49 920.511 1633.03 924.072 1623.91 927.668 C 1620.27 917.672 1616.38 907.767 1612.25 897.963 C 1622.1 894.888 1631.99 891.974 1641.93 889.22 z" fill="rgb(137,212,234)" transform="translate(0,0)"></path>
<path d="M 1620.83 813.233 C 1624.52 817.229 1634.72 847.317 1639.25 856.579 C 1625.39 862.505 1611.37 868.059 1597.21 873.233 L 1595.71 872.677 C 1589.73 864.687 1581.09 838.371 1578.09 828.11 C 1590.17 823.044 1608.09 817.531 1620.83 813.233 z" fill="rgb(59,62,115)" transform="translate(0,0)"></path>
<path d="M 1614.85 825.077 L 1616.4 825.009 C 1619.86 827.823 1625.29 846.758 1627.03 852.157 L 1600.51 862.768 L 1598.86 862.246 C 1595.93 856.983 1590.69 840.407 1588.48 833.931 L 1614.85 825.077 z" fill="rgb(137,212,234)" transform="translate(0,0)"></path>
<path d="M 1812.22 856.083 C 1815.22 857.116 1813.88 856.224 1815.82 859.545 L 1815.18 861.531 C 1810.02 864.415 1786.7 874.494 1781.07 873.151 L 1779.6 870.018 L 1778.52 870.079 L 1777.53 875.171 C 1773.35 878.083 1767.43 879.816 1762.52 881.586 C 1760.67 882.03 1759.45 882.249 1757.59 882.569 C 1755.7 880.182 1756.26 880.272 1755.76 876.844 C 1759.24 873.469 1804.95 858.021 1812.22 856.083 z" fill="rgb(59,62,115)" transform="translate(0,0)"></path>
<path d="M 1836.73 920.039 C 1837.18 920.268 1838.53 921.54 1838.98 921.93 C 1839.6 925.808 1839.83 924.003 1838.36 927.555 C 1831.59 932.92 1810.4 938.947 1801.4 941.873 C 1799.96 939.052 1798.54 937.052 1798.56 933.941 C 1803.2 931.354 1830.01 922.441 1836.73 920.039 z" fill="rgb(59,62,115)" transform="translate(0,0)"></path>
<path d="M 1794.06 935.108 C 1796.3 936.615 1796.32 938.397 1796.76 940.7 C 1792.74 947.172 1767.68 953.662 1759.26 956.312 C 1757.24 954.049 1756.55 951.77 1756.36 948.859 C 1758.89 946.453 1789.01 936.819 1794.06 935.108 z" fill="rgb(59,62,115)" transform="translate(0,0)"></path>
<path d="M 1759.05 1020.15 C 1762.63 1018.62 1762.01 1018.21 1765.1 1018.86 L 1767.5 1021.81 L 1768.61 1021.67 L 1767.43 1017.51 C 1769.86 1014.98 1778.26 1012.72 1782.96 1010.08 C 1784.44 1013.33 1787.53 1018.47 1786.65 1021.3 C 1784.5 1019.67 1782.39 1018.01 1780.14 1016.53 C 1780.72 1020.75 1782.31 1023.01 1780.76 1025.12 C 1777.38 1023.42 1777.2 1023.08 1774.45 1020.66 C 1772.31 1025.69 1774.7 1025.36 1772.05 1028.09 C 1768.72 1027.7 1767.61 1026.5 1764.89 1024.54 C 1763.22 1027.55 1767 1028.68 1764.33 1030.13 L 1763.37 1029.56 L 1760.56 1032.9 C 1757.61 1033.05 1757.81 1032.96 1755.3 1031.33 L 1750.89 1022.23 L 1757.7 1020.33 L 1759.05 1020.15 z" fill="rgb(59,62,115)" transform="translate(0,0)"></path>
<path d="M 1757.7 1020.33 L 1759.05 1020.15 C 1760.19 1023.42 1761.11 1027.06 1763.37 1029.56 L 1760.56 1032.9 C 1757.61 1033.05 1757.81 1032.96 1755.3 1031.33 L 1750.89 1022.23 L 1757.7 1020.33 z" fill="rgb(59,62,115)" transform="translate(0,0)"></path>
<path d="M 1757.7 1020.33 L 1759.05 1020.15 C 1760.19 1023.42 1761.11 1027.06 1763.37 1029.56 L 1760.56 1032.9 C 1759.45 1026.61 1756.45 1027.26 1757.7 1020.33 z" fill="rgb(137,212,234)" transform="translate(0,0)"></path>
<path d="M 1729.5 811.949 C 1730.34 811.847 1731.29 812.081 1732.19 812.213 C 1734.26 815.949 1734.14 814.15 1733.4 817.686 C 1728.07 822.721 1708.39 828.213 1700.52 830.779 L 1699.33 830.568 C 1697.11 827.458 1696.56 827.862 1696.76 824.894 C 1701.73 819.823 1721.89 814.375 1729.5 811.949 z" fill="rgb(59,62,115)" transform="translate(0,0)"></path>
<path d="M 1681.3 828.983 C 1685.39 826.671 1687.03 825.32 1691.46 826.072 C 1694.11 830.286 1692.19 833.82 1687.91 835.852 C 1684.73 835.797 1684.9 835.945 1682.38 834.053 L 1680.77 830.062 C 1679.72 834.236 1679.66 832.178 1681.3 836.439 C 1677.34 840.596 1663.84 845.42 1657.97 842.234 C 1656.04 839.369 1656.41 840.857 1656.3 837.789 C 1659.32 834.766 1676.75 829.601 1681.3 828.983 z" fill="rgb(59,62,115)" transform="translate(0,0)"></path>
<path d="M 1750.25 877.102 C 1751.01 877.289 1752.24 878.286 1752.99 878.805 C 1753.55 881.951 1753.84 880.524 1752.81 883.266 C 1746.78 887.464 1730.04 892.427 1722.25 894.976 L 1719.9 894.488 C 1717.65 890.636 1717.77 892.474 1718.43 888.923 C 1723.56 884.299 1742.76 879.355 1750.25 877.102 z" fill="rgb(59,62,115)" transform="translate(0,0)"></path>
<path d="M 1781.92 794.035 L 1784.9 794.218 C 1786.84 796.34 1786.96 796.141 1787.29 798.944 C 1784.66 803.579 1766.82 808.512 1760.4 811.014 C 1759.98 811.038 1758.16 810.624 1757.67 810.526 C 1755.96 808.244 1755.47 808.08 1754.96 805.359 C 1758.02 800.793 1775.86 796.01 1781.92 794.035 z" fill="rgb(59,62,115)" transform="translate(0,0)"></path>
<path d="M 1726.44 958.012 L 1728.8 959.203 C 1731.19 963.075 1731.46 962.079 1730.83 965.436 C 1726.48 969.106 1718.25 971.088 1712.4 973.074 L 1710.56 972.974 C 1708.27 970.996 1708.09 969.329 1707.19 966.425 C 1709.98 961.774 1720.59 959.743 1726.44 958.012 z" fill="rgb(59,62,115)" transform="translate(0,0)"></path>
<path d="M 1700.82 893.123 C 1702.81 894.838 1703.65 897.293 1703.98 899.791 C 1701.37 904.536 1689.63 907.047 1683.23 909.401 C 1680.65 907.325 1680.38 905.843 1680.14 902.893 C 1682.85 898.094 1695.08 895.031 1700.82 893.123 z" fill="rgb(59,62,115)" transform="translate(0,0)"></path>
<path d="M 1818.6 998.879 C 1819.27 998.747 1819.94 998.615 1820.61 998.483 L 1820.64 1000.48 C 1821.86 999.986 1821.36 1000.05 1822.2 998.156 L 1823.42 998.37 C 1825.29 1002.23 1825.3 1004.98 1822.93 1008.76 C 1819.95 1008.87 1819.72 1007.65 1816.63 1005.08 C 1816.67 1007.29 1816.66 1008.51 1816.4 1010.67 L 1816.18 1012.41 C 1812.25 1011.66 1812.65 1010.22 1809.32 1008.34 C 1809.46 1010.98 1809.61 1011.09 1808.91 1013.59 L 1807 1013.62 C 1804.33 1010.27 1803.44 1007.81 1804.19 1003.73 C 1807.11 1001.08 1814.44 999.915 1818.6 998.879 z" fill="rgb(14,27,52)" transform="translate(0,0)"></path>
<path d="M 1750.17 805.062 C 1751.24 805.485 1752.05 806.584 1752.99 807.526 C 1753.76 810.527 1753.85 809.05 1752.36 812.068 C 1747.62 815.42 1743.85 816.208 1738.33 817.925 C 1735.71 815.604 1734.87 814.181 1735.93 811.029 C 1739.96 807.858 1745.18 806.674 1750.17 805.062 z" fill="rgb(59,62,115)" transform="translate(0,0)"></path>
<path d="M 1750.01 949.732 C 1752.42 949.623 1751.26 949.579 1753.78 950.882 C 1756.52 957.845 1752.68 959.033 1747.4 961.195 C 1745.83 961.314 1746.69 961.44 1744.91 960.386 C 1741.63 953.444 1744.76 951.972 1750.01 949.732 z" fill="rgb(59,62,115)" transform="translate(0,0)"></path>
<path d="M 1793.04 1005.45 L 1794.84 1006.19 C 1797.84 1009.98 1796.85 1015.62 1793.36 1018.84 C 1789.99 1019.04 1790.59 1018.55 1787.03 1016.08 C 1785.39 1012.95 1784.71 1012.98 1785.02 1010.07 L 1786.99 1008.98 C 1790.18 1009.63 1789.36 1009.67 1792.1 1012.5 L 1792.92 1011.67 C 1792.59 1009.62 1792.63 1009.25 1792.84 1007.25 L 1793.04 1005.45 z" fill="rgb(59,62,115)" transform="translate(0,0)"></path>
<path d="M 1737.93 953.865 C 1741.5 955.062 1739.97 954.001 1742.2 957.757 C 1742.57 964.063 1741.21 963.548 1736.29 965.44 C 1733.09 963.674 1731.88 961.656 1731.82 958.135 C 1733.91 954.577 1733.14 955.722 1737.93 953.865 z" fill="rgb(59,62,115)" transform="translate(0,0)"></path>
<path d="M 1834.48 990.595 C 1837.9 994.172 1839.34 997.471 1841.68 1001.81 C 1840.94 1002.41 1841.49 1002.06 1839.82 1002.35 L 1837.47 999.567 L 1836.21 999.577 L 1836.86 1003.21 L 1835.58 1004.06 L 1833.21 1003.43 C 1828.92 999.111 1830.23 994.159 1834.48 990.595 z" fill="rgb(14,27,52)" transform="translate(0,0)"></path>
<path d="M 1711.1 889.821 L 1712.46 889.803 C 1715.75 891.987 1714.79 890.523 1715.58 894.241 C 1713.84 898.926 1714.95 897.281 1710.11 900.308 C 1707.7 898.12 1705.8 896.87 1704.67 893.847 C 1706.48 890.796 1706.88 891.499 1711.1 889.821 z" fill="rgb(59,62,115)" transform="translate(0,0)"></path>
<path d="M 1846.47 986.266 C 1853.01 987.996 1854.14 995.336 1850.99 1000.5 C 1847.51 997.132 1844.7 993.566 1844.33 988.684 L 1846.47 986.266 z" fill="rgb(59,62,115)" transform="translate(0,0)"></path>
<path d="M 1743.76 1025.58 L 1748.73 1023.47 C 1750.39 1026.7 1752.58 1030.54 1753.75 1033.88 L 1751.5 1035.66 C 1749.56 1034.59 1745.37 1027.84 1743.76 1025.58 z" fill="rgb(59,62,115)" transform="translate(0,0)"></path>
<path d="M 1824.88 994.548 C 1825.71 994.843 1827.07 995.62 1827.89 996.053 C 1830.46 999.546 1830.5 1002.48 1831.21 1006.8 C 1829.1 1006.91 1829.47 1006.84 1827.35 1006.44 C 1825.68 1004.06 1825.49 997.9 1824.88 994.548 z" fill="rgb(6,17,28)" transform="translate(0,0)"></path>
<path d="M 1839.77 991 L 1841.59 989.889 C 1843.72 992.262 1847.17 998.17 1844.72 1001.02 C 1841.51 997.325 1841.13 995.673 1839.77 991 z" fill="rgb(14,27,52)" transform="translate(0,0)"></path>
<path d="M 1571.76 1005.87 C 1574.27 1008.7 1579.34 1024.75 1581.01 1029.22 C 1596.53 1070.69 1609.48 1113.24 1626.6 1154.09 C 1628.67 1159.03 1633.21 1159.64 1637.99 1160.97 C 1675.98 1148.13 1713.88 1131.6 1751.97 1118.63 C 1771.87 1111.85 1793.23 1104.21 1812.36 1095.62 C 1815.43 1111.8 1819.68 1127.9 1822.79 1144.12 C 1838.63 1226.83 1801.16 1335.8 1708.49 1351.73 C 1686.19 1355.65 1651.51 1348.84 1630.64 1339.8 C 1543.6 1302.09 1492.05 1213.99 1420.85 1155.24 C 1410.25 1146.5 1400.98 1137.28 1389.68 1129.79 C 1394.07 1128.87 1398.45 1127.91 1402.82 1126.89 C 1473.05 1110.75 1533.89 1067.17 1571.76 1005.87 z" fill="rgb(255,255,255)" transform="translate(0,0)"></path>
<path d="M 1179.59 1024.01 C 1185.93 1024.07 1223.78 1043.65 1230.85 1047.26 C 1298.17 1081.77 1360.03 1126.01 1414.43 1178.56 C 1436.96 1200.73 1463.09 1227.32 1484.62 1250.52 C 1520.63 1290.73 1553.36 1323.35 1600.53 1350.42 C 1680.75 1397.74 1776.45 1379.28 1821.32 1293.98 C 1857.53 1225.13 1853.7 1159.78 1832.08 1088.01 L 1849.83 1081.82 C 1865.37 1109.59 1872.25 1133.43 1880.59 1163.73 C 1895.03 1232.33 1888.72 1290.55 1846.14 1348.05 C 1809.01 1398.23 1753.36 1431.47 1691.57 1440.37 C 1535.52 1462.82 1437.11 1330.49 1341.34 1232.94 C 1324.13 1215.37 1306.2 1198.53 1287.59 1182.45 C 1280.71 1176.57 1260.55 1161.67 1256.24 1155.96 C 1249.71 1147.33 1240.8 1130.28 1234.14 1120.21 C 1210.7 1084.75 1187.05 1062.36 1153.42 1037.09 C 1163.26 1032.6 1170.08 1029.22 1179.59 1024.01 z" fill="rgb(247,139,151)" transform="translate(0,0)"></path>
<path d="M 335.474 1104.41 C 338.05 1104.05 344.41 1103.95 347.286 1103.82 L 349.522 1111.37 C 370.497 1181.62 406.957 1227.44 471.133 1264.25 C 515.638 1289.77 593.422 1299.93 643.079 1285.05 C 605.229 1327.83 573.14 1352.25 520.969 1376.21 C 496.017 1386.58 476.254 1393.93 449.424 1398.77 C 357.964 1415.27 248.917 1374.89 233.932 1272.73 C 224.964 1211.59 251.946 1157.48 286.741 1109.32 C 302.956 1107.4 319.203 1105.77 335.474 1104.41 z" fill="rgb(255,255,255)" transform="translate(0,0)"></path>
<path d="M 1372.89 236.426 C 1386.43 235.577 1405.62 235.74 1418.74 238.709 C 1413.73 239.394 1408.74 239.905 1403.7 240.326 C 1351.71 244.779 1297.39 266.05 1273.63 315.753 C 1255.86 352.927 1267.92 392.719 1284.28 428.052 C 1294.03 449.204 1305.65 469.443 1319 488.528 C 1329.22 503.247 1340.63 517.445 1351.33 531.867 C 1362.54 546.439 1371.9 562.179 1382.36 577.209 C 1455.53 682.347 1474.37 827.496 1398.03 936.3 C 1375.23 968.8 1321.33 1002.03 1281.79 1008.08 C 1252.86 1015.36 1229.08 1015.7 1202.22 1003.32 C 1209.32 990.233 1206.44 984.191 1212.69 972.385 C 1314.76 958.8 1380.47 886.451 1386.68 784.594 C 1392.12 695.473 1366.31 623.915 1320.09 548.83 C 1285.86 493.229 1246.13 432.085 1241.86 365.402 C 1237.16 283.827 1296.17 240.522 1372.89 236.426 z" fill="rgb(247,139,151)" transform="translate(0,0)"></path>
<path d="M 854.406 1016.83 C 853.822 1016.79 901.303 1036.43 907.192 1038.56 C 858.779 1061.13 799.515 1109.4 763.752 1148.86 C 751.967 1161.86 737.903 1179.72 726.591 1191.75 C 711.882 1207.39 663.127 1222.96 642.607 1226.73 C 629.362 1229.08 615.927 1230.21 602.475 1230.08 C 547.432 1229.54 507.789 1212.04 469.575 1172.96 C 448.33 1147.18 438.735 1129.78 427.134 1098.15 C 443.664 1096.3 464.504 1095.34 481.446 1094.06 C 494.898 1118.43 515.702 1145.47 542.706 1154.93 C 608.709 1178.06 682.235 1140.43 732.592 1099.19 C 752.132 1083.19 768.916 1067.6 788.701 1053.44 C 809.174 1038.84 831.212 1026.56 854.406 1016.83 z" fill="rgb(247,139,151)" transform="translate(0,0)"></path>
<path d="M 366.519 989.41 C 378.078 988.225 416.893 990.558 419.156 1004.77 C 418.286 1006.78 416.591 1009.52 414.143 1009.76 C 365.321 1014.55 338.221 1025.8 300.525 1057.07 C 245.653 1102.14 204.147 1161.35 180.495 1228.3 C 159.446 1288.41 151.739 1365.79 178.181 1425.63 C 179.942 1429.61 181.923 1433.65 183.816 1437.58 C 185.777 1441.06 188.911 1448.07 190.758 1451.88 C 156.426 1413.81 132.024 1352.81 127.275 1302.48 C 119.703 1222.24 144.18 1149.13 194.508 1087.1 C 240.455 1030.47 293.347 997.03 366.519 989.41 z" fill="rgb(247,139,151)" transform="translate(0,0)"></path>
<path d="M 749.659 125.611 C 753.407 129.321 756.724 142.01 757.78 147.472 C 768.301 201.884 755.14 247.143 725.729 292.923 C 706.146 326.054 671.257 346.497 636.933 361.545 C 629.643 364.741 611.292 374.472 604.28 369.449 C 604.02 368.444 603.761 367.44 603.501 366.435 C 606.511 363.01 617.063 356.224 619.981 353.896 C 653.489 327.157 687.642 286.564 708.17 249.499 C 709.234 247.297 708.999 247.845 709.546 245.464 C 707.659 246.238 691.742 267.051 688.483 270.903 C 661.372 302.949 632.131 331.153 598.641 356.428 C 593.882 351.367 584.671 347.285 583.884 343.523 C 581.888 333.977 582.37 318.534 582.52 308.739 C 583.217 263.145 620.803 224.491 657.271 202.016 C 682.745 186.317 710.882 174.474 732.405 151.913 C 741.051 142.85 743.89 136.694 749.659 125.611 z" fill="rgb(137,212,234)" transform="translate(0,0)"></path>
<path d="M 531.731 388.28 L 532.816 388.173 C 538.124 390.395 539.349 394.997 541.493 400.174 C 533.208 404.485 510.642 415.294 507.93 423.237 C 513.11 434.992 539.441 406.371 549.927 409.851 C 553.505 415.781 545.339 431.962 542.99 438.69 C 532.025 470.099 516.297 497.946 491.676 520.781 C 483.253 528.593 470.949 536.426 463.903 545.11 C 466.603 543.826 469.291 542.518 471.968 541.186 C 526.438 513.971 544.008 468.738 562.136 414.54 L 576.458 414.623 C 573.842 436.195 570.566 456.515 565.307 477.574 C 555.422 508.716 542.2 524.89 519.156 547.269 C 475.103 590.052 436.651 603.735 376.888 603.031 C 421.235 547.314 403.501 465.695 463.155 419.375 C 481.152 405.401 509.266 391.81 531.731 388.28 z" fill="rgb(137,212,234)" transform="translate(0,0)"></path>
<path d="M 1161.48 557.186 C 1234.16 551.363 1282.31 741.252 1209.53 758.691 C 1142.26 761.447 1108.45 630.695 1134.45 581.696 C 1141.82 567.814 1147.23 562.39 1161.48 557.186 z" fill="rgb(255,255,255)" transform="translate(0,0)"></path>
<path d="M 1175.14 600.218 C 1219.4 597.063 1240.83 680.389 1231.63 713.593 C 1216.05 769.8 1173.43 738.648 1154.07 704.761 C 1149.61 696.463 1132.6 654.755 1138.8 647.557 C 1150.09 679.545 1192.96 669.66 1192.32 646.556 C 1191.34 611.348 1160.95 611.689 1140.42 631.349 C 1148.42 614.18 1155.4 603.932 1175.14 600.218 z" fill="rgb(59,62,115)" transform="translate(0,0)"></path>
<path d="M 1169.06 701.907 L 1169.48 701.925 C 1181.29 702.339 1185.05 711.632 1188.4 721.652 C 1187.68 726.038 1187.42 729.983 1185.29 733.818 L 1183.45 733.843 C 1176.21 728.328 1164.15 716.916 1163.2 707.508 C 1164.96 703.679 1164.88 704.646 1169.06 701.907 z" fill="rgb(255,255,255)" transform="translate(0,0)"></path>
<path d="M 1810.44 694.878 L 1812.03 695.211 C 1817.11 701.737 1837.45 763.976 1841.67 775.976 L 1895.1 926.222 C 1907.87 962.558 1918.22 995.757 1932.98 1031.45 C 1835.52 1064.53 1738.38 1103.05 1641.64 1138.33 C 1637.84 1129.75 1632.9 1114.1 1629.57 1104.74 L 1604.84 1035 C 1597.72 1014.51 1591.62 994.778 1582.27 975.104 C 1585.17 966.999 1588.58 959.02 1591.88 951.066 C 1597.88 966.224 1602.56 982.028 1608.37 997.203 C 1623.42 1036.47 1633.61 1079.54 1650.36 1117.94 C 1702.97 1096.49 1762.37 1076.55 1816.36 1055.95 C 1847.34 1043.9 1881.41 1032.74 1912.98 1021.91 C 1907.5 998.892 1889.17 953.555 1880.47 928.131 C 1862.17 874.25 1843.33 820.553 1823.95 767.049 C 1817.66 749.643 1811.89 731.454 1805.3 714.355 C 1776.59 730.467 1729.95 744.153 1697.75 755.139 C 1645.4 773.474 1592.81 791.122 1539.99 808.079 C 1546.31 828.99 1554.29 846.009 1560.22 868.579 C 1557.84 873.568 1555.18 880.726 1553.06 885.975 C 1547.4 874.226 1541.39 857.037 1536.51 844.54 C 1529.26 826.319 1521.84 808.165 1514.25 790.08 C 1528.03 785.597 1544.4 778.891 1558.16 773.661 C 1560.15 780.157 1561.05 783.007 1563.99 789.201 C 1582.68 783.442 1600.2 776.612 1618.64 770.385 L 1764.88 720.644 L 1760.83 710.32 C 1777.73 705.512 1793.95 701.012 1810.44 694.878 z" fill="rgb(137,212,234)" transform="translate(0,0)"></path>
<path d="M 1262.98 1173.98 C 1288.46 1195.67 1317.24 1220.46 1340.01 1244.8 C 1431.29 1342.31 1529.04 1462.13 1677.73 1450.59 C 1742.61 1445.13 1802.69 1414.21 1844.85 1364.6 C 1855.43 1352.08 1864.47 1337.14 1873.22 1323.22 C 1858.77 1366.48 1834.2 1393.36 1802.87 1424.49 C 1787.97 1427.21 1762.95 1431.37 1752.44 1444.44 C 1751.19 1445.99 1750.04 1453.88 1749.58 1454.16 C 1740.02 1459.95 1724.36 1464.61 1713.8 1467.76 C 1706.62 1469.89 1700.08 1471.67 1694.31 1472.98 C 1675.45 1454.84 1638.14 1458.05 1623.01 1479.91 C 1611.18 1478.84 1602.43 1477.68 1590.71 1475.68 C 1589.68 1466.91 1587.44 1462.36 1580.49 1456.72 C 1569.42 1447.74 1552.07 1442.94 1537.93 1444.63 C 1532.9 1445.22 1526.36 1452.42 1524.25 1452.54 C 1518.71 1452.83 1495.04 1436.66 1489.44 1432.76 C 1494 1427.39 1497.59 1424.32 1498.02 1417.26 C 1495.89 1410.92 1483.3 1401.3 1477.6 1397.75 C 1463.83 1389.16 1447.55 1375.35 1436.78 1394.74 C 1431.34 1389.97 1402.99 1366.16 1401.68 1361.8 C 1425.85 1349.13 1395.35 1325.53 1383.87 1315.85 C 1369.99 1304.14 1363.19 1296.58 1348.8 1310.81 C 1344.35 1303.97 1327.4 1288.66 1320.75 1279.96 L 1321.58 1279.12 C 1350.26 1264.36 1292.13 1221.57 1281.41 1219.77 L 1279.94 1220.32 C 1278.05 1216.7 1275.44 1207.06 1273.78 1202.54 C 1270.27 1192.94 1266.74 1183.51 1262.98 1173.98 z" fill="rgb(255,255,255)" transform="translate(0,0)"></path>
<path d="M 475.731 716.396 L 485.371 717.1 C 487.532 724.586 489.953 732.164 492.528 739.521 C 509.843 788.989 528.174 837.92 544.799 887.638 L 582.192 999.828 C 587.355 1015.27 592.342 1030.78 597.599 1046.18 C 600.569 1054.87 613.171 1049.43 618.566 1046.51 C 642.181 1033.75 666.23 1021.12 689.539 1007.82 C 716.412 992.483 745.922 978.465 771.474 961.179 L 776.485 970.733 C 728.315 997.012 660.564 1035.96 611.351 1062.68 C 607.125 1064.97 548.358 1067.89 536.496 1068.77 L 283.478 1086.28 C 288.483 1080.86 290.856 1078.34 297.069 1074.42 C 324.875 1072.64 354.703 1070.73 382.386 1068.23 C 431.571 1065.69 481.026 1060.75 530.304 1058.41 C 547.984 1057.56 569.913 1056.46 587.084 1053.54 C 580.598 1029.08 564.86 987.457 556.267 961.988 C 529.964 883.469 502.227 805.438 473.07 727.933 C 454.232 728.45 430.487 731.468 411.285 733.027 C 368.338 736.168 325.437 739.904 282.594 744.234 L 174.794 754.944 C 153.604 757.123 130.476 759.023 109.612 762.401 C 136.67 745.801 158.356 745.383 189.106 742.552 L 262.458 736.218 L 422.134 721.483 C 440.059 719.877 457.76 717.703 475.731 716.396 z" fill="rgb(137,212,234)" transform="translate(0,0)"></path>
<path d="M 1563.67 892.601 C 1572.98 894.283 1589.41 895.98 1588.61 908.811 C 1586.03 950.156 1558.97 995.296 1531.42 1024.65 C 1481.59 1077.76 1424.39 1104.88 1351.46 1106.86 C 1340.3 1100.28 1331.47 1094.19 1320.85 1086.83 C 1306.6 1077.11 1289.95 1065.64 1275.07 1057.26 L 1276.65 1057.58 C 1320.5 1066.32 1383.29 1061.96 1425.87 1048.21 C 1446.84 1041.44 1468.15 1029.46 1486.42 1017.57 C 1519.28 996.185 1545.01 965.423 1556.07 927.446 C 1559.17 916.79 1561.46 903.726 1563.67 892.601 z" fill="rgb(247,139,151)" transform="translate(0,0)"></path>
<path d="M 365.564 1103.12 C 381.33 1102.36 403.579 1100.75 419.353 1098.8 C 442.911 1162.23 477.92 1211.13 545.797 1231.17 C 600.62 1247.37 646.067 1238.04 697.94 1218.5 L 705.607 1215.59 C 697.752 1223.86 670.953 1252.15 662.338 1258.74 L 661.231 1258.39 L 660.879 1257.52 C 658.755 1253.33 656.605 1250.52 651.501 1251 C 626.17 1253.42 600.742 1253.29 575.53 1254.31 C 566.204 1255.21 564.579 1259.87 562.411 1268.02 C 544.883 1265.63 528.105 1261.41 510.95 1257.22 C 516.418 1249.51 518.205 1241.16 509.686 1234.23 C 497.221 1224.08 476.414 1208.53 460.256 1206.77 C 448.391 1205.48 447.405 1217.1 444.377 1220.24 C 437.224 1216.39 413.524 1191.16 407.52 1184.15 C 413.284 1183.76 416.073 1183.53 421.123 1180.82 C 424.528 1174.63 421.691 1166.81 418.225 1161.14 C 410.515 1148.53 389.045 1092.59 368.148 1112.48 L 365.564 1103.12 z" fill="rgb(255,255,255)" transform="translate(0,0)"></path>
<path d="M 791.662 291.188 C 797.104 290.766 802.879 289.792 807.681 292.379 C 809.185 298.138 794.779 302.736 790.182 304.578 C 768.769 313.157 748.912 324.926 730.073 338.156 C 666.432 382.555 615.915 443.265 583.823 513.916 C 555.092 576.234 543.717 640.535 567.977 706.568 L 567.21 707.15 C 553.393 707.775 542.388 668.784 540.408 658.142 C 526.96 590.098 553.448 527.322 585.996 469.268 C 624.612 400.394 711.789 307.594 791.662 291.188 z" fill="rgb(137,212,234)" transform="translate(0,0)"></path>
<path d="M 1734.13 678.12 C 1737.75 681.772 1744.7 709.014 1746.26 714.943 C 1725.5 721.076 1706.09 729.344 1685.96 735.621 C 1653.75 745.663 1623.17 755.453 1591.34 766.47 C 1589.01 762.198 1580.96 736.798 1579.01 730.895 C 1591.78 724.613 1615.65 716.974 1629.56 712.338 C 1664.38 700.729 1699.26 689.766 1734.13 678.12 z" fill="rgb(137,212,234)" transform="translate(0,0)"></path>
<path d="M 863.373 986.583 C 865.919 987.459 875.436 993.135 878.352 994.809 C 887.307 1000.05 896.155 1003.67 906.128 1006.64 C 992.674 1032.42 1099.46 1037.21 1180.01 991.567 C 1183.24 989.742 1185.33 988.974 1188.69 990.041 L 1189.3 992.49 C 1188.24 997.186 1187.27 997.905 1184.25 1001.88 C 1169.59 1017.78 1143 1029.19 1122.5 1034.12 C 1050.51 1051.43 930.424 1046.01 866.786 1008.69 C 864.142 1001.04 861.739 994.653 863.373 986.583 z" fill="rgb(137,212,234)" transform="translate(0,0)"></path>
<path d="M 595.172 965.88 C 642.208 965.895 690.286 971.77 738.298 971.024 C 711.297 986.521 683.471 1000.18 656.505 1015.94 C 645.533 1022.38 629.655 1030.57 618.128 1037.05 C 616.947 1037.72 616.916 1037.35 615.308 1036.39 C 614.96 1035.11 613.459 1029.89 614.566 1028.89 C 627.367 1017.26 662.248 1004.82 672.334 991.938 C 673.218 976.838 610.921 978.458 598.579 977.928 C 597.082 973.791 596.236 970.125 595.172 965.88 z" fill="rgb(247,139,151)" transform="translate(0,0)"></path>
<path d="M 568.215 357.101 C 582.061 354.885 595.098 364.266 597.394 378.099 C 599.691 391.932 590.386 405.023 576.567 407.401 C 569.448 408.625 562.144 406.773 556.469 402.303 C 550.795 397.834 547.283 391.167 546.805 383.96 C 545.935 370.822 555.213 359.182 568.215 357.101 z" fill="rgb(137,212,234)" transform="translate(0,0)"></path>
<path d="M 809.581 1363.02 C 786.764 1339.61 799.038 1333.19 817.526 1312.64 C 833.097 1295.34 851.693 1287.56 854.209 1317.96 C 843.287 1326.2 820.415 1351.92 809.581 1363.02 z" fill="rgb(247,139,151)" transform="translate(0,0)"></path>
<path d="M 467.782 1549.36 C 464.836 1542.51 462.121 1533.67 469.02 1528.43 C 480.495 1519.73 510.037 1515.58 523.689 1516 C 533.328 1522.07 535.169 1526.36 539.906 1536.38 C 530.784 1541.18 477.568 1551.56 467.782 1549.36 z" fill="rgb(247,139,151)" transform="translate(0,0)"></path>
<path d="M 248.959 1468.82 C 261.438 1471.94 282.74 1485.13 290.587 1495.92 C 296.516 1504.08 296.062 1525.52 280.565 1518.83 C 266.821 1511.99 240.341 1495.6 229.014 1485.97 C 236.655 1476.23 237.971 1474.09 248.959 1468.82 z" fill="rgb(247,139,151)" transform="translate(0,0)"></path>
<path d="M 349.504 1517.13 C 365.071 1515.84 385.618 1518.33 399.075 1526.85 C 407.205 1532 415.373 1550.28 399.819 1550.04 C 388.385 1548.26 350.814 1544.66 342.112 1539.57 C 338.919 1531.56 342.533 1522.04 349.504 1517.13 z" fill="rgb(247,139,151)" transform="translate(0,0)"></path>
<path d="M 901.066 1269.14 C 880.666 1255.01 895.324 1241.21 908.323 1228.3 C 919.973 1216.73 944.236 1191.55 955.529 1216.93 C 935.526 1232.12 917.692 1250.3 901.066 1269.14 z" fill="rgb(247,139,151)" transform="translate(0,0)"></path>
<path d="M 751.041 1385 C 760.781 1385.78 764.8 1391.4 768.193 1399.83 C 756.264 1411.78 735.674 1427.72 722.034 1438.73 L 712.571 1446.24 C 709.7 1438.95 708.374 1435.54 710.262 1427.67 C 713.609 1413.72 739.415 1391.31 751.041 1385 z" fill="rgb(247,139,151)" transform="translate(0,0)"></path>
<path d="M 645.538 1466.19 C 658.498 1464.36 659.621 1468.68 663.719 1479.48 C 652.666 1488.97 623.631 1503.72 610.337 1510.32 C 607.599 1511.57 604.77 1512.64 601.968 1513.74 C 590.069 1493.42 604.87 1490.92 620.001 1479.39 C 627.286 1473.83 637.014 1469.54 645.538 1466.19 z" fill="rgb(247,139,151)" transform="translate(0,0)"></path>
<path d="M 369.306 1116.13 C 385.402 1098.4 403.985 1142.04 409.597 1152.58 C 412.805 1158.61 418.153 1168.26 418.855 1174.89 C 417.478 1178.33 416.121 1179.02 412.607 1181.08 C 399.697 1178.72 394.283 1164.83 387.64 1154.39 C 380.244 1142.78 374.439 1128.96 369.306 1116.13 z" fill="rgb(247,139,151)" transform="translate(0,0)"></path>
<path d="M 588.439 949.206 C 629.598 949.948 671.031 952.527 712.158 954.757 C 726.998 955.562 748.274 955.036 761.636 956.442 L 762.308 957.638 L 759.466 959.909 C 757.232 961.31 753.565 963.684 751.033 963.809 C 731.263 964.783 709.324 963.122 689.682 961.953 C 657.432 960.033 625.081 957.822 592.84 957.867 L 588.439 949.206 z" fill="rgb(247,139,151)" transform="translate(0,0)"></path>
<path d="M 458.875 1211.14 C 471.243 1210.97 487.662 1223.48 498.367 1230.07 C 508.29 1236.18 515.531 1244.7 507.762 1255.42 L 505.699 1255.6 C 492.038 1250.7 478.759 1244.61 466.404 1236.99 C 455.61 1230.34 441.058 1220.63 458.875 1211.14 z" fill="rgb(247,139,151)" transform="translate(0,0)"></path>
<path d="M 202.04 1352.22 C 205.992 1358.12 209.391 1372.27 211.972 1379.6 C 216.467 1392.35 222.745 1406.3 230.697 1417.25 C 217.834 1421.48 209.585 1417.2 203.217 1404.61 C 197.027 1392.38 189.406 1372.31 192.181 1358.5 C 192.881 1355.01 199.123 1353.22 202.04 1352.22 z" fill="rgb(247,139,151)" transform="translate(0,0)"></path>
<path d="M 1351.54 1313.71 C 1363.91 1302.34 1369.69 1307.6 1380.32 1318.97 C 1390.81 1330.19 1417.93 1345.18 1398.02 1357.81 C 1389.62 1351.48 1359.01 1321.74 1351.54 1313.71 z" fill="rgb(247,139,151)" transform="translate(0,0)"></path>
<path d="M 512.286 1024.24 C 540.08 1022.7 550.944 1038.3 523.473 1051.72 C 505.715 1050.28 476.546 1031.67 512.286 1024.24 z" fill="rgb(247,139,151)" transform="translate(0,0)"></path>
<path d="M 1446.17 1388.77 C 1459.21 1388.52 1477.91 1402.12 1486.95 1411.34 C 1493.24 1417.76 1491.38 1422.39 1485.52 1428.12 C 1474 1423.62 1450.68 1406.12 1440.27 1398.09 C 1442.3 1394.13 1443.55 1392.44 1446.17 1388.77 z" fill="rgb(247,139,151)" transform="translate(0,0)"></path>
<path d="M 1281.34 1223.28 C 1293.74 1229.1 1317.72 1250.27 1324.37 1262.88 C 1326.98 1267.81 1321.21 1273.69 1318.15 1277.25 C 1304.58 1263.35 1278.63 1244.46 1281.34 1223.28 z" fill="rgb(247,139,151)" transform="translate(0,0)"></path>
<path d="M 601.799 1257.69 C 619.254 1258.06 636.741 1254.25 653.511 1255.5 C 654.6 1255.58 656.602 1257.24 657.508 1257.99 C 650.072 1267.09 580.923 1270.79 568.326 1267.72 L 567.484 1266.31 C 569.934 1253.95 591.697 1257.7 601.799 1257.69 z" fill="rgb(247,139,151)" transform="translate(0,0)"></path>
<path d="M 1538.75 1449.32 C 1551.46 1448.35 1564.12 1451.66 1574.73 1458.72 C 1578.86 1461.52 1588.38 1468.73 1584.03 1474.26 L 1580.19 1473.78 C 1570.97 1471.53 1534.92 1462.56 1532.02 1453.91 C 1534.24 1450.57 1534.42 1451.32 1538.75 1449.32 z" fill="rgb(247,139,151)" transform="translate(0,0)"></path>
<path d="M 1682.92 676.441 C 1684.79 677.647 1685.53 679.87 1685.17 682.002 C 1677.69 685.424 1665.46 688.326 1657.3 690.968 C 1640.29 696.471 1622.2 701.934 1605.8 709.013 L 1603.81 707.677 C 1602.97 704.928 1603.06 705.988 1603.61 703.125 C 1612.01 695.921 1669.8 679.925 1682.92 676.441 z" fill="rgb(137,212,234)" transform="translate(0,0)"></path>
<path d="M 197.178 1251.31 C 199.784 1251.84 199.619 1251.79 201.844 1253.26 C 202.663 1256.88 199.204 1294 198.669 1300.54 C 196.746 1303.38 197.199 1302.5 192.969 1303.76 C 188.739 1300.43 186.98 1298.36 186.927 1292.62 C 186.824 1281.54 189.784 1259.42 197.178 1251.31 z" fill="rgb(247,139,151)" transform="translate(0,0)"></path>
<path d="M 1659.21 1467.39 C 1665.19 1467.12 1680.64 1467.39 1683.29 1473.48 C 1679.93 1477.75 1665.97 1478.15 1660.24 1478.76 C 1649.1 1480.04 1640.92 1480.02 1629.83 1479.96 C 1639.89 1470.72 1646.16 1468.98 1659.21 1467.39 z" fill="rgb(247,139,151)" transform="translate(0,0)"></path>
<path d="M 1789.51 1432.17 L 1791.81 1432.27 C 1789.28 1436.3 1764.92 1448.21 1759.32 1450.67 L 1757.57 1450.84 L 1755.98 1449.45 L 1755.85 1447.4 C 1761.19 1439.53 1780.42 1434.06 1789.51 1432.17 z" fill="rgb(247,139,151)" transform="translate(0,0)"></path>
<path d="M 1666.2 661.083 L 1667.65 661.33 L 1668.24 662.576 C 1663.85 665.691 1625.09 676.703 1618.38 678.574 C 1617.18 678.677 1617.87 678.757 1616.4 677.883 C 1618.73 675.142 1659.19 663.23 1666.2 661.083 z" fill="rgb(137,212,234)" transform="translate(0,0)"></path>
<path d="M 1666.65 672.312 L 1667.72 672.462 L 1667.77 673.088 C 1655.55 678.119 1632.55 684.773 1619.2 689.204 L 1618.24 689.443 L 1617.39 688.788 C 1620.68 684.964 1659.32 674.564 1666.65 672.312 z" fill="rgb(76,159,190)" transform="translate(0,0)"></path>
<path d="M 1565.07 875.131 C 1569.43 875.171 1570.24 874.86 1573.73 877.091 C 1575.49 881.041 1575.11 879.01 1574.75 883.45 C 1571.41 883.738 1569.74 884.115 1566.47 883.239 C 1564.22 879.997 1565.05 880.021 1565.07 875.131 z" fill="rgb(255,255,255)" transform="translate(0,0)"></path>
<path d="M 602.181 986.172 C 605.239 986.032 612.337 984.959 614.315 987.228 L 611.931 989.794 C 609.529 991.546 608.586 992.641 605.637 992.704 C 602.888 990.311 603.556 990.214 602.181 986.172 z" fill="rgb(247,139,151)" transform="translate(0,0)"></path>
<path d="M 824.799 1428.17 C 849.71 1424.22 880.848 1445.11 887.631 1469.65 C 892.518 1487.33 868.974 1495.58 856.564 1502.18 C 831.301 1515.59 812.772 1535.46 797.401 1559.44 C 797.639 1563.97 797.807 1568.5 797.904 1573.02 C 798.147 1593.13 791.011 1613.69 776.697 1627.98 C 756.322 1648.31 732.081 1651.92 704.86 1652.09 C 701.432 1669.27 696.264 1683.26 684.807 1696.84 C 667.17 1717.76 644.349 1716.46 619.207 1718.27 C 611.628 1730.24 605.013 1745.62 596.103 1756.41 C 546.186 1816.84 446.743 1858.22 373.62 1817.6 C 343.675 1798.96 332.524 1768.86 345.036 1735.7 C 348.674 1758.99 364.5 1795.82 396.87 1783.5 C 407.637 1779.4 427.13 1761.89 436.597 1753.86 C 453.709 1739.47 470.444 1724.64 486.787 1709.38 C 507.488 1690 545.834 1653.58 570.037 1639.1 L 571.27 1638.37 C 575.416 1625.72 579.633 1614.6 589.945 1605.57 C 606.322 1591.22 630.79 1586.44 651.858 1587.11 C 651.935 1586.36 652.017 1585.6 652.105 1584.85 C 657.938 1535.25 693.337 1499.88 744.981 1506.13 C 766.484 1495.08 799.442 1474.27 813.029 1453.89 C 818.302 1445.98 816.287 1437.56 824.799 1428.17 z" fill="rgb(59,62,115)" transform="translate(0,0)"></path>
<path d="M 717.039 1526.24 C 761.286 1521.61 791.56 1559.7 771.18 1601.55 C 762.99 1618.37 747.779 1625.4 730.575 1630.25 C 725.604 1631.06 720.578 1631.13 715.438 1631.33 C 659.626 1633.59 654.278 1562.75 691.78 1536.14 C 699.991 1530.32 707.207 1528.27 717.039 1526.24 z" fill="rgb(137,212,234)" transform="translate(0,0)"></path>
<path d="M 721.785 1552.21 C 728.65 1551.9 733.345 1552.37 739.601 1555.64 C 746.581 1559.25 751.767 1565.57 753.935 1573.12 C 759.491 1593.03 744.169 1606.83 726.024 1610.78 C 684.741 1612.08 681.16 1561.68 721.785 1552.21 z" fill="rgb(59,62,115)" transform="translate(0,0)"></path>
<path d="M 725.142 1562.11 C 750.265 1563.01 752.428 1592.56 725.896 1600.53 C 698.972 1598.41 695.55 1569.02 725.142 1562.11 z" fill="rgb(255,255,255)" transform="translate(0,0)"></path>
<path d="M 635.307 1603.31 C 641.482 1602.56 649.647 1603.1 655.806 1603.61 C 665.754 1625.17 669.945 1629.45 689.939 1643.3 C 685.261 1671.56 676.044 1692.92 645.194 1698.91 C 634.981 1699.83 630.811 1699.79 620.888 1697.27 C 619.587 1693.63 617.875 1687.56 616.189 1684.32 C 609.104 1670.71 595.108 1664.19 587.401 1650.97 C 591.767 1618.92 604.266 1608.38 635.307 1603.31 z" fill="rgb(137,212,234)" transform="translate(0,0)"></path>
<path d="M 638.862 1616.94 C 655.98 1616.24 670.422 1629.55 671.119 1646.67 C 671.817 1663.79 658.504 1678.23 641.386 1678.93 C 624.269 1679.63 609.828 1666.31 609.13 1649.2 C 608.433 1632.08 621.744 1617.64 638.862 1616.94 z" fill="rgb(59,62,115)" transform="translate(0,0)"></path>
<path d="M 636.065 1630.19 C 645.773 1629.5 654.668 1630.08 659.259 1640.27 C 661.145 1644.57 661.233 1649.45 659.503 1653.81 C 656.822 1660.78 651.785 1664.24 645.291 1667.13 C 619.1 1671.24 611.152 1640.79 636.065 1630.19 z" fill="rgb(255,255,255)" transform="translate(0,0)"></path>
<path d="M 566.477 1660.74 C 575.211 1661.4 600.539 1691.3 606.317 1699.12 C 604.032 1706.14 598.785 1714.06 594.837 1720.38 C 576.319 1750.03 547.92 1777.8 516.001 1792.66 C 486.991 1806.17 450.07 1815.39 417.958 1810.62 C 406.076 1808.68 393.915 1804.39 382.532 1800.39 C 387.637 1800.31 400.612 1797.8 403.694 1798.4 C 456.709 1808.65 499.865 1795.17 543.291 1758.29 C 559.397 1743.81 575.791 1729.34 581.337 1707.85 C 579.71 1702.09 577.855 1697.49 573.272 1693.43 C 568.099 1688.85 561.385 1686.99 554.692 1689.14 C 544.631 1692.37 481.542 1751.41 468.372 1762.77 C 460.719 1769.37 452.483 1777.63 443.266 1781.92 C 435.862 1785.36 426.99 1785.28 418.962 1785.85 C 425.321 1779.89 434.312 1773.2 441.299 1767.45 C 452.556 1758.04 463.693 1748.5 474.706 1738.81 C 506.768 1710.88 531.694 1686.47 566.477 1660.74 z" fill="rgb(255,255,255)" transform="translate(0,0)"></path>
<path d="M 830.476 1458.45 C 831.277 1454.42 832.007 1448.5 834.176 1445.27 C 844.283 1441.8 872.574 1464.19 868.21 1476.86 C 864.066 1480.56 856.35 1482.52 850.763 1484.33 C 825.146 1497.14 805.558 1520.76 787.518 1542.43 C 777.853 1529.03 774.23 1525.26 759.914 1516.51 C 783.346 1501.1 815.299 1481.94 830.476 1458.45 z" fill="rgb(247,139,151)" transform="translate(0,0)"></path>
<path d="M 830.476 1458.45 C 831.277 1454.42 832.007 1448.5 834.176 1445.27 C 844.283 1441.8 872.574 1464.19 868.21 1476.86 C 864.066 1480.56 856.35 1482.52 850.763 1484.33 C 844.404 1474.92 837.253 1467.5 830.476 1458.45 z" fill="rgb(255,255,255)" transform="translate(0,0)"></path>
<path d="M 1672.47 391.413 C 1674.85 383.466 1675.98 376.377 1681.87 370.73 C 1688.04 369.703 1694.52 371.124 1700.58 372.263 C 1724.44 376.75 1726.86 379.216 1720.67 402.955 C 1729.97 408.317 1732.31 409.975 1738.96 418.21 C 1747.14 414.68 1750.03 410.088 1759.07 410.074 C 1766.68 413.37 1779.52 435.415 1778.91 443.842 C 1776.08 448.819 1768.48 454.44 1763.72 458.456 C 1764.88 466.94 1765.93 474.147 1767.65 482.515 C 1773.4 483.617 1786.11 484.678 1788.86 489.41 C 1788.61 497.196 1783.38 521.419 1780.05 528.063 C 1774.99 531.167 1765.36 528.759 1759.2 527.876 C 1755.73 534.936 1751.66 541.14 1748.07 548.834 C 1757.17 560.44 1756.26 561.131 1745.16 569.743 C 1741.34 572.289 1731.63 571.936 1727.63 569.971 C 1713.34 573.103 1728.57 584.082 1721.69 593.663 C 1715.61 602.126 1700.06 602.733 1690.63 604.031 C 1687.82 599.65 1684.32 592.058 1681.88 587.138 C 1673.88 586.04 1662.24 585.675 1653.63 584.889 C 1645.73 602.056 1644.98 601.922 1627 593.784 C 1609.71 585.958 1613.36 582.785 1615.59 566.867 C 1608.77 561.514 1605.03 558.702 1599.27 552.366 C 1591.47 554.637 1587.82 555.478 1579.85 556.425 C 1575.35 549.75 1562.21 524.581 1564.71 516.832 C 1568.36 512.891 1574.66 510.304 1579.65 507.783 C 1578.14 499.363 1576.84 490.909 1575.74 482.427 C 1572.81 481.409 1569.38 480.154 1566.72 478.625 C 1552.06 470.207 1561.8 447.928 1568.21 437.705 C 1572.41 435.43 1583.15 439.42 1587.99 440.824 C 1594.88 432.28 1596.65 429.019 1604.8 420.684 C 1596.63 408.209 1591.08 403.134 1605.97 392.941 C 1617.06 385.345 1625.02 380.579 1638.09 377.438 C 1641.55 385.085 1642.12 387.795 1643.99 395.888 C 1654.44 393.009 1661.7 391.918 1672.47 391.413 z" fill="rgb(137,212,234)" transform="translate(0,0)"></path>
<path d="M 1672.47 391.413 C 1674.85 383.466 1675.98 376.377 1681.87 370.73 C 1688.04 369.703 1694.52 371.124 1700.58 372.263 C 1724.44 376.75 1726.86 379.216 1720.67 402.955 C 1729.97 408.317 1732.31 409.975 1738.96 418.21 C 1747.14 414.68 1750.03 410.088 1759.07 410.074 C 1766.68 413.37 1779.52 435.415 1778.91 443.842 C 1776.08 448.819 1768.48 454.44 1763.72 458.456 C 1764.88 466.94 1765.93 474.147 1767.65 482.515 C 1773.4 483.617 1786.11 484.678 1788.86 489.41 C 1788.61 497.196 1783.38 521.419 1780.05 528.063 C 1774.99 531.167 1765.36 528.759 1759.2 527.876 C 1755.73 534.936 1751.66 541.14 1748.07 548.834 C 1757.17 560.44 1756.26 561.131 1745.16 569.743 C 1744.16 565.153 1743.8 567.149 1745.37 563.442 L 1750.18 559.993 L 1743.62 549.128 C 1747.61 539.286 1752.35 532.017 1756.37 521.543 C 1764.2 523.472 1769.66 524.697 1777.8 525.134 C 1779.52 515.476 1782.59 499.824 1783.5 490.385 C 1777.62 489.055 1767.1 485.542 1762.62 488.117 C 1760.68 486.192 1760.72 482.355 1760.86 479.644 C 1761.4 468.702 1760.08 467.122 1756.79 457.527 L 1756.36 456.311 C 1762.97 449.088 1771.21 450.583 1773.89 441.982 C 1772.09 435.154 1764.01 420.997 1758.89 416.216 C 1751.67 415.691 1745.13 421.178 1738.83 425.208 C 1729.56 415.056 1727.37 412.058 1713.85 407.681 C 1721.2 376.005 1713.87 378.902 1684.54 375.35 C 1679.7 383.193 1678.8 389.227 1676.97 398.101 C 1662.06 398.082 1654.91 398.777 1640.53 402.83 C 1639.57 398.175 1638.12 387.786 1635.01 384.928 C 1626.43 383.203 1607.8 398.87 1601.21 404.186 C 1604.74 410.475 1608.23 415.54 1611.75 421.49 C 1600.69 432.275 1599.14 434.033 1592.19 447.72 C 1583.84 444.863 1570.39 438.5 1567.07 452.283 C 1565.72 457.88 1564.98 466.394 1564.8 472.205 C 1571.86 474.918 1574.29 475.464 1581.72 476.91 C 1581.94 491.446 1583.41 498.231 1586.72 512.528 C 1579.66 514.817 1566.16 517.627 1571.15 528.727 C 1574.64 536.492 1579.14 544.554 1583.25 552.061 C 1589.76 550.183 1596.61 548.452 1602.75 545.678 C 1616.89 567.812 1624.11 556.247 1618.49 583.53 C 1626.97 587.848 1634 591.369 1642.8 595.099 C 1651.28 580.235 1652.83 578.196 1670.68 580.643 C 1675.02 581.238 1681.97 581.201 1686.5 581.285 C 1687.64 586.422 1688.56 592.693 1693.36 595.813 C 1701.03 600.801 1714.37 596.577 1718.65 588.846 C 1720.33 580.024 1711.08 573.923 1719.88 567.898 C 1722.26 566.27 1723.75 565.836 1726.51 566.109 L 1727.74 567.376 L 1727.63 569.971 C 1713.34 573.103 1728.57 584.082 1721.69 593.663 C 1715.61 602.126 1700.06 602.733 1690.63 604.031 C 1687.82 599.65 1684.32 592.058 1681.88 587.138 C 1673.88 586.04 1662.24 585.675 1653.63 584.889 C 1645.73 602.056 1644.98 601.922 1627 593.784 C 1609.71 585.958 1613.36 582.785 1615.59 566.867 C 1608.77 561.514 1605.03 558.702 1599.27 552.366 C 1591.47 554.637 1587.82 555.478 1579.85 556.425 C 1575.35 549.75 1562.21 524.581 1564.71 516.832 C 1568.36 512.891 1574.66 510.304 1579.65 507.783 C 1578.14 499.363 1576.84 490.909 1575.74 482.427 C 1572.81 481.409 1569.38 480.154 1566.72 478.625 C 1552.06 470.207 1561.8 447.928 1568.21 437.705 C 1572.41 435.43 1583.15 439.42 1587.99 440.824 C 1594.88 432.28 1596.65 429.019 1604.8 420.684 C 1596.63 408.209 1591.08 403.134 1605.97 392.941 C 1617.06 385.345 1625.02 380.579 1638.09 377.438 C 1641.55 385.085 1642.12 387.795 1643.99 395.888 C 1654.44 393.009 1661.7 391.918 1672.47 391.413 z" fill="rgb(59,62,115)" transform="translate(0,0)"></path>
<path d="M 1663.96 438.069 C 1692.61 432.727 1720.13 451.73 1725.29 480.416 C 1730.45 509.102 1711.27 536.504 1682.56 541.479 C 1654.1 546.41 1626.99 527.441 1621.88 499.013 C 1616.77 470.586 1635.56 443.362 1663.96 438.069 z" fill="rgb(59,62,115)" transform="translate(0,0)"></path>
<path d="M 1669.15 443.252 C 1694.61 440.84 1717.28 459.294 1720.1 484.704 C 1722.91 510.113 1704.82 533.081 1679.46 536.294 C 1662.69 538.419 1646.08 531.341 1636 517.777 C 1625.92 504.213 1623.93 486.268 1630.8 470.827 C 1637.67 455.386 1652.33 444.847 1669.15 443.252 z" fill="rgb(255,255,255)" transform="translate(0,0)"></path>
<path d="M 1483.58 299.18 C 1489.86 298.599 1493.4 297.448 1498.45 300.78 C 1508.94 329.234 1520.42 293.447 1533.25 311.152 C 1537.77 317.384 1531.17 322.208 1535.32 333.797 L 1535.9 335.4 C 1555.38 329.542 1557.54 340.753 1549.06 355.241 C 1545.69 360.999 1567.07 377.511 1535.47 382.188 C 1533.53 384.634 1531.75 387.421 1529.99 390.024 C 1540.64 408.833 1527.92 409.859 1511.82 414.751 C 1509.95 410.863 1510.03 409.286 1507.46 405.395 C 1503.95 404.377 1504.54 404.982 1500.23 406.638 C 1496.05 408.422 1495.81 406.808 1492.19 407.886 C 1489.34 413.492 1493.27 417.68 1487.81 421.967 C 1481.04 422.439 1476.09 419.398 1470.09 416.405 L 1470.01 405.432 L 1458.99 397.949 C 1449.21 404.27 1440.45 401.347 1438.6 388.538 C 1437.99 384.3 1441.72 381.142 1444.72 378.313 C 1442.25 360.689 1438.03 371.86 1432.56 358.949 C 1431.15 355.631 1431.17 347.485 1433.54 343.812 C 1437.09 341.122 1442.7 342.865 1444.01 342.014 C 1453.78 335.694 1439.9 316.136 1458.83 311.721 C 1467.99 309.584 1467.2 320.129 1477.76 311.038 C 1478.61 303.846 1477.94 303.249 1483.58 299.18 z" fill="rgb(59,62,115)" transform="translate(0,0)"></path>
<path d="M 1465.27 324.674 C 1470.74 319.354 1476.13 318.17 1480.69 314.739 C 1484.2 312.096 1478.7 300.936 1491.85 301.388 C 1498.08 301.603 1496.28 307.938 1497.79 311.234 C 1499.27 314.442 1512.41 317.677 1515.9 318.85 C 1519.68 314.711 1519.79 310.592 1526.14 309.777 C 1529.61 310.656 1531.8 312.851 1532.84 316.275 C 1526.88 328.218 1526.65 330.094 1535.72 342.096 C 1538.42 339.422 1539.04 338.394 1542.72 337.328 C 1552.87 338.931 1553.41 353.258 1537.87 353.12 C 1538.34 355.508 1538.58 356.183 1539.31 358.499 C 1541.56 359.588 1543.11 360.395 1545.27 361.657 C 1547.73 366.176 1549.48 372.332 1545.47 376.307 C 1542.31 377.226 1541.03 376.507 1537.86 375.578 L 1536.7 375.225 C 1532.91 379.207 1528.84 386.232 1525.76 391.11 C 1527.33 394.944 1528.82 398.99 1530.32 402.869 C 1525.94 405.336 1519.89 407.86 1515.2 409.974 L 1509.35 399.879 C 1502.57 402.571 1497.19 403.597 1490.09 405.18 C 1489.11 408.156 1488.08 411.116 1487 414.061 C 1484.35 416.638 1484.62 416.607 1481.03 417.32 C 1473.16 414.834 1473.14 409.803 1473.69 402.677 C 1467.81 400.165 1464.29 396.878 1459.34 392.853 C 1455.5 392.88 1458.67 395.488 1452.63 398.537 C 1446.81 397.765 1444.41 393.358 1440.84 388.771 C 1443.35 384.739 1444.45 382.324 1448.27 379.398 C 1447.58 376.557 1445.42 364.328 1444.13 363.142 C 1441.1 360.367 1435.08 359.994 1433.92 352.787 C 1435.2 346.081 1439.98 345.731 1445.13 346.103 C 1450.25 346.471 1452.97 335.484 1457.05 330.62 C 1452.98 329.77 1453.07 329.64 1451.19 326.978 C 1450.55 321.07 1454.4 318.083 1459.55 316.499 C 1463.43 317.118 1461.76 316.322 1464.69 319.094 C 1464.62 321.389 1464.55 322.494 1465.27 324.674 z" fill="rgb(137,212,234)" transform="translate(0,0)"></path>
<path d="M 1844.8 503.983 C 1849.25 504.185 1848.75 504.912 1851.5 502.849 C 1852.85 495.034 1852.93 494.014 1863.04 494.934 C 1865.77 495.183 1867.74 500.497 1868.86 502.916 L 1870.5 503.354 C 1873.46 501.315 1874.73 499.931 1877.24 497.446 C 1882.12 500.221 1892.01 505.297 1891.89 511.552 C 1887.43 517.015 1883.83 513.602 1883.38 517.595 C 1885.84 520.398 1887.8 520.283 1891.53 520.96 C 1894.28 524.017 1892.5 527.01 1891.36 530.759 L 1892.41 532.582 C 1898.04 532.434 1897.77 531.092 1901.96 533.125 C 1905.44 539.355 1903.23 547.953 1902.1 555.259 C 1898.81 555.218 1892.74 554.741 1890.02 555.979 C 1889.93 556.375 1889.17 559.693 1888.91 560.183 C 1890.36 564.565 1891.18 568.857 1892.17 573.361 C 1885.8 580.16 1874.21 591.463 1864.42 589.456 C 1860.86 587.465 1859.85 584.307 1857.9 580.531 C 1854.75 580.629 1852.72 580.434 1849.83 581.703 C 1834 603.397 1826.25 584.955 1818.12 568.873 C 1816.05 569.14 1814.11 569.289 1812.02 569.46 C 1808.54 568.005 1807.54 567.899 1805.31 564.813 C 1803.71 557.847 1809.2 552.169 1812.76 545.09 C 1811.42 539.98 1798.19 538.545 1809.19 525.321 C 1811.33 522.747 1814.15 523.66 1817.11 523.976 L 1818.72 524.16 C 1821.67 522.687 1821.41 522.513 1823.03 519.533 C 1823.28 513.884 1817.5 515.121 1819.26 506.412 C 1824.18 499.696 1833.58 497.442 1840.59 502.889 C 1843.5 503.196 1843.07 502.605 1844.8 503.983 z" fill="rgb(137,212,234)" transform="translate(0,0)"></path>
<path d="M 1818.12 568.873 C 1816.05 569.14 1814.11 569.289 1812.02 569.46 C 1808.54 568.005 1807.54 567.899 1805.31 564.813 C 1803.71 557.847 1809.2 552.169 1812.76 545.09 C 1811.42 539.98 1798.19 538.545 1809.19 525.321 C 1811.33 522.747 1814.15 523.66 1817.11 523.976 L 1818.72 524.16 C 1821.67 522.687 1821.41 522.513 1823.03 519.533 C 1823.28 513.884 1817.5 515.121 1819.26 506.412 C 1824.18 499.696 1833.58 497.442 1840.59 502.889 C 1840.48 506.541 1841.18 507.165 1839.27 508.986 C 1836.49 506.488 1834.18 503.497 1831.74 501.487 L 1821.8 509.282 L 1828.11 514.823 C 1826 520.215 1824.91 525.258 1818.83 527.184 C 1810.2 529.918 1804.71 534.008 1815.51 539.773 C 1817.7 542.846 1818.61 546.776 1817.23 550.374 L 1815.76 551.173 C 1812.93 552.73 1810.56 553.777 1808.94 556.544 C 1808.91 560.187 1808.67 560.932 1810.5 564.149 C 1817.21 567.403 1819.29 561.775 1822.22 565.408 C 1822.76 569.377 1823.1 575.129 1825.11 578.323 L 1826.74 578.301 L 1830.44 574.413 L 1832.33 574.374 C 1834.23 580.236 1823.35 582.03 1841.71 588.937 C 1845.01 574.968 1847.82 577.038 1861.3 576.582 L 1867.16 586.593 C 1870.68 584.64 1873.13 583.524 1876.1 580.86 C 1879.49 578.141 1885.22 574.812 1886.49 571.476 C 1885.65 568.056 1885.51 568.844 1882.42 565.956 C 1882.83 562.732 1883.44 561.164 1885.99 559.413 L 1888.91 560.183 C 1890.36 564.565 1891.18 568.857 1892.17 573.361 C 1885.8 580.16 1874.21 591.463 1864.42 589.456 C 1860.86 587.465 1859.85 584.307 1857.9 580.531 C 1854.75 580.629 1852.72 580.434 1849.83 581.703 C 1834 603.397 1826.25 584.955 1818.12 568.873 z" fill="rgb(59,62,115)" transform="translate(0,0)"></path>
<path d="M 1844.8 503.983 C 1849.25 504.185 1848.75 504.912 1851.5 502.849 C 1852.85 495.034 1852.93 494.014 1863.04 494.934 C 1865.77 495.183 1867.74 500.497 1868.86 502.916 L 1870.5 503.354 C 1873.46 501.315 1874.73 499.931 1877.24 497.446 C 1882.12 500.221 1892.01 505.297 1891.89 511.552 C 1887.43 517.015 1883.83 513.602 1883.38 517.595 C 1885.84 520.398 1887.8 520.283 1891.53 520.96 C 1894.28 524.017 1892.5 527.01 1891.36 530.759 L 1892.41 532.582 C 1898.04 532.434 1897.77 531.092 1901.96 533.125 C 1905.44 539.355 1903.23 547.953 1902.1 555.259 C 1898.81 555.218 1892.74 554.741 1890.02 555.979 C 1887.6 554.504 1887.34 553.365 1886.12 550.919 L 1885.96 551.149 L 1886.99 549.984 C 1889.08 549.278 1896.44 550.381 1899.16 550.656 C 1900.66 547.715 1900.56 538.842 1900.72 535.041 C 1897.1 535.988 1894.3 537.148 1890.71 536.414 C 1888.49 533.137 1889.15 530.377 1888.96 525.882 C 1885.85 523.038 1881.34 519.634 1880.42 515.872 C 1881.1 515.347 1881.79 514.818 1882.46 514.284 C 1885.81 511.645 1887.28 510.988 1887.7 507.285 C 1879.67 495.504 1872.19 505.807 1867.08 512.329 C 1866.26 506.102 1866.25 494.144 1856.19 497.802 C 1854.1 500.885 1856.05 503.444 1854.75 508.28 C 1851.44 509.181 1846.82 508.291 1844.36 505.821 L 1844.8 503.983 z" fill="rgb(14,27,52)" transform="translate(0,0)"></path>
<path d="M 1768.08 585.358 C 1772.94 584.872 1774.13 584.546 1778.81 585.41 C 1783.99 588.957 1783.37 598.032 1789.81 600.02 C 1793.91 598.348 1795.8 597.122 1800.07 597.406 C 1804.28 599.639 1806.4 604.56 1804.66 608.963 C 1801.47 617.063 1808.33 619.516 1808.06 626.796 C 1807.76 634.77 1801.39 631.27 1797.25 635.002 C 1796.23 641.526 1803 640.34 1798.96 648.195 C 1794.48 650.627 1796.54 648.977 1791.09 649.163 C 1782.89 649.443 1787.87 653.432 1781.65 659.218 C 1777.13 660.752 1773.28 659.978 1768.44 659.604 C 1764.19 656.406 1764.41 655.326 1760.48 655.648 C 1758.79 657.459 1758.03 658.643 1756.79 660.803 C 1744.91 660.354 1743.17 644.071 1740.93 636.024 C 1742.06 640.086 1721.05 624.591 1735.63 616.915 C 1743.67 612.683 1739.62 606.417 1739.01 599.57 C 1746.53 581.515 1754.54 597.164 1765.49 594.228 C 1769.4 589.714 1764.73 591.35 1768.08 585.358 z" fill="rgb(6,17,28)" transform="translate(0,0)"></path>
<path d="M 1771.52 588.13 C 1775.11 587.669 1777.58 586.703 1779.67 590.037 C 1779.12 592.412 1778.91 593.437 1778.67 595.853 C 1782.97 598.054 1785.57 602.068 1789.43 602.844 C 1795.3 600.744 1804.24 598.354 1802.67 608.628 C 1799.24 612.125 1796.62 610.506 1794.16 612.979 L 1795.52 614.618 C 1796.57 614.793 1800.45 615.402 1801.15 615.888 C 1815.94 626.127 1797.11 629.443 1794.26 634.394 C 1794.89 637.872 1795.74 639.86 1796.95 643.127 C 1795.56 650.559 1790.02 644.043 1785.36 647.135 C 1782.5 649.032 1783.23 653.008 1779.16 656.22 C 1774.45 657.333 1771.22 655.228 1766.97 653.059 C 1764.38 651.253 1764.28 651.028 1761.35 650.017 C 1757.9 651.831 1758.4 652.413 1755.95 656.291 L 1754.02 656.66 C 1742.63 649.229 1745.88 639.143 1741.78 632.374 C 1733.25 631.782 1732.06 625.073 1736.36 619.467 C 1739.13 618.113 1741.13 617.568 1742.62 614.942 C 1742.42 612.055 1742 610.188 1743.08 607.511 C 1745.29 607.538 1745.14 607.558 1747.11 606.557 C 1747.91 601.706 1743.84 605.056 1742.52 599.062 C 1752.45 583.876 1756.15 600.329 1757.96 601.51 C 1762.42 599.067 1766.97 595.861 1771.09 592.845 L 1771.52 588.13 z" fill="rgb(137,212,234)" transform="translate(0,0)"></path>
<path d="M 1768.42 605.061 C 1789.29 606.59 1793.04 631.58 1769.38 638.86 C 1766.37 638.964 1762.66 638.754 1759.83 637.631 C 1756.42 636.278 1753.75 633.518 1752.52 630.059 C 1748.39 618.474 1757.63 608.267 1768.42 605.061 z" fill="rgb(14,27,52)" transform="translate(0,0)"></path>
<path d="M 1766.02 608.05 C 1783.65 606.825 1789.72 624.284 1772.21 634.158 C 1749.15 635.574 1750.84 617.471 1766.02 608.05 z" fill="rgb(137,212,234)" transform="translate(0,0)"></path>
<metadata><recraft-signature>{"signed_by": "recraft", "signature_b64": "cGssMg3GnrPoGhYCfPpgR9kHMQHdksZS86zOMZ7nVHAVNuWK1l97D7qWGsGExw2/fySnOrjmNe+Mv7Vy4yiSBQ==", "signing_algo": "Ed25519", "generation_timestamp": 1771192645, "identifier": "03f88a06-940c-41c9-a907-38569bd8f4c3"}</recraft-signature></metadata></svg>