<svg xmlns="http://www.w3.org/2000/svg" height="1024" preserveAspectRatio="none" style="display: block;" version="1.1" viewBox="0 0 2048 2048" width="1024">
<path d="M 0 0 L 2048 0 L 2048 2048 L 0 2048 L 0 0 z" fill="rgb(255,255,255)" transform="translate(0,0)"></path>
<path d="M 1262.73 91.4149 C 1291.02 86.7147 1354.15 97.3613 1380.35 111.199 C 1408.5 126.07 1396.51 124.611 1432.4 128.363 C 1444.51 129.611 1456.52 131.703 1468.34 134.625 C 1525.84 148.522 1583.56 186.182 1615.95 236.117 C 1650.3 289.076 1574.87 322.865 1543.65 351.721 C 1529.66 364.372 1514.29 379.78 1504.44 396.115 C 1464.41 462.478 1457.41 542.892 1431.77 615.024 C 1427.35 627.461 1422.86 641.768 1419.74 654.356 C 1460.38 643.436 1488.94 637.168 1531.86 635.176 C 1589.73 632.963 1647.36 640.349 1704.35 628.219 C 1773.79 613.44 1828.88 537.87 1809.08 466.776 C 1802.7 443.8 1787.34 424.363 1766.45 412.857 C 1749.74 403.549 1725.28 398.45 1706.52 404.809 C 1653.05 422.367 1637.36 478.15 1629.67 527.947 C 1628.21 537.439 1629.42 572.514 1617.08 573.76 C 1602.25 574.96 1594.83 554.673 1591.41 543.113 C 1536.34 356.913 1737.15 219.115 1882.75 357.654 C 1929.03 401.682 1951.5 458.325 1951.55 522.711 C 1951.85 591.543 1924.24 657.555 1875.02 705.675 C 1789.17 791.18 1659.51 808.266 1543.82 807.934 C 1629.87 877.771 1690.82 971.384 1713.89 1080.52 C 1749.88 1058.44 1795.75 1037 1833.07 1015.26 C 1849.22 1005.85 1900.2 975.881 1914.34 971.223 C 1926.38 976.971 1939.73 981.09 1951.33 987.272 C 1941.67 1017.55 1877.45 1256.69 1872.14 1263.02 C 1867.43 1268.64 1842.13 1282.55 1833.82 1288.19 C 1842.85 1340.24 1824.99 1358.44 1781.73 1382.98 C 1742.96 1404.97 1719.48 1420.18 1674.37 1408.97 C 1660.27 1440.12 1629.1 1478.58 1604.63 1502.35 C 1495.12 1608.7 1347.04 1606.32 1270.86 1463.64 C 1271.17 1476.6 1273.63 1499.21 1274.71 1512.98 C 1278.16 1557.27 1279.59 1627.02 1309.83 1661.73 C 1351.24 1709.27 1437.25 1685.14 1494.54 1690.96 C 1552.94 1696.88 1600.15 1711.74 1639.52 1757.77 C 1672.38 1795.41 1687.35 1845.85 1682.62 1895.58 C 1681.44 1908 1673.12 1959.94 1650.11 1953.09 C 1638.24 1949.56 1634.27 1913.56 1629.45 1900.53 C 1625.53 1889.99 1620.22 1880.03 1613.66 1870.9 C 1567.02 1806.79 1467.88 1834.83 1401.44 1842.89 C 1324.38 1852.25 1255.7 1845.48 1195.15 1791.81 C 1137.56 1740.77 1113.77 1663.76 1106.06 1589.24 C 1097.97 1511.11 1106.37 1444.29 1057.46 1376.64 C 1031.78 1386.75 1008.08 1407.44 992.591 1430.05 C 968.675 1464.97 954.896 1506.75 937.794 1545.32 C 892.28 1647.95 827.615 1780.59 740.437 1853.35 C 664.672 1916.58 566.66 1953.68 467.257 1944.66 C 390.164 1937.67 324.81 1901.47 275.691 1842 C 269.707 1834.76 256.825 1820.11 258.538 1810.04 C 258.988 1807.4 260.53 1806.28 262.528 1804.78 C 269.861 1803.81 275.537 1808.82 282.109 1812.94 C 365.99 1858.63 470.477 1875.01 557.348 1831.41 C 666.07 1776.85 718.542 1661.6 763.792 1555.6 C 771.668 1537.15 778.539 1517.13 785.455 1498.21 C 733.692 1526.35 689.061 1531.33 634.504 1521.77 C 630.096 1521 602.06 1525.04 595.158 1525.57 C 593.569 1540.09 590.415 1552.74 586.872 1566.78 C 596.959 1572.26 613.163 1582.84 620.921 1590.71 C 614.651 1606.13 587.326 1663.05 573.474 1674.52 C 568.664 1678.5 536.336 1665.36 527.788 1662.07 C 522.689 1669.52 516.44 1672.96 510.788 1680.2 C 515.355 1690.25 527.204 1707.04 524.394 1716.82 C 517.058 1724.2 447.112 1763.79 438.221 1764.94 C 432.788 1761.09 422.901 1738.94 418.703 1730.92 C 405.341 1735.07 391.851 1738.36 378.291 1741.81 C 379.008 1748.57 375.882 1772.01 370.72 1776.97 C 360.454 1779.41 282.869 1766.76 273.307 1761.31 C 269.679 1755.77 271.145 1733.18 270.157 1723.85 L 269.989 1722.33 C 259.763 1719.2 253.264 1715.7 243.841 1710.7 C 238.148 1716.18 220.109 1736.52 216.156 1736.33 C 204.159 1735.75 146.695 1687.41 143.638 1677.76 C 145.064 1669.5 157.438 1655.24 162.926 1646.61 C 150.376 1631.69 145.049 1622.03 136.136 1605.12 C 128.607 1607.08 113.191 1611.97 106.257 1610.39 C 97.4637 1603.1 89.5857 1566.23 86.5519 1553.57 C 76.6954 1512.41 76.9484 1515.37 114.848 1506.69 C 115.236 1490.66 116.989 1472.94 120.69 1457.4 C 112.964 1453.6 86.5871 1439.91 87.4311 1435.88 C 91.7 1415.49 115.803 1363.31 131.443 1347.66 C 133.452 1345.65 160.105 1358.35 163.758 1360.02 C 172.744 1351.3 185.441 1340.9 195.156 1332.75 L 194.46 1331.86 C 188.504 1324.1 174.251 1303.73 175.541 1294.34 C 181.82 1285.42 251.959 1252.46 266.5 1250.31 C 271.757 1249.54 280.88 1277.05 282.631 1281.61 C 295.393 1278.95 308.882 1277.46 321.843 1275.77 C 324.782 1262.43 326.896 1250.68 332.349 1238.07 C 347.007 1237.26 431.818 1253.94 440.887 1260.21 C 444.17 1267.1 440.018 1286.86 438.723 1295.41 C 448.73 1298.19 455.074 1301.01 464.574 1305.26 C 470.45 1297.66 472.454 1295.61 479.528 1288.86 C 482.533 1269.63 486.168 1262.04 492.848 1244.42 C 500.666 1222.31 526.847 1187.06 517.881 1162.9 C 494.529 1099.95 423.793 1120.28 388.376 1159.4 C 378.154 1170.69 349.771 1204.36 337.059 1205.24 C 291.347 1208.42 338.722 1130.64 349.173 1117.29 C 376.231 1079.98 411.979 1053.92 457 1046.97 C 539.866 1034.16 606.839 1080.68 620.33 1163.64 C 659.474 1165.75 713.776 1157.76 733.392 1117.98 C 742.304 1099.91 743.665 1065.83 741.419 1045.8 C 740.777 1040.07 732.676 1019.51 730.335 1012.98 C 614.719 1014.31 504.032 964.902 431.209 873.426 C 399.888 834.081 385.5 801.121 370.951 753.427 C 368.981 759.712 363.447 781.316 357.106 780.804 C 334.192 778.953 296.556 758.804 278.556 746.854 C 282.035 733.339 283.776 730.677 290.723 718.179 C 273.35 708.521 268.761 705.3 254.732 691.163 C 248.884 693.789 229.997 702.627 225.794 700.942 C 214.068 696.242 190.151 637.418 191.768 627.768 C 197.087 620.267 213.303 614.55 221.838 611.137 C 220.01 600.453 219.92 586.487 219.906 575.554 C 211.828 573.347 188.064 568.417 187.915 563.634 C 187.428 547.93 204.822 500.681 217.034 489.634 C 219.465 487.435 241.725 496.456 245.176 497.748 C 252.075 487.973 253.519 486.082 263.147 479.425 C 259.566 474.081 242.532 451.213 248.392 446.74 C 268.476 431.41 303.557 413.518 327.309 406.176 C 341.041 401.931 346.581 429.526 360.908 439.204 C 373.017 419.44 375.243 391.641 405.397 402.997 C 423.949 409.983 457.774 413.962 471.821 428.563 C 477.382 434.343 469.814 449.118 467.637 454.67 C 464.085 464.647 475.133 470.803 481.466 481.605 C 491.069 475.889 512.011 466.806 520.026 476.314 C 534.118 493.031 543.312 516.724 551.471 536.749 C 558.998 555.224 542.599 565.119 528.501 568.793 C 531.504 579.904 534.184 591.099 536.538 602.364 C 552.401 604.698 571.485 607.882 568.936 628.38 C 565.397 656.846 557.802 688.441 535.253 707.962 C 537.07 713.083 539.721 718.057 542.3 722.768 C 597.282 823.195 695.24 757.876 761.234 709.335 C 777.894 697.082 794.761 686.013 810.541 672.548 C 787.411 651.913 777.427 644.492 756.33 618.974 C 701.467 553.027 660.49 476.031 668.964 387.15 C 676.253 310.705 734.649 231.203 819.052 237.782 C 831.585 238.759 873.667 251.161 870.786 267.119 C 867.243 271.782 835.879 279.539 825.898 284.646 C 798.272 299.068 777.458 323.815 767.986 353.505 C 753.181 399.466 771.958 447.532 805.929 479.787 C 832.032 504.573 868.171 523.031 902.561 533.987 C 913.775 494.171 925.435 462.576 945.037 425.572 C 941.82 398.848 954.402 366.139 964.169 341.899 C 960.338 335.889 952.385 323.946 950.47 317.44 C 938.287 276.064 1007.87 239.717 1036.67 230.686 C 1045.65 219.068 1054.37 207.297 1064.18 196.352 C 1115.88 138.634 1184.57 98.7398 1262.73 91.4149 z" fill="rgb(59,62,115)" transform="translate(0,0)"></path>
<path d="M 1053.21 239.754 C 1079.33 202.909 1130.12 160.575 1170.56 141.13 C 1241.36 107.087 1306.6 104.811 1380.38 130.183 C 1376.1 130.875 1371.8 131.465 1367.49 131.951 C 1330.09 142.796 1313 147.076 1281.41 174.671 C 1289.07 171.199 1296.65 167.551 1304.15 163.727 C 1360.26 138.605 1426 138.163 1482.49 160.913 C 1511.4 172.551 1558.91 196.786 1576.75 222.491 C 1584.45 228.704 1603.53 248.712 1604.29 259.469 C 1604.78 266.402 1592.42 279.827 1587.35 284.754 C 1560.72 310.613 1532 321.494 1505.93 349.867 C 1454.32 406.033 1438.78 490.184 1419.32 561.8 C 1409.65 597.419 1401.64 620.427 1389.39 654.915 C 1354.99 655.736 1315.45 663.135 1282.05 671.119 C 1169.08 698.123 1069.33 740.201 975.043 808.393 C 978.093 791.766 992.912 758.905 999.94 743.113 C 979.573 757.662 959.062 800.351 952.806 824.331 C 939.566 836.089 928.67 844.922 915.994 857.462 C 913.432 859.827 914.789 859.468 912.01 859.819 C 909.669 854.75 912.805 842.48 914.052 836.949 C 921.034 805.97 931.192 772.683 946.65 744.858 C 950.08 737.307 955.221 733.091 958.756 725.034 C 927.16 745.483 904.266 805.764 896.998 841.897 C 894.064 856.483 893.783 875.398 888.813 888.632 C 888.071 890.609 879.116 901.577 876.716 905.785 C 876.194 901.714 874.97 894.023 874.963 890.223 C 874.29 886.46 873.678 882.687 873.126 878.904 C 863.581 813.075 877.559 732.231 917.722 678.296 C 912.335 678.807 902.942 690.087 899.488 694.462 C 869.247 732.757 864.829 761.836 856.772 805.989 C 855.863 783.831 854.452 744.304 861.556 723.901 C 867.438 686.73 888.089 671.081 907.622 644.106 C 907.787 580.842 917.313 503.69 949.962 448.362 C 953.189 451.151 954.27 451.799 956.472 455.334 C 964.17 463.863 979.616 459.175 987.874 453.868 C 1012.16 438.262 1024.21 409.54 1030.21 382.385 C 1033.8 382.125 1040.15 382.046 1042.61 380.084 C 1039.57 377.102 1032.5 374.416 1028.23 371.593 C 1016.77 364.006 1007.32 357.737 996.875 348.733 C 987.261 342.051 972.467 327.193 968.129 316.253 C 955.671 284.835 1004.51 257.519 1027.33 249 C 1024.88 253.961 1022.35 258.887 1019.76 263.776 C 1017.34 271.027 1011.96 287.626 1013.11 294.76 L 1014.53 295.569 C 1018.03 291.946 1022.02 284.106 1024.94 279.717 C 1033.59 266.721 1042.37 251.014 1053.21 239.754 z" fill="rgb(247,139,151)" transform="translate(0,0)"></path>
<path d="M 949.962 448.362 C 953.189 451.151 954.27 451.799 956.472 455.334 C 937.474 489.831 922.55 555.243 921.075 595.324 C 920.463 611.963 921.886 632.892 920.478 648.813 C 918.937 651.085 909.75 662.326 908.049 663.463 C 898.098 670.114 868.771 722.427 861.556 723.901 C 867.438 686.73 888.089 671.081 907.622 644.106 C 907.787 580.842 917.313 503.69 949.962 448.362 z" fill="rgb(255,255,255)" transform="translate(0,0)"></path>
<path d="M 1053.21 239.754 C 1079.33 202.909 1130.12 160.575 1170.56 141.13 C 1241.36 107.087 1306.6 104.811 1380.38 130.183 C 1376.1 130.875 1371.8 131.465 1367.49 131.951 C 1347.62 128.902 1326.96 124.741 1307.76 123.879 C 1230.78 120.427 1157 149.055 1098.7 198.461 C 1091.05 204.948 1059.21 238.534 1053.21 239.754 z" fill="rgb(255,255,255)" transform="translate(0,0)"></path>
<path d="M 1304.15 163.727 C 1360.26 138.605 1426 138.163 1482.49 160.913 C 1511.4 172.551 1558.91 196.786 1576.75 222.491 C 1576.19 222.497 1529.53 193.466 1520.99 189.599 C 1465.65 164.538 1407.99 153.829 1347.35 157.133 C 1337.72 157.657 1310.39 165.794 1304.15 163.727 z" fill="rgb(255,255,255)" transform="translate(0,0)"></path>
<path d="M 917.722 678.296 C 920.531 676.13 921.603 674.845 925.12 674.506 L 926.478 675.661 C 926.79 687.136 908.141 715.117 902.873 728.927 C 896.543 745.52 890.79 757.154 886.246 775.733 C 880.078 800.946 878.9 823.524 877.517 849.119 C 877.127 856.329 878.056 884.415 876.793 888.569 L 874.963 890.223 C 874.29 886.46 873.678 882.687 873.126 878.904 C 863.581 813.075 877.559 732.231 917.722 678.296 z" fill="rgb(255,255,255)" transform="translate(0,0)"></path>
<path d="M 996.875 348.733 C 987.261 342.051 972.467 327.193 968.129 316.253 C 955.671 284.835 1004.51 257.519 1027.33 249 C 1024.88 253.961 1022.35 258.887 1019.76 263.776 C 1003.75 271.851 986.607 284.125 980.414 301.888 C 977.397 310.542 978.566 318.848 982.969 327.067 C 986.52 333.696 992.563 340.485 997.363 346.446 C 997.2 347.208 997.038 347.971 996.875 348.733 z" fill="rgb(255,255,255)" transform="translate(0,0)"></path>
<path d="M 946.65 744.858 C 946.868 751.412 936.716 773.488 934.686 781.257 C 930.435 797.532 916.208 843.077 915.994 857.462 C 913.432 859.827 914.789 859.468 912.01 859.819 C 909.669 854.75 912.805 842.48 914.052 836.949 C 921.034 805.97 931.192 772.683 946.65 744.858 z" fill="rgb(255,255,255)" transform="translate(0,0)"></path>
<path d="M 1085.7 398.537 C 1130.63 349.817 1248.03 258.375 1309.1 324.773 C 1285.5 313.711 1272.31 312.625 1246.06 314.39 C 1260.97 362.02 1261.46 389.11 1236.3 433.414 C 1266.09 436.78 1288.7 443.373 1301.73 472.766 C 1290.96 463.918 1285.14 458.808 1271.16 455.441 C 1265.76 458.284 1237.59 459.204 1228.59 461.296 C 1196.35 468.794 1165.96 480.057 1134.62 490.276 C 1130.37 491.66 1124.41 490.288 1120.87 487.456 C 1113.04 488.111 1108.04 488.774 1100.24 486.924 L 1099.64 485.711 C 1103.51 481.873 1110.02 480.299 1115.38 478.421 C 1093.32 463.976 1078.39 440.482 1079.59 413.385 C 1078.32 412.395 1077.06 411.388 1075.82 410.365 C 1048.59 387.896 1032.25 351.045 1058.18 319.622 C 1060.47 316.85 1062.73 315.272 1066.38 315.101 C 1067.18 321.514 1063.3 336.058 1063.8 346.36 C 1064.42 359.154 1072.56 374.408 1070.51 384.298 C 1074.96 390.435 1079.59 394.126 1085.7 398.537 z" fill="rgb(59,62,115)" transform="translate(0,0)"></path>
<path d="M 1120.87 487.456 C 1132.79 484.72 1145.03 479.075 1156.38 474.37 C 1194.27 458.656 1229.9 443.065 1271.16 455.441 C 1265.76 458.284 1237.59 459.204 1228.59 461.296 C 1196.35 468.794 1165.96 480.057 1134.62 490.276 C 1130.37 491.66 1124.41 490.288 1120.87 487.456 z" fill="rgb(255,255,255)" transform="translate(0,0)"></path>
<path d="M 1066.38 315.101 C 1067.18 321.514 1063.3 336.058 1063.8 346.36 C 1064.42 359.154 1072.56 374.408 1070.51 384.298 C 1063.95 377.065 1059.53 368.145 1057.75 358.539 C 1055.16 344.419 1057.96 326.902 1066.38 315.101 z" fill="rgb(255,255,255)" transform="translate(0,0)"></path>
<path d="M 1225.69 322.075 C 1230.01 327.223 1234.54 349.547 1235.27 356.59 C 1238.72 389.684 1231.15 412.06 1210.88 437.58 C 1173.19 446.617 1164.01 455.575 1131 471.158 C 1104.9 459.459 1097.09 438.854 1092.21 412.252 C 1094 410.682 1097.09 408.434 1099.06 406.908 C 1101.16 405.045 1101.62 404.294 1104.3 403.475 C 1107.95 408.808 1103.56 422.784 1114.07 436.868 C 1118.8 443.313 1126.01 447.495 1133.96 448.409 C 1144.26 449.654 1155.54 445.23 1163.24 438.581 C 1178.22 425.658 1180.67 409.197 1182.59 390.989 C 1180.53 391.941 1177.7 393.285 1175.51 393.693 C 1171.26 394.448 1166.88 393.355 1163.48 390.685 C 1160.7 388.46 1158.91 385.234 1158.49 381.702 C 1158.01 377.791 1159.1 373.85 1161.52 370.745 C 1166.84 363.941 1172.61 363.906 1180.7 362.66 C 1178.05 355.349 1177.96 354.524 1173.62 347.954 C 1191.48 335.885 1205.62 329.66 1225.69 322.075 z" fill="rgb(255,255,255)" transform="translate(0,0)"></path>
<path d="M 1125.62 389.834 C 1126.4 389.882 1127.18 389.956 1127.96 390.057 C 1141.35 391.679 1135.8 406.024 1127.23 411.9 C 1112.09 411.144 1116.61 396.589 1125.62 389.834 z" fill="rgb(255,255,255)" transform="translate(0,0)"></path>
<path d="M 1113 414.208 C 1116.41 414.79 1118.16 415.448 1120.16 417.886 C 1119.98 421.647 1119.84 420.661 1117.05 424.292 C 1115.12 425.768 1115.77 425.36 1113.51 426.261 L 1112.1 424.758 C 1111.69 419.996 1112.06 419.014 1113 414.208 z" fill="rgb(255,255,255)" transform="translate(0,0)"></path>
<path d="M 1170.66 511.341 C 1224.44 506.975 1210.04 564.693 1187.82 592.152 C 1145.67 644.245 1071.63 639.952 1022.58 600.987 C 1000.4 580.442 992.28 566.553 983.135 538.663 C 972.74 533.647 969.593 531.506 961.237 523.607 C 1017.45 537.549 1059.71 538.195 1116.5 525.349 C 1133.35 521.537 1152.42 513.943 1169.17 511.549 L 1170.66 511.341 z" fill="rgb(59,62,115)" transform="translate(0,0)"></path>
<path d="M 1170.56 524.396 C 1195.05 524.973 1192.35 534.193 1188.64 554.071 C 1163.91 557.892 1127.35 566.589 1103.77 575.302 C 1117.99 573.607 1174.74 560.572 1180.59 574.128 C 1180.14 580.292 1175.97 584.612 1172.08 589.34 C 1156.9 607.792 1137.71 615.931 1114.25 618.066 C 1097.73 619.566 1081.08 617.305 1065.56 611.451 C 1039.92 602.069 1020.84 587.402 1009.13 562.351 C 1011.06 558.413 1013.34 550.522 1014.82 545.933 C 1018.48 545.05 1043.09 545.569 1049.45 545.221 C 1061.9 544.54 1072.1 543.45 1084.54 541.766 C 1097.77 540.003 1110.9 537.546 1123.87 534.406 C 1139.09 530.644 1155.06 525.495 1170.56 524.396 z" fill="rgb(255,255,255)" transform="translate(0,0)"></path>
<path d="M 1260.56 234.47 C 1285.98 235.029 1310.97 236.868 1333.82 249.602 C 1330.69 248.753 1327.54 247.967 1324.38 247.247 C 1259.28 232.235 1205.82 252.492 1151.61 286.451 C 1141.09 293.51 1113.25 314.858 1105.21 318.75 C 1109.1 313.078 1113.37 307.682 1118 302.598 C 1153.24 264.418 1208.17 236.787 1260.56 234.47 z" fill="rgb(59,62,115)" transform="translate(0,0)"></path>
<path d="M 1038.69 1252.76 C 999.443 1163.79 1016.19 1080.07 1070.75 1002.42 C 1159.01 876.805 1299.88 804.551 1447.67 775.609 C 1460.53 785.366 1470.86 790.383 1484.09 798.516 C 1499.62 808.059 1517.34 819.026 1532.01 829.632 C 1545.6 838.111 1567.62 860.198 1578.54 873.125 L 1580.55 875.967 C 1597.74 895.011 1627.36 928.095 1637.4 951.752 C 1664.52 999.683 1679.33 1037.34 1690.99 1091.46 C 1671.36 1099.69 1651.29 1113.67 1631.6 1122.51 C 1624.2 1125.83 1620.16 1136.35 1618.02 1143.84 C 1588.46 1162.85 1558.55 1178.45 1528.18 1198.59 C 1528.25 1195.03 1528.29 1191.47 1528.3 1187.9 C 1528.43 1113.53 1472.75 1110.35 1415.06 1091.96 C 1384.28 1083.42 1356.64 1070.93 1328.11 1057.05 C 1293.36 1040.13 1281.02 1020.63 1255.55 995.04 C 1265.94 1037.79 1281.38 1041.06 1311.4 1066.35 L 1312.08 1066.93 C 1293.05 1088.53 1272.13 1108.63 1251.9 1129.11 C 1178.9 1203.06 1141.52 1227.93 1038.69 1252.76 z" fill="rgb(255,255,255)" transform="translate(0,0)"></path>
<path d="M 1532.01 829.632 C 1545.6 838.111 1567.62 860.198 1578.54 873.125 L 1580.55 875.967 C 1597.74 895.011 1627.36 928.095 1637.4 951.752 C 1587.62 992.658 1493.07 990.063 1439.11 958.809 C 1418.33 947.3 1397.36 926.506 1397.2 901 C 1396.76 832.842 1484.22 837.347 1531.05 829.854 C 1531.37 829.78 1531.69 829.706 1532.01 829.632 z" fill="rgb(247,139,151)" transform="translate(0,0)"></path>
<path d="M 1578.54 873.125 L 1580.55 875.967 C 1578.02 896.62 1597.93 905.524 1610.56 923.459 L 1611.64 925.001 C 1598.46 927.379 1569.49 927.539 1554.31 928.391 C 1565.34 939.876 1566.25 947.652 1570.78 962.557 C 1561.56 963.159 1552.36 963.904 1543.17 964.79 C 1537.27 958.637 1525.72 939.001 1521.2 930.954 C 1514.39 930.972 1509 931.323 1502.21 931.862 C 1489.19 949.69 1494.88 951.33 1472.96 940.555 C 1457.5 932.958 1452.99 923.293 1444.82 909.31 C 1457.58 907.261 1473.53 905.462 1486.53 904.446 C 1488.42 904.298 1488.06 904.606 1489.53 906.242 C 1489.28 915.146 1484.9 909.546 1480.15 914.531 C 1481.29 919.058 1488.02 923.347 1491.89 926.054 C 1494.82 923.682 1498.07 921.299 1501.08 918.998 L 1508.59 919.934 C 1516.06 920.796 1548.54 921.502 1553.57 917.529 L 1551.01 914.499 C 1552.5 912.59 1567.44 911.175 1568.93 909.736 C 1577.56 901.348 1565.65 880.651 1578.54 873.125 z" fill="rgb(255,255,255)" transform="translate(0,0)"></path>
<path d="M 1534.08 929.275 C 1537.13 929.166 1540.01 928.443 1542.18 930.389 C 1547.33 935.003 1555.29 948.591 1555.45 955.194 L 1552.51 955.003 C 1546.22 950.77 1536.5 936.245 1534.08 929.275 z" fill="rgb(247,139,151)" transform="translate(0,0)"></path>
<path d="M 1463.89 914.67 C 1466.53 914.682 1466.74 914.629 1469.28 915.247 C 1472.99 919.287 1485.97 931.113 1487.56 934.095 L 1486.91 935.826 C 1479.16 932.368 1458.26 925.274 1463.89 914.67 z" fill="rgb(247,139,151)" transform="translate(0,0)"></path>
<path d="M 1579.42 902.511 C 1584.72 906.648 1589.92 910.911 1595.01 915.297 L 1593.97 915.589 C 1588.53 916.594 1582.53 917.209 1577 917.902 C 1577.94 912.985 1578.66 907.503 1579.42 902.511 z" fill="rgb(247,139,151)" transform="translate(0,0)"></path>
<path d="M 1480.65 854.345 C 1495.78 851.37 1501.03 866.537 1515.34 875.66 L 1516.56 876.422 C 1519.41 869.767 1520.52 867.37 1524.4 861.259 C 1531.88 863.113 1569.28 875.965 1566.11 885.727 C 1554.88 888.535 1549.95 890.243 1539.25 894.466 C 1532.87 896.693 1513.89 900.519 1509.57 903.515 C 1508.94 906.385 1508.92 906.841 1507.7 909.471 C 1506.08 910.02 1504.52 910.682 1503.01 909.267 C 1492.6 899.521 1478.15 894.833 1464.34 890.781 C 1449.27 867.422 1450.85 858.663 1480.65 854.345 z" fill="rgb(255,255,255)" transform="translate(0,0)"></path>
<path d="M 1484.23 864.352 C 1487.99 866.507 1496.61 876.462 1500.99 879.211 C 1504.09 881.157 1507.5 882.379 1510.89 884.088 C 1511.69 887.73 1508.88 891.37 1506.47 893.83 C 1503.07 894.564 1501.99 893.794 1498.74 892.547 C 1490.98 889.086 1468.59 880.362 1466.59 871.25 C 1469.7 865.028 1476.92 868.537 1484.23 864.352 z" fill="rgb(247,139,151)" transform="translate(0,0)"></path>
<path d="M 1525.62 870.249 C 1533.31 872.611 1543.33 877.646 1550.48 881.226 L 1540.15 884.201 L 1518.76 890.018 C 1522.63 881.759 1525.25 879.203 1525.62 870.249 z" fill="rgb(247,139,151)" transform="translate(0,0)"></path>
<path d="M 341.543 1254.5 C 361.881 1260.15 390.664 1269.37 410.705 1272.59 L 405.312 1309.36 C 425.322 1317.14 438.516 1321.76 456.305 1334.22 C 463.799 1328.85 479.909 1311.53 487.186 1304.03 C 504.583 1319.85 522.486 1334.59 539.917 1350.29 C 530.256 1359.02 521.326 1368.24 512.217 1377.53 C 521.655 1388.96 530.206 1400.24 536.684 1413.66 C 540.561 1421.69 543.713 1430.3 548.159 1437.98 C 563.937 1441.11 579.56 1442.09 595.562 1443.36 C 599.312 1464.44 603.422 1485.46 607.89 1506.41 C 593.272 1507.98 577.04 1511.43 562.067 1513.52 C 562.135 1533.68 557.843 1553.74 551.214 1572.7 C 562.45 1582.47 573.845 1591.39 585.533 1600.62 C 575.343 1623.7 567.244 1635.57 553.045 1656.07 C 540.078 1652.43 525.262 1646.4 512.895 1641.02 C 501.435 1657.57 492.954 1664.43 477.678 1677.35 C 482.59 1689.07 491.337 1702.82 497.161 1715.67 C 479.03 1725 459.288 1737.25 441.576 1747.73 L 420.97 1708.09 C 401.216 1716.81 379.381 1719.87 358.153 1722.2 L 354.023 1742.78 C 353.494 1747.29 351.796 1755.11 350.935 1759.83 C 329.957 1755.39 307.185 1752.97 285.89 1749.7 C 286.301 1735.8 286.837 1721.91 287.497 1708.02 C 272.086 1703.78 256.821 1696.34 242.916 1688.56 C 233.163 1697.57 221.784 1710.8 213.139 1720.9 C 195.043 1707.2 178.002 1692.16 162.16 1675.9 C 169.599 1665.2 176.946 1654.43 184.198 1643.6 C 169.574 1629.63 156.119 1606.98 148.088 1588.55 C 136.774 1591.37 125.27 1593.35 113.667 1594.5 C 106.914 1571.7 101.063 1549.71 97.8751 1526.12 C 108.952 1522.76 121.466 1519.64 132.737 1516.53 C 132.581 1493.96 134.1 1470.76 140.521 1449 C 128.954 1442.1 117.156 1435.99 105.252 1429.71 C 114.384 1406.51 124.808 1386.43 136.78 1364.6 C 147.63 1368.31 159.929 1375.98 170.002 1381.88 C 184.636 1363.91 195.361 1352.73 213.65 1338.16 C 207.457 1325.77 200.406 1313.27 193.731 1301.09 C 215.644 1291.18 237.334 1280.79 258.786 1269.93 C 263.78 1279.83 269.312 1293.2 273.927 1303.54 C 295.394 1297.6 310.439 1295.96 332.44 1297.05 C 336.191 1283.05 338.901 1268.74 341.543 1254.5 z" fill="rgb(137,212,234)" transform="translate(0,0)"></path>
<path d="M 327.633 1373.73 C 401.019 1367.2 465.876 1421.22 472.722 1494.58 C 479.568 1567.94 425.827 1633.03 352.5 1640.19 C 278.722 1647.4 213.142 1593.26 206.254 1519.45 C 199.365 1445.64 253.794 1380.29 327.633 1373.73 z" fill="rgb(59,62,115)" transform="translate(0,0)"></path>
<path d="M 354.338 1395.42 C 376.274 1394.58 410.032 1418.39 423.971 1434.26 C 463.888 1479.7 460.306 1553.07 414.047 1592.9 C 392.687 1611.29 380.092 1613.97 352.754 1611.84 C 218.161 1594.77 225.959 1407.12 354.338 1395.42 z" fill="rgb(255,255,255)" transform="translate(0,0)"></path>
<path d="M 313.279 1393.27 L 314.068 1393.37 C 313.123 1394.77 300.796 1400.69 297.896 1402.33 C 251.814 1428.36 233.266 1483.51 245.965 1535.21 C 255.965 1577.35 288.388 1610.53 330.277 1621.5 C 334.836 1622.65 357.695 1625.95 358.627 1626.51 C 351.629 1627.19 345.793 1627.22 338.75 1627.29 C 286.734 1627.16 233.647 1586.97 222.852 1535.65 C 208.143 1465.72 243.778 1408.73 313.279 1393.27 z" fill="rgb(255,255,255)" transform="translate(0,0)"></path>
<path d="M 369.224 1700.31 C 382.787 1697.36 396.613 1694.29 409.197 1689.42 C 518.036 1647.29 576.872 1514.68 521.785 1408.56 C 518.812 1402.83 507.307 1386.76 508.137 1381.78 C 509.802 1381.75 509.685 1381.33 510.548 1382.3 C 539.754 1414.98 554.12 1460.75 554.951 1504.03 C 556.741 1597.24 475.964 1699.3 379.259 1702.11 C 372.663 1703.62 359.015 1702.99 352.188 1702.71 C 357.92 1701.58 363.434 1701 369.224 1700.31 z" fill="rgb(59,62,115)" transform="translate(0,0)"></path>
<path d="M 1179.02 1278.8 C 1189.93 1284.8 1202.03 1303.35 1208.35 1313.73 C 1255.24 1390.73 1249.25 1483.9 1259.22 1570 C 1263.28 1604.07 1267.26 1637.71 1286.81 1667.01 C 1327.12 1728.75 1411.91 1713.79 1475.65 1717.91 C 1589.66 1725.26 1684.05 1790.55 1657.9 1915.91 C 1647.36 1879.34 1631.35 1850.02 1600.97 1825.79 C 1528.18 1772.72 1439.53 1818.56 1360.04 1818.13 C 1308.83 1818.54 1261.77 1805.19 1221.63 1773.13 C 1117.32 1689.81 1151.15 1552.23 1115.78 1439.73 C 1102.18 1396.47 1078.21 1365.59 1046.43 1333.68 C 1103.62 1320.52 1129.21 1309.92 1179.02 1278.8 z" fill="rgb(247,139,151)" transform="translate(0,0)"></path>
<path d="M 1736.87 327.382 C 1747.96 325.69 1763.02 326.503 1773.95 328.591 C 1884.85 349.796 1942.73 462.803 1921.8 568.977 C 1909.35 632.152 1870.6 684.353 1818.89 721.395 C 1802.11 733.41 1784.05 741.139 1764.94 748.233 C 1706.15 772.046 1643.63 780.373 1580.55 783.133 C 1535.56 785.1 1473.36 788.492 1445.36 745.615 C 1431 723.623 1428.96 703.149 1433.68 677.866 C 1454.37 673.58 1475.12 669.537 1495.92 665.737 C 1517.19 662.505 1538.66 660.63 1560.17 660.124 C 1631.13 658.969 1708.99 669.431 1769.7 625.451 C 1803.52 599.242 1825.76 568.043 1832.49 525.188 C 1848.27 425.212 1752.8 331.485 1659.67 399.469 C 1624.55 425.107 1612 479.364 1606.99 519.891 C 1606.23 516.035 1605.6 512.156 1605.09 508.26 C 1592.69 416.683 1642.8 339.414 1736.87 327.382 z" fill="rgb(247,139,151)" transform="translate(0,0)"></path>
<path d="M 1495.15 732.278 C 1523.96 728.697 1538.17 752.183 1509.59 761.828 C 1483.41 763.644 1465.51 743.838 1495.15 732.278 z" fill="rgb(59,62,115)" transform="translate(0,0)"></path>
<path d="M 1495.11 737.187 C 1503.68 736.64 1514.37 736.134 1519.31 744.732 C 1519.79 752.285 1514.88 753.897 1508.81 756.598 C 1500.06 757.673 1491.22 757.274 1485.72 749.311 C 1484.41 741.769 1489.1 740.06 1495.11 737.187 z" fill="rgb(247,139,151)" transform="translate(0,0)"></path>
<path d="M 1610.21 729.247 C 1635.47 727.087 1646.91 749.619 1614.46 755.952 C 1583.97 757.107 1577.68 735.308 1610.21 729.247 z" fill="rgb(59,62,115)" transform="translate(0,0)"></path>
<path d="M 1610.54 734.254 C 1617.61 733.903 1628.47 734.277 1627.91 743.753 C 1624.55 749.333 1620.68 749.541 1614.43 751.224 C 1606.36 751.489 1600.92 752.048 1595.1 745.946 C 1593.97 742.335 1593.97 744.107 1595.19 740.441 C 1599.88 735.529 1603.79 735.278 1610.54 734.254 z" fill="rgb(247,139,151)" transform="translate(0,0)"></path>
<path d="M 1723.87 720.183 C 1751.31 717.443 1759.89 738.493 1730 744.818 C 1702.24 746.563 1695.19 727.087 1723.87 720.183 z" fill="rgb(59,62,115)" transform="translate(0,0)"></path>
<path d="M 1724.35 724.257 C 1730.81 723.98 1742.48 723.399 1742.55 732.392 C 1739.42 737.633 1735.16 738.194 1729.42 740.012 C 1722.83 740.358 1711.5 741.146 1711.49 731.85 C 1714.49 726.638 1718.65 725.944 1724.35 724.257 z" fill="rgb(247,139,151)" transform="translate(0,0)"></path>
<path d="M 1811.69 683.312 C 1819.45 680.202 1828.27 684.018 1831.31 691.81 C 1834.36 699.602 1830.47 708.383 1822.65 711.366 C 1814.93 714.314 1806.27 710.48 1803.26 702.778 C 1800.25 695.076 1804.01 686.387 1811.69 683.312 z" fill="rgb(59,62,115)" transform="translate(0,0)"></path>
<path d="M 1812.82 688.218 C 1816.07 686.588 1819.93 686.829 1822.95 688.849 C 1825.96 690.869 1827.66 694.354 1827.39 697.973 C 1827.11 701.592 1824.91 704.784 1821.63 706.328 C 1816.64 708.672 1810.7 706.574 1808.29 701.619 C 1805.88 696.664 1807.9 690.692 1812.82 688.218 z" fill="rgb(247,139,151)" transform="translate(0,0)"></path>
<path d="M 871.505 1322.37 C 924.789 1346.81 968.139 1347.19 1025.29 1336.85 L 1053.45 1371.48 C 1023.54 1375.25 1000.07 1383.77 980.446 1408.38 C 944.449 1454.81 925.179 1514.29 899.642 1567.11 C 849.777 1670.24 799.783 1770.21 707.803 1843.2 C 642.27 1895.21 556.313 1930.23 471.107 1922.3 C 410.568 1919.12 355.08 1889.79 312.336 1847.86 C 401.846 1891.03 506.435 1896.03 593.617 1843.22 C 705.081 1775.7 762.311 1628.99 808.493 1513.47 C 833.415 1451.13 854.161 1386.38 871.505 1322.37 z" fill="rgb(247,139,151)" transform="translate(0,0)"></path>
<path d="M 851.024 1557.91 C 874.313 1562.85 854.726 1599.94 838.752 1606.92 C 815.076 1604.27 837.614 1565.6 851.024 1557.91 z" fill="rgb(59,62,115)" transform="translate(0,0)"></path>
<path d="M 849.84 1563.49 C 866.551 1567.04 848.048 1594.1 840.809 1600.48 L 837.046 1599.95 C 827.069 1591.18 842.768 1570.51 849.84 1563.49 z" fill="rgb(247,139,151)" transform="translate(0,0)"></path>
<path d="M 888.272 1463.73 C 914.315 1462.85 896.56 1500.8 882.124 1510.43 C 856.106 1513.86 875.422 1473.52 888.272 1463.73 z" fill="rgb(59,62,115)" transform="translate(0,0)"></path>
<path d="M 885.701 1472.19 C 889.197 1469.57 887.889 1469.8 891.706 1469.51 C 900.598 1476.89 890.428 1500.55 879.434 1504.97 C 877.685 1504.68 877.565 1504.89 876.128 1504.08 C 872.005 1493.37 878.588 1480.08 885.701 1472.19 z" fill="rgb(247,139,151)" transform="translate(0,0)"></path>
<path d="M 885.701 1472.19 C 887.483 1476.81 880.23 1500.75 876.128 1504.08 C 872.005 1493.37 878.588 1480.08 885.701 1472.19 z" fill="rgb(255,255,255)" transform="translate(0,0)"></path>
<path d="M 949.559 1376.1 C 977.442 1371.65 959.477 1409.31 945.027 1419.23 C 919.665 1425.45 933.682 1386.9 949.559 1376.1 z" fill="rgb(59,62,115)" transform="translate(0,0)"></path>
<path d="M 952.064 1379.86 C 955.174 1380.91 954.984 1380.78 957.359 1383.04 C 961.404 1392.99 949.799 1408.59 942.372 1414.28 C 938.222 1413.83 938.288 1413.69 936.072 1410.6 C 934.161 1399.95 942.877 1385.19 952.064 1379.86 z" fill="rgb(254,211,209)" transform="translate(0,0)"></path>
<path d="M 952.501 1386.8 C 952.81 1390.08 943.974 1408.45 942.069 1412.32 L 941.477 1410.13 C 943.95 1401.11 947.806 1394.79 952.501 1386.8 z" fill="rgb(175,98,99)" transform="translate(0,0)"></path>
<path d="M 803.1 1653.72 C 823.226 1653 813.942 1673.32 808.381 1683.48 C 804.065 1691.37 799.943 1695.55 793.203 1701.21 C 766.628 1699.76 793.127 1662.11 803.1 1653.72 z" fill="rgb(59,62,115)" transform="translate(0,0)"></path>
<path d="M 804.535 1657.6 C 807.926 1658.72 806.358 1657.85 809.034 1660.9 C 812.095 1671.82 800.301 1687.6 791.533 1693.47 C 788.73 1694.02 790.044 1694.22 787.486 1692.73 C 783.763 1682.95 797.671 1664.44 804.535 1657.6 z" fill="rgb(247,139,151)" transform="translate(0,0)"></path>
<path d="M 747.303 1747.73 C 769.784 1747.62 746.194 1778.6 736.999 1784.76 C 732.953 1784.91 732.485 1784.19 729.988 1782.1 C 725.96 1772.18 739.785 1753.87 747.303 1747.73 z" fill="rgb(59,62,115)" transform="translate(0,0)"></path>
<path d="M 747.996 1752.44 L 749.446 1752.87 C 755.997 1759.61 741.238 1775.52 735.877 1780.24 L 733.581 1778.88 C 730.718 1770.69 742.357 1757.86 747.996 1752.44 z" fill="rgb(247,139,151)" transform="translate(0,0)"></path>
<path d="M 300.934 429.447 C 310.356 423.581 318.521 420.292 329.035 416.777 C 334.01 428.444 337.202 435.393 343.232 446.597 C 338.362 447.341 333.939 448.104 329.005 448.395 C 325.728 442.027 320.171 427.996 314.055 425.991 C 310.827 426.649 311.032 426.531 308.623 428.772 L 323.91 459.503 C 339.04 458.574 347.772 456.357 363.781 457.036 C 370.967 448.022 377.822 434.467 383.228 424.086 C 401.825 431.119 414.995 436.298 434.427 440.799 C 431.302 449.753 425.694 460.458 425.624 469.574 C 428.99 476.975 456.333 498.865 465.017 502.152 C 473.183 499.882 490.329 492.966 499.055 489.78 C 504.864 504.796 512.884 519.235 518.995 534.674 C 508.563 540.742 498.531 546.71 487.72 552.104 C 494.634 568.791 497.896 583.024 495.736 600.983 C 484.28 600.89 465.279 598.434 455.146 604.673 C 444.663 611.127 415.072 689.772 412.695 703.981 C 411.407 711.678 412.62 715.674 417.083 721.954 C 401.45 726.781 383.119 728.149 366.755 729.62 C 361.929 742.227 357.424 754.955 353.244 767.792 C 332.581 761.167 312.369 753.211 292.734 743.974 C 296.372 733.25 302.138 723.638 307.43 713.554 C 298.442 706.408 288.38 700.711 279.196 693.765 C 271.538 687.971 265.513 681.019 257.541 675.834 C 249.044 680.174 237.022 684.593 227.84 687.238 C 219.003 671.592 210.709 649.278 205.472 631.938 C 216.903 627.36 227.332 623.437 237.864 617.031 C 236.311 598.962 234.347 588.432 233.933 569.139 C 225.612 563.821 210.721 560.481 200.802 557.78 C 205.545 540.719 213.378 518.355 221.155 502.576 C 230.464 506.684 238.632 510.224 248.222 513.773 C 259.329 499.003 265.003 495.359 279.811 484.81 C 275.916 473.739 267.743 461.06 261.59 450.779 C 274.774 444.137 287.953 436.569 300.934 429.447 z" fill="rgb(137,212,234)" transform="translate(0,0)"></path>
<path d="M 341.699 511.33 C 376.847 509.039 405.534 516.686 427.97 545.494 C 452.174 575.379 443.736 621.439 413.055 643.558 C 386.618 662.617 344.525 643.393 328.601 618.717 C 319.471 604.786 316.49 587.707 320.361 571.507 C 324.185 554.929 335.285 540.962 350.57 533.492 C 355.705 530.992 360.038 530.374 364.966 527.401 C 366.411 524.413 366.282 525.897 365.594 522.826 C 356.408 518.445 328.474 524.895 319.637 530.032 C 303.341 539.506 292.857 552.139 287.5 570.245 C 278.345 609.057 300.975 648.033 337.734 662.769 C 376.506 678.312 391.353 666.646 426.355 652.839 C 413.04 667.285 398.083 678.707 378.186 681.36 C 306.335 690.938 240.977 603.219 288.896 541.353 C 302.13 524.266 320.508 514.235 341.699 511.33 z" fill="rgb(59,62,115)" transform="translate(0,0)"></path>
<path d="M 358.564 540.815 C 360.842 543.899 361.805 552.745 363.632 556.869 C 375.22 583.022 390.614 600.603 418.967 606.648 C 414.222 619.775 409.868 629.108 396.87 635.879 C 346.164 639.248 310.069 571.299 358.564 540.815 z" fill="rgb(255,255,255)" transform="translate(0,0)"></path>
<path d="M 372.996 524.988 C 376.635 526.092 383.091 528.104 385.948 530.496 C 383.751 533.427 383.105 533.949 382.268 537.599 C 383.49 540.301 382.536 539.379 385.093 540.585 C 388.028 540.162 390.233 536.333 392.638 533.468 C 398.382 536.073 403.912 538.898 407.688 544.033 C 400.036 541.981 394.174 547.25 393.807 553.064 C 393.151 563.475 415.464 565.618 411.013 547.004 C 415.387 549.058 418.527 553.926 421.031 557.852 C 418.415 561.282 414.444 564.937 415.494 569.164 C 418.162 571.374 416.688 570.85 419.995 570.982 C 422.494 568.767 422.585 568.148 425.598 567.212 C 427.776 571.989 430.18 580.39 427.54 585.174 C 418.153 586.429 389.127 561.456 381.95 554.81 C 372.782 546.319 373.012 536.553 372.996 524.988 z" fill="rgb(255,255,255)" transform="translate(0,0)"></path>
<path d="M 509.89 702.646 C 524.05 714.016 532.752 740.872 544.72 757.059 C 610.753 846.376 715.56 769.719 781.193 722.719 C 730.649 796.912 715.304 882.004 725.579 970.251 L 727.339 984.832 C 605.941 984.586 491.708 927.608 427.441 822.493 C 415.694 803.279 409.765 787.172 402.745 766.131 C 405.442 768.648 411.333 774.672 414.959 775.018 C 436.754 777.101 473.099 759.385 491.801 749.447 C 505.96 741.923 506.758 718.281 509.89 702.646 z" fill="rgb(255,255,255)" transform="translate(0,0)"></path>
<path d="M 1931.1 1005.3 C 1932.68 1010.6 1870.77 1225.12 1864.35 1253.36 C 1853.06 1260.38 1839.19 1269.2 1827.21 1274.44 C 1822.94 1267.09 1818.52 1258.14 1811.64 1252.99 C 1776.88 1226.99 1697.08 1265.8 1704.7 1311.2 C 1677.23 1327.49 1651.12 1348.34 1658.29 1384.19 C 1645.09 1394 1628.42 1403.35 1614.02 1411.83 C 1606.62 1416.03 1599.25 1420.29 1591.92 1424.62 C 1594.18 1417.32 1596.98 1402.98 1598.87 1394.88 C 1603.22 1376.41 1607.7 1357.97 1612.29 1339.56 C 1628.26 1277.9 1643.65 1216.1 1658.46 1154.16 C 1664.35 1149.79 1680.57 1141.68 1687.43 1138.05 C 1705.85 1128.34 1724.22 1118.55 1742.54 1108.66 L 1931.1 1005.3 z" fill="rgb(86,168,187)" transform="translate(0,0)"></path>
<path d="M 1801.08 1192.73 L 1801.15 1194.19 C 1732.99 1227.45 1680.91 1251.24 1646.88 1322.98 L 1645.77 1322.55 C 1656.73 1297.73 1671.19 1272.43 1692.88 1255.37 C 1725.72 1229.53 1762.98 1209.58 1801.08 1192.73 z" fill="rgb(59,62,115)" transform="translate(0,0)"></path>
<path d="M 1801.08 1192.73 C 1805.97 1189.75 1811.35 1187.65 1816.96 1186.52 C 1811.52 1190.03 1807.11 1191.69 1801.15 1194.19 L 1801.08 1192.73 z" fill="rgb(59,62,115)" transform="translate(0,0)"></path>
<path d="M 1645.77 1322.55 L 1646.88 1322.98 C 1646.25 1326.93 1646.33 1327.26 1644.23 1330.54 L 1642.79 1330.83 C 1642.27 1327.59 1644.05 1325.55 1645.77 1322.55 z" fill="rgb(61,128,151)" transform="translate(0,0)"></path>
<path d="M 473.671 1066.42 C 491.868 1064.78 510.197 1067.41 527.198 1074.1 C 589.969 1099.15 610.585 1160.45 593.915 1222.59 C 583.644 1260.87 573.509 1305.4 590.568 1343.42 C 616.108 1400.34 687.474 1397.85 736.141 1375.31 C 786.624 1351.51 816.167 1312.73 835.309 1261.56 C 841.21 1279.4 841.938 1288.25 851.45 1304.87 C 837.324 1359.98 815.861 1418.89 795.145 1472.26 C 763.934 1491.84 721.368 1503.87 684.75 1505.3 C 670.922 1505.99 653.868 1504.2 640.288 1501.74 C 635.556 1485.05 630.004 1430.58 623.689 1421.62 C 618.5 1418.98 583.112 1423.69 574.517 1424.66 C 565.79 1404.15 559.692 1394.38 547.031 1376.58 C 559.305 1368.79 574.47 1360.19 582.932 1348.42 C 575.27 1340.02 561.029 1329.26 551.754 1321.9 L 502.946 1283.36 C 519.886 1230.36 578.22 1159.8 513.703 1112.93 C 470.451 1081.52 412.466 1107.56 380.119 1142.37 C 365.103 1158.53 349.174 1178.31 331.729 1192.04 C 336.719 1167.45 355.14 1139.17 371.013 1120.04 C 398.583 1086.83 430.74 1070.01 473.671 1066.42 z" fill="rgb(247,139,151)" transform="translate(0,0)"></path>
<path d="M 723.873 1436.1 C 726.409 1436.04 728.933 1436.48 731.306 1437.37 C 740.34 1440.83 741.79 1448.5 737.173 1456.56 C 732.315 1465.04 726.141 1467.68 716.969 1470.05 C 688.367 1470.67 698.232 1442.31 723.873 1436.1 z" fill="rgb(59,62,115)" transform="translate(0,0)"></path>
<path d="M 719.106 1442.15 C 743.23 1440.03 736.567 1457.78 718.863 1465.26 C 698.982 1469.29 699.275 1450.88 719.106 1442.15 z" fill="rgb(247,139,151)" transform="translate(0,0)"></path>
<path d="M 728.311 1446.95 L 729.396 1447.41 L 729.353 1449.15 C 723.958 1455.37 717.8 1457.29 710.29 1459.93 L 708.615 1458.8 L 708.687 1456.94 C 711.596 1454.32 724.062 1448.97 728.311 1446.95 z" fill="rgb(59,62,115)" transform="translate(0,0)"></path>
<path d="M 1241.82 1219.59 C 1287.82 1249.84 1309.36 1345.29 1340.59 1393.24 C 1381.03 1455.32 1445.94 1482.16 1512.58 1440.51 C 1520.58 1443.5 1561.71 1463.21 1566.79 1460.85 C 1596.78 1446.9 1626.34 1419.95 1656.63 1406.72 L 1658.22 1406.03 C 1648.34 1418.46 1636.12 1424.88 1625.91 1434.99 C 1616.86 1443.94 1606 1456.84 1597.25 1466.54 C 1548.83 1518.7 1500.52 1559.95 1424.31 1552.77 C 1368.64 1547.53 1328.18 1515.36 1293.76 1473.46 C 1285.19 1463.02 1277.73 1451.76 1269.22 1441.41 C 1260.99 1369.26 1248.28 1319.21 1194.87 1267.37 C 1214.8 1251.91 1227.24 1240.24 1241.82 1219.59 z" fill="rgb(247,139,151)" transform="translate(0,0)"></path>
<path d="M 1334.62 1458.69 C 1335.69 1458.86 1338.09 1459.16 1338.85 1460.06 C 1348.58 1471.65 1359.19 1481.48 1369.34 1492.48 C 1371.09 1494.37 1370.55 1494.33 1370.25 1496.41 C 1367.76 1499.37 1366.81 1499.57 1363.39 1501.22 C 1362.7 1501.19 1362.01 1501.14 1361.32 1501.09 C 1347.02 1499.82 1325.2 1483.27 1326.52 1467.08 C 1326.88 1462.75 1331.22 1460.73 1334.62 1458.69 z" fill="rgb(59,62,115)" transform="translate(0,0)"></path>
<path d="M 1332.69 1464.32 C 1333.46 1464.5 1335.88 1465.09 1336.3 1465.71 C 1340.28 1471.49 1363.13 1490.23 1363.53 1495.38 C 1349.48 1495.04 1326.71 1479.35 1332.69 1464.32 z" fill="rgb(247,139,151)" transform="translate(0,0)"></path>
<path d="M 1470.54 1507.38 C 1483.94 1504.79 1490.85 1531.4 1440.76 1526.78 C 1433.58 1525.62 1420.46 1522.64 1427.85 1512.05 C 1429.44 1511.1 1463.7 1508.41 1470.54 1507.38 z" fill="rgb(59,62,115)" transform="translate(0,0)"></path>
<path d="M 1468.59 1512.29 C 1471.69 1511.94 1470.28 1511.69 1472.99 1512.83 L 1473.54 1514.98 C 1468.63 1525.01 1448.07 1523.4 1438.7 1521.55 C 1435.28 1520.64 1434.1 1520.64 1432.35 1518.22 C 1434.66 1515.76 1461.63 1513.72 1468.59 1512.29 z" fill="rgb(247,139,151)" transform="translate(0,0)"></path>
<path d="M 1539.21 1458.64 C 1553.2 1463.66 1550.22 1488.24 1528.69 1489.56 C 1523.76 1487.63 1520.08 1486.63 1518.98 1480.96 C 1520.33 1472.55 1532.37 1464.43 1539.21 1458.64 z" fill="rgb(59,62,115)" transform="translate(0,0)"></path>
<path d="M 1539.03 1465.87 L 1540.63 1467.28 C 1542.96 1475.57 1535.38 1481.44 1528.41 1483.87 C 1525.52 1481.04 1525.32 1481.24 1525.8 1477.68 C 1528.96 1472.78 1534.26 1469.47 1539.03 1465.87 z" fill="rgb(247,139,151)" transform="translate(0,0)"></path>
<path d="M 1268.48 740.288 L 1269.29 740.399 C 1267.43 742.504 1246.21 754.724 1242.34 757.09 C 1226.53 766.53 1210.97 776.391 1195.68 786.662 C 1103.35 849.879 1029.16 935.598 986.172 1039.25 C 938.342 1062.94 927.087 1069.21 873.599 1076.4 C 869.607 1052.61 869.135 980.75 881.411 963.118 C 960.84 849.027 1145.63 771.569 1268.48 740.288 z" fill="rgb(255,255,255)" transform="translate(0,0)"></path>
<path d="M 811.638 707.778 C 812.491 712.289 808.311 732.433 807.62 738.686 C 798.727 819.132 823.044 882.946 857.433 953.51 C 856.384 965.75 852.553 980.57 851.296 994.031 C 848.692 1021.93 849.94 1046.6 851.68 1074.43 C 836.261 1070.34 824.082 1065.94 810.733 1056.83 C 806.603 1054.02 803.664 1051.13 799.417 1048.29 L 798.666 1047.8 C 809.894 1075.81 828.365 1086.11 856.457 1094.27 C 859.732 1137.07 879.906 1198.56 894.077 1239.14 C 896.37 1245.85 898.147 1251.78 900.059 1258.61 C 888.67 1255.79 872.79 1249.95 861.112 1246.22 C 849.34 1217.32 832.323 1187.69 818.764 1159.67 C 767.438 1053.58 720.268 933.454 759.664 815.371 C 772.454 777.038 788.62 740.782 811.638 707.778 z" fill="rgb(255,255,255)" transform="translate(0,0)"></path>
<path d="M 807.192 258.432 C 814.065 258.122 819.806 259.08 826.611 259.957 C 817.44 264.421 809.485 267.59 800.624 272.908 C 776.721 287.254 758.956 314.134 749.094 339.798 C 736.406 373.308 737.576 410.491 752.348 443.137 C 778.373 501.566 840.593 535.304 897.508 557.168 C 894.497 575.275 891.909 593.45 889.745 611.678 C 885.289 606.446 868.166 592.087 861.607 599.586 C 848.045 615.09 874.902 625.358 880.305 631.529 L 878.809 634.137 C 868.901 645.032 854.558 651.493 841.243 657.22 C 833.27 652.681 824.915 646.082 817.786 640.017 C 763.945 594.217 713.133 535.984 694.792 466.248 C 673.309 384.563 710.344 265.908 807.192 258.432 z" fill="rgb(247,139,151)" transform="translate(0,0)"></path>
<path d="M 797.869 558.779 C 805.649 559.037 811.978 563.793 816.403 569.841 C 823.061 578.941 832.41 590.499 820.695 598.863 C 804.526 596.302 778.777 570.75 797.869 558.779 z" fill="rgb(59,62,115)" transform="translate(0,0)"></path>
<path d="M 796.989 562.669 C 797.686 562.81 798.382 562.951 799.079 563.092 C 810.175 563.779 822.951 583.702 820.278 594.073 C 809.901 590.318 792.199 575.196 796.989 562.669 z" fill="rgb(255,255,255)" transform="translate(0,0)"></path>
<path d="M 747.769 502.775 C 759.843 504.009 770.259 520.197 770.004 531.969 C 769.951 534.442 766.968 535.967 765.135 537.255 C 751.257 536.373 736.751 515.053 747.769 502.775 z" fill="rgb(59,62,115)" transform="translate(0,0)"></path>
<path d="M 748.349 506.523 C 758.234 508.839 766.472 524.688 764.123 533.263 C 755.076 529.802 744.703 516.041 748.349 506.523 z" fill="rgb(254,211,209)" transform="translate(0,0)"></path>
<path d="M 716.626 447.812 C 729.45 450.147 740.152 469.331 729.084 480.198 C 715.427 477.867 705.525 458.24 716.626 447.812 z" fill="rgb(59,62,115)" transform="translate(0,0)"></path>
<path d="M 717.908 450.906 C 723.996 453.652 730.301 468.801 729.029 475.064 C 720.49 471.99 712.088 459.382 717.908 450.906 z" fill="rgb(255,255,255)" transform="translate(0,0)"></path>
<path d="M 1416.14 683.96 C 1418.73 684.715 1417.64 703.308 1418.18 707.828 C 1420.6 728.222 1426.5 740.84 1437.02 757.904 C 1383.45 765.299 1330.89 784.627 1281.76 807.692 C 1168.86 861.239 1059.7 952.695 1014.75 1072.35 C 992.165 1132.47 999.615 1198.6 1026.69 1255.51 C 1020.61 1256.92 1012.64 1257.78 1006.32 1258.63 C 1005.99 1257.81 1005.66 1256.98 1005.34 1256.16 C 975.472 1179.23 975.445 1103.15 1009.5 1027.45 C 1084.3 861.167 1250.78 747.244 1416.14 683.96 z" fill="rgb(137,212,234)" transform="translate(0,0)"></path>
<path d="M 811.559 1202.83 C 814.301 1207 821.529 1224.49 823.825 1229.82 C 817.198 1262.7 798.884 1294.89 776.955 1320.01 C 740.526 1361.73 670.754 1390.82 623.941 1348.34 C 595.078 1315.81 603.855 1277.95 611.734 1239.09 C 686.289 1266.1 751.8 1254.97 811.559 1202.83 z" fill="rgb(255,255,255)" transform="translate(0,0)"></path>
<path d="M 1320.96 1092.61 C 1324.64 1093.98 1333.59 1099.73 1337.11 1101.96 C 1388.56 1134.44 1423.8 1196.08 1436.25 1254.94 C 1413.23 1270.99 1387.46 1284.56 1363.33 1301.1 C 1359.92 1303.6 1360.7 1303.9 1357.46 1303.7 C 1355.96 1301.88 1353.45 1289.41 1352.39 1285.81 C 1340.11 1244.31 1322.58 1194.45 1281.45 1173.55 C 1271.07 1168.28 1260.35 1166.44 1249.07 1164.37 C 1270.56 1141.35 1298.35 1115.25 1320.96 1092.61 z" fill="rgb(247,139,151)" transform="translate(0,0)"></path>
<path d="M 1383.14 1227.79 C 1399.28 1229.15 1410.9 1254.41 1394.45 1265.76 C 1378.35 1264.27 1368.92 1237.41 1383.14 1227.79 z" fill="rgb(59,62,115)" transform="translate(0,0)"></path>
<path d="M 1382.75 1232.44 C 1395.11 1234.27 1400.22 1248.71 1395.53 1259.57 L 1392 1259.84 C 1383.32 1256.31 1379.29 1241.06 1382.75 1232.44 z" fill="rgb(247,139,151)" transform="translate(0,0)"></path>
<path d="M 1347.52 1172.14 C 1363.4 1174.61 1380.99 1198.78 1362 1208.46 C 1348.46 1206.23 1330.43 1179.47 1347.52 1172.14 z" fill="rgb(59,62,115)" transform="translate(0,0)"></path>
<path d="M 1346.17 1176.63 C 1359.14 1178.67 1369.31 1190.07 1364.23 1203.45 C 1353.24 1202.89 1343.52 1186.4 1346.17 1176.63 z" fill="rgb(247,139,151)" transform="translate(0,0)"></path>
<path d="M 978.811 1057.8 L 980.05 1058.07 C 980.233 1060.33 973.806 1084.66 972.615 1089.46 C 961.494 1134.33 970.469 1220.13 996.669 1259.77 C 975.138 1263.37 943.717 1262.01 922.186 1260.71 L 919.013 1252.68 C 900.258 1203.02 882.899 1149.18 877.013 1096.19 C 919.199 1093.44 944.148 1079.79 978.811 1057.8 z" fill="rgb(255,255,255)" transform="translate(0,0)"></path>
<path d="M 1235.62 1176.85 C 1236.61 1182.04 1219.15 1213.62 1214.58 1218.78 C 1183.23 1254.12 1135.27 1284.02 1090.52 1299.48 C 1024.91 1322.13 944.362 1336.85 878.339 1309.15 C 872.331 1306.54 871.573 1305.32 869.762 1300.22 C 866.71 1287.15 863.768 1274.06 860.935 1260.94 C 872.874 1266.77 885.507 1271.05 898.529 1273.68 C 985.044 1291.67 1098.48 1268.66 1172.89 1222.09 C 1184.47 1215.18 1195.46 1207.62 1206.23 1199.51 C 1215.91 1192.22 1225.38 1183.25 1235.62 1176.85 z" fill="rgb(137,212,234)" transform="translate(0,0)"></path>
<path d="M 917.07 1287.02 C 935.066 1286.74 947.223 1303.3 930.217 1314.91 C 909.097 1316.38 900.331 1300.05 917.07 1287.02 z" fill="rgb(59,62,115)" transform="translate(0,0)"></path>
<path d="M 922.091 1295.03 C 922.361 1300.52 923.137 1303.19 920.018 1307.36 L 917.763 1307.61 C 912.756 1304.74 911.154 1300.11 913.11 1294.65 C 916.471 1291.26 915.075 1292.33 920.047 1290.95 C 920.87 1293.91 920.181 1293.12 922.091 1295.03 z" fill="rgb(255,255,255)" transform="translate(0,0)"></path>
<path d="M 920.047 1290.95 C 926.068 1294.27 931.412 1305.34 924.299 1310.27 L 923.282 1309.78 C 923.2 1303.21 926.303 1300.61 922.091 1295.03 C 920.181 1293.12 920.87 1293.91 920.047 1290.95 z" fill="rgb(137,212,234)" transform="translate(0,0)"></path>
<path d="M 1406.72 672.509 C 1407.8 672.336 1409.13 672.467 1410.27 672.504 C 1407.53 675.281 1354.73 692.257 1347.78 697.591 C 1346.65 698.455 1323.02 709.465 1322 709.7 C 1151.46 748.87 984.848 810.058 871.817 951.274 C 871.164 952.128 871.667 951.561 869.973 952.602 C 869.475 939.171 901.424 897.262 911.446 886.394 C 1008.78 780.828 1171.79 712.87 1310.89 685.368 C 1342.6 679.099 1374.37 673.876 1406.72 672.509 z" fill="rgb(137,212,234)" transform="translate(0,0)"></path>
<path d="M 1770.11 1259.23 C 1775.29 1258.84 1782.35 1258.3 1787.19 1259.34 C 1821.93 1266.82 1834.24 1325.68 1808.05 1348.46 C 1803.83 1352.14 1799.43 1354.82 1794.69 1357.69 C 1800.01 1320.06 1797.14 1285.07 1754.68 1271.48 C 1778.91 1292.63 1797.84 1330.07 1777.84 1363.11 C 1769.13 1377.5 1734.33 1390.05 1717.52 1393.25 C 1708.8 1394.4 1691.67 1394.8 1685.13 1391.42 C 1640.58 1368.42 1695.65 1326.5 1721.94 1319.13 C 1733.66 1315.84 1745.51 1311.23 1749.36 1325.27 C 1753.7 1341.1 1741.76 1360.17 1734 1373.41 C 1750.47 1364.32 1763.39 1349.62 1762.42 1329.68 C 1761.95 1320.25 1757.58 1311.45 1750.36 1305.38 C 1738.78 1295.53 1727.39 1295.95 1713.56 1297.38 C 1730.3 1275.99 1743.51 1266.25 1770.11 1259.23 z" fill="rgb(255,255,255)" transform="translate(0,0)"></path>
<path d="M 758.239 1090.49 C 758.878 1090.97 759.941 1091.67 760.199 1092.43 C 770.98 1123.83 786.92 1152.47 800.038 1182.91 C 752.702 1218.58 719.637 1236.1 657.77 1229.87 C 642.002 1227.64 631.391 1224.99 616.369 1220.35 C 618.345 1207.4 619.593 1194.35 620.105 1181.26 C 625.19 1182.07 630.306 1182.67 635.44 1183.05 C 667.311 1185.49 705.634 1176.83 730.031 1155.26 C 750.944 1136.77 756.339 1117.21 758.239 1090.49 z" fill="rgb(247,139,151)" transform="translate(0,0)"></path>
<path d="M 1366.24 1097.09 C 1379.57 1101.71 1393.61 1109.55 1406.89 1114.05 C 1460.03 1132.05 1522.39 1137.3 1503.01 1213.42 L 1486.26 1223.57 C 1475.36 1229.68 1462.76 1237.89 1451.97 1244.54 C 1445.25 1209.23 1421.98 1157.24 1398.45 1129.42 C 1387.75 1116.76 1377.72 1108.33 1366.24 1097.09 z" fill="rgb(255,255,255)" transform="translate(0,0)"></path>
<path d="M 1361.94 1330.58 C 1388.41 1343.73 1420.63 1352.05 1448.01 1363.1 C 1484.82 1377.97 1521.04 1391.29 1558.66 1403.94 L 1552.66 1432.85 C 1551.82 1436.59 1552.85 1435.38 1550.36 1437.27 C 1544.02 1437.15 1492.14 1414.19 1482.22 1410.32 L 1362.03 1364.34 L 1361.94 1330.58 z" fill="rgb(86,168,187)" transform="translate(0,0)"></path>
<path d="M 1361.48 1318.91 L 1454.89 1260.83 C 1490.38 1238.39 1522.95 1215.79 1560.03 1195.47 C 1579.13 1185.01 1594.03 1173.68 1614.67 1163.67 C 1613.16 1169.97 1611.35 1176.11 1609.55 1182.33 C 1587.37 1194.79 1567.34 1210.72 1546.13 1224.7 C 1522.5 1240.27 1419.01 1302.24 1406.81 1319.98 C 1414.26 1323.61 1423.92 1327.18 1431.75 1330.31 C 1437.84 1332.5 1444.85 1334.84 1450.77 1337.26 C 1448.7 1341.93 1449.99 1344.75 1450.64 1349.74 L 1428.81 1342.05 C 1406.19 1334.88 1383.74 1327.16 1361.48 1318.91 z" fill="rgb(137,212,234)" transform="translate(0,0)"></path>
<path d="M 503.286 614.966 C 513.736 619.202 522.499 622.705 532.571 627.825 C 528.29 645.685 522.589 665.595 512.509 681.139 C 483.839 675.746 490.241 682.301 470.464 698.411 C 467.647 700.952 464.968 703.922 461.657 705.369 C 467.057 719.355 469.602 724.355 479.554 735.409 C 459.823 746.126 438.674 753.58 417.418 760.576 C 412.414 754.557 407.078 748.756 401.827 742.944 C 396.146 744.305 376.81 748.386 373.483 742.909 C 378.91 736.359 436.664 734.439 459.264 705.236 C 462.56 702.359 465.98 698.924 469.166 695.868 C 487.251 675.225 496.853 641.66 503.286 614.966 z" fill="rgb(137,212,234)" transform="translate(0,0)"></path>
<path d="M 864.745 668.857 L 865.632 670.052 C 855.489 688.856 855.54 688.565 848.516 708.861 C 828.056 767.975 839.829 862.597 870.007 918.324 C 868.52 922.718 866.436 931.042 862.994 933.287 L 861.264 930.752 C 832.556 866.043 814.748 800.35 824.831 729.065 C 826.674 716.031 828.621 701.3 832.989 688.962 C 843.48 682.113 854.067 675.411 864.745 668.857 z" fill="rgb(137,212,234)" transform="translate(0,0)"></path>
<path d="M 1605.42 1192.92 L 1606.5 1194.42 L 1600.89 1215.39 C 1575.88 1209.74 1564.5 1230.4 1554.97 1249.62 C 1541.78 1257.46 1521.88 1273.28 1508.19 1282.8 C 1487.33 1297.32 1465.48 1311.76 1445.14 1326.76 L 1430.76 1321.43 C 1427.34 1320.14 1423.88 1318.61 1420.51 1317.18 C 1450.8 1296.25 1483.02 1276.78 1513.09 1255.25 C 1524.35 1247.19 1535.56 1238.87 1546.89 1230.97 C 1566.07 1217.78 1585.58 1205.09 1605.42 1192.92 z" fill="rgb(255,255,255)" transform="translate(0,0)"></path>
<path d="M 1917 984.735 C 1919.7 985.087 1925.82 988.309 1928.65 989.634 C 1899.5 1008.71 1863.93 1026.74 1833.12 1043.83 C 1771.65 1078.38 1709.72 1112.13 1647.37 1145.07 L 1645.5 1146.5 C 1641.65 1147.09 1643.42 1147.36 1639.97 1145.9 C 1637.65 1142.72 1638.33 1144.45 1637.9 1140.5 C 1640.33 1135.49 1645.49 1133.06 1650.42 1130.37 C 1738.89 1082.02 1830.46 1036.49 1917 984.735 z" fill="rgb(255,255,255)" transform="translate(0,0)"></path>
<path d="M 1636.89 1146.73 C 1640.28 1147.73 1641.23 1148.02 1644.4 1149.49 C 1645.75 1151.7 1645.59 1154.33 1645.03 1156.8 C 1624.77 1247.8 1599.24 1337.83 1580.52 1429.08 C 1579.58 1433.68 1577.42 1434.11 1573.59 1436.75 C 1571.31 1438.19 1571.9 1437.87 1569.39 1438.77 L 1567.93 1437.63 C 1566.55 1427.38 1594.83 1318.4 1599.22 1300.54 L 1636.89 1146.73 z" fill="rgb(255,255,255)" transform="translate(0,0)"></path>
<path d="M 1252.55 1184.05 C 1272.98 1188.98 1284.53 1197.87 1297.57 1214.37 C 1320.8 1243.78 1347.53 1313.38 1342.84 1350.5 L 1341.53 1349.7 C 1323.52 1301.07 1295.9 1225.38 1248.34 1200.29 C 1249.55 1193.65 1250.53 1190.42 1252.55 1184.05 z" fill="rgb(247,139,151)" transform="translate(0,0)"></path>
<path d="M 487.97 611.378 L 491.046 611.393 C 491.975 613.829 490.334 618.164 489.401 621.124 C 475.232 666.087 472.129 689.991 429.406 714.118 C 428.686 714.073 427.254 713.666 426.488 713.481 L 425.196 711.036 C 424.429 693.936 449.944 639.978 460.498 623.164 C 466.045 614.328 478.29 612.764 487.97 611.378 z" fill="rgb(137,212,234)" transform="translate(0,0)"></path>
<path d="M 1365.72 1381.69 C 1365.97 1381.75 1366.22 1381.82 1366.48 1381.88 C 1397.41 1393.08 1427.59 1406.42 1458.37 1418.07 C 1462.84 1419.76 1479.56 1425.6 1481.72 1429.41 L 1479.81 1431.04 C 1435.24 1443.21 1384.24 1426.1 1365.72 1381.69 z" fill="rgb(255,255,255)" transform="translate(0,0)"></path>
<path d="M 1450.77 1337.26 L 1527.99 1366.89 C 1538.26 1370.79 1548.78 1374.31 1558.88 1378.51 C 1562.65 1380.08 1563.95 1384.57 1561.94 1388.22 C 1550.22 1392 1470.36 1353.4 1450.64 1349.74 C 1449.99 1344.75 1448.7 1341.93 1450.77 1337.26 z" fill="rgb(255,255,255)" transform="translate(0,0)"></path>
<path d="M 389.603 409.47 C 405.06 412.26 444.355 424.854 459.983 430.799 C 456.595 438.102 446.256 457.593 449.837 465.171 C 452.498 470.801 465.012 479.158 467.25 485.476 L 465.52 487.646 C 454.838 480.684 444.322 469.806 432.817 465.003 C 435.013 460.845 444.323 442.469 444.217 440.025 C 443.741 429.05 395.918 422.641 388.488 415.059 L 389.603 409.47 z" fill="rgb(137,212,234)" transform="translate(0,0)"></path>
<path d="M 1589.63 1222.2 C 1593.18 1222.35 1594.68 1222.59 1598.2 1223.24 L 1598.71 1224.67 C 1597.63 1232.17 1594.91 1246.25 1592.08 1253.69 C 1592.1 1253.64 1580.62 1259.98 1578.44 1262.37 C 1574.67 1266.5 1573.21 1266.48 1568.46 1266.66 C 1564.61 1265.1 1560.45 1263.78 1558.26 1260.33 C 1557.32 1248.42 1579.54 1226.76 1589.63 1222.2 z" fill="rgb(255,255,255)" transform="translate(0,0)"></path>
<path d="M 975.507 356.697 C 980.071 361.127 975.1 365.298 988.427 373.961 C 984.88 374.978 980.2 376.739 977.791 379.913 C 969.229 391.195 963.178 418.94 975.353 429.557 C 979.522 433.193 985.168 432.437 990.337 431.877 L 992.282 431.652 L 991.492 433.126 C 983.313 438.98 965.191 448.957 961.005 434.731 C 954.661 413.176 967.655 375.599 975.507 356.697 z" fill="rgb(255,255,255)" transform="translate(0,0)"></path>
<path d="M 537.32 615.076 C 543.067 615.55 552.286 617.833 558.228 619.127 C 556.637 641.524 543.402 674.439 532.036 693.587 C 528.587 692.593 524.302 691.804 520.739 691.049 C 535.766 675.231 542.278 644.764 548.675 623.309 C 544.703 621.304 540.035 618.575 537.32 615.076 z" fill="rgb(137,212,234)" transform="translate(0,0)"></path>
<path d="M 1575.77 1317.92 L 1576.55 1319.09 C 1575.32 1326.36 1573.34 1333.65 1571.53 1340.81 C 1560.88 1346.99 1552 1355.39 1543.08 1363.76 L 1534.75 1360.43 C 1531.64 1359.08 1528.72 1358.27 1526.7 1355.68 C 1531.99 1350.9 1541.66 1344.78 1547.84 1340.49 C 1558.47 1333.1 1566.4 1326.87 1575.77 1317.92 z" fill="rgb(255,255,255)" transform="translate(0,0)"></path>
<path d="M 520.253 542.963 C 522.378 544.351 525.319 551.109 526.792 553.919 C 522.159 556.198 516.162 558.625 511.356 560.704 C 512.829 569.609 518.372 601.744 515.591 608.252 L 513.597 608.393 C 512.447 607.855 508.47 605.928 508.271 604.93 C 504.816 587.589 510.142 574.514 499.223 558.19 C 505.363 553.271 513.73 547.63 520.253 542.963 z" fill="rgb(137,212,234)" transform="translate(0,0)"></path>
<path d="M 1548.34 1264.82 C 1551.67 1265.53 1562.55 1272.81 1567.14 1274.06 C 1574.13 1275.97 1583.75 1269.95 1589.93 1266.72 C 1588.39 1274.34 1585.79 1282.4 1583.55 1289.9 C 1577.15 1286.28 1574.16 1284.59 1567.33 1281.98 C 1565.18 1281.27 1558.12 1279.18 1556.67 1277.66 C 1554.91 1275.8 1558.27 1276.74 1558.16 1272.71 C 1542.3 1267.9 1542.42 1293.88 1524.07 1281.86 L 1548.34 1264.82 z" fill="rgb(255,255,255)" transform="translate(0,0)"></path>
<path d="M 1530.61 1323.81 C 1535.05 1323.91 1543.64 1328.49 1547.96 1330.54 C 1538.3 1337.8 1528.06 1345.12 1519.17 1353.26 C 1516.21 1352.75 1505.05 1348.08 1501.59 1346.71 C 1509.6 1338.75 1521.35 1330.56 1530.61 1323.81 z" fill="rgb(255,255,255)" transform="translate(0,0)"></path>
<path d="M 1571.43 1293.84 C 1576.12 1294.64 1578.11 1296.13 1579.25 1300.51 C 1577.18 1310.04 1563.92 1317.57 1556.48 1323.42 C 1554.01 1325.35 1552.6 1324.5 1550.2 1323.84 L 1536.55 1318.19 C 1546.98 1310.03 1560.31 1301.4 1571.43 1293.84 z" fill="rgb(255,255,255)" transform="translate(0,0)"></path>
<path d="M 506.359 480.569 C 510.156 480.674 511.647 480.583 514.365 483.401 C 522.721 492.066 544.158 541.005 544.009 550.535 C 541.78 551.026 541.937 551.02 539.699 550.56 C 528.734 529.125 516.115 502.588 506.359 480.569 z" fill="rgb(137,212,234)" transform="translate(0,0)"></path>
<path d="M 1484.63 1308.83 C 1487.4 1310.18 1494.12 1314.7 1497.04 1316.53 C 1488.03 1322.75 1479.72 1329.21 1470.91 1335.62 L 1468.78 1334.95 L 1452.69 1328.98 C 1462.95 1321.66 1473.61 1314.93 1484.63 1308.83 z" fill="rgb(255,255,255)" transform="translate(0,0)"></path>
<path d="M 1511.4 1315.83 C 1515.54 1317.14 1515.84 1317.14 1519.15 1319.8 C 1519.58 1322.44 1499.79 1339.6 1495.49 1344.23 L 1492.77 1343.44 L 1479.29 1338.76 C 1489.48 1330.89 1500.79 1323.25 1511.4 1315.83 z" fill="rgb(255,255,255)" transform="translate(0,0)"></path>
<path d="M 1517.05 1286.77 C 1520.61 1287.01 1526.76 1290.93 1530.08 1292.8 C 1524.38 1297.56 1511.83 1306 1505.3 1310.8 C 1500.94 1309.37 1495.18 1306.76 1490.82 1304.95 L 1517.05 1286.77 z" fill="rgb(255,255,255)" transform="translate(0,0)"></path>
<path d="M 484.877 694.625 C 489.415 694.837 494.309 696.721 498.732 698.116 C 494.865 707.324 494.187 718.873 491.605 724.211 C 486.138 717.305 481.155 710.975 475.194 704.44 C 478.59 700.35 481.017 698.195 484.877 694.625 z" fill="rgb(255,255,255)" transform="translate(0,0)"></path>
<path d="M 863.975 603.056 C 873.923 602.542 881.594 607.328 886.604 616.137 C 888.198 618.939 886.462 620.797 885.193 623.539 C 873.955 625.919 861.863 611.479 863.975 603.056 z" fill="rgb(255,255,255)" transform="translate(0,0)"></path>
<path d="M 1548.72 1281.76 C 1552.92 1282.25 1560.81 1286.89 1564.81 1289.05 L 1551.83 1298.12 C 1549.58 1299.18 1539.6 1292.17 1537.06 1290.62 L 1548.72 1281.76 z" fill="rgb(255,255,255)" transform="translate(0,0)"></path>
<path d="M 1535.98 1297.81 C 1539.62 1298.87 1541.19 1299.64 1542.52 1303.05 C 1540.89 1308.44 1531.75 1314.98 1526.55 1315.93 L 1516.58 1311.27 C 1522.78 1307.33 1529.88 1302.08 1535.98 1297.81 z" fill="rgb(255,255,255)" transform="translate(0,0)"></path>
<path d="M 980.213 394.623 C 992.677 394.473 991.947 403.427 986.355 411.748 C 974.193 412.846 974.388 402.323 980.213 394.623 z" fill="rgb(255,255,255)" transform="translate(0,0)"></path>
<path d="M 1569.02 1348.93 C 1569.15 1353.54 1566.08 1364.71 1564.86 1369.77 C 1561.02 1368.88 1557.03 1367.75 1553.2 1366.73 L 1551.55 1365.56 C 1552.41 1361.02 1564.77 1352.27 1569.02 1348.93 z" fill="rgb(255,255,255)" transform="translate(0,0)"></path>
<path d="M 1005.68 381.922 C 1008.26 382.804 1008.5 382.611 1010.28 384.57 C 1011.39 389.898 1009.46 395.676 1008.34 401.354 L 1007.14 402.505 C 1005.92 399.634 1005.82 385.948 1005.68 381.922 z" fill="rgb(255,255,255)" transform="translate(0,0)"></path>
<metadata><recraft-signature>{"signed_by": "recraft", "signature_b64": "6vRLp1Vve3LURmkZmuArBhG/SXd2QC7Qqz/EZ1NEhT4TFdgeyj7PXiNiZw+B1U/csWiWRsDHhKaEujQ9DBT7CQ==", "signing_algo": "Ed25519", "generation_timestamp": 1771192977, "identifier": "cb78284c-7f31-4556-bc8a-c66212e2b4ae"}</recraft-signature></metadata></svg>