<svg xmlns="http://www.w3.org/2000/svg" height="1024" preserveAspectRatio="none" style="display: block;" version="1.1" viewBox="0 0 2048 2048" width="1024">
<path d="M 0 0 L 2048 0 L 2048 2048 L 0 2048 L 0 0 z" fill="rgb(255,255,255)" transform="translate(0,0)"></path>
<path d="M 284.285 366.781 C 307.302 369.255 343.905 379.629 367.275 385.567 C 371.238 393.632 376.165 401.248 380.514 409.098 C 397.399 439.568 414.285 470.047 431.66 500.226 C 437.52 510.405 456.161 538.516 456.704 549.307 C 450.468 554.456 399.051 570.641 387.193 574.991 C 395.324 590.248 401.541 611.969 407.754 628.492 C 419.382 659.416 429.807 691.142 441.496 722.014 C 469.373 722.747 488.595 728.249 514.653 738.871 C 621.395 782.379 685.319 880.239 763.775 959.133 C 801.683 997.253 840.733 1031.64 881.301 1066.24 C 873.08 1041.82 867.545 1023.93 869.687 997.59 C 873.634 949.056 899.882 912.649 936.044 882.081 C 934.904 874.163 934.841 863.256 934.73 855.044 C 933.642 803.847 945.845 753.242 970.149 708.168 C 947.748 699.918 923.452 679.034 910.49 658.896 C 933.164 674.622 951.188 684.383 976.476 695.903 C 979.211 689.667 983.556 684.194 986.235 677.984 C 992.257 664.027 995.457 645.174 998.075 630.153 C 991.652 632.494 983.426 635.284 977.643 629.701 C 964.368 616.885 978.493 590.815 988.145 579.501 C 996.857 569.287 1010.88 561.767 1024.39 561.358 C 1040.9 560.687 1051.2 568.819 1062.39 579.281 C 1068.51 566.795 1078.63 554.434 1087.81 543.822 C 1151.1 470.655 1243.17 416.489 1335.49 389.139 C 1437.37 358.96 1554.99 359.515 1654.54 397.864 C 1742.69 431.823 1820.28 499.248 1857.83 586.922 C 1881.69 642.657 1888.73 699.509 1884.55 759.319 C 1873.67 914.936 1768.67 1006.66 1650.62 1092.28 C 1631.32 1106.28 1609.82 1120.05 1591.07 1133.91 C 1545.47 1167.61 1501.8 1214.19 1481.27 1267.64 C 1484.34 1275.71 1487.97 1283.38 1492.16 1291.21 C 1539.97 1379.93 1596.73 1479.77 1697.58 1514.94 C 1726.71 1525.1 1774.05 1522.05 1783 1486.11 C 1793.01 1445.88 1743.02 1404.87 1716.58 1380.91 C 1706.33 1371.75 1696.42 1362.23 1686.85 1352.36 C 1646.17 1311.07 1601.27 1253.79 1618.28 1191.99 C 1636.6 1121.94 1721.23 1096.59 1785.67 1103.89 C 1828.57 1108.74 1893.9 1132.68 1915.92 1172.44 C 1865.65 1169.83 1794.81 1156.57 1752.67 1189.47 C 1733.01 1208.23 1746.87 1231.62 1760.34 1248.41 C 1825.85 1330.06 1964.51 1395.19 1964.72 1512.55 C 1964.94 1628.77 1829.63 1722.57 1722.42 1722.12 C 1632.79 1721.74 1547.71 1668.25 1486.62 1606 C 1499.98 1654.26 1529.35 1696.26 1565.85 1730.46 C 1632.84 1793.22 1716.22 1803.04 1803.71 1790.72 C 1830.21 1786.75 1856.43 1779.11 1883.09 1776.7 C 1889.37 1775.51 1904.46 1779.42 1902.38 1788.54 C 1895.24 1819.78 1851.04 1843.86 1826.89 1857.52 C 1761.67 1894.43 1697.5 1901.17 1624.24 1898.51 C 1619.99 1897.57 1612.93 1897.31 1608.32 1896.78 C 1485.68 1882.68 1366.52 1810.72 1317.11 1694.25 C 1293.93 1639.6 1283.03 1577.18 1270.66 1519.19 C 1265.86 1496.7 1263.62 1472.62 1258.34 1450.2 C 1230.92 1508.3 1214.72 1568.39 1199.24 1630.43 C 1225.5 1665.47 1253.46 1699.23 1278.54 1735.06 C 1282.97 1741.38 1292.72 1759.44 1279.33 1761.56 C 1249.24 1766.32 1210.58 1748.37 1183.93 1735.74 C 1153.66 1835.81 1113.66 1900.07 1013.72 1944.63 C 884.726 2002.14 701.682 1976.93 639.151 1835.94 C 612.431 1775.69 620.765 1701.42 644.47 1641.61 C 632.125 1650.99 619.398 1664.56 607.737 1675.25 C 542.489 1735.07 463.697 1773.65 373.493 1770.56 C 293.171 1767.82 216.099 1737.66 161.108 1678.19 C 110.708 1623.84 83.9602 1551.69 86.7469 1477.62 C 92.0396 1331.36 207.143 1230.76 342.924 1197.91 C 356.483 1194.63 400.669 1185.64 411.743 1198.07 C 415.207 1206.03 409.276 1210.19 402.873 1213.96 C 389.73 1221.69 375.524 1228.08 361.912 1235.03 C 343.835 1244.4 326.54 1255.2 310.192 1267.33 C 272.18 1295.29 235.194 1330.79 219.842 1376.38 C 208.484 1410.12 210.205 1459.42 226.324 1491.31 C 242.557 1523.43 270.493 1545.99 304.54 1556.74 C 418.355 1592.68 540.518 1478.64 617.478 1408.17 C 639.251 1388.52 661.158 1369.03 683.195 1349.68 C 705.541 1330.03 731.481 1309.82 755.365 1291.97 C 780.746 1273 814.001 1247.82 841.809 1233.49 C 817.574 1223.04 787.786 1200.89 765.226 1186.11 C 701.251 1144.2 639.591 1097.81 578.573 1051.73 C 570.903 1045.94 561.455 1039.68 555.125 1032.62 L 546.443 1041.47 C 553.733 1057.72 565.048 1096.13 570.489 1113.9 L 601.417 1212.19 C 605.82 1214.23 610.166 1216.39 614.449 1218.67 C 635.353 1229.72 650.992 1248.64 657.906 1271.25 C 664.998 1295.73 662.164 1322.02 650.017 1344.43 C 638.179 1365.71 618.477 1381.51 595.132 1388.44 C 573.215 1394.71 549.727 1391.15 529.951 1380.1 C 508.665 1368.18 493.077 1348.19 486.705 1324.65 C 480.239 1301.54 483.342 1276.81 495.316 1256.02 C 476.571 1205.56 463.206 1155.87 446.245 1105.68 C 431.725 1108.81 416.8 1110.57 401.929 1109.81 C 359.55 1107.26 319.944 1087.9 291.893 1056.03 C 268.117 1029.28 257.566 999.614 253.961 964.522 C 245.952 886.567 278.595 824.392 335.898 774.195 C 315.921 722.939 295.776 663.336 277.929 611.016 C 268.4 614.695 225.757 632.025 218.463 633.161 C 210.608 620.734 188.965 475.094 183.613 450.403 C 203.56 427.91 221.133 404.424 241.786 381.782 C 259.721 415.024 269.047 467.515 282.186 503.942 C 297.298 498.709 312.467 493.643 327.69 488.744 C 325.323 482.832 322.87 475.68 320.876 469.597 C 309.59 435.154 294.444 401.56 284.285 366.781 z" fill="rgb(59,62,115)" transform="translate(0,0)"></path>
<path d="M 1500.42 398.437 C 1647.04 401.886 1786.93 471.962 1834.22 620.494 C 1851.19 673.803 1853.67 735.281 1844.43 790.317 C 1840.59 813.249 1832.95 838.077 1824.46 859.674 C 1772.43 980.086 1650.61 1044.37 1557.87 1129.25 C 1523.23 1160.96 1494.07 1190.92 1472.29 1233.58 C 1418.83 1338.29 1421.16 1486.75 1455 1596.68 C 1481.21 1681.82 1525.25 1750.37 1606.88 1791.18 C 1669.76 1822.62 1752.13 1828.42 1820.47 1813.74 C 1838.43 1809.88 1861.54 1801.44 1879.61 1795.35 C 1833.09 1840.24 1766.15 1857.3 1702.79 1858.86 C 1630.58 1860.63 1569.56 1847.46 1508.5 1807.54 C 1421.67 1750.76 1385.6 1659.02 1363.89 1562.07 C 1350.4 1501.82 1344.74 1416.36 1298.97 1373.25 C 1311.8 1357.91 1330.8 1334.43 1346.32 1322.35 C 1341.37 1324.52 1336.46 1326.81 1331.6 1329.2 C 1231.31 1379.4 1211.17 1504.16 1179.22 1599.9 C 1162.69 1583.31 1147.48 1565.71 1130.28 1548.68 C 1138.32 1510.67 1145.61 1451.98 1149.22 1413.08 C 1151.08 1378.77 1157.54 1303.1 1133.85 1276.76 C 1106.78 1246.68 1026.77 1267.03 994.482 1277.6 C 829.213 1331.71 730.277 1480.14 604.133 1589.18 C 536.758 1647.42 459.604 1688.9 367.524 1679.71 C 298.54 1673.26 233.257 1640.17 187.479 1587.94 C 147.739 1542.6 126.258 1472.79 130.834 1412.98 C 131.075 1401.46 131.576 1389.6 136.186 1378.94 C 174.567 1290.16 290.184 1222.83 381.149 1207.75 C 360.473 1217.07 342.782 1224.88 322.758 1235.81 C 237.513 1282.31 163.615 1360.97 185.929 1465.92 C 194.95 1509.93 221.285 1548.47 259.012 1572.86 C 336.806 1622.85 437.321 1591.6 508.777 1545.05 C 545.074 1520.58 575.429 1490.17 607.455 1460.49 C 712.179 1363.46 815.519 1262.68 945.627 1199.91 C 960.703 1192.63 974.925 1188 990.545 1182.89 C 1009.69 1176.63 1028.27 1175.09 1047.59 1170.8 C 1011.88 1163.67 975.949 1173.38 942.045 1183.95 C 925.794 1172.36 903.668 1160.16 886.23 1148.83 C 846.678 1123.13 807.899 1096.27 769.946 1068.27 C 709.446 1023.92 652.671 972.794 593.18 929.098 C 593.542 891.293 586.36 847.267 562.905 816.029 C 558.428 810.067 548.793 795.56 540.321 798.476 C 537.086 801.695 536.228 805.069 534.529 809.367 C 507.07 791.14 496.317 788.898 464.586 785.701 C 459.865 772.23 455.344 758.69 451.025 745.084 C 457.445 746.629 464.072 747.609 470.571 749.114 C 593.756 777.646 670.681 890.332 753.043 976.322 C 805.192 1030.77 858.499 1079.33 925.15 1114.93 C 949.921 1128.16 973.939 1141.51 1000.99 1148.58 C 982.881 1136.38 961.767 1126.81 945.296 1112.03 C 917.017 1086.65 898.039 1054.06 896.204 1015.46 C 894.144 972.144 917.959 935.73 945.311 904.004 C 945.902 904.68 946.498 905.351 947.099 906.017 C 970.64 932.078 1023.29 936.529 1049.02 912.34 C 1070.91 891.772 1090.18 855.885 1092.06 825.486 C 1093.75 798.263 1060.31 786.023 1045.19 768.458 C 1022.53 742.69 1005.19 704.356 1005.83 669.515 C 1006.15 651.666 1008.93 631.953 1009.58 613.501 C 1004.19 616.125 995.076 621.888 989.823 617.577 C 988.977 608.94 1004.02 597.694 1010.86 594.069 C 1038.93 579.038 1057.5 613.433 1067.21 634.057 C 1077.35 655.614 1084.59 678.151 1090.6 701.156 C 1092.31 707.705 1094.03 715.794 1097.04 721.711 C 1100.8 694.781 1092.38 636.914 1078.49 613.776 C 1128.15 548.952 1181.79 501.94 1254.43 464.482 C 1253.67 465.793 1252.95 467.125 1252.26 468.476 C 1249.2 474.645 1248.92 484.706 1256.89 486.56 C 1279.59 491.847 1321.34 475.923 1331.83 454.577 C 1336.51 445.062 1324.97 439.012 1316.92 436.493 C 1378.7 407.578 1433.71 400.402 1500.42 398.437 z" fill="rgb(247,139,151)" transform="translate(0,0)"></path>
<path d="M 1413.74 614.561 C 1428.5 613.147 1439.72 614.715 1454.07 618.006 C 1443.3 619.282 1431.52 619.434 1420.44 620.825 C 1388.79 624.797 1365.93 632.326 1337.94 646.423 C 1342.87 648.82 1347.47 651.832 1351.63 655.387 C 1372.96 673.303 1381.59 699.578 1383.39 726.994 C 1387.48 789.291 1361.32 846.664 1322.23 893.446 C 1301.84 917.851 1270.33 940.334 1238.21 941.22 C 1212.38 941.933 1197.15 942.016 1177.21 924.713 C 1143.51 889.051 1154.74 833.461 1168.19 791.108 C 1151.79 804.847 1138.64 812.528 1118.48 818.99 C 1155.63 793.497 1179.73 763.986 1209.64 730.746 C 1263.83 670.528 1329.72 620.028 1413.74 614.561 z" fill="rgb(59,62,115)" transform="translate(0,0)"></path>
<path d="M 1317.69 656.874 C 1322.2 656.798 1329.83 660.525 1333.57 662.944 C 1388.04 698.539 1370.99 787.179 1346.49 835.771 C 1323.58 881.216 1297.57 920.282 1245.26 931.992 C 1254.57 925.666 1264.61 919.141 1272.76 911.445 C 1294.4 891.001 1314.92 853.039 1321.95 824.481 C 1310.62 831.948 1285.19 848.409 1271.9 835.993 C 1258.95 823.898 1272.17 801.858 1282.71 792.121 C 1295.75 780.074 1307.42 776.932 1324.68 777.26 C 1324.69 768.902 1324.29 761.083 1323.87 752.757 L 1322.76 735.987 C 1297.62 744.354 1230.08 771.865 1207.23 785.866 C 1191.89 829.923 1178.09 897.954 1217.18 933.471 C 1153.84 925.762 1162.33 854.208 1173.59 808.935 C 1180.65 780.605 1189.34 770.127 1208 749.265 C 1239.47 714.071 1276.28 679.991 1317.69 656.874 z" fill="rgb(255,255,255)" transform="translate(0,0)"></path>
<path d="M 1373.62 930.12 C 1433.19 987.39 1411.57 1067.23 1331.93 1088.32 C 1274.99 1103.39 1215.52 1094.85 1164.2 1066.11 C 1125.1 1068.24 1101.29 1067.96 1063.75 1054.49 C 1043.69 1046.13 1029.45 1038.05 1013.87 1022.72 C 1023.7 1026.89 1034.32 1032.93 1044.35 1037.47 C 1067.64 1047.75 1092.57 1053.82 1117.98 1055.4 C 1200.06 1060.79 1269.68 1020.05 1330.64 969.706 C 1345.65 957.312 1358.94 942.955 1373.62 930.12 z" fill="rgb(59,62,115)" transform="translate(0,0)"></path>
<path d="M 1317.07 996.991 C 1320.53 1000.4 1324.42 1009.29 1328.15 1013.74 C 1341.13 1029.2 1354.46 1042.16 1369.33 1055.63 C 1344.41 1074.23 1317.19 1079.7 1286.84 1082.05 C 1271.45 1082.1 1260.16 1081.13 1245.08 1078.87 C 1240.57 1069.01 1234.76 1057.72 1232.11 1047.42 C 1267.56 1030.03 1284.59 1017.13 1317.07 996.991 z" fill="rgb(255,255,255)" transform="translate(0,0)"></path>
<path d="M 1372.35 948.12 C 1384.86 957.78 1394.11 982.957 1394.88 998.556 C 1395.81 1017.18 1390.06 1032.47 1377.85 1046.32 C 1372.87 1042.49 1368.18 1038.21 1363.46 1034.05 C 1348.7 1020.14 1335.61 1008.51 1325.97 990.473 C 1340.37 976.551 1356.72 963.36 1372.35 948.12 z" fill="rgb(255,255,255)" transform="translate(0,0)"></path>
<path d="M 1220.4 1051 L 1221.51 1051.46 C 1225 1057.55 1229.8 1070.36 1232.64 1077.31 C 1223.13 1075.21 1213.72 1072.63 1204.3 1070.13 C 1198.08 1068.47 1190.94 1065.24 1184.9 1062.71 C 1197.49 1059.5 1208.36 1055.58 1220.4 1051 z" fill="rgb(255,255,255)" transform="translate(0,0)"></path>
<path d="M 1403.61 476.402 C 1448.17 473.495 1437.49 505.472 1407.16 517.743 C 1394.79 522.747 1387.03 524.214 1373.76 525.935 C 1359.97 526.04 1329.29 524.528 1347.18 502.496 C 1360.18 486.482 1383.45 478.173 1403.61 476.402 z" fill="rgb(59,62,115)" transform="translate(0,0)"></path>
<path d="M 1403.13 483.451 C 1407.51 484.376 1425.05 482.69 1425.15 490.085 C 1425.42 509.999 1389.03 516.816 1374.55 519.17 C 1367.54 519.365 1354.21 519.204 1349.53 513.396 C 1348.95 496.81 1390.55 485.539 1403.13 483.451 z" fill="rgb(255,255,255)" transform="translate(0,0)"></path>
<path d="M 1193.22 518.347 C 1202.57 517.831 1221.26 521.201 1216.44 534.22 C 1208.35 556.072 1179.51 569.523 1158.81 574.823 C 1104.68 577.419 1154.01 522.462 1193.22 518.347 z" fill="rgb(59,62,115)" transform="translate(0,0)"></path>
<path d="M 1191.15 525.165 C 1197.42 524.98 1205.29 524.508 1208.48 530.963 C 1209.3 547.452 1174.67 563.058 1161.06 566.771 C 1154.63 567.508 1145.65 569.01 1142.77 561.853 C 1144.06 545.259 1176.62 528.745 1191.15 525.165 z" fill="rgb(255,255,255)" transform="translate(0,0)"></path>
<path d="M 1464.53 405.392 C 1474.1 403.732 1481.52 405.708 1490.38 408.745 C 1518.16 436.29 1462.62 448.514 1443.75 449.315 C 1435.64 449.497 1408.55 447.947 1409.63 435.873 C 1411.57 414.279 1447.32 407.278 1464.53 405.392 z" fill="rgb(59,62,115)" transform="translate(0,0)"></path>
<path d="M 1460.92 412.386 C 1509.98 407.734 1491.03 438.13 1449.1 441.986 C 1440.58 442.988 1420.62 444.271 1417.98 434.192 C 1421.43 419.414 1447.88 413.937 1460.92 412.386 z" fill="rgb(255,255,255)" transform="translate(0,0)"></path>
<path d="M 1761.67 800.093 C 1777.86 799.414 1778.02 810.771 1773.21 822.657 C 1764 845.416 1747.31 866.306 1724.71 876.693 C 1706.91 878.291 1708.45 865.199 1713.4 852.928 C 1722.39 830.664 1739.51 809.962 1761.67 800.093 z" fill="rgb(59,62,115)" transform="translate(0,0)"></path>
<path d="M 1676.62 862.964 C 1695.21 863.083 1689.23 882.59 1683.84 893.096 C 1674.49 911.334 1660.27 929 1640.5 935.847 C 1621.95 937.13 1626.79 922.405 1631.64 911.28 C 1639.92 892.295 1656.85 870.568 1676.62 862.964 z" fill="rgb(59,62,115)" transform="translate(0,0)"></path>
<path d="M 1140.27 722.083 C 1165.47 667.124 1220.85 620.239 1277.01 599.795 C 1309.34 588.026 1355.64 578.401 1389.94 586.239 C 1395.48 587.637 1399.88 588.443 1404.97 591.088 L 1388.22 588.951 C 1312.69 586.563 1235.16 621.111 1181.98 674.149 C 1166.01 690.081 1154.45 704.841 1140.27 722.083 z" fill="rgb(59,62,115)" transform="translate(0,0)"></path>
<path d="M 1690.5 936.172 C 1707.42 934.072 1705.67 944.481 1699.95 956.232 C 1691.56 973.484 1674.95 991.83 1656.58 998.276 C 1651.53 998.839 1648.56 998.317 1645.3 994.325 C 1644.68 991.031 1644.84 988.353 1646.2 985.213 C 1654.82 965.25 1670.62 945.073 1690.5 936.172 z" fill="rgb(59,62,115)" transform="translate(0,0)"></path>
<path d="M 1777.44 874.03 C 1789.34 873.595 1791.74 880.212 1787.53 890.366 C 1779.99 908.551 1766 925.933 1747.7 933.987 C 1736.2 934.672 1732.72 928.443 1737.31 918.142 C 1745.27 900.254 1759.11 882.038 1777.44 874.03 z" fill="rgb(59,62,115)" transform="translate(0,0)"></path>
<path d="M 1765.16 1121.44 C 1802.51 1118.54 1837.13 1130.71 1869.03 1148.72 C 1858.15 1146.85 1846.97 1145.85 1835.95 1145.3 C 1801.67 1143.6 1759.48 1148.81 1733.23 1173.21 C 1724.78 1181.07 1719.25 1191.52 1718.97 1203.17 C 1717.49 1265.45 1838.84 1345.67 1879.54 1389.11 C 1910.36 1422.02 1929.03 1463.56 1927.5 1509.06 C 1926.34 1543.43 1912.19 1579.66 1886.57 1603.2 C 1852.94 1634.09 1798.65 1641.92 1754.49 1640 C 1674.76 1636.53 1602.03 1600.84 1540.18 1552.41 C 1521.21 1537.56 1503.41 1522.41 1487.15 1504.6 C 1476.09 1491.87 1468.61 1482.36 1459.06 1468.78 C 1458.94 1451.65 1456.57 1432.09 1456.99 1414.77 C 1457.95 1375.61 1461.78 1337.52 1470.82 1299.48 C 1478.2 1313.46 1484.32 1327.85 1492.26 1341.94 C 1521.49 1392.97 1557.85 1439.56 1600.26 1480.3 C 1644.88 1522.35 1737.25 1580.05 1794.1 1522.27 C 1805.71 1510.47 1815.5 1488.19 1813.88 1471.19 C 1808.78 1417.6 1754.43 1380.19 1717.87 1346.81 C 1680.59 1312.28 1643.06 1270.06 1640.78 1216.78 C 1637.79 1147.06 1706.91 1123.67 1765.16 1121.44 z" fill="rgb(247,139,151)" transform="translate(0,0)"></path>
<path d="M 1160.67 1728.41 C 1139.26 1788.52 1122.75 1835.16 1071.38 1878.29 C 1034.04 1908.4 977.718 1941.19 928.422 1935.64 C 825.06 1923.99 763.553 1823.26 774.367 1724.57 C 782.799 1654 819.077 1589.72 875.136 1546.03 C 908.774 1519.39 955.348 1497.39 999.45 1503.12 C 1071.15 1512.44 1134.26 1586.48 1180.65 1637.02 C 1199.41 1657.46 1223.33 1684.33 1239.96 1705.66 C 1246.99 1713.83 1253.93 1722.89 1260.64 1731.38 C 1251.98 1724.13 1243.6 1715.24 1235.61 1707.16 C 1158.38 1635.94 1035.98 1540.78 925.053 1592.04 C 848.435 1627.44 797.491 1741.67 847.902 1817.55 C 881.329 1867.87 944.957 1870.53 995.367 1843.95 C 1052.59 1813.76 1086.8 1764.2 1106.67 1703.42 C 1124.17 1710.85 1143.3 1720.25 1160.67 1728.41 z" fill="rgb(247,139,151)" transform="translate(0,0)"></path>
<path d="M 904.307 1475.48 C 930.94 1473.26 964.682 1483.8 989.732 1491.68 C 949.767 1492.75 911.14 1506.31 879.281 1530.46 C 819.913 1574.55 777.248 1638.15 766.341 1712.02 C 757.825 1769.69 770.134 1828.8 805.303 1875.82 C 832.952 1912.78 874.324 1937.05 920.079 1943.14 C 885.039 1948.25 841.053 1946.33 806.726 1937.92 C 815.854 1912.67 784.563 1902.01 766.349 1894.53 C 771.192 1871.34 758.499 1849.91 746.98 1830.26 C 735.651 1813.27 725.885 1800.68 706.246 1794.25 C 663.322 1808.14 694.504 1860.63 715.461 1880.01 C 728.125 1891.73 741.367 1903.17 759.738 1900.22 C 772.04 1907.06 787.005 1911.01 796.601 1922.02 C 799.438 1925.28 801.436 1931.22 797.373 1934.17 C 774.589 1933.46 727.791 1904.72 709.982 1889.84 C 673.288 1858.86 650.472 1814.51 646.593 1766.64 C 640.394 1696.94 669.067 1625.57 712.754 1572.38 C 750.454 1526.48 814.088 1488.81 872.142 1478.97 C 882.412 1477.23 893.777 1476.37 904.307 1475.48 z" fill="rgb(137,212,234)" transform="translate(0,0)"></path>
<path d="M 706.843 1672.26 C 712.231 1672.87 718.354 1674.28 721.9 1679.06 C 739.937 1703.36 736.605 1755.84 715.543 1777.61 C 711.714 1781.57 704.816 1783.2 699.659 1782.76 C 681.387 1774.34 674.671 1764.35 671.402 1744.26 C 667.068 1717.61 674.969 1677.14 706.843 1672.26 z" fill="rgb(59,62,115)" transform="translate(0,0)"></path>
<path d="M 703.145 1681.01 C 712.706 1680.5 717.983 1684.53 720.845 1694 C 727.29 1715.32 727.615 1765.93 701.935 1774.34 L 701.097 1774.13 C 669.894 1766.04 671.532 1698.37 703.145 1681.01 z" fill="rgb(137,212,234)" transform="translate(0,0)"></path>
<path d="M 752.773 1567.02 C 784.349 1567 779.814 1601.57 769.36 1621.1 C 760.304 1638.02 751.513 1649.25 732.838 1655.4 C 685.084 1654.69 709.534 1581.16 752.773 1567.02 z" fill="rgb(59,62,115)" transform="translate(0,0)"></path>
<path d="M 754.85 1575.03 C 781.713 1581.31 763.307 1617.48 752.773 1630.85 C 746.277 1639.09 740.982 1643.24 730.923 1646.32 C 728.923 1646.14 726.744 1645.96 724.888 1645.18 C 720.74 1643.47 717.56 1640.01 716.201 1635.74 C 713.565 1627.5 718.181 1611.3 722.473 1603.97 C 730.622 1590.05 739.175 1579.89 754.85 1575.03 z" fill="rgb(137,212,234)" transform="translate(0,0)"></path>
<path d="M 852.044 1486.24 C 876.965 1483.61 878.465 1504.03 866.193 1520.34 C 851.144 1540.35 828.151 1555.7 803.237 1559.87 C 779.21 1562.04 778.376 1540.04 789.388 1524.19 C 804.089 1503.03 827.591 1491.69 852.044 1486.24 z" fill="rgb(59,62,115)" transform="translate(0,0)"></path>
<path d="M 856.291 1494.33 C 861.008 1494.74 864.106 1496.55 866.327 1500.7 C 866.446 1505.28 864.27 1508.02 861.762 1511.64 C 849.617 1529.2 821.29 1547.67 800.289 1550.98 C 784.365 1548.05 790.611 1535.82 797.376 1527.33 C 811.554 1509.53 833.793 1497.12 856.291 1494.33 z" fill="rgb(137,212,234)" transform="translate(0,0)"></path>
<path d="M 122.985 1406.61 C 117.676 1472.54 134.593 1539.05 178.15 1589.93 C 226.668 1647.28 296.06 1682.9 370.938 1688.9 C 463.359 1695.53 539.363 1656.6 608.466 1598.6 C 717.057 1507.47 800.572 1383.57 928.166 1316.93 C 955.476 1302.67 981.948 1290.05 1011.73 1281.95 C 1037.01 1274.62 1108.44 1258.53 1127.03 1283.78 C 1148.62 1313.09 1141.71 1385.42 1138.77 1421.35 C 1135.07 1454.32 1129.07 1510.11 1121.34 1540.35 L 1089.55 1515.53 C 1109.63 1498.21 1122.39 1417.4 1090 1415.78 L 1088.1 1415.68 C 1087.65 1415.67 1087.21 1415.65 1086.76 1415.64 L 1089.52 1395.41 C 1098.97 1393.6 1103.5 1391.69 1108.74 1383.02 C 1119.97 1364.43 1120.43 1338.34 1115.77 1317.58 C 1110.97 1296.21 1102.4 1288.93 1081.64 1294.68 C 1064.71 1289.32 1050.12 1290.49 1034.54 1297.03 C 1015.55 1304.99 993.598 1311.07 986.713 1331.94 C 986.348 1333.04 950.364 1351.71 945.539 1354.53 C 932.489 1342.89 916.444 1351.73 902.857 1358.65 C 886.785 1366.83 849.844 1392.69 852.217 1413.35 C 852.449 1415.32 852.808 1417.28 853.294 1419.21 C 846.331 1423.24 830.811 1435.7 827.906 1436.9 C 825.043 1433.72 824.254 1431.53 820.335 1431.6 C 804.467 1431.87 783.372 1450.29 772.199 1460.52 C 761.309 1471.27 748.811 1482.55 741.466 1496.11 C 740.395 1498.09 740.651 1508.73 739.521 1509.76 C 719.005 1528.51 701.462 1546.3 683.744 1567.78 C 656.147 1575.37 632.394 1596.14 615.418 1618.87 C 609.834 1626.35 609.942 1634.97 615.254 1642.43 C 611.049 1645.85 590.341 1664.76 587.279 1664.68 L 586.947 1663.98 C 575.155 1634.29 525.799 1675.49 511.86 1686.83 C 507.336 1690.51 505.313 1695.77 503.254 1701.19 C 504.059 1706.33 504.597 1710.6 506.067 1715.62 C 495.085 1720.82 486.944 1724.3 475.354 1728.04 C 472.648 1715.07 472.715 1713.1 461.127 1706.15 C 454.41 1705.98 443.56 1706.23 437.088 1707.89 C 413.074 1714.03 373.816 1708.04 382.944 1744.87 C 376.325 1744.72 352.497 1744.68 347.857 1742 C 351.194 1724.96 347.058 1714.06 329.793 1708 C 313.797 1702.39 286.958 1691.41 269.887 1695.64 C 263.434 1697.24 260.02 1710.45 258.337 1715.98 C 249.104 1713.22 232.573 1702.59 224.319 1697.15 C 246.593 1676.37 229.396 1659.59 210.128 1646 C 193.854 1634.52 177.133 1618.13 161.136 1639.99 C 158.169 1634.81 151.302 1625.68 147.402 1619.37 C 154.285 1613.74 155.332 1610.99 158.788 1603.1 C 158.302 1601.39 156.946 1596.49 156.095 1595.05 C 146.797 1579.3 135.985 1553.91 118.372 1547.05 C 111.292 1539.05 109.806 1482.12 110.505 1470.23 C 111.661 1448.54 115.862 1427.13 122.985 1406.61 z" fill="rgb(137,212,234)" transform="translate(0,0)"></path>
<path d="M 534.691 1052.21 C 548.746 1092.31 559.801 1132.79 572.831 1173.15 C 577.295 1186.98 584.535 1213.99 590.774 1225.85 C 633.551 1237.97 656.361 1277.34 643.996 1320.56 C 638.476 1340.48 625.132 1357.32 607.001 1367.24 C 589.392 1376.7 571.149 1378.98 552.021 1373 C 532.087 1366.82 515.494 1352.85 506.009 1334.26 C 491.65 1306.5 497.543 1282.73 510.543 1256.26 C 493.901 1205.11 475.847 1153.35 460.801 1101.87 C 467.152 1099.38 472.139 1097.6 478.022 1094.11 C 483.179 1111.95 522.647 1242.28 530.856 1248.15 L 531.642 1246.72 C 532.203 1236.47 515.982 1192.49 511.613 1179.43 L 482.937 1091.9 C 493.471 1084.84 503.845 1077.54 514.052 1070.01 C 522.65 1093.62 559.939 1219.8 568.615 1230.48 L 570.971 1230.54 L 569.903 1231.34 C 571.124 1229.82 571.954 1229.27 571.486 1226.89 C 568.437 1211.42 561.116 1194.44 556.573 1179.44 C 545.314 1142.25 530.346 1102.21 520.225 1065.04 L 534.691 1052.21 z" fill="rgb(137,212,234)" transform="translate(0,0)"></path>
<path d="M 570.821 1247.05 C 600.255 1245.13 625.65 1267.48 627.491 1296.92 C 629.332 1326.36 606.92 1351.7 577.476 1353.47 C 548.135 1355.23 522.902 1332.92 521.068 1303.58 C 519.233 1274.24 541.488 1248.95 570.821 1247.05 z" fill="rgb(59,62,115)" transform="translate(0,0)"></path>
<path d="M 568.979 1260.04 C 591.055 1257.27 611.219 1272.86 614.095 1294.92 C 616.971 1316.99 601.477 1337.23 579.428 1340.21 C 557.23 1343.21 536.823 1327.59 533.928 1305.37 C 531.032 1283.16 546.752 1262.83 568.979 1260.04 z" fill="rgb(255,255,255)" transform="translate(0,0)"></path>
<path d="M 302.153 383.69 C 312.267 384.031 344.345 395.811 359.289 397.161 C 384.14 444.908 412.528 493.11 439.806 539.55 C 393.726 558.903 341.822 572.883 294.956 591.218 C 273.484 599.618 247.852 609.304 225.939 615.965 C 222.81 600.453 220.551 582.207 218.232 566.368 L 206.055 495.352 C 204.2 484.095 201.606 464.484 198.527 454.325 C 208.024 441.353 227.224 419.615 238.105 406.518 C 244.125 419.691 251.665 447.39 255.887 461.805 C 260.668 478.125 269.248 504.536 272.041 520.594 C 284.154 517.148 346.676 497.353 353.215 492.907 C 354.624 488.346 354.661 490.476 353.802 486.291 C 349.968 482.134 342.536 482.241 340.846 480.616 C 335.744 475.711 329.026 452.587 326.727 446.334 C 318.808 425.347 310.616 404.464 302.153 383.69 z" fill="rgb(137,212,234)" transform="translate(0,0)"></path>
<path d="M 353.954 512.154 C 358.528 511.676 357.485 511.117 361.029 512.859 C 365.8 519.918 370.13 530.539 365.517 538.62 C 358.586 543.847 291.665 566.38 279.589 570.039 C 276.795 570.886 273.366 568.65 271.015 566.57 C 267.691 560.378 258.482 538.9 260.245 531.921 L 262.237 530.894 C 266.728 532.129 270.466 535.828 273.468 539.192 C 296.261 531.262 331.658 517.902 353.954 512.154 z" fill="rgb(59,62,115)" transform="translate(0,0)"></path>
<path d="M 355.054 519.102 L 356.845 519.628 C 359.759 523.87 360.461 527.488 361.94 532.419 C 352.886 537.73 336.334 543 326.013 546.59 C 310.181 552.212 294.268 557.608 278.281 562.774 C 274.589 558.226 273.829 554.366 272.245 548.845 C 292.523 540.181 333.707 525.451 355.054 519.102 z" fill="rgb(137,212,234)" transform="translate(0,0)"></path>
<path d="M 917.235 1621.84 C 920.008 1622.33 929.028 1626.45 932.254 1627.7 C 960.471 1638.58 991.377 1657.8 1018.7 1668.7 C 1011.06 1680.73 1008.2 1693.49 1003.19 1706.55 C 987.962 1746.25 976.239 1797.09 946.501 1828.24 C 945.25 1829.36 943.96 1830.43 942.633 1831.45 C 920.342 1848.34 880.621 1825.62 867.748 1805.43 C 830.447 1746.92 865.599 1658.72 917.235 1621.84 z" fill="rgb(255,255,255)" transform="translate(0,0)"></path>
<path d="M 592.582 938.465 C 696.909 1025.44 814.074 1121.1 933.005 1186.93 L 924.352 1191.5 C 910.033 1182.55 890.602 1166.68 873.257 1170.67 C 862.313 1173.19 856.43 1184.49 859.928 1195.01 C 862.874 1204.14 870.029 1208.19 877.82 1213 C 875.429 1214.27 870.766 1217.78 868.358 1219.49 C 861.444 1215.76 853.498 1211.72 846.878 1207.53 C 776.523 1163.02 708.034 1115.16 641.182 1065.56 C 617.622 1048.08 592.724 1031.13 570.865 1011.72 C 581.446 984.015 589.365 970.222 592.582 938.465 z" fill="rgb(137,212,234)" transform="translate(0,0)"></path>
<path d="M 775.987 1108.12 C 781.771 1107.86 785.773 1107.42 791.212 1109.77 C 811.731 1118.63 877.134 1158.52 832.193 1179.33 C 809.443 1182.43 727.946 1129.33 775.987 1108.12 z" fill="rgb(59,62,115)" transform="translate(0,0)"></path>
<path d="M 782.731 1114.99 C 791.885 1115.68 866.884 1158.06 827.393 1171.4 C 809.848 1169.33 740.343 1127.13 782.731 1114.99 z" fill="rgb(137,212,234)" transform="translate(0,0)"></path>
<path d="M 680.934 1043.28 C 699.368 1040.91 707.818 1049.64 722.426 1059.1 C 742.023 1071.8 761.787 1096.63 732.522 1112.3 C 713.195 1115.11 638.064 1066.43 680.934 1043.28 z" fill="rgb(59,62,115)" transform="translate(0,0)"></path>
<path d="M 683.723 1052.1 C 695.432 1050.5 704.306 1057.26 713.772 1063.29 C 725.48 1070.76 752.866 1090.51 732.57 1104.09 L 731.55 1104.09 C 716.093 1104.31 656.49 1070.52 683.723 1052.1 z" fill="rgb(137,212,234)" transform="translate(0,0)"></path>
<path d="M 598.037 977.144 C 615.322 977.251 623.252 987.623 636.596 995.405 C 655.042 1006.16 675.142 1036.51 642.632 1044.94 C 623.461 1045.67 612.201 1033.59 597.511 1023.48 C 578.388 1010.31 572.218 987.256 598.037 977.144 z" fill="rgb(59,62,115)" transform="translate(0,0)"></path>
<path d="M 596.599 985.887 C 612.023 984.979 634.082 1002.23 644.753 1012.62 C 653.048 1020.69 650.972 1028.82 642.909 1035.85 C 629 1039.73 609.498 1023.16 598.767 1014.99 C 587.056 1006.07 586.446 996.305 596.599 985.887 z" fill="rgb(137,212,234)" transform="translate(0,0)"></path>
<path d="M 342.309 799.733 C 348.501 803.237 367.43 875.383 376.273 887.148 C 389.237 904.396 404.096 911.385 423.294 916.464 C 482.787 932.202 536.603 888.752 549.74 832.102 C 565.853 871.047 563.595 895.324 540.843 931.314 C 511.145 973.101 467.975 987.97 417.501 986.443 C 359.384 984.686 286.925 952.305 291.176 883.989 C 292.99 854.821 321.301 818.628 342.309 799.733 z" fill="rgb(247,139,151)" transform="translate(0,0)"></path>
<path d="M 280.947 893.52 C 284.498 901.697 284.516 916.441 289.291 926.825 C 320.887 995.537 430.767 1009.47 493.617 982.578 C 535.438 964.681 549.485 936.574 565.591 897.33 C 568.011 935.828 563.362 965.892 545.936 1000.25 C 503.273 1084.63 388.676 1115.38 316.215 1048.45 C 305.966 1038.98 299.791 1029.05 292.31 1017.48 C 299.942 1014.6 305.249 1013.13 309.633 1005.59 C 319.494 987.855 306.735 962.75 290.487 953.288 C 281.798 948.228 278.828 953.22 274.033 951.926 C 269.882 940.071 276.544 905.594 280.947 893.52 z" fill="rgb(137,212,234)" transform="translate(0,0)"></path>
<path d="M 368.136 1001.27 C 418.657 995.752 448.369 1051.32 392.285 1065.1 C 370.12 1065.53 340.156 1059.11 335.07 1033.27 C 333.884 1027.49 335.087 1021.48 338.403 1016.6 C 345.071 1006.74 357.122 1003.26 368.136 1001.27 z" fill="rgb(59,62,115)" transform="translate(0,0)"></path>
<path d="M 374.808 1009.42 C 411.318 1006.63 434.666 1051.59 383.962 1057.19 C 341.596 1055.6 323.597 1014.02 374.808 1009.42 z" fill="rgb(137,212,234)" transform="translate(0,0)"></path>
<path d="M 494.348 990.154 C 541.479 986.244 527.064 1040.67 477.704 1048.74 C 467.311 1049.36 451.454 1045.89 449.67 1033.81 C 445.865 1008.07 474.097 994.572 494.348 990.154 z" fill="rgb(59,62,115)" transform="translate(0,0)"></path>
<path d="M 496.392 998.296 C 532.1 996.203 510.424 1034.05 477.348 1040.31 C 436.09 1040 463.656 1002.96 496.392 998.296 z" fill="rgb(137,212,234)" transform="translate(0,0)"></path>
<path d="M 1294.43 1380.69 C 1303.15 1390.96 1312.62 1402.89 1318 1415.29 C 1339.29 1464.38 1344.23 1518.89 1356.22 1570.9 C 1378.45 1667.29 1418.82 1763.48 1506.78 1817.16 C 1557.98 1848.41 1599.84 1861.49 1659.83 1866.37 C 1695.78 1869.16 1731.94 1866.99 1767.3 1859.93 C 1731.05 1873.78 1687.58 1878.84 1648.96 1880.16 C 1642.93 1880.36 1614.94 1879.38 1612.25 1879.8 C 1611.44 1876.26 1610.09 1871.69 1606.58 1870.28 C 1594.19 1865.31 1539.14 1848.47 1528.87 1851.41 C 1525.99 1853.41 1525.56 1855.8 1524.29 1859.16 C 1515.2 1856.31 1505.91 1852.44 1497.11 1848.77 C 1500.49 1845.04 1504.86 1840.09 1502.07 1835.3 C 1497.17 1826.88 1483.75 1817.26 1475.45 1812.5 C 1462.54 1805.09 1440.84 1785.17 1425.98 1789.83 C 1425.22 1790.88 1421.72 1794.57 1420.67 1795.72 C 1411.79 1787.63 1403.97 1778.88 1395.83 1770.06 L 1404.36 1764.73 C 1409.93 1735.72 1377.47 1686.55 1348.46 1677.09 C 1345.14 1678.74 1341.79 1680.68 1338.53 1682.49 C 1333.81 1673.25 1330.7 1666.71 1327.92 1656.71 C 1328.95 1656.48 1329.98 1656.24 1331 1655.99 C 1351.3 1650.97 1348.57 1626.98 1343.59 1611.38 C 1337.39 1591.97 1327.18 1562.45 1301.18 1571.23 C 1298.81 1562.12 1297.09 1553 1295.25 1543.79 C 1322.86 1538.51 1321.42 1511.69 1317.39 1489.5 C 1313.94 1470.52 1300.52 1431.33 1274.85 1441.32 C 1273.28 1435.29 1271.26 1428.22 1270.17 1422.19 C 1275.26 1409.94 1286.33 1391.79 1294.43 1380.69 z" fill="rgb(137,212,234)" transform="translate(0,0)"></path>
<path d="M 1062.07 1327.97 L 1063.34 1328.17 L 1064.66 1330.02 C 1070.73 1385.36 1058.82 1435.34 1049.16 1489.02 C 995.465 1460.1 939.095 1443.14 877.67 1452.31 C 861.201 1455 853.163 1457.21 837.69 1462.52 C 899.876 1408.87 969.505 1361.26 1047.22 1333.36 C 1052.18 1331.58 1057.12 1329.76 1062.07 1327.97 z" fill="rgb(255,255,255)" transform="translate(0,0)"></path>
<path d="M 353.119 584.196 C 352.598 583.537 405.779 741.689 410.186 754.291 C 427.152 803.447 443.809 852.709 460.155 902.074 C 446.39 904.247 439.439 904.278 425.774 901.943 C 423.742 901.439 421.718 900.905 419.702 900.343 C 418.252 898.879 322.204 625.708 313.16 597.832 C 326.45 593.2 339.77 588.655 353.119 584.196 z" fill="rgb(137,212,234)" transform="translate(0,0)"></path>
<path d="M 1460.98 1486.77 C 1471.51 1497.82 1479.17 1512.09 1491.47 1524.05 C 1586.07 1615.94 1753.36 1700.15 1878.11 1618.19 C 1855.1 1641.72 1836.61 1655.14 1806.65 1669.01 L 1794.35 1674.65 C 1792.79 1672.39 1790.82 1669.22 1788.38 1667.82 C 1783.06 1664.77 1720.46 1664.96 1714.44 1667.64 C 1707.48 1670.73 1705.67 1684.69 1704.15 1691.1 C 1694.09 1691.26 1682.02 1688.01 1672.09 1685.63 C 1682.83 1666.6 1683.55 1656.24 1660.87 1646.43 C 1648.22 1640.96 1626.42 1630.61 1612.43 1634.79 C 1605.75 1636.78 1602.07 1653.53 1600.1 1660.21 C 1591.79 1655.95 1579.65 1647.72 1571.47 1642.52 C 1595.53 1614.55 1579.95 1608.82 1555.05 1590.69 C 1546.49 1584.45 1538.98 1580.62 1528.91 1577.49 L 1527.93 1577.75 C 1504.39 1583.91 1516.04 1588.72 1512.13 1598.15 L 1510.3 1598.28 C 1503.77 1594.26 1496.27 1585.5 1491.44 1579.51 C 1493.61 1576.23 1496.12 1572.83 1496.19 1568.79 C 1496.37 1558 1477.7 1543.61 1469.4 1535.78 C 1465.15 1520.19 1461.5 1502.93 1460.98 1486.77 z" fill="rgb(137,212,234)" transform="translate(0,0)"></path>
<path d="M 987.586 1587.37 C 994.123 1586.76 1001.93 1587.23 1008.51 1588.03 C 1090.79 1597.99 1161.56 1656.75 1222.53 1709.15 C 1232.96 1718.11 1258.88 1740.69 1266.77 1750.64 C 1254.47 1744.12 1241.77 1737.98 1229.36 1731.46 C 1217.24 1725.22 1204.92 1719.12 1193.24 1712.08 C 1174.61 1700.86 1095.41 1645.63 1078.64 1650.59 C 1076.76 1651.14 1075.14 1653.3 1074.57 1655.08 C 1072.09 1662.91 1078.91 1674.4 1082.08 1681.48 C 1071.87 1677 1062.02 1672.71 1052 1667.79 C 1049.06 1660.9 1046.09 1653.83 1042.52 1647.25 C 1027.25 1619.65 1001.65 1599.22 971.353 1590.45 C 975.612 1589.12 982.962 1588.13 987.586 1587.37 z" fill="rgb(137,212,234)" transform="translate(0,0)"></path>
<path d="M 988.381 701.544 C 990.441 706.467 993.46 719.229 995.849 725.741 C 1005.01 750.711 1016.54 767.338 1033.5 787.495 C 1017.36 789.52 999.716 792.7 983.536 795.215 C 979.606 833.489 969.24 876.498 989.851 912.229 C 991.971 914.807 994.82 917.791 997.1 920.321 C 962.955 912.985 944.231 905.006 944.768 865.616 C 945.527 809.92 963.681 751.486 988.381 701.544 z" fill="rgb(255,255,255)" transform="translate(0,0)"></path>
<path d="M 371.984 578.101 C 374.277 580.159 383.005 608.039 384.922 613.45 L 427.455 734.868 C 445.92 786.118 466.618 841.846 482.818 893.71 C 477.195 896.748 474.123 897.997 468.221 900.299 L 467.054 900.53 C 464.594 898.612 368.777 616.013 358.19 582.846 L 371.984 578.101 z" fill="rgb(137,212,234)" transform="translate(0,0)"></path>
<path d="M 306.822 600.152 C 308.253 601.611 406.248 877.204 411.159 898.206 L 399.566 893.013 L 393.166 889.004 C 372.435 837.073 354.992 782.333 335.61 729.538 L 305.711 647.65 C 300.985 634.445 294.709 619.85 291.47 606.455 C 295.852 604.162 302.098 601.98 306.822 600.152 z" fill="rgb(137,212,234)" transform="translate(0,0)"></path>
<path d="M 1043.44 1676.57 C 1057.72 1681.03 1084.91 1692.56 1098.09 1699.76 C 1078.25 1756 1047.81 1806.08 992.651 1833.64 C 981.41 1839.32 974.933 1842.52 962.752 1845.44 C 986.541 1829.44 1000.4 1816.57 1007.56 1788.59 C 1008.38 1784.56 1016.84 1785.76 1019.5 1783.63 C 1042.57 1765.12 1060.32 1722.29 1050.91 1693.42 C 1049.22 1688.25 1041.55 1688.29 1037.55 1686.31 C 1037.78 1683.15 1041.36 1679.31 1043.44 1676.57 z" fill="rgb(137,212,234)" transform="translate(0,0)"></path>
<path d="M 704.171 1803.83 C 705.962 1803.95 709.335 1804.27 710.912 1804.84 C 730.9 1812.01 763.835 1871.89 758.335 1889.47 C 755.987 1892.29 755.229 1892.25 751.751 1893.27 C 722.889 1885.58 670.598 1823.24 704.171 1803.83 z" fill="rgb(137,212,234)" transform="translate(0,0)"></path>
<path d="M 955.314 1598.15 C 991.636 1596.94 1025.21 1629.88 1040.18 1660.44 L 1028.68 1654.63 C 1000.26 1640.22 963.605 1622.47 936.226 1607.38 C 943.543 1601.88 946.046 1600.07 955.314 1598.15 z" fill="rgb(137,212,234)" transform="translate(0,0)"></path>
<path d="M 1280.7 1447.78 C 1306.27 1447.28 1321.21 1513.56 1304.9 1532.18 C 1303.23 1533.05 1294.67 1536.51 1293.69 1534.02 C 1283.99 1509.2 1279.97 1480.45 1276.23 1454 C 1275.86 1451.44 1279 1449.4 1280.7 1447.78 z" fill="rgb(137,212,234)" transform="translate(0,0)"></path>
<path d="M 1618.25 1639.97 C 1630.3 1641.31 1656.69 1649.98 1666.81 1657.58 C 1676.61 1664.93 1670.41 1676.94 1663.14 1684.4 C 1642.79 1678.42 1625.85 1672.23 1607.23 1662.02 C 1609.57 1652.06 1610.22 1646.48 1618.25 1639.97 z" fill="rgb(137,212,234)" transform="translate(0,0)"></path>
<path d="M 466.136 792.51 C 494.643 796 510.503 801.29 532.609 820.235 C 529.884 827.82 527.308 836.145 524.09 843.422 C 511.621 827.154 497.608 827.062 479.403 831.676 C 474.338 818.832 470.579 805.57 466.136 792.51 z" fill="rgb(137,212,234)" transform="translate(0,0)"></path>
<path d="M 265.916 1719.4 C 266.835 1713.27 267.173 1707.55 271.712 1703.12 C 280.043 1699.29 294.581 1704.58 303.377 1706.76 C 317.985 1710.38 349.523 1718.01 339.8 1739.55 C 330.075 1743.12 278.068 1724.13 265.916 1719.4 z" fill="rgb(137,212,234)" transform="translate(0,0)"></path>
<path d="M 448.557 1713.37 C 463.347 1711.12 465.803 1718.25 469.486 1730.37 C 453.647 1736.4 425.463 1741.03 408.613 1742.6 C 402.443 1743.12 396.277 1743.68 390.115 1744.29 C 389.635 1739.61 388.13 1730.45 391.443 1727.26 C 400.235 1718.8 436.285 1714.87 448.557 1713.37 z" fill="rgb(137,212,234)" transform="translate(0,0)"></path>
<path d="M 1081.81 1659.03 C 1108.86 1666.66 1162.27 1705.63 1189.17 1720.07 C 1196.73 1724.13 1235.47 1743.55 1239.17 1746.97 C 1221.24 1742.48 1207.71 1735.28 1191.29 1727.94 C 1158.61 1713.35 1126.81 1695.12 1092.73 1684.29 C 1089.73 1675.2 1086.08 1667.57 1081.81 1659.03 z" fill="rgb(247,139,151)" transform="translate(0,0)"></path>
<path d="M 1345.37 1686.18 C 1371.77 1689.43 1391.76 1728.28 1398.87 1751.31 C 1400.25 1755.79 1399.38 1758.37 1396.81 1762.03 C 1396.53 1762.09 1394.18 1762.72 1393.81 1762.68 C 1379.24 1761.16 1343.45 1697.5 1343.38 1688.14 L 1345.37 1686.18 z" fill="rgb(137,212,234)" transform="translate(0,0)"></path>
<path d="M 1040.62 1694.71 C 1055.71 1704.22 1037.21 1750.24 1028.9 1761.61 C 1022.59 1770.24 1020.71 1773.91 1010.59 1777.97 C 1006.78 1777.07 1006.35 1777.67 1004.14 1775.29 C 1008.43 1754.68 1021.38 1723.93 1029.34 1704.12 C 1030.5 1701.24 1037.68 1696.6 1040.62 1694.71 z" fill="rgb(137,212,234)" transform="translate(0,0)"></path>
<path d="M 1086.34 1422.56 C 1089.86 1423.53 1094.35 1425.35 1097.87 1426.65 C 1105.38 1448.2 1099.31 1491.48 1084.92 1509.33 C 1080.99 1508.71 1074.35 1504.2 1070.71 1501.98 C 1076.18 1476.35 1080.38 1447.08 1086.34 1422.56 z" fill="rgb(137,212,234)" transform="translate(0,0)"></path>
<path d="M 178.488 1634.57 C 184.097 1636.63 188.297 1639.19 193.263 1642.56 C 206.555 1651.57 244.159 1675.37 218.851 1692.72 C 205.956 1682.83 174.409 1657.71 166.679 1644.57 L 167.439 1642.06 C 171.735 1639.55 174.539 1637.48 178.488 1634.57 z" fill="rgb(137,212,234)" transform="translate(0,0)"></path>
<path d="M 1089.16 1301.05 C 1099.33 1300.4 1104.8 1304.5 1107.21 1314.75 C 1111.99 1334.99 1111.27 1361.81 1100.65 1380.12 C 1098.38 1382.43 1095.51 1384.78 1092.12 1384.57 C 1090.57 1381.73 1091.51 1322.74 1085.38 1312.72 C 1081.64 1306.62 1084.18 1304.44 1089.16 1301.05 z" fill="rgb(137,212,234)" transform="translate(0,0)"></path>
<path d="M 1302.73 1578.43 C 1319.32 1575.28 1322.83 1582.23 1330.01 1596.97 C 1336.25 1609.76 1344.14 1631.53 1336.19 1644.53 C 1333.98 1648.12 1329.18 1649.08 1325.47 1650.18 C 1324.16 1645.61 1319.7 1635.66 1317.82 1629.86 C 1312.34 1612.88 1306.78 1595.84 1302.73 1578.43 z" fill="rgb(137,212,234)" transform="translate(0,0)"></path>
<path d="M 1308.46 444.256 C 1315 443.539 1319.84 443.475 1324.19 448.932 C 1327.1 463.424 1287.08 477.203 1275.82 479.694 L 1274.44 479.865 C 1268.85 480.594 1258.28 481.707 1255.14 476.081 C 1257.16 460.508 1294.5 446.708 1308.46 444.256 z" fill="rgb(255,255,255)" transform="translate(0,0)"></path>
<path d="M 513.6 1712.72 C 505.919 1696.58 519.716 1687.56 532.517 1679.14 C 542.866 1672.33 561.248 1660.26 574.264 1660.48 C 576.833 1660.53 580.447 1667.85 581.538 1669.97 C 560.164 1686.15 537.434 1700.45 513.6 1712.72 z" fill="rgb(137,212,234)" transform="translate(0,0)"></path>
<path d="M 1062.3 829.152 C 1093.14 826.818 1078.76 868.602 1059.98 877.614 C 1033.63 876.814 1036.2 840.294 1062.3 829.152 z" fill="rgb(255,255,255)" transform="translate(0,0)"></path>
<path d="M 1524.34 1586.14 C 1536.91 1585.14 1548.59 1594.47 1558.55 1601.54 C 1575.78 1613.77 1580.13 1617.38 1567.59 1635.42 L 1565.05 1636.58 C 1562.03 1635.57 1557.15 1632.32 1554.19 1629.69 C 1544.15 1620.81 1522.47 1606.53 1520.52 1593.03 C 1520.12 1590.26 1522.7 1588.02 1524.34 1586.14 z" fill="rgb(137,212,234)" transform="translate(0,0)"></path>
<path d="M 930.397 1355.05 C 934.14 1354.96 937.507 1355.24 937.532 1359.6 C 932.014 1364.4 915.842 1374.15 908.575 1378.88 C 894.309 1388.3 880.255 1398.04 866.422 1408.08 C 863.565 1410.24 862.827 1411.55 859.495 1410.72 C 857.5 1402.24 871.88 1389.07 877.67 1383.99 C 893.582 1370.04 910.295 1361.18 930.397 1355.05 z" fill="rgb(137,212,234)" transform="translate(0,0)"></path>
<path d="M 1719.91 1672.1 C 1734.82 1671.31 1752.17 1674.56 1767.52 1672.96 C 1772.74 1672.42 1782.18 1672.35 1785.43 1676.83 C 1781.75 1679.35 1772.84 1682.15 1768.28 1683.77 C 1747.14 1691.35 1735.15 1692.2 1712.63 1692.56 C 1713.02 1683.36 1713.67 1678.67 1719.91 1672.1 z" fill="rgb(137,212,234)" transform="translate(0,0)"></path>
<path d="M 275.991 959.957 C 297.161 958.941 313.528 989.36 299.677 1005.18 C 296.71 1006.92 292.845 1008.67 289.697 1010.22 C 284.205 1001.08 271.84 968.915 275.991 959.957 z" fill="rgb(137,212,234)" transform="translate(0,0)"></path>
<path d="M 1432.13 1794.09 C 1443.79 1799.52 1488.25 1824.35 1494.64 1837.07 C 1495.58 1838.96 1494.04 1841.93 1493.06 1843.82 C 1483.31 1843.76 1434.42 1809.97 1428.27 1801.15 C 1428.47 1797.87 1430 1796.66 1432.13 1794.09 z" fill="rgb(137,212,234)" transform="translate(0,0)"></path>
<path d="M 882.103 1207.43 C 875.045 1202.28 853.366 1188.64 878.332 1177.19 C 884.21 1174.49 909.04 1190.2 915.791 1194.99 C 907.249 1199.03 889.871 1209 882.103 1207.43 z" fill="rgb(137,212,234)" transform="translate(0,0)"></path>
<path d="M 813.736 1438.87 C 816.884 1438.67 818.117 1439.49 820.41 1441.52 L 820.399 1443.46 C 814.721 1449.75 806.185 1455.43 799.776 1461.13 C 785.22 1474.07 768.769 1484.68 753.904 1497.18 C 752.236 1498.51 751.707 1498.85 749.944 1500 L 748.868 1499.2 C 752.839 1480.99 797.026 1447.81 813.736 1438.87 z" fill="rgb(137,212,234)" transform="translate(0,0)"></path>
<path d="M 481.329 840.774 C 497.018 832.067 509.11 836.234 519.693 849.738 C 517.877 855.049 513.098 864.421 508.052 867.094 L 506.93 865.952 C 499.588 864.998 494.118 864.544 487.354 861.437 C 484.801 853.871 483.182 848.519 481.329 840.774 z" fill="rgb(137,212,234)" transform="translate(0,0)"></path>
<path d="M 674.28 1576.86 L 675.221 1577.28 C 674.538 1585.38 629.522 1629.8 621.712 1637.79 C 607.911 1618.71 661.083 1584.79 674.28 1576.86 z" fill="rgb(137,212,234)" transform="translate(0,0)"></path>
<path d="M 120.284 1554.01 C 130.561 1561.56 145.499 1587.77 150.45 1600.01 C 152.023 1603.9 147.019 1608.97 144.675 1611.99 C 136.885 1608.85 119.015 1563.81 120.284 1554.01 z" fill="rgb(137,212,234)" transform="translate(0,0)"></path>
<path d="M 1058.87 1297.33 C 1062.5 1297.49 1067.51 1297.79 1070.36 1299.96 L 1070.03 1301.4 C 1066.89 1303.64 1041.59 1311.06 1035.01 1313.44 C 1025.83 1316.86 1016.74 1320.5 1007.74 1324.35 C 1003.98 1326.14 1002.92 1327 998.902 1327.08 L 998.078 1325.83 C 1005.56 1313.73 1044.83 1299.51 1058.87 1297.33 z" fill="rgb(137,212,234)" transform="translate(0,0)"></path>
<path d="M 1530.62 1860.1 C 1534.86 1857.63 1537.63 1856.62 1542.57 1858.42 C 1555.75 1863.22 1593.4 1868.83 1603.58 1876.3 C 1595.29 1880.06 1539.6 1865.61 1530.62 1860.1 z" fill="rgb(137,212,234)" transform="translate(0,0)"></path>
<path d="M 489.598 869.593 L 504.667 872.542 C 504.291 874.806 495.311 883.304 493.264 885.354 L 489.598 869.593 z" fill="rgb(137,212,234)" transform="translate(0,0)"></path>
<path d="M 998.593 1788.77 C 999.33 1798.85 985.236 1818.9 977.334 1824.91 C 977.544 1823.46 984.689 1813.68 986.128 1811.49 C 991.217 1803.75 994.45 1796.9 998.593 1788.77 z" fill="rgb(137,212,234)" transform="translate(0,0)"></path>
<path d="M 1472.98 1553.54 C 1478.56 1556.21 1482.88 1560.68 1486.27 1565.79 C 1478.7 1565.83 1475.93 1559.43 1472.98 1553.54 z" fill="rgb(97,137,169)" transform="translate(0,0)"></path>
<path d="M 638.868 86.4231 C 643.848 85.993 648.826 86.0019 653.853 86.0145 C 746.416 86.9489 833.742 120.26 900.39 184.816 C 976.948 258.97 1000.16 374.463 918.273 454.251 C 864.486 506.661 785.388 525.845 711.531 524.403 C 712.886 561.59 718.3 587.433 730.136 622.667 C 733.622 633.474 737.78 642.254 742.498 652.548 C 690.705 628.912 651.196 568.126 636.233 514.542 C 628.827 513.742 617.993 509.965 610.837 507.45 C 572.791 494.094 537.77 473.33 507.797 446.359 C 369.061 323.534 396.789 141.461 580.559 95.2495 C 600.475 90.2414 618.442 87.3615 638.868 86.4231 z" fill="rgb(59,62,115)" transform="translate(0,0)"></path>
<path d="M 651.594 102.422 C 655.888 101.826 665.527 101.954 670.226 101.962 C 752.337 102.59 832.052 134.801 889.833 193.445 C 958.406 263.043 972.327 371.434 896.899 442.233 C 840.953 494.747 773.253 512.354 697.967 510.592 C 698.543 543.538 700.815 571.237 711.312 602.781 C 715.949 616.051 719.31 622.506 726.061 634.714 C 682.69 598.215 660.233 561.592 647.498 506.729 C 601.088 491.692 565.416 479.449 526.79 446.413 C 479.974 406.136 446.872 354.323 443.756 290.966 C 437.719 168.259 544.811 109.515 651.594 102.422 z" fill="rgb(255,255,255)" transform="translate(0,0)"></path>
<path d="M 624.174 140.142 C 648.667 140.542 652.737 164.774 638.119 181.926 C 646.489 193.041 654.358 204.852 662.223 216.359 C 700.905 208.65 733.14 222.015 756.161 253.279 L 796.868 230.25 C 798.156 221.249 798.72 212.428 807.913 207.872 C 822.757 200.515 835.489 207.923 842.837 220.587 C 843.825 238.922 840.091 244.312 822.55 250.774 C 813.037 249.214 811.052 249.553 804.041 242.859 C 788.173 251.426 778.874 256.691 764.25 267.565 C 779.476 311.638 771.53 339.507 736.067 370.253 C 740.764 377.266 752.603 390.674 758.272 397.05 C 778.349 399.273 782.674 406.769 783.593 425.725 C 775.915 442.746 761.363 448.081 746.716 434.988 C 742.248 427.538 741.871 422.973 740.586 414.579 C 742.647 411.344 745.521 407.742 747.868 404.631 C 739.018 395.623 732.332 386.249 724.997 376.087 C 680.223 394.453 642.905 381.459 613.413 344.957 C 606.071 348.848 581.239 361.662 574.526 364.074 C 570.409 376.898 565.566 390.11 549.903 391.014 C 535.98 391.818 526.517 382.793 526.431 368.908 C 526.342 362.063 529.042 355.476 533.911 350.663 C 546.36 338.541 558.955 344.765 569.023 355.519 C 578.863 347.482 595.855 338.693 607.481 332.216 C 596.875 306.229 599.897 277.917 614.366 253.923 C 623.418 238.911 634.424 231.207 649.463 222.934 C 643.419 211.39 634.053 198.331 626.272 187.871 C 614.596 185.374 604.651 182.405 601.218 169.078 C 599.711 163.289 600.67 157.133 603.867 152.077 C 609.195 143.789 615.477 142.136 624.174 140.142 z" fill="rgb(59,62,115)" transform="translate(0,0)"></path>
<path d="M 670.816 229.567 C 709.267 220.954 747.407 245.193 755.934 283.663 C 764.461 322.133 740.137 360.219 701.648 368.66 C 663.28 377.075 625.341 352.844 616.84 314.495 C 608.34 276.146 632.486 238.153 670.816 229.567 z" fill="rgb(137,212,234)" transform="translate(0,0)"></path>
<path d="M 620.065 149.936 C 638.432 149.473 646.625 168.002 627.914 176.232 C 612.576 179.245 601.543 161.511 620.065 149.936 z" fill="rgb(137,212,234)" transform="translate(0,0)"></path>
<path d="M 546.676 353.77 C 554.016 352.252 561.209 356.932 562.793 364.258 C 564.378 371.584 559.763 378.819 552.452 380.47 C 545.046 382.142 537.698 377.454 536.093 370.034 C 534.487 362.613 539.242 355.308 546.676 353.77 z" fill="rgb(137,212,234)" transform="translate(0,0)"></path>
<path d="M 818.155 215.259 C 825.092 213.669 832.026 217.925 833.749 224.83 C 835.473 231.735 831.353 238.749 824.482 240.606 C 819.918 241.84 815.044 240.511 811.737 237.133 C 808.43 233.754 807.206 228.852 808.537 224.315 C 809.868 219.779 813.547 216.315 818.155 215.259 z" fill="rgb(137,212,234)" transform="translate(0,0)"></path>
<path d="M 760.266 406.593 C 774.958 408.85 779.378 426.11 765.913 432.537 C 746.756 429.716 747.421 417.987 760.266 406.593 z" fill="rgb(137,212,234)" transform="translate(0,0)"></path>
<path d="M 1187.84 1856.59 C 1187.9 1856.61 1187.95 1856.62 1188.01 1856.63 C 1211.75 1857.69 1239.21 1868.06 1244.5 1896.04 C 1267.7 1909.78 1274.82 1929.11 1243.58 1937.85 C 1227.01 1942.61 1209.22 1940.43 1194.29 1931.8 C 1192.6 1932.19 1190.89 1932.51 1189.16 1932.75 C 1169.65 1935.72 1134.73 1934.66 1117.78 1923.32 C 1103.1 1913.5 1117.99 1890.24 1126.4 1880.71 C 1142.67 1862.25 1164.42 1857.73 1187.84 1856.59 z" fill="rgb(59,62,115)" transform="translate(0,0)"></path>
<path d="M 1191.47 1870.47 C 1202.68 1871.36 1230.51 1878.18 1230.14 1892.58 C 1221.77 1898.32 1193.38 1885.78 1190.82 1922.44 L 1190.74 1923.79 C 1183.28 1924.18 1175.83 1924.5 1168.37 1924.73 C 1141.65 1921.88 1104.9 1915.84 1141.62 1885.98 C 1157.3 1873.22 1171.93 1871.47 1191.47 1870.47 z" fill="rgb(247,139,151)" transform="translate(0,0)"></path>
<path d="M 1218.85 1905.18 C 1228.81 1904.86 1255.51 1908.06 1251.5 1922.69 C 1246.93 1928.03 1243.55 1928.31 1236.68 1929.94 C 1229.32 1930.23 1218.89 1931.17 1212.11 1928.69 C 1191 1920.98 1203.92 1908.15 1218.85 1905.18 z" fill="rgb(247,139,151)" transform="translate(0,0)"></path>
<metadata><recraft-signature>{"signed_by": "recraft", "signature_b64": "JATAh5eWxitewoXgjNHKENG9lSnX27/EbLf8LBmsLEIQosVImPVIeXTlKbKrajGvVbG8jsTPSERj40YX07PCDw==", "signing_algo": "Ed25519", "generation_timestamp": 1771192252, "identifier": "3068e0ab-278e-4bdd-94bf-7bbc281028ae"}</recraft-signature></metadata></svg>