<svg xmlns="http://www.w3.org/2000/svg" height="1024" preserveAspectRatio="none" style="display: block;" version="1.1" viewBox="0 0 2048 2048" width="1024">
<defs>
	<linearGradient gradientUnits="userSpaceOnUse" id="Gradient1" x1="292.832" x2="258.14" y1="923.629" y2="889.617">
		<stop class="stop0" offset="0" stop-color="rgb(253,233,232)" stop-opacity="1"></stop>
		<stop class="stop1" offset="1" stop-color="rgb(255,255,255)" stop-opacity="1"></stop>
	</linearGradient>
</defs>
<path d="M 0 0 L 2048 0 L 2048 2048 L 0 2048 L 0 0 z" fill="rgb(255,255,255)" transform="translate(0,0)"></path>
<path d="M 1000.6 57.4189 C 1066.1 56.8617 1119.19 99.3841 1130.64 164.374 C 1134 183.477 1131.63 198.908 1128.5 217.895 C 1145.28 224.371 1189.29 251.684 1206.6 261.635 L 1342.05 338.756 C 1367.72 353.316 1398.88 372.226 1425.26 384.483 C 1445.59 344.154 1462.35 319.575 1504.06 298.004 C 1536.06 281.732 1576.51 280.797 1610.03 292.961 C 1632.49 301.106 1675.65 321.271 1663.83 351.705 C 1661.22 358.33 1655.99 363.579 1649.37 366.2 C 1632.37 373.032 1622.27 360.302 1608.36 355.375 C 1591.77 349.5 1569.32 350.789 1553.42 358.405 C 1521.43 373.727 1511.33 400.21 1500.1 430.905 C 1511.59 435.468 1534.7 449.207 1546.71 455.952 L 1641.4 509.666 C 1663.21 482.617 1688.39 465.015 1723.53 459.319 C 1759.53 453.25 1796.46 462.084 1825.82 483.791 C 1852.48 503.296 1870.88 534.521 1875.71 567.139 C 1880.36 600.181 1871.94 633.734 1852.24 660.663 C 1830.24 690.304 1804.16 704.165 1768.27 709.642 C 1769.8 773.24 1768.87 839.516 1769.11 903.365 C 1800.41 897.344 1828.52 895.666 1859.53 903.692 C 1975.86 933.798 1991.64 1058.28 1920.73 1142.97 C 1916.48 1148.05 1911.95 1154.59 1905.97 1157.87 C 1900.24 1161.08 1893.43 1161.76 1887.17 1159.77 C 1881.53 1158.01 1876.13 1153.84 1873.66 1148.24 C 1866.4 1132.66 1881.14 1119.39 1889.16 1107.12 C 1914.34 1068.58 1909.5 1013.09 1859.91 998.137 C 1827.33 988.316 1797.73 1000.05 1768.9 1015.22 C 1766.47 1095.84 1770.25 1177.24 1768.55 1257.95 C 1768.06 1281.43 1767.4 1306.19 1768.63 1329.59 C 1831.42 1344.55 1873.2 1400.28 1869.27 1464.8 C 1867.05 1498.86 1851.23 1530.6 1825.37 1552.87 C 1770.28 1601.25 1689.65 1592.78 1641.9 1538.38 C 1570.99 1576.5 1502.72 1619.79 1432.28 1658.77 C 1423.16 1663.81 1414.08 1670.68 1404.98 1676.06 L 1125.61 1839.05 C 1127.88 1857.6 1129.63 1874.13 1125.07 1892.5 C 1116.52 1927 1098.87 1955.27 1068.61 1974.05 C 1038.2 1991.88 1011.52 1999.32 975.803 1993.42 C 941.475 1987.43 910.98 1967.93 891.145 1939.28 C 868.829 1907.68 863.266 1871.43 869.901 1833.68 C 805.883 1799.02 739.623 1756.26 674.974 1723.77 C 636.66 1760.67 583.026 1792.11 531.909 1806.3 C 472.045 1822.3 405.844 1823.47 350.716 1792.07 C 296.001 1760.92 271.216 1701.4 303.708 1644.62 C 315.686 1623.69 354.367 1598.57 378.772 1610.79 C 382.069 1612.44 387.015 1618.92 387.353 1622.84 C 388.688 1640.98 363.673 1648.06 355.138 1661.97 C 350.294 1667.97 344.274 1679.7 346.704 1688.09 C 359.747 1733.1 429.059 1741.47 465.193 1734.37 C 517.272 1724.13 543.567 1700.54 571.802 1660.39 C 503.863 1620.32 430.178 1582.75 360.635 1544.72 C 350.768 1552.97 343.5 1558.65 332.021 1564.68 C 300.718 1581.3 264.056 1584.65 230.259 1573.99 C 196.921 1563.22 169.294 1539.53 153.563 1508.23 C 138.602 1478.9 137.041 1444.56 147.367 1413.43 C 159.742 1376.13 185.388 1352.09 220.007 1335.04 C 162.838 1284.22 139.922 1204.58 138.868 1130 C 137.606 1031.39 175.046 936.214 243.155 864.89 C 242.666 812.877 243.913 760.353 243.601 708.011 C 235.486 705.075 227.136 702.164 219.222 698.733 C 168.572 676.776 139.769 626.014 144.241 570.923 C 147.251 537.889 163.196 507.385 188.601 486.057 C 214.957 463.907 250.294 453.253 284.636 455.909 C 314.825 458.245 351.505 476.66 370.891 500.123 C 447.486 457.358 523.756 414.015 599.696 370.097 C 628.224 353.75 657.424 338.042 685.679 321.732 L 799.782 256.625 C 825.339 241.913 852.554 225.302 878.524 211.603 C 877.567 205.097 876.398 197.861 875.975 191.364 C 874.087 157.856 885.642 124.979 908.08 100.02 C 931.821 73.2325 965.329 59.6469 1000.6 57.4189 z" fill="rgb(59,62,115)" transform="translate(0,0)"></path>
<path d="M 996.023 422.165 C 1027.27 421.042 1099.47 432.013 1123.16 454.327 C 1169.33 498.107 1195.95 558.625 1197.02 622.248 C 1198.77 695.102 1168.58 767.289 1140.5 833.141 C 1124.99 869.503 1104.68 907.009 1101.24 947.206 C 1098.77 975.987 1129.55 995.552 1151.22 1007.61 C 1213.39 1042.21 1289.27 1052.27 1359.59 1050.95 C 1416.08 1049.76 1454.63 1040.65 1509.45 1023.55 C 1615.1 990.59 1803.7 869.609 1905.93 956.32 C 1924.76 972.286 1937.19 1003.81 1937.41 1028.28 C 1937.63 1053.63 1932.84 1075.45 1922.27 1098.66 C 1923.17 1089.09 1926.85 1080.72 1928.44 1071.41 C 1938.83 1010.63 1898.61 968.595 1839.52 962.968 C 1818.67 960.949 1796 962.318 1775.19 966.841 C 1690.07 988.863 1615.66 1046.2 1537.62 1083.73 C 1457.96 1121.9 1371.91 1153.75 1282.75 1156.39 C 1265.72 1156.9 1203.77 1157.7 1192.02 1151.21 C 1127.8 1115.77 1030.91 1034.52 987.399 980.759 C 983.904 976.479 980.575 972.065 977.42 967.528 C 982.257 984.805 1000.31 1008.08 1011.43 1022.58 C 1045.8 1067.36 1092.48 1105.18 1137.3 1139.15 C 1174.23 1166.67 1213.89 1192.99 1252.37 1218.23 C 1336.83 1273.65 1422.97 1338.78 1419.52 1451.21 C 1416.82 1539.23 1368.03 1615.1 1281.79 1642.49 C 1260.47 1649.26 1234.32 1647.15 1214.42 1636.12 C 1178.2 1613.42 1163.64 1566.66 1188.99 1530.93 C 1195.72 1520.89 1209.78 1508.4 1222.28 1507.72 L 1223.38 1508.84 C 1220.91 1511.22 1209.07 1514.35 1205.69 1516.59 C 1200.23 1520.22 1194.14 1527.08 1190.16 1532.23 C 1185.46 1540.71 1180.77 1550.18 1179.9 1560.02 C 1177.94 1570.97 1178.42 1581.38 1182.52 1591.92 C 1185.73 1600.16 1196.02 1613.07 1204.45 1616.36 L 1204.81 1615.05 C 1204.27 1614.02 1199.41 1608.6 1198.26 1607.36 C 1186.4 1594.42 1182.84 1587.04 1183.2 1569.22 C 1185.86 1574.67 1185.65 1580.58 1187.36 1585.94 C 1190.31 1595.19 1201.9 1607.79 1209.15 1614.27 C 1274.19 1653.76 1355.82 1582.7 1373 1521.7 C 1382 1489.75 1380.76 1462.82 1370.58 1431.54 C 1326.21 1295.11 1166.77 1277.28 1057.61 1215.7 C 979.408 1171.55 912.568 1099.89 901.278 1007.67 C 900.566 1001.86 896.976 974.901 895.033 971.573 L 896.067 972.986 L 895.565 971.873 L 894.13 971.862 C 893.405 972.405 892.062 973.314 891.78 974.07 C 879.366 1007.35 876.691 1063.84 882.135 1096.46 C 871.466 1112.03 860.151 1132.53 850.611 1149.03 C 826.185 1192.28 806.931 1238.26 793.247 1286 C 776.678 1345.73 768.311 1408.11 755.267 1468.53 C 732.163 1575.55 686.642 1675.52 596.81 1742.43 C 581.349 1753.95 566.52 1762.27 549.762 1771.49 C 542.942 1773.86 534.946 1778.54 527.379 1781.33 C 467.571 1803.73 380.961 1797.8 336.115 1747.72 C 306.751 1714.93 306.275 1670.36 340.235 1640.82 C 337.292 1644.94 334.217 1649.1 331.643 1653.4 C 301.141 1704.44 343.316 1743.17 390.519 1756.23 C 401.645 1759.3 410.341 1760.58 421.66 1762.08 C 457.764 1762.34 493.515 1758.06 525.402 1739.79 C 557.887 1721.18 582.571 1690.54 601.238 1658.6 C 693.004 1501.59 638.231 1356.15 682.749 1195.51 C 703.832 1119.43 761.257 1034.68 830.697 995.378 C 833.967 992.92 838.519 990.013 840.533 986.658 L 838.553 986.062 C 824.779 988.093 783.027 1010.36 770.515 1019.4 C 737.94 1004.86 702.93 996.017 671.781 974.517 C 650.825 962.953 626.161 938.351 613.562 918.719 C 576.664 861.226 610.839 822.555 637.753 771.586 C 644.403 758.993 650.965 737.167 654.003 722.959 C 654.657 719.901 655.576 719.599 657.605 718.613 L 659.468 719.43 C 662.294 726.503 658.843 741.215 657.174 749.001 C 657.106 785.22 639.345 797.443 684.332 791.639 C 689.166 791.015 702.289 791.689 707.233 791.676 C 723.15 791.635 739.877 792.66 735.713 770.803 C 729.248 732.752 687.098 696.248 647.121 705.216 C 643.387 703.666 639.731 699.798 638.346 696.13 C 632.22 679.906 648.349 663.809 662.102 659.487 C 680.673 653.65 696.765 658.886 713.015 666.729 C 724.638 674.472 734.637 689.781 739.503 691.853 L 740.59 690.662 C 740.332 685.218 737.384 680.778 733.978 676.683 C 721.545 661.734 707.568 650.739 688 647.79 C 685.482 647.58 686.553 648.003 684.712 646.732 C 684.555 640.607 688.75 629.904 690.911 624.026 C 705.234 584.242 728.154 548.105 758.038 518.191 C 821.45 455.823 907.085 421.27 996.023 422.165 z" fill="rgb(247,139,151)" transform="translate(0,0)"></path>
<path d="M 830.697 995.378 C 827.585 1000.85 817.153 1009.91 812.207 1014.74 C 804.72 1021.97 797.596 1029.57 790.863 1037.5 C 745.929 1091.01 716.605 1140.92 696.78 1208 C 675.177 1281.09 676.632 1356.1 674.47 1431.53 C 671.955 1519.29 654.005 1605.4 605.747 1679.96 C 578.491 1722.93 552.832 1750.4 500.916 1762.89 C 484.701 1766.79 435.359 1770.6 421.66 1762.08 C 457.764 1762.34 493.515 1758.06 525.402 1739.79 C 557.887 1721.18 582.571 1690.54 601.238 1658.6 C 693.004 1501.59 638.231 1356.15 682.749 1195.51 C 703.832 1119.43 761.257 1034.68 830.697 995.378 z" fill="rgb(255,255,255)" transform="translate(0,0)"></path>
<path d="M 688 647.79 C 685.482 647.58 686.553 648.003 684.712 646.732 C 684.555 640.607 688.75 629.904 690.911 624.026 C 705.234 584.242 728.154 548.105 758.038 518.191 C 821.45 455.823 907.085 421.27 996.023 422.165 C 988.069 426.846 958.917 427.47 947.933 429.452 C 851.11 446.924 764.848 497.398 715.561 585.855 C 708.93 597.755 703.077 610.071 698.038 622.727 C 695.926 628.017 690.336 643.531 688 647.79 z" fill="rgb(255,255,255)" transform="translate(0,0)"></path>
<path d="M 671.781 974.517 C 650.825 962.953 626.161 938.351 613.562 918.719 C 576.664 861.226 610.839 822.555 637.753 771.586 C 644.403 758.993 650.965 737.167 654.003 722.959 C 654.657 719.901 655.576 719.599 657.605 718.613 L 659.468 719.43 C 662.294 726.503 658.843 741.215 657.174 749.001 C 651.408 757.427 645.359 773.688 639.914 783.544 C 621.752 816.417 599.312 844.929 606.903 884.784 C 612.033 911.722 632.694 935.707 651.273 954.858 C 657.184 960.951 664.604 967.074 671.452 972.251 C 672.757 973.237 672.367 973.52 671.781 974.517 z" fill="rgb(255,255,255)" transform="translate(0,0)"></path>
<path d="M 647.121 705.216 C 643.387 703.666 639.731 699.798 638.346 696.13 C 632.22 679.906 648.349 663.809 662.102 659.487 C 680.673 653.65 696.765 658.886 713.015 666.729 C 693.784 667.632 671.116 657.332 654.148 673.581 C 647.152 680.28 645.057 696.14 647.121 705.216 z" fill="rgb(255,255,255)" transform="translate(0,0)"></path>
<path d="M 929.209 683.393 C 971.572 684.709 995.47 711.212 994.827 753.37 C 995.709 757.635 991.813 778.977 985.033 777.409 C 958.232 771.214 935.374 764.801 907.49 763.225 C 886.922 762.892 870.612 767.056 851.376 773.2 C 847.624 774.399 842.253 776.363 839.235 774.673 C 832.936 761.958 852.809 728.18 861.86 718.11 C 880.779 697.063 900.918 685.336 929.209 683.393 z" fill="rgb(59,62,115)" transform="translate(0,0)"></path>
<path d="M 950.807 706.127 C 976.554 705.353 993.354 743.432 959.921 756.536 C 929.216 759.395 918.468 713.459 950.807 706.127 z" fill="rgb(255,255,255)" transform="translate(0,0)"></path>
<path d="M 894.323 839.916 C 878.175 829.885 862.252 824.74 844.421 818.756 L 843.918 817.211 C 849.963 813.896 876.478 821.427 883.933 824.463 C 905.575 833.277 925.149 850.593 934.156 872.39 C 925.724 863.405 920.592 858.008 910.47 851.107 C 859.505 901.739 781.622 949.639 706.657 924.84 C 682.203 916.751 644.15 878.986 648.935 847.927 C 649.718 842.844 693.263 822.684 697.521 824.891 C 693.882 830.454 676.554 839.264 669.868 843.458 C 670.173 845.153 670.442 845.037 669.692 846.181 C 663.55 855.558 672.478 865.573 671.874 872.048 C 685.74 894.643 713.915 909.779 740.002 911.612 C 798.623 915.731 851.867 875.855 894.323 839.916 z" fill="rgb(59,62,115)" transform="translate(0,0)"></path>
<path d="M 669.868 843.458 C 670.173 845.153 670.442 845.037 669.692 846.181 C 663.55 855.558 672.478 865.573 671.874 872.048 C 667.134 864.806 663.796 856.881 660.647 848.864 C 663.334 847.087 667.011 845.109 669.868 843.458 z" fill="rgb(255,255,255)" transform="translate(0,0)"></path>
<path d="M 930.651 597.432 C 976.059 594.965 1017.89 624.102 1036.16 664.802 C 1021.02 649.676 1012.31 636.274 993.09 623.354 C 967.89 606.413 942.473 600.863 912.765 606.175 C 879.221 613.423 853.67 633.56 834.726 661.977 C 832.111 665.9 826.357 677.354 823.448 679.128 L 821.648 678.581 L 821.139 676.632 C 823.728 666.438 836.418 647.044 843.802 638.92 C 868.346 611.915 894.784 599.728 930.651 597.432 z" fill="rgb(59,62,115)" transform="translate(0,0)"></path>
<path d="M 869.564 485.793 L 874.041 486.376 C 876.459 488.772 875.744 487.336 876.003 490.949 C 871.62 501.864 853.874 512.581 843.821 517.951 C 840.209 517.984 839.914 517.903 837.959 515.396 C 838.032 504.181 860.453 490.287 869.564 485.793 z" fill="rgb(59,62,115)" transform="translate(0,0)"></path>
<path d="M 866.907 492.001 L 867.659 492.88 C 865.064 499.479 850.025 508.979 843.94 512.694 L 843.561 512.398 L 843.517 510.801 C 849.341 502.117 857.827 496.758 866.907 492.001 z" fill="rgb(247,139,151)" transform="translate(0,0)"></path>
<path d="M 908.251 500.744 C 910.83 501.649 910.858 502.168 912.72 504.306 C 914.031 515.39 885.629 527.283 876.918 530.997 C 874.369 530.82 875.292 531 872.921 529.9 L 872.327 527.632 C 875.559 519.386 900.045 504.628 908.251 500.744 z" fill="rgb(59,62,115)" transform="translate(0,0)"></path>
<path d="M 897.529 509.056 C 901.517 506.993 901.325 506.239 904.982 506.636 C 905.061 510.208 902.526 511.671 899.674 513.646 C 889.526 520.455 882.816 523.99 871.56 528.683 C 879.928 520.303 887.697 515.468 897.529 509.056 z" fill="rgb(247,139,151)" transform="translate(0,0)"></path>
<path d="M 788.091 565.889 C 790.517 553.894 805.593 542.298 817.847 541.687 C 819.059 543.324 820.29 544.07 819.996 545.936 C 818.433 555.86 801.141 569.755 791.652 568.577 C 790.297 567.615 789.333 566.997 788.091 565.889 z" fill="rgb(59,62,115)" transform="translate(0,0)"></path>
<path d="M 811.978 546.783 C 813.493 553.831 799.157 563.311 792.835 563.876 C 797.611 555.138 803.073 550.688 811.978 546.783 z" fill="rgb(247,139,151)" transform="translate(0,0)"></path>
<path d="M 923.48 447.589 C 928.242 446.361 927.751 445.71 931.804 446.849 C 934.322 452.186 927.745 454.984 923.857 456.817 C 917.938 459.587 905.958 466.309 899.673 462.799 C 898.634 454.091 917.058 448.774 923.48 447.589 z" fill="rgb(41,22,33)" transform="translate(0,0)"></path>
<path d="M 921.071 449.981 L 923.547 452.413 C 922.961 454.708 923.334 453.974 921.682 455.824 C 916.153 457.195 906.485 463.909 902.468 460.932 L 902.158 458.815 C 905.956 453.787 915.048 451.741 921.071 449.981 z" fill="rgb(247,139,151)" transform="translate(0,0)"></path>
<path d="M 923.48 447.589 C 928.242 446.361 927.751 445.71 931.804 446.849 C 934.322 452.186 927.745 454.984 923.857 456.817 L 921.682 455.824 C 923.334 453.974 922.961 454.708 923.547 452.413 L 921.071 449.981 L 923.48 447.589 z" fill="rgb(59,62,115)" transform="translate(0,0)"></path>
<path d="M 825.432 481.719 C 827.208 482.073 826.772 482.044 828.418 482.993 L 828.645 485.695 C 824.501 495.914 809.675 507.761 800.019 513.095 C 797.756 510.983 798.24 511.779 796.785 509.196 C 804.948 501.822 818.173 486.756 825.432 481.719 z" fill="rgb(45,22,53)" transform="translate(0,0)"></path>
<path d="M 820.856 487.891 C 823.036 492.804 809.215 503.976 805.385 507.05 L 804.738 505.804 C 809.821 499.722 815.473 493.746 820.856 487.891 z" fill="rgb(247,139,151)" transform="translate(0,0)"></path>
<path d="M 939.926 469.322 C 931.919 473.296 916.987 481.955 908.516 481.353 L 907.565 480.016 C 911.153 472.372 927.258 465.692 935.075 462.033 L 935.918 464.556 L 937.327 465.528 C 939.468 467.813 939.401 466.918 939.926 469.322 z" fill="rgb(41,22,33)" transform="translate(0,0)"></path>
<path d="M 935.918 464.556 L 937.327 465.528 C 931.429 469.905 919.348 478.664 912.011 478.516 L 912.201 477.106 C 919.294 470.597 927.077 468.065 935.918 464.556 z" fill="rgb(247,139,151)" transform="translate(0,0)"></path>
<path d="M 778.005 527.562 C 780.404 528.647 780.261 528.521 781.769 530.677 C 780.605 533.258 757.631 556.466 753.92 560.313 C 752.851 560.121 751.941 559.633 750.896 559.195 L 750.646 557.24 C 753.747 552.025 772.791 532.934 778.005 527.562 z" fill="rgb(59,62,115)" transform="translate(0,0)"></path>
<path d="M 935.075 462.033 C 940.608 459.203 944.47 456.445 950.654 457.253 L 952.262 458.759 C 951.326 464.344 944.803 466.964 939.926 469.322 C 939.401 466.918 939.468 467.813 937.327 465.528 L 935.918 464.556 L 935.075 462.033 z" fill="rgb(59,62,115)" transform="translate(0,0)"></path>
<path d="M 350.445 684.819 C 375.997 698.84 399.007 713.3 423.916 728.277 L 499.831 773.439 C 527.749 790.403 555.222 804.572 581.884 823.681 C 575.862 840.297 571.663 852.467 571.993 870.532 C 572.981 924.481 614.304 964.452 655.241 993.176 C 598.979 1008.14 556.106 1042.41 528.953 1093.71 C 502.658 1143.39 487.758 1207.38 432.834 1233.8 C 397.974 1250.58 354.28 1251.27 318.04 1238.33 C 317.607 1222.78 317.949 1205.9 317.979 1190.25 C 317.504 1099.24 320.854 1006.75 319.237 915.472 C 354.601 874.262 425.648 889.111 431.061 946.949 C 432.856 966.128 421.919 991.833 407.09 1004.07 C 394.184 1014.73 374.45 1025.18 392.062 1044.27 C 394.498 1046.84 401.24 1048.33 404.823 1047.46 C 426.485 1042.22 449.553 1026.97 463.203 1009.29 C 481.934 983.757 490.036 956.747 485.79 925.745 C 481.586 894.686 465.102 866.611 440.029 847.805 C 404.178 820.891 363.282 817.315 320.52 823.539 C 321.071 783.82 321.667 741.691 320.345 702.077 C 333.632 696.629 338.707 692.971 350.445 684.819 z" fill="rgb(255,255,255)" transform="translate(0,0)"></path>
<path d="M 889.444 1133.73 C 890.758 1135.17 895.229 1148.54 896.06 1151.18 C 920.365 1228.37 974.312 1274.79 1040.83 1315.04 L 991.03 1556.78 C 982.178 1597.73 973.534 1637.18 966.078 1678.5 C 962.045 1700.85 956.377 1720.2 953.124 1743.47 C 935.796 1749.63 925.384 1755.95 911.499 1767.67 L 894.999 1757.16 C 876.841 1745.96 857.671 1736.66 839.807 1725.63 C 804.535 1703.84 765.552 1685.16 730.459 1663.62 C 822.672 1541.68 846.082 1425.82 861.387 1276.26 C 865.744 1233.69 870.866 1171.67 889.444 1133.73 z" fill="rgb(255,255,255)" transform="translate(0,0)"></path>
<path d="M 920.131 280.766 C 922.632 281.682 929.522 288.986 933.624 291.422 C 950.472 301.428 965.827 305.684 984.586 309.48 C 992.394 336.04 999.159 367.43 1006.63 395.021 C 869.882 394.602 737.494 458.623 678.519 587.885 C 671.752 602.717 666.396 618.176 662.783 634.082 C 656.874 635.373 651.889 636.828 646.572 639.225 C 622.385 650.129 606.516 677.381 615.75 703.608 C 618.947 712.688 624.124 718.811 629.994 726.195 C 627.24 736.208 622.432 748.045 618.209 757.509 C 595.663 745.337 567.453 726.782 544.461 713.151 C 512.857 694.428 481.398 675.458 450.089 656.245 C 436.048 647.687 408.594 629.958 394.644 623.662 C 401.921 604.568 401.368 597.513 401.925 577.282 C 447.765 547.07 503.59 517.217 551.713 489.726 L 788.891 354.889 C 831.852 330.639 877.877 305.891 920.131 280.766 z" fill="rgb(255,255,255)" transform="translate(0,0)"></path>
<path d="M 188.703 998.444 C 192.008 986.091 198.451 975.56 203.813 964.217 C 234.131 900.087 294.451 835.584 373.093 848.255 C 426.969 857.442 469.908 897.278 461.861 956.21 C 460.333 967.392 449.103 995.631 440.203 1002.35 C 442.653 996.293 446.566 991.455 448.938 985.521 C 482.029 902.728 401.123 842.98 325.26 876.557 C 280.292 897.894 249.139 947.167 232.742 993.008 C 211.892 1051.3 206.394 1125.22 230.742 1183.57 C 265.463 1266.79 359.679 1293.17 439.426 1260.02 C 469.12 1247.68 478.059 1235.19 499.111 1211.59 C 514.008 1189.03 520.491 1175.17 531.322 1150.82 C 555.512 1095.85 571.695 1058.19 630.612 1028.48 C 668.596 1009.34 713.473 1015.85 752.736 1030.05 L 753.013 1031.26 L 749.989 1033.59 C 706.434 1074.87 698.186 1102.82 667.374 1150.92 C 666.902 1151.63 666.424 1152.35 665.941 1153.06 C 655.346 1168.6 642.656 1182.97 630.401 1197.45 C 569.2 1269.74 487.166 1331.38 388.809 1333.84 C 344.406 1334.94 295.357 1321.3 258.542 1296.04 C 206.186 1260.11 180.241 1204.92 169.587 1143.86 C 166.129 1102.07 168.84 1035.98 188.703 998.444 z" fill="rgb(247,139,151)" transform="translate(0,0)"></path>
<path d="M 531.322 1150.82 C 555.512 1095.85 571.695 1058.19 630.612 1028.48 C 668.596 1009.34 713.473 1015.85 752.736 1030.05 L 753.013 1031.26 L 749.989 1033.59 C 709.58 1022.56 661.723 1024.42 625.077 1045.82 C 574.754 1075.21 558.133 1102.79 533.806 1152.12 L 531.322 1150.82 z" fill="rgb(255,255,255)" transform="translate(0,0)"></path>
<path d="M 188.703 998.444 C 192.008 986.091 198.451 975.56 203.813 964.217 C 234.131 900.087 294.451 835.584 373.093 848.255 C 365.786 850.023 358.294 850.147 350.826 850.677 C 332.743 851.961 314.908 857.571 298.369 864.82 C 280.443 872.676 265.959 887.221 252.743 901.234 C 231.193 924.04 215.024 950.76 200.114 978.179 C 198.217 981.758 191.219 996.836 188.703 998.444 z" fill="url(#Gradient1)" transform="translate(0,0)"></path>
<path d="M 531.322 1150.82 L 533.806 1152.12 C 529.774 1163.86 508.331 1208.15 499.111 1211.59 C 514.008 1189.03 520.491 1175.17 531.322 1150.82 z" fill="rgb(255,255,255)" transform="translate(0,0)"></path>
<path d="M 1080.93 282.958 C 1085.62 286.058 1091.9 288.947 1096.87 291.823 C 1169.19 333.634 1242.39 373.864 1314.94 415.248 C 1342.59 431.019 1373.45 447.325 1399.83 464.874 C 1395 492.211 1390.8 519.656 1387.24 547.187 C 1380.21 603.467 1375.22 659.213 1360.8 714.952 C 1355.35 736.041 1342.09 785.423 1326.84 800.958 C 1324.83 803.004 1309.91 811.075 1306.13 813.266 L 1267.47 836.114 C 1248.95 847.426 1230.72 859.213 1212.8 871.463 C 1220 858.44 1228.01 845.779 1235.11 832.558 C 1251.85 801.558 1264.71 768.613 1273.4 734.469 C 1290.59 666.381 1286.21 595.314 1249.56 533.987 C 1211.06 469.412 1148.2 423.036 1075.14 405.3 C 1066.82 369.776 1056.69 336.567 1048.35 302.027 C 1063.08 295.855 1067.95 292.049 1080.93 282.958 z" fill="rgb(255,255,255)" transform="translate(0,0)"></path>
<path d="M 1106.86 1347.12 C 1180.06 1367.26 1321.01 1399.87 1328.41 1491.52 C 1330.48 1514.73 1323.16 1537.81 1308.1 1555.58 C 1293.81 1572.32 1272.55 1582.96 1250.72 1584.88 C 1233.43 1586.41 1208.56 1574.85 1209.09 1554.95 C 1209.79 1544.18 1217.63 1531.85 1229.61 1532 C 1239.29 1532.11 1242.33 1547.46 1248.51 1546.46 C 1260.69 1544.46 1264.71 1524.26 1263.23 1513.79 C 1262.11 1505.88 1255.04 1496.64 1248.19 1491.93 C 1219.82 1472.79 1182.85 1495.76 1166.44 1520.36 C 1150.77 1543.87 1149.09 1566.74 1154.38 1593.64 C 1167.34 1643.27 1198.27 1661.2 1245.62 1672.53 C 1228.31 1682.04 1211.38 1693.88 1194.25 1704.18 C 1157.75 1726.14 1119.15 1746.33 1083.75 1769.81 C 1061.07 1751.96 1051.57 1746.37 1024.03 1739.17 C 1040.48 1653.76 1060.26 1569.4 1078.38 1484.37 C 1088.12 1438.7 1096.65 1392.66 1106.86 1347.12 z" fill="rgb(255,255,255)" transform="translate(0,0)"></path>
<path d="M 1668.33 682.804 C 1671.44 682.709 1684.98 693.594 1688.72 696.27 C 1688.02 761.766 1689.84 827.538 1688.89 893.085 C 1688.74 903.369 1688.89 914.532 1689.87 924.75 C 1608.95 948.96 1534.91 991.46 1453.2 1012.77 C 1422.91 1020.68 1396.51 1024.2 1365.33 1026.57 C 1359.93 1027.19 1349.29 1027.06 1343.48 1027.14 C 1354.73 1017.6 1370.05 1009.64 1383.4 997.99 C 1434.43 953.496 1472.25 895.836 1492.74 831.306 C 1498.64 812.181 1501.36 795.845 1505.57 776.421 C 1517.79 769.871 1531.08 761.428 1543.33 754.483 C 1585.21 730.753 1626.08 705.907 1668.33 682.804 z" fill="rgb(255,255,255)" transform="translate(0,0)"></path>
<path d="M 1175.28 970.638 C 1228.57 948.755 1294.76 901.92 1327.96 854.155 C 1375.36 785.977 1395.64 691.263 1404.82 610.042 C 1413.75 530.959 1419.61 446.261 1457.76 374.369 C 1492.36 309.927 1566.64 290.71 1628.84 327.81 C 1631.98 329.684 1636.86 332.576 1637.8 336.229 L 1638.87 339.829 L 1639.51 341.887 C 1635.76 344.047 1616.83 333.046 1611.31 331.454 C 1547.56 313.09 1498.1 355.726 1479.18 414.417 C 1468.62 447.211 1460.52 503.457 1464.82 538.292 C 1464.88 543.967 1464.73 551.68 1465.05 557.179 C 1463.79 589.059 1468.04 638.766 1468.59 673.551 C 1470.26 778.426 1435.81 873.097 1358.48 946.047 C 1323.34 979.195 1257.48 1014.96 1207.39 1016.1 C 1188.15 1016.54 1148.39 993.912 1130.67 983.242 C 1149.78 980.145 1157.76 976.016 1175.28 970.638 z" fill="rgb(247,139,151)" transform="translate(0,0)"></path>
<path d="M 1175.28 970.638 C 1228.57 948.755 1294.76 901.92 1327.96 854.155 C 1375.36 785.977 1395.64 691.263 1404.82 610.042 C 1413.75 530.959 1419.61 446.261 1457.76 374.369 C 1492.36 309.927 1566.64 290.71 1628.84 327.81 C 1631.98 329.684 1636.86 332.576 1637.8 336.229 C 1619.23 324.415 1594.89 315.69 1572.88 314.831 C 1564.35 311.059 1536.22 316.496 1526.64 320.501 C 1489.16 336.175 1470.78 361.086 1454.85 396.943 C 1424.75 464.734 1421.99 532.31 1413.39 604.733 C 1401.82 695.682 1385.8 791.873 1329.36 867.048 C 1312.86 889.035 1284.65 909.602 1262.32 925.894 C 1250.7 934.373 1186.14 975.029 1175.28 970.638 z" fill="rgb(255,255,255)" transform="translate(0,0)"></path>
<path d="M 1572.88 314.831 C 1594.89 315.69 1619.23 324.415 1637.8 336.229 L 1638.87 339.829 C 1618.6 324.797 1596.77 321.057 1572.88 314.831 z" fill="rgb(41,22,33)" transform="translate(0,0)"></path>
<path d="M 638.629 1304.82 C 639.505 1308.71 638.965 1316.43 638.84 1320.57 C 636.442 1400.03 641.086 1481.83 617.907 1558.88 C 614.952 1568.71 611.982 1578.59 609.056 1588.45 C 599.249 1584.16 583.13 1573.66 572.623 1568.05 C 536.693 1549.26 501.006 1530.02 465.568 1510.32 C 442.725 1497.49 418.234 1484.8 395.024 1472.15 C 395.567 1444.26 393.219 1431.59 384.986 1405.01 C 390.309 1405.12 395.677 1405.27 401.004 1405.28 C 472.987 1405.43 545.632 1379.48 602.31 1335.36 C 614.758 1325.68 626.869 1315.34 638.629 1304.82 z" fill="rgb(255,255,255)" transform="translate(0,0)"></path>
<path d="M 1687.39 1067.84 L 1688.69 1068.58 C 1689.46 1074.37 1688.98 1087.62 1689.01 1094.03 L 1689.46 1143.05 C 1689.74 1178.12 1688.98 1213.02 1688.99 1248.07 C 1689 1278.33 1689.53 1308.19 1689.01 1338.46 L 1670.8 1347.42 C 1656.88 1340.32 1641.67 1329.92 1627.97 1321.87 C 1593.98 1301.91 1560.74 1280.53 1526.42 1261.12 C 1497.04 1242.44 1463.83 1223.91 1433.73 1205.53 C 1516.39 1182.82 1572.77 1150.57 1643.01 1100.75 C 1657.86 1090.22 1672.77 1077.8 1687.39 1067.84 z" fill="rgb(255,255,255)" transform="translate(0,0)"></path>
<path d="M 1291.73 1217.11 C 1298.75 1216.65 1310.76 1217.18 1318.14 1217.27 C 1375.25 1256.62 1433.25 1288.03 1491.93 1324.03 C 1535.21 1350.59 1579.81 1376.15 1622.61 1402.98 C 1616.15 1423.59 1610.96 1435.52 1611.57 1457.2 C 1581.6 1475.56 1549.95 1493.72 1519.51 1511.93 C 1515.9 1514.21 1510.71 1516.7 1506.84 1518.75 C 1472.72 1536.86 1439.72 1556.87 1406.82 1577.12 C 1408.07 1575.34 1409.28 1573.55 1410.47 1571.73 C 1442.94 1521.11 1454.22 1459.76 1441.88 1400.91 C 1424.56 1319.02 1358.82 1260.74 1291.73 1217.11 z" fill="rgb(255,255,255)" transform="translate(0,0)"></path>
<path d="M 1641.13 1477.94 C 1633.69 1444.7 1643.54 1409.94 1667.34 1385.56 C 1691.13 1361.18 1725.63 1350.47 1759.05 1357.1 C 1808.34 1366.88 1842.89 1411.5 1840.02 1461.67 C 1837.15 1511.84 1797.74 1552.23 1747.66 1556.32 C 1697.57 1560.42 1652.12 1526.98 1641.13 1477.94 z" fill="rgb(137,212,234)" transform="translate(0,0)"></path>
<path d="M 1641.13 1477.94 C 1633.69 1444.7 1643.54 1409.94 1667.34 1385.56 C 1691.13 1361.18 1725.63 1350.47 1759.05 1357.1 L 1758.28 1358.31 C 1749.27 1359.09 1738.44 1358.4 1729.76 1360.01 C 1682.37 1368.74 1646.3 1406.66 1642.87 1455.21 C 1642.44 1461.28 1643.79 1473.13 1641.13 1477.94 z" fill="rgb(255,255,255)" transform="translate(0,0)"></path>
<path d="M 1712.86 1388.2 C 1725.6 1387.35 1731.42 1393.34 1725.92 1405.45 C 1718.33 1422.13 1700.59 1442.24 1683.82 1449.54 C 1650.47 1452.4 1678.42 1396.81 1712.86 1388.2 z" fill="rgb(255,255,255)" transform="translate(0,0)"></path>
<path d="M 174.18 600 C 167.938 563.285 182.597 526.139 212.23 503.582 C 241.863 481.024 281.571 476.783 315.299 492.575 C 358.35 512.732 381.285 560.387 370.18 606.608 C 359.075 652.828 316.993 684.862 269.485 683.261 C 221.976 681.659 182.147 646.864 174.18 600 z" fill="rgb(137,212,234)" transform="translate(0,0)"></path>
<path d="M 174.18 600 C 167.938 563.285 182.597 526.139 212.23 503.582 C 241.863 481.024 281.571 476.783 315.299 492.575 C 305.726 492.387 295.414 488.173 285.994 487.858 C 233.839 486.114 183.938 525.679 177.158 578.068 C 176.517 583.019 175.561 595.801 174.18 600 z" fill="rgb(255,255,255)" transform="translate(0,0)"></path>
<path d="M 245.877 522.111 C 271.585 520.955 254.896 546.713 246.199 556.242 C 237.349 565.94 230.812 571.622 218.603 576.759 C 213.09 577.48 208.859 577.649 205.28 572.739 C 203.67 567.014 205.292 562.703 208.04 557.342 C 216.764 540.322 227.606 528.352 245.877 522.111 z" fill="rgb(255,255,255)" transform="translate(0,0)"></path>
<path d="M 1653.64 623.23 C 1636.5 584.425 1645.86 539.02 1676.95 510.156 C 1708.04 481.291 1754.01 475.321 1791.44 495.287 C 1829.85 515.778 1850.47 558.869 1842.33 601.637 C 1834.19 644.405 1799.19 676.91 1755.93 681.86 C 1712.68 686.809 1671.23 663.053 1653.64 623.23 z" fill="rgb(137,212,234)" transform="translate(0,0)"></path>
<path d="M 1653.64 623.23 C 1636.5 584.425 1645.86 539.02 1676.95 510.156 C 1708.04 481.291 1754.01 475.321 1791.44 495.287 C 1784.91 495.324 1771.75 490.338 1764.03 489.338 C 1705.31 481.74 1648.31 523.57 1648.25 584.961 C 1648.24 596.253 1654.39 617.291 1653.64 623.23 z" fill="rgb(255,255,255)" transform="translate(0,0)"></path>
<path d="M 1715.7 516.056 C 1756.6 514.768 1704.23 570.996 1688.47 578.481 C 1683 579.18 1673.27 576.819 1672.52 571.298 C 1669.22 547.234 1697.03 522.254 1715.7 516.056 z" fill="rgb(255,255,255)" transform="translate(0,0)"></path>
<path d="M 914.186 231.378 C 896.88 197.03 900.988 155.774 924.727 125.513 C 948.466 95.251 987.557 81.4379 1025.04 90.0672 C 1069.9 100.397 1101.77 140.236 1101.98 186.275 C 1102.2 232.313 1070.71 272.451 1025.95 283.203 C 981.182 293.954 934.901 272.494 914.186 231.378 z" fill="rgb(137,212,234)" transform="translate(0,0)"></path>
<path d="M 914.186 231.378 C 896.88 197.03 900.988 155.774 924.727 125.513 C 948.466 95.251 987.557 81.4379 1025.04 90.0672 C 1014.62 91.726 1004.13 90.2926 993.823 91.3698 C 967.73 94.0972 942.432 109.684 926.725 130.457 C 911.344 151.025 904.865 176.907 908.744 202.296 C 909.584 207.826 914.409 228.051 914.186 231.378 z" fill="rgb(255,255,255)" transform="translate(0,0)"></path>
<path d="M 974.304 121.026 C 1006.54 117.39 980.641 151.978 969.631 160.01 C 963.099 164.776 957.966 174.491 949.303 179.862 C 948.224 179.922 943.807 180.064 943.004 179.666 C 914.114 165.32 961.017 128.583 974.304 121.026 z" fill="rgb(255,255,255)" transform="translate(0,0)"></path>
<path d="M 902.556 1898.57 C 889.375 1864.01 896.638 1824.99 921.368 1797.49 C 946.098 1769.99 984.137 1758.64 1019.89 1768.09 C 1064.96 1780.01 1095.53 1821.87 1093.16 1868.43 C 1090.79 1915 1056.13 1953.54 1010.08 1960.82 C 964.029 1968.1 919.173 1942.13 902.556 1898.57 z" fill="rgb(137,212,234)" transform="translate(0,0)"></path>
<path d="M 902.556 1898.57 C 889.375 1864.01 896.638 1824.99 921.368 1797.49 C 946.098 1769.99 984.137 1758.64 1019.89 1768.09 C 1019.55 1768.25 1019.2 1768.4 1018.85 1768.55 C 950.225 1760.52 891.65 1804.41 901.03 1877.06 C 901.653 1881.89 903.311 1894.27 902.556 1898.57 z" fill="rgb(255,255,255)" transform="translate(0,0)"></path>
<path d="M 964.374 1800.13 C 1007.04 1797.08 952.804 1849.38 942.919 1855.89 C 930.366 1857.04 922.834 1852.72 928.14 1838.98 C 934.285 1823.07 949.124 1807.63 964.374 1800.13 z" fill="rgb(255,255,255)" transform="translate(0,0)"></path>
<path d="M 900.168 1033.03 C 905.72 1053.08 910.339 1068.71 919.604 1087.56 C 945.336 1139.93 998.233 1189.79 1049.23 1217.79 C 1073.98 1231.37 1108.42 1247.63 1135.15 1258.51 C 1229 1296.16 1338.96 1331.61 1368.89 1441.01 C 1380.18 1482.31 1375.66 1511.94 1355.27 1549.49 C 1327.94 1599.83 1246.86 1650.38 1199.11 1595.21 C 1212.54 1604.43 1223.96 1610.76 1240.02 1611.84 C 1289.58 1615.18 1340.23 1578.65 1349.89 1529.34 C 1350.58 1525.82 1352.03 1518.24 1354.1 1515.85 C 1382.14 1519.42 1373.55 1470.48 1353.12 1486.61 C 1347.4 1465.81 1359.92 1476.71 1365.7 1462.57 C 1367.82 1457.38 1363.86 1445.46 1359.24 1441.75 C 1351.58 1435.61 1346.87 1436.87 1339.13 1441.19 C 1335.65 1436.43 1327.88 1426.62 1325.96 1421.74 C 1356.92 1416.06 1308.14 1359.49 1305.58 1400.9 C 1298.9 1397.37 1290.95 1390.62 1283.78 1386.34 C 1235.09 1357.31 1181.9 1342.62 1128.59 1324.32 C 1052.02 1298.03 984.351 1259.27 940.04 1188.87 C 944.661 1190.55 948.372 1192.38 953.167 1190.56 C 962.569 1187 962.927 1173.36 958.38 1165.86 C 949.06 1150.5 937.235 1155.36 928.725 1167.27 C 911.754 1126.72 898.242 1077.45 900.168 1033.03 z" fill="rgb(255,255,255)" transform="translate(0,0)"></path>
<path d="M 1053.06 1244.14 C 1083.37 1241.72 1094.4 1273.59 1070.49 1285.21 C 1044.82 1286.26 1025.92 1256.61 1053.06 1244.14 z" fill="rgb(59,62,115)" transform="translate(0,0)"></path>
<path d="M 1054.08 1250.02 C 1073.87 1249.41 1084.33 1267.4 1068.42 1278.23 C 1052 1278.01 1037.44 1261.78 1054.08 1250.02 z" fill="rgb(247,139,151)" transform="translate(0,0)"></path>
<path d="M 1127.32 1278.13 C 1153.34 1276.95 1164.7 1308.73 1139.77 1319.23 C 1110.81 1319.46 1100.09 1285.49 1127.32 1278.13 z" fill="rgb(59,62,115)" transform="translate(0,0)"></path>
<path d="M 1125.83 1284.99 C 1140.9 1284.67 1154.68 1300.23 1139.44 1311.19 C 1122.9 1310.92 1111.42 1297.16 1125.83 1284.99 z" fill="rgb(247,139,151)" transform="translate(0,0)"></path>
<path d="M 996.628 1203.1 C 1000.73 1203.33 1004.44 1203.86 1008.12 1205.79 C 1012.91 1208.36 1016.51 1212.71 1018.12 1217.91 C 1021.73 1229.58 1015.3 1239 1003.96 1242.21 C 983.063 1240.76 967.914 1211.78 996.628 1203.1 z" fill="rgb(59,62,115)" transform="translate(0,0)"></path>
<path d="M 993.695 1211.1 C 1000.23 1210.65 1004.52 1210.42 1009.31 1215.8 C 1011.39 1218.13 1012.38 1221.26 1012.01 1224.37 C 1011.46 1228.96 1009.13 1231.19 1005.92 1234.13 C 992.331 1235.18 980.648 1221.22 993.695 1211.1 z" fill="rgb(247,139,151)" transform="translate(0,0)"></path>
<path d="M 1193.9 1308.18 C 1220.06 1307.14 1230.35 1338.33 1208.15 1346.17 C 1184.63 1345.78 1169.18 1318.7 1193.9 1308.18 z" fill="rgb(59,62,115)" transform="translate(0,0)"></path>
<path d="M 1194.79 1314.95 C 1209.96 1314.21 1219.44 1327.93 1207.28 1339.16 C 1193 1339 1181.39 1326.58 1194.79 1314.95 z" fill="rgb(247,139,151)" transform="translate(0,0)"></path>
<path d="M 1260.4 1340.23 C 1281.43 1340.21 1294.1 1370.85 1272.74 1374.93 C 1250.78 1370.77 1235.69 1345.61 1260.4 1340.23 z" fill="rgb(59,62,115)" transform="translate(0,0)"></path>
<path d="M 1257.66 1346.89 C 1270.19 1345.72 1281.86 1356.54 1273.2 1368.21 C 1261.25 1367.77 1250.74 1359.15 1257.66 1346.89 z" fill="rgb(247,139,151)" transform="translate(0,0)"></path>
<path d="M 178.659 1494.28 C 172.913 1482.52 169.186 1471.69 168.959 1458.5 C 168.065 1406.37 196.935 1372.9 244.087 1356.84 C 248.29 1360.3 251.481 1362.65 255.903 1365.75 C 296.909 1387.42 308.763 1393.52 354.453 1402.49 C 368.318 1429.36 372.831 1456.33 363.415 1485.72 C 355.914 1509.84 338.967 1529.9 316.436 1541.32 C 292.377 1553.76 264.343 1556.07 238.569 1547.74 C 215.578 1540.13 187.642 1517 178.659 1494.28 z" fill="rgb(137,212,234)" transform="translate(0,0)"></path>
<path d="M 178.659 1494.28 C 172.913 1482.52 169.186 1471.69 168.959 1458.5 C 168.065 1406.37 196.935 1372.9 244.087 1356.84 C 248.29 1360.3 251.481 1362.65 255.903 1365.75 C 250.07 1367.91 243.597 1366.39 238.078 1368.33 C 196.761 1382.85 169.746 1431.72 175.986 1474.47 C 176.723 1479.53 179.4 1489.78 178.659 1494.28 z" fill="rgb(255,255,255)" transform="translate(0,0)"></path>
<path d="M 222.363 1401.21 C 258.703 1399.41 244.558 1435.13 219.24 1444.14 C 190.712 1450.04 190.08 1412.65 222.363 1401.21 z" fill="rgb(255,255,255)" transform="translate(0,0)"></path>
<path d="M 1134.11 457.696 C 1139.6 459.139 1147.37 464.422 1152.12 467.772 C 1182.21 488.975 1210.05 517.259 1228 549.618 C 1287.71 657.114 1242.63 782.486 1180.95 877.805 C 1166.47 900.178 1148.67 922.46 1133.19 944.486 C 1127.4 951.767 1120 962.96 1114.3 970.814 C 1105.14 957.927 1105.76 946.952 1109.11 932.025 C 1116.15 900.587 1131.22 870.407 1143.8 840.923 C 1173.33 771.659 1205.83 694.763 1202.81 618.166 C 1200.53 560.328 1177.43 496.914 1134.11 457.696 z" fill="rgb(247,139,151)" transform="translate(0,0)"></path>
<path d="M 1221.99 707.379 C 1238.18 712.914 1229.67 734.67 1220.55 743.247 C 1216.73 742.829 1216.46 743.121 1213.53 740.544 C 1208.12 730.753 1215.01 714.816 1221.99 707.379 z" fill="rgb(59,62,115)" transform="translate(0,0)"></path>
<path d="M 1222.47 713.337 C 1223.11 713.63 1224.33 714.574 1224.96 715.028 C 1228.54 723.364 1223.63 732.97 1217.93 739.111 C 1217.02 738.77 1216.38 738.068 1215.56 737.387 C 1213.9 729.963 1218.6 719.627 1222.47 713.337 z" fill="rgb(247,139,151)" transform="translate(0,0)"></path>
<path d="M 1206.3 753.344 C 1210.21 754.046 1208.67 753.168 1211.32 755.562 C 1214.9 766.088 1204.86 785.797 1197.54 793.429 L 1194.43 792.957 C 1187.57 787.049 1202.19 759.633 1206.3 753.344 z" fill="rgb(45,22,53)" transform="translate(0,0)"></path>
<path d="M 1208.19 757.636 C 1213.38 763.148 1200.88 783.226 1196.76 788.281 L 1195.83 787.469 C 1195.42 782.274 1205.21 762.623 1208.19 757.636 z" fill="rgb(247,139,151)" transform="translate(0,0)"></path>
<path d="M 1229.86 656.537 C 1231.56 656.824 1234.03 656.814 1234.89 658.085 C 1240.83 666.918 1236.64 678.673 1229.96 684.558 C 1227.17 683.533 1227.29 683.416 1225.03 681.406 C 1221.1 672.964 1223.36 663.019 1229.86 656.537 z" fill="rgb(45,22,53)" transform="translate(0,0)"></path>
<path d="M 1230.04 661.349 L 1232.98 662.62 C 1236.21 668.769 1232.97 676.148 1229.76 681.654 C 1222.91 677.137 1227.36 667.198 1230.04 661.349 z" fill="rgb(247,139,151)" transform="translate(0,0)"></path>
<path d="M 1227.98 615.898 C 1238.38 619.6 1237.88 638.206 1233.42 645.994 C 1223.8 640.47 1223.13 624.157 1227.98 615.898 z" fill="rgb(41,22,33)" transform="translate(0,0)"></path>
<path d="M 1229.3 619.391 C 1235.64 622.717 1233.54 635.174 1232.49 640.855 C 1225.84 639.053 1228.07 624.337 1229.3 619.391 z" fill="rgb(247,139,151)" transform="translate(0,0)"></path>
<path d="M 164.946 1151.76 C 170.436 1166.87 172.973 1184.48 178.745 1200.67 C 196.537 1250.76 233.208 1291.9 280.926 1315.32 C 424.384 1385.67 566.685 1292.87 649.612 1181.25 C 655.449 1173.39 661.884 1163.45 668.002 1156.33 C 668.647 1159.47 661.711 1175.44 660.296 1179.55 C 650.126 1209.1 644.203 1239.51 640.02 1270.54 C 632.358 1279.06 623.448 1286.35 615.046 1294.11 C 549.148 1354.95 456.285 1392.87 366.211 1378.91 L 353.198 1376.62 C 327.403 1372.09 282.03 1355.51 263.823 1336.53 L 263.983 1334.94 C 268.543 1334.46 266.748 1335.37 269.862 1332.82 C 272.458 1321.77 251.283 1303.61 242.126 1316.26 L 242.215 1317.93 L 241.089 1318.65 C 238.012 1316.9 231.023 1311.3 230.561 1307.93 C 230.607 1295.58 222.994 1287.31 213.329 1280.97 C 209.496 1276.33 201.722 1271.51 201.048 1270.46 C 185.52 1246.38 161.862 1177.42 164.946 1151.76 z" fill="rgb(255,255,255)" transform="translate(0,0)"></path>
<path d="M 355.633 1374.54 C 327.256 1358.47 359.087 1342.19 374.178 1355.37 C 378.267 1358.94 381.445 1365.62 378.786 1370.92 C 375.276 1374.22 373.145 1374.69 368.412 1376.08 L 366.211 1378.91 L 353.198 1376.62 L 355.633 1374.54 z" fill="rgb(59,62,115)" transform="translate(0,0)"></path>
<path d="M 355.633 1374.54 C 361.352 1375.93 362.53 1376.09 368.412 1376.08 L 366.211 1378.91 L 353.198 1376.62 L 355.633 1374.54 z" fill="rgb(255,255,255)" transform="translate(0,0)"></path>
<path d="M 353.055 1357.16 C 360.768 1356.57 370.686 1356.54 373.278 1365.54 C 371.888 1369.7 372.596 1368.26 369.079 1371.43 C 361.937 1372.22 353.583 1370.19 350.443 1363.08 C 350.698 1358.68 349.951 1360.62 353.055 1357.16 z" fill="rgb(247,139,151)" transform="translate(0,0)"></path>
<path d="M 613.293 1246.04 C 636.998 1247.77 636.293 1271.25 615.083 1281.64 C 589.82 1282.82 590.559 1254.73 613.293 1246.04 z" fill="rgb(59,62,115)" transform="translate(0,0)"></path>
<path d="M 609.125 1254.15 C 625.853 1251.32 630.51 1263.5 617.237 1275.02 C 601.191 1279.44 597.074 1263.55 609.125 1254.15 z" fill="rgb(247,139,151)" transform="translate(0,0)"></path>
<path d="M 541.655 1310.08 C 547.129 1310.53 554.911 1312.9 555.902 1318.72 C 558.209 1332.29 546.124 1338.2 536.843 1341.57 C 509.869 1339.13 519.223 1316.22 541.655 1310.08 z" fill="rgb(59,62,115)" transform="translate(0,0)"></path>
<path d="M 540.843 1315.88 C 545.066 1316.2 547.249 1317.34 549.2 1321.15 C 550.225 1330.04 543.05 1334.3 535.488 1335.96 C 530.268 1334.51 526.839 1333.29 526.713 1327.46 C 530.169 1320.96 534.432 1319.38 540.843 1315.88 z" fill="rgb(247,139,151)" transform="translate(0,0)"></path>
<path d="M 483.05 1337.14 C 504.625 1338.42 504.541 1359.63 481.209 1366.29 C 455.05 1365.49 458.136 1343.06 483.05 1337.14 z" fill="rgb(59,62,115)" transform="translate(0,0)"></path>
<path d="M 479.054 1344.08 C 485.719 1343.82 490.812 1342.82 492.458 1350.64 C 491.006 1356.5 488.589 1357.7 483.483 1360.78 C 477.847 1361.19 474.95 1361.81 470.851 1357.34 C 469.063 1349.55 472.974 1347.64 479.054 1344.08 z" fill="rgb(247,139,151)" transform="translate(0,0)"></path>
<path d="M 418.232 1351.14 C 441.377 1349 455.031 1366.11 431.453 1376.28 C 409.402 1379.78 395.507 1362.59 418.232 1351.14 z" fill="rgb(59,62,115)" transform="translate(0,0)"></path>
<path d="M 419.781 1357.2 C 426.348 1356.75 435.969 1356.56 436.503 1365.04 C 434.84 1368.85 433.678 1369.23 430.131 1371.78 C 422.38 1372.58 419.794 1372.61 413.819 1367.63 C 411.054 1361.29 414.358 1359.88 419.781 1357.2 z" fill="rgb(247,139,151)" transform="translate(0,0)"></path>
<path d="M 295.138 1334.92 C 303.902 1336.33 320.886 1341.12 320.425 1352.31 C 318.67 1355.91 317.742 1356.12 314.33 1358.14 C 299.62 1358.7 275.637 1343.66 295.138 1334.92 z" fill="rgb(59,62,115)" transform="translate(0,0)"></path>
<path d="M 294.2 1340.99 C 301.271 1340.98 314.019 1343.32 314.388 1352.11 C 305.266 1354.47 294.979 1351.77 294.2 1340.99 z" fill="rgb(247,139,151)" transform="translate(0,0)"></path>
<path d="M 883.517 233.936 C 884.228 234.199 884.94 234.463 885.651 234.726 C 891.004 243.865 895.052 252.353 902.173 260.224 C 734.383 354.348 567.127 449.419 400.412 545.434 L 397.564 546.661 C 394.215 544.87 385.519 523.26 383.326 518.504 L 672.668 354.432 L 801.59 280.449 C 828.654 264.939 856.079 248.649 883.517 233.936 z" fill="rgb(137,212,234)" transform="translate(0,0)"></path>
<path d="M 1614.69 1486.94 C 1615.75 1487.88 1624.32 1511 1626.18 1515.06 C 1610.45 1524.94 1594.24 1534.73 1578.13 1543.99 C 1491.08 1594.06 1404.49 1644.54 1318.12 1695.78 L 1175.63 1778.67 C 1162.77 1786.13 1127.91 1808.48 1117.06 1813.06 C 1112.29 1804.76 1107.31 1796.58 1102.14 1788.53 C 1151.83 1760.87 1200.78 1729.97 1249.69 1700.91 L 1493.44 1557.73 C 1531.65 1535.37 1575.92 1507.42 1614.69 1486.94 z" fill="rgb(137,212,234)" transform="translate(0,0)"></path>
<path d="M 1200.24 1158.14 C 1247.3 1168.05 1292.37 1163.88 1339.15 1156.62 C 1409.28 1147.14 1470.73 1120.54 1534.38 1091.59 C 1626.3 1049.77 1732.69 958.504 1838.01 968.331 C 1833.47 970.847 1831.15 968.928 1828.24 970.651 C 1808.02 971.729 1788.21 976.825 1769.97 985.64 C 1764.09 988.44 1752.09 994.962 1746.67 996.865 C 1739.47 999.389 1730.02 994.692 1722.01 1004.52 C 1712.76 1015.86 1716.8 1017.81 1704.01 1026.77 C 1683.49 1016.11 1670.21 1029.75 1669.84 1050.61 C 1661.05 1056.5 1651.63 1062.58 1643.06 1068.7 C 1629.13 1045.09 1594.82 1079.02 1614.88 1087.65 C 1613.86 1089.22 1580.21 1109.87 1578.3 1110.26 C 1582.48 1084.45 1539.46 1095.78 1542.73 1117.38 C 1543.61 1123.24 1546.86 1124.53 1551.57 1127.29 C 1545.94 1130.56 1520.88 1145.51 1515.81 1146.8 C 1518.02 1144.38 1519.99 1141.51 1519.38 1138.01 C 1514.72 1111.39 1461.1 1137.74 1490.02 1157.71 C 1485.66 1160.43 1454.43 1172.08 1449.56 1172.48 C 1451.66 1170.31 1456.35 1165.08 1455.65 1161.78 C 1448.56 1128.46 1400.28 1162.72 1431.05 1176.92 L 1431.09 1177.78 C 1425.37 1179.91 1395.44 1186.63 1390.45 1185.51 C 1397.08 1180.19 1398.25 1172.24 1391.91 1166.17 C 1378.45 1153.3 1348.29 1173.85 1370.42 1188.77 C 1367.27 1191.16 1329.1 1192.94 1322.21 1193.38 C 1316.78 1194.46 1309.18 1194.05 1303.7 1193.43 C 1244.96 1187.66 1249.9 1187.67 1200.24 1158.14 z" fill="rgb(255,255,255)" transform="translate(0,0)"></path>
<path d="M 1309.62 1191.56 C 1291.43 1182.84 1297.99 1170.12 1314.33 1167.78 C 1328.07 1165.81 1337.6 1181.57 1322.09 1191.4 L 1322.21 1193.38 C 1316.78 1194.46 1309.18 1194.05 1303.7 1193.43 C 1307.34 1192.99 1307.86 1193.63 1309.62 1191.56 z" fill="rgb(59,62,115)" transform="translate(0,0)"></path>
<path d="M 1309.62 1191.56 C 1314.8 1191.96 1316.92 1192.36 1322.09 1191.4 L 1322.21 1193.38 C 1316.78 1194.46 1309.18 1194.05 1303.7 1193.43 C 1307.34 1192.99 1307.86 1193.63 1309.62 1191.56 z" fill="rgb(157,152,171)" transform="translate(0,0)"></path>
<path d="M 1311.99 1172.98 C 1318.13 1172.96 1324.4 1174.17 1323.79 1181.76 C 1322.01 1185.08 1320.36 1185.39 1316.91 1186.99 C 1310.96 1186.77 1304.71 1185.43 1305.21 1178.23 C 1307.34 1174.82 1308.16 1174.78 1311.99 1172.98 z" fill="rgb(247,139,151)" transform="translate(0,0)"></path>
<path d="M 854.692 1152.39 L 855.631 1152.9 C 854.349 1161.71 850.105 1172.99 847.82 1181.98 C 837.73 1221.67 837.129 1261.92 832.223 1302.06 C 824.865 1362.27 816.452 1426.19 795.754 1483.44 C 785.787 1447.89 754.423 1493.52 778.404 1505.6 C 781.358 1507.09 785.531 1504.79 788.483 1503.48 C 788.457 1508.74 778.788 1530.87 775.555 1535.61 C 770.753 1535.46 766.234 1531.34 761.225 1533.71 C 753.904 1537.17 751.143 1554.02 754.103 1560.76 C 755.949 1564.96 759.362 1564.67 760.868 1570.37 C 759.969 1574.36 758.998 1575.41 756.761 1578.96 C 755.198 1579.07 755.745 1579.34 754.943 1578.71 C 739.544 1573.68 728.986 1596.73 739.332 1608.22 C 735.345 1615.81 729.943 1623.59 724.919 1630.58 C 708.738 1622.39 700.471 1643.77 707.468 1655.36 L 706.637 1656.09 C 701.863 1660.39 697.342 1665.31 692.999 1670.03 C 663.02 1702.66 630.841 1734.06 592.968 1757.47 C 585.471 1762.1 571.506 1770.01 562.827 1771.21 C 599.134 1750.61 631.568 1723.84 658.667 1692.09 C 744.571 1593.22 758.643 1480.56 782.285 1357.55 C 794.651 1293.21 821.487 1209.06 854.692 1152.39 z" fill="rgb(255,255,255)" transform="translate(0,0)"></path>
<path d="M 793.025 1406.91 C 815.77 1405.63 812.347 1436.61 798.286 1443.39 C 777.858 1441.9 777.599 1417.35 793.025 1406.91 z" fill="rgb(59,62,115)" transform="translate(0,0)"></path>
<path d="M 794.429 1412.69 C 808.031 1414.57 804.494 1430.53 797.093 1437.88 C 783.772 1433.68 786.943 1420.97 794.429 1412.69 z" fill="rgb(247,139,151)" transform="translate(0,0)"></path>
<path d="M 808.068 1338.02 C 827.909 1340.06 826.522 1367.13 808.793 1373.15 C 788.864 1369.49 790.461 1346.19 808.068 1338.02 z" fill="rgb(59,62,115)" transform="translate(0,0)"></path>
<path d="M 806.154 1344.69 C 820.992 1344.9 818.074 1359.33 810.821 1367.35 C 796.114 1365.48 798.423 1353.15 806.154 1344.69 z" fill="rgb(247,139,151)" transform="translate(0,0)"></path>
<path d="M 813.367 1301.94 C 809.758 1295.9 808.031 1291.54 809.841 1284.17 C 811.434 1277.68 818.003 1268.66 825.9 1271.96 C 829.579 1273.5 830.678 1277.63 831.715 1281.22 C 832.807 1292.15 827.681 1312.07 813.367 1301.94 z" fill="rgb(59,62,115)" transform="translate(0,0)"></path>
<path d="M 815.45 1295.27 C 813.919 1288.23 813.879 1276.97 823.44 1276.59 C 826.631 1278.49 826.719 1279.28 828.296 1282.6 C 827.674 1289.66 827.844 1295.19 820.08 1297 C 818.54 1296.45 816.94 1295.93 815.45 1295.27 z" fill="rgb(247,139,151)" transform="translate(0,0)"></path>
<path d="M 1491.98 514.053 C 1500.55 517.317 1517.16 528.8 1526.24 533.619 C 1557.44 550.183 1587.97 567.849 1619.17 584.455 C 1620.2 600.775 1621.65 605.67 1626.11 621.284 C 1612.52 629.751 1598.18 637.399 1584.12 645.099 C 1560 658.617 1536.09 672.505 1512.4 686.757 C 1507.02 629.283 1492.98 572.779 1491.98 514.053 z" fill="rgb(255,255,255)" transform="translate(0,0)"></path>
<path d="M 1119.8 239.523 C 1136.01 246.632 1163.04 264.351 1179.57 273.527 C 1227.87 300.194 1275.83 327.458 1323.46 355.314 C 1352.79 372.116 1387.84 393.121 1418.13 407.167 C 1415.97 413.566 1408.63 436.412 1405.47 440.374 L 1403.46 439.875 C 1377.92 422.636 1332.56 398.712 1304.38 382.846 C 1260.55 358.347 1216.96 333.421 1173.61 308.073 C 1148.96 293.984 1125.21 281.358 1100.73 266.644 C 1108.47 257.243 1113.4 249.661 1119.8 239.523 z" fill="rgb(137,212,234)" transform="translate(0,0)"></path>
<path d="M 1743.96 1028.15 C 1745.11 1029.36 1745.94 1297.88 1745.89 1326.79 C 1735.78 1327.05 1724.11 1328.43 1714.17 1330.13 L 1713.07 1329.95 C 1710.75 1326.63 1711.87 1309.65 1711.82 1304.45 C 1711.08 1220.17 1713.45 1135.23 1711.76 1051.02 C 1721.75 1042.43 1732.81 1035.14 1743.96 1028.15 z" fill="rgb(137,212,234)" transform="translate(0,0)"></path>
<path d="M 1064.66 1327.01 C 1070.64 1329.16 1078.49 1332.69 1084.51 1335.18 C 1077.31 1370.56 1067.37 1406.61 1059.77 1442.22 L 998.622 1735.95 C 992.285 1735.98 985.884 1736.61 979.556 1737.1 C 981.824 1716.37 986.631 1694.53 990.931 1674.13 C 997.517 1642.91 1004.3 1611.72 1011.28 1580.59 L 1064.66 1327.01 z" fill="rgb(137,212,234)" transform="translate(0,0)"></path>
<path d="M 385.479 644.404 C 389.52 645.804 406.513 655.913 410.877 658.501 L 459.394 687.467 L 549.457 741.485 C 568.61 752.877 589.774 764.797 608.358 776.81 C 605.082 782.344 596.786 798.007 591.874 800.14 C 545.794 775.178 499.746 745.379 454.501 718.815 C 432.68 706.003 389.733 679.314 366.863 670.742 C 373.608 662.108 379.347 653.462 385.479 644.404 z" fill="rgb(137,212,234)" transform="translate(0,0)"></path>
<path d="M 292.759 938.656 C 297.373 943.647 293.355 1188.12 295.27 1210.35 C 295.426 1212.17 295.597 1223.91 295.683 1226.6 C 290.069 1222.23 286.003 1218.39 280.813 1213.49 C 274.28 1206.8 270.393 1201.47 264.963 1193.89 L 265.738 1053.9 C 265.768 1032.2 264.871 1000.76 267.189 979.601 C 268.062 971.627 286.634 946.791 292.759 938.656 z" fill="rgb(137,212,234)" transform="translate(0,0)"></path>
<path d="M 1394.66 1210.18 C 1399.14 1210.79 1627.69 1348.16 1649.68 1362.5 L 1634.82 1382.57 L 1627.51 1377.91 C 1591.33 1354.5 1554.66 1333.13 1517.72 1311 L 1453.44 1271.68 C 1430.01 1257.59 1385.45 1232.44 1365.35 1216.56 C 1375.1 1214.37 1384.88 1212.24 1394.66 1210.18 z" fill="rgb(137,212,234)" transform="translate(0,0)"></path>
<path d="M 389.907 1498.98 C 406.835 1506.07 435.09 1521.9 451.676 1530.86 L 546.125 1581.89 C 563.512 1591.46 581.323 1602.27 598.954 1611.12 C 594.812 1620.35 590.79 1629.53 586.165 1638.54 C 516.817 1599.66 446.954 1561.71 376.596 1524.69 L 389.907 1498.98 z" fill="rgb(137,212,234)" transform="translate(0,0)"></path>
<path d="M 1712.02 703.256 C 1725.83 707.597 1731.25 708.639 1745.73 709.633 C 1745.88 774.622 1747.14 842.241 1746.57 906.892 C 1743.97 909.319 1742.35 909.115 1738.52 910.064 C 1729.86 912.715 1721.19 915.309 1712.51 917.847 C 1710.99 848.445 1712.17 773.14 1712.02 703.256 z" fill="rgb(137,212,234)" transform="translate(0,0)"></path>
<path d="M 714.13 1683.97 C 733.681 1693.2 758.86 1707.84 778.013 1718.48 C 817.074 1740.23 855.977 1762.27 894.721 1784.58 C 891.438 1788.68 878.331 1808.89 877.203 1809.66 C 857.642 1795.59 838.208 1788.09 818.785 1775.83 C 778.424 1750.35 735.418 1729.46 694.666 1705.27 C 702.858 1697.81 708.202 1693.3 714.13 1683.97 z" fill="rgb(137,212,234)" transform="translate(0,0)"></path>
<path d="M 1473.97 708.182 C 1477.63 708.746 1480.1 708.04 1481.43 711.811 C 1481.08 718.071 1480.83 724.803 1480.31 731.008 C 1475 776.636 1464.94 819.235 1445.24 860.851 C 1442.77 866.073 1440.22 871.11 1438.38 876.602 C 1436.65 879.119 1436.87 878.144 1436.34 880.895 C 1428.62 891.927 1415.23 900.219 1422.18 913.511 L 1422.94 914.993 C 1423.11 915.316 1423.29 915.639 1423.46 915.961 C 1420.76 919.517 1415.77 926.793 1412.41 929.061 L 1411.35 927.946 C 1408.73 925.258 1405.45 921.524 1401.61 922.62 C 1387.29 926.706 1377.61 944.05 1392.35 954.187 C 1384.47 962.316 1360.61 987.498 1351.31 990.619 C 1353.43 984.992 1355.1 980.806 1349.18 977.104 C 1343.6 976.507 1338.97 979.067 1337.51 984.676 C 1338.37 988.865 1339.15 990.33 1343.27 992.069 L 1347.25 993.533 C 1340.43 1000.28 1304.63 1021.68 1295.5 1023.08 C 1294.26 1006.78 1279.83 1013.07 1272.19 1020.62 C 1261.65 1030.41 1237.4 1023.34 1223.81 1021.13 C 1274.19 1011.26 1320.93 987.897 1359.06 953.533 C 1429.43 890.107 1468.82 802.28 1473.97 708.182 z" fill="rgb(255,255,255)" transform="translate(0,0)"></path>
<path d="M 1496.09 452.148 C 1505.02 455.612 1528.14 469.806 1537.62 475.224 C 1568.9 492.993 1599.99 511.112 1630.87 529.577 C 1626.82 539.092 1624.35 547.775 1622.27 557.842 L 1621.63 559.312 C 1616.03 559.806 1504.59 496.17 1490.75 488.077 C 1491.79 475.511 1493.27 464.42 1496.09 452.148 z" fill="rgb(137,212,234)" transform="translate(0,0)"></path>
<path d="M 1633.17 643.782 C 1636.66 644.762 1649.55 661.088 1653.18 665.185 C 1610.12 690.265 1570.77 713.115 1526.7 736.379 C 1521.53 739.176 1516.11 741.71 1510.81 744.277 C 1511.74 733.48 1512.51 722.67 1513.13 711.851 C 1527.03 701.647 1556.14 686.947 1571.77 677.984 C 1591.71 666.552 1612.67 653.733 1633.17 643.782 z" fill="rgb(137,212,234)" transform="translate(0,0)"></path>
<path d="M 288.492 710.502 L 291.56 710.128 C 291.975 710.563 292.391 710.998 292.806 711.433 C 292.605 742.644 293.682 803.925 294.353 832.868 C 285.961 836.148 277.346 841.404 269.563 846.024 L 267.211 846.73 C 263.912 841.794 265.34 723.274 265.443 710.826 C 273.127 711.027 280.816 710.919 288.492 710.502 z" fill="rgb(137,212,234)" transform="translate(0,0)"></path>
<path d="M 1308.17 836.167 L 1308.6 836.649 C 1307.84 840.153 1300.26 849.878 1297.7 852.941 C 1264.5 892.708 1210.51 933.657 1161.9 949.914 C 1161.65 949.285 1161.39 948.656 1161.14 948.027 C 1178.78 917.941 1214.15 898.498 1242.47 878.949 C 1263.01 864.775 1286.44 847.876 1308.17 836.167 z" fill="rgb(137,212,234)" transform="translate(0,0)"></path>
<path d="M 1027.39 308.496 C 1028.38 308.356 1027.66 308.405 1029.5 308.846 C 1033.03 319.413 1036.42 334.292 1039.3 345.322 C 1044.02 363.412 1048.95 381.449 1054.08 399.429 C 1047.14 398.243 1041.12 397.462 1034.12 396.687 L 1027.95 395.78 C 1024.97 393.56 1005.95 319.563 1003.26 310.334 C 1011.23 310.084 1019.42 309.219 1027.39 308.496 z" fill="rgb(137,212,234)" transform="translate(0,0)"></path>
<path d="M 1464.82 538.292 C 1465.46 531.017 1463.63 517.902 1467.13 512.532 C 1469.54 516.033 1470.88 560.017 1471.58 568.033 C 1476.07 609.757 1481.28 650.123 1485.21 692.049 C 1481.33 696.345 1482.94 707.335 1481.43 711.811 C 1480.1 708.04 1477.63 708.746 1473.97 708.182 C 1474.14 696.695 1474.22 685.24 1474.25 673.753 C 1474.33 639.144 1469.73 604.8 1469.04 570.197 C 1468.83 568 1468.47 566.527 1468 564.365 C 1466.92 561.1 1466.6 560.225 1465.05 557.179 C 1464.73 551.68 1464.88 543.967 1464.82 538.292 z" fill="rgb(247,139,151)" transform="translate(0,0)"></path>
<path d="M 1464.82 538.292 C 1465.46 531.017 1463.63 517.902 1467.13 512.532 C 1467.15 530.031 1467.91 547.169 1468 564.365 C 1466.92 561.1 1466.6 560.225 1465.05 557.179 C 1464.73 551.68 1464.88 543.967 1464.82 538.292 z" fill="rgb(45,22,53)" transform="translate(0,0)"></path>
<path d="M 693.36 729.957 C 709.949 729.273 714.218 756.01 695.716 762.193 C 676.486 760.584 678.705 739.003 693.36 729.957 z" fill="rgb(255,255,255)" transform="translate(0,0)"></path>
<path d="M 1501.26 1133.03 C 1506.13 1132.74 1507.85 1132.75 1511.79 1135.24 C 1516.3 1143.64 1505.46 1148.72 1499.31 1151.58 C 1495.17 1152.09 1492.35 1151.64 1489.1 1148.97 C 1485.98 1140.23 1494.66 1135.84 1501.26 1133.03 z" fill="rgb(247,139,151)" transform="translate(0,0)"></path>
<path d="M 940.361 1163.92 C 952.736 1162.79 960.833 1176.26 949.089 1185.32 C 936.981 1183.53 927.854 1174.04 940.361 1163.92 z" fill="rgb(247,139,151)" transform="translate(0,0)"></path>
<path d="M 1485.21 692.049 L 1485.49 694.097 C 1486.07 713.28 1485.35 768.525 1478.16 786.011 L 1476.58 785.379 C 1475.55 783.928 1482.07 743.389 1482.52 737.317 C 1482.03 734.574 1481.39 733.574 1480.31 731.008 C 1480.83 724.803 1481.08 718.071 1481.43 711.811 C 1482.94 707.335 1481.33 696.345 1485.21 692.049 z" fill="rgb(248,209,214)" transform="translate(0,0)"></path>
<path d="M 1485.21 692.049 L 1485.49 694.097 C 1482.89 700.619 1483.61 727.948 1482.52 737.317 C 1482.03 734.574 1481.39 733.574 1480.31 731.008 C 1480.83 724.803 1481.08 718.071 1481.43 711.811 C 1482.94 707.335 1481.33 696.345 1485.21 692.049 z" fill="rgb(104,39,47)" transform="translate(0,0)"></path>
<path d="M 1560.15 1102.05 C 1565.73 1102 1571.68 1101.53 1572.49 1108.4 C 1570.12 1115.04 1566.8 1115.96 1560.68 1119.44 C 1557.36 1120.64 1557.58 1120.54 1554.04 1120.11 C 1544.37 1113.87 1552.78 1105.37 1560.15 1102.05 z" fill="rgb(247,139,151)" transform="translate(0,0)"></path>
<path d="M 1434.21 1155.13 C 1435.64 1154.97 1437.08 1154.85 1438.52 1154.77 C 1449.77 1154.26 1452.18 1164.06 1441.07 1170.87 C 1434.9 1171.29 1433.25 1171.73 1428.54 1167.89 C 1425.42 1161.21 1429.08 1158.88 1434.21 1155.13 z" fill="rgb(247,139,151)" transform="translate(0,0)"></path>
<path d="M 1376 1168.05 L 1377.06 1168.03 C 1389.65 1167.95 1395.57 1176.54 1382.46 1183.94 C 1370.08 1184.73 1363.19 1176.32 1376 1168.05 z" fill="rgb(247,139,151)" transform="translate(0,0)"></path>
<path d="M 1312.39 1403.97 C 1311.44 1400.37 1310.79 1399.28 1312.04 1395.78 C 1320.3 1388.43 1335.84 1404.66 1323.72 1418.01 C 1321.97 1415.22 1314.73 1406.12 1312.39 1403.97 z" fill="rgb(247,139,151)" transform="translate(0,0)"></path>
<path d="M 783.305 1476.32 C 793.386 1479.9 789.676 1495.6 781.759 1500.55 C 770.421 1494.17 776.037 1483.45 783.305 1476.32 z" fill="rgb(247,139,151)" transform="translate(0,0)"></path>
<path d="M 1629.53 1065.82 C 1633.4 1066.11 1635.64 1066.49 1637.08 1070.19 C 1635.43 1075.87 1627.19 1080.15 1622.14 1083.32 C 1618.47 1083.32 1616.74 1082.86 1614.89 1079.84 C 1615.74 1073.02 1624 1068.53 1629.53 1065.82 z" fill="rgb(247,139,151)" transform="translate(0,0)"></path>
<path d="M 1345.09 1444.91 C 1359.19 1443.56 1361.7 1458.24 1354.28 1467.19 C 1347.74 1465.76 1342.01 1451.05 1345.09 1444.91 z" fill="rgb(247,139,151)" transform="translate(0,0)"></path>
<path d="M 1399.35 928.547 C 1404.12 928.924 1404.91 929.289 1406.64 933.497 C 1406.03 940.018 1402.34 942.986 1397.84 947.411 C 1394.65 948.157 1395.9 947.968 1392.39 947.113 C 1387.56 940.888 1394.72 932.564 1399.35 928.547 z" fill="rgb(247,139,151)" transform="translate(0,0)"></path>
<path d="M 1356.08 1488.24 C 1371.6 1487.39 1368.59 1505.86 1355.39 1513.11 C 1354.97 1509.46 1355.94 1492.93 1356.08 1488.24 z" fill="rgb(247,139,151)" transform="translate(0,0)"></path>
<path d="M 764.817 1539.05 C 777.681 1541.58 768.133 1553.43 764.056 1561.27 C 762.425 1561.92 763.262 1561.68 760.827 1560.65 C 757.185 1554.18 759.4 1544.13 764.817 1539.05 z" fill="rgb(247,139,151)" transform="translate(0,0)"></path>
<path d="M 1438.38 876.602 C 1440.1 874.536 1440.29 873.913 1442.6 872.663 L 1445.82 874.354 C 1444.8 882.407 1439.15 895.48 1432.65 900.404 C 1430.45 891.3 1433.73 889.511 1436.34 880.895 C 1436.87 878.144 1436.65 879.119 1438.38 876.602 z" fill="rgb(247,139,151)" transform="translate(0,0)"></path>
<path d="M 240.951 1066.43 C 243.757 1070.43 242.638 1116.47 241.667 1123.27 C 239.506 1111.52 239.019 1078.39 240.951 1066.43 z" fill="rgb(201,191,204)" transform="translate(0,0)"></path>
<path d="M 1691.04 1028.17 L 1695.92 1028.34 L 1696.56 1029.32 C 1694.41 1031.99 1683.65 1039.18 1679.83 1042.09 L 1677.28 1043.48 L 1676.28 1042.12 C 1677.8 1034.91 1684.66 1030.62 1691.04 1028.17 z" fill="rgb(247,139,151)" transform="translate(0,0)"></path>
<path d="M 741.041 1603.04 C 740.017 1593.43 740.963 1586.01 750.905 1582.95 C 751.917 1590 746.457 1598.88 741.041 1603.04 z" fill="rgb(248,209,214)" transform="translate(0,0)"></path>
<path d="M 246.65 1319.88 C 254.105 1314.81 263.161 1320.48 262.491 1328.06 C 258.657 1329.06 255.271 1326.48 251.722 1324.4 C 250.475 1323.66 249.232 1322.93 247.993 1322.18 L 246.65 1319.88 z" fill="rgb(248,209,214)" transform="translate(0,0)"></path>
<path d="M 1838.01 968.331 C 1854.9 970.029 1868.88 974.182 1883.79 982.551 C 1859.95 974.514 1853.34 971.15 1828.24 970.651 C 1831.15 968.928 1833.47 970.847 1838.01 968.331 z" fill="rgb(201,191,204)" transform="translate(0,0)"></path>
<path d="M 709.712 1650.17 C 709.436 1641.79 710.598 1634.9 720.424 1634.5 C 717.639 1640.99 714.719 1645.14 709.712 1650.17 z" fill="rgb(255,255,255)" transform="translate(0,0)"></path>
<path d="M 1461.48 840.604 C 1459.94 839.268 1460.65 840.106 1459.54 837.957 C 1460.49 833.355 1462.07 826.473 1465.51 823.079 L 1467.73 824.057 C 1466.51 829.186 1465.11 836.802 1461.48 840.604 z" fill="rgb(255,255,255)" transform="translate(0,0)"></path>
<path d="M 1447.98 873.766 C 1443.29 868.994 1446.68 862.615 1451.99 860.436 L 1453.78 861.796 C 1452.18 865.905 1450.8 870.54 1447.98 873.766 z" fill="rgb(255,255,255)" transform="translate(0,0)"></path>
<path d="M 1456.3 856.339 C 1451.34 850.304 1454.43 844.712 1461.11 842.207 C 1460.75 847.787 1459.27 851.554 1456.3 856.339 z" fill="rgb(255,255,255)" transform="translate(0,0)"></path>
<path d="M 1468.51 822.24 L 1466.67 819.608 C 1466.87 814.513 1467.46 807.623 1473.04 806.084 C 1473.48 809.227 1469.76 818.615 1468.51 822.24 z" fill="rgb(255,255,255)" transform="translate(0,0)"></path>
<path d="M 1476.44 788.165 C 1478.93 793.127 1476.24 800.075 1472.73 803.875 L 1471.37 801.797 C 1471.69 796.132 1472.82 792.554 1476.44 788.165 z" fill="rgb(255,255,255)" transform="translate(0,0)"></path>
<path d="M 214.081 1287.15 C 221.159 1291.1 221.743 1293.81 223.36 1301.49 C 218.971 1297.77 214.965 1292.95 214.081 1287.15 z" fill="rgb(255,255,255)" transform="translate(0,0)"></path>
<path d="M 1734.93 1003.05 L 1735.53 1003.88 C 1733.74 1006.59 1728.21 1010.05 1725.31 1012.1 L 1724.48 1011.12 L 1725.13 1009.18 C 1728.34 1005.92 1730.79 1005.07 1734.93 1003.05 z" fill="rgb(255,255,255)" transform="translate(0,0)"></path>
<metadata><recraft-signature>{"signed_by": "recraft", "signature_b64": "GOMLyNlYg8fZmzyOBbAU1Pn1NFdOTe7nzkZx9zsWwnUYynrWHb7FVFpyJOFfjM2WM8tQD1KIHlbCEMwzGq8qAg==", "signing_algo": "Ed25519", "generation_timestamp": 1771192005, "identifier": "b9f178f6-1de5-4a41-9368-b7a936d6b1c6"}</recraft-signature></metadata></svg>