<svg xmlns="http://www.w3.org/2000/svg" height="1024" preserveAspectRatio="none" style="display: block;" version="1.1" viewBox="0 0 2048 2048" width="1024">
<path d="M 0 0 L 2048 0 L 2048 2048 L 0 2048 L 0 0 z" fill="rgb(255,255,255)" transform="translate(0,0)"></path>
<path d="M 595.738 97.4227 C 602.963 96.4637 626.235 96.5403 634.103 96.7127 C 741.096 99.5956 845.442 148.213 928.142 214.115 C 958.636 237.278 981.499 261.616 1008.57 289.308 C 1026.85 308.012 1047.74 346.236 1081.08 331.493 C 1091.42 326.923 1095.08 317.127 1098.23 307.012 C 1107.83 327.688 1102.72 341.012 1083.54 352.522 C 1088.47 355.833 1092.64 360.015 1096.67 364.367 C 1149.71 421.766 1175.39 504.757 1172.94 581.945 C 1220.62 597.752 1256.66 634.94 1251.64 687.722 C 1244.96 757.836 1199.07 806.735 1149.22 851.321 C 1151.42 852.477 1153.94 853.788 1156.27 854.552 C 1226.48 877.712 1296.05 856.995 1338.47 796.101 C 1394.08 716.273 1349.72 636.67 1327.24 555.561 C 1315.41 512.893 1315.86 465.894 1331.24 423.778 C 1381.06 287.396 1593.82 221.058 1689.39 347.463 C 1709.57 374.158 1725.85 405.176 1712.44 438.911 C 1700.54 424.407 1687.42 410.196 1671.31 400.704 C 1596.81 356.408 1482 398.414 1472.01 490.024 C 1466.44 541.091 1480.71 578.737 1497.43 626.03 C 1530.35 719.149 1533.73 803.338 1481.89 890.93 C 1509.47 879.728 1535.83 865.713 1563.08 853.663 C 1615.3 830.237 1671.1 815.792 1728.12 810.937 C 1782.4 806.661 1827.43 814.435 1869.86 850.71 C 1913.74 888.233 1934.36 948.68 1938.05 1004.98 C 1943.27 1084.64 1928.51 1179.65 1874.51 1241.53 C 1848.79 1271.74 1819 1290.54 1778.78 1294.07 C 1721.89 1299.07 1664.04 1260.29 1659.51 1200.8 C 1656.61 1162.68 1688.88 1134.4 1725.22 1132.53 C 1728.83 1132.34 1730.5 1133.18 1732.94 1135.57 C 1734.36 1142.13 1728.88 1147.5 1726.2 1153.84 C 1717.84 1175.2 1732 1201.03 1753.47 1207.29 C 1770.18 1212.22 1788.35 1208.45 1803.86 1201.29 C 1879.44 1166.41 1891.04 1052.81 1829.75 999.501 C 1740.51 921.897 1619.46 998.451 1533.88 1042.98 C 1550.68 1052.63 1568.34 1068.5 1580.72 1083.22 C 1595.24 1100.47 1607.59 1119.42 1617.5 1139.66 C 1630.72 1167.16 1650.73 1239.38 1654.14 1269.36 C 1655.86 1285.07 1655.93 1300.92 1654.37 1316.66 C 1646.62 1402.6 1590.2 1482.03 1518.3 1527.12 C 1492.11 1543.54 1465.01 1555.64 1438.05 1570.23 C 1427.83 1575.76 1416.59 1592.12 1402.38 1598.04 C 1387.87 1604.08 1379.67 1602.14 1364.94 1608.92 C 1351 1615.33 1335.87 1621.23 1321.94 1627.67 C 1318.44 1629.3 1301.75 1636.42 1299.93 1637.9 C 1291.27 1644.92 1286.91 1651.73 1276.63 1658.19 C 1270.37 1662.12 1254.79 1664.77 1251.99 1666.5 C 1239.12 1674.47 1218.75 1689.55 1207.26 1699.1 C 1204.63 1705.9 1204.57 1706.83 1198.75 1711.52 C 1163.76 1739.73 1137.77 1792.23 1137.02 1837.17 C 1136.33 1878.82 1170.85 1927.52 1199.38 1956.16 C 1080.51 1943.17 1030.96 1804.68 1073.89 1703.26 C 1128.94 1573.23 1259.88 1507.2 1367.91 1427.45 C 1409.66 1396.63 1450.26 1363.44 1478.92 1319.56 C 1507.84 1276.74 1502.6 1226.42 1456.47 1198.27 C 1405.88 1210.67 1352.09 1198.83 1303.4 1183.21 C 1290.66 1257.97 1268.53 1312.75 1218.39 1370.83 C 1138.16 1463.75 1038.52 1524.46 914.819 1534.29 L 913.576 1534.45 C 872.206 1539.42 816.77 1534.68 782.974 1508.26 C 815.387 1512.03 861.178 1507.53 892.877 1499.93 C 975.606 1480.09 1049.05 1424.36 1094.16 1352.65 C 1117.14 1316.14 1149.45 1236.41 1139.63 1194.18 C 1134.3 1216.51 1126.52 1242.65 1114.9 1262.43 C 1062.06 1352.37 947.459 1398.69 854.663 1435.97 C 784.807 1463.48 716.2 1490.35 668.979 1552.07 C 616.86 1620.19 632.989 1720.64 700.643 1771.99 C 729.942 1794.23 768.285 1802.88 804.745 1797.43 C 848.126 1790.96 893.023 1753.93 884.159 1705.95 C 881.348 1690.51 872.491 1676.82 859.554 1667.94 C 846.236 1658.99 829.862 1655.8 814.161 1659.12 C 800.513 1661.98 785.813 1670.61 775.971 1681.15 C 773.925 1683.33 776.466 1681.92 773.001 1684.32 L 772.155 1683.33 C 770.113 1647.91 814.755 1617.38 846.896 1614.46 C 909.687 1608.76 955.627 1644.36 961.314 1707.5 C 971.396 1819.42 867.879 1895.45 765.431 1902.4 C 690.963 1907.66 615.588 1888.23 558.396 1838.89 C 502.68 1791.53 468.524 1723.62 463.721 1650.65 C 356.263 1696.06 186.65 1691.14 130.447 1571.17 C 81.1607 1465.96 119.383 1356.53 223.075 1304.92 C 293.083 1270.08 385.663 1278.31 425.387 1352.73 C 443.893 1387.4 431.748 1435.3 395.89 1452.6 C 392.564 1454.24 381.124 1457.71 377.732 1456.36 C 376.714 1452.65 387.079 1437.84 385.849 1429.62 C 373.196 1345.04 286.945 1369.91 245.717 1412.89 C 245.893 1446.28 254.784 1471.25 283.216 1490.73 C 310.951 1509.55 345.059 1516.49 377.944 1510.02 C 502.803 1485.74 538.814 1330.42 602.473 1236.42 C 593.425 1240.83 583.226 1243.67 573.924 1247.56 C 475.656 1288.72 325.985 1299.45 234.451 1238.07 C 188.731 1206.95 157.305 1158.89 147.134 1104.52 C 136.27 1048.46 147.979 990.373 179.713 942.895 C 203.157 908.125 235.121 881.458 277.808 873.081 C 347.028 859.498 404.432 910.818 398.449 981.356 C 398.001 986.636 394.871 1002.27 391.981 1006.4 C 390.35 1005.6 377.004 983.475 373.999 979.623 C 349.357 948.028 311.845 933.283 273.854 949.995 C 199.61 982.652 211.243 1101.85 279.352 1134.78 C 295.802 1143.82 314.284 1148.84 332.818 1151.37 C 450.888 1167.51 576.428 1112.01 652.362 1021.96 C 667.711 1003.76 678.391 982.468 686.64 960.32 C 563.255 912.506 455.503 862.933 353.012 776.042 C 278.983 713.281 214.158 635.632 205.536 534.964 C 196.598 430.598 249.578 327.684 316.255 250.685 C 389.017 166.661 483.008 106.277 595.738 97.4227 z" fill="rgb(21,31,74)" transform="translate(0,0)"></path>
<path d="M 734.257 963.508 C 690.891 947.69 647.317 927.523 605.685 908.001 C 515.401 865.663 435.347 820.227 359.37 755.094 C 291.483 696.897 236.625 622.227 229.763 530.005 C 222.573 433.366 270.485 334.831 331.168 262.636 C 398.121 182.982 486.464 128.884 591.502 121.089 C 711.196 112.207 832.756 164.882 926.78 235.721 C 961.567 261.93 989.725 288.727 1022.41 316.562 C 1025.14 318.509 1024.42 317.231 1025.31 320.029 C 1028.93 323.134 1032 325.686 1035.83 328.586 C 1017.88 330.008 1001.83 335.038 989.613 349.213 C 975.508 365.577 971.529 389.552 973.357 410.526 C 975.418 434.175 985.143 457.276 992.536 479.669 C 1004.73 516.616 1033.7 607.199 1061.69 631.318 C 1068.07 636.811 1075.5 638.501 1083.79 637.82 C 1106.09 635.986 1127.43 620.735 1144.56 607.469 C 1149.56 603.59 1154.57 598.607 1160.07 595.526 L 1167.47 589.218 C 1178.71 593.65 1189.79 600.485 1199.27 607.953 C 1284.03 674.698 1192.23 800.939 1127.2 844.983 C 1122.79 849.081 1115.4 853.859 1110.17 856.923 C 1108.16 860.344 1095.66 868.571 1091.79 871.573 C 1069.78 888.661 1047.16 905.795 1035 931.349 C 1060.76 903.469 1100.2 882.56 1132.99 862.369 C 1139.93 869.128 1149.61 878.241 1155.75 885.469 L 1155.19 886.693 C 1153.68 886.763 1152.75 886.681 1151.33 887.244 C 1221.98 943.403 1275.74 1026.84 1285.75 1117.51 C 1294.97 1201.03 1262.46 1287.4 1210.68 1352.12 C 1188.96 1379.48 1164.06 1404.15 1136.5 1425.61 C 1135.03 1428.01 1123.16 1436.19 1120.26 1438.3 C 1090.49 1459.96 1062.55 1477.98 1028.37 1492.02 C 1015.22 1497.4 1001.75 1501.98 988.047 1505.73 C 977.493 1508.65 908.766 1523.52 902.915 1521.07 C 909.473 1516.19 914.823 1519.11 920.881 1517.91 C 1064.71 1489.62 1176.82 1356.49 1199.27 1215.19 C 1213.77 1123.92 1169.78 994.526 1097.96 937.933 C 1102.12 943.663 1105.5 948.47 1109.26 954.461 C 1110.07 960.107 1119.23 975.902 1122.02 982.469 C 1130.8 1003.07 1140.48 1051.53 1139.85 1074.14 C 1139.05 1073.72 1138.26 1073.31 1137.46 1072.89 C 1127.1 1050 1117.95 1026.3 1102.82 1006 C 1097 998.183 1090.97 990.567 1085.11 982.783 C 1089.55 993.64 1097.91 1009.69 1100.49 1020.19 C 1109.24 1055.76 1113.7 1114.32 1098.09 1148.28 C 1061.04 1228.89 978.867 1283.97 898.707 1315.65 C 853.947 1333.34 810.955 1345.22 766.358 1362.22 C 672.525 1398.65 593.528 1472.2 554.507 1565.43 C 529.955 1624.09 521.803 1686.29 546.859 1746.7 C 570.472 1803.63 614.611 1851.54 671.967 1874.98 C 672.884 1875.35 673.807 1875.7 674.735 1876.04 L 672.378 1877.6 C 669.293 1876.26 659.792 1873.63 656.051 1872.34 C 578.178 1845.6 543.971 1809.18 508.473 1738.86 C 504.86 1736.39 503.895 1732.3 501.5 1727.69 C 494.076 1717.85 487.187 1685.77 484.958 1673.59 C 473.697 1612.02 485.093 1561.14 511.902 1505.72 C 554.731 1417.18 626.995 1352.68 715.599 1311.22 C 801.509 1271.67 900.398 1247.05 958.348 1165.76 C 988.337 1123.69 997.117 1062.5 982.206 1013.01 C 980.22 1006.41 975.941 999.948 974.978 993.069 C 974.275 988.955 969.133 987.082 965.344 986.238 C 964.522 987.891 964.63 986.998 965.14 988.846 C 974.494 1022.73 973.51 1058.19 955.555 1089.08 C 938.457 1118.49 826.861 1242.25 798.973 1258.5 C 783.528 1267.51 761.359 1274.14 744.415 1281.07 C 713.558 1293.64 683.748 1308.63 655.269 1325.92 C 634.127 1339.24 614.145 1354.31 595.535 1370.98 C 587.567 1377.98 571.339 1393.49 563.319 1399.12 C 560.232 1398.35 561.332 1398.66 558.594 1396.48 C 545.965 1416.76 531.745 1435.98 518.469 1455.84 C 507.244 1472.64 502.218 1489.15 486.128 1501.91 C 465.434 1515.97 446.373 1526.48 421.541 1532.21 C 417.417 1533.16 395.635 1536.15 393.822 1536.88 C 376.537 1537.3 365.836 1536.93 349.005 1533.64 C 346.762 1533.44 340.885 1531.94 338.407 1531.37 L 339.011 1530.47 C 346.534 1530.82 354.062 1531.06 361.592 1531.19 C 491.278 1519.79 541.955 1388.37 592.604 1287.88 C 638.273 1197.27 692.992 1134.3 782.064 1086.04 L 783.953 1087.82 C 785.684 1086.69 785.986 1086.66 787.906 1085.84 L 792.83 1080.4 C 792.245 1081.15 826.115 1060.36 831.168 1056.23 C 760.667 1084.44 714.903 1107.09 660.725 1160.91 C 653.141 1168.54 645.978 1176.57 639.267 1184.98 C 634.719 1190.58 623.026 1206.51 618.208 1209.07 C 595.825 1220.97 529.524 1246.33 505.154 1248.01 C 502.255 1251.32 499.615 1252.89 494.985 1251.76 C 489.718 1252.95 475.522 1256.13 470.382 1255.8 C 456.095 1258.45 430.534 1259.11 415.993 1259.48 C 346.5 1261.35 269.685 1248.57 218.25 1198.18 C 145.948 1127.35 143.595 1001.53 215.599 929.672 C 236.864 908.451 266.05 891.347 296.539 891.037 C 304.683 890.412 309.615 890.914 317.743 892.308 C 323.703 893.192 325.317 893.556 330.973 895.594 L 331.481 896.687 L 332.021 899.197 C 366.493 905.979 375.117 936.394 380.902 966.036 C 361.039 944.134 340.074 928.583 309.256 926.992 C 282.583 925.82 256.506 935.11 236.583 952.883 C 214.967 972.542 204.182 1001.28 203.038 1030.08 C 201.871 1068.51 215.848 1105.86 241.956 1134.07 C 245.046 1137.39 255.786 1148.21 259.561 1149.67 L 260.671 1147.81 L 262.258 1148.76 C 392.43 1217.44 590.045 1142.98 667.512 1025.08 C 672.092 1017.53 676.118 1010.89 680.148 1002.99 C 681.731 998.459 683.627 994.16 686.553 990.369 L 688.824 989.142 L 689.897 990.967 C 693.095 984.941 695.605 970.666 697.014 963.493 C 715.887 971.739 736.067 977.899 754.888 986.407 C 761.1 989.215 767.541 991.875 773.864 994.424 C 767.297 989.375 725.431 965.963 724.281 964.297 C 726.524 963.299 731.25 963.652 734.257 963.508 z" fill="rgb(75,86,123)" transform="translate(0,0)"></path>
<path d="M 734.257 963.508 C 690.891 947.69 647.317 927.523 605.685 908.001 C 515.401 865.663 435.347 820.227 359.37 755.094 C 291.483 696.897 236.625 622.227 229.763 530.005 C 222.573 433.366 270.485 334.831 331.168 262.636 C 398.121 182.982 486.464 128.884 591.502 121.089 C 711.196 112.207 832.756 164.882 926.78 235.721 C 961.567 261.93 989.725 288.727 1022.41 316.562 C 1022.1 316.537 1021.79 316.513 1021.48 316.488 C 960.479 281.716 901.781 240.323 839.79 207.399 C 712.269 139.672 562.214 118.086 433.205 194.638 C 375.898 227.661 333.874 271.597 299.707 328.156 C 294.506 336.764 283.329 355.936 279.835 364.885 C 273.364 378.102 260.365 407.586 258.124 421.207 C 254.233 431.61 251.795 443.972 249.541 454.895 C 210.695 643.15 405.377 779.22 545.627 860.777 C 563.389 871.201 581.394 881.205 599.627 890.782 C 605.645 893.997 618.237 901.065 624.151 903.44 C 644.496 914.778 665.999 925.41 686.849 935.901 C 705.777 945.425 726.298 956.132 745.74 964.488 C 747.712 965.954 754.226 969.28 756.704 970.626 C 749.496 968.818 741.69 965.698 734.257 963.508 z" fill="rgb(255,255,255)" transform="translate(0,0)"></path>
<path d="M 974.978 993.069 C 1037.79 1076.27 986.335 1190.46 910.163 1244.9 C 827.099 1304.26 723.848 1316.24 642.209 1377.79 C 566.94 1435.68 505.868 1525.88 490.412 1620.41 C 488.679 1631.01 486.115 1663.59 489.47 1673.8 C 492.385 1696.75 498.33 1709.2 501.5 1727.69 C 494.076 1717.85 487.187 1685.77 484.958 1673.59 C 473.697 1612.02 485.093 1561.14 511.902 1505.72 C 554.731 1417.18 626.995 1352.68 715.599 1311.22 C 801.509 1271.67 900.398 1247.05 958.348 1165.76 C 988.337 1123.69 997.117 1062.5 982.206 1013.01 C 980.22 1006.41 975.941 999.948 974.978 993.069 z" fill="rgb(255,255,255)" transform="translate(0,0)"></path>
<path d="M 361.592 1531.19 C 491.278 1519.79 541.955 1388.37 592.604 1287.88 C 638.273 1197.27 692.992 1134.3 782.064 1086.04 L 783.953 1087.82 C 774.847 1094.26 762.527 1102.5 754.396 1109.8 C 745.969 1115.54 732.706 1127.81 725.295 1135.05 C 687.34 1172.11 656.443 1214.52 631.015 1261.02 C 627.499 1267.45 616.943 1286.25 614.687 1292.9 C 597.659 1328.48 585.823 1351.8 565.541 1385.76 C 562.743 1389.68 560.962 1392.3 558.594 1396.48 C 545.965 1416.76 531.745 1435.98 518.469 1455.84 C 507.244 1472.64 502.218 1489.15 486.128 1501.91 C 465.434 1515.97 446.373 1526.48 421.541 1532.21 C 417.417 1533.16 395.635 1536.15 393.822 1536.88 C 376.537 1537.3 365.836 1536.93 349.005 1533.64 C 346.762 1533.44 340.885 1531.94 338.407 1531.37 L 339.011 1530.47 C 346.534 1530.82 354.062 1531.06 361.592 1531.19 z" fill="rgb(255,255,255)" transform="translate(0,0)"></path>
<path d="M 338.407 1531.37 L 339.011 1530.47 C 346.534 1530.82 354.062 1531.06 361.592 1531.19 C 357.852 1531.97 351.929 1532.19 349.005 1533.64 C 346.762 1533.44 340.885 1531.94 338.407 1531.37 z" fill="rgb(244,234,230)" transform="translate(0,0)"></path>
<path d="M 296.539 891.037 C 304.683 890.412 309.615 890.914 317.743 892.308 L 317.348 894.445 L 309.04 893.822 C 280.789 896.472 249.346 905.976 228.279 925.816 C 216.406 934.654 198.653 959.172 193.292 972.769 C 182.642 992.906 177.656 1011.68 175.545 1034.31 C 170.514 1072.04 185.967 1128.81 211.483 1157.31 C 225.472 1176 248.913 1198.62 269.751 1209.43 C 314.891 1243.88 406.635 1255.41 462.201 1253.77 C 465.249 1254.28 466.306 1254.22 469.278 1253.92 L 470.382 1255.8 C 456.095 1258.45 430.534 1259.11 415.993 1259.48 C 346.5 1261.35 269.685 1248.57 218.25 1198.18 C 145.948 1127.35 143.595 1001.53 215.599 929.672 C 236.864 908.451 266.05 891.347 296.539 891.037 z" fill="rgb(255,255,255)" transform="translate(0,0)"></path>
<path d="M 296.539 891.037 C 304.683 890.412 309.615 890.914 317.743 892.308 L 317.348 894.445 L 309.04 893.822 C 306.444 892.116 301.818 892.735 296.539 891.037 z" fill="rgb(244,234,230)" transform="translate(0,0)"></path>
<path d="M 1136.5 1425.61 C 1137.09 1422.81 1145.58 1415.64 1148.2 1413.08 C 1161.87 1399.74 1174.72 1385.58 1186.67 1370.68 C 1212.69 1338.77 1228.46 1308.95 1245.3 1273.04 C 1300.95 1154.34 1275.3 1047.69 1196.16 948.12 C 1190.24 940.678 1148.83 891.195 1147 886.512 L 1147.85 885.59 L 1151.33 887.244 C 1221.98 943.403 1275.74 1026.84 1285.75 1117.51 C 1294.97 1201.03 1262.46 1287.4 1210.68 1352.12 C 1188.96 1379.48 1164.06 1404.15 1136.5 1425.61 z" fill="rgb(255,255,255)" transform="translate(0,0)"></path>
<path d="M 667.512 1025.08 L 669.249 1027.24 L 661.492 1039.66 L 660.364 1040.95 C 654.05 1048.26 648.32 1057.16 642.28 1064.56 C 590.069 1128.5 512.271 1175.21 429.594 1184.4 C 422.682 1185.16 415.49 1185.87 408.543 1186.82 C 396.665 1187.2 384.167 1186.92 372.241 1186.85 C 369.015 1185.76 351.427 1184.81 345.859 1183.71 C 313.166 1177.27 288.729 1169.5 261.92 1150.03 L 262.258 1148.76 C 392.43 1217.44 590.045 1142.98 667.512 1025.08 z" fill="rgb(255,255,255)" transform="translate(0,0)"></path>
<path d="M 1160.07 595.526 L 1167.47 589.218 C 1178.71 593.65 1189.79 600.485 1199.27 607.953 C 1284.03 674.698 1192.23 800.939 1127.2 844.983 L 1126.05 841.686 C 1183.69 795.248 1245.58 695.546 1198.74 624.291 C 1190.1 611.152 1173.45 602.85 1160.07 595.526 z" fill="rgb(255,255,255)" transform="translate(0,0)"></path>
<path d="M 317.743 892.308 C 323.703 893.192 325.317 893.556 330.973 895.594 L 331.481 896.687 L 332.021 899.197 C 302.906 892.377 272.676 900.091 246.914 914.683 C 241.586 917.701 233.291 925.601 228.279 925.816 C 249.346 905.976 280.789 896.472 309.04 893.822 L 317.348 894.445 L 317.743 892.308 z" fill="rgb(22,24,43)" transform="translate(0,0)"></path>
<path d="M 317.743 892.308 C 323.703 893.192 325.317 893.556 330.973 895.594 L 331.481 896.687 C 328.175 896.455 320.911 895.03 317.348 894.445 L 317.743 892.308 z" fill="rgb(127,109,136)" transform="translate(0,0)"></path>
<path d="M 624.151 903.44 L 625.638 902.56 C 657.19 918.649 710.303 945.8 744.681 962.488 C 745.034 963.155 745.387 963.822 745.74 964.488 C 726.298 956.132 705.777 945.425 686.849 935.901 C 665.999 925.41 644.496 914.778 624.151 903.44 z" fill="rgb(22,24,43)" transform="translate(0,0)"></path>
<path d="M 686.553 990.369 L 688.824 989.142 L 689.897 990.967 C 686.055 1001.51 672.012 1033.16 663.217 1039.45 L 661.492 1039.66 L 669.249 1027.24 L 667.512 1025.08 C 672.092 1017.53 676.118 1010.89 680.148 1002.99 C 681.731 998.459 683.627 994.16 686.553 990.369 z" fill="rgb(21,31,74)" transform="translate(0,0)"></path>
<path d="M 680.148 1002.99 L 681.189 1004.31 C 677.776 1011.28 673.313 1020.66 669.249 1027.24 L 667.512 1025.08 C 672.092 1017.53 676.118 1010.89 680.148 1002.99 z" fill="rgb(187,186,191)" transform="translate(0,0)"></path>
<path d="M 680.148 1002.99 C 681.731 998.459 683.627 994.16 686.553 990.369 C 685.14 996.033 683.587 999.085 681.189 1004.31 L 680.148 1002.99 z" fill="rgb(75,86,123)" transform="translate(0,0)"></path>
<path d="M 614.687 1292.9 C 615.681 1300.96 572.852 1383.87 565.541 1385.76 C 585.823 1351.8 597.659 1328.48 614.687 1292.9 z" fill="rgb(22,24,43)" transform="translate(0,0)"></path>
<path d="M 193.292 972.769 C 193.745 979.295 180.382 1009.23 179.533 1019.59 C 179.369 1021.59 177.307 1036.92 176.532 1038.22 L 175.545 1034.31 C 177.656 1011.68 182.642 992.906 193.292 972.769 z" fill="rgb(21,31,74)" transform="translate(0,0)"></path>
<path d="M 489.47 1673.8 L 490.457 1671.9 C 495.547 1697.68 500.399 1714.39 508.473 1738.86 C 504.86 1736.39 503.895 1732.3 501.5 1727.69 C 498.33 1709.2 492.385 1696.75 489.47 1673.8 z" fill="rgb(22,24,43)" transform="translate(0,0)"></path>
<path d="M 211.483 1157.31 C 215.058 1157.9 240.9 1189.33 248.209 1192.48 C 250.162 1193.32 269.55 1207.77 269.751 1209.43 C 248.913 1198.62 225.472 1176 211.483 1157.31 z" fill="rgb(22,24,43)" transform="translate(0,0)"></path>
<path d="M 279.835 364.885 C 280.681 368.849 262.827 414.67 259.582 421.326 L 258.124 421.207 C 260.365 407.586 273.364 378.102 279.835 364.885 z" fill="rgb(21,31,74)" transform="translate(0,0)"></path>
<path d="M 783.953 1087.82 C 785.684 1086.69 785.986 1086.66 787.906 1085.84 C 787.295 1089.45 759.159 1109.28 754.396 1109.8 C 762.527 1102.5 774.847 1094.26 783.953 1087.82 z" fill="rgb(22,24,43)" transform="translate(0,0)"></path>
<path d="M 372.241 1186.85 C 384.167 1186.92 396.665 1187.2 408.543 1186.82 L 414.193 1187.36 L 413.922 1188.06 L 413.142 1187.49 L 412.432 1188.42 C 406.238 1189.17 376.9 1190.51 372.241 1186.85 z" fill="rgb(21,31,74)" transform="translate(0,0)"></path>
<path d="M 476.813 1252.48 L 475.201 1252.28 L 474.936 1251.5 C 482.198 1249.88 497.627 1248.01 505.154 1248.01 C 502.255 1251.32 499.615 1252.89 494.985 1251.76 C 491.185 1251.4 481.133 1252.22 476.813 1252.48 z" fill="rgb(49,57,91)" transform="translate(0,0)"></path>
<path d="M 476.813 1252.48 C 481.133 1252.22 491.185 1251.4 494.985 1251.76 C 489.718 1252.95 475.522 1256.13 470.382 1255.8 L 469.278 1253.92 C 466.306 1254.22 465.249 1254.28 462.201 1253.77 C 465.407 1252.77 472.028 1253.26 476.813 1252.48 z" fill="rgb(244,234,230)" transform="translate(0,0)"></path>
<path d="M 1126.05 841.686 L 1127.2 844.983 C 1122.79 849.081 1115.4 853.859 1110.17 856.923 C 1113.95 851.812 1121.08 846.047 1126.05 841.686 z" fill="rgb(244,234,230)" transform="translate(0,0)"></path>
<path d="M 763.381 401.442 C 811.369 401.61 855.06 425.114 885.023 462.32 C 922.998 509.476 946.067 569.96 969.675 625.115 C 980.395 650.159 988.754 677.898 976.182 703.669 C 958.611 740.98 929.272 753.007 893.874 766.87 C 901.645 769.718 909.936 772.905 917.545 775.885 C 980.965 800.72 1054.47 798.902 1100.07 742.322 C 1103.63 737.909 1108.34 733.081 1112.34 728.962 C 1112.17 729.895 1111.98 730.825 1111.78 731.752 C 1106.37 756.711 1087.28 774.996 1066.7 788.354 C 1072.94 828.641 1052.24 888.223 1003.77 892.656 C 988.77 894.028 976.043 884.252 965.735 874.191 C 948.156 853.391 935.573 828.803 921.97 805.302 C 911.096 786.515 904.214 786.283 886.153 778.201 C 835.303 755.449 786.023 804.699 738.871 767.331 C 680.011 720.784 644.726 642.825 631.782 570.15 C 628.961 571.957 626.107 573.712 623.222 575.414 C 611.229 582.385 601.034 584.086 587.561 580.379 C 579.116 578.055 557.839 568.943 561.768 557.347 C 565.672 557.426 569.21 561.533 573.795 563.161 C 591.615 569.491 614.229 562.189 621.187 543.647 C 622.309 540.656 623.966 533.836 622.456 530.919 C 620.08 531.112 606.71 535.618 603.781 536.995 C 594.12 541.537 552.069 531.177 555.244 518.431 C 558.779 517.851 565.351 522.024 569.5 522.971 C 589.464 528.155 617.293 518.899 627.72 500.265 C 660.802 441.14 691.551 405.786 763.381 401.442 z" fill="rgb(21,31,74)" transform="translate(0,0)"></path>
<path d="M 760.751 428.396 C 788.729 423.958 826.47 437.053 849.614 452.665 C 865.3 463.27 879.084 476.443 890.388 491.633 C 917.7 527.848 937.541 575 955.49 616.648 C 961.232 631.999 970.783 650.273 973.261 666.434 C 981.275 718.697 923.46 748.741 880.618 757.305 C 868.748 759.678 857.52 760.314 846.127 762.191 C 804.617 769.552 776.091 788.89 738.349 757.107 C 687.459 714.252 655.364 648.696 646.147 583.564 C 635.251 506.571 681.435 437.15 760.751 428.396 z" fill="rgb(255,255,255)" transform="translate(0,0)"></path>
<path d="M 801.187 520.348 C 896.566 512.718 953.458 642.952 896.716 714.43 C 880.649 734.67 861.716 743.976 836.467 747.198 C 809.431 748.51 788.511 740.561 766.846 724.262 C 739.499 703.746 721.514 673.127 716.912 639.251 C 712.638 609.599 720.47 579.474 738.647 555.66 C 753.978 536.052 776.478 523.348 801.187 520.348 z" fill="rgb(21,31,74)" transform="translate(0,0)"></path>
<path d="M 804.126 531.368 C 838.767 528.139 871.5 551.774 889.575 579.591 C 917.918 623.212 916.979 695.236 869.36 725.254 C 852.775 735.504 832.795 738.738 813.824 734.245 C 791.985 729.285 770.892 715.788 758.791 696.651 C 754.049 689.153 752.766 670.303 760.955 665.561 C 764.188 665.532 764.522 665.881 767.268 667.586 C 787.41 696.473 816.989 723.537 854.838 696.093 C 868.718 686.028 877.348 663.835 878.821 646.945 C 882.898 600.168 850.882 549.002 801.286 544.89 C 778.137 542.956 761.658 553.38 744.819 567.693 C 745.508 566.682 746.225 565.691 746.97 564.72 C 762.436 544.633 779.313 534.61 804.126 531.368 z" fill="rgb(248,150,178)" transform="translate(0,0)"></path>
<path d="M 764.058 572.211 C 775.918 570.2 787.944 574.713 795.553 584.03 C 803.162 593.347 805.18 606.032 800.839 617.251 C 796.498 628.469 786.467 636.492 774.568 638.261 C 756.431 640.957 739.506 628.546 736.624 610.438 C 733.743 592.329 745.98 575.278 764.058 572.211 z" fill="rgb(255,255,255)" transform="translate(0,0)"></path>
<path d="M 928.237 792.868 C 961.182 805.197 989.293 809.214 1024.53 802.889 C 1034.01 801.187 1043.16 797.232 1052.77 795.766 C 1058.56 801.292 1053.14 825.682 1051.39 832.989 C 1049.57 838.276 1047.35 843.395 1045.2 848.553 C 1029.56 848.196 1014.04 845.803 999.024 841.435 C 981.901 836.347 952.694 824.87 940.157 811.467 C 935.342 806.321 931.651 799.112 928.237 792.868 z" fill="rgb(255,255,255)" transform="translate(0,0)"></path>
<path d="M 951.511 832.529 C 953.974 833.253 972.317 841.823 975.547 843.34 C 998.974 854.344 1015.84 855.866 1041.06 856.126 C 1036.61 862.175 1034.83 864.684 1029.42 869.806 C 990.495 900.862 970.477 862.066 951.511 832.529 z" fill="rgb(248,150,178)" transform="translate(0,0)"></path>
<path d="M 456.737 205.279 C 497.4 199.272 492.399 236.374 476.856 259.404 C 459.639 284.915 429.935 313.938 399.194 321.066 L 395.495 321.446 C 358.041 325.346 366.315 285.713 378.592 264.801 C 397.898 231.918 420.671 215.648 456.737 205.279 z" fill="rgb(22,24,43)" transform="translate(0,0)"></path>
<path d="M 460.407 207.291 C 496.111 202.344 487.774 239.215 475.137 257.705 C 457.502 283.51 430.313 311.349 399.006 318.753 C 336.926 329.082 382.499 219.874 460.407 207.291 z" fill="rgb(248,150,178)" transform="translate(0,0)"></path>
<path d="M 777.941 816.576 C 777.798 813.599 780.841 809.85 783.102 807.595 C 803.277 787.475 828.837 780.098 856.733 778.303 C 898.571 775.611 919.192 809.466 887.208 839.407 C 884.4 842.035 878.712 846.291 874.802 846.32 C 871.232 847.198 861.914 851.904 857.931 853.449 C 830.81 863.967 791.441 874.12 773.287 843.667 C 772.564 831.326 773.284 828.575 777.941 816.576 z" fill="rgb(248,150,178)" transform="translate(0,0)"></path>
<path d="M 777.941 816.576 C 777.798 813.599 780.841 809.85 783.102 807.595 C 803.277 787.475 828.837 780.098 856.733 778.303 C 898.571 775.611 919.192 809.466 887.208 839.407 C 884.4 842.035 878.712 846.291 874.802 846.32 C 877.588 844.19 887.282 837.256 888.867 835.159 C 929.346 781.605 856.649 771.68 820.374 787.017 C 796.741 797.008 794.218 798.691 777.941 816.576 z" fill="rgb(49,57,91)" transform="translate(0,0)"></path>
<path d="M 338.593 346.362 C 397.97 350.123 336.654 466.933 286.243 473.677 C 272.651 475.162 263.764 465.043 262.522 452.219 C 259.851 424.645 274.996 395.797 291.283 374.672 C 303.174 359.249 319.204 348.554 338.593 346.362 z" fill="rgb(22,24,43)" transform="translate(0,0)"></path>
<path d="M 334.31 349.161 C 369.18 346.714 362.74 383.237 353.433 404.24 C 341.33 431.555 320.207 459.366 291.842 470.804 C 279.932 472.132 268.566 469.701 265.534 456.08 C 260.611 433.962 272.367 408.019 283.603 389.634 C 296.26 368.924 310.298 354.838 334.31 349.161 z" fill="rgb(248,150,178)" transform="translate(0,0)"></path>
<path d="M 420.545 361.552 L 420.078 360.323 C 446.764 339.343 479.181 344.791 472.133 387.28 C 467.52 415.085 428.552 473.554 395.877 468.252 C 365.458 463.316 380.842 391.95 401.936 379.161 C 402.057 379.095 418.282 363.562 420.545 361.552 z" fill="rgb(248,150,178)" transform="translate(0,0)"></path>
<path d="M 420.545 361.552 L 420.078 360.323 C 446.764 339.343 479.181 344.791 472.133 387.28 C 467.52 415.085 428.552 473.554 395.877 468.252 C 365.458 463.316 380.842 391.95 401.936 379.161 C 395.793 388.041 390.578 396.32 386.239 407.021 C 378.602 419.822 377.07 462.338 395.456 465.671 C 427.169 469.547 461.521 420.075 468.481 394.145 C 479.648 352.537 455.191 339.916 420.545 361.552 z" fill="rgb(22,24,43)" transform="translate(0,0)"></path>
<path d="M 335.505 506.07 C 365.179 505.812 360.28 543.795 352.627 562.203 C 343.828 583.367 332.59 600.121 311.243 609.798 C 300.725 610.363 294.334 601.648 291.782 592.392 C 285.05 567.973 292.277 540.816 309.161 522.135 C 316.986 513.477 324.48 509.451 335.505 506.07 z" fill="rgb(22,24,43)" transform="translate(0,0)"></path>
<path d="M 332.443 509.142 C 360.117 506.841 358.379 535.1 352.812 554.009 C 346.608 575.077 333.638 595.973 313.841 606.568 C 283.257 613.809 278.938 530.806 332.443 509.142 z" fill="rgb(248,150,178)" transform="translate(0,0)"></path>
<path d="M 1153.02 615.361 C 1158.61 605.322 1182.29 613.595 1187.39 623.957 L 1187.26 625.073 L 1187.74 626.168 L 1188.53 628.005 C 1202.39 659.874 1167.43 678.749 1140.09 677.152 C 1134.37 676.819 1125.24 673.838 1122.09 668.702 C 1109.24 647.81 1138.14 625.527 1153.02 615.361 z" fill="rgb(248,150,178)" transform="translate(0,0)"></path>
<path d="M 1153.02 615.361 C 1158.61 605.322 1182.29 613.595 1187.39 623.957 L 1187.26 625.073 C 1185.8 624.354 1179.02 617.9 1175.75 616.142 C 1166.77 611.318 1162.07 612.865 1153.02 615.361 z" fill="rgb(22,24,43)" transform="translate(0,0)"></path>
<path d="M 413.34 524.155 C 438.34 523.536 435.974 546.5 428.986 563.45 C 422.902 578.206 416.022 589.131 400.877 595.486 C 397.759 595.746 394.896 595.726 391.972 594.447 C 387.098 592.303 383.342 588.221 381.611 583.185 C 373.214 559.445 389.961 532.111 413.34 524.155 z" fill="rgb(22,24,43)" transform="translate(0,0)"></path>
<path d="M 411.059 527.242 C 448.391 520.893 427.904 579.097 401.813 592.795 C 369.945 594.864 377.735 541.671 411.059 527.242 z" fill="rgb(248,150,178)" transform="translate(0,0)"></path>
<path d="M 664.018 318.369 C 680.565 316.94 692.909 321.872 706.466 330.507 C 665.733 325.428 638.86 338.866 617.101 373.872 C 611.626 383.759 608.469 393.493 604.873 404.108 C 592.805 363.464 622.575 323.092 664.018 318.369 z" fill="rgb(21,31,74)" transform="translate(0,0)"></path>
<path d="M 375.478 653.794 C 399.856 655.521 393.649 692.402 375.912 704.861 C 357.116 706.861 353.27 665.223 375.478 653.794 z" fill="rgb(22,24,43)" transform="translate(0,0)"></path>
<path d="M 373.136 656.948 C 397.536 655.801 389.692 689.29 377.359 701.616 C 374.868 702.373 375.287 702.205 372.636 702.401 C 357.703 696.961 361.121 667.139 373.136 656.948 z" fill="rgb(248,150,178)" transform="translate(0,0)"></path>
<path d="M 1122.59 1070.62 L 1126.19 1070.19 C 1139.13 1122.12 1143.27 1155.98 1126.54 1208.24 C 1102.59 1158.72 1065.78 1271.45 1109.41 1243.15 C 1070.82 1302.9 1041.69 1327.55 979.774 1361.2 C 950.713 1377.3 920.866 1391.94 890.344 1405.06 C 796.291 1445.8 678.654 1480.72 635.988 1584.08 C 622.995 1614.84 619.772 1648.85 626.754 1681.51 C 636.578 1726.46 664.224 1768.91 703.296 1793.62 C 738.093 1815.41 780.073 1822.61 820.14 1813.66 C 924.669 1790.01 938.116 1657.5 841.22 1639.69 C 835.77 1639.94 832.111 1640.33 826.689 1639.24 L 827.218 1638.38 L 832.326 1637.35 C 833.792 1637.11 835.26 1636.88 836.729 1636.66 C 986.546 1614.42 972.923 1849.06 781.23 1874.2 C 728.25 1880.72 674.844 1866 632.672 1833.28 C 586.43 1797.66 553.843 1744.98 546.133 1686.67 C 540.569 1644.6 554.726 1593.96 571.896 1555.38 C 585.48 1524.85 599.009 1506.07 619.717 1481.09 C 668.318 1422.44 725.145 1391.84 795.89 1366.79 C 827.891 1355.47 863.055 1345.95 894.699 1333.75 C 969.284 1305.01 1034 1265.07 1084.04 1201.7 C 1115.59 1161.75 1129.05 1122.04 1122.59 1070.62 z" fill="rgb(248,150,178)" transform="translate(0,0)"></path>
<path d="M 841.22 1639.69 C 835.77 1639.94 832.111 1640.33 826.689 1639.24 L 827.218 1638.38 L 832.326 1637.35 L 832.999 1638.64 L 841.22 1639.69 z" fill="rgb(127,109,136)" transform="translate(0,0)"></path>
<path d="M 588.611 1633.14 C 592.814 1632.87 597.074 1633.4 600.845 1635.36 C 605.562 1637.82 608.754 1642.37 610.274 1647.39 C 613.682 1658.63 610.845 1673.53 605.115 1683.57 C 600.268 1692.07 594.532 1696.46 585.183 1698.97 C 582.678 1698.68 580.318 1698.2 577.953 1697.29 C 572.075 1695.05 567.552 1690.11 565.297 1684.3 C 561.289 1673.98 562.926 1660.7 567.735 1650.91 C 572.443 1641.33 578.692 1636.51 588.611 1633.14 z" fill="rgb(21,31,74)" transform="translate(0,0)"></path>
<path d="M 586.815 1641.13 C 589.228 1640.82 592.203 1640.21 594.599 1640.8 C 598.233 1641.69 601.075 1643.64 603.065 1646.84 C 606.668 1652.62 605.839 1661.44 604.427 1667.76 C 602.043 1678.43 596.991 1686.4 587.667 1692.08 C 586.216 1692.12 584.684 1692.15 583.251 1691.9 C 579.06 1691.15 575.328 1687.77 573.228 1684.19 C 569.326 1677.52 569.567 1667.81 571.535 1660.58 C 574.083 1651.21 578.437 1645.8 586.815 1641.13 z" fill="rgb(248,150,178)" transform="translate(0,0)"></path>
<path d="M 760.934 1411.24 C 763.636 1411.29 766.423 1411.49 768.994 1412.37 C 772.738 1413.65 777.745 1415.87 779.33 1419.79 C 781.218 1424.46 779.002 1430.46 776.844 1434.65 C 769.131 1449.65 752.525 1460.24 736.843 1465.13 C 731.639 1465.39 728.323 1464.8 723.658 1462.27 C 720.915 1460.78 718.94 1458.92 718.115 1455.76 C 716.461 1449.43 719.776 1441.33 723.115 1436.07 C 731.422 1423 746.097 1414.44 760.934 1411.24 z" fill="rgb(21,31,74)" transform="translate(0,0)"></path>
<path d="M 757.478 1418.22 C 760.575 1417.75 763.404 1417.5 766.507 1418.13 C 769.815 1418.8 771.185 1419.99 773.003 1422.75 C 773.287 1424.68 773.249 1426.12 772.636 1427.97 C 768.097 1441.65 752.136 1451.49 739.926 1457.65 C 736.184 1458.65 730.33 1459.23 726.684 1457.42 C 725.61 1456.89 724.535 1456.07 724.111 1454.91 C 723.135 1452.23 723.991 1449.41 725.015 1446.89 C 730.779 1432.72 743.954 1423.91 757.478 1418.22 z" fill="rgb(248,150,178)" transform="translate(0,0)"></path>
<path d="M 639.944 1491.17 C 642.484 1490.83 645.043 1490.53 647.61 1490.67 C 652.295 1490.94 659.149 1492.67 662.06 1496.67 C 664.707 1500.31 664.265 1505.36 663.27 1509.48 C 659.341 1525.78 645.06 1536.95 631.559 1545.4 C 626.813 1547.34 621.899 1549.32 616.94 1546.81 C 611.739 1544.18 610.151 1538.29 608.682 1533.14 C 609.34 1529.59 610.023 1526.07 611.252 1522.66 C 616.335 1508.58 626.564 1497.67 639.944 1491.17 z" fill="rgb(21,31,74)" transform="translate(0,0)"></path>
<path d="M 643.113 1497.02 C 644.54 1496.95 646.084 1496.82 647.518 1496.92 C 650.715 1497.16 654.52 1498.25 656.482 1501.03 C 658.377 1503.72 657.888 1507.06 656.95 1509.98 C 652.641 1523.42 639.438 1532.88 627.623 1539.37 C 626.172 1539.86 624.52 1540.5 622.988 1540.61 C 620.199 1540.82 618.596 1539.94 616.518 1538.28 C 614.805 1534.08 615.51 1530.42 616.914 1526.22 C 621.319 1513.33 630.777 1502.79 643.113 1497.02 z" fill="rgb(248,150,178)" transform="translate(0,0)"></path>
<path d="M 1027.91 1286.22 C 1061.92 1287.62 1031.32 1336.82 1000.08 1343.87 C 976.872 1342.24 987.589 1320.11 996.007 1308.75 C 1004.85 1296.79 1012.68 1288.85 1027.91 1286.22 z" fill="rgb(21,31,74)" transform="translate(0,0)"></path>
<path d="M 1028.86 1292.25 C 1029.41 1292.4 1029.98 1292.53 1030.52 1292.72 C 1032.83 1293.52 1034.77 1295.19 1035.72 1297.48 C 1037.05 1300.69 1036.37 1304.05 1035.1 1307.16 C 1029.39 1321.28 1013.91 1332.61 1000.19 1337.99 C 998.871 1337.83 997.353 1337.35 996.05 1337.03 C 994.083 1335.25 993.019 1334.49 992.69 1331.65 C 991.961 1325.34 997.745 1316.58 1001.32 1311.57 C 1008.25 1301.89 1016.8 1294.25 1028.86 1292.25 z" fill="rgb(248,150,178)" transform="translate(0,0)"></path>
<path d="M 895.207 1358.33 C 898.477 1358.2 901.728 1358.25 904.895 1359.15 C 908.923 1360.3 914.25 1362.05 915.984 1366.26 C 917.537 1370.02 916.242 1374.84 914.649 1378.37 C 907.887 1393.35 889.992 1400.79 875.432 1405.94 C 870.348 1407.26 865.467 1407.34 860.89 1404.36 C 858.159 1402.58 856.625 1399.66 856.004 1396.54 C 854.65 1389.73 857.179 1382.55 861.153 1377.07 C 869.154 1366.03 882.056 1360.21 895.207 1358.33 z" fill="rgb(21,31,74)" transform="translate(0,0)"></path>
<path d="M 891.712 1365.09 C 892.573 1365.04 893.434 1364.99 894.296 1364.96 C 900.151 1364.8 904.853 1364.83 909.281 1369.06 C 910.278 1371.95 910.513 1373.67 909.213 1376.53 C 903.93 1388.14 889.527 1393.64 878.504 1398.09 C 874.774 1399.39 869.828 1400.62 865.943 1399.29 C 863.99 1398.62 862.781 1396.97 862.308 1395.01 C 861.538 1391.82 863.074 1387.75 864.532 1384.97 C 870.091 1374.38 880.751 1368.58 891.712 1365.09 z" fill="rgb(248,150,178)" transform="translate(0,0)"></path>
<path d="M 1241.16 956.806 C 1321.04 973.934 1399.72 997.803 1473.57 1032.83 C 1517.74 1053.79 1556.01 1074.58 1582.41 1117.66 C 1590.9 1131.5 1598.61 1142.99 1604.55 1158.52 C 1607.28 1163.99 1608.45 1167.39 1610.46 1173.14 C 1623.6 1197.03 1616.49 1254.65 1608.58 1279.68 C 1551.6 1460.08 1333.53 1510.06 1201.17 1616.82 L 1200.28 1616.6 C 1207.52 1607.93 1233.29 1592.89 1243.4 1585.47 C 1251.94 1579.2 1262.49 1574.39 1271.29 1567.36 C 1269.43 1562.4 1267.42 1559.54 1268.85 1554.92 L 1267.99 1553.63 C 1261.41 1555.81 1223.64 1590.11 1214.53 1595.46 C 1208.44 1599.02 1188.53 1621.52 1183.8 1621.17 C 1178.88 1625.2 1169.54 1635.3 1164.96 1640.18 C 1138.23 1668.69 1112.14 1708.36 1104.45 1747.42 C 1091.66 1812.37 1104.88 1858.85 1139.77 1912.84 C 1086.09 1862.73 1064.13 1790.84 1090.43 1720.99 C 1156.09 1546.59 1359.96 1492.3 1475.22 1359.29 C 1499.57 1331.18 1505.32 1314.94 1517.44 1281.19 C 1516.94 1289.4 1516.06 1294.94 1514.68 1303.11 L 1515.75 1303.33 C 1517.24 1300.44 1517.66 1295.35 1518.28 1291.99 C 1523.78 1263.32 1518.6 1233.63 1503.71 1208.52 C 1460.1 1136.59 1375.31 1110.28 1299.3 1091.2 C 1292.66 1049.59 1280.33 1022.43 1261.33 985.977 C 1255.33 976.854 1248.01 964.999 1241.16 956.806 z" fill="rgb(75,86,123)" transform="translate(0,0)"></path>
<path d="M 1139.77 1912.84 C 1086.09 1862.73 1064.13 1790.84 1090.43 1720.99 C 1156.09 1546.59 1359.96 1492.3 1475.22 1359.29 C 1499.57 1331.18 1505.32 1314.94 1517.44 1281.19 C 1516.94 1289.4 1516.06 1294.94 1514.68 1303.11 C 1506.91 1325.82 1503.53 1335.92 1489.15 1356.06 C 1449.62 1411.4 1391.99 1453.12 1338.91 1494.63 L 1245.89 1568.24 C 1235.81 1576.08 1190.03 1611.28 1183.8 1621.17 C 1178.88 1625.2 1169.54 1635.3 1164.96 1640.18 C 1138.23 1668.69 1112.14 1708.36 1104.45 1747.42 C 1091.66 1812.37 1104.88 1858.85 1139.77 1912.84 z" fill="rgb(255,255,255)" transform="translate(0,0)"></path>
<path d="M 1241.16 956.806 C 1321.04 973.934 1399.72 997.803 1473.57 1032.83 C 1517.74 1053.79 1556.01 1074.58 1582.41 1117.66 C 1590.9 1131.5 1598.61 1142.99 1604.55 1158.52 L 1602.88 1159.15 C 1592.62 1135.5 1555.88 1098.98 1534.38 1085.32 C 1456.43 1035.76 1351.12 1004.56 1261.33 985.977 C 1255.33 976.854 1248.01 964.999 1241.16 956.806 z" fill="rgb(255,255,255)" transform="translate(0,0)"></path>
<path d="M 1604.55 1158.52 C 1607.28 1163.99 1608.45 1167.39 1610.46 1173.14 C 1606.22 1168.73 1604.81 1164.69 1602.88 1159.15 L 1604.55 1158.52 z" fill="rgb(150,153,177)" transform="translate(0,0)"></path>
<path d="M 1171.48 878.396 C 1190.59 880.815 1211.35 883.632 1230.55 881.71 C 1276.13 877.147 1314.23 855.711 1343.33 821.121 C 1396.27 758.193 1389.84 688.728 1365.95 615.419 C 1353.77 580.494 1342.41 550.038 1338.52 512.818 C 1326.2 395.066 1427.39 306.255 1538.74 297.418 C 1590.53 293.308 1629.36 303.844 1669.55 337.53 C 1674.07 341.482 1683.85 350.745 1687.27 355.413 C 1706.34 381.484 1707.79 388.361 1710.35 420.657 C 1698.22 388.725 1676.04 364.734 1644.58 350.775 C 1605.17 333.29 1560.91 341.167 1522.14 356.312 C 1481.68 372.112 1447.77 397.572 1430.05 438.337 C 1377.66 558.849 1537.11 655.36 1408.75 832.209 C 1379.38 872.679 1344.99 902.27 1298.01 921.087 C 1274.24 930.608 1250.7 933.582 1225.41 935.611 C 1219.21 927.635 1212.89 919.8 1206.51 911.993 C 1201.77 906.198 1187.21 892.923 1187.04 886.472 C 1182.88 884.782 1175.73 880.685 1171.48 878.396 z" fill="rgb(75,86,123)" transform="translate(0,0)"></path>
<path d="M 1171.48 878.396 C 1190.59 880.815 1211.35 883.632 1230.55 881.71 C 1276.13 877.147 1314.23 855.711 1343.33 821.121 C 1396.27 758.193 1389.84 688.728 1365.95 615.419 C 1353.77 580.494 1342.41 550.038 1338.52 512.818 C 1326.2 395.066 1427.39 306.255 1538.74 297.418 C 1590.53 293.308 1629.36 303.844 1669.55 337.53 L 1667.42 338.93 C 1624.64 307.726 1581.54 302.537 1529.19 309.555 C 1474.85 316.839 1416.64 350.113 1383.99 394.523 C 1354.72 434.339 1350.31 486.247 1357.55 533.922 C 1362.28 570.006 1377.18 601.422 1388.18 635.722 C 1408.63 699.53 1405.81 768.366 1366.47 824.328 C 1326.65 880.951 1254.35 914.624 1187.04 886.472 C 1182.88 884.782 1175.73 880.685 1171.48 878.396 z" fill="rgb(255,255,255)" transform="translate(0,0)"></path>
<path d="M 1669.55 337.53 C 1674.07 341.482 1683.85 350.745 1687.27 355.413 L 1683.8 353.933 C 1681.6 350.84 1681.65 350.438 1678.24 348.601 C 1674.49 344.903 1671.41 342.272 1667.42 338.93 L 1669.55 337.53 z" fill="rgb(187,186,191)" transform="translate(0,0)"></path>
<path d="M 1735.64 859.431 C 1795.76 856.702 1856.48 873.353 1890.45 926.18 C 1923.08 976.914 1925.6 1049.57 1913.97 1107.37 C 1903.02 1161.78 1875.53 1225.4 1827.31 1256.31 C 1782.4 1285.96 1720.91 1277.94 1691.21 1231.6 C 1683.07 1218.91 1678.48 1201.85 1682.25 1186.98 C 1686.31 1170.96 1698.05 1162.01 1711.48 1154.29 C 1694.29 1189.48 1720.66 1222.54 1754.74 1228.5 C 1824.68 1240.75 1875.58 1180.35 1887.71 1118.42 C 1889.12 1107.02 1889.27 1098.14 1889.52 1086.7 C 1893.36 1091.99 1898.36 1096.89 1905.4 1096.64 C 1910.52 1094.65 1909.59 1093.8 1912.88 1088.91 C 1921.24 1076.46 1916.58 1022.77 1894.16 1035.63 C 1887.23 1039.6 1886.27 1052.43 1885.31 1060.79 C 1875.05 1010.08 1842.54 971.978 1794.14 954.068 C 1691.6 916.122 1589.64 984.115 1499.06 1023.85 C 1461.8 1005.69 1440.37 996.7 1402.06 982.641 C 1409.84 976.669 1415.08 972.22 1422.29 965.56 L 1423.78 965.413 C 1446.2 963.39 1472.87 952.25 1493.98 943.872 C 1577.57 910.705 1643.32 864.766 1735.64 859.431 z" fill="rgb(248,150,178)" transform="translate(0,0)"></path>
<path d="M 1770.14 876.229 C 1807.95 875.44 1832.58 914.213 1787.08 925.401 C 1770.38 927.339 1749.43 923.674 1744.93 904.478 C 1743.57 898.846 1744.67 892.904 1747.95 888.131 C 1753.21 880.471 1761.54 877.769 1770.14 876.229 z" fill="rgb(21,31,74)" transform="translate(0,0)"></path>
<path d="M 1768.49 883.199 C 1794.87 881.346 1822.99 904.916 1786.73 917.519 C 1754.42 922.091 1735.28 894.159 1768.49 883.199 z" fill="rgb(248,150,178)" transform="translate(0,0)"></path>
<path d="M 1658.45 886.307 C 1698.42 884.455 1701.3 924.001 1658.2 935.762 C 1620.98 943.742 1610.6 892.03 1658.45 886.307 z" fill="rgb(21,31,74)" transform="translate(0,0)"></path>
<path d="M 1654.9 893.155 C 1689.69 890.36 1690.93 915.192 1659.67 927.667 C 1625.35 932.172 1623.21 902.087 1654.9 893.155 z" fill="rgb(248,150,178)" transform="translate(0,0)"></path>
<path d="M 1540.82 939.131 C 1580.96 936.195 1583.05 975.623 1544.71 988 C 1506.66 993.775 1499.56 951.823 1540.82 939.131 z" fill="rgb(21,31,74)" transform="translate(0,0)"></path>
<path d="M 1540.31 946.257 C 1570.9 942.864 1572.69 968.687 1543.88 980.639 C 1531.2 982.535 1515.92 980.31 1521.08 962.23 C 1523.52 953.704 1532.58 949.475 1540.31 946.257 z" fill="rgb(248,150,178)" transform="translate(0,0)"></path>
<path d="M 1856.91 934.168 C 1879.45 937.014 1896.28 976.495 1870.7 989.72 C 1844.67 988.451 1829.98 944.009 1856.91 934.168 z" fill="rgb(21,31,74)" transform="translate(0,0)"></path>
<path d="M 1856.94 940.768 C 1871.84 942.692 1885.85 971.787 1870.34 983.566 C 1853.26 981.504 1841.64 953.606 1856.94 940.768 z" fill="rgb(248,150,178)" transform="translate(0,0)"></path>
<path d="M 292.007 1338.38 C 297.637 1337.34 304.305 1337.53 310.019 1337.81 C 337.662 1339.14 359.839 1348.8 378.4 1369.22 C 370.917 1364.83 363.409 1360.16 355.397 1356.8 C 333.725 1347.71 310.095 1350.01 288.724 1358.78 C 257.283 1371.69 229.504 1393.93 216.364 1426 C 205.596 1452.28 206.223 1483.27 217.374 1509.32 C 231.749 1542.89 260.919 1565.89 294.298 1579.04 C 351.501 1601.57 414.452 1594.36 469.767 1570.42 C 466.519 1590.16 464.873 1609.99 463.816 1629.94 C 427.151 1651.52 380.072 1657.82 338.031 1658.2 C 281.281 1658.72 220.707 1646.71 179.012 1605.31 C 150.604 1577.11 136.664 1543.36 136.877 1503.42 C 137.101 1461.2 151.685 1418.74 182.114 1388.67 C 181.214 1390.31 180.319 1391.96 179.53 1393.65 C 177.646 1397.7 175.999 1402.94 178.107 1407.23 C 179.231 1409.52 181.139 1411 183.615 1411.59 C 189.945 1413.09 197.078 1408.93 201.838 1405.2 C 210.026 1398.79 217.898 1388.89 218.969 1378.29 C 219.585 1372.19 218.175 1368.88 214.336 1364.23 C 238.969 1350.67 264.103 1342.13 292.007 1338.38 z" fill="rgb(248,150,178)" transform="translate(0,0)"></path>
<path d="M 278.378 1594.35 C 287.414 1594.46 295.774 1595.23 303.892 1599.69 C 309.904 1603 315.462 1608.2 317.251 1615.04 C 318.611 1620.23 317.725 1625.51 314.75 1629.98 C 309.498 1637.87 300.3 1640.36 291.588 1642.19 C 280.928 1642.7 270.708 1642.05 261.532 1635.93 C 256.012 1632.25 251.168 1626.56 250.047 1619.84 C 249.184 1614.77 250.503 1609.56 253.679 1605.5 C 259.632 1597.77 269.186 1595.36 278.378 1594.35 z" fill="rgb(21,31,74)" transform="translate(0,0)"></path>
<path d="M 278.171 1600.28 C 286.142 1599.66 294.975 1600.96 301.873 1605.18 C 306.222 1607.84 310.057 1611.91 311.144 1617.03 C 311.82 1620.2 311.183 1623.5 309.379 1626.19 C 305.356 1632.28 297.725 1634.34 291.03 1635.78 C 282.75 1636.37 274.257 1635.95 266.882 1631.75 C 262.478 1629.25 258.436 1625.22 257.253 1620.14 C 256.37 1616.36 256.984 1612.6 259.268 1609.42 C 263.545 1603.48 271.336 1601.33 278.171 1600.28 z" fill="rgb(248,150,178)" transform="translate(0,0)"></path>
<path d="M 171.086 1492.07 C 174.471 1491.84 177.763 1491.77 181.034 1492.83 C 188.997 1495.43 195.112 1503.21 198.466 1510.56 C 203.183 1520.89 205.905 1534.36 201.333 1545.11 C 198.566 1551.61 194.537 1554.15 188.144 1556.62 C 184.497 1556.72 181.118 1556.51 177.614 1555.38 C 169.146 1552.64 162.31 1545.32 158.608 1537.42 C 154.265 1528.14 153.074 1516.52 156.768 1506.83 C 159.616 1499.36 163.998 1495.39 171.086 1492.07 z" fill="rgb(21,31,74)" transform="translate(0,0)"></path>
<path d="M 172.155 1497.96 C 174.398 1497.93 176.257 1497.9 178.447 1498.49 C 184.079 1500 189.023 1506.19 191.672 1511.06 C 196.327 1519.61 198.865 1531.43 195.76 1540.9 C 194.072 1546.05 191.449 1548.22 186.718 1550.6 C 186.369 1550.57 186.019 1550.54 185.672 1550.5 C 178.092 1549.52 172.233 1546 167.616 1539.86 C 162.402 1532.92 160.026 1523.49 161.4 1514.91 C 162.632 1507.21 165.91 1502.39 172.155 1497.96 z" fill="rgb(248,150,178)" transform="translate(0,0)"></path>
<path d="M 439.981 1599.19 C 445.065 1598.79 450.277 1599.38 454.826 1601.81 C 457.796 1603.4 460.04 1605.88 460.881 1609.19 C 462.168 1614.25 460.295 1620 457.646 1624.3 C 451.656 1634.04 442.117 1637.77 431.548 1640.27 C 426.469 1640.24 421.306 1640.58 416.556 1638.45 C 413.047 1636.88 409.975 1634.34 408.901 1630.51 C 407.693 1626.2 409.177 1621.43 411.369 1617.69 C 417.631 1607.03 428.518 1602.1 439.981 1599.19 z" fill="rgb(21,31,74)" transform="translate(0,0)"></path>
<path d="M 439.58 1605.2 C 443.626 1604.83 448.174 1604.75 451.772 1606.94 C 453.773 1608.15 455.261 1609.97 455.523 1612.36 C 455.841 1615.27 454.356 1618.6 452.827 1620.97 C 447.335 1629.52 440.153 1631.99 430.81 1634.1 C 427.487 1634.18 424.066 1634.13 420.867 1633.11 C 418.153 1632.24 416.857 1630.82 415.49 1628.37 C 415.196 1625.8 415.376 1624.14 416.526 1621.85 C 421.095 1612.75 430.424 1608.24 439.58 1605.2 z" fill="rgb(248,150,178)" transform="translate(0,0)"></path>
<path d="M 1625.41 1219.79 C 1627.97 1222.14 1630.51 1233.61 1631.31 1237.2 C 1639.39 1273.59 1641.64 1305.64 1635.24 1342.71 C 1608.88 1330.78 1589.26 1363.8 1596.16 1386.59 C 1598.79 1395.28 1604.13 1399.3 1611.87 1403.4 C 1587.79 1442.15 1580.17 1451.66 1547.85 1483.48 C 1547.33 1475.91 1546.17 1466.58 1540.59 1461.55 C 1515.98 1439.39 1486.84 1480.92 1488.18 1504.25 C 1488.74 1514.17 1491.68 1517.97 1498.18 1523.82 C 1484.03 1532.1 1449.71 1548.96 1434.33 1556.15 C 1419.5 1511.54 1386.39 1524.04 1369.95 1559.31 C 1364.63 1570.72 1366.25 1580.84 1371.08 1592.12 C 1348.06 1601.89 1325.8 1610.74 1302.78 1620.96 C 1290.39 1564.56 1225.22 1620.05 1244.4 1655.41 C 1229.5 1665 1217.96 1674.09 1204.08 1685.05 C 1184.33 1657.1 1164.22 1674.17 1150.97 1696.74 C 1143.78 1711.7 1141.19 1725.85 1155.77 1737.13 C 1138.7 1757.3 1130.7 1780.95 1122.42 1805.43 C 1122.04 1797.54 1121.84 1789.65 1121.83 1781.75 C 1122.17 1708.23 1156.09 1668.31 1210.72 1625.67 C 1358.82 1510.08 1624.86 1450.35 1625.41 1219.79 z" fill="rgb(248,150,178)" transform="translate(0,0)"></path>
<path d="M 1466.19 624.927 L 1466.56 625.926 C 1474.41 646.545 1484.86 636.157 1487.55 645.186 C 1496.3 674.501 1503.95 709.91 1505.28 740.627 C 1477.34 722.916 1468.35 765.972 1473.72 784.325 C 1475.45 790.444 1479.6 795.595 1485.21 798.597 C 1490.04 801.131 1495.08 801.138 1500.38 801.031 C 1488.24 853.662 1457.99 907.03 1419.96 945.13 C 1408.57 956.542 1396 967.145 1383.68 977.548 C 1339.27 962.015 1303.07 952.403 1256.1 945.107 C 1325.37 933.654 1377.64 899.504 1418.68 842.39 C 1459.81 785.156 1482.91 722.186 1470.37 651.301 C 1469.43 645.577 1466.43 631.021 1464.47 625.941 L 1466.19 624.927 z" fill="rgb(248,150,178)" transform="translate(0,0)"></path>
<path d="M 1435.23 855 C 1453.73 854.082 1462.33 864.523 1456.14 882.13 C 1450.53 898.096 1436.69 910.497 1421.91 917.672 C 1403.43 922.721 1397.11 905.708 1403.75 890.937 C 1410.22 876.56 1420.52 861.64 1435.23 855 z" fill="rgb(21,31,74)" transform="translate(0,0)"></path>
<path d="M 1437.33 861.905 C 1446.39 861.989 1453.71 866.805 1450.52 876.667 C 1445.95 890.765 1434.08 902.795 1421.74 910.293 C 1392.52 917.077 1418.66 871.14 1437.33 861.905 z" fill="rgb(248,150,178)" transform="translate(0,0)"></path>
<path d="M 1030.99 349.302 C 1058.43 351.429 1080.81 372.843 1096.33 393.899 C 1125.13 432.98 1143.25 479.993 1151.33 527.707 C 1154.42 545.966 1154.88 565.71 1155.28 584.193 C 1141.78 602.323 1099.75 634.489 1073.67 628.667 C 1064.27 626.57 1054.45 609.789 1050.12 600.968 C 1056.65 604.912 1059.42 606.354 1066.45 609.282 C 1092.5 616.251 1110.52 602.681 1119.21 578.329 C 1135.21 533.496 1109.72 472.765 1064.62 455.569 C 1047 448.85 1025.9 453.83 1014.71 469.215 C 1009.99 475.711 1008.84 479.138 1006.73 486.649 C 1000.68 468.784 994.846 450.931 990.785 432.487 C 983.647 400.059 992.788 356.169 1030.99 349.302 z" fill="rgb(255,255,255)" transform="translate(0,0)"></path>
<path d="M 1109.26 954.461 C 1168.23 1030.38 1203.05 1124.39 1191.27 1221.4 C 1188.82 1241.5 1182.84 1259.78 1175.99 1278.69 C 1151.19 1348.31 1106.83 1409.3 1048.23 1454.34 C 1011.85 1482.68 969.573 1502.5 924.521 1512.35 L 923.177 1509.1 C 1026.56 1468.01 1108.6 1384.73 1139.06 1275.97 C 1152.49 1228.03 1149.76 1187.25 1147.02 1138.42 C 1161.83 1181.35 1185.85 1139.54 1173.16 1115.57 C 1168.4 1106.58 1165.67 1100.3 1155.75 1095.75 C 1149.68 1092.97 1147.61 1097.42 1144.19 1096.41 C 1141.52 1090.75 1140.5 1080.55 1139.85 1074.14 C 1140.48 1051.53 1130.8 1003.07 1122.02 982.469 C 1119.23 975.902 1110.07 960.107 1109.26 954.461 z" fill="rgb(248,150,178)" transform="translate(0,0)"></path>
<path d="M 1164.09 1219.84 C 1189.8 1220.83 1180.75 1261.11 1163.14 1272.42 C 1149.55 1274.67 1147.72 1263.11 1149.29 1252.4 C 1151.07 1240.23 1153.86 1227.75 1164.09 1219.84 z" fill="rgb(21,31,74)" transform="translate(0,0)"></path>
<path d="M 1165.49 1225.58 C 1183.21 1230.13 1171.11 1256.39 1163.39 1265.41 C 1160.96 1266.26 1161.13 1266.28 1158.58 1266.02 C 1150.67 1258.3 1158.38 1233.1 1165.49 1225.58 z" fill="rgb(248,150,178)" transform="translate(0,0)"></path>
<path d="M 1131.66 1322.85 C 1132.84 1322.87 1134.03 1322.88 1135.21 1323.01 C 1137.4 1323.26 1139.23 1324.37 1140.35 1326.31 C 1141.78 1328.8 1141.49 1332 1140.86 1334.68 C 1138.51 1344.8 1131.37 1353.72 1122.8 1359.25 C 1121.92 1359.37 1120.74 1359.59 1119.88 1359.52 C 1117.09 1359.3 1116.31 1358.46 1114.42 1356.64 C 1113.94 1355 1113.54 1353.6 1113.7 1351.87 C 1114.61 1341.71 1123.89 1329 1131.66 1322.85 z" fill="rgb(21,31,74)" transform="translate(0,0)"></path>
<path d="M 1132.73 1328.55 L 1135.24 1329.48 C 1135.62 1330.7 1135.74 1330.86 1135.77 1332.31 C 1135.9 1339.83 1127 1349.25 1121.7 1353.83 L 1119.83 1353.06 C 1119.44 1352.21 1119.33 1352.12 1119.26 1351.04 C 1118.73 1343.49 1127.66 1333.57 1132.73 1328.55 z" fill="rgb(248,150,178)" transform="translate(0,0)"></path>
<path d="M 1083.24 1393.88 C 1085.49 1393.79 1088.34 1393.56 1090.38 1394.7 C 1092.39 1395.82 1093.24 1397.64 1093.23 1399.9 C 1093.19 1407.63 1083.41 1416.53 1077.79 1421.13 C 1075.32 1421.23 1072.78 1421.36 1070.6 1419.9 C 1068.63 1418.59 1067.77 1416.77 1067.77 1414.43 C 1067.77 1406.66 1077.62 1398.4 1083.24 1393.88 z" fill="rgb(21,31,74)" transform="translate(0,0)"></path>
<path d="M 1084.7 1398.62 L 1087 1399.18 L 1087.58 1400.99 C 1085.71 1407.19 1080.66 1411.28 1076.01 1415.48 L 1073.87 1414.41 L 1073.41 1412.19 C 1075.43 1406.26 1080.04 1402.5 1084.7 1398.62 z" fill="rgb(248,150,178)" transform="translate(0,0)"></path>
<path d="M 232.559 1424.16 C 240.111 1486.4 274.13 1518.82 333.896 1533.66 C 335.892 1532.01 335.832 1532.36 338.407 1531.37 C 340.885 1531.94 346.762 1533.44 349.005 1533.64 C 365.836 1536.93 376.537 1537.3 393.822 1536.88 C 395.635 1536.15 417.417 1533.16 421.541 1532.21 C 446.373 1526.48 465.434 1515.97 486.128 1501.91 C 488.338 1502.04 490.122 1502.13 492.323 1502.43 C 492.266 1503.88 475.172 1550 473.133 1556.42 C 429.057 1572.8 396.242 1578.34 349.109 1575.16 C 270.181 1569.83 194.636 1509.96 232.559 1424.16 z" fill="rgb(75,86,123)" transform="translate(0,0)"></path>
<path d="M 333.896 1533.66 C 335.892 1532.01 335.832 1532.36 338.407 1531.37 C 340.885 1531.94 346.762 1533.44 349.005 1533.64 C 365.836 1536.93 376.537 1537.3 393.822 1536.88 L 392.588 1537.99 C 374.724 1542.27 351.657 1537.41 333.896 1533.66 z" fill="rgb(21,31,74)" transform="translate(0,0)"></path>
<path d="M 1460.41 922.435 C 1462.04 920.248 1465.84 915.032 1468.31 913.986 C 1523.04 890.763 1583.24 859.309 1640.59 844.576 C 1697.87 830.469 1764.61 818.542 1820.61 842.493 C 1841.58 851.459 1881.97 883.918 1890.05 905.092 L 1889.43 905.746 C 1840.39 845.442 1778.3 835.381 1704.54 845.27 C 1706.56 845.515 1708.28 845.285 1709.31 846.424 L 1710.87 846.036 L 1712.5 846.477 L 1711.44 846.583 C 1705.31 847.258 1702.45 849.836 1696.57 851.461 C 1688.63 853.655 1680.66 855.965 1672.74 858.238 C 1657.92 862.376 1643.34 867.382 1629.11 873.231 C 1562.05 900.949 1497.99 936.474 1428.24 958.849 C 1434.72 951.644 1454.65 926.637 1460.41 922.435 z" fill="rgb(255,255,255)" transform="translate(0,0)"></path>
<path d="M 1460.41 922.435 C 1467.86 921.511 1504.51 908.22 1512.32 905.165 C 1565.31 884.436 1617.49 859.734 1673.95 849.724 C 1683.18 848.087 1695.32 845.44 1704.54 845.27 C 1706.56 845.515 1708.28 845.285 1709.31 846.424 L 1710.87 846.036 L 1712.5 846.477 L 1711.44 846.583 C 1705.31 847.258 1702.45 849.836 1696.57 851.461 C 1688.63 853.655 1680.66 855.965 1672.74 858.238 C 1657.92 862.376 1643.34 867.382 1629.11 873.231 C 1562.05 900.949 1497.99 936.474 1428.24 958.849 C 1434.72 951.644 1454.65 926.637 1460.41 922.435 z" fill="rgb(75,86,123)" transform="translate(0,0)"></path>
<path d="M 1300.96 1100.39 C 1362.79 1120.83 1415.81 1135.25 1463.85 1181.55 C 1456.03 1183.07 1447.84 1184.37 1439.96 1185.74 C 1433.3 1186.56 1414.33 1189.44 1409.27 1187.29 C 1413.24 1160.23 1356.87 1136.11 1341.76 1177.36 C 1329.27 1174.62 1316.87 1171.53 1304.56 1168.09 C 1305.87 1143.4 1304.74 1124.68 1300.96 1100.39 z" fill="rgb(248,150,178)" transform="translate(0,0)"></path>
<path d="M 288.974 1301.38 C 289.98 1301.23 290.99 1301.11 292.004 1301.03 C 323.838 1298.43 356.556 1305.86 381.435 1326.68 C 398.668 1341.1 414.579 1363.19 416.36 1386.2 C 417.895 1406.04 410.332 1424.87 397.489 1439.7 C 403.85 1419.67 406.894 1398.95 399.743 1378.65 C 391.965 1356.58 372.971 1339.22 352.091 1329.55 C 317.382 1313.47 278.148 1318.28 243.273 1330.99 L 241.577 1331.7 C 195.292 1351.13 157.054 1384.29 136.387 1430.66 C 131.412 1441.82 129.212 1453.88 124.671 1464.93 L 124.206 1463.88 C 128.489 1432.25 140.946 1399.96 160.31 1374.4 C 191.356 1333.43 238.456 1308.29 288.974 1301.38 z" fill="rgb(255,255,255)" transform="translate(0,0)"></path>
<path d="M 1047.48 463.323 C 1098.08 462.913 1130.03 543.875 1106.53 584.283 C 1094.17 605.547 1077.88 605.309 1058.17 594.095 C 1038.29 582.792 1034.02 571.122 1028.17 550.338 C 1030.31 548.587 1034.28 546.869 1037.08 547.29 C 1046.79 567.277 1042.64 577.131 1069.66 584.462 C 1070.95 584.19 1072.22 583.884 1073.49 583.546 C 1091.04 578.781 1097.89 561.345 1097.91 544.611 C 1097.95 513.445 1076.47 476.084 1042.13 475.121 C 1033 474.865 1026.23 477.064 1017.81 479.897 C 1027.66 468.676 1033.08 465.056 1047.48 463.323 z" fill="rgb(248,150,178)" transform="translate(0,0)"></path>
<path d="M 976.528 1075.74 C 977.127 1084.09 973.136 1101.09 970.304 1109 C 947.135 1173.68 904.755 1209.3 846.051 1238.95 C 846.059 1236.48 855.345 1228.08 857.58 1225.55 C 897.636 1180.29 954.99 1132.79 976.528 1075.74 z" fill="rgb(248,150,178)" transform="translate(0,0)"></path>
<path d="M 1481.96 388.883 C 1487.07 393.512 1479.41 404.957 1500.13 410.538 C 1481.38 428.516 1468.54 447.258 1462.67 472.746 C 1457.98 465.932 1457.48 464.446 1449.68 461.977 C 1439.44 461.99 1436.58 464.971 1429.78 471.881 C 1436.36 438.107 1453.66 408.814 1481.96 388.883 z" fill="rgb(248,150,178)" transform="translate(0,0)"></path>
<path d="M 1704.16 956.42 C 1718.12 955.58 1733.5 955.881 1747.48 956.493 C 1746.74 957.164 1718.17 960.631 1714.2 961.186 C 1655.3 969.406 1599.96 998.913 1547.67 1026.36 C 1539.39 1030.81 1532.53 1034.1 1523.94 1037.96 C 1519.21 1035.12 1514.52 1032.82 1509.61 1030.34 C 1573.86 1006.33 1633.59 962.09 1704.16 956.42 z" fill="rgb(75,86,123)" transform="translate(0,0)"></path>
<path d="M 1430.19 501.062 C 1439.92 508.824 1444.96 511.024 1456.2 504.064 C 1456.35 539.855 1459.84 554.984 1469.47 589.059 C 1462.84 595.18 1460.44 598.664 1461.18 607.893 L 1459.4 608.593 C 1447.95 571.227 1436.55 539.925 1430.19 501.062 z" fill="rgb(248,150,178)" transform="translate(0,0)"></path>
<path d="M 1032.17 484.249 C 1041.78 485.73 1048.4 490.528 1052.37 499.599 C 1055.52 506.671 1055.6 514.737 1052.58 521.867 C 1049.39 529.183 1044.16 533.343 1036.91 536.11 C 1008.9 531.48 1004.36 490.112 1032.17 484.249 z" fill="rgb(255,255,255)" transform="translate(0,0)"></path>
<path d="M 1588.31 349.56 L 1588.86 351.136 C 1579.84 357.652 1583.32 364.929 1588.61 372.479 C 1573.03 374.748 1557.54 377.293 1542.84 383.194 C 1536.91 385.579 1532.88 388.637 1526.62 390.835 C 1523.68 379.982 1524.83 373.629 1510.93 373.067 L 1509.76 373.03 C 1521.14 362.647 1571.6 353.124 1588.31 349.56 z" fill="rgb(248,150,178)" transform="translate(0,0)"></path>
<path d="M 1401.35 1535.05 C 1405.9 1534.91 1409.64 1535.31 1413.56 1537.81 C 1420.32 1542.11 1422.57 1549.44 1424.44 1556.75 C 1414.32 1563.34 1403.41 1568.47 1392.5 1573.56 C 1388.76 1575.25 1383.61 1578.53 1379.71 1579.31 C 1377.23 1579.81 1376.69 1578.99 1374.79 1577.61 C 1372.86 1573.38 1374.64 1568.75 1376.11 1564.62 C 1380.74 1551.62 1388.69 1540.96 1401.35 1535.05 z" fill="rgb(248,150,178)" transform="translate(0,0)"></path>
<path d="M 1520.18 1464.01 C 1522.92 1463.79 1525.76 1463.61 1528.45 1464.36 C 1531.9 1465.33 1534.34 1467.73 1536.11 1470.76 C 1538.14 1474.25 1539.52 1478.23 1538.37 1482.26 C 1535.84 1491.09 1518.7 1497.93 1510.85 1502.29 C 1506.71 1504.51 1502.87 1506.59 1498.34 1507.93 C 1497.01 1507.35 1496.38 1507.38 1495.64 1506.01 C 1493.89 1502.73 1495.26 1498.96 1496.25 1495.64 C 1500.22 1482.2 1507.63 1470.67 1520.18 1464.01 z" fill="rgb(253,178,199)" transform="translate(0,0)"></path>
<path d="M 1490.77 742.882 C 1511.48 743.127 1504.78 776.8 1501.25 789.656 C 1500.48 792.494 1497.03 793.058 1494.63 793.826 C 1476.44 789.643 1479.22 773.8 1481.37 758.511 C 1482.31 751.856 1485.05 746.553 1490.77 742.882 z" fill="rgb(248,150,178)" transform="translate(0,0)"></path>
<path d="M 1627.97 352.491 C 1658.84 364.207 1679.46 377.108 1696.42 406.058 C 1674.38 389.106 1653.14 376.821 1624.67 374.212 L 1626.38 372.295 C 1634.7 366.87 1632.84 360.047 1627.28 353.657 L 1627.97 352.491 z" fill="rgb(248,150,178)" transform="translate(0,0)"></path>
<path d="M 1275.43 1605.19 C 1279.5 1604.6 1283.59 1604.28 1287.07 1606.94 C 1291.87 1610.6 1292.95 1616.8 1294.19 1622.35 C 1284.05 1626.95 1274.1 1631.68 1264.27 1636.94 C 1259.88 1639.36 1255.61 1641.76 1250.92 1643.58 L 1249.93 1642.46 C 1249.87 1638.03 1250.43 1633.66 1251.86 1629.45 C 1255.84 1617.71 1264.84 1610.65 1275.43 1605.19 z" fill="rgb(248,150,178)" transform="translate(0,0)"></path>
<path d="M 1622.18 1347.05 C 1626.29 1346.56 1629.01 1346.37 1632.51 1348.59 C 1634.01 1358.31 1618.92 1389.47 1614.05 1398.49 C 1611.04 1395.86 1608.59 1393.14 1606.67 1389.6 C 1602.93 1382.7 1601.86 1374.67 1604.09 1367.11 C 1606.96 1357.36 1613.5 1351.57 1622.18 1347.05 z" fill="rgb(248,150,178)" transform="translate(0,0)"></path>
<path d="M 1180.63 1677.94 C 1185.52 1678.06 1189.99 1679.46 1193.83 1682.53 C 1194.57 1684.16 1195.29 1684.98 1195.04 1686.84 C 1193.7 1696.47 1172.29 1708.85 1164.42 1714.64 C 1161.73 1716.82 1159.35 1719.28 1155.81 1719.83 C 1154.57 1719.15 1153.86 1719.15 1153.39 1717.67 C 1152 1713.24 1154.42 1707.12 1156.22 1703.1 C 1161.32 1691.68 1168.72 1682.51 1180.63 1677.94 z" fill="rgb(248,150,178)" transform="translate(0,0)"></path>
<path d="M 1898.34 1039.36 C 1916.07 1043.99 1913.82 1078.59 1904.72 1091.01 C 1883.29 1085.34 1888.82 1052.89 1898.34 1039.36 z" fill="rgb(248,150,178)" transform="translate(0,0)"></path>
<path d="M 1367.58 1163.15 C 1380.83 1162.63 1394.78 1167.24 1400.13 1180.46 C 1399.78 1184.39 1400.52 1182.76 1398.03 1185.61 C 1394.06 1187.18 1390.04 1185.93 1385.62 1185.21 C 1373.48 1183.42 1361.97 1181.94 1350.05 1178.92 C 1354.79 1168.33 1356.22 1166.35 1367.58 1163.15 z" fill="rgb(248,150,178)" transform="translate(0,0)"></path>
<path d="M 1147.19 1101.32 C 1167.98 1102.38 1174.95 1131.06 1166.85 1147.83 C 1164.64 1149.75 1164.69 1149.58 1161.88 1150.52 C 1151.26 1147.46 1146.09 1111.23 1147.19 1101.32 z" fill="rgb(248,150,178)" transform="translate(0,0)"></path>
<path d="M 1442.01 468.093 C 1448.78 467.627 1454.1 468.858 1456.52 475.562 C 1461.02 488.014 1458.38 497.073 1446.96 502.34 C 1428.69 504.169 1426.04 478.359 1442.01 468.093 z" fill="rgb(248,150,178)" transform="translate(0,0)"></path>
<path d="M 1111.11 1202.63 C 1134.06 1202.36 1114.83 1232.61 1104.88 1240.13 C 1101.58 1241.06 1100.8 1241.58 1097.58 1240.4 C 1088.97 1230.58 1103.15 1209.72 1111.11 1202.63 z" fill="rgb(248,150,178)" transform="translate(0,0)"></path>
<path d="M 1509.38 378.374 C 1530.9 379.73 1517.81 400.637 1501.7 404.884 C 1481.7 401.21 1483.73 380.147 1509.38 378.374 z" fill="rgb(248,150,178)" transform="translate(0,0)"></path>
<path d="M 210.026 1368.86 L 212.494 1371.42 C 213.453 1374.67 213.628 1376.89 212.615 1380.17 C 209.016 1391.84 197.064 1402.04 186.534 1407.28 L 183.784 1405.2 C 182.796 1403.05 182.344 1401.51 182.705 1399.11 C 184.545 1386.91 200.518 1375.37 210.026 1368.86 z" fill="rgb(248,150,178)" transform="translate(0,0)"></path>
<path d="M 1594.45 355.175 C 1602.77 355.07 1617.1 353.699 1623.28 359.123 C 1625.46 365.179 1623.35 367.498 1617.77 369.502 C 1605.28 370.444 1591.3 377.602 1589.64 359.406 C 1591.13 356.294 1590.79 357.222 1594.45 355.175 z" fill="rgb(248,150,178)" transform="translate(0,0)"></path>
<path d="M 1470.48 596.628 C 1474.39 600.106 1485.12 629.197 1483.21 635.316 C 1472.31 630.453 1464.88 607.454 1470.48 596.628 z" fill="rgb(248,150,178)" transform="translate(0,0)"></path>
<path d="M 1420.42 1570.93 L 1421.6 1571.4 C 1421.38 1571.9 1421.24 1572.44 1420.93 1572.9 C 1415.07 1581.74 1392.37 1591.79 1382.07 1593.62 L 1379.6 1590.97 C 1381.77 1588.28 1413.66 1574.46 1420.42 1570.93 z" fill="rgb(244,234,230)" transform="translate(0,0)"></path>
<path d="M 1287.77 1636.2 L 1287.6 1637.39 C 1278.81 1646.43 1266.33 1655.1 1253.44 1655.45 L 1253.47 1653.72 C 1258.68 1648.3 1279.79 1640.17 1287.77 1636.2 z" fill="rgb(253,218,220)" transform="translate(0,0)"></path>
<path d="M 1533.43 1499.87 C 1533.88 1499.92 1534.2 1500.33 1534.55 1500.6 C 1529.56 1508.72 1513.63 1516 1505.14 1520.07 L 1503.72 1518.67 L 1503.98 1517.05 C 1512.38 1510.39 1524.05 1505.48 1533.43 1499.87 z" fill="rgb(244,234,230)" transform="translate(0,0)"></path>
<path d="M 1588.31 349.56 C 1599.2 346.97 1617.63 347.916 1627.97 352.491 L 1627.28 353.657 C 1617.11 350.497 1599.28 348.586 1588.86 351.136 L 1588.31 349.56 z" fill="rgb(75,86,123)" transform="translate(0,0)"></path>
<path d="M 1119.73 1045.98 L 1126.19 1070.19 L 1122.59 1070.62 C 1121.56 1064.38 1120.71 1058.19 1118.94 1052.12 L 1119.73 1045.98 z" fill="rgb(248,150,178)" transform="translate(0,0)"></path>
<path d="M 1169.68 1720.91 C 1169.84 1721.77 1169.67 1722.89 1169.64 1723.77 C 1166.94 1728.61 1164.06 1731.24 1158.73 1732.89 C 1158.44 1731.79 1158.44 1730.82 1158.41 1729.69 C 1161.43 1725.9 1165.67 1723.54 1169.68 1720.91 z" fill="rgb(253,218,220)" transform="translate(0,0)"></path>
<path d="M 1459.4 608.593 L 1461.18 607.893 L 1466.19 624.927 L 1464.47 625.941 L 1459.4 608.593 z" fill="rgb(133,81,122)" transform="translate(0,0)"></path>
<path d="M 1118.94 1052.12 C 1116.91 1044.53 1115.77 1039.02 1114.42 1031.27 C 1116.49 1036.19 1118.04 1040.94 1119.73 1045.98 L 1118.94 1052.12 z" fill="rgb(133,81,122)" transform="translate(0,0)"></path>
<path d="M 909.338 1515.64 C 913.879 1513.35 918.556 1511.24 923.177 1509.1 L 924.521 1512.35 C 919.793 1513.11 914.089 1514.57 909.338 1515.64 z" fill="rgb(253,178,199)" transform="translate(0,0)"></path>
<path d="M 792.83 1080.4 L 787.906 1085.84 C 785.986 1086.66 785.684 1086.69 783.953 1087.82 L 782.064 1086.04 C 785.08 1084.09 789.534 1082.04 792.83 1080.4 z" fill="rgb(244,234,230)" transform="translate(0,0)"></path>
<path d="M 674.735 1876.04 C 678.221 1877.08 679.69 1877.05 682.358 1879.23 C 677.908 1879.01 676.768 1878.69 672.378 1877.6 L 674.735 1876.04 z" fill="rgb(49,57,91)" transform="translate(0,0)"></path>
<path d="M 1624.67 374.212 C 1621.69 374.129 1621.74 374.058 1618.88 373.114 C 1621.27 371.756 1623.17 372.309 1626.38 372.295 L 1624.67 374.212 z" fill="rgb(127,109,136)" transform="translate(0,0)"></path>
<path d="M 992.208 219.128 C 1015.06 218.025 1022.96 225.66 1033.18 245.222 C 1024.24 240.315 1019.6 238.319 1009.74 236.017 C 994.997 234.467 972.526 242.615 964.969 237.37 C 962.889 228.062 984.91 220.913 992.208 219.128 z" fill="rgb(21,31,74)" transform="translate(0,0)"></path>
<metadata><recraft-signature>{"signed_by": "recraft", "signature_b64": "3EpnIq4c5XTGZzSGUlHKMTEmRJtSwB8YBYgkH6WX5cBEXCpNNq3YLTk6p/ZNsECbsmTXk+JllUWJt5eUUuaFCg==", "signing_algo": "Ed25519", "generation_timestamp": 1770824038, "identifier": "b7d4fb53-05a7-4546-ab85-f80a6eb3b34d"}</recraft-signature></metadata></svg>