<svg xmlns="http://www.w3.org/2000/svg" height="1024" preserveAspectRatio="none" style="display: block;" version="1.1" viewBox="0 0 2048 2048" width="1024">
<path d="M 0 0 L 2048 0 L 2048 2048 L 0 2048 L 0 0 z" fill="rgb(255,255,255)" transform="translate(0,0)"></path>
<path d="M 751.942 486.356 C 753.911 386.756 801.688 308.637 871.038 240.7 C 989.266 124.879 1168.52 91.6334 1293.08 221.33 C 1344.61 275.686 1372.39 348.317 1370.28 423.186 C 1369.1 466.184 1357.68 508.279 1336.96 545.975 C 1323.5 570.479 1305.05 596.104 1288.82 618.953 C 1275.53 637.667 1257.73 657.094 1245.71 676.349 C 1217.89 720.895 1213.29 774.902 1251.83 814.936 C 1252.51 815.648 1253.2 816.35 1253.89 817.041 C 1235.04 817.345 1212.47 811.613 1193.39 808.497 C 1177.09 805.836 1163.66 804.488 1147.33 802.644 C 1158.03 807.457 1178.39 812.626 1190.22 815.756 C 1285.99 841.103 1386.27 852.715 1484.99 839.546 C 1535.36 832.826 1594.76 821.462 1619.54 770.425 C 1633.65 741.353 1627.33 697.407 1615.85 668.212 C 1608.45 649.713 1598 632.589 1584.93 617.555 C 1574.18 605.19 1560.39 593.045 1547.9 582.007 C 1493.77 534.154 1431.3 470.588 1463.38 392.042 C 1475.16 363.211 1507.28 342.5 1535.05 331.239 C 1577.48 313.965 1618.2 318.137 1662.48 316.497 C 1699.84 315.114 1737.67 310.278 1773.21 298.063 C 1755.59 320.874 1735.27 337.803 1708.92 349.997 C 1698.77 354.644 1688.27 358.486 1677.51 361.488 C 1647.91 369.856 1558.46 386.442 1563.04 428.735 C 1567.09 466.184 1639.12 501.062 1669 513.783 C 1742.43 545.04 1785.14 594.41 1802.26 672.04 C 1803.31 676.84 1807.06 681.592 1807.85 687.477 C 1810.04 704.953 1809.39 722.668 1805.91 739.935 C 1801.07 763.083 1799.38 764.734 1801.74 788.698 C 1803.56 807.182 1789.92 839.483 1779.21 854.054 C 1776.87 857.284 1773.06 859.02 1772.15 860.034 C 1766.74 866.071 1761.43 880.53 1756.76 887.725 C 1749.49 898.932 1739.47 915.409 1729.99 924.044 C 1724.54 929.003 1706.8 935.019 1699.01 938.533 C 1690.19 942.533 1681.65 947.112 1673.44 952.237 C 1592.13 1003.21 1554.32 1062.41 1525.17 1151.72 C 1522.51 1110.03 1534.71 1082.2 1553.16 1046.4 C 1520 1060.93 1494.82 1069.98 1459.31 1078.64 C 1479.07 1100.19 1490.52 1116.98 1502.45 1144.48 C 1507.09 1155.2 1511.31 1167.49 1516 1177.8 C 1511.75 1196.55 1504.87 1213.89 1500.69 1233.31 C 1492.45 1172.09 1469.28 1110.07 1431.51 1060.82 C 1452.78 1055.66 1474.72 1050.75 1495.56 1044.49 C 1564.22 1023.87 1621.24 985.53 1676.36 940.976 C 1703.77 918.82 1723.5 890.636 1741.5 860.739 C 1754.1 840.386 1753.23 834.167 1760.12 811.558 C 1762.61 803.405 1773.74 792.031 1776.42 785.928 C 1781.58 774.197 1786.03 756.251 1789.63 743.533 C 1780.62 740.167 1773 736.062 1769.69 726.502 C 1762.38 705.329 1763.61 678.854 1783.24 665.8 C 1779.46 654.541 1775.4 643.913 1771.17 632.829 C 1753.64 627.568 1741.89 620.7 1732.99 604.231 C 1727.37 593.84 1725.52 584.484 1731.58 574.072 C 1712.77 557.657 1691.24 540.098 1666.94 532.767 L 1667.83 533.883 C 1679.67 548.849 1679.27 565.986 1655.78 562.429 C 1640.77 560.156 1624.37 541.553 1626.36 526.181 C 1626.48 525.084 1629.35 518.615 1630.05 516.953 C 1622.59 512.217 1614.38 508.976 1606.6 504.312 C 1579.57 488.118 1551.81 466.946 1543.74 434.835 C 1540.76 422.955 1543.66 408.203 1550.52 398.521 C 1581.53 354.754 1652.9 352.996 1700.87 333.718 C 1642.28 340.144 1523.09 347.885 1533.4 432.1 C 1541.26 496.376 1621.82 542.398 1656.59 594.641 C 1673.94 620.71 1683.92 641.229 1693.87 670.749 C 1704.3 701.06 1709.31 732.975 1708.65 765.026 C 1703.39 942.925 1533.5 991.36 1387.88 1009.96 C 1383.71 1006.43 1379.49 1002.92 1375.36 999.353 C 1291.3 926.779 1191.08 884.233 1083.56 859.94 C 1110.06 873.053 1154.09 886.057 1183.57 898.539 C 1316.15 952.535 1432.7 1030.27 1477.83 1173.04 C 1502.92 1252.38 1487.12 1297.43 1451.82 1369.01 C 1421.37 1430.75 1386.63 1455.4 1320.75 1429.96 C 1350.98 1391.14 1358.02 1343.76 1351.72 1295.53 C 1342.55 1225.27 1303.3 1158.99 1254.78 1108.44 C 1241.43 1094.05 1225.3 1082.83 1210.92 1069.72 C 1205.23 1064.54 1198.54 1053.92 1193.63 1047.79 C 1181.71 1032.9 1169.55 1020.08 1153.42 1009.84 C 1177.93 1038.99 1184.42 1050.05 1203.38 1082.28 C 1239.74 1144.07 1260.84 1206.56 1255.1 1279.76 C 1252.77 1309.56 1245.26 1332.61 1235.46 1360.23 C 1208.15 1332.79 1181.92 1302.38 1155.36 1274.2 C 1140.74 1258.69 1113.03 1226.31 1096.35 1213.83 C 1093.38 1195.91 1090.29 1174.07 1086.23 1156.68 C 1065.68 1066.81 1021.57 984.034 958.428 916.868 C 966.101 932.15 982.573 954.231 992.105 970.061 C 1026.79 1027.66 1051.9 1072.9 1070.46 1137.76 C 1057.27 1144.25 1040.15 1151.9 1029.99 1162.38 C 1003.22 1148.07 970.256 1133.06 939.967 1129.3 C 943.031 1056.71 931.297 974.713 884.816 916.258 C 891.127 933.052 898.199 949.193 904.292 966.183 C 924.384 1022.2 929.942 1067.98 927.84 1127.21 C 845.503 1122.19 773.706 1147.85 733.115 1223.83 C 724.016 1222.62 701.041 1225.88 690.359 1226.36 C 675.508 1227.03 661.906 1226.81 647.102 1226.87 C 643.191 1227.13 636.346 1227.07 633.207 1228.69 C 652.612 1233.44 672.619 1236.59 691.963 1241.82 C 701.817 1244.48 711.674 1246.88 721.787 1248.33 C 719.426 1256.1 717.838 1263.09 716.034 1271.03 C 685.703 1264.17 655.64 1254.88 625.632 1246.73 C 616.177 1244.16 606.831 1241.26 597.074 1240.11 C 602.025 1256.99 607.262 1290.99 615.493 1303.92 C 636.307 1306.96 657.636 1317.98 677.608 1325.18 C 686.153 1328.26 737.541 1342.57 730.984 1354.08 C 727.073 1355.15 725.061 1353.75 720.66 1352.45 C 712.105 1355.84 701.694 1359.58 693.881 1364.14 C 700.441 1367.85 706.773 1369.91 713.908 1372.1 C 719.925 1368.81 725.316 1365.09 732.127 1365.21 C 735.538 1366.89 734.342 1365.68 736.181 1368.58 C 733.795 1371.58 732.153 1369.94 727.574 1372.68 C 728.76 1374.38 744.648 1381.64 750.326 1385.78 C 741.114 1351.34 719.896 1333.54 723.002 1291.99 C 730.155 1196.3 816.835 1133.85 909.15 1137.51 C 1052.74 1143.2 1131.36 1271.89 1221.82 1364.21 C 1272.79 1416.14 1353.66 1490.96 1424.77 1426.27 C 1491.07 1357.11 1502.62 1237.81 1536.61 1151.48 C 1557.87 1097.49 1580.81 1045.41 1624.64 1005.33 C 1667.41 964.55 1733.5 923.154 1794.26 924.798 C 1899.14 928.678 1983.62 1013.79 1978.94 1120 C 1973.21 1250.08 1863.62 1371.28 1729.04 1367.96 C 1794.83 1332.7 1850.6 1277.26 1857.88 1199.05 C 1862.4 1150.47 1834.98 1100.36 1782.83 1096.99 C 1756.51 1095.29 1727.18 1111.57 1708.46 1129.02 C 1708.57 1130.56 1708.62 1132.1 1708.6 1133.65 C 1708.41 1144.43 1699.5 1168.36 1691.58 1173.38 C 1663.01 1191.49 1680.67 1186.27 1682.95 1212.41 C 1684.73 1232.88 1680.25 1250.06 1664.2 1265.48 L 1663.91 1277.19 C 1667.82 1280.48 1674.08 1285.2 1675.7 1290.2 C 1680.63 1305.42 1679.02 1332.18 1672.73 1346.77 C 1669.47 1354.34 1665.35 1355.92 1658.39 1358.35 C 1656.23 1366.38 1654.98 1374.11 1653.55 1382.28 C 1659.34 1387.57 1661.82 1390.98 1661.87 1399.38 C 1661.99 1417.28 1651.04 1440.89 1639.09 1453.97 C 1632.36 1461.33 1629.11 1462.31 1620.1 1462.55 C 1617.19 1466.98 1614.18 1471.34 1611.07 1475.63 C 1564.94 1538.12 1472.94 1595.47 1396.45 1606.31 C 1364.43 1610.84 1314.66 1612.09 1283.79 1604.81 C 1236.45 1593.63 1187.26 1566.43 1148.63 1537.56 C 1102.37 1585.79 1046.4 1655.59 1064.77 1725.47 C 1087.85 1810.86 1204.7 1806.31 1269.77 1779.56 C 1330.38 1754.3 1388.2 1721.86 1452.38 1705.71 C 1494.41 1695.13 1551.38 1692.96 1582.92 1728.23 C 1592.21 1738.61 1594.62 1747.52 1597.78 1760.76 C 1585.46 1757.93 1569.22 1754.68 1556.4 1755.78 C 1493.32 1761.19 1439.51 1795.42 1386.34 1826.37 C 1361.99 1840.54 1334.74 1854.77 1310.03 1867.3 C 1230.34 1907.71 1130.62 1920.76 1044.85 1891.03 C 1044.16 1891.23 1043.46 1891.44 1042.77 1891.64 C 1018.35 1898.74 994.865 1886.76 982.363 1865.42 C 979.918 1861.25 978.524 1855.42 977.234 1850.72 C 969.182 1846.25 968.697 1843.34 959.489 1847.88 C 954.652 1850.27 946.543 1847.87 941.869 1845.52 C 917.756 1833.4 900.823 1801.01 913.309 1775.29 C 911.511 1767.66 910.357 1763.46 907.694 1756.11 C 882.167 1744.32 878.333 1723.73 880.8 1697.41 C 882.213 1682.34 889.032 1673.29 900.684 1664.31 C 903.049 1654.4 905.362 1644.49 907.622 1634.56 C 881.168 1614.16 903.393 1555.22 939.06 1551.31 C 946.239 1539.28 954.375 1527.07 962.015 1515.26 C 959.782 1487.24 970.404 1457.47 997.927 1444.97 C 1000.87 1443.63 1012.34 1443.7 1013.73 1442.49 C 1027.18 1430.7 1038.99 1418.06 1052.67 1406.33 C 1050.1 1401.44 1046.78 1395.95 1043.99 1391.09 C 1027.43 1396.16 1004.46 1405.64 987.169 1411.74 C 903.857 1441.15 820.596 1473.09 737.333 1502.58 C 727.811 1505.95 664.303 1529.82 659.905 1529.03 C 625.428 1522.87 571.273 1500.8 537.105 1489.72 C 514.786 1499.56 467.483 1522.42 492.367 1552.29 C 524.619 1591 580.966 1579.33 625.319 1593.82 C 679.943 1611.66 731.252 1650.88 724.722 1714.29 C 721.833 1743.28 707.456 1769.91 684.8 1788.23 C 650.158 1816.36 614.447 1816.32 573.159 1812.2 C 601.261 1802.31 638.217 1780.28 638.732 1745.93 C 639.141 1718.71 606.652 1699.12 582.688 1695.23 C 556.502 1690.97 528.517 1691.98 501.999 1691.03 C 440.633 1689.17 359.162 1683.53 313.466 1638.22 C 289.201 1614.16 273.682 1572.2 274.804 1538.48 C 276.495 1487.65 300.124 1453.01 334.639 1419.04 C 321.977 1415.01 185.44 1367.46 183.045 1363.07 C 176.477 1351.04 169.587 1317.08 165.693 1301.9 L 132.24 1168.24 C 108.934 1071.41 82.6766 974.616 60.138 877.785 C 59.0028 872.908 89.9233 858.572 94.5007 856.598 C 196.074 889.937 301.776 918.021 404.882 946.88 L 476.022 966.624 C 492.795 971.133 514.831 976.509 530.962 982.256 C 537.098 997.028 543.202 1025.5 547.903 1041.99 C 557.989 1077.35 566.695 1114.95 577.606 1149.89 C 683.786 1150.22 807.513 1148.17 839.845 1027 C 851.077 984.908 866.789 915.047 845.952 875.392 C 818.642 873.303 794.747 856.08 784.066 830.838 C 810.433 832.7 838.269 824.887 859.095 811.06 C 904.705 780.777 902.238 732.708 902.536 684.075 C 902.551 681.542 904.633 678.603 906.871 677.059 C 916.317 679.83 929.893 706.826 936.233 715.118 C 941.408 722.445 946.72 729.602 952.603 736.394 C 988.227 777.521 1048.73 781.984 1097.44 764.494 C 1124.31 754.844 1155.49 731.843 1167.37 704.536 C 1181.45 672.138 1175.03 632.518 1162.48 600.453 C 1184.82 596.61 1207.72 596.872 1202.2 563.081 C 1197.09 531.777 1176.59 529.553 1149.94 532.605 C 1137.12 534.074 1123.7 534.562 1110.29 537.264 C 1087.22 540.378 1063.87 543.026 1040.96 546.992 C 1025.9 549.598 1011.11 554.651 996.475 557.807 C 979.483 566.303 958.81 570.895 940.486 580.929 C 901.026 602.538 898.045 625.829 846.975 610.933 C 840.26 608.974 826.369 607.266 819.061 605.238 C 818.678 605.091 818.296 604.944 817.914 604.797 C 810.863 604.809 791.462 603.95 785.778 605.958 C 779.34 608.953 768.214 610.403 760.782 612.578 C 759.904 602.038 759.217 591.482 758.722 580.917 C 727.173 556.531 718.232 513.998 751.942 486.356 z" fill="rgb(247,139,151)" transform="translate(0,0)"></path>
<path d="M 996.475 557.807 C 1012.57 530.31 1038.35 500.184 1074.44 507.611 C 1092.19 511.262 1101.37 522.86 1110.29 537.264 C 1087.22 540.378 1063.87 543.026 1040.96 546.992 C 1025.9 549.598 1011.11 554.651 996.475 557.807 z" fill="rgb(59,62,115)" transform="translate(0,0)"></path>
<path d="M 785.778 605.958 C 783.878 599.251 781.631 588.498 783.282 581.71 C 785.718 578.696 784.203 579.543 787.894 578.933 C 798.463 581.998 810.24 596.435 817.914 604.797 C 810.863 604.809 791.462 603.95 785.778 605.958 z" fill="rgb(59,62,115)" transform="translate(0,0)"></path>
<path d="M 615.822 1226.41 C 626.464 1225.84 636.499 1225.73 647.102 1226.87 C 643.191 1227.13 636.346 1227.07 633.207 1228.69 C 626.94 1228.17 622.011 1227.41 615.822 1226.41 z" fill="rgb(249,247,247)" transform="translate(0,0)"></path>
<path d="M 82.1372 893.038 C 94.9588 896.296 111.168 902.005 124.265 905.86 L 233.871 937.898 C 322.165 963.042 410.603 987.679 499.18 1011.81 C 500.616 1022.15 504.94 1036.31 507.64 1046.79 L 526.684 1119.14 C 551.41 1211.9 576.748 1304.49 602.695 1396.92 C 611.976 1429.94 626.372 1470.08 633.796 1502.41 C 620.248 1498.75 599.822 1491.23 585.98 1486.6 C 550.198 1474.71 514.533 1462.48 478.99 1449.9 C 384.561 1418.16 290.63 1384.95 197.231 1350.29 C 189.184 1322.33 182.151 1291.66 174.856 1263.16 L 128.529 1078.33 C 113.609 1017.41 95.5674 953.654 82.1372 893.038 z" fill="rgb(255,255,255)" transform="translate(0,0)"></path>
<path d="M 326.442 1140.21 C 354.353 1142.39 372.011 1168.81 380.877 1192.81 C 388.862 1214.44 395.222 1244.01 367.283 1253.21 C 360.269 1251.87 354.526 1250.91 347.629 1246.27 C 320.957 1228.35 295.534 1180.83 311.407 1149.61 C 314.109 1144.29 320.568 1141.41 326.442 1140.21 z" fill="rgb(247,139,151)" transform="translate(0,0)"></path>
<path d="M 322.868 1149.07 C 324.584 1148.95 326.303 1148.9 328.023 1148.91 C 357.489 1149.33 385.063 1205.52 378.437 1231.85 C 377.024 1237.47 374.675 1239.98 370.545 1243.77 C 336.952 1249.17 297.416 1174.53 322.868 1149.07 z" fill="rgb(255,255,255)" transform="translate(0,0)"></path>
<path d="M 733.525 1401.66 C 741.542 1397.55 752.264 1391.6 760.916 1389.58 C 760.598 1389.4 764.466 1391.68 764.163 1391.4 C 766.943 1393.87 772.367 1389.77 771.815 1386.98 C 765.624 1355.7 759.72 1326.52 769.195 1294.65 C 776.882 1268.42 794.824 1246.39 818.962 1233.55 C 842.017 1221.16 875.633 1213.58 901.64 1216.7 C 1009.9 1229.68 1051.62 1346.44 1102.38 1425.02 C 1143.99 1489.42 1200.89 1549.74 1275.25 1571.9 C 1325.28 1587.26 1379.41 1581.56 1425.15 1556.13 C 1444.86 1545.35 1459.39 1532.83 1475.8 1517.83 C 1579.41 1423.38 1564.84 1268.15 1617.11 1148.07 C 1654.58 1065.69 1736.96 989.322 1833.83 1015.3 C 1868.04 1026.24 1899.71 1046.36 1916.47 1079.07 C 1935.41 1116.06 1942.89 1160.88 1930.23 1201.1 L 1929.88 1200.41 C 1924.32 1189.26 1915.03 1183.22 1903.16 1189.04 C 1879.95 1200.39 1887.47 1250.06 1917.43 1230.38 C 1917.91 1232.4 1917.93 1232.23 1916.72 1234.73 C 1894.22 1281.52 1845.65 1321.71 1798.4 1339.84 C 1802.77 1336.12 1807.11 1332.36 1811.43 1328.57 C 1850.68 1293.95 1877.44 1250.05 1879.94 1197.01 C 1881.6 1162.1 1875.12 1134.38 1851.55 1107.25 C 1834.71 1087.85 1808.94 1077.88 1783.62 1076.68 C 1745.64 1074.88 1720.78 1091.34 1693.94 1116.03 C 1683.81 1114.76 1683.77 1114.82 1674.1 1112.11 C 1651.42 1105.77 1622.16 1139.74 1636.47 1161.07 C 1641.87 1169.12 1649.96 1170.41 1658.15 1172.03 C 1654.51 1182.31 1652.38 1188.35 1646.2 1197.28 C 1615.62 1186.78 1593.73 1218.92 1606 1246.47 C 1609.61 1254.56 1616.15 1257.31 1624.25 1259.55 C 1630.37 1257.99 1640.19 1253.6 1645.28 1253.56 L 1646.5 1255 C 1648.77 1267.11 1641.62 1292.83 1639.65 1305.84 L 1637.39 1305.33 C 1623.17 1286.18 1600.59 1303.01 1592.5 1318.87 C 1583.07 1337.35 1592.27 1367.32 1616.84 1356.62 C 1628.48 1351.55 1634.04 1333.07 1637.2 1321.98 C 1642.53 1355.59 1636.82 1376.73 1624.37 1407.42 C 1613.31 1434.67 1605.49 1453.28 1585.52 1475.87 C 1571.13 1492.13 1559.53 1504.47 1542.66 1518.33 C 1546.03 1511.71 1552.15 1494.26 1537.35 1495.53 C 1522.88 1496.78 1506.22 1511.44 1496.66 1521.84 C 1488.09 1531.17 1488.37 1535.5 1489.34 1547.15 C 1458.72 1574.79 1389.01 1590.3 1347.92 1591.81 C 1302.27 1593.5 1268.13 1583.48 1227.9 1562.92 C 1165.69 1530.79 1116.87 1471.32 1079.87 1412.69 C 1032.22 1337.17 974.44 1233.24 871.026 1236.51 C 820.988 1238.1 774.341 1269.45 772.888 1322.93 C 772.426 1339.9 797.531 1336.84 807.877 1334.75 L 809.302 1334.46 C 834.495 1305.93 790.952 1308.3 784.309 1323.41 L 785.166 1324.52 C 791.337 1323.84 805.409 1315.59 808.975 1317.94 C 804.701 1332.74 762.928 1338.02 790.426 1292.96 C 806.404 1298.85 832.21 1303.79 849.455 1307.73 L 975.156 1336.16 C 985.844 1338.57 996.086 1340.31 1006.92 1341.95 C 1012.16 1342.73 1015.98 1345.18 1015.37 1350.78 C 1006.36 1355.09 987.229 1361 977.243 1364.4 C 954.447 1372.17 931.711 1380.12 909.038 1388.24 L 721.759 1455.39 C 702.136 1462.31 683.253 1469.92 663.409 1476.49 L 659.146 1464.02 C 702.664 1446.66 746.455 1430 790.501 1414.03 C 809.251 1407.14 827.854 1400.43 846.787 1394.04 C 851.108 1392.59 854.92 1391.18 856.748 1387.12 C 853.18 1380.86 827.699 1376.69 818.784 1373.46 C 820.542 1366.91 820.636 1358.33 814.151 1354.74 C 808.848 1351.8 781.388 1343.6 776.485 1344.62 C 774.9 1347.57 775.497 1346 775.573 1349.99 C 782.73 1355.92 800.415 1355.7 809.968 1361.82 L 809.553 1363.09 C 798.173 1366.18 782.725 1359.76 777.365 1360.61 C 774.606 1365.31 778.143 1374.23 783.956 1374.74 C 789.723 1375.26 796.66 1375.91 802.416 1376.61 C 796.616 1380.17 787.101 1382.78 785.045 1389.2 C 787.148 1394.48 796.247 1397.82 801.516 1400.31 C 788.634 1405.06 775.661 1409.55 762.605 1413.79 C 753.944 1409.73 742.917 1405.89 733.525 1401.66 z" fill="rgb(255,255,255)" transform="translate(0,0)"></path>
<path d="M 1601.9 1396.15 C 1636.7 1394.75 1600.11 1464.67 1575.47 1470.11 C 1548.57 1469.77 1559.49 1407.47 1601.9 1396.15 z" fill="rgb(247,139,151)" transform="translate(0,0)"></path>
<path d="M 1603.61 1430.74 C 1601.28 1438.4 1588.24 1464.44 1577.45 1459.6 C 1556.83 1450.35 1588.1 1400.21 1604.69 1407.81 C 1607.15 1412.61 1606.16 1414.18 1604.41 1419.64 L 1603.99 1420.92 C 1603.9 1423.81 1603.89 1427.97 1603.61 1430.74 z" fill="rgb(255,255,255)" transform="translate(0,0)"></path>
<path d="M 1601.19 1420.08 L 1603.99 1420.92 C 1603.9 1423.81 1603.89 1427.97 1603.61 1430.74 L 1601.15 1432.21 C 1599.03 1437.37 1593.74 1446.71 1589.02 1449.71 L 1588.43 1449.08 C 1588.98 1445.63 1590.12 1444.43 1592.05 1441.55 L 1591.46 1440.63 L 1590.91 1441.33 L 1589.34 1438.02 C 1592.58 1432.43 1596.74 1424.44 1601.19 1420.08 z" fill="rgb(247,139,151)" transform="translate(0,0)"></path>
<path d="M 1601.19 1420.08 L 1603.99 1420.92 C 1603.9 1423.81 1603.89 1427.97 1603.61 1430.74 L 1601.15 1432.21 C 1602.01 1426.93 1601.69 1425.53 1601.19 1420.08 z" fill="rgb(172,173,181)" transform="translate(0,0)"></path>
<path d="M 1589.34 1438.02 L 1590.91 1441.33 C 1588.83 1443.96 1588.1 1445.25 1585.18 1446.97 L 1584.22 1445.84 C 1585.12 1441.73 1586.21 1441.18 1589.34 1438.02 z" fill="rgb(25,26,32)" transform="translate(0,0)"></path>
<path d="M 1580.96 1427.57 C 1582.46 1431.24 1579.74 1434.21 1578.59 1437.83 C 1576.21 1445.34 1580.84 1449.33 1582.29 1456.76 C 1579.45 1452.94 1578.05 1450.11 1575.82 1445.95 C 1576.83 1437.9 1577.2 1434.76 1580.96 1427.57 z" fill="rgb(172,173,181)" transform="translate(0,0)"></path>
<path d="M 1788.26 1023.27 C 1800.53 1022.46 1812.76 1025.87 1823.42 1032.12 C 1830.27 1036.14 1841.56 1047.93 1834.57 1056.42 C 1829.68 1062.36 1820.77 1063.06 1813.56 1063.72 C 1802.28 1063.44 1786.63 1062.92 1777.02 1056.9 C 1751.73 1041.06 1766.3 1027.03 1788.26 1023.27 z" fill="rgb(247,139,151)" transform="translate(0,0)"></path>
<path d="M 1825.47 1043.48 C 1845.68 1065.23 1752.64 1060.72 1777.46 1032.9 C 1784.73 1024.74 1816.83 1033.04 1824.25 1042.84 L 1825.47 1043.48 z" fill="rgb(255,255,255)" transform="translate(0,0)"></path>
<path d="M 1824.25 1042.84 L 1825.47 1043.48 C 1825.45 1045.38 1825.4 1047.29 1825.32 1049.2 C 1823.95 1051.72 1824.02 1052.28 1821.66 1053.71 C 1820.64 1050.4 1822.43 1049.04 1823.74 1044.6 L 1824.25 1042.84 z" fill="rgb(25,26,32)" transform="translate(0,0)"></path>
<path d="M 1794.32 1040.85 C 1799.71 1040.27 1807.24 1038.29 1811.59 1041.66 L 1808.67 1045.59 L 1809.75 1046.98 L 1812.15 1046.77 C 1813.68 1044.71 1813.3 1042.92 1813.32 1040.22 L 1813.32 1039 L 1814.45 1038.63 C 1817.3 1040.77 1817.83 1040.8 1819.37 1044.06 C 1817.4 1045.72 1816.2 1046.82 1814.38 1048.64 C 1814.43 1049.8 1814.26 1050.53 1814.82 1051.59 C 1812 1050.06 1813.44 1050.24 1810.5 1050.25 C 1810.32 1051.16 1810.14 1052.08 1809.97 1052.99 C 1802.51 1054.57 1777.54 1051.78 1779.29 1040.68 L 1781.36 1039.21 C 1784.33 1039.17 1785.07 1039.61 1787.82 1040.59 L 1788.73 1040.92 L 1791.99 1039.6 L 1794.32 1040.85 z" fill="rgb(25,26,32)" transform="translate(0,0)"></path>
<path d="M 1788.73 1040.92 L 1791.99 1039.6 L 1794.32 1040.85 L 1795 1042.57 C 1798.24 1044.27 1798.76 1041.95 1804.87 1041.55 C 1807.93 1043.18 1806.8 1042.04 1808.43 1045.02 C 1807.42 1048.77 1808.39 1047.21 1805.24 1049.75 L 1804.02 1049.18 L 1804.97 1045.09 C 1802.52 1043.72 1803.83 1044.05 1800.88 1044.62 C 1800.19 1046.69 1799.95 1047.8 1799.84 1049.97 L 1799.11 1049.73 L 1799.75 1048.97 L 1798.69 1049.2 C 1795.68 1046.03 1792.2 1043.59 1788.73 1040.92 z" fill="rgb(232,232,234)" transform="translate(0,0)"></path>
<path d="M 1903.41 1116.2 C 1930.09 1113.59 1939.44 1160.85 1913.72 1168.24 C 1901.21 1165.9 1893.56 1160.91 1889.09 1148.62 C 1883.15 1132.29 1887.5 1121.59 1903.41 1116.2 z" fill="rgb(247,139,151)" transform="translate(0,0)"></path>
<path d="M 1908.89 1122.95 L 1909.23 1122.9 C 1918.58 1125.12 1934.52 1161.98 1907.76 1158.64 C 1888.66 1146.69 1891.24 1120.35 1908.32 1124.71 L 1908.89 1122.95 z" fill="rgb(255,255,255)" transform="translate(0,0)"></path>
<path d="M 1909.65 1145.68 C 1915.5 1148.56 1908.28 1150.48 1913.61 1150.29 C 1914 1148.07 1914.25 1146.4 1914.48 1144.17 L 1916.36 1142.25 C 1918.52 1144.76 1917.71 1143.28 1918.11 1147.17 C 1914.53 1156.05 1904.79 1156.07 1902.97 1146.89 L 1905.79 1144.62 L 1908.71 1143.44 L 1909.65 1145.68 z" fill="rgb(46,48,50)" transform="translate(0,0)"></path>
<path d="M 1908.71 1143.44 L 1909.65 1145.68 L 1910.56 1149.63 L 1909.57 1150.93 C 1905.29 1149.46 1906.15 1148.74 1902.97 1146.89 L 1905.79 1144.62 L 1908.71 1143.44 z" fill="rgb(232,232,234)" transform="translate(0,0)"></path>
<path d="M 1905.79 1144.62 C 1902.98 1142.69 1900.89 1141.8 1899.84 1138.66 C 1900 1135.28 1900.02 1135.52 1901.97 1132.71 C 1905.83 1131.52 1910.01 1133.72 1910.81 1137.46 C 1906.71 1136.25 1906.38 1135.41 1902.93 1136.33 C 1902.41 1139.43 1902.21 1138 1903.46 1140.79 C 1906.23 1141.7 1906.35 1141.45 1909.32 1141.16 L 1908.71 1143.44 L 1905.79 1144.62 z" fill="rgb(25,26,32)" transform="translate(0,0)"></path>
<path d="M 1857.14 1059.23 C 1884.59 1059.67 1909.68 1094.88 1884.36 1106.65 C 1867.63 1104.56 1853.86 1092.79 1846.72 1077.54 C 1842.23 1067.94 1848.27 1062.08 1857.14 1059.23 z" fill="rgb(247,139,151)" transform="translate(0,0)"></path>
<path d="M 1858.69 1064.97 C 1873.77 1065.22 1895.77 1087.02 1881.37 1099.2 C 1870.51 1095.62 1840.82 1076.71 1858.69 1064.97 z" fill="rgb(249,247,247)" transform="translate(0,0)"></path>
<path d="M 1861.18 1068.29 L 1864.75 1069.37 L 1865.09 1070.5 C 1862.01 1071.5 1862.88 1070.78 1860.76 1072.83 C 1865.61 1076.57 1868.28 1072.35 1873.75 1076.64 L 1873.29 1077.66 L 1871.73 1077.17 C 1864.86 1078.23 1867.7 1078.49 1860.97 1075.9 C 1856.93 1078.83 1862.26 1076.66 1860.03 1080.86 L 1857.93 1079.59 C 1855.89 1074.72 1858.37 1071.73 1861.18 1068.29 z" fill="rgb(25,26,32)" transform="translate(0,0)"></path>
<path d="M 1879.72 1084.86 C 1881.49 1085.7 1881.3 1086.04 1882.7 1087.85 C 1882.38 1094.14 1878.61 1093.72 1873.75 1092.33 C 1871.68 1090.25 1871.17 1090.19 1870.45 1087.46 C 1872.27 1087.55 1873.1 1087.64 1874.96 1087.92 L 1876.67 1088.18 L 1879.72 1084.86 z" fill="rgb(100,105,160)" transform="translate(0,0)"></path>
<path d="M 1865.18 1080.1 L 1866.33 1079.64 C 1867.21 1080.03 1868.1 1080.41 1868.99 1080.78 C 1873.43 1082.57 1872.89 1082 1876.81 1080.27 L 1878.49 1082 C 1873.71 1085.16 1870.18 1085.1 1865.19 1082.37 L 1865.18 1080.1 z" fill="rgb(99,99,109)" transform="translate(0,0)"></path>
<path d="M 1062.44 1423.07 C 1064.6 1425.07 1076.52 1441.57 1079.1 1445.08 C 1036.02 1481.2 987.905 1548.84 967.239 1601.01 C 947.957 1649.69 936.848 1716.02 958.961 1765.17 C 979.395 1810.6 1011.8 1831.95 1056.43 1849.05 C 1157.68 1887.82 1263.18 1859 1352.1 1804.49 C 1379.4 1787.76 1411.21 1764.43 1439.01 1751.46 C 1475.67 1734.36 1519.74 1721.83 1559.25 1737 C 1541.83 1736.72 1536.96 1736.43 1519.88 1740.21 C 1450.99 1757.24 1397.12 1797.93 1335.95 1830.37 C 1240.43 1881.03 1155.15 1902.91 1049.51 1870.62 C 1044.46 1854.57 1037.56 1846.51 1021.07 1839.88 C 1011.01 1835.84 1008.76 1834.9 998.958 1838.97 C 991.604 1837.35 980.518 1827.96 974.108 1823.12 C 973.991 1796.47 964.32 1782.2 938.326 1775.59 C 932.055 1766.76 929.141 1755.93 925.67 1745.62 C 933.321 1730.75 939.627 1719.38 937.511 1701.72 C 935.902 1688.29 930.592 1683.62 920.901 1676.08 C 922.42 1667.91 928.166 1637.5 931.549 1631.58 C 939.255 1618.1 947.198 1611.11 951.799 1593.38 C 953.704 1586.03 951.386 1570.78 951.53 1569.9 C 952.652 1563.04 974.499 1529.89 979.409 1526.52 C 990.586 1518.83 996.156 1519.52 1006.47 1508.67 C 1022.87 1491.43 1017.88 1481.48 1023.34 1466.76 C 1026.75 1457.56 1054.45 1430.88 1062.44 1423.07 z" fill="rgb(255,255,255)" transform="translate(0,0)"></path>
<path d="M 317.411 1607.66 C 322.365 1609.42 334.579 1618.91 340.587 1622.08 C 362.316 1633.54 382.905 1638.81 406.79 1643.5 C 431.411 1648.33 451.084 1648.5 476.015 1649.4 C 533.639 1651.48 613.436 1641.12 660.618 1678.29 C 673.152 1688.16 682.284 1705.47 683.011 1721.12 C 684.039 1743.27 677.112 1759.13 663.028 1775.42 C 657.761 1780.58 653.666 1782.85 647.394 1786.37 C 660.392 1760.4 668.225 1736.7 649.694 1710.24 C 612.586 1657.88 539.943 1672.75 485.031 1669 C 424.713 1664.87 353.618 1663.45 317.411 1607.66 z" fill="rgb(255,255,255)" transform="translate(0,0)"></path>
<path d="M 1020.72 1357.07 C 1023.55 1359.24 1031.17 1371.06 1033.61 1374.69 C 990.821 1388.8 952.924 1403.74 911.24 1419.56 C 861.955 1438.21 812.432 1456.23 762.682 1473.6 C 734.863 1483.42 704.173 1494.78 676.244 1503.36 L 667.975 1505.6 C 666.984 1498.48 666.326 1490.85 665.586 1483.66 C 705.354 1470.44 748.569 1454.14 788.122 1439.76 L 915.615 1393.95 C 950.686 1381.11 985.549 1370.45 1020.72 1357.07 z" fill="rgb(255,255,255)" transform="translate(0,0)"></path>
<path d="M 516.959 1003.78 L 518.791 1004.94 C 524.391 1021.81 528.743 1039.86 533.616 1057.09 C 543.427 1090.8 552.901 1124.6 562.036 1158.49 L 615.215 1345.23 L 641.826 1437.76 C 646.094 1452.42 658.046 1491.44 658.737 1505.56 L 657.58 1506.73 L 653.333 1506.72 C 650.265 1506.49 648.222 1506.63 645.557 1505.11 C 638.001 1488.55 626.338 1447.72 621.038 1429.52 C 606.604 1378.42 592.516 1327.23 578.776 1275.94 L 531.328 1101.83 C 523.08 1071.36 514.364 1042.35 507.432 1011.47 C 510.428 1008.86 513.827 1006.27 516.959 1003.78 z" fill="rgb(255,255,255)" transform="translate(0,0)"></path>
<path d="M 447.725 1459.94 C 463.323 1462.99 494.682 1475.03 511.058 1480.55 C 487.987 1491.75 458.918 1513.44 463.264 1542.72 C 465.936 1560.73 480.571 1570.99 494.233 1580.74 C 489.436 1581.57 481.358 1580.33 476.208 1579.64 C 444.116 1575.35 395.035 1551.13 402.155 1511.71 C 406.611 1487.04 427.881 1472.99 447.725 1459.94 z" fill="rgb(255,255,255)" transform="translate(0,0)"></path>
<path d="M 451.376 1473.11 C 484.451 1470.67 470.383 1522.23 439.146 1528.88 C 404.455 1526.73 425.302 1483.52 451.376 1473.11 z" fill="rgb(247,139,151)" transform="translate(0,0)"></path>
<path d="M 451.031 1480.13 C 477.162 1476.66 459.75 1513.66 442.116 1521.17 C 429.106 1521.16 425.966 1514.92 430.361 1502.73 C 434.279 1491.86 440.427 1484.9 451.031 1480.13 z" fill="rgb(249,247,247)" transform="translate(0,0)"></path>
<path d="M 447.664 1486.87 C 452.336 1484.9 451.465 1484.37 455.371 1485.37 C 461.162 1490.95 459.806 1497.45 454.534 1502.64 L 453.413 1502.17 C 453.238 1496.76 455.242 1489.42 454.342 1486.49 C 449.471 1488.74 447 1495.3 444.418 1500.33 C 444.439 1495.64 445.748 1492.77 447.233 1488.33 L 447.664 1486.87 z" fill="rgb(25,26,32)" transform="translate(0,0)"></path>
<path d="M 435.34 1506.62 C 437.083 1508.64 438.258 1512.15 439.36 1514.77 C 441.587 1512.97 440.62 1513.38 443.38 1512.8 C 444.554 1515.76 443.989 1515.72 443.523 1519.31 C 439.414 1518.55 434.103 1516.52 432.059 1512.68 C 432.183 1509.11 432.328 1510.08 435.34 1506.62 z" fill="rgb(25,26,32)" transform="translate(0,0)"></path>
<path d="M 447.233 1488.33 C 436.664 1494.28 441.09 1499.43 439.188 1503.89 C 436.354 1502.86 437.595 1503.69 435.657 1500.91 C 435.713 1494.97 442.642 1489.05 447.664 1486.87 L 447.233 1488.33 z" fill="rgb(99,99,109)" transform="translate(0,0)"></path>
<path d="M 87.9349 874.733 L 403.07 964.537 C 439.578 974.846 476.158 984.901 512.805 994.703 L 503.39 1002.25 C 498.627 1003.24 453.837 989.665 445.522 987.396 C 329.82 956.478 214.684 923.476 100.172 888.408 C 94.8655 886.791 83.1986 885.614 80.917 880.849 C 82.0724 877.729 84.936 876.598 87.9349 874.733 z" fill="rgb(255,255,255)" transform="translate(0,0)"></path>
<path d="M 1161.15 195.298 C 1196.78 193.396 1239.72 221.318 1252.61 255.253 C 1255.75 263.537 1250.1 270.646 1241.89 272.886 C 1195.11 274.702 1120.48 205.056 1161.15 195.298 z" fill="rgb(255,255,255)" transform="translate(0,0)"></path>
<path d="M 907.615 1259.36 C 931.389 1255.33 980.955 1305.28 996.397 1322.12 C 970.102 1313.79 932.02 1305.66 904.135 1298.36 C 898.41 1297.25 892.306 1295.72 886.623 1294.32 C 859.832 1287.75 831.912 1283.63 805.371 1276.29 C 811.985 1269.33 818.44 1263.89 827.246 1259.94 C 829.496 1264.1 833.517 1273.41 839.208 1272.28 C 847.032 1270.73 854.801 1268.8 862.616 1267.15 C 877.545 1264.16 892.55 1261.56 907.615 1259.36 z" fill="rgb(255,255,255)" transform="translate(0,0)"></path>
<path d="M 1036.71 445.358 C 1060.4 440.995 1083.98 448.792 1103.27 462.145 C 1079.74 457.801 1061.52 452.361 1037.03 457.215 C 1005.43 463.477 987.189 476.75 969.4 502.545 C 957.24 520.989 953.045 532.98 945.294 553.401 C 948.385 496.286 978.274 453.874 1036.71 445.358 z" fill="rgb(255,255,255)" transform="translate(0,0)"></path>
<path d="M 989.681 394.324 C 994.626 394.05 1007 394.68 1010.26 398.462 C 1008.93 400.837 1003.95 399.986 1000.92 400.111 C 960.036 401.799 932.72 443.743 921.5 478.524 C 919.621 485.501 917.496 492.409 915.13 499.236 C 913.14 451.974 939.395 401.644 989.681 394.324 z" fill="rgb(255,255,255)" transform="translate(0,0)"></path>
<path d="M 963.194 1821.37 C 964.571 1820.79 963.818 1820.9 965.472 1821.17 L 965.212 1823.34 C 950.52 1842.85 920.305 1802.85 931.874 1789.02 C 935.296 1784.93 942.269 1785.82 946.847 1786.16 C 952.579 1788.15 953.539 1788.48 958.368 1792.08 C 961.185 1795.59 966.681 1801.67 964.998 1806.55 L 964.864 1808.22 C 966.08 1811.41 966.426 1811.59 965.992 1815.04 C 963.606 1817.72 965.079 1816.62 960.836 1817.56 L 959.684 1818.12 L 962.4 1821.05 L 963.194 1821.37 z" fill="rgb(255,255,255)" transform="translate(0,0)"></path>
<path d="M 963.194 1821.37 C 964.571 1820.79 963.818 1820.9 965.472 1821.17 L 965.212 1823.34 C 950.52 1842.85 920.305 1802.85 931.874 1789.02 C 935.296 1784.93 942.269 1785.82 946.847 1786.16 L 943.666 1788.64 C 924.062 1801.29 946.803 1825.55 960.89 1823.26 L 963.194 1821.37 z" fill="rgb(255,255,255)" transform="translate(0,0)"></path>
<path d="M 946.847 1786.16 C 952.579 1788.15 953.539 1788.48 958.368 1792.08 C 961.185 1795.59 966.681 1801.67 964.998 1806.55 L 964.864 1808.22 C 960.539 1806 962.359 1806.54 957.28 1806.83 L 957.382 1805.53 L 960.42 1804.58 C 959.864 1798.15 948.196 1792.43 942.151 1792.13 C 936.171 1794.85 939.118 1802.34 941.526 1807 C 944.802 1813.25 950.453 1817.93 957.209 1819.98 C 959.059 1820.54 960.505 1820.76 962.4 1821.05 L 963.194 1821.37 L 960.89 1823.26 C 946.803 1825.55 924.062 1801.29 943.666 1788.64 L 946.847 1786.16 z" fill="rgb(25,26,32)" transform="translate(0,0)"></path>
<path d="M 946.847 1786.16 C 952.579 1788.15 953.539 1788.48 958.368 1792.08 L 956.812 1793.15 C 951.886 1789.48 949.663 1789.17 943.666 1788.64 L 946.847 1786.16 z" fill="rgb(232,232,234)" transform="translate(0,0)"></path>
<path d="M 958.368 1792.08 C 961.185 1795.59 966.681 1801.67 964.998 1806.55 L 964.171 1804.84 C 961.357 1798.92 961.081 1798.25 956.812 1793.15 L 958.368 1792.08 z" fill="rgb(172,173,181)" transform="translate(0,0)"></path>
<path d="M 959.684 1818.12 C 956.953 1816.33 953.577 1813.93 952.27 1810.95 C 955.499 1811.92 958.272 1815.12 960.836 1817.56 L 959.684 1818.12 z" fill="rgb(99,99,109)" transform="translate(0,0)"></path>
<path d="M 1627.62 1248.96 C 1601.07 1251.59 1608.41 1201.23 1631.85 1204.48 C 1641.31 1210.16 1636.47 1233.2 1633.16 1241.82 C 1636.18 1243.53 1636.16 1243.28 1637.89 1246.23 L 1637.39 1248.37 C 1633.5 1250.5 1632.5 1250.19 1627.62 1248.96 z" fill="rgb(255,255,255)" transform="translate(0,0)"></path>
<path d="M 1627.62 1248.96 C 1630.15 1246.57 1631.24 1244.66 1633.16 1241.82 C 1636.18 1243.53 1636.16 1243.28 1637.89 1246.23 L 1637.39 1248.37 C 1633.5 1250.5 1632.5 1250.19 1627.62 1248.96 z" fill="rgb(100,105,160)" transform="translate(0,0)"></path>
<path d="M 1623.42 1224.83 C 1626.02 1225.98 1629.85 1227.53 1632.3 1228.79 L 1631.66 1233.59 C 1631.26 1237.17 1630.06 1238.98 1627.17 1240.85 C 1622.97 1239.44 1619.74 1232.73 1620.21 1228.66 L 1623.07 1228.02 L 1623.42 1224.83 z" fill="rgb(232,232,234)" transform="translate(0,0)"></path>
<path d="M 1623.42 1224.83 C 1626.02 1225.98 1629.85 1227.53 1632.3 1228.79 L 1631.66 1233.59 C 1626.23 1232.14 1625.71 1232.17 1623.07 1228.02 L 1623.42 1224.83 z" fill="rgb(247,139,151)" transform="translate(0,0)"></path>
<path d="M 1623.42 1224.83 C 1622.6 1220.63 1622.39 1222.58 1623.81 1218.74 C 1626.6 1216.48 1625.06 1216.94 1628.56 1217.22 C 1631.8 1219.26 1631.63 1219.59 1633.23 1222.98 C 1633 1225.45 1632.99 1226.43 1632.3 1228.79 C 1629.85 1227.53 1626.02 1225.98 1623.42 1224.83 z" fill="rgb(232,232,234)" transform="translate(0,0)"></path>
<path d="M 1038.68 1858.04 C 1057.65 1888.22 1000.28 1874.25 996.695 1854.44 C 998.064 1846.64 1008.21 1844.06 1015.01 1844.92 C 1023.23 1845.62 1033.29 1852.08 1038.68 1858.04 z" fill="rgb(255,255,255)" transform="translate(0,0)"></path>
<path d="M 1015.01 1844.92 C 1023.23 1845.62 1033.29 1852.08 1038.68 1858.04 L 1037.92 1860.26 C 1039.05 1864.52 1038.6 1864.82 1036.7 1868.61 C 1027.26 1877.12 1004.46 1863.61 1003.14 1855.09 C 1005.42 1855.15 1031.19 1883.9 1035.21 1862.76 C 1032.32 1853.8 1018.73 1852.21 1011.9 1847.57 L 1011.96 1846.1 L 1015 1845.98 L 1015.01 1844.92 z" fill="rgb(25,26,32)" transform="translate(0,0)"></path>
<path d="M 1015.01 1844.92 C 1023.23 1845.62 1033.29 1852.08 1038.68 1858.04 L 1037.92 1860.26 C 1030.13 1852.58 1025.02 1850.06 1015 1845.98 L 1015.01 1844.92 z" fill="rgb(124,131,144)" transform="translate(0,0)"></path>
<path d="M 1005.74 1497.49 C 1004.29 1500.69 1002.71 1503.14 999.831 1505.14 L 997.855 1504.65 C 996.144 1500.47 996.566 1496.65 996.552 1492.05 C 995.811 1495.96 994.624 1505.82 991.507 1507.69 L 989.681 1505.87 C 986.626 1494.54 997.312 1476.38 1007.58 1471.54 C 1009.73 1470.53 1010.86 1469.87 1012.27 1467.96 C 1007.56 1464.64 1003.42 1466.95 999.581 1470.46 C 991.363 1477.98 984.805 1489.84 983.204 1500.94 C 982.746 1504.12 987.251 1508.8 989.13 1510.88 L 990.114 1511.96 L 989.904 1513.54 C 985.764 1514.8 983.651 1513.46 980.1 1511.49 C 963.662 1487.24 1022.94 1435.93 1013.87 1482.26 C 1010.97 1488.63 1009.46 1491.6 1005.74 1497.49 z" fill="rgb(255,255,255)" transform="translate(0,0)"></path>
<path d="M 1005.74 1497.49 C 1004.43 1497.5 1005.3 1497.56 1003.19 1496.87 C 1003.6 1492.04 1006.22 1490.48 1007.4 1486.45 C 1007.87 1484.83 1008.65 1479.59 1008.97 1477.66 L 1013.87 1482.26 C 1010.97 1488.63 1009.46 1491.6 1005.74 1497.49 z" fill="rgb(232,232,234)" transform="translate(0,0)"></path>
<path d="M 777.785 503.064 C 811.168 501.366 837.597 536.81 847.247 565.246 L 832.364 545.9 C 821.168 533.725 800.759 514.512 783.661 512.779 C 770.61 511.456 762.946 517.435 753.831 525.114 C 760.996 512.194 763.813 507.428 777.785 503.064 z" fill="rgb(255,255,255)" transform="translate(0,0)"></path>
<path d="M 1619.68 1307.8 C 1637.73 1308.82 1624.82 1341.85 1607.44 1350.39 C 1596.58 1347.39 1596.18 1336.16 1600.07 1327.24 C 1604.66 1316.69 1609.49 1312.42 1619.68 1307.8 z" fill="rgb(255,255,255)" transform="translate(0,0)"></path>
<path d="M 1614.98 1316.66 C 1619.41 1314.71 1618.37 1314.42 1622.6 1314.82 C 1628.17 1320.97 1620.06 1332.34 1618.29 1338.72 C 1613.92 1341.44 1611.98 1343.24 1607.28 1342.19 L 1605.98 1340.1 C 1604.81 1330.43 1608.16 1323.02 1614.98 1316.66 z" fill="rgb(249,247,247)" transform="translate(0,0)"></path>
<path d="M 1614.98 1316.66 C 1619.41 1314.71 1618.37 1314.42 1622.6 1314.82 C 1628.17 1320.97 1620.06 1332.34 1618.29 1338.72 L 1616.14 1335.98 C 1611.42 1334.83 1611.01 1334.78 1609.71 1330.49 L 1610.53 1329.36 C 1612.59 1330.53 1614.68 1331.64 1616.81 1332.68 L 1617.68 1331.52 C 1616.69 1327.13 1616.26 1329.66 1612.24 1325.48 L 1613.16 1324.35 C 1615.55 1325.54 1616.24 1326.02 1618.8 1326.66 C 1620.89 1323.76 1616.69 1324.96 1617.35 1319.45 L 1618.22 1319.27 L 1620.88 1323.34 L 1622.54 1321.87 L 1622.4 1319.89 C 1618.14 1315.8 1620.19 1316.57 1614.98 1316.66 z" fill="rgb(25,26,32)" transform="translate(0,0)"></path>
<path d="M 932.552 1572.06 C 936.174 1571.64 936.215 1571.44 939.829 1572.58 C 943.273 1575.44 944.065 1579.17 945.692 1583.51 C 943.717 1592.8 940.824 1602.84 934.87 1610.35 C 931.164 1612.07 933.024 1611.87 929.104 1611.09 C 918.432 1602.83 931.718 1585.08 936.91 1577.14 L 936.356 1576.39 C 930.397 1579.07 929.675 1579.98 925.634 1584.92 C 922.074 1592.17 918.645 1603.85 921.417 1612.1 C 922.709 1615.94 925.454 1616.57 929.068 1617.82 L 930.229 1618.21 L 930.632 1619.48 C 927.993 1623.07 926.974 1623.92 922.696 1624.13 C 914.385 1620.58 913.826 1607.35 915.209 1599.73 C 917.495 1587.13 922.166 1579.41 932.552 1572.06 z" fill="rgb(255,255,255)" transform="translate(0,0)"></path>
<path d="M 1534.2 1503.77 L 1536.91 1504.12 L 1537.88 1505.68 C 1538.48 1521.27 1518 1540.55 1502.71 1543.21 C 1500.11 1541.86 1500.07 1541.58 1497.97 1539.45 C 1493.35 1524.97 1523.95 1508.85 1534.2 1503.77 z" fill="rgb(255,255,255)" transform="translate(0,0)"></path>
<path d="M 1532.61 1509.86 L 1533.4 1510.83 C 1532.46 1519.89 1521.54 1530.49 1514.46 1535.75 C 1510.69 1538.55 1508.93 1538.24 1504.54 1537.4 C 1505.15 1535.91 1505.88 1534.37 1506.54 1532.9 C 1508.59 1532.13 1508.74 1531.82 1510.93 1531.72 C 1519.87 1525.66 1527.8 1519.62 1532.61 1509.86 z" fill="rgb(100,105,160)" transform="translate(0,0)"></path>
<path d="M 1654.36 1343.88 C 1650.18 1342.87 1648.72 1342.11 1646.43 1338.95 C 1645.49 1332.15 1647.2 1296.27 1650.61 1290.67 L 1653.26 1291.16 L 1655.69 1290.58 C 1659.67 1289.89 1658.06 1289.42 1660.91 1291.06 C 1665.47 1300.31 1662.95 1328.49 1659.51 1338.52 C 1659.24 1339.3 1658.96 1340.08 1658.65 1340.85 L 1657.9 1340.81 L 1657.47 1340.3 L 1656.18 1343.41 L 1654.36 1343.88 z" fill="rgb(255,255,255)" transform="translate(0,0)"></path>
<path d="M 1655.69 1290.58 C 1659.67 1289.89 1658.06 1289.42 1660.91 1291.06 C 1665.47 1300.31 1662.95 1328.49 1659.51 1338.52 C 1659.24 1339.3 1658.96 1340.08 1658.65 1340.85 L 1657.9 1340.81 L 1657.47 1340.3 C 1654.21 1321.86 1657.09 1308.5 1655.69 1290.58 z" fill="rgb(255,255,255)" transform="translate(0,0)"></path>
<path d="M 1655.69 1290.58 C 1657.09 1308.5 1654.21 1321.86 1657.47 1340.3 L 1656.18 1343.41 L 1654.36 1343.88 C 1648.62 1329.26 1652.05 1307.13 1653.26 1291.16 L 1655.69 1290.58 z" fill="rgb(247,139,151)" transform="translate(0,0)"></path>
<path d="M 1663.72 1137.33 L 1663.39 1139.55 C 1661.99 1148.84 1658.19 1173.17 1642.39 1153.5 C 1634.72 1143.94 1656.82 1113.73 1671.17 1120.65 C 1669.78 1126.59 1666.58 1131.9 1663.72 1137.33 z" fill="rgb(249,247,247)" transform="translate(0,0)"></path>
<path d="M 1663.72 1137.33 C 1659.91 1131.05 1665.12 1122.47 1671.17 1120.65 C 1669.78 1126.59 1666.58 1131.9 1663.72 1137.33 z" fill="rgb(232,232,234)" transform="translate(0,0)"></path>
<path d="M 1651.63 1131.03 C 1651.15 1137.58 1644.04 1144.47 1652.64 1152.7 C 1655.24 1149.12 1653.42 1141.47 1654.57 1136.82 C 1656.51 1137.5 1656.52 1137.65 1658.04 1139 C 1659.77 1137.76 1658.9 1137.91 1660.51 1138.04 C 1659.72 1143.74 1658.91 1152.28 1653.44 1155.22 L 1651.13 1154.44 C 1644.73 1145.84 1645.94 1139.52 1651.63 1131.03 z" fill="rgb(46,48,50)" transform="translate(0,0)"></path>
<path d="M 917.518 1688.62 C 921.522 1688.84 923.901 1688.48 926.946 1690.98 C 928.867 1694.22 929.089 1694.71 930.393 1698.25 C 931.387 1704.14 930.981 1708.26 930.707 1714.16 C 929.127 1718.77 928.291 1723.66 927.306 1728.45 C 924.5 1728.2 918.326 1727.81 916.044 1726.29 C 904.411 1718.54 909.253 1699.9 915.558 1690.94 L 917.518 1688.62 z" fill="rgb(255,255,255)" transform="translate(0,0)"></path>
<path d="M 917.518 1688.62 C 921.522 1688.84 923.901 1688.48 926.946 1690.98 C 928.867 1694.22 929.089 1694.71 930.393 1698.25 C 931.387 1704.14 930.981 1708.26 930.707 1714.16 L 929.404 1708.71 L 926.114 1705.59 C 925.413 1702.69 925.349 1704.11 926.485 1701.21 L 925.504 1699.37 L 922.791 1691.8 C 921.539 1690.11 919.644 1689.62 917.518 1688.62 z" fill="rgb(25,26,32)" transform="translate(0,0)"></path>
<path d="M 917.518 1688.62 C 921.522 1688.84 923.901 1688.48 926.946 1690.98 C 928.867 1694.22 929.089 1694.71 930.393 1698.25 L 928.563 1698.77 C 926.222 1694.71 926.345 1694.85 922.791 1691.8 C 921.539 1690.11 919.644 1689.62 917.518 1688.62 z" fill="rgb(249,247,247)" transform="translate(0,0)"></path>
<path d="M 928.563 1698.77 L 930.393 1698.25 C 931.387 1704.14 930.981 1708.26 930.707 1714.16 L 929.404 1708.71 L 928.563 1698.77 z" fill="rgb(172,173,181)" transform="translate(0,0)"></path>
<path d="M 915.558 1690.94 L 917.518 1688.62 C 919.644 1689.62 921.539 1690.11 922.791 1691.8 L 925.504 1699.37 L 923.031 1700.28 C 919.256 1698.91 919.429 1699.05 917.152 1695.74 C 917.098 1693.32 916.913 1692.94 915.558 1690.94 z" fill="rgb(249,247,247)" transform="translate(0,0)"></path>
<path d="M 912.644 1708.14 C 920.413 1709.24 927.802 1708.97 927.519 1718.91 C 924.124 1725.39 920.143 1724.18 914.805 1721.7 L 914.52 1719.55 L 915.535 1719.19 C 919.197 1720.28 923.502 1720.57 926.802 1718.54 C 924.98 1711.63 919.053 1711.72 913.454 1708.6 L 912.644 1708.14 z" fill="rgb(46,48,50)" transform="translate(0,0)"></path>
<path d="M 1916.1 1221.21 C 1912.52 1225.23 1907.43 1227.95 1902.09 1226.04 C 1891.7 1217.34 1896.94 1192.61 1912.67 1192.72 C 1928.49 1198.05 1923.63 1210.7 1916.1 1221.21 z" fill="rgb(232,232,234)" transform="translate(0,0)"></path>
<path d="M 1916.1 1221.21 C 1912.52 1225.23 1907.43 1227.95 1902.09 1226.04 C 1891.7 1217.34 1896.94 1192.61 1912.67 1192.72 L 1913.16 1194.11 L 1911.65 1194.71 L 1910.96 1195.47 C 1905.05 1201.13 1898.93 1207.37 1904 1215.42 C 1904.82 1218.43 1904.83 1218.47 1904.9 1221.58 C 1909.86 1222.38 1910.54 1222 1915.34 1220.4 L 1916.1 1221.21 z" fill="rgb(255,255,255)" transform="translate(0,0)"></path>
<path d="M 1912.67 1192.72 C 1928.49 1198.05 1923.63 1210.7 1916.1 1221.21 L 1915.34 1220.4 C 1919.38 1212.83 1919.19 1200.45 1913.16 1194.11 L 1912.67 1192.72 z" fill="rgb(232,232,234)" transform="translate(0,0)"></path>
<path d="M 1913.16 1194.11 C 1919.19 1200.45 1919.38 1212.83 1915.34 1220.4 C 1910.54 1222 1909.86 1222.38 1904.9 1221.58 C 1906.4 1221.12 1910.9 1219.82 1911.82 1218.88 C 1917.97 1212.56 1916.61 1200.49 1911.65 1194.71 L 1913.16 1194.11 z" fill="rgb(46,48,50)" transform="translate(0,0)"></path>
<path d="M 1910.96 1195.47 C 1907.83 1201.65 1910.17 1202.1 1909.57 1208.66 L 1908.3 1208.37 L 1906.92 1202.97 L 1906.04 1203.12 C 1904.49 1208.51 1904.32 1209.8 1904 1215.42 C 1898.93 1207.37 1905.05 1201.13 1910.96 1195.47 z" fill="rgb(46,48,50)" transform="translate(0,0)"></path>
<path d="M 1778.83 727.06 C 1777.97 718.023 1769.07 682.356 1784.25 680.613 C 1794.66 685.322 1791.29 709.232 1789.42 718.573 L 1789.32 719.682 C 1788.97 724.463 1790.23 729.556 1788.77 732.183 C 1786.46 732.244 1786.58 732.202 1784.38 731.421 L 1783.64 733.696 C 1783.17 734.118 1782.48 734.191 1781.88 734.399 C 1779.5 732.352 1779.49 730.221 1778.83 727.06 z" fill="rgb(255,255,255)" transform="translate(0,0)"></path>
<path d="M 1780.97 727.785 C 1783.74 718.923 1777.06 687.812 1786.46 686.646 L 1787.74 688.28 C 1783.64 693.311 1785.49 711.918 1786 718.447 L 1789.42 718.573 L 1789.32 719.682 C 1788.97 724.463 1790.23 729.556 1788.77 732.183 C 1786.46 732.244 1786.58 732.202 1784.38 731.421 L 1783.64 733.696 C 1783.17 734.118 1782.48 734.191 1781.88 734.399 C 1779.5 732.352 1779.49 730.221 1778.83 727.06 L 1780.97 727.785 z" fill="rgb(25,26,32)" transform="translate(0,0)"></path>
<path d="M 1786 718.447 L 1789.42 718.573 L 1789.32 719.682 C 1788.97 724.463 1790.23 729.556 1788.77 732.183 C 1786.46 732.244 1786.58 732.202 1784.38 731.421 C 1782.75 726.061 1784.35 724.652 1786 718.447 z" fill="rgb(232,232,234)" transform="translate(0,0)"></path>
<path d="M 1778.83 727.06 L 1780.97 727.785 C 1781.67 731.182 1781.48 731.03 1783.64 733.696 C 1783.17 734.118 1782.48 734.191 1781.88 734.399 C 1779.5 732.352 1779.49 730.221 1778.83 727.06 z" fill="rgb(172,173,181)" transform="translate(0,0)"></path>
<path d="M 1691.22 1122.96 C 1699.07 1127.25 1691.56 1146.05 1688.35 1152.59 C 1684.78 1159.83 1682.25 1163.77 1674.48 1166.37 C 1663.66 1154.94 1677.67 1137.2 1684.38 1126.11 L 1691.22 1122.96 z" fill="rgb(255,255,255)" transform="translate(0,0)"></path>
<path d="M 1678.58 1149.72 C 1681.06 1142.6 1683.34 1134.82 1688.09 1128.99 L 1690.07 1128.11 C 1694.79 1135.04 1683.45 1156.91 1677.93 1162.11 L 1676.31 1161.97 C 1674.17 1157.39 1675.47 1155.19 1677.63 1151.05 L 1678.58 1149.72 z" fill="rgb(25,26,32)" transform="translate(0,0)"></path>
<path d="M 1678.58 1149.72 C 1684.47 1141.65 1684.39 1135.14 1692.21 1127.68 C 1690.61 1131.93 1678.81 1158.2 1676.59 1159.54 C 1675.84 1155.85 1677.38 1154.44 1677.63 1151.05 L 1678.58 1149.72 z" fill="rgb(232,232,234)" transform="translate(0,0)"></path>
<path d="M 1260.1 282.023 C 1274.12 282.014 1298 294.787 1285.76 309.84 C 1275.07 308.422 1244.56 293.972 1260.1 282.023 z" fill="rgb(255,255,255)" transform="translate(0,0)"></path>
<path d="M 655.309 1326.79 C 659.293 1327.36 674.429 1334.17 678.882 1336.08 C 673.843 1338.29 654.105 1347.68 650.769 1347.56 C 637.933 1343.47 632.67 1343.23 618.9 1342.19 C 630.702 1337.16 644.041 1332.53 655.309 1326.79 z" fill="rgb(255,255,255)" transform="translate(0,0)"></path>
<path d="M 687.516 1339.91 C 693.603 1339.61 705.625 1344.92 711.457 1347.27 C 702.165 1352.79 694.248 1355.72 684.295 1359.81 C 679.214 1360.61 665.374 1353.57 660.773 1350.82 C 669.289 1346.7 678.65 1343.32 687.516 1339.91 z" fill="rgb(255,255,255)" transform="translate(0,0)"></path>
<path d="M 1640.35 1396.4 C 1656.79 1398.21 1629.5 1441.17 1624.58 1447.53 C 1623.04 1447.86 1623.94 1447.84 1621.91 1447.04 C 1616.23 1438.73 1633.26 1403.47 1640.35 1396.4 z" fill="rgb(255,255,255)" transform="translate(0,0)"></path>
<path d="M 1639.59 1401.57 L 1640.75 1402.82 C 1640.41 1406.33 1628.73 1429.33 1626.22 1434.54 L 1625.38 1433.88 C 1626.45 1426.64 1635.85 1408.93 1639.59 1401.57 z" fill="rgb(25,26,32)" transform="translate(0,0)"></path>
<path d="M 1657.39 538.255 C 1663.29 541.308 1668.34 543.476 1666.13 551.287 C 1655.42 564.572 1629.87 537.054 1637.04 525.823 C 1645.45 521.572 1651.64 530.13 1655.27 536.585 L 1656.21 538.27 L 1657.39 538.255 z" fill="rgb(249,247,247)" transform="translate(0,0)"></path>
<path d="M 1657.39 538.255 C 1659.78 543.004 1664.54 544.657 1664.09 549.897 C 1655.25 554.073 1634.72 539.403 1638.16 528.572 C 1643.17 527.828 1647.55 543.151 1655.14 548.354 C 1654.47 545.618 1648.41 535.749 1646.45 530.617 C 1649.73 532.346 1651.78 537.444 1654.12 541.154 L 1655.49 541.44 L 1656.21 538.27 L 1657.39 538.255 z" fill="rgb(25,26,32)" transform="translate(0,0)"></path>
<path d="M 684.947 1396.13 C 693.502 1397.95 703.241 1401.13 711.487 1403.97 C 703.279 1408.58 695.813 1411.67 687.205 1415.36 L 685.046 1416.06 C 676.245 1414.2 670.341 1412.25 662.484 1407.9 C 670.21 1402.95 676.633 1399.96 684.947 1396.13 z" fill="rgb(255,255,255)" transform="translate(0,0)"></path>
<path d="M 725.959 1407.27 C 735.184 1410.8 742.383 1412.24 751.737 1416.76 C 745.234 1420.37 734.599 1424.25 727.621 1426.94 C 721.692 1427.86 709.093 1420.27 703.011 1417.13 C 710.714 1414.52 719.191 1411.73 725.959 1407.27 z" fill="rgb(255,255,255)" transform="translate(0,0)"></path>
<path d="M 719.189 1378.78 C 728.573 1381.05 734.38 1383.43 742.923 1387.62 C 735.118 1391.87 728.75 1395.02 720.659 1398.69 C 711.424 1395.61 704.4 1393.3 694.874 1391.02 C 703.007 1387 711.113 1382.92 719.189 1378.78 z" fill="rgb(255,255,255)" transform="translate(0,0)"></path>
<path d="M 650.627 1356.87 C 658.456 1359.21 667.255 1362.97 674.945 1366.03 C 667.577 1370.01 661.058 1372.33 653.207 1375.16 C 651.784 1375.67 650.496 1375.93 649.024 1376.29 C 644.195 1375.03 631.741 1373.18 632.506 1366.99 C 634.928 1364.27 646.456 1359.02 650.627 1356.87 z" fill="rgb(255,255,255)" transform="translate(0,0)"></path>
<path d="M 691.824 1421.84 C 697.193 1421.68 709.185 1428.89 713.984 1431.92 C 705.23 1434.93 698.555 1438.04 690.195 1441.88 C 683.418 1439.21 674.627 1436.62 667.57 1434.33 C 675.616 1430.09 683.701 1425.93 691.824 1421.84 z" fill="rgb(255,255,255)" transform="translate(0,0)"></path>
<path d="M 1663.62 1239.89 C 1662.47 1246.22 1658.67 1247.9 1652.19 1248.62 C 1662.19 1238.84 1651.56 1221.53 1659.41 1207.68 C 1662.68 1205.49 1660.9 1206.03 1665.03 1206.23 C 1672.29 1212.04 1668.66 1231.53 1665.05 1238.8 L 1663.62 1239.89 z" fill="rgb(255,255,255)" transform="translate(0,0)"></path>
<path d="M 1663.62 1239.89 C 1662.91 1236.23 1661.42 1210.89 1663.37 1208.81 C 1666.78 1214.7 1665.39 1231.69 1665.05 1238.8 L 1663.62 1239.89 z" fill="rgb(46,48,50)" transform="translate(0,0)"></path>
<path d="M 682.802 1369.88 C 685.926 1369.75 701.396 1375.54 705.373 1376.91 C 700.05 1380.56 690.798 1384.96 684.767 1388.04 C 680.049 1386.81 668.648 1384.71 666.132 1381.21 L 666.575 1379.31 C 670.646 1375.31 677.496 1372.5 682.802 1369.88 z" fill="rgb(255,255,255)" transform="translate(0,0)"></path>
<path d="M 637.464 1385.56 C 643.945 1385 669.921 1386.25 670.223 1394.59 L 665.824 1397.07 C 662.032 1399.03 657.04 1400.75 652.969 1402.28 C 639.538 1398.89 640.331 1398.78 637.464 1385.56 z" fill="rgb(255,255,255)" transform="translate(0,0)"></path>
<path d="M 1768.25 815.727 C 1770.86 809.45 1774.13 801.39 1779.97 797.815 L 1781.26 798.797 C 1781.43 803.531 1778.96 808.133 1777.09 812.678 L 1777.71 814.268 C 1781.38 821.186 1770.78 840.337 1765.04 845.714 C 1764.15 835.254 1764.36 825.707 1768.25 815.727 z" fill="rgb(249,247,247)" transform="translate(0,0)"></path>
<path d="M 1768.25 815.727 C 1770.86 809.45 1774.13 801.39 1779.97 797.815 L 1781.26 798.797 C 1781.43 803.531 1778.96 808.133 1777.09 812.678 L 1773.58 818.322 C 1772.62 817.622 1771.86 817.925 1770.19 817.877 L 1768.25 815.727 z" fill="rgb(232,232,234)" transform="translate(0,0)"></path>
<path d="M 1777.09 812.678 L 1777.71 814.268 L 1777.16 815.217 C 1770.57 826.72 1771.41 834.099 1768.38 840.166 C 1766.51 834.88 1771.35 823.204 1773.58 818.322 L 1777.09 812.678 z" fill="rgb(99,99,109)" transform="translate(0,0)"></path>
<path d="M 1760.41 616.718 L 1762.64 618.784 L 1762.49 620.225 C 1749.5 618.932 1733.39 593.418 1737.57 585.133 C 1746.72 583.381 1758.41 607.329 1761.57 614.653 L 1760.41 616.718 z" fill="rgb(249,247,247)" transform="translate(0,0)"></path>
<path d="M 1760.41 616.718 C 1753.8 614.028 1739.95 601.184 1743.63 593.451 C 1748.66 593.17 1747.52 600.706 1751.02 605.039 C 1754.5 609.338 1756.09 610.675 1760.58 613.946 L 1761.57 614.653 L 1760.41 616.718 z" fill="rgb(25,26,32)" transform="translate(0,0)"></path>
<path d="M 814.395 1380.06 C 821.923 1382.19 829.493 1384.16 837.1 1385.99 C 829.499 1389.97 825.398 1391.52 817.241 1394.42 C 811.369 1396.71 803.363 1394.61 798.951 1390.33 C 797.408 1383.3 809.075 1381.59 814.395 1380.06 z" fill="rgb(255,255,255)" transform="translate(0,0)"></path>
<path d="M 915.46 1683.24 L 915.545 1684.01 C 902.649 1699.99 900.083 1711.97 910.36 1730.68 C 915.193 1732.04 917.929 1731.76 923.156 1733.6 L 923.179 1734.96 L 919.742 1736.94 C 908.376 1736.65 902.677 1732.25 899.967 1720.83 C 896.313 1705.41 898.876 1688.05 915.46 1683.24 z" fill="rgb(255,255,255)" transform="translate(0,0)"></path>
<path d="M 650.489 1411.66 C 655.619 1412.34 669.021 1419.19 677.598 1421.35 L 665.477 1426.99 C 653.765 1432.5 645.01 1430.21 646.233 1414.62 C 646.344 1413.21 649.055 1412.38 650.489 1411.66 z" fill="rgb(255,255,255)" transform="translate(0,0)"></path>
<path d="M 623.359 1316.89 C 630.708 1316.52 641.905 1320.39 649.343 1322.6 L 636.757 1327.58 C 631.737 1329.53 627.205 1331.86 622.383 1334.23 C 620.557 1330.18 618.066 1325.79 617.948 1321.52 C 619.419 1318.12 619.191 1319.11 623.359 1316.89 z" fill="rgb(255,255,255)" transform="translate(0,0)"></path>
<path d="M 1657.49 1198.12 C 1657.52 1200.56 1647.27 1226.74 1649.99 1233.94 C 1650.46 1235.18 1649.76 1247.85 1648.95 1249 L 1646.5 1248.67 C 1645.17 1245.62 1643.97 1241.86 1642.85 1238.66 C 1645.74 1225.46 1643.76 1204.58 1657.49 1198.12 z" fill="rgb(255,255,255)" transform="translate(0,0)"></path>
<path d="M 1235.67 294.559 C 1245.2 295.605 1256.87 303.095 1255.49 313.868 C 1244.8 312.142 1230.53 307.947 1235.67 294.559 z" fill="rgb(255,255,255)" transform="translate(0,0)"></path>
<path d="M 651.013 1433.6 C 658.464 1439.32 673.171 1442.82 675.308 1446.99 L 673.456 1449.1 C 668.313 1451.42 662.311 1453.15 656.894 1454.9 C 654.75 1447.91 652.902 1440.67 651.013 1433.6 z" fill="rgb(255,255,255)" transform="translate(0,0)"></path>
<path d="M 803.089 461.921 C 815.649 461.564 834.31 470.474 838.431 482.534 L 837.679 483.979 C 821.399 472.091 821.253 470.988 801.967 466.832 L 801.202 465.549 L 803.089 461.921 z" fill="rgb(255,255,255)" transform="translate(0,0)"></path>
<path d="M 624.74 1347.34 C 629.164 1348.46 639.012 1350.46 640.629 1354.75 L 638.775 1356.61 C 635.626 1358.02 632.48 1359.66 629.385 1361.21 C 627.019 1355.81 626.25 1352.9 624.74 1347.34 z" fill="rgb(255,255,255)" transform="translate(0,0)"></path>
<path d="M 1667.22 1167.53 L 1668.41 1168.59 C 1670.35 1175.55 1665.69 1186.98 1662.57 1193.36 C 1659.3 1190.41 1665.78 1172.4 1667.22 1167.53 z" fill="rgb(255,255,255)" transform="translate(0,0)"></path>
<path d="M 1781.66 642.685 C 1787.4 646.378 1789.66 659.765 1790.68 666.361 L 1788.86 664.89 C 1787.04 656.218 1784.86 650.903 1781.66 642.685 z" fill="rgb(100,105,160)" transform="translate(0,0)"></path>
<path d="M 1637.39 1305.33 L 1639.65 1305.84 C 1639.43 1309.29 1639.51 1315.58 1637.82 1318.21 C 1636.48 1314.39 1637.07 1309.47 1637.39 1305.33 z" fill="rgb(232,232,234)" transform="translate(0,0)"></path>
<path d="M 1654.07 1264.5 L 1655.78 1266.15 C 1656.3 1270.73 1656.39 1274.01 1656.46 1278.63 C 1653.1 1275.28 1654.01 1269.02 1654.07 1264.5 z" fill="rgb(172,173,181)" transform="translate(0,0)"></path>
<path d="M 1156.58 544.426 C 1162.83 543.751 1178.98 543.456 1181.95 547.463 C 1214.85 591.729 1171.28 581.581 1153.86 595.121 C 1150.5 597.74 1161.16 636.044 1162.75 644.465 C 1175.41 711.41 1124.69 750.883 1063.99 760.914 C 1007.06 770.364 965.453 744.985 937.438 695.829 C 932.306 689.015 922.261 666.315 914.498 662.961 C 884.396 649.958 888.381 688.293 889.182 699.667 C 893.76 764.713 873.332 804.112 807.81 818.698 C 735.26 832.938 705.123 771.241 685.551 712.662 C 680.788 710.3 676.791 708.084 672.209 705.468 C 668.233 696.172 660.652 678.005 669.927 670.485 C 719.357 630.407 782.632 603.249 846.598 622.671 C 861.067 627.065 878.127 629.703 892.689 626.119 C 904.116 623.306 911.325 616.132 920.163 609.058 C 983.898 560.094 1079.56 548.773 1156.58 544.426 z" fill="rgb(247,139,151)" transform="translate(0,0)"></path>
<path d="M 1081.4 575.417 C 1100.14 574.869 1111.7 583.618 1119.51 600.356 C 1131.01 625.016 1145.01 655.556 1136.01 683.035 C 1121.18 728.319 1051.84 746.258 1010.95 732.358 C 981.265 718.638 950.579 679.315 947.957 646.638 C 946.919 634.908 950.687 623.259 958.399 614.359 C 979.802 589.871 1050.16 577.361 1081.4 575.417 z" fill="rgb(255,255,255)" transform="translate(0,0)"></path>
<path d="M 1030.66 724.528 C 1025.34 727.998 1020.09 728.058 1013.7 725.231 C 984.043 712.116 953.481 662.121 961.676 630.039 C 963.741 621.955 982.192 611.937 991.439 609.249 C 1024.55 599.628 1065.26 581.812 1099.66 591.695 C 1113.22 599.355 1121.72 623.486 1125.43 636.066 C 1139.39 683.365 1117.54 710.782 1072.29 723.05 C 1082.61 700.272 1082.58 692.969 1078.25 667.252 C 1076.99 659.738 1072.41 636.679 1067 633.016 L 1065.52 633.72 C 1064.26 637.309 1064.44 637.624 1064.85 641.569 L 1064.96 642.625 C 1069.32 665.698 1077.74 696.016 1064.64 717.452 C 1056.77 730.319 1042.87 733.802 1030.66 724.528 z" fill="rgb(59,62,115)" transform="translate(0,0)"></path>
<path d="M 1030.66 724.528 C 1013.62 698.608 1042.9 696.966 1052.46 679.047 C 1058.98 666.823 1059.86 654.836 1064.96 642.625 C 1069.32 665.698 1077.74 696.016 1064.64 717.452 C 1056.77 730.319 1042.87 733.802 1030.66 724.528 z" fill="rgb(247,139,151)" transform="translate(0,0)"></path>
<path d="M 802.612 642.398 C 807.589 641.829 812.614 641.821 817.593 642.374 C 837.59 644.607 846.892 651.074 853.296 670.471 C 873.525 731.742 857.732 806.751 777.338 794.66 C 740.915 784.266 722.348 736.493 715.865 702.853 C 711.529 680.349 724.435 668.012 743.203 659.267 C 762.27 650.382 781.626 644.535 802.612 642.398 z" fill="rgb(255,255,255)" transform="translate(0,0)"></path>
<path d="M 794.731 785.336 C 778.456 784.169 767.034 776.704 756.732 764.565 C 742.287 747.544 712.384 694.967 738.537 677.641 C 755.719 664.432 801.997 653.447 822.149 655.326 C 860.84 658.934 861.439 757.872 832.018 776.012 C 829.313 777.679 828.969 778.374 825.979 777.735 L 824.906 774.903 C 816.653 784.406 807.193 789.248 794.731 785.336 z" fill="rgb(59,62,115)" transform="translate(0,0)"></path>
<path d="M 824.104 709.182 C 832.286 734.365 839.939 747.907 826.952 772.957 L 824.906 774.903 C 816.653 784.406 807.193 789.248 794.731 785.336 C 782.602 763.139 805.263 757.705 814.686 742.399 C 819.814 734.069 822.24 718.837 824.104 709.182 z" fill="rgb(247,139,151)" transform="translate(0,0)"></path>
<path d="M 824.43 690.617 C 831.987 709.285 846.47 741.182 840.084 761.392 C 837.974 768.067 832.073 770.095 827.582 773.872 L 826.952 772.957 C 839.939 747.907 832.286 734.365 824.104 709.182 L 822.573 708.394 C 822.716 702.084 823.551 696.852 824.43 690.617 z" fill="rgb(255,255,255)" transform="translate(0,0)"></path>
<path d="M 428.859 413.698 C 435.638 418.347 440.213 434.116 439.295 442.481 C 436.236 470.355 357.25 486.394 406.686 515.527 C 412.435 518.915 418.874 524.503 422.883 529.55 C 433.809 540.702 430.757 572.7 421.534 582.619 C 390.027 616.505 373.003 629.232 422.263 657.191 C 423.753 658.037 432.986 670.194 435.548 673.412 C 461.279 667.537 499.792 664.315 523.371 679.322 C 525.87 681.033 532.22 685.575 533.234 688.428 C 544.087 718.993 548.7 752.23 557.489 783.526 C 564.331 807.892 569.659 832.463 574.711 857.194 C 556.31 906.441 488.812 923.01 441.567 918.716 C 436.335 917.824 431.165 916.597 426.089 915.042 C 409.135 909.956 399.633 904.472 391.224 888.985 C 389.489 889.247 387.744 889.438 385.993 889.559 C 359.091 891.345 340.411 881.198 320.183 864.406 C 275.257 827.113 283.837 742.162 350.573 738.912 C 351.728 695.215 394.77 683.416 429.954 674.252 C 414.609 655.147 390.059 653.812 383.119 631.482 C 376.688 605.598 407.634 590.929 417.762 572.048 C 424.625 559.255 420.365 542.994 410.623 533.522 C 402.453 525.577 382.845 517.227 380.24 505.834 C 372.393 471.514 419.96 470.247 431.403 446.391 C 436.824 435.071 432.934 424.571 428.859 413.698 z" fill="rgb(247,139,151)" transform="translate(0,0)"></path>
<path d="M 523.715 710.705 C 525.714 712.631 556.46 847.433 558.755 859.402 C 528.758 895.736 477.806 911.552 432.194 901.009 C 419.026 897.965 412.577 891.529 406.179 880.471 C 411.842 875.005 416.05 868.57 415.679 860.595 C 414.522 835.768 388.747 776.861 373.705 760.176 L 373.277 760.546 C 387.201 787.292 399.213 813.126 408.16 842.042 C 413.811 860.309 413.774 867.852 393.588 873.256 C 373.194 878.716 360.76 872.465 343.702 862.629 C 312.768 844.362 290.093 794.215 320.825 764.813 C 327.321 758.598 343.655 751.436 353.087 751.971 C 357.155 754.232 359.252 764.526 360.648 769.283 C 331.406 761.965 313.668 777.398 316.904 808.212 C 318.661 824.948 328.741 840.7 341.706 851.131 C 353.92 860.958 378.319 866.928 390.46 853.675 C 395.263 846.546 389.022 832.462 386.912 825.344 C 377.876 794.877 364.622 768.463 359.081 736.967 C 364.719 742.807 369.341 746.597 377.256 748.917 C 418.817 761.098 496.95 744.795 523.715 710.705 z" fill="rgb(255,255,255)" transform="translate(0,0)"></path>
<path d="M 463.772 680.416 C 476.8 678.762 501.932 679.996 513.489 687.396 C 523.603 693.872 518.371 701.03 512.552 707.585 C 487.539 684.753 434.414 700.529 407.457 711.973 C 389.086 719.77 383.907 731.97 375.491 736.062 C 364.333 736.403 365.971 719.464 370.187 715.229 C 393.321 691.991 432.22 683.214 463.772 680.416 z" fill="rgb(255,255,255)" transform="translate(0,0)"></path>
<path d="M 340.009 782.14 C 344.626 781.716 351.192 781.977 355.974 782.023 C 359.566 792.595 374.751 834.936 374.576 843.487 C 371.322 846.194 371.109 845.442 366.235 846.298 C 340.302 840.146 316.611 800.941 340.009 782.14 z" fill="rgb(255,255,255)" transform="translate(0,0)"></path>
<path d="M 1220.99 1091.79 C 1221.38 1092.01 1221.77 1092.23 1222.16 1092.46 C 1250.72 1114.83 1272.51 1139.87 1277.57 1176.2 C 1323.77 1225.14 1353.55 1299.23 1337.23 1366.51 C 1332.46 1309.77 1319.22 1273.45 1289.89 1224.81 L 1284.78 1216.31 C 1295.32 1283.02 1282.78 1323.96 1259.76 1384.02 C 1253.3 1378.52 1249.04 1374.55 1243.14 1368.47 C 1249.98 1352.78 1255.53 1336.57 1259.73 1319.98 C 1275.11 1258.74 1266.55 1196.27 1242.9 1138.62 C 1235.95 1121.68 1230.56 1107.84 1220.99 1091.79 z" fill="rgb(247,139,151)" transform="translate(0,0)"></path>
<path d="M 1732 684.053 C 1763.94 682.596 1772.34 736.309 1745.17 753.501 C 1713.7 753.275 1705.13 697.537 1732 684.053 z" fill="rgb(247,139,151)" transform="translate(0,0)"></path>
<path d="M 1731.71 693.7 C 1755.59 694.122 1757.94 726.102 1744.8 742.286 C 1724.73 748.326 1719 707.713 1731.71 693.7 z" fill="rgb(255,255,255)" transform="translate(0,0)"></path>
<path d="M 1744.46 714.149 L 1746.17 714.855 C 1746.78 719.846 1745.76 730.746 1739.11 730.761 C 1736.07 728.034 1735.09 722.273 1734.69 718.304 C 1737.32 717.104 1737.89 716.54 1740.77 716.669 C 1738.72 720.288 1738.58 720.164 1738.11 724.183 C 1739.63 727.256 1738.51 726.06 1741.79 727.679 L 1742.64 727.181 C 1742 721.796 1742.5 720.602 1744.01 715.584 L 1744.46 714.149 z" fill="rgb(25,26,32)" transform="translate(0,0)"></path>
<path d="M 1743.07 702.241 C 1745.25 703.47 1745.43 704.558 1745.77 706.592 C 1744.25 709.802 1742.71 710.344 1739.69 712.244 C 1737.89 711.337 1737.78 711.122 1736.16 709.874 L 1735.86 707.497 C 1737.72 704.542 1739.93 703.856 1743.07 702.241 z" fill="rgb(25,26,32)" transform="translate(0,0)"></path>
<path d="M 1729.39 722.026 L 1730.61 718.01 C 1733.05 724.925 1734.41 731.637 1740.44 735.571 C 1744.52 736.113 1742.57 736.375 1746.46 734.481 L 1747.37 735.265 C 1738.65 745.448 1731.76 728.57 1729.39 722.026 z" fill="rgb(46,48,50)" transform="translate(0,0)"></path>
<path d="M 1729.39 722.026 C 1729.27 721.35 1729.16 720.672 1729.06 719.992 C 1728.19 713.619 1728.22 706.721 1732.19 701.492 C 1735.22 700.091 1735.14 699.795 1738.36 700.228 C 1736.23 706.738 1728.84 701.15 1730.47 716.789 L 1730.61 718.01 L 1729.39 722.026 z" fill="rgb(172,173,181)" transform="translate(0,0)"></path>
<path d="M 1746.46 734.481 C 1749.39 728.139 1746.5 720.421 1748.81 716.777 C 1751.44 720.634 1749.57 731.436 1747.37 735.265 L 1746.46 734.481 z" fill="rgb(172,173,181)" transform="translate(0,0)"></path>
<path d="M 1697.92 586.131 C 1714.38 585.15 1723 595.301 1730.14 608.995 C 1737.54 623.188 1742.96 642.197 1725.02 650.483 C 1691.56 648.948 1668.43 599.081 1697.92 586.131 z" fill="rgb(247,139,151)" transform="translate(0,0)"></path>
<path d="M 1725.95 623.061 C 1727.68 627.78 1728.67 633.701 1725.33 637.841 C 1710.6 646.022 1689.89 617.081 1694.18 603.438 C 1697.72 592.192 1720.3 597.388 1713.02 611.318 L 1712.92 611.791 C 1719.5 610.57 1713.47 608.822 1719.45 609.997 C 1721.57 613.818 1722.32 618.615 1723.3 622.963 L 1725.95 623.061 z" fill="rgb(255,255,255)" transform="translate(0,0)"></path>
<path d="M 1723.3 622.963 L 1725.95 623.061 C 1723.61 635.874 1715.35 643.398 1709.59 627.931 C 1713.65 630.992 1715.89 633.954 1720.8 632.059 C 1722.98 629.02 1722.77 628.143 1723.19 624.197 L 1723.3 622.963 z" fill="rgb(46,48,50)" transform="translate(0,0)"></path>
<path d="M 1712.92 611.791 L 1710.66 613.52 C 1705.01 614.526 1700.27 613.676 1698.33 607.527 C 1699.12 604.118 1698.28 605.46 1700.67 603.216 C 1702.68 605.224 1701.55 607.616 1703.65 611.832 C 1706.58 612.91 1708.46 612.164 1711.62 611.583 L 1713.02 611.318 L 1712.92 611.791 z" fill="rgb(25,26,32)" transform="translate(0,0)"></path>
<path d="M 1737.56 798.935 C 1770.06 800.929 1748.42 856.226 1724.69 867.121 C 1694.49 864.928 1708.86 810.344 1737.56 798.935 z" fill="rgb(247,139,151)" transform="translate(0,0)"></path>
<path d="M 1730 853.108 C 1727.37 855.422 1725.99 857.176 1722.57 857.72 C 1704.95 849.407 1728.02 800.614 1742.42 810.847 C 1743.61 813.651 1743.86 813.581 1743.48 816.524 C 1741.67 816.497 1740.19 816.496 1738.38 816.58 L 1738.56 817.993 C 1740.11 819.213 1743.35 820.65 1743.68 821.94 C 1745.02 827.123 1740.5 836.882 1738.69 841.872 L 1731.92 850.412 L 1730 853.108 z" fill="rgb(255,255,255)" transform="translate(0,0)"></path>
<path d="M 1723.1 839.023 C 1723.27 835.759 1723.04 835.718 1724.57 832.921 C 1729.19 831.265 1736.32 838.256 1738.69 841.872 L 1731.92 850.412 C 1726.18 848.742 1726.52 851.348 1723.1 848.549 C 1722.84 844.863 1722.93 842.736 1723.1 839.023 z" fill="rgb(249,247,247)" transform="translate(0,0)"></path>
<path d="M 1723.1 839.023 C 1722.93 842.736 1722.84 844.863 1723.1 848.549 C 1726.52 851.348 1726.18 848.742 1731.92 850.412 L 1730 853.108 C 1726.64 853.435 1726.41 853.57 1722.96 853.014 C 1717.35 848.607 1720.05 844.394 1723.1 839.023 z" fill="rgb(25,26,32)" transform="translate(0,0)"></path>
<path d="M 452.157 513.728 C 459.107 515.932 479.746 536.131 485.177 542.305 C 502.182 562.009 499.777 581.039 478.789 596.493 C 469.264 603.508 448.299 612.148 448.262 625.772 C 448.211 644.936 472.149 650.124 484.154 663.938 L 483.055 664.082 C 469.381 651.359 441.49 646.056 442.509 625.772 C 443.863 598.827 488.237 593.627 488.683 567.478 C 489.04 546.563 465.609 527.22 452.157 513.728 z" fill="rgb(247,139,151)" transform="translate(0,0)"></path>
<path d="M 613.542 1260.68 C 627.52 1261.28 661.541 1278.49 641.749 1295.4 C 620.938 1299.41 598.505 1274.57 613.542 1260.68 z" fill="rgb(247,139,151)" transform="translate(0,0)"></path>
<path d="M 617.378 1265.31 C 627.364 1266.96 641.567 1275.32 637.91 1287.42 C 624.047 1289.5 615.927 1278.68 617.378 1265.31 z" fill="rgb(232,232,234)" transform="translate(0,0)"></path>
<path d="M 618.654 1268.27 C 622.985 1269.35 631.353 1274.4 633.571 1278.32 C 631.168 1279.57 627.489 1278.24 624.22 1277.64 C 625.701 1279.91 627.701 1280.67 630.206 1282.24 C 632.846 1282.77 632.417 1282.44 635.039 1281.57 L 636.104 1282.7 C 635.38 1285.38 636.134 1284.36 633.697 1285.81 C 623.945 1282.67 618.873 1278.73 618.654 1268.27 z" fill="rgb(100,105,160)" transform="translate(0,0)"></path>
<path d="M 1072.6 1155.99 C 1075.82 1159.01 1081.19 1192.8 1082.48 1199.73 C 1077.63 1194.83 1072.81 1191.25 1067.39 1187.01 C 1059.85 1181.48 1051.37 1176.06 1043.54 1170.85 C 1052.08 1165.72 1063.49 1160.47 1072.6 1155.99 z" fill="rgb(247,139,151)" transform="translate(0,0)"></path>
<metadata><recraft-signature>{"signed_by": "recraft", "signature_b64": "utVamJ/piD5XccSRMhU7CyWbIlEZL9clQJfOZAj4JL6HvAL/SgefcOW19rcussk1jZfS+on8DM0L7ZdNL96lAw==", "signing_algo": "Ed25519", "generation_timestamp": 1770824241, "identifier": "86bba628-3763-418c-8ee8-daf550017b9a"}</recraft-signature></metadata></svg>